<?xml version="1.0" encoding="UTF-8"?>
<svg id="a" data-name="Layer 1" xmlns="http://www.w3.org/2000/svg" viewBox="0 0 800.02 56">
  <defs>
    <style>
      .b {
        fill: #242424;
      }
    </style>
  </defs>
  <path class="b" d="M77.32,21.61c.24-.03.45.02.69,0s.46-.18.7-.2.48-.06.72-.08.48.03.72.01.48-.03.72-.05.48-.05.72-.06.48-.1.72-.11.48.03.72.03.48-.01.72,0,.48.01.72.02.47.14.71.15.47.04.71.07.49-.1.73-.07.45.21.69.25.46.1.7.15.5-.04.73.02.44.2.67.26.44.2.67.27.51,0,.73.08.43.22.65.31.43.21.65.31c.22-.08.47-.06.71-.14.22-.08.43-.21.66-.29.22-.08.44-.17.67-.25.22-.08.45-.14.69-.23.22-.08.46-.11.7-.19s.43-.22.66-.3.45-.2.68-.28c.15.08.38.19.61.32.18.1.4.18.61.29.19.11.31.32.51.43-.02.25-.11.45-.16.66-.06.24-.08.46-.17.66-.1.22-.17.44-.31.62s-.38.28-.55.43-.25.44-.45.56-.48.1-.69.21-.4.22-.62.33-.48.21-.7.31c.06.23.25.5.31.73s.13.47.19.7.06.49.12.72.21.45.28.68.06.49.11.72.12.47.17.71c.05.23.15.45.19.68s-.01.47,0,.71,0,.47-.01.7.07.48.03.71-.14.45-.2.68-.12.45-.2.67-.21.42-.31.63-.15.45-.27.65c-.13.23-.4.35-.55.55-.16.21-.24.47-.42.64s-.41.31-.62.45-.44.24-.68.34-.46.22-.72.27-.5.02-.76.02-.5.02-.76-.01c-.24-.03-.48-.12-.72-.16s-.47-.14-.7-.21-.47-.13-.69-.24-.43-.21-.62-.37-.39-.29-.54-.5c-.13-.19-.24-.41-.33-.66-.08-.21-.1-.43-.15-.69.21-.1.36-.25.57-.35s.43-.17.64-.27c.2-.1.41-.2.63-.31.2-.1.42-.17.64-.28.2-.1.36-.25.59-.36-.05-.22-.06-.42-.11-.65s-.04-.45-.08-.68-.08-.44-.13-.66-.25-.41-.3-.63,0-.47-.04-.69-.15-.4-.2-.63c-.2-.03-.3-.05-.5-.08-.04.23-.12.4-.17.62s-.07.46-.13.68-.15.44-.24.65-.32.35-.43.55-.11.46-.24.65-.32.33-.47.5-.23.41-.4.56-.38.25-.57.39-.41.19-.62.3-.34.34-.55.43c-.19.08-.42.15-.64.19-.21.04-.44-.1-.66-.09s-.43.03-.64.01-.45.05-.66.02-.41-.2-.61-.25c-.25-.07-.52.02-.73-.04-.25-.08-.46-.19-.66-.27-.24-.1-.47-.2-.64-.31-.22-.14-.38-.33-.51-.5-.14-.18-.13-.42-.18-.67-.04-.21-.2-.42-.19-.68.01-.21.06-.44.11-.7.04-.21.18-.36.23-.61.21.06.39-.02.6.04s.38.26.6.32c.21.05.47-.08.69-.02.2.05.38.18.61.24.05-.27.27-.53.35-.81.1-.33.16-.71.05-.94-.11-.23-.39-.37-.51-.59-.12-.23-.2-.47-.33-.68-.14-.22-.22-.47-.37-.66-.16-.2-.41-.31-.58-.48s-.29-.44-.5-.57-.46-.2-.7-.29c-.23-.08-.46-.19-.72-.24-.23-.04-.49-.09-.76-.09-.23,0-.49.03-.75.05-.24.02-.48.11-.74.15-.24.04-.41.17-.67.23.01.23-.04.41-.03.65s0,.47,0,.71-.03.47-.08.7-.13.44-.24.65c-.1.2-.27.34-.45.52-.15.16-.3.31-.52.44-.18.11-.34.37-.58.47-.18-.04-.43-.15-.68-.2-.21-.05-.41-.2-.64-.25s-.46-.04-.67-.09c-.11-.24-.22-.45-.33-.65-.12-.23-.19-.48-.32-.67-.14-.22-.37-.35-.52-.52-.17-.19-.34-.36-.53-.5s-.44-.16-.68-.24c-.22-.08-.41-.31-.66-.35-.22-.03-.48.02-.74.02-.23,0-.46.07-.72.09-.23.02-.47,0-.73.03-.23.03-.48,0-.73.05-.24.04-.47.22-.71.25s-.51-.07-.75-.04-.47.17-.72.2-.51-.07-.75-.04-.48.1-.73.13-.47.18-.72.21-.49.05-.74.08-.51-.09-.75-.07-.47.24-.71.27-.5-.08-.75-.05-.48.11-.73.13-.48.12-.73.14-.5,0-.74.03-.5-.01-.74.01c-.26.02-.5,0-.72,0-.26,0-.51.05-.73.01-.25-.05-.51-.08-.72-.17-.23-.1-.43-.26-.62-.41s-.26-.41-.4-.61c-.13-.19-.33-.35-.43-.59-.09-.21-.11-.46-.18-.71-.06-.22-.16-.47-.21-.72.23-.04.49,0,.72-.05s.43-.23.65-.28.46-.07.69-.11.47,0,.7-.02.46.04.69.04c.25,0,.49-.16.74-.16s.49.07.74.08.49-.02.74-.02.49.13.74.14.5-.02.74-.03.49-.08.74-.09.49-.03.74-.04.5.06.75.04.49-.12.73-.15.49-.07.73-.11.5,0,.75-.06.45-.23.69-.3.48-.12.71-.2.45-.2.67-.3c.22-.1.49-.07.72-.15s.43-.21.66-.29.47-.1.7-.19.44-.21.65-.31.39-.28.6-.4c.21-.12.48-.13.68-.25s.35-.34.56-.46.41-.25.61-.37.48-.13.69-.25.34-.36.55-.48.41-.24.62-.36.43-.21.64-.33.47-.14.68-.27.37-.31.57-.44.36-.33.56-.46.46-.16.66-.29.37-.31.57-.44.42-.23.62-.36.39-.28.59-.41.39-.28.59-.41.4-.26.6-.4c.2-.14.46-.18.66-.32s.37-.31.57-.45.37-.31.57-.45.4-.28.59-.42.41-.25.61-.39.34-.36.53-.5.45-.2.65-.35.4-.27.6-.41.33-.37.52-.51.38-.3.58-.44.41-.25.61-.4.44-.23.63-.37.3-.41.49-.56.42-.24.61-.39.43-.23.62-.38.4-.28.59-.43.38-.29.58-.44.3-.42.49-.57.45-.19.65-.34c.17.12.43.18.68.36.19.14.39.32.62.48.2.14.38.36.6.52.21.15.44.28.67.44.24-.05.5-.04.75-.09s.48-.14.72-.19.48-.11.72-.17.47-.15.72-.2.5,0,.75-.06.48-.14.72-.19.45-.27.69-.33.51,0,.75-.05.49-.09.73-.14.48-.11.73-.16.49-.1.74-.15.47-.17.72-.22.42-.11.67-.16c-.18-.23-.32-.38-.48-.58-.18-.22-.28-.48-.44-.68s-.28-.39-.45-.6c.24-.11.37-.27.58-.36.24-.1.49-.15.71-.22.25-.08.5-.06.73-.1.26-.04.49-.24.73-.23s.5.1.74.17.48.14.7.27c.2.11.37.31.58.47.18.14.34.33.53.52.17.16.4.28.57.48.16.17.35.33.52.53.15.18.25.42.41.62.15.19.32.34.48.55.23.06.42.16.65.22s.46.13.69.19.47.1.7.16.45.15.69.21.47.06.71.11.45.2.68.24.47.11.7.15.48.05.71.08.48.03.71.05.47.16.7.18.48-.17.72-.17.47.14.71.14.47-.07.71-.09.48-.02.71-.05.48,0,.72-.05.44-.22.67-.27.49,0,.72-.07.43-.22.66-.3.46-.2.69-.29c.18.09.38.2.54.28.17.09.26.31.42.41.23.15.49.27.82.57-.07.23-.19.46-.27.71-.07.22-.07.48-.14.73-.07.22-.15.41-.23.66.24-.03.45,0,.69,0s.5-.02.74.02.46.24.7.29.5.03.74.07.49.02.73.02.51.13.75.07.42-.25.64-.39c.19-.12.4-.24.58-.44.15-.16.26-.37.41-.59-.1-.23-.11-.49-.21-.73s-.19-.48-.29-.72-.18-.4-.28-.65c.25-.01.39.04.62.05.25.01.5-.16.73-.12.24.04.44.25.66.32.24.07.5.04.71.15.22.11.36.33.55.47s.36.29.52.46.34.33.46.53.19.42.28.65.11.44.16.68.13.45.14.69c0,.23.03.47,0,.71-.02.23.02.48-.03.72-.05.23-.15.45-.22.69-.07.22-.15.41-.24.64.22.12.41.21.63.31.23.1.43.27.65.34.24.08.47.18.7.24s.5.09.73.11.5,0,.74-.02.5,0,.74-.06.43-.26.66-.34.45-.16.67-.28.47-.14.68-.29.42-.25.62-.41c.18-.15.34-.39.52-.57-.18-.16-.37-.34-.55-.5s-.37-.3-.55-.46-.32-.35-.5-.51-.42-.29-.6-.45c.16-.17.42-.26.59-.4s.32-.34.51-.45.37-.32.58-.4.45-.14.68-.18.47.02.7,0,.46-.04.69-.01.43.16.65.22.48,0,.69.09.39.25.58.38.45.17.62.33c.19.16.31.39.46.57.15.19.19.45.29.66s.33.38.39.61,0,.48,0,.73.1.47.07.72c-.03.23-.18.44-.24.68-.06.22-.06.47-.15.7-.08.22-.23.41-.34.63-.1.21-.23.41-.35.62-.12.2-.2.43-.33.64-.13.19-.19.45-.34.65-.14.19-.29.3-.45.49.25,0,.42-.06.65-.07.25-.01.5.13.73.1.25-.03.44-.25.67-.3.24-.06.47-.08.68-.17.22-.1.43-.19.63-.32s.34-.32.5-.49.34-.31.48-.51c.13-.19.3-.36.41-.59.09-.21.16-.44.23-.67.07-.22.08-.46.13-.7.05-.22.19-.44.22-.69.04-.27.08-.52.12-.75.05-.27-.04-.54.02-.77.06-.27.22-.48.3-.7.1-.25.18-.48.31-.68s.35-.33.54-.51c.17-.16.35-.3.58-.46.19-.13.33-.39.57-.52.2-.11.49-.1.73-.22.21-.11.4-.31.65-.43.25.09.66.13.97.31.16.09.19.36.33.49s.34.19.48.31c0,.32.07.61.06.88,0,.22-.19.44-.21.66s.03.46.01.69-.13.45-.12.67.03.47.1.69c.07.24.29.43.34.65s.04.49.08.72c.04.24.15.48.17.71s-.13.49-.13.73.02.48-.01.72-.08.47-.13.7-.12.46-.2.68-.14.46-.25.67-.31.36-.45.56-.24.4-.4.59-.23.44-.41.61-.4.27-.59.42-.42.22-.62.36-.35.33-.57.45-.41.24-.64.34c-.22.11-.51.07-.73.17s-.45.19-.67.28-.45.19-.68.27-.46.15-.69.23-.46.17-.69.24-.45.23-.68.29-.48.1-.72.15-.47.16-.71.2-.5-.06-.75-.03-.47.19-.71.21-.5-.11-.74-.09-.48.14-.73.15-.49.03-.73.03-.49-.03-.73-.04-.49-.02-.73-.04-.48-.1-.72-.13-.49,0-.73-.03-.49-.04-.73-.07-.46-.18-.7-.22-.5,0-.74-.06-.46-.19-.7-.25c-.21-.05-.45,0-.69-.06-.2-.05-.41-.13-.66-.2-.2-.05-.45-.17-.7-.24.09.22.18.49.27.71s.3.38.39.59.17.44.27.64.24.4.36.6.18.44.31.63.22.42.37.6.39.27.56.43.32.34.51.47.38.26.59.37.4.25.63.32c.21.07.46.06.7.11.23.05.48.04.71.09s.47.09.7.16.44.19.66.3.36.31.55.45.46.2.61.39c.14.17.27.43.39.66-.17.2-.4.39-.59.55-.2.17-.4.34-.6.47s-.43.29-.66.4-.52.08-.76.16-.44.29-.69.36-.5.11-.75.15-.51.06-.76.09-.47.06-.73.08c.03.25-.06.48-.03.71.04.26.14.49.19.72.05.26.06.51.12.73.07.25.21.47.3.68.11.24.28.42.42.6.15.21.27.43.46.57s.44.18.68.26c.22.07.45.1.7.12.23.02.47.11.73.09.23,0,.51-.02.77-.05-.02-.21-.09-.47-.11-.68s0-.43-.02-.65,0-.43-.01-.65-.19-.48-.21-.7c.25-.02.56.06.8.08.25.02.5,0,.74.05.24.06.43.26.65.36s.48.13.68.27.38.31.55.49.28.39.41.6.26.4.36.63.27.43.33.67c.05.23.06.49.08.74.02.25.06.49.05.72-.01.25-.13.47-.19.69-.06.23-.22.4-.34.61s-.15.46-.32.63c-.16.16-.34.31-.55.45-.18.12-.44.15-.66.26-.2.1-.4.22-.63.31-.21.08-.43.14-.67.21-.21.06-.45.09-.69.15-.22.05-.44.13-.68.17-.22.04-.44.15-.68.19-.22.04-.46.02-.7.06-.23.03-.45.16-.69.19-.23.03-.41-.02-.65,0,.21.15.34.28.52.43.2.16.42.28.59.43.2.17.3.45.48.56.23.15.49.19.71.21.26.02.52.08.76.08.26,0,.51-.11.75-.15.26-.04.48-.18.71-.26s.47-.16.69-.29.46-.23.64-.4.25-.43.4-.64c.14-.2.31-.38.42-.62.1-.22.23-.43.3-.69.26.09.48.19.69.3.24.13.45.28.62.44.19.19.4.36.51.58s.2.49.23.75c.03.24.04.52.02.78-.02.24-.21.47-.27.73-.06.23-.14.45-.21.66-.07.23-.18.43-.27.64-.09.22-.03.51-.14.71s-.35.34-.49.52-.21.43-.37.6-.4.26-.58.41-.33.34-.53.46-.42.19-.64.28-.45.1-.68.16-.43.21-.66.24-.46,0-.7.01-.46.06-.7.05-.45-.16-.68-.19-.45-.08-.68-.13c-.24-.05-.5,0-.72-.05s-.44-.21-.66-.29-.46-.13-.68-.23-.43-.2-.64-.31-.4-.25-.6-.38-.4-.26-.59-.4-.43-.22-.61-.38-.28-.4-.45-.57-.36-.31-.52-.49-.28-.38-.43-.56-.33-.34-.47-.54-.32-.36-.45-.56-.18-.44-.31-.65-.25-.4-.37-.61-.19-.43-.3-.64-.32-.37-.42-.59-.18-.44-.28-.66-.24-.42-.34-.64c-.1-.23-.13-.49-.22-.73s-.18-.47-.27-.71-.12-.49-.2-.73-.24-.45-.32-.69-.08-.5-.16-.75c-.08-.23-.19-.44-.28-.69-.12.22-.2.44-.32.66s-.25.44-.37.65-.29.41-.41.63-.23.44-.35.66-.3.4-.42.62-.14.49-.26.71-.26.42-.38.64-.3.4-.42.61-.13.46-.25.67c.1.17.11.42.22.59.22-.06.46-.22.68-.27s.45-.13.66-.16c.23-.03.46.04.67.06.23.02.45.03.65.14.19.1.34.26.49.45.13.16.25.34.35.57-.05.24-.04.48-.09.71-.06.24-.27.43-.34.64-.08.23-.15.45-.24.66-.1.23-.11.48-.22.68-.12.22-.29.39-.43.57-.15.19-.32.35-.49.5-.18.16-.37.3-.57.4s-.43.17-.67.22-.45.03-.7.02c-.25,0-.48,0-.71-.03-.24-.03-.47-.07-.69-.13-.23-.06-.44-.17-.65-.27s-.4-.23-.59-.37-.46-.18-.63-.35c-.16-.16-.2-.43-.35-.63-.13-.18-.37-.31-.49-.53-.11-.2-.2-.42-.3-.65-.09-.21-.2-.42-.28-.65-.08-.22-.15-.44-.21-.68-.06-.22-.02-.48-.08-.72-.05-.23-.12-.49-.17-.74-.24-.03-.52-.05-.75-.09s-.47-.11-.7-.15-.49.03-.73-.02-.46-.15-.69-.2-.48-.07-.71-.13-.44-.22-.66-.3-.5-.03-.73-.11-.46-.16-.68-.25-.41-.27-.63-.37-.39-.29-.6-.4-.42-.23-.63-.34-.41-.24-.61-.37-.45-.19-.64-.33-.38-.29-.57-.44-.44-.22-.62-.38-.35-.33-.52-.5-.34-.34-.5-.52-.31-.37-.46-.56-.28-.39-.42-.58-.34-.35-.47-.55-.2-.44-.32-.65-.3-.38-.42-.59-.11-.48-.21-.7-.18-.44-.27-.66-.23-.42-.31-.65-.22-.43-.29-.66-.13-.46-.19-.7-.12-.46-.18-.69,0-.49-.05-.73-.15-.46-.19-.69c-.22.1-.46.27-.72.4s-.53.14-.8.13c-.2,0-.38-.05-.58-.13-.19-.08-.36-.18-.55-.28s-.44-.12-.63-.2c.09-.23.31-.43.39-.63.09-.23.15-.46.24-.66.1-.23.06-.5.15-.7.11-.23.23-.44.33-.63.12-.23.2-.46.32-.64.15-.21.35-.36.52-.5.18-.16.39-.29.61-.37.21-.08.45-.04.7-.06.21-.02.44-.02.69,0,.21.02.44.02.69.06.22.03.44.11.69.16.22.04.43-.04.68,0,.15-.18.38-.25.53-.42s.35-.31.52-.48.21-.47.39-.62.44-.22.62-.37.37-.3.56-.43.38-.28.58-.4.42-.23.62-.33.41-.25.62-.34.42-.24.64-.31.48-.06.71-.12.46-.15.69-.18.48-.03.71-.04.47.06.71.06.48-.09.71-.06.44.2.67.25.48,0,.7.08.45.15.66.25.38.29.58.4.49.11.68.24.36.31.54.46.35.31.52.48.28.38.43.56.31.35.44.55.16.45.28.66.24.38.33.59c-.2.19-.38.27-.58.35-.24.1-.44.12-.67.1s-.5.06-.72-.04-.43-.21-.64-.33-.37-.32-.57-.43c-.23-.12-.46-.18-.65-.27-.24-.11-.43-.24-.64-.31-.25-.08-.47-.12-.69-.14-.24-.02-.45.08-.67.15-.21.06-.43.1-.65.24-.18.11-.35.27-.55.44-.16.14-.29.34-.47.52-.15.16-.29.26-.46.44.19.16.33.3.51.47s.39.33.56.51.24.46.4.66.39.34.52.56.16.48.25.72.23.45.29.7.05.49.06.75c.01.24.05.5.02.76-.03.24-.12.48-.18.74-.28,0-.56-.08-.82-.08s-.55,0-.82,0-.56.06-.83.06c-.16.2-.34.42-.44.66s-.15.5-.19.75-.1.52-.09.77.13.5.19.75.14.49.23.73.15.51.28.72.37.37.55.55.34.4.55.54c.2.13.47.1.68.2s.41.22.63.28.44.21.67.24.47-.04.71-.05.47,0,.7-.04.46-.1.68-.19.43-.2.63-.33.37-.28.56-.43c.18-.15.41-.24.58-.4s.25-.42.41-.58.3-.36.45-.53.42-.26.57-.43.28-.38.42-.56.2-.43.33-.62.37-.31.5-.51.18-.43.3-.64.3-.37.41-.57.23-.41.33-.62.08-.47.18-.69.2-.42.29-.63.16-.44.24-.66.19-.47.26-.69c-.23.03-.5,0-.73.04s-.45.15-.67.17-.46.11-.69.1-.44-.18-.66-.23-.44-.09-.64-.2c-.19-.1-.33-.27-.5-.44-.15-.15-.31-.28-.45-.48.15-.18.2-.42.34-.61s.29-.36.42-.56.25-.39.36-.6.27-.39.36-.6.16-.44.23-.66.17-.44.22-.67-.01-.47,0-.7.06-.46.06-.69.03-.47,0-.7-.15-.44-.2-.67-.1-.45-.18-.67-.15-.44-.25-.65-.27-.38-.39-.59c-.12-.2-.24-.4-.36-.6s-.14-.47-.27-.65-.37-.31-.51-.49-.26-.39-.41-.56-.35-.3-.52-.46-.29-.37-.46-.52-.32-.34-.51-.48-.42-.21-.62-.33-.38-.27-.59-.37-.43-.18-.65-.26-.46-.06-.69-.13-.42-.18-.66-.23-.45-.1-.69-.13-.53-.12-.76-.13c0,.24.1.56.09.8s-.05.49-.06.73-.05.49-.07.73-.11.48-.15.71,0,.5-.05.73-.1.49-.2.71-.24.44-.38.64-.3.39-.48.56c-.17.16-.38.31-.6.43-.2.11-.44.19-.68.27-.22.07-.45.18-.7.23-.23.04-.49-.08-.74-.06-.23.02-.46.15-.69.13s-.47-.08-.68-.15-.39-.25-.6-.36-.35-.28-.53-.43-.45-.19-.6-.36-.25-.39-.37-.58-.16-.42-.25-.64-.29-.46-.35-.69c.27,0,.61.15.87.15s.54-.02.81-.02.54-.05.81-.05c-.09-.23-.27-.42-.36-.62-.1-.23-.2-.44-.3-.63-.12-.22-.19-.44-.31-.63-.13-.21-.28-.39-.42-.56-.16-.19-.3-.37-.47-.52-.18-.16-.4-.23-.61-.34s-.37-.31-.6-.38c-.21-.07-.46-.04-.7-.08-.22-.03-.45,0-.69-.02-.22,0-.45-.04-.7-.03-.22,0-.46-.08-.71-.06-.21.02-.42.06-.63.05s-.41-.08-.62-.1-.43.09-.64.08-.42-.08-.63-.08c-.21,0-.43-.02-.65-.02s-.43-.08-.65-.08-.43.14-.65.14-.49-.11-.72-.11c-.05.25-.13.55-.18.8s0,.52-.05.77-.18.48-.22.73-.06.48-.11.74c-.19.13-.32.3-.51.42s-.37.27-.56.4-.36.29-.55.42-.41.21-.6.34-.38.25-.57.38c-.25-.1-.46-.25-.71-.36s-.5-.15-.76-.26c-.23-.1-.43-.22-.69-.32.09-.21.18-.38.26-.59s.16-.42.25-.63c.08-.2.11-.44.2-.66.08-.2.22-.41.31-.64-.23-.08-.48-.18-.71-.25s-.46-.19-.69-.25-.51.03-.74-.02-.46-.19-.7-.22-.49.01-.73-.01-.48-.07-.72-.08-.49-.06-.73-.05-.48.1-.72.12-.5-.07-.73-.04-.47.15-.71.19-.47.12-.7.18-.48.06-.72.13-.44.2-.67.28-.48.1-.7.19-.47.12-.7.22-.42.25-.64.36-.44.2-.65.31-.41.25-.63.37-.37.32-.58.45-.44.19-.65.32-.38.3-.58.43-.41.21-.6.35Z"/>
  <path class="b" d="M350.49,25.19c0,.28-.01.51-.01.73,0,.27.11.51.11.74s.02.49.02.74c0,.23-.06.5-.06.78-.25.02-.55-.05-.79-.02s-.5.07-.74.1-.5.03-.74.06-.49.05-.74.06-.5.16-.75.13c-.24-.02-.47-.12-.71-.15s-.48-.05-.72-.08-.47-.15-.71-.18-.48-.04-.72-.07-.48-.04-.72-.07-.48-.07-.71-.1-.49.06-.73.03-.47-.14-.7-.17-.48-.07-.71-.1-.47-.08-.71-.11-.47-.09-.71-.12-.47-.09-.71-.12-.49.1-.73.08-.48-.04-.72-.06-.47-.15-.71-.17c-.26-.02-.51.08-.77.09s-.51.03-.77.06-.51.03-.77.07-.5.15-.75.2-.51.08-.77.13-.58-.04-.83,0c-.07.22-.09.5-.16.7-.07.22-.21.41-.28.61-.07.22-.15.43-.21.63-.07.22-.03.5-.1.7-.26,0-.52-.15-.74-.16-.26-.02-.49-.05-.7-.08-.26-.05-.51,0-.71-.09-.23-.11-.41-.25-.56-.44-.13-.17-.29-.36-.37-.62-.06-.2-.12-.44-.16-.7-.03-.21.06-.46.04-.72-.02-.22.01-.46,0-.71-.01-.22-.13-.45-.14-.7-.24-.04-.47-.1-.7-.12s-.48.05-.71.05-.48-.08-.71-.06-.47.05-.7.09-.44.19-.66.26-.49.03-.71.12-.39.27-.6.39-.43.21-.61.37-.37.3-.54.47-.24.41-.4.6c-.14.18-.23.4-.36.61-.14.22-.3.37-.39.53-.13.23-.25.39-.27.59s.05.37.14.63c.06.17.17.35.29.58.08.18.14.32.25.54.2-.11.34-.2.54-.31s.46-.12.66-.24.37-.21.57-.32c.15.21.24.4.35.59.14.23.25.44.32.64.09.26.23.48.21.7-.02.24-.19.43-.34.64-.12.18-.21.43-.43.59-.18.13-.37.29-.61.42-.22.12-.49.13-.72.21s-.46.21-.7.25-.5.03-.74.04-.48-.11-.72-.15-.49-.03-.72-.1-.48-.13-.7-.23-.42-.24-.63-.38-.34-.34-.53-.5-.38-.3-.54-.48-.4-.3-.54-.5-.3-.39-.42-.61-.17-.47-.25-.7-.05-.49-.1-.73c-.05-.23-.16-.45-.18-.7-.02-.23,0-.47,0-.73,0-.23-.06-.41-.08-.67-.2.13-.33.22-.5.36-.18.15-.34.31-.49.47-.16.17-.34.31-.48.48-.14.19-.27.37-.38.57s-.11.44-.19.66-.12.42-.17.65-.15.43-.17.65-.03.45-.02.68.04.42.07.65c.21.12.41.21.62.32s.39.29.6.41.4.27.6.38.46.15.67.26.31.29.51.41c-.13.2-.19.36-.33.53-.15.19-.3.36-.47.51-.17.17-.3.39-.48.52-.19.14-.45.18-.65.28s-.41.22-.63.28-.46.03-.69.05-.45.02-.68,0-.44-.06-.67-.12-.49.01-.7-.08-.4-.24-.6-.37-.31-.34-.49-.5-.42-.23-.57-.41-.3-.36-.43-.56c-.13-.2-.19-.45-.3-.66s-.21-.43-.29-.65-.18-.45-.24-.67-.19-.45-.23-.69-.02-.48-.04-.72-.03-.48-.03-.72.02-.48.05-.72.17-.46.21-.69.09-.46.15-.7c.06-.24-.03-.52.04-.77s.27-.44.35-.69.16-.47.24-.71.02-.52.09-.76.22-.47.3-.72c-.21-.12-.42-.31-.64-.42s-.52-.07-.75-.18-.42-.28-.63-.41-.41-.29-.59-.46-.27-.4-.42-.61c-.14-.2-.3-.37-.39-.62-.08-.22-.15-.45-.19-.71-.03-.23-.03-.46-.02-.73.23-.06.45-.03.67-.04.23,0,.46-.05.69,0s.46.06.68.14.44.14.65.24.44.15.65.24.37.31.58.39.42.22.64.29.47.07.7.09.46-.03.69-.05c.22-.1.48-.1.71-.19s.39-.35.61-.44.51-.01.74-.09.46-.16.69-.23.48-.09.72-.14.45-.24.69-.28.48-.09.72-.13.49,0,.73-.03.48-.14.72-.17.49.03.73.02.49-.02.73-.03.49-.06.73-.06.48.08.73.09.48.03.73.05.5-.07.74-.05.48.11.72.14.48.05.73.09.47.11.72.16.49.02.73.06.45.25.68.3.5-.01.74.04.47.14.7.2.47.13.7.19.48.07.72.14.48.17.72.24c-.18-.15-.39-.3-.58-.45s-.35-.32-.53-.46-.36-.31-.55-.45-.4-.25-.6-.38-.41-.24-.61-.36-.43-.19-.63-.31-.4-.24-.61-.35-.39-.27-.6-.37-.46-.13-.67-.23-.41-.23-.63-.32-.43-.18-.65-.27-.43-.2-.65-.28-.46-.09-.69-.16-.43-.18-.66-.25-.43-.19-.66-.25-.45-.13-.68-.19-.49.04-.72,0-.43-.2-.67-.25-.47-.02-.7-.06-.46-.07-.69-.11c-.22.04-.47.03-.73.08-.23.04-.46.14-.72.19-.23.05-.48.1-.73.15-.24.05-.51-.05-.76,0-.24.05-.46.22-.71.27s-.5.02-.74.07-.47.19-.72.24-.49.03-.74.08c.1.24.13.49.22.71.1.24.33.41.42.63.1.23.2.46.3.68s.05.44.15.67c-.24.03-.41.03-.63.03-.24,0-.48.09-.7.06-.24-.03-.44-.2-.65-.27s-.5-.03-.7-.15-.36-.3-.53-.47c-.16-.16-.32-.33-.47-.53-.13-.18-.22-.4-.34-.62-.11-.19-.11-.45-.21-.67-.09-.2-.32-.36-.4-.59-.08-.21-.12-.42-.2-.65-.23-.02-.42-.16-.65-.19s-.47.1-.7.07-.43-.21-.66-.24-.48.14-.7.11-.44-.12-.67-.14-.44-.16-.67-.18-.46-.03-.68-.05-.46.17-.69.16-.45-.05-.68-.04c-.24.01-.49-.03-.71,0-.24.04-.44.2-.66.27s-.5.02-.71.11-.41.25-.61.37-.43.22-.61.36-.38.28-.56.45-.32.35-.48.53-.27.39-.41.58-.19.44-.33.63-.34.34-.46.54-.26.41-.38.61c.28,0,.55.01.8.01.27,0,.54.02.79.02s.53.06.79.06.46-.06.73-.06c-.11.22-.09.44-.21.63-.13.21-.31.39-.45.56-.15.2-.39.31-.55.46-.18.17-.32.37-.52.49-.21.13-.42.24-.64.31s-.46.06-.7.08-.47.11-.71.08c-.23-.03-.46-.1-.69-.18-.23-.07-.48-.07-.69-.17-.21-.1-.32-.38-.5-.51s-.39-.23-.55-.4-.34-.31-.47-.51-.19-.41-.28-.63c-.08-.2-.1-.43-.16-.66-.05-.21-.24-.41-.28-.65-.03-.22.09-.46.08-.7-.01-.22-.11-.45-.11-.69,0-.22.15-.45.17-.68.02-.22,0-.5.02-.73-.25,0-.53.12-.77.14s-.49.04-.73.08-.52-.06-.75,0-.43.3-.66.37-.51.04-.73.13-.43.25-.64.36-.39.29-.6.42-.43.23-.63.37-.42.25-.61.41-.38.31-.56.48-.28.4-.45.59-.28.4-.43.59-.31.37-.46.57-.37.34-.5.55-.18.46-.3.68c-.13.22-.3.41-.4.63s-.15.48-.24.71-.24.45-.3.69.04.51,0,.75-.06.48-.06.73-.06.49-.03.74,0,.51.07.75.29.42.39.65.14.47.26.69.27.4.42.61.2.47.37.66.33.29.52.47c-.17.23-.24.43-.38.59-.19.23-.36.4-.56.48s-.42.02-.72-.03c-.2-.03-.45-.02-.73-.12-.21-.07-.44-.14-.7-.24-.21-.08-.41-.25-.66-.35-.21-.09-.44-.07-.69-.17.03.25.07.44.11.68s.13.47.19.71,0,.51.07.74.2.45.28.68.12.48.22.71.24.43.35.65.3.39.42.61.14.49.27.69.37.34.51.54.3.38.45.58.21.46.37.65.43.27.6.45.34.35.52.52.33.36.51.52.3.41.49.57.43.25.63.4c.2.15.44.19.65.28.22.11.4.27.63.32s.47,0,.7,0,.47,0,.7-.04.45-.13.67-.21.43-.18.64-.28.42-.2.63-.3.47-.12.67-.24c.21-.12.38-.29.56-.45s.31-.36.45-.55.26-.39.37-.6.23-.42.3-.64.03-.47.06-.71.15-.46.14-.7,0-.48-.05-.71c-.05-.23-.2-.45-.26-.69-.06-.22-.11-.43-.18-.68-.21.07-.39.1-.59.17s-.44.07-.63.13-.4.28-.6.35c-.17-.18-.3-.42-.43-.61-.14-.2-.19-.43-.28-.64-.09-.22-.14-.43-.18-.65s-.04-.44-.02-.67c.03-.22-.07-.49.01-.71.07-.21.28-.37.4-.58.11-.19.14-.45.29-.64.13-.18.3-.34.46-.52.14-.17.36-.28.53-.46.16-.16.31-.34.48-.5.17-.15.41-.31.6-.46-.16-.2-.37-.42-.53-.58-.19-.18-.39-.33-.58-.46-.22-.14-.45-.22-.67-.29-.24-.09-.46-.24-.7-.26s-.5.02-.74.05-.44.25-.67.32-.49.05-.72.14-.45.18-.67.28-.44.21-.66.31-.44.2-.66.29-.43.24-.65.32-.52.18-.75.23c-.02-.24-.04-.53-.03-.75,0-.24.11-.46.15-.68.04-.23.14-.43.22-.64s.07-.47.19-.66.3-.34.46-.51c.15-.16.37-.24.56-.39.17-.13.26-.4.47-.52.19-.11.42-.18.63-.29.2-.1.4-.22.62-.32.23-.1.49-.12.73-.19s.49-.09.73-.12.48-.14.73-.14.5-.04.75-.02.49.12.73.17.5.06.74.13.46.19.69.28.46.19.68.3.45.21.67.33.4.28.61.42.43.24.63.39.33.38.52.54.35.34.54.51.37.32.55.5.36.33.52.52c.24,0,.46.11.7.11s.47-.2.7-.2.47.14.71.14.47-.06.71-.06.47.02.71.02.45.05.69.05c.11.21.32.34.44.55s.13.47.24.68.3.38.42.59.26.4.38.61.21.42.33.64.09.49.21.71c.11.21.33.4.44.61-.27-.08-.53-.19-.77-.26-.26-.08-.53-.07-.77-.14-.26-.08-.51-.15-.75-.22-.26-.07-.49-.19-.73-.26s-.45-.08-.7-.15c0,.24-.13.41-.15.65s.03.49,0,.73-.02.49-.06.73-.23.45-.28.68,0,.5-.06.73-.16.46-.24.69-.11.48-.2.7-.27.41-.36.63-.21.43-.32.65-.25.41-.37.62-.25.41-.38.61-.12.51-.26.7-.42.28-.58.47-.22.45-.39.62-.42.26-.6.43-.35.32-.54.48-.34.34-.53.49-.41.26-.61.39-.42.24-.62.36-.38.29-.6.41-.41.24-.63.35-.41.27-.63.37-.46.15-.69.23-.45.17-.68.25-.46.13-.7.2-.48.04-.72.1-.48.07-.72.11-.47.09-.71.13-.47.1-.71.13-.48.02-.73.04-.42.17-.67.18c-.01.24-.02.43-.03.67s-.14.47-.16.71-.1.47-.13.7-.03.48-.09.71-.13.46-.22.68-.18.44-.32.64-.32.35-.5.51c-.17.16-.31.36-.53.49-.19.12-.46.1-.7.19-.21.08-.41.22-.66.28-.24.05-.47.19-.69.2-.24,0-.5-.03-.72-.07-.23-.05-.43-.22-.64-.32s-.42-.2-.61-.35-.27-.37-.43-.55c-.15-.17-.39-.28-.52-.49-.13-.21-.23-.46-.38-.67s-.38-.38-.51-.6-.17-.51-.23-.75.05-.49.11-.75c.05-.22.02-.51.18-.75.13-.19.35-.3.56-.51.18.12.38.15.57.27s.3.33.49.45.4.17.59.3c.18.11.37.28.56.41.12-.17.4-.41.45-.65.05-.24.03-.48.05-.7.02-.24-.08-.47-.09-.69-.02-.24-.04-.46-.09-.68s-.15-.43-.23-.64-.04-.49-.15-.7-.38-.31-.5-.51-.21-.41-.35-.6-.26-.38-.4-.56-.32-.34-.46-.52-.24-.4-.37-.59-.2-.42-.32-.62-.26-.4-.36-.61c-.09.22-.15.47-.23.68s-.27.4-.36.61-.18.43-.27.65-.05.48-.13.7-.25.41-.34.62-.14.45-.23.66-.25.4-.33.62-.17.43-.26.65-.04.49-.13.7-.31.37-.41.58-.09.47-.19.68-.14.45-.23.66c-.1.22-.37.35-.48.55s-.14.47-.25.67-.2.44-.33.64-.39.3-.54.49-.22.43-.38.61-.38.29-.55.45-.34.32-.53.47-.27.42-.47.56-.43.21-.64.33-.38.3-.59.4-.49.05-.71.14-.43.19-.66.26-.45.12-.69.17-.46.09-.7.13-.46.11-.7.13c-.24.02-.47-.07-.69-.07-.24,0-.46.02-.68-.01-.24-.03-.49.04-.71-.03s-.42-.22-.62-.32-.36-.28-.55-.42-.42-.21-.59-.37-.33-.32-.48-.51-.15-.45-.28-.65c-.14-.21-.27-.42-.4-.63s-.26-.42-.37-.65-.2-.45-.29-.68-.18-.46-.23-.7-.17-.48-.17-.73.04-.5.09-.75c.05-.23.07-.5.17-.74.09-.22.33-.38.47-.61.12-.2.24-.5.4-.71.03.27-.04.61.02.84.06.26.25.47.35.69.11.25.26.44.4.63.16.21.31.39.51.54s.41.28.65.38.44.25.69.32.5.06.76.11.5.04.76.07c.27.03.51.13.74.11.26-.02.48-.17.7-.25.23-.09.48-.15.67-.32.17-.15.25-.41.4-.63.13-.19.27-.37.39-.6-.22-.08-.4-.21-.62-.29s-.45-.15-.67-.23-.48-.04-.71-.12-.43-.19-.65-.27-.45-.13-.67-.21-.42-.23-.64-.31-.42-.22-.64-.3-.48-.06-.7-.13-.42-.21-.64-.28c-.06-.24-.1-.48-.15-.71-.05-.25-.04-.49-.08-.73-.04-.25-.15-.48-.17-.72-.02-.26-.09-.5-.09-.73,0-.26,0-.51.02-.74.03-.25.12-.5.18-.72.07-.25.26-.43.37-.63.12-.22.15-.5.32-.67s.4-.31.62-.42.46-.16.71-.22c.22-.05.47-.09.73-.09.23,0,.52.01.77.05-.05.22-.22.46-.27.68-.04.21.05.46,0,.69-.04.21-.1.43-.15.66-.04.21-.11.41-.16.64.24.02.46.03.69.07s.46.21.69.23c.25.02.5-.05.71-.11.24-.07.49-.11.69-.21s.41-.28.59-.42.33-.35.49-.53.37-.32.49-.52.16-.45.26-.67.14-.44.2-.68c.06-.22.18-.44.21-.69.03-.23.08-.47.08-.72,0-.23-.06-.47-.08-.72-.24,0-.47-.06-.7-.08s-.46-.1-.7-.14-.5.08-.73.02-.42-.24-.65-.32-.46-.13-.67-.25-.33-.35-.52-.49c-.18-.14-.42-.21-.6-.38-.17-.16-.32-.34-.48-.53-.15-.18-.25-.34-.39-.55.22-.1.41-.19.63-.28s.42-.28.65-.37.47-.14.71-.22.45-.2.68-.28.49-.09.72-.18.49-.11.71-.2.4-.32.62-.43.43-.22.64-.34.47-.17.67-.31.37-.33.55-.49.36-.33.52-.52.33-.37.46-.58.22-.43.32-.66c.1-.22.12-.47.19-.71.07-.23.17-.46.22-.71-.24.01-.47.12-.71.13s-.47,0-.71.01-.48-.03-.71-.02-.47.08-.71.09-.48-.12-.72-.11-.47.1-.71.11-.48-.03-.72-.02-.47.09-.71.11-.47.1-.71.11-.48,0-.72,0-.48-.05-.72-.04-.47.13-.71.14-.48-.05-.72-.05c-.23,0-.47-.05-.7-.06s-.47-.03-.7-.05-.46-.05-.69-.08-.47,0-.7-.05-.46-.08-.69-.14-.46-.11-.68-.18-.4-.28-.62-.35-.42-.19-.64-.27-.41-.21-.63-.3-.5-.03-.71-.14-.35-.33-.56-.44-.45-.14-.66-.26-.35-.32-.55-.44-.44-.18-.63-.3c-.2-.13-.37-.3-.55-.44s-.32-.35-.48-.51-.4-.28-.54-.46-.23-.41-.34-.62-.27-.39-.35-.61-.04-.47-.1-.7-.08-.45-.11-.68-.16-.45-.16-.69.08-.46.1-.7.01-.46.05-.7.09-.45.15-.69.15-.44.22-.67.15-.44.24-.66.09-.45.19-.67c-.06-.23-.01-.48-.07-.72s-.16-.45-.22-.69-.09-.47-.15-.71-.18-.44-.24-.68c.23-.05.44-.11.67-.12s.47.09.69.12.46.07.68.13.42.18.63.29.47.13.66.27.36.31.52.48.35.32.49.52.19.44.28.65.18.43.23.66c.07.27-.01.57.02.84.03.25.15.47.19.7.04.25,0,.5.06.72.06.24.17.46.24.68.08.24.19.45.28.66.1.23.21.43.33.63.13.2.24.42.4.59s.35.32.55.46.36.31.59.42c.21.1.47.08.71.15.22.07.44.15.68.2.22.04.45.15.69.18.23.03.47-.06.72-.05.23.01.46.18.71.18.23,0,.46-.08.71-.09-.16-.19-.33-.35-.48-.53s-.25-.42-.4-.61-.34-.35-.49-.54-.27-.41-.4-.6-.28-.4-.4-.6-.29-.4-.39-.62-.05-.5-.11-.73-.12-.45-.14-.69-.12-.47-.1-.72.11-.46.19-.7c.07-.22.16-.44.28-.66.1-.2.21-.42.36-.63.13-.19.29-.37.45-.56.16-.19.35-.31.53-.44.19-.14.37-.26.59-.34s.42-.12.67-.14c.22-.01.44.03.68.06.22.03.43.1.67.16.21.06.47-.01.7.07.21.07.37.29.6.38.21.09.47.06.69.17.2.09.42.22.64.33-.2.18-.38.38-.57.55-.2.18-.39.35-.58.52s-.46.28-.65.45-.4.38-.6.55c.12.21.28.45.41.63.14.2.27.4.43.56.17.17.42.23.62.36s.37.28.59.37.44.1.68.15c.22.04.44.17.68.18.22.01.45-.12.69-.14.22-.02.44-.05.69-.09.22-.04.47.01.7-.04.22-.05.47-.01.71-.08.22-.06.45-.13.68-.2.22-.07.44-.15.67-.23.21-.08.41-.25.63-.34-.04-.23-.08-.47-.12-.71s-.19-.45-.23-.68-.08-.47-.12-.7-.09-.47-.13-.7-.07-.47-.12-.71-.06-.49-.11-.72c.18-.18.3-.42.46-.62s.37-.36.53-.55.27-.45.44-.63.45-.27.66-.4.44-.21.7-.26c.23-.04.47-.11.75-.07.23.03.54.07.81.16-.11.23-.23.51-.33.73-.11.23-.21.45-.31.67s-.31.42-.41.64c.03.24.18.46.33.66.14.18.33.32.54.46.19.12.38.31.62.38.22.07.47.11.72.13.23.02.49.02.73,0,.25-.03.49-.17.74-.21s.52.07.77.04.5-.1.75-.13.48-.21.74-.24.5-.05.75-.08.49-.12.75-.16.48.02.73-.02c-.22-.13-.41-.2-.62-.33s-.38-.33-.59-.45-.43-.25-.64-.37-.43-.22-.63-.34c.14-.32.3-.6.44-.93.19-.05.31-.24.51-.31s.44-.03.62-.08c.23-.06.38-.05.55.03.22.1.51.01.73.09s.41.26.63.33.46.11.69.16.47.07.7.1.47.07.7.09.47-.02.71-.02.47-.06.7-.07.47.06.71.04.46-.09.7-.12.47-.03.7-.06.48,0,.71-.04.44-.2.67-.24.49.03.72-.02.44-.2.67-.25.46-.11.69-.16.48,0,.71-.05.43-.25.66-.29c.24-.05.49-.08.73-.15s.47-.16.71-.24.49-.12.72-.19c.11-.23.19-.47.3-.68.12-.23.33-.4.45-.6.14-.23.25-.44.39-.63.16-.21.33-.38.49-.54.19-.18.37-.32.58-.44.22-.13.39-.36.63-.41s.5-.07.76-.06c.23.01.46.14.72.2.22.05.47.09.71.18.22.08.43.22.67.33.21.1.44.2.67.32-.17.15-.28.35-.45.49-.16.14-.36.23-.54.39-.16.14-.31.29-.49.45-.16.14-.26.23-.45.39.24.05.41.05.65.1s.47.14.71.19.49.07.72.12.45.23.69.29.5,0,.74.05.46.2.69.25.49.04.73.1.47.14.71.19.49.06.72.11.46.16.7.21.46.18.7.24.47.11.71.17.49.05.72.1.46.14.7.19.5.09.74.14c.13-.2.31-.38.43-.57s.17-.43.29-.62.24-.38.37-.58c.12-.18.27-.3.4-.5.19.1.37.09.57.17.21.08.38.22.56.31.21.1.48.12.6.28.14.2.24.42.39.61s.22.44.38.62.37.31.54.49.3.38.47.55.34.34.52.5.37.31.56.46.39.28.58.43.33.36.53.5.47.18.66.31.42.24.62.37.32.38.52.51.42.24.62.37.46.17.66.3.34.37.54.49.45.19.65.31.37.32.58.44.4.27.6.4.47.15.68.28.39.28.59.41c.2.13.4.26.6.38s.38.29.58.41.39.27.6.39.46.16.66.28.45.17.66.29.34.36.54.48.43.2.64.32.38.29.58.41.42.22.62.34.46.16.66.29.38.29.57.43c.2.14.39.28.59.41s.38.31.58.44.43.23.64.34.41.27.62.38.47.13.69.23.43.23.65.32.43.23.66.31.48.1.71.17.45.17.68.24.46.15.69.21.48.04.72.09.47.09.71.14.46.21.7.24.49-.06.73-.03.47.09.72.11.48-.03.73-.01.48.09.72.1.48.07.72.07.48-.07.73-.07.48.03.73.02c.24,0,.47-.03.71-.03s.47-.1.71-.1.47.07.72.07.47.02.72.02.47.1.71.1.48-.14.72-.14.46.06.71.06Z"/>
  <path class="b" d="M713.81,17.04c-.22.04-.45.07-.68.11s-.44.13-.67.18-.46.03-.69.08-.43.14-.66.18-.46.01-.69.06-.42.23-.65.28-.46.03-.69.08-.44.12-.67.17-.51.05-.74.09c.1.24.31.46.4.68.1.24.21.46.31.67.1.23.03.52.13.75s.27.42.37.65c-.25.03-.48-.02-.71-.01-.25,0-.47,0-.69-.02-.24-.03-.5.03-.71-.04s-.36-.32-.56-.45-.42-.19-.59-.37c-.15-.16-.33-.32-.47-.53-.12-.18-.28-.37-.39-.59-.1-.2-.05-.48-.14-.7-.09-.21-.32-.37-.4-.6-.07-.21-.06-.47-.13-.7-.23-.02-.46.03-.69,0s-.44-.18-.66-.2-.46,0-.68-.02-.46.04-.69.02-.44-.1-.67-.12-.44-.13-.67-.14-.46.02-.68,0-.45.02-.68.02-.45-.07-.68-.06c-.24,0-.46.16-.69.19s-.5-.06-.72,0-.47.11-.69.2-.38.31-.58.42-.44.18-.63.32-.4.26-.58.42-.31.36-.47.54-.33.34-.48.53-.17.45-.31.65-.25.39-.37.6-.32.37-.44.58c.24,0,.48.01.7.01.24,0,.46-.05.68-.05.23,0,.46,0,.68,0s.42.07.65.07c-.04.24-.11.43-.17.64-.07.23-.1.47-.21.66-.12.21-.32.33-.48.5s-.3.33-.5.45-.4.18-.63.25c-.21.06-.41.21-.65.23-.22.02-.46.09-.71.07-.24-.02-.48-.07-.7-.12-.23-.05-.43-.23-.63-.31-.22-.09-.38-.26-.56-.39s-.41-.22-.57-.39-.26-.37-.38-.58c-.11-.19-.17-.41-.26-.63-.08-.2-.21-.4-.27-.63-.06-.21-.09-.44-.13-.68-.04-.22-.13-.44-.15-.68-.02-.22.05-.46.04-.69,0-.22-.12-.45-.11-.7,0-.23-.02-.39,0-.63-.25-.01-.43-.16-.67-.15s-.5.06-.73.09-.48.11-.72.16-.45.2-.68.27-.46.14-.69.23-.47.14-.68.26-.4.28-.6.41-.41.26-.6.4-.35.34-.53.5-.43.25-.6.43-.39.3-.55.49-.23.44-.39.63-.29.39-.43.59-.38.33-.52.54c-.13.21-.22.44-.34.64s-.16.46-.26.68-.2.44-.28.66-.11.47-.17.7-.15.46-.19.69.02.48.01.72-.04.47-.02.71-.08.5-.02.74.26.42.34.65.07.48.18.7.31.37.44.58.22.41.37.61.3.36.46.55.3.41.47.59c-.21.17-.47.28-.66.38-.24.12-.47.18-.7.22-.25.04-.51.12-.74.08s-.47-.17-.7-.26-.47-.15-.69-.27-.38-.33-.6-.43-.47-.19-.71-.25c.04.24.17.48.22.72s.11.47.17.7.08.48.14.71.03.5.11.73.17.46.26.68.17.46.27.68.23.43.34.64.37.34.5.55.19.45.33.65.28.39.42.59.22.44.37.63.32.36.48.54.34.34.51.52.33.35.51.52.44.24.62.4.31.38.49.53c.18.15.36.28.56.38s.41.2.63.27.44.14.67.17.46.07.69.06.44-.18.67-.22.44-.09.66-.15.47-.03.68-.12.37-.28.58-.38.39-.22.58-.35c.2-.14.41-.24.58-.4.17-.17.28-.37.41-.56s.27-.37.36-.59.32-.38.37-.62.01-.47.03-.72c.02-.23.09-.47.08-.71-.01-.23-.03-.47-.07-.71-.04-.23-.22-.43-.28-.67-.05-.22-.02-.54-.09-.77-.2.06-.47.11-.67.18s-.36.23-.56.29-.41.12-.6.18c-.16-.21-.37-.39-.48-.59-.13-.23-.24-.46-.32-.69-.08-.24,0-.51-.02-.76s.05-.47.1-.72c.05-.23.03-.49.13-.73.1-.21.24-.41.39-.63.13-.19.21-.45.38-.65.15-.18.38-.31.56-.49.17-.17.34-.34.54-.52.18-.16.28-.34.48-.51-.15-.21-.19-.42-.34-.59-.18-.19-.41-.31-.59-.44-.21-.15-.39-.32-.6-.41-.23-.1-.48-.17-.71-.2s-.49.07-.73.1-.45.14-.69.2-.46.1-.69.19-.46.15-.68.25-.42.25-.64.35-.43.23-.65.32-.46.19-.68.26-.55.09-.78.13c-.02-.26.07-.56.08-.79.01-.26.05-.49.1-.72.05-.25.14-.46.24-.68s.21-.42.36-.62c.14-.19.23-.43.43-.6.17-.15.43-.21.65-.35.2-.13.35-.35.58-.47.21-.11.42-.24.66-.34.22-.09.48-.08.7-.15s.44-.19.67-.23.47-.03.71-.05.46.09.7.1.47-.02.7.01.46.05.69.11.44.15.66.23.4.24.62.34.43.16.64.27.46.12.67.25.42.21.62.35.36.31.54.45.3.37.48.53.4.24.58.41.32.34.48.51.36.27.52.45c.24,0,.44.04.67.04s.47-.02.7-.02.46.05.69.05.46,0,.69,0,.46-.1.69-.1.51,0,.74,0c.12.21.21.5.33.71s.24.42.36.64.27.41.39.63c.12.21.25.42.38.64.12.21.18.45.31.68.12.21.2.44.33.67.12.21.32.43.45.65-.25-.08-.48-.27-.7-.34-.24-.08-.49-.09-.71-.16-.24-.08-.47-.15-.69-.23s-.49-.06-.72-.14-.42-.24-.66-.32c-.22-.07-.45-.12-.69-.2.03.24-.03.48-.01.72s.01.48.01.71-.02.48-.03.71.11.5.08.73-.11.47-.16.71-.2.44-.27.67-.03.5-.11.72-.17.46-.27.67-.28.4-.39.61-.24.42-.36.62-.25.41-.38.61-.22.44-.36.63-.33.35-.49.53-.31.37-.47.55-.33.35-.5.52-.42.26-.59.43c-.17.17-.35.32-.53.48s-.27.43-.45.57-.47.17-.66.3-.41.24-.61.37-.35.36-.56.47-.46.14-.68.23-.46.12-.68.2-.39.32-.62.39-.47.09-.7.15-.47.09-.7.14-.48,0-.72.03-.46.13-.7.15-.47.07-.71.08-.48.02-.71.03-.52-.02-.76-.02c-.08.23-.12.52-.19.74s-.1.48-.17.71-.12.47-.19.7-.1.48-.18.7-.28.42-.37.64-.24.42-.34.64-.17.45-.29.65c-.12.2-.25.39-.47.52-.19.12-.45.13-.68.22s-.39.34-.61.42c-.24.09-.5.01-.7.11-.23-.08-.42-.15-.63-.24-.22-.1-.41-.23-.61-.34-.22-.11-.48-.11-.67-.23-.21-.13-.4-.27-.58-.41-.19-.15-.31-.36-.46-.53-.16-.18-.37-.31-.49-.51-.12-.2-.16-.45-.23-.67s-.11-.44-.13-.68-.07-.46-.04-.7c.02-.22.13-.44.2-.67.06-.22.12-.41.21-.64.21.12.45.14.67.26s.39.28.61.41c.21.11.42.22.65.35.2.11.4.27.63.4.09-.25.09-.51.14-.74.05-.26.24-.49.25-.73.01-.26-.12-.51-.15-.75s-.06-.5-.13-.74-.15-.48-.25-.71-.26-.42-.39-.64-.21-.45-.34-.66-.3-.39-.44-.6-.24-.43-.38-.64-.24-.43-.38-.64-.28-.41-.4-.63-.26-.42-.36-.65-.24-.42-.33-.66c-.09.26-.18.48-.25.68-.1.27-.24.47-.31.67-.1.27-.09.5-.12.72-.04.24-.13.48-.18.72s-.11.48-.17.72-.16.47-.23.7-.08.49-.16.72-.2.45-.29.68-.24.43-.33.66-.21.44-.31.66-.07.51-.19.73-.32.39-.44.6-.18.46-.31.67-.25.43-.38.64-.32.38-.46.58-.24.44-.38.63-.29.4-.44.6c-.15.2-.43.29-.59.47s-.26.45-.44.61-.43.26-.63.41-.36.36-.57.48-.47.18-.69.28-.48.12-.72.2-.43.28-.67.34-.49.12-.73.16-.51-.08-.76-.06-.49.07-.73.08-.49.12-.74.11c-.25,0-.48-.14-.72-.19s-.53.02-.76-.08-.44-.26-.65-.39-.41-.29-.6-.46-.33-.38-.49-.57-.22-.45-.35-.66-.39-.35-.5-.57-.19-.46-.28-.7-.03-.51-.09-.75-.25-.46-.28-.71.12-.5.12-.75-.17-.51-.13-.76.17-.48.25-.71.2-.37.32-.58c.13.22.19.39.33.58.15.21.45.29.6.47.17.19.3.4.48.56.19.17.34.38.54.52.21.15.48.17.69.28.23.11.41.33.64.4s.5.06.74.08.5.06.75.02.5-.08.73-.17.45-.23.66-.37c.2-.13.37-.33.56-.5.17-.16.26-.41.42-.61.15-.18.36-.33.5-.55-.24-.02-.48-.05-.72-.07s-.48-.05-.72-.07-.48-.07-.72-.11-.46-.14-.7-.19-.47-.09-.7-.16-.52,0-.74-.09-.42-.25-.63-.38-.35-.34-.54-.49-.41-.25-.58-.43c-.16-.17-.32-.35-.48-.55-.05-.24-.03-.49-.07-.71-.04-.24-.16-.47-.18-.7-.02-.25,0-.49,0-.72,0-.25-.07-.5-.04-.72.03-.25.27-.44.33-.65.07-.24.11-.47.22-.66.12-.21.22-.44.39-.6s.39-.27.6-.38c.2-.1.43-.13.68-.19.22-.05.44-.23.69-.24.22,0,.42.12.67.15-.04.21,0,.4-.04.62s-.21.4-.26.62c-.04.21-.04.43-.09.66-.04.21.03.4-.01.62.2.03.35.06.55.11s.37.25.56.28c.21.03.4-.14.59-.18.25-.05.52,0,.75-.09s.43-.26.64-.39.36-.33.54-.51.36-.32.51-.53.31-.38.42-.61c.1-.22.22-.44.3-.69.07-.23.05-.49.1-.74.04-.24.03-.49.05-.74.02-.24.07-.45.07-.7-.24-.02-.43-.13-.67-.16s-.49.02-.73-.03-.46-.17-.69-.24-.48-.1-.7-.19-.4-.27-.62-.39-.49-.11-.7-.25c-.2-.13-.39-.28-.59-.44-.18-.15-.32-.37-.5-.54-.17-.16-.26-.33-.44-.51.24-.09.39-.27.62-.35s.51-.09.74-.16.48-.17.72-.25.53-.03.77-.11.48-.19.71-.27.45-.25.68-.35.45-.22.67-.34.48-.18.69-.33c.2-.14.34-.35.52-.52s.34-.34.5-.53.38-.31.53-.51.19-.45.34-.65.3-.38.44-.58.25-.41.39-.61.38-.32.52-.52.25-.43.4-.63c-.24.02-.49-.01-.72.01s-.46.09-.69.11-.46.14-.69.16-.48-.08-.71-.05-.46.17-.69.19-.46.06-.69.09-.48-.08-.71-.06-.45.19-.68.21-.46.04-.69.07-.46,0-.69.03-.47-.07-.7-.05c-.23.02-.46.12-.69.13s-.47.12-.7.12-.47-.11-.7-.12-.47.03-.7.01-.46-.09-.69-.12-.47-.05-.69-.09-.46-.07-.69-.12-.45-.11-.68-.17-.42-.23-.64-.3-.46-.1-.68-.17-.45-.11-.67-.19-.44-.16-.66-.24-.42-.2-.64-.29-.47-.09-.68-.19c-.22-.09-.39-.29-.6-.39s-.41-.24-.6-.36-.46-.17-.64-.31-.39-.28-.56-.43-.32-.35-.48-.52-.25-.4-.4-.59-.4-.3-.52-.5-.18-.44-.28-.66-.11-.46-.18-.68-.11-.45-.16-.68-.08-.45-.09-.69-.18-.46-.17-.7.15-.46.18-.7-.03-.48.02-.72.14-.45.21-.68.22-.42.31-.64.15-.44.25-.66c-.05-.25-.04-.53-.09-.79s-.14-.5-.19-.76-.11-.51-.17-.78-.15-.51-.21-.77c.26.01.5.14.74.17.26.04.5.06.74.12.25.07.55-.01.77.08.24.1.42.31.63.44.22.13.41.29.59.46s.36.35.51.55.27.41.38.64.25.43.33.68c.07.23.18.48.21.73.04.25.05.49.1.72.05.25.01.5.06.73.06.25.07.5.14.73.08.24.27.44.36.65.1.24.17.47.29.67.13.22.21.47.36.65s.45.23.65.38.36.31.58.42c.21.1.44.16.68.24.22.07.44.19.69.23.23.04.46.11.72.14.23.02.48-.04.73-.03.23,0,.47-.03.73-.03.24,0,.45.08.71.07-.19-.23-.4-.37-.58-.57-.19-.21-.35-.45-.52-.66-.18-.22-.34-.45-.48-.69-.1-.19-.23-.37-.34-.57s-.18-.4-.28-.6-.24-.38-.32-.58-.07-.45-.12-.66-.07-.43-.08-.65c-.01-.23-.05-.47-.04-.71s0-.48.04-.71.2-.43.28-.65.01-.53.14-.72.39-.28.58-.43c.18-.14.35-.3.58-.4.22-.09.45-.15.67-.21s.46-.06.69-.1.45-.18.69-.19.46.13.69.17.47.01.7.09c.21.07.45.14.66.26.2.11.39.25.59.4.18.13.23.33.41.49-.2.16-.29.35-.48.5-.2.16-.43.28-.62.43s-.35.38-.54.53-.37.28-.57.44c.13.21.22.4.36.58.15.19.36.31.53.47s.27.42.47.55.45.18.67.27.45.11.69.16c.22.05.44.22.69.24.23.01.47-.1.71-.11.23-.01.47,0,.71-.04.23-.04.45-.13.69-.18.22-.05.48-.02.71-.09.22-.06.45-.13.68-.21.22-.08.45-.13.68-.22.22-.08.5-.22.72-.32-.09-.23-.35-.47-.42-.69-.07-.24.01-.51-.04-.73-.06-.24-.23-.45-.26-.68-.04-.25.05-.5.04-.73-.01-.25-.01-.48,0-.71.02-.25,0-.49.06-.71.06-.24.16-.45.26-.66.1-.22.25-.39.4-.57s.28-.37.48-.51.39-.25.62-.34c.21-.07.44-.21.68-.24.22-.03.47,0,.72,0,.23,0,.51.05.76.08-.12.23-.24.5-.35.73s-.3.42-.42.65c-.11.22-.27.47-.39.71.16.2.36.42.53.57.19.17.42.29.62.4.22.12.44.25.67.32s.5-.04.74-.03.47.03.72,0,.49.05.73.01.49-.04.72-.09.47-.14.71-.18.48-.08.72-.11.48-.06.72-.05.47.08.71.13.45.06.67.17c-.05-.25-.06-.49-.21-.68s-.39-.32-.57-.48-.46-.25-.62-.42c-.18-.18-.32-.43-.38-.66-.05-.2.06-.45.17-.72.07-.19.17-.41.34-.64.22.1.42.27.65.35s.5.03.73.1.45.19.68.25.49,0,.73.04.46.14.7.18.47.17.71.19.49-.11.73-.11.48.11.72.11.48-.1.72-.12.49.08.73.06.47-.12.71-.15.49-.01.72-.05.48-.06.72-.11.46-.15.7-.2.45-.19.69-.25.47-.09.71-.15.46-.14.69-.2.51.04.74-.02.42-.29.66-.35.48-.07.71-.14.46-.11.7-.17c.12-.23.18-.47.29-.68.13-.23.29-.42.41-.62.14-.23.33-.39.47-.58.16-.22.3-.41.46-.58.19-.19.34-.39.53-.52.22-.14.47-.15.71-.21s.45-.07.71-.06c.23.01.49-.08.74-.01.22.06.42.22.67.32.22.09.45.16.69.27.21.1.35.23.58.36-.17.14-.3.2-.47.35-.16.14-.22.39-.4.54-.15.13-.41.17-.59.33-.15.13-.24.33-.42.48.24.05.47.03.71.08s.44.28.68.33.5,0,.74.06.49.05.73.1.45.25.68.31.5.01.74.07.46.19.69.24.48.11.71.17.51-.05.75,0,.46.17.7.23.49.03.73.09.44.26.68.31.48.08.72.13.47.12.71.17.5.11.74.16c.13-.19.25-.42.39-.61s.34-.32.48-.51.23-.4.37-.6.2-.48.34-.67c.23.1.49.24.7.32.26.09.43.24.56.41.15.19.37.31.52.49s.32.35.48.52.21.45.38.62.33.34.5.5.35.32.52.48.35.32.52.48.38.29.56.44.43.22.61.37.36.3.55.44.41.23.6.37.3.39.49.52.46.16.65.29.31.39.51.51.46.16.66.28.41.23.61.35.39.27.59.39.4.24.6.36.37.3.57.42.43.19.64.31.42.21.63.33.36.32.56.44.45.16.65.28.36.31.57.43c.21.12.48.15.69.28s.41.27.62.4.38.32.59.44.42.25.63.38.48.16.69.29.4.29.6.43.43.25.63.38.36.34.56.48c.2.14.36.33.56.46s.46.17.67.29.39.29.6.4.42.24.63.35.41.26.63.36.47.12.7.21.47.12.69.2.46.14.69.21.45.17.68.24.44.22.67.27.5-.04.73.01.46.11.7.15.47.1.71.14.48.05.71.07.48.03.72.04.47.17.71.18.48-.12.72-.12.48.01.72.01.48.01.72,0c.23,0,.45-.03.68-.03s.45.13.68.14.45-.05.68-.04.45.08.67.09.45-.02.68,0,.46-.04.68-.02.45.11.67.12.48-.04.7-.03c.02.25.06.51.06.73,0,.25-.09.48-.12.7-.03.26-.12.46-.2.66-.09.24-.16.46-.31.61s-.37.25-.6.34c-.2.07-.42.07-.68.09-.21.01-.45.18-.71.16-.23-.02-.45-.15-.68-.17s-.47.02-.7,0-.45-.17-.68-.19-.47.05-.7.03-.46-.06-.69-.08-.46-.08-.69-.11-.46-.02-.7-.04-.47.06-.7.03-.46-.09-.69-.12-.47-.03-.7-.06-.45-.15-.68-.18-.45-.15-.68-.19-.48.06-.71.02-.46-.08-.69-.13c-.25-.05-.48-.19-.73-.23s-.51-.04-.76-.06-.51-.06-.76-.07-.51-.05-.76-.04-.51.05-.76.07-.49.12-.74.17-.5.05-.75.12-.45.24-.69.33-.45.14-.69.25c-.08.2-.2.38-.29.61-.07.2-.11.43-.2.67-.08.2-.3.37-.39.61-.08.21-.08.44-.17.68-.2-.1-.35-.25-.55-.35s-.43-.13-.62-.23-.43-.13-.63-.22-.38-.21-.58-.31-.36-.24-.55-.34c0-.27-.12-.52-.12-.77,0-.27.06-.53.06-.77,0-.27.05-.52.05-.77,0-.26,0-.52,0-.78-.23-.04-.48-.08-.7-.1s-.47.03-.7.02-.46,0-.69.01-.46.04-.68.07-.48-.06-.71,0-.46.11-.68.19-.45.16-.65.28-.3.39-.49.53-.44.18-.61.35-.25.39-.4.57c-.14.17-.36.3-.49.5-.14.21-.22.46-.36.67-.14.22-.29.42-.38.65-.09.24-.2.49-.17.75.02.22.2.43.35.67.12.18.24.41.45.61.22-.1.44-.26.67-.36s.51-.09.74-.2.39-.2.63-.3c.09.24.23.36.3.56.08.25.07.49.12.69.05.26.11.48.09.68-.03.24-.1.44-.24.63-.12.16-.3.29-.52.43-.17.12-.37.22-.6.34-.22.11-.42.29-.64.36s-.5.02-.74.05-.48.09-.72.08-.48-.06-.72-.1-.48-.05-.72-.12-.48-.12-.7-.23-.39-.3-.59-.44-.4-.27-.58-.44-.32-.35-.48-.54-.4-.31-.53-.51-.24-.43-.34-.65-.25-.43-.33-.66-.08-.49-.13-.73c-.05-.23-.08-.46-.1-.71-.02-.22.02-.46,0-.72-.01-.22-.09-.42-.11-.68-.19.16-.37.25-.53.4-.18.17-.31.37-.46.54-.16.18-.29.38-.42.57-.14.2-.27.39-.38.59s-.26.4-.34.62-.14.45-.19.68-.15.46-.16.7.1.47.12.71c.02.23.02.45.06.69.23.11.42.27.65.38s.51.12.74.23.39.36.62.46.5.14.73.25c-.06.25-.11.49-.2.71-.09.24-.27.41-.4.61-.13.21-.25.43-.41.59-.18.17-.38.29-.59.4s-.42.21-.66.26c-.23.05-.46.14-.71.14-.23,0-.45-.17-.7-.21-.23-.04-.45-.09-.69-.17-.22-.07-.47-.07-.68-.17s-.39-.26-.58-.39-.37-.28-.54-.44-.35-.31-.5-.48-.28-.37-.41-.56-.21-.41-.31-.62-.21-.41-.29-.63-.15-.44-.2-.67-.05-.46-.08-.69,0-.45,0-.69c0-.24-.12-.49-.1-.74s.18-.47.21-.71-.06-.5-.03-.74.09-.48.14-.72.06-.48.11-.72.09-.47.14-.72.19-.46.23-.7.09-.48.13-.72.05-.51.09-.76c-.2-.12-.42-.28-.65-.4-.21-.11-.49-.11-.71-.23s-.4-.28-.61-.43-.42-.26-.59-.45-.23-.42-.36-.65c-.11-.2-.33-.38-.4-.64-.06-.22-.12-.48-.14-.74-.02-.23.07-.49.09-.75.24.07.46.24.7.31s.48.15.72.22.48.14.72.21.5.06.74.13.47.15.71.22.51.05.74.12.47.15.71.22.45.14.68.21c.22-.1.42-.17.64-.26s.45-.15.68-.24.43-.23.65-.3.48-.08.7-.15.44-.2.67-.26.49,0,.72-.05.47-.08.7-.12.46-.13.7-.17.47-.12.7-.15.48-.03.71-.05.48-.03.71-.04.48.09.72.09.47-.06.71-.05.48-.01.71,0,.47.12.7.14.47.04.71.06.47.07.7.1.49-.04.72,0,.44.22.68.26.47.06.7.11.49-.04.73.01.46.13.69.19.47.06.7.12.44.18.67.24.46.13.69.19.48.2.71.27c-.18-.17-.38-.37-.57-.53s-.39-.3-.59-.45-.37-.33-.56-.48-.48-.18-.68-.31-.34-.38-.54-.51-.4-.29-.61-.41-.52-.08-.74-.19-.38-.33-.6-.44-.45-.2-.67-.31-.46-.18-.68-.28-.45-.2-.68-.29-.47-.13-.7-.21-.48-.1-.71-.18-.44-.23-.68-.3-.48-.1-.72-.17-.46-.17-.7-.23-.46-.2-.7-.25-.5,0-.74-.06-.48-.16-.72-.21Z"/>
  <path class="b" d="M516.64,45.04c-.24,0-.53.1-.76.08s-.47-.09-.7-.12-.47-.08-.7-.12-.48-.02-.71-.06-.46-.14-.68-.19-.44-.17-.67-.23-.47-.08-.69-.15-.49-.05-.71-.13-.38-.31-.6-.41-.44-.17-.65-.28-.41-.24-.61-.36-.5-.09-.7-.22-.3-.4-.5-.53-.43-.21-.62-.36-.42-.24-.6-.4-.25-.42-.42-.59-.41-.26-.57-.43-.34-.33-.49-.51-.3-.37-.44-.56-.15-.47-.28-.67-.37-.32-.49-.53-.09-.49-.2-.7-.36-.35-.46-.56-.09-.47-.18-.69-.14-.45-.22-.67-.29-.4-.35-.63-.14-.45-.2-.68-.02-.48-.07-.71-.18-.45-.22-.68.07-.49.04-.72-.06-.53-.08-.77c-.25.06-.56.14-.81.2s-.5.12-.75.18-.47.26-.72.32-.46,0-.71.07c.03-.26.1-.44.15-.67.05-.26-.03-.53.03-.76.07-.26.26-.45.35-.67.1-.25.12-.51.24-.7.14-.22.31-.4.48-.57s.41-.25.64-.36c.21-.1.43-.17.69-.22.23-.04.46-.06.73-.07.23,0,.48-.12.74-.1.23.02.47.14.73.18.23.04.5.15.76.21.18-.17.39-.37.57-.53s.34-.36.52-.52.42-.26.61-.41.36-.34.55-.49.41-.29.61-.42c.21-.14.42-.27.62-.4.22-.13.38-.33.59-.45.22-.12.48-.15.7-.25.23-.11.43-.26.65-.35.24-.09.49-.11.72-.18.24-.07.49-.06.73-.1s.48-.15.72-.16.49-.03.74,0,.48.11.72.16.5.03.73.12.39.31.61.43.41.24.61.39.44.22.63.39c.18.16.32.36.49.55.16.17.39.3.55.5s.3.39.45.59c.14.2.29.46.42.67-.18.25-.42.43-.6.54-.24.14-.51.22-.74.18-.22-.04-.44-.23-.67-.36-.2-.12-.37-.32-.59-.46-.22-.13-.49-.14-.69-.25-.23-.12-.4-.33-.6-.41-.24-.09-.5-.08-.72-.13-.25-.05-.49-.17-.72-.15s-.43.24-.67.32c-.21.08-.48.07-.69.2-.19.12-.32.34-.51.51-.17.15-.43.22-.61.4-.16.16-.26.38-.43.57.18.14.31.33.49.48s.32.32.48.48.37.28.52.45.35.32.47.51.2.42.3.62.24.4.3.62.08.45.11.69c.03.22.07.45.06.69,0,.22.01.46-.02.7-.03.22-.22.34-.28.58-.27-.03-.48.06-.74.03s-.53-.03-.79-.06-.54-.2-.8-.23c-.09.22-.2.48-.27.69-.07.23.02.5-.03.72-.05.24-.11.45-.13.68-.02.24-.07.47-.06.69.01.24-.02.48.03.7s.2.43.29.64.19.42.32.61.24.4.4.57.39.24.59.39c.2.15.35.35.55.47s.42.25.64.34.47.13.7.19.46.17.7.2.49,0,.73,0,.49.06.73.03.45-.23.68-.29.47-.09.69-.19.41-.24.62-.37.44-.21.63-.36c.19-.15.29-.4.46-.57s.33-.34.5-.52.46-.23.62-.41.25-.43.4-.61.35-.34.49-.54.26-.41.39-.61.15-.47.27-.68.37-.35.48-.56.13-.48.23-.7.16-.45.25-.68.13-.46.21-.69.31-.41.38-.64-.03-.51.03-.74.2-.45.25-.69.04-.43.07-.67c-.22.07-.41.02-.63.09s-.42.19-.64.25-.41.22-.63.29-.45.08-.67.15-.46.05-.68.11-.42.18-.64.24c-.2-.16-.43-.31-.63-.47.12-.2.3-.39.42-.59s.12-.46.24-.67.36-.33.46-.54.24-.4.34-.61.08-.47.17-.69.24-.41.3-.63.17-.44.21-.67.03-.47.04-.7.04-.47.02-.7-.19-.43-.25-.66-.13-.43-.22-.65c-.08-.21-.09-.46-.21-.67-.11-.2-.22-.4-.34-.6s-.27-.37-.39-.57-.24-.39-.37-.59-.18-.44-.31-.63-.25-.39-.39-.58-.34-.33-.49-.5-.24-.41-.41-.57-.37-.3-.55-.44c-.2-.15-.39-.32-.6-.46s-.48-.17-.7-.29-.47-.16-.69-.27-.44-.22-.67-.32-.41-.29-.64-.39-.43-.25-.66-.35-.49-.11-.72-.21-.44-.23-.67-.33-.51-.24-.74-.35c0,.23,0,.55,0,.78s-.02.47-.03.7.05.47.04.7-.11.46-.13.68.06.48.02.7-.03.48-.09.69-.3.39-.39.6-.16.42-.28.62-.23.39-.4.56-.28.38-.48.51c-.18.12-.4.23-.62.33-.2.09-.44.12-.67.2-.25.08-.48.18-.71.2-.25.02-.51,0-.74-.04s-.5-.07-.73-.17-.38-.31-.59-.46c-.19-.14-.32-.35-.5-.52-.17-.16-.41-.27-.58-.46-.15-.18-.32-.4-.47-.61.25-.04.53.02.75-.02.25-.04.47-.12.69-.16.24-.04.46-.16.68-.19.24-.04.45-.05.67-.09-.09-.24-.22-.42-.31-.64-.1-.23-.16-.47-.27-.68-.12-.22-.3-.39-.43-.59-.14-.21-.25-.42-.4-.61-.16-.19-.24-.46-.41-.62s-.47-.19-.67-.32-.37-.34-.59-.44-.48-.07-.72-.15-.45-.15-.7-.19c-.23-.04-.47-.04-.72-.06-.24-.02-.47-.05-.73-.05-.24,0-.48-.04-.73-.02-.26.02-.51.03-.77.04s-.51.12-.77.12-.51-.04-.77-.04-.51.05-.77.05-.51-.13-.77-.13-.51-.02-.77-.02-.46.08-.73.08c-.05.26-.05.48-.1.74s-.14.51-.19.78c-.05.25-.22.49-.27.77-.05.25-.08.49-.13.76-.22.12-.44.19-.67.31s-.44.25-.67.36-.38.38-.6.5-.49.17-.72.29-.46.24-.69.36c-.14-.16-.2-.34-.33-.49.09-.22.16-.41.25-.63.09-.21.15-.44.25-.67.09-.21.18-.43.28-.67.09-.21.06-.4.15-.64-.24-.07-.39-.17-.62-.24s-.47-.15-.7-.22-.47-.15-.71-.21-.47-.15-.71-.21-.47-.14-.71-.19-.51.07-.75.03-.48-.06-.73-.08-.48-.15-.72-.15-.49.09-.73.1-.48.02-.73.04-.49,0-.73.04-.46.14-.71.19c-.24.05-.48.09-.72.15s-.52-.01-.75.06-.45.23-.68.31-.49.1-.72.2-.46.18-.69.28-.39.33-.61.44-.51.09-.72.21-.44.23-.65.35-.37.34-.58.47-.42.25-.63.38-.38.31-.59.45-.41.27-.61.41-.48.17-.68.31-.43.24-.63.38-.34.37-.54.51-.42.26-.62.41-.33.29-.53.44c.22-.06.39-.08.62-.14s.45-.12.67-.18.42-.21.65-.27.48.01.71-.05.43-.18.66-.24.46-.06.69-.12.45-.1.68-.15.43-.21.65-.26.44-.16.67-.21.46-.05.69-.09c.24-.05.49-.05.73-.09s.48-.12.72-.16.48-.09.72-.12.49-.06.73-.08.49,0,.73-.02.49.1.73.1.49.02.73.02.48.04.73.05.48.03.73.05.5-.05.74-.02.46.18.7.22.5-.02.74.03.48.08.72.15.44.23.67.3.49.09.72.17.45.2.67.29c.23.09.46.24.73.24.24,0,.5-.08.76-.12.24-.04.48-.13.74-.19s.49-.11.74-.18.51-.06.75-.12.48-.16.72-.21c.21-.04.39-.22.6-.29.19-.07.38-.19.6-.28.19-.08.46-.11.68-.19.04.27-.02.57-.02.8,0,.28.05.53,0,.76-.06.26-.18.49-.3.7-.13.22-.23.47-.41.65s-.41.3-.62.45-.42.28-.64.41-.47.19-.69.31-.46.23-.67.36c.06.23.21.45.27.68s.14.46.2.69.06.48.12.71.12.46.18.69.15.46.2.69.12.46.16.7.02.48.06.72c.04.23.02.47.03.7s.11.47.1.7-.16.46-.19.68,0,.47-.06.69-.12.45-.2.67-.09.47-.19.68-.3.37-.43.56-.24.4-.39.58-.37.29-.54.45-.35.29-.54.43-.38.24-.59.35-.36.34-.58.41c-.26.09-.52.12-.75.16-.26.05-.52-.02-.76-.03-.26,0-.53.07-.77,0s-.48-.19-.7-.34c-.2-.14-.34-.37-.52-.57-.16-.18-.31-.38-.46-.6-.13-.2-.27-.42-.4-.66.22-.13.42-.34.64-.47s.48-.22.71-.33c.2-.1.4-.2.6-.28.21-.09.4-.15.59-.23.05-.26.2-.47.23-.71.03-.26.06-.52.07-.75,0-.26-.15-.51-.17-.74-.03-.26.07-.53,0-.76s-.14-.49-.26-.72-.36-.36-.51-.56c-.14-.19-.25-.43-.43-.61-.17-.17-.31-.38-.51-.55-.18-.15-.49-.16-.7-.31-.2-.14-.35-.32-.57-.46.1.22.17.42.23.63.07.23.02.47.06.69.03.24.11.45.1.67,0,.24-.02.46-.07.68s-.13.44-.22.65-.23.39-.35.58-.19.41-.34.6-.26.38-.41.55-.3.35-.47.51-.3.35-.47.51c-.17.16-.44.2-.64.32s-.43.16-.65.25-.42.19-.65.23-.46.12-.69.13-.46-.11-.69-.14-.5.1-.73.03-.39-.31-.59-.41-.41-.21-.59-.35c-.24-.19-.36-.36-.47-.56s-.27-.38-.26-.69c0-.21.03-.46.08-.77.04-.22.14-.44.2-.72.25.08.5.07.74.15s.48.22.73.3.51.15.75.23c.09-.23.12-.48.17-.7.06-.24.17-.46.19-.69.02-.24.03-.48.01-.71-.02-.24-.17-.45-.24-.67s-.1-.46-.22-.66-.25-.39-.41-.57-.29-.37-.47-.52c-.18-.15-.4-.22-.61-.35-.2-.12-.34-.36-.56-.46-.21-.09-.47-.06-.71-.14-.22-.07-.44-.16-.68-.21-.22-.05-.46-.1-.7-.13s-.47,0-.71-.01-.46-.07-.71-.07-.47.04-.71.06-.5,0-.74.03c-.01.26-.08.52-.09.74-.02.27-.02.51-.04.73-.03.27-.03.51-.07.72-.05.28-.06.52-.14.71-.11.24-.26.41-.45.55-.17.13-.4.17-.67.24-.2.06-.42.18-.68.23-.22.04-.45.03-.72.07-.1-.23-.2-.45-.3-.68s-.18-.48-.28-.7c-.11-.24-.27-.43-.37-.65-.21-.13-.4-.27-.61-.37-.22-.11-.43-.25-.65-.33s-.47-.16-.7-.21-.5.06-.74.03-.47-.15-.71-.16-.48.06-.72.07-.48.04-.72.06-.48-.01-.72.02-.47.12-.7.16-.47.08-.71.12-.5-.07-.74-.03-.45.2-.69.24-.49,0-.72.02c-.25.03-.49.16-.74.18s-.51,0-.76.02-.51-.03-.76,0-.49.19-.74.22-.5.05-.75.08-.52-.11-.77-.09-.5.07-.75.1-.49.14-.74.16-.51-.07-.76-.05-.49.2-.74.22c-.26.02-.53-.03-.77-.07-.25-.04-.51-.12-.73-.24s-.39-.32-.56-.52c-.15-.17-.18-.44-.3-.69-.1-.21-.32-.43-.39-.7.22-.09.47-.2.68-.29s.48-.07.69-.17.37-.32.59-.4.48.01.71-.03c.23-.04.44-.26.67-.28s.47.05.71.06.46.13.7.14.47.03.7.04c.24.01.49-.16.74-.15s.48.06.73.06.49.07.73.06.48-.13.72-.14.49.11.74.09.48-.09.72-.12.49,0,.73-.04.49-.05.72-.09.48-.11.71-.17.46-.16.7-.22.44-.23.67-.3.49-.06.72-.14.46-.15.69-.23.45-.17.68-.26.45-.17.67-.28.47-.15.68-.26.42-.25.63-.36.34-.38.55-.51.44-.21.65-.34.46-.18.66-.32c.19-.13.35-.32.55-.45s.39-.27.59-.4.43-.2.63-.33.34-.34.54-.46.41-.24.61-.36.35-.33.55-.46.5-.09.7-.22.37-.3.57-.42.37-.3.57-.42.42-.21.63-.33.43-.2.63-.33.32-.37.53-.5.48-.13.68-.25.35-.33.55-.46.47-.14.67-.26.38-.29.58-.41.33-.36.53-.49.4-.25.59-.38.48-.14.67-.27c.21-.14.3-.44.51-.59s.48-.19.68-.35.36-.36.55-.51.34-.37.53-.53.41-.29.6-.46.42-.29.6-.45.39-.31.58-.48.32-.39.51-.56.35-.37.54-.53.4-.31.59-.47c.15-.13.38-.16.54-.29.15-.12.25-.31.43-.44.15-.11.33-.18.5-.32.16.2.35.35.5.53s.25.44.41.63.43.28.59.48c.15.19.27.36.43.56.23-.05.43-.04.67-.09s.49-.03.72-.08.43-.26.67-.31.49-.04.72-.09.46-.13.7-.18.5.02.73-.04.46-.13.7-.19.45-.19.69-.24.47-.12.71-.17.49-.03.72-.08.45-.18.69-.24.47-.12.71-.17.49-.02.73-.08.45-.23.68-.28.46-.06.7-.12c-.21-.23-.41-.38-.59-.56-.2-.21-.29-.49-.47-.68s-.4-.34-.6-.55c.22-.1.43-.15.62-.25.21-.11.38-.26.57-.34.21-.1.39-.26.61-.29.27-.04.52.06.75.06.27,0,.52-.1.75-.04.24.06.49.16.7.3.19.13.29.39.46.59.15.17.41.29.55.51.12.19.25.41.37.64.11.2.19.45.3.69.1.21.12.52.23.76.24.06.53.06.76.11s.49.02.73.07.45.21.68.27.49.05.72.1.47.14.7.2.48.08.72.13.48.08.72.12.48.09.72.13.46.19.7.22.49.03.73.05.49.01.73.03.48.04.73.05.48.06.73.07.48-.08.73-.09.49.09.73.07.49,0,.73-.03.47-.15.71-.19.47-.08.71-.13.48-.06.72-.11.49-.05.73-.12.48-.28.71-.36c.05.26.05.54.04.74-.01.26-.13.45-.22.64-.1.21-.24.36-.41.52-.16.15-.33.28-.53.41-.18.12-.28.38-.48.51-.18.13-.44.16-.62.31-.17.14-.24.29-.39.47.23-.05.39-.09.62-.12s.47.03.7.02.47-.04.7-.04.46.08.7.1.47,0,.7.02.47.03.7.05.47,0,.7,0,.46.12.7.12.47-.03.7-.04.45-.2.68-.23.47.03.7-.03.45-.11.67-.2.42-.19.63-.3c.2-.11.42-.24.62-.38-.09-.21-.23-.41-.31-.6-.09-.2-.22-.38-.3-.57s-.15-.4-.23-.6-.09-.4-.17-.6c.24-.01.45.05.67.06.24.02.49-.07.7-.03.24.05.45.16.65.25.22.1.37.28.55.41s.47.18.61.36.23.41.32.63c.09.2.19.42.24.66.05.22.01.46.03.7.01.22-.03.45-.05.69-.02.22.03.46,0,.7-.04.22-.05.46-.11.69-.06.22-.19.42-.27.65-.07.21-.11.39-.2.61.23.11.39.2.61.3.23.1.46.19.68.27.24.09.47.15.7.21.24.07.47.17.7.22.25.06.49.05.73.09.25.04.48.15.72.16.25,0,.5.02.74,0s.49-.09.72-.15.46-.16.68-.26.5-.1.71-.23.29-.42.49-.58.45-.21.63-.38c.17-.17.29-.37.45-.57-.16-.15-.3-.29-.46-.44s-.28-.33-.44-.48-.41-.2-.57-.35-.23-.35-.39-.5c.15-.18.25-.39.43-.53s.36-.32.57-.44.44-.2.66-.28.49.01.72-.03.46-.18.69-.17.47.09.69.14.48.06.69.16.42.25.59.4c.18.16.3.37.43.56s.32.37.4.59.01.48.05.71.13.45.12.69c0,.23.02.47-.02.7-.04.22-.23.41-.3.64-.07.22-.04.47-.13.69-.09.21-.22.41-.33.62-.11.2-.18.43-.31.63-.12.19-.33.34-.47.53s-.28.36-.43.55-.31.34-.47.52-.33.44-.5.61c.25.05.59-.03.82,0,.25.04.47.22.7.24.25.02.5-.09.73-.09.25,0,.5.11.73.09.25-.02.5-.07.72-.12.24-.06.46-.18.68-.27s.46-.18.66-.31.42-.27.59-.44.29-.39.43-.59c.13-.19.24-.41.35-.63.1-.21.13-.46.21-.69.08-.22.18-.43.25-.67.06-.23.1-.46.15-.71.04-.23.09-.46.12-.71.03-.24.15-.46.2-.67.05-.24.15-.44.22-.65.08-.23.16-.43.26-.63.11-.21.2-.42.34-.6s.32-.32.49-.47.28-.41.48-.52.43-.2.65-.27.46-.03.7-.07c.22-.04.39-.03.63-.05.05.25.13.45.18.7s.12.5.17.76.13.5.19.75.06.51.12.76.18.49.24.74-.02.53.03.78.17.49.22.74c.04.23.17.47.17.72s-.04.49-.07.73-.19.45-.25.69-.12.46-.21.69-.28.4-.39.61-.11.49-.25.69-.32.36-.47.55-.22.45-.39.62-.39.3-.56.47-.44.23-.63.37-.31.4-.51.53-.47.15-.68.26c-.22.11-.39.29-.61.39s-.48.1-.7.19-.42.25-.64.33-.47.12-.69.2-.46.14-.69.21-.44.19-.67.25-.44.21-.68.27-.47.09-.71.14-.47.11-.71.15-.5-.09-.74-.06-.46.22-.7.25-.48-.02-.72,0-.48,0-.72.01-.48.06-.72.06-.48-.06-.72-.07-.47-.1-.71-.12-.48-.02-.72-.05-.48,0-.72-.04-.46-.17-.69-.22-.47-.1-.7-.15-.5.03-.73-.03c-.2-.05-.39-.18-.6-.23-.2-.05-.41-.07-.63-.12-.2-.05-.39-.17-.61-.23-.2-.05-.48-.07-.71-.13.04.25.22.52.29.76s0,.52.09.75.29.42.4.63.29.4.42.6.13.51.28.7.4.31.56.49.39.3.57.46.29.43.48.57c.19.14.45.19.66.31s.38.3.61.4.44.2.67.28.5.02.73.1.43.22.66.29.48.08.7.15.4.3.63.38.44.11.67.2c-.13.21-.27.37-.41.54-.15.19-.31.36-.48.51-.18.17-.33.34-.52.48s-.44.17-.65.27-.4.23-.62.31-.41.26-.64.32-.47.03-.71.07-.47,0-.71.02-.44.12-.67.14c0,.25.05.46.07.7.03.25-.09.51-.04.74.05.25.1.49.17.72.07.24.17.47.26.69.1.23.21.46.34.65.13.21.31.39.47.57s.41.26.61.4.39.27.61.37.45.12.69.19c.22.06.43.25.67.28.23.03.48-.07.73-.07.23,0,.53.13.78.12,0-.23-.09-.53-.09-.77s-.02-.47-.02-.71.03-.47.03-.71,0-.49,0-.73c.24.02.46.12.67.17.23.05.46.07.66.16.21.09.43.18.61.31s.28.36.43.53.34.31.44.51c.1.19.1.43.16.65.06.21.21.41.24.64.03.22.02.45.02.68,0,.26-.1.49-.14.72-.05.25-.11.47-.2.69s-.12.5-.27.69-.35.35-.55.51c-.18.15-.37.31-.6.44-.2.11-.46.15-.69.24-.21.09-.46.1-.71.17-.22.07-.43.23-.68.29-.23.05-.48.04-.73.09-.23.04-.48.05-.73.08-.24.03-.48,0-.74.02-.24.02-.48.12-.73.13-.02.26.06.48.11.69.05.25.15.43.28.61.13.2.26.37.46.5s.35.32.58.41c.21.08.48,0,.72.06.25.06.47.12.71.14.25.02.48.05.72.03s.48-.07.71-.14.45-.16.67-.27.5-.1.71-.24c.2-.13.3-.39.49-.56.18-.16.35-.32.52-.5.16-.17.33-.35.49-.55.15-.19.31-.42.45-.63.1.21.1.5.17.72s.18.43.22.66,0,.46.01.69.05.46.02.69,0,.47-.05.7-.19.43-.27.65-.11.46-.21.67-.21.42-.34.61-.34.33-.49.5-.34.31-.52.46-.32.34-.52.46-.42.2-.63.3-.44.13-.66.2-.41.28-.64.32-.47-.06-.71-.06c-.24,0-.47.05-.7.03s-.45-.17-.68-.2-.48.02-.7-.02-.45-.11-.68-.18-.43-.18-.65-.26-.44-.15-.65-.25-.47-.12-.67-.24-.38-.29-.56-.43-.39-.27-.56-.43-.28-.38-.44-.56-.24-.4-.38-.59-.38-.3-.51-.5c-.12-.2-.25-.39-.37-.59s-.16-.45-.28-.65-.27-.38-.38-.59-.22-.41-.33-.62-.19-.43-.3-.63-.23-.4-.33-.61-.26-.39-.36-.6-.14-.45-.24-.66c-.1-.23-.28-.43-.37-.66s-.15-.48-.23-.72-.1-.49-.18-.73-.2-.46-.27-.71,0-.52-.07-.76-.21-.46-.28-.7-.14-.55-.21-.79c-.2.13-.43.34-.62.49s-.32.37-.49.53-.35.32-.51.5-.36.33-.5.52-.18.46-.3.66-.3.38-.4.6-.25.42-.34.64-.17.46-.24.69-.12.47-.16.71,0,.49-.02.72,0,.48.01.72.05.47.1.7,0,.53.08.76c.2-.1.45-.18.64-.27s.41-.17.6-.27.31-.36.51-.46.41-.08.61-.18c.07.25.18.44.21.69s-.06.51-.07.76.03.51-.03.76-.17.48-.27.71-.27.42-.41.63-.22.47-.4.65-.41.3-.62.43-.42.29-.66.37c-.23.07-.5,0-.75.02s-.48,0-.73-.03-.51.03-.75-.05-.44-.25-.65-.37-.44-.25-.61-.42-.32-.38-.42-.61c-.1-.22-.16-.45-.25-.68s-.15-.46-.22-.69-.22-.44-.28-.67,0-.5-.07-.73-.15-.46-.21-.7-.11-.52-.18-.75Z"/>
  <path class="b" d="M612.32,36.46c.19.17.39.35.58.51s.44.26.63.43.35.36.54.53.41.3.6.46.39.32.58.48.33.38.52.55.41.29.6.46.38.33.56.5.34.37.53.54.36.35.55.52c.19.18.38.35.56.53s.39.34.56.53.31.42.47.61.34.39.49.59.28.43.42.65c.14.22.27.42.38.62.13.24.29.43.36.63.09.26.14.5.14.72,0,.25-.11.47-.26.67-.12.17-.3.33-.52.48-.17.12-.38.24-.62.36-.2.1-.43.16-.67.26-.21.08-.42.22-.66.31-.2-.13-.39-.32-.61-.46-.2-.13-.45-.22-.66-.36-.2-.13-.37-.34-.58-.48-.2-.14-.42-.27-.64-.41-.2-.14-.42-.31-.64-.45-.16.17-.35.35-.51.52s-.28.37-.44.54-.33.32-.49.49-.3.36-.46.53-.32.34-.48.51-.35.3-.51.48-.27.38-.43.56-.35.31-.51.48-.31.38-.48.55c-.21-.18-.42-.37-.63-.54s-.39-.36-.6-.54-.4-.35-.61-.53c-.2-.17-.41-.31-.62-.49.11-.21.16-.42.27-.62s.27-.38.37-.58.16-.43.26-.64.22-.4.33-.61.27-.4.37-.61c-.14-.2-.31-.43-.49-.69-.14-.2-.31-.44-.48-.7-.17.15-.36.3-.53.44s-.32.31-.49.45-.36.25-.53.39-.3.33-.47.47-.35.28-.52.43c-.18-.14-.37-.3-.55-.44s-.33-.31-.51-.46-.35-.28-.54-.43c-.17-.14-.37-.27-.55-.41-.17-.14-.32-.29-.51-.44.16-.18.27-.38.43-.56s.31-.37.46-.55c.16-.18.38-.31.54-.48.16-.18.27-.41.43-.58s.34-.34.49-.52c.16-.18.33-.35.48-.53s.3-.38.45-.55.34-.35.49-.53c-.11-.2-.21-.43-.32-.63s-.25-.39-.36-.59-.28-.38-.39-.58-.16-.44-.27-.64-.24-.39-.35-.59-.21-.38-.32-.58c.15-.1.21-.21.35-.31-.17-.16-.27-.34-.44-.5s-.37-.28-.54-.43-.37-.28-.54-.44-.29-.36-.46-.52-.38-.27-.55-.43-.35-.29-.52-.45-.34-.31-.51-.46-.29-.37-.46-.53-.39-.26-.56-.42-.32-.39-.5-.55c-.18.15-.33.38-.51.53s-.39.27-.57.42-.37.29-.54.45-.31.36-.48.51-.35.31-.53.47-.38.27-.56.42-.32.34-.5.49-.4.25-.57.41-.36.29-.53.44-.34.31-.51.46-.36.32-.53.47c.12.08.3.18.42.26-.11.22-.29.42-.41.64s-.23.43-.35.65-.17.46-.29.69-.28.4-.4.63-.18.46-.3.68-.23.43-.35.65c.15.16.3.37.51.58.16.17.34.36.53.56.17.18.35.37.53.57s.4.34.58.53c.18.2.31.41.45.58.17.21.28.42.39.61.14.24.23.44.27.65.04.24.04.46-.07.7-.09.19-.24.36-.43.56-.15.16-.3.33-.51.51-.17.14-.36.28-.58.43-.18.13-.37.26-.59.41-.19-.15-.4-.26-.59-.41s-.35-.33-.54-.49-.4-.28-.6-.43-.37-.32-.56-.48-.4-.34-.59-.49c-.19.22-.35.45-.47.61-.17.24-.25.44-.25.68,0,.2.04.43.19.7.09.18.26.36.42.61.12.18.2.42.36.64.13.18.27.39.43.6.14.19.32.37.48.59-.16.19-.35.38-.52.58-.16.18-.29.4-.47.61-.16.18-.32.38-.51.59-.16.18-.36.4-.54.61-.17-.17-.36-.38-.53-.54s-.36-.32-.52-.49-.32-.37-.48-.54-.31-.37-.48-.54-.38-.29-.54-.46c-.16-.16-.26-.37-.42-.53s-.34-.3-.49-.46-.27-.36-.42-.53-.37-.27-.52-.43-.27-.38-.43-.55c-.21.14-.39.33-.58.47-.2.15-.44.25-.63.4-.2.15-.38.32-.59.44-.22.13-.45.2-.68.27-.19.06-.4.09-.63.13-.21.03-.42.09-.64.1-.23,0-.46.03-.65,0-.25-.05-.45-.15-.57-.29-.14-.16-.29-.36-.39-.6-.09-.21-.14-.45-.19-.69s-.09-.48-.08-.71c0-.26.03-.52.12-.71.1-.22.3-.39.43-.61s.2-.45.34-.66.28-.41.43-.6.37-.33.53-.52.34-.36.51-.53.3-.4.47-.57c.17-.16.35-.31.52-.47s.36-.3.53-.46.37-.29.54-.45.33-.34.5-.49.36-.3.54-.46.37-.29.55-.44.33-.34.51-.49.39-.27.56-.42.37-.29.55-.45.34-.32.52-.47.38-.29.56-.44c0-.23-.02-.47-.02-.68s.04-.45.04-.67-.07-.44-.07-.67c0-.21.03-.43.03-.67.21-.05.41-.11.63-.16s.43-.06.64-.11.4-.16.62-.21.42-.11.63-.16.45-.02.67-.07c.16-.17.3-.37.47-.54s.35-.31.52-.48.32-.34.49-.51.29-.38.45-.55.39-.28.55-.45.29-.37.46-.54.32-.35.48-.52.32-.35.48-.52.39-.28.56-.45.28-.4.44-.57.37-.31.54-.49c-.15-.18-.33-.33-.48-.51s-.25-.4-.41-.57-.33-.33-.48-.5-.35-.31-.5-.48-.3-.36-.46-.52-.3-.36-.47-.52-.36-.3-.53-.45-.36-.29-.55-.43-.35-.31-.54-.45-.42-.21-.62-.33-.36-.3-.57-.41-.41-.22-.62-.32-.45-.12-.67-.2-.43-.18-.65-.25-.44-.14-.68-.18c-.23-.05-.46-.12-.68-.24s-.4-.27-.59-.42-.42-.25-.61-.4-.37-.3-.57-.43c-.25.02-.49-.01-.73,0s-.49.04-.74.05-.49.06-.74.08-.49.04-.74.06-.49,0-.74.01-.49.03-.73.04-.49.07-.73.09-.49-.01-.74,0c-.26.02-.5.03-.74,0-.26-.03-.49-.09-.72-.17s-.48-.13-.7-.25-.44-.24-.63-.4-.36-.34-.53-.53-.27-.41-.42-.62c-.13-.19-.24-.4-.36-.6s-.28-.37-.4-.57-.21-.42-.32-.62-.18-.43-.27-.64-.2-.42-.28-.64-.13-.44-.19-.67-.13-.45-.17-.68-.02-.46-.03-.7-.07-.46-.06-.7,0-.47.04-.7.16-.44.22-.67.1-.45.18-.67c.08-.22.13-.44.21-.66s.11-.45.19-.66.16-.43.24-.65.18-.42.26-.64.13-.44.21-.65.16-.43.24-.64.13-.44.21-.65c.08-.22.21-.41.28-.62.08-.22.18-.41.26-.61.24-.1.45-.24.67-.34.24-.1.48-.2.71-.3.24-.1.5-.14.73-.23.24-.1.47-.22.7-.31.24-.1.46-.24.69-.33s.47-.2.7-.3.45-.23.68-.34c.22-.11.45-.18.68-.27s.45-.19.68-.25.48-.09.72-.13.49,0,.73,0,.48-.09.72-.08.48.08.72.12.49.02.72.08.47.14.69.22.46.16.68.26.43.23.64.35.4.27.6.41.39.29.57.45.39.29.56.46.31.37.46.57.31.37.44.58.19.45.3.66.2.44.28.67.2.44.26.68.11.47.15.72.03.48.04.73c0,.24-.05.48-.05.71s-.01.47-.02.71-.04.47-.06.71-.03.47-.06.71.03.48,0,.71-.09.47-.11.7-.05.47-.07.71-.09.49-.11.73c.18.15.39.31.59.47s.39.3.58.45c.2.16.39.32.56.46.04.24.15.45.21.68s.09.47.17.69.16.45.26.67.2.44.31.65.22.42.35.62.25.41.4.6.35.33.51.51.31.36.48.53.29.38.46.55.38.29.55.46.35.32.53.48.34.33.52.49.38.29.56.45.35.32.53.48.33.39.51.55c.17-.17.33-.37.5-.53s.37-.29.54-.45.35-.31.52-.47.3-.37.47-.53.39-.27.56-.43.34-.33.5-.5.28-.38.43-.56.3-.36.45-.54.25-.39.38-.59.25-.39.36-.6.27-.39.36-.6.2-.42.27-.65.08-.46.13-.69.1-.45.13-.69c.19-.15.36-.33.56-.49.19-.15.41-.27.62-.43.19-.15.39-.3.6-.46-.01-.27-.07-.54-.08-.81s.04-.54.03-.81c-.01-.23-.06-.46-.08-.69s-.01-.46-.04-.69-.04-.46-.07-.69-.1-.46-.12-.68-.07-.46-.08-.69,0-.47.01-.69.04-.46.06-.69.04-.46.08-.69c.05-.23.1-.47.17-.69s.16-.45.26-.66.22-.42.34-.62.3-.36.44-.55.3-.36.46-.53.33-.33.51-.48.35-.3.54-.44.36-.31.56-.43.43-.18.65-.28.41-.24.63-.32.44-.17.67-.22.47-.06.7-.1.46-.1.69-.12.47-.01.71,0,.46.07.7.09.47.03.7.07.46.09.69.15.44.16.66.25.41.22.62.33c.22.11.45.2.67.31s.47.14.7.24.46.16.69.25.44.19.67.28.44.22.67.32.47.14.71.24c.13.21.25.43.37.64s.28.4.4.62.22.44.33.66.23.43.34.65.19.45.28.68.19.45.27.68.22.44.3.67.16.47.23.7.09.48.15.72.1.48.14.72.09.48.12.72.05.49.06.73-.03.49-.04.73-.05.48-.09.73-.03.49-.08.73-.18.45-.26.69-.13.47-.22.69-.2.44-.32.66-.2.44-.34.65c-.14.2-.31.37-.45.55-.15.19-.28.39-.43.56-.16.18-.35.32-.52.48s-.35.31-.54.45-.39.26-.6.36-.39.27-.62.34-.45.11-.69.14c-.23.03-.46,0-.71,0-.23,0-.47.05-.71.03-.25-.03-.5-.05-.74-.07s-.49-.09-.74-.11-.5-.05-.74-.08c-.25-.02-.5-.04-.74-.06-.26-.02-.51,0-.74-.03-.26-.03-.5-.07-.72-.09-.24.1-.46.21-.69.3-.24.11-.47.2-.69.3-.24.11-.49.15-.71.25-.24.1-.47.2-.69.3s-.43.27-.66.36-.49.12-.72.21c-.23.09-.46.18-.68.28s-.41.27-.62.39-.45.2-.65.33-.43.23-.63.37-.34.35-.54.5-.39.28-.58.44-.37.32-.54.49-.38.31-.55.48-.31.38-.47.56-.31.37-.47.56-.31.37-.46.57-.32.4-.46.6c.18.15.4.29.59.44s.38.28.56.43.37.29.56.44.38.28.57.43.33.35.51.5.35.32.54.47.39.28.57.43.39.28.58.43.34.34.53.49.45.26.63.41c-.14.12-.37.27-.51.39.25.05.52.11.77.15s.49.12.74.17.51.03.77.08.51.1.76.15c0,.23-.03.47-.03.68s.04.45.04.67-.04.44-.04.67-.04.46-.04.69ZM579.61,13.9c.06.24.14.47.21.68.08.23.25.41.35.61.11.22.18.45.3.63.14.21.31.36.46.52.17.18.35.31.53.43.2.13.37.3.58.38s.45.09.69.13.45.05.69.05.46.03.7,0,.46-.07.69-.13.45-.13.67-.21.42-.19.64-.28c.22-.09.46-.16.68-.29s.4-.29.59-.45.38-.31.56-.49.33-.37.48-.56.24-.43.38-.64.26-.41.37-.63.25-.42.35-.65.19-.45.27-.69.14-.47.19-.71.13-.48.15-.72-.01-.5-.02-.74.02-.5-.02-.74c-.04-.25-.17-.47-.25-.7-.09-.24-.13-.49-.25-.7s-.29-.41-.46-.59-.35-.37-.55-.51-.43-.26-.66-.36-.48-.12-.73-.17c-.23-.05-.47-.08-.7-.08s-.47.05-.71.09-.47.08-.7.12-.47.06-.7.1c-.24.05-.44.15-.67.18-.04.27-.12.5-.16.73-.04.27-.05.52-.09.75-.04.26-.1.5-.14.74s-.11.47-.15.72c-.23.09-.45.16-.67.26s-.44.23-.65.34-.39.29-.58.44-.42.26-.59.43-.27.4-.4.61c-.13.2-.24.4-.33.64-.08.22-.2.44-.25.69-.04.23-.08.48-.1.74ZM618.12,7.59c-.24-.11-.49-.21-.7-.3-.24-.1-.5-.1-.72-.17-.25-.08-.48-.19-.7-.23-.26-.05-.5-.04-.73-.04-.25,0-.48.04-.71.1s-.48.08-.7.2c-.2.11-.38.28-.59.43-.21.14-.38.3-.54.45-.18.18-.36.33-.49.52-.13.2-.25.41-.34.63s-.15.45-.19.69-.04.47-.05.71-.07.47-.06.71.04.47.07.71c.02.24.04.47.1.68.06.23.15.44.25.64s.27.37.39.56.26.37.4.55.26.37.42.54.3.34.45.52c.17.19.34.36.5.52.18.18.34.36.51.52.19.16.42.27.6.41.21.15.38.32.59.43.22.12.47.17.68.25.23.09.44.23.67.28.24.05.49.07.73.07s.49,0,.73-.05.47-.13.69-.24.4-.27.6-.41c.19-.14.39-.28.56-.46.16-.16.3-.37.46-.57.14-.18.28-.38.41-.59.12-.2.28-.39.39-.61.11-.21.15-.45.25-.68,0-.26.02-.5-.02-.73-.04-.25-.14-.48-.23-.69-.09-.23-.19-.45-.33-.65s-.28-.41-.45-.57-.36-.34-.56-.48-.42-.25-.63-.37-.45-.18-.67-.28-.4-.25-.62-.35c-.04-.23-.13-.42-.16-.64s-.07-.44-.1-.67-.02-.45-.05-.67-.07-.46-.11-.69Z"/>
  <path class="b" d="M178.52,5.98c.21-.09.43-.15.64-.23s.42-.19.63-.27.45-.12.66-.2.41-.21.62-.3.43-.17.63-.26.41-.19.62-.3c.22-.11.42-.25.65-.34s.47-.15.7-.22.47-.14.7-.19.49-.05.73-.07.49-.02.73-.02.48.06.72.08.48.03.72.08.46.13.69.2.46.15.68.25.45.18.66.29.41.26.61.39.42.24.61.4.33.35.5.52.36.33.51.51.33.36.46.56.24.42.35.64.21.44.3.66.15.46.22.69.13.47.17.71.08.48.09.72c.02.23.01.47.01.71s-.05.47-.06.7-.03.47-.04.7.02.47,0,.71-.05.46-.07.7-.12.46-.15.69-.05.47-.07.7.02.47,0,.7c.15.18.29.37.43.56s.28.39.42.58.23.41.36.62.26.4.38.6.24.41.36.62.2.43.32.64.25.41.37.61.3.38.42.58.23.42.36.62.28.39.42.58.24.41.39.6.34.34.5.52.34.33.51.5.33.35.51.5.39.27.59.41.38.28.59.4.4.27.62.38c.17-.16.36-.33.53-.48s.36-.31.54-.46.37-.3.54-.46.32-.35.5-.51.36-.31.53-.48.37-.3.53-.47.33-.35.48-.52.25-.41.39-.6.33-.34.47-.54.24-.41.37-.61.23-.41.35-.62.28-.39.38-.6.14-.45.23-.68.16-.44.23-.67.17-.44.23-.67c.14-.12.32-.26.52-.42.16-.14.34-.3.52-.45s.32-.32.49-.46c-.02-.25,0-.49-.03-.73s-.08-.49-.11-.73-.04-.49-.07-.73-.07-.48-.1-.72-.12-.48-.14-.72-.03-.49-.04-.73.02-.49.03-.73c0-.24.03-.48.05-.71s.05-.48.1-.71.13-.46.19-.69.09-.48.17-.69.22-.42.33-.64.16-.46.28-.66.32-.36.46-.55.29-.38.45-.55.35-.32.53-.47.36-.3.56-.44.37-.3.57-.42.43-.2.65-.29.43-.2.66-.27.46-.13.69-.18.47-.04.71-.07.47-.1.71-.11.47.05.71.07.47.01.71.06.46.11.69.17.44.16.67.24.43.18.65.28.43.19.64.3c.23.12.48.19.73.29s.45.25.7.35c.24.09.5.12.75.2.24.08.48.17.74.26.24.08.45.22.71.32.15.19.29.37.43.58s.26.41.39.62.26.41.37.63.25.42.36.64.17.46.26.68.24.43.32.66.16.46.23.69.14.47.2.71.08.48.14.72.1.48.14.72.09.48.12.72.01.49.02.73.07.49.06.73-.01.49-.04.73-.14.47-.19.71-.04.49-.11.73-.18.46-.27.68-.21.44-.33.65-.23.43-.37.63c-.15.21-.32.4-.48.59s-.35.38-.51.56c-.18.19-.33.39-.52.56s-.36.37-.57.51-.47.2-.7.3-.46.19-.71.24c-.24.05-.48.07-.75.08-.24,0-.5.08-.76.06-.25-.03-.49-.14-.75-.17s-.51-.02-.76-.04-.51-.02-.76-.05-.5-.13-.74-.16-.51,0-.76-.04-.51-.04-.75-.07-.49-.06-.73-.09c-.23.13-.49.19-.71.33s-.41.34-.63.47-.49.2-.72.33-.42.33-.65.44-.5.17-.74.26c-.23.09-.47.16-.69.26s-.42.27-.63.39-.43.24-.63.37-.44.23-.64.37-.37.33-.56.48-.42.26-.61.42-.37.32-.55.49-.34.35-.52.53-.34.35-.51.53-.28.4-.45.59-.38.32-.54.51-.33.37-.49.55-.27.4-.43.59c.16.17.28.37.44.54s.36.31.52.48.32.35.48.52.31.36.47.53.33.34.49.51.33.34.49.51.37.3.53.47.29.37.45.54.3.36.46.53.33.33.49.5.34.32.5.48c.27.05.53.13.79.18.27.05.54.07.8.12s.53.1.79.15.51.09.78.14c.02.23.07.44.09.66s-.01.45,0,.68c.01.22.06.44.08.68.01.21,0,.44.02.69.18.16.34.35.52.51s.38.29.57.44.37.31.55.47.35.34.53.5.4.28.58.44.32.37.5.53.36.32.54.49.39.29.57.45.34.34.52.51.39.3.57.47c.17.16.34.32.5.48s.33.32.49.49.3.35.46.53.33.33.47.51.26.38.4.57.24.4.37.59c.16.24.34.42.45.63.13.26.17.52.23.73.07.28.12.52.06.75s-.23.41-.44.61c-.16.16-.31.37-.56.52-.2.12-.46.17-.71.29-.22.1-.45.24-.71.34-.18-.12-.35-.29-.54-.41s-.39-.2-.58-.32-.35-.26-.54-.38-.36-.24-.55-.36-.39-.2-.58-.33-.37-.2-.56-.32c-.17.19-.34.35-.51.53s-.32.39-.49.57-.35.36-.52.54-.33.38-.5.56-.32.38-.5.57-.41.31-.58.49-.29.42-.46.61-.33.38-.5.57-.38.32-.55.51c-.19-.18-.35-.34-.52-.5-.19-.18-.42-.29-.59-.45-.19-.18-.36-.35-.53-.51-.18-.17-.35-.36-.53-.52.03-.23.12-.44.22-.65s.19-.41.33-.6.29-.36.43-.53.31-.34.43-.53.2-.41.28-.62.17-.42.17-.65c0-.21-.02-.44-.09-.68-.06-.2-.17-.4-.3-.62-.21.16-.44.3-.64.46-.21.16-.4.34-.61.5-.21.16-.44.29-.65.45s-.37.38-.57.53-.43.3-.63.45c-.24-.11-.47-.21-.67-.31-.24-.13-.43-.28-.62-.4-.23-.15-.47-.26-.62-.41-.2-.2-.36-.4-.44-.61-.09-.23-.02-.47.04-.73.05-.21.1-.44.25-.68.11-.19.28-.37.45-.58.14-.18.3-.37.48-.56.18-.2.31-.43.49-.63s.43-.34.61-.53.33-.42.51-.61c.19-.2.35-.39.52-.57-.12-.22-.25-.42-.37-.64s-.17-.49-.28-.71-.31-.41-.42-.63-.19-.46-.31-.68-.26-.42-.38-.64-.17-.45-.29-.67c.1-.08.18-.15.28-.23-.18-.16-.39-.29-.57-.45s-.34-.34-.52-.5-.33-.35-.51-.51-.37-.3-.55-.46-.37-.31-.55-.46-.33-.34-.51-.5-.4-.27-.58-.43-.31-.37-.49-.53-.34-.33-.52-.49-.38-.26-.56-.42c-.23.08-.46.12-.67.21s-.45.18-.65.29-.41.25-.6.38-.4.26-.59.41-.32.35-.49.52-.33.33-.49.51-.35.32-.5.51-.29.37-.43.57-.25.4-.38.6-.25.4-.37.6-.28.39-.39.59-.24.41-.35.61-.2.43-.31.64-.27.39-.38.6-.22.42-.33.63-.25.43-.37.64c.15.17.35.33.51.51.15.17.33.32.48.49.15.17.29.34.45.52s.26.38.42.55.28.37.43.54.33.31.49.49.29.36.44.54.27.33.43.51c-.15.17-.27.33-.41.49s-.3.33-.45.49-.27.35-.42.52-.32.3-.47.47-.26.37-.41.54c-.19-.15-.4-.28-.58-.43s-.31-.37-.5-.51-.38-.28-.56-.43-.38-.28-.56-.43-.36-.25-.54-.4c-.18.24-.33.44-.49.65-.17.23-.36.43-.53.65.11.2.25.38.36.57s.22.39.33.59.24.37.36.57.18.41.29.61.19.38.3.58c-.14.17-.24.35-.39.52s-.28.33-.43.51c-.14.16-.33.29-.48.46-.14.16-.27.35-.42.52-.14.16-.27.36-.42.54-.17-.19-.35-.39-.52-.57s-.35-.36-.52-.54-.32-.39-.48-.57-.37-.35-.53-.53-.32-.39-.49-.57-.29-.42-.45-.6-.39-.32-.56-.5-.3-.4-.46-.58-.36-.32-.53-.5c-.2.12-.37.23-.57.35s-.38.25-.57.37-.39.23-.59.35-.4.22-.59.34-.39.24-.58.36-.38.29-.58.41c-.24-.12-.5-.26-.75-.39s-.5-.22-.76-.34c-.24-.12-.46-.29-.72-.42,0-.26,0-.5.03-.75.02-.26.01-.51.07-.75s.12-.5.2-.73.21-.46.32-.68.29-.41.43-.62.28-.41.44-.6.33-.37.5-.55.34-.36.53-.53.31-.4.5-.56c.17-.15.37-.27.55-.42s.35-.3.52-.46.38-.27.55-.42.34-.31.51-.46.34-.31.51-.47.35-.31.52-.46.3-.35.48-.51.37-.28.54-.43.35-.3.52-.45.35-.3.52-.45.36-.29.52-.44c.02-.24.05-.48.06-.69.01-.24-.05-.47-.03-.69.01-.23.03-.46.04-.68s.08-.44.09-.67c.24-.04.46-.13.69-.17s.47-.08.7-.12.47-.06.7-.1.44-.1.68-.14c.17-.16.35-.31.52-.47s.4-.27.58-.43.32-.36.5-.52.37-.3.55-.46.35-.32.53-.49.31-.38.48-.54.4-.28.58-.44.35-.33.53-.49.32-.37.5-.54.36-.33.54-.49c-.15-.19-.31-.34-.46-.52s-.3-.36-.44-.54-.25-.4-.4-.57-.29-.37-.45-.54-.36-.31-.52-.47-.32-.34-.49-.5-.37-.28-.54-.43-.33-.33-.51-.47-.37-.28-.57-.4-.41-.21-.61-.33-.37-.28-.58-.39-.43-.17-.65-.25-.42-.19-.65-.26-.44-.14-.67-.19c-.25-.06-.51-.13-.74-.29-.21-.14-.44-.29-.64-.48-.19-.18-.37-.38-.57-.56s-.38-.38-.59-.54c-.22.03-.44.1-.67.14s-.44.1-.67.14-.45.09-.68.13-.45.07-.68.11-.46.01-.69.04-.46.05-.69.07-.46.03-.69.04c-.25.01-.49.02-.73.01-.25,0-.5.03-.73,0-.25-.03-.48-.12-.71-.17-.24-.05-.5-.06-.72-.13s-.47-.16-.69-.26-.41-.27-.61-.41-.41-.26-.59-.43-.33-.35-.49-.54-.25-.41-.38-.62-.27-.4-.37-.62c-.1-.21-.21-.43-.29-.67s-.14-.46-.2-.7c-.06-.23-.07-.48-.12-.72-.05-.24-.1-.48-.13-.72s-.11-.48-.13-.73-.05-.49-.05-.74.02-.5.04-.74.09-.49.13-.73.04-.49.1-.73c.06-.23.13-.45.2-.67s.1-.46.17-.68.17-.44.24-.66.15-.44.23-.66.18-.43.27-.65.17-.43.26-.65.13-.45.21-.67.17-.44.25-.65.21-.42.29-.64.17-.44.25-.66c.17.11.35.23.52.34ZM217.86,7.68c-.22-.12-.43-.24-.65-.33-.23-.1-.48-.15-.7-.22-.24-.07-.47-.18-.7-.23-.25-.05-.5-.03-.73-.04-.25-.02-.49-.02-.73,0-.25.02-.49.07-.72.13s-.45.19-.66.3-.42.23-.61.39-.33.34-.48.54-.29.38-.39.61c-.1.21-.19.44-.26.68-.06.24-.15.47-.18.71s-.01.49-.01.74,0,.49.02.74.08.49.14.72.15.47.24.7.16.46.27.68.27.41.4.62.23.44.38.63.33.37.49.55.37.33.55.49.36.34.55.48.39.29.6.42.42.26.64.36.45.19.68.27.47.14.71.19.48.1.72.11.49.06.74.04c.25-.02.49-.07.71-.12.24-.06.45-.19.66-.29s.42-.22.61-.36.42-.25.58-.43.29-.38.41-.59c.11-.2.15-.45.23-.69.07-.22.14-.44.18-.69.05-.25.07-.5.07-.74,0-.26.02-.51-.03-.74s-.14-.48-.24-.7-.23-.43-.39-.63c-.15-.19-.3-.39-.5-.55-.19-.15-.41-.27-.64-.39-.19-.1-.41-.15-.6-.25s-.37-.23-.56-.33-.39-.2-.59-.3c-.02-.29,0-.57-.02-.84-.02-.28-.09-.55-.11-.82s-.05-.55-.07-.82ZM182.93,8.18c-.02.23-.06.45-.08.66-.02.23,0,.45-.03.67-.02.23-.09.44-.11.66s0,.46-.01.68c-.25.12-.49.23-.7.33-.24.12-.46.22-.68.34-.22.12-.39.27-.58.41-.2.14-.39.28-.55.44-.17.17-.31.36-.44.55s-.27.39-.36.6-.16.44-.2.67-.09.47-.07.71.09.46.16.69c.07.24.12.47.2.67.09.23.19.44.3.63.12.21.28.39.42.56.16.18.32.35.5.49s.41.2.63.29c.21.08.42.19.65.24.22.04.45.04.7.05.22.01.45-.03.7-.05.24-.01.48-.02.7-.06.24-.04.47-.09.69-.15s.45-.14.67-.23.42-.21.62-.33.39-.26.58-.4.37-.29.54-.45.37-.3.52-.48.3-.36.44-.55.23-.41.35-.61.25-.4.37-.6.29-.38.4-.59c.11-.21.2-.42.27-.63s.07-.46.12-.68.09-.45.1-.67.01-.45,0-.68-.02-.46-.07-.68-.13-.44-.21-.65-.18-.42-.29-.62-.21-.42-.35-.59-.31-.34-.48-.49c-.2-.17-.43-.27-.62-.4-.22-.14-.42-.28-.63-.38-.23-.1-.47-.16-.71-.21s-.49-.12-.73-.12-.49.07-.73.12-.46.13-.7.22c-.23.08-.46.15-.69.26-.22.11-.43.23-.64.36Z"/>
  <path class="b" d="M392.81,40.08c.15.17.35.33.5.51s.28.37.43.54.31.33.47.51.34.32.49.49.26.39.41.56.34.32.5.5.31.35.47.53c.1.12.02.38.1.85-.15.16-.33.3-.5.48-.16.16-.27.39-.44.57-.16.17-.32.34-.49.52s-.35.27-.52.45c-.18-.15-.33-.28-.49-.42s-.35-.29-.52-.43-.35-.28-.52-.43-.37-.25-.54-.4-.3-.28-.48-.43c-.24.17-.45.25-.59.41-.2.22-.32.45-.37.66-.05.25.06.49.15.72.08.22.17.45.31.67.13.21.26.42.38.63s.31.41.37.65.05.49-.02.75c-.15.14-.32.29-.51.47-.15.14-.31.31-.49.48-.16.15-.33.31-.51.48-.16.15-.36.29-.54.46-.16-.18-.3-.4-.46-.57s-.33-.36-.49-.54-.33-.35-.5-.53-.38-.31-.54-.49-.31-.37-.47-.55-.31-.36-.48-.54-.27-.4-.43-.57-.38-.3-.54-.48-.3-.38-.46-.56c-.2.13-.37.29-.56.42s-.42.19-.61.31-.35.29-.54.41-.39.23-.58.35-.41.19-.61.32-.35.32-.55.45c-.19-.11-.4-.21-.6-.32s-.34-.27-.54-.38-.38-.21-.58-.32-.39-.2-.59-.31c.04-.24.13-.47.19-.7s.1-.48.18-.7.18-.45.28-.66.24-.42.36-.62.2-.45.33-.64.3-.37.46-.56.32-.36.48-.53.32-.36.49-.53.37-.3.55-.46.35-.33.53-.49.36-.32.54-.47.39-.27.58-.43.33-.35.52-.51.38-.29.56-.45.34-.34.51-.51.38-.3.55-.47.3-.38.46-.56.32-.36.47-.55.29-.38.43-.58.22-.41.35-.62c.02-.13.07-.36.12-.68.03-.2.05-.44.08-.7.03-.22.1-.46.14-.71.25-.04.52-.08.77-.13s.5-.05.76-.09c.24-.04.49-.12.76-.17.24-.04.51-.06.78-.11.16-.17.32-.34.49-.51s.3-.35.46-.52.33-.32.49-.49.29-.37.45-.54.35-.3.51-.47.29-.36.45-.53.29-.37.45-.54.33-.33.49-.5.33-.34.49-.51.33-.33.49-.51c-.15-.2-.31-.38-.46-.58s-.31-.39-.47-.58-.31-.39-.47-.58-.29-.41-.46-.59-.34-.36-.51-.54-.39-.31-.58-.47-.37-.33-.56-.48-.35-.36-.55-.5-.41-.27-.63-.4-.46-.18-.69-.29-.44-.22-.67-.31-.46-.17-.7-.24-.46-.17-.71-.22c-.24-.05-.46-.15-.68-.3-.2-.14-.39-.3-.58-.48-.18-.17-.33-.38-.51-.56s-.39-.34-.58-.5c-.25.02-.5.11-.76.13s-.5.02-.75.04-.5.06-.75.08-.51,0-.76.02-.5.09-.75.11-.5.07-.75.09-.51.02-.76.04-.5.08-.75.1-.5.03-.75.05-.5,0-.74.03c-.19-.14-.38-.28-.56-.42s-.36-.31-.53-.47-.34-.33-.5-.5-.36-.31-.52-.49-.3-.37-.44-.56-.25-.41-.37-.6-.25-.4-.36-.6-.3-.38-.39-.6-.14-.46-.21-.68-.18-.44-.23-.67-.11-.46-.15-.7.01-.47,0-.71-.07-.47-.06-.71.02-.47.05-.71.11-.46.15-.69.1-.46.16-.69.12-.45.19-.68.12-.46.21-.68.22-.42.32-.63c.09-.19.16-.4.24-.6s.18-.4.24-.6.11-.42.13-.63c.03-.25.01-.49.07-.7.07-.24.16-.46.27-.66.12-.21.29-.38.45-.54s.36-.29.57-.4c.2-.1.41-.19.65-.25.21-.06.44-.06.69-.09.21-.02.41-.11.63-.17s.43-.08.63-.16.36-.24.54-.35c.21-.13.46-.19.68-.3s.44-.23.66-.33.47-.16.7-.23.47-.14.71-.19.48-.14.72-.17.49-.02.74-.03.49-.02.74,0,.49.06.73.11.47.15.7.23.49.1.71.19.43.24.65.36.44.21.65.35.39.29.59.44c.19.15.35.33.52.49s.32.35.47.53.31.36.44.56.3.38.4.59.15.45.23.68.21.43.27.66.1.46.14.7.01.47.03.71.05.47.05.71,0,.47-.02.71-.02.47-.04.71-.02.47-.06.71-.12.46-.17.69c-.04.21-.04.43-.09.63-.06.22-.12.43-.18.61-.09.28-.17.49-.2.59.14.21.24.43.38.63s.28.41.41.61.29.41.42.61.25.43.38.64.32.38.45.58.29.4.43.61.21.45.35.65.34.36.48.56c.14.19.27.41.42.6s.28.39.43.58.32.36.47.55.28.39.44.58.28.39.44.59.33.35.48.54.35.34.5.53.25.42.41.62.33.38.49.57c.19-.16.41-.32.6-.48s.33-.39.52-.55.44-.26.62-.42.35-.36.53-.52.34-.36.53-.53.41-.29.59-.46.31-.39.48-.57.32-.37.49-.56.32-.38.47-.57.36-.35.5-.55.22-.45.35-.66.32-.39.44-.61.15-.48.25-.71.24-.43.32-.67c.08-.24.22-.44.38-.66.15-.2.26-.44.44-.63.17-.18.35-.37.53-.57.17-.18.38-.35.55-.55-.03-.22-.12-.45-.16-.69-.04-.22-.02-.46-.06-.7s-.07-.46-.12-.69-.09-.46-.13-.69-.06-.46-.09-.69-.11-.46-.12-.69.05-.47.06-.7c0-.24.03-.48.05-.71s0-.48.04-.71.16-.45.22-.68.09-.47.17-.69.18-.44.28-.65.24-.41.36-.61.25-.4.39-.59.29-.37.45-.54.29-.39.46-.54.39-.27.58-.41.41-.23.62-.35.41-.23.63-.32.43-.2.66-.27.46-.1.69-.15.46-.11.7-.13.47-.03.71-.04.47,0,.71.03.47,0,.71.05.45.13.68.2.46.1.69.18.43.19.65.29.41.23.62.34c.25.13.49.39.73.4.25.02.48.03.7.07.24.04.46.11.68.17.24.07.47.09.68.18.22.1.4.27.59.39.2.13.38.27.55.42s.36.3.51.48.25.39.37.59.26.39.35.61.17.43.24.66.14.45.2.67.08.46.13.69.12.45.17.68.05.47.1.69.05.47.1.69.17.44.23.66c.06.23.05.47.09.69s.12.46.14.69-.02.47-.02.7.07.47.05.7-.13.45-.17.68-.06.47-.13.69-.21.42-.31.63-.16.44-.27.64-.26.38-.39.58-.27.37-.42.55-.26.38-.42.56-.29.36-.46.53-.35.3-.52.46-.33.33-.51.47-.38.28-.57.42c-.24-.02-.49-.03-.73-.05s-.48-.02-.73-.04-.48-.14-.72-.16-.49.03-.73,0-.49-.02-.73-.04-.48-.11-.72-.13-.49-.05-.73-.07-.5.03-.74.01-.49-.05-.72-.08-.48-.06-.72-.08c-.2.11-.41.19-.59.3-.2.11-.37.26-.55.37-.2.12-.39.22-.57.33-.2.11-.4.2-.59.31s-.37.25-.57.35-.42.15-.62.23c-.24.09-.47.18-.7.27s-.45.23-.67.34-.46.21-.67.34-.41.28-.62.42-.42.26-.62.41-.33.37-.52.54c-.18.16-.38.31-.56.49-.17.17-.33.36-.5.55-.16.18-.36.34-.53.53-.16.18-.27.41-.43.61-.15.19-.3.39-.46.59-.15.19-.37.33-.53.54-.15.19-.26.42-.42.63.16.17.29.36.45.53s.32.33.48.5.36.3.52.47.26.39.42.56.35.31.51.47.33.33.49.5.33.33.49.5.26.4.42.57.38.29.54.46.29.37.45.54.34.31.5.48c.25.04.47.14.71.18s.49.05.73.09.49.03.74.07.48.1.73.14c.05.21.05.44.1.64s.12.41.16.62c.05.21.11.42.15.61.05.22.06.44.1.63.17.18.38.31.55.48s.28.4.45.57.32.36.49.53.38.31.54.48.3.37.47.55.31.36.48.54.35.33.51.5.32.36.49.53.38.3.54.47.33.34.5.52.29.38.46.55.33.35.49.52.35.33.51.5.33.34.49.52.29.38.46.55.32.35.48.53.35.33.51.5c.13.14.15.34.19.57.04.18.07.39.1.61.02.2.04.38.08.59-.17.13-.29.28-.47.41s-.31.29-.49.42-.34.25-.52.39c-.17.13-.36.21-.54.35-.21-.13-.39-.29-.59-.42s-.43-.23-.63-.36-.39-.28-.6-.41-.38-.28-.59-.41-.42-.24-.63-.37c-.2-.13-.41-.27-.62-.41-.16.17-.31.36-.47.53s-.34.3-.5.47-.28.37-.44.54-.3.35-.45.52-.38.27-.54.44-.3.34-.46.51-.3.35-.46.52-.29.37-.45.54-.32.33-.48.5-.35.32-.51.49c-.18-.17-.37-.31-.53-.47-.18-.17-.35-.34-.51-.49-.18-.17-.37-.31-.53-.46-.18-.17-.31-.36-.47-.51.11-.23.25-.44.36-.66s.17-.48.28-.7.21-.45.32-.67.27-.43.37-.65.19-.46.29-.69.17-.47.26-.69c.06-.13-.28-.42-.53-.77-.21.16-.39.34-.59.49s-.43.3-.63.46-.39.35-.59.5-.42.3-.62.46-.43.25-.63.41c-.23-.12-.45-.16-.64-.27-.23-.13-.4-.3-.58-.42-.22-.15-.44-.25-.6-.39-.2-.19-.34-.39-.42-.58-.1-.22-.14-.46-.09-.71.04-.2.15-.42.29-.65.11-.18.26-.36.43-.56.13-.17.29-.35.46-.54.15-.16.25-.36.4-.52s.31-.31.46-.47.27-.34.42-.5c.16-.18.37-.31.52-.47.19-.21.37-.39.48-.51-.11-.22-.27-.42-.38-.63s-.23-.43-.33-.64-.2-.44-.3-.65-.16-.46-.27-.67-.22-.43-.33-.64-.2-.4-.31-.62c.13-.09.26-.19.39-.27-.18-.16-.43-.28-.61-.45s-.34-.35-.52-.51-.36-.32-.55-.48-.33-.36-.51-.52-.37-.31-.55-.47-.37-.31-.55-.47-.36-.32-.54-.49-.41-.27-.59-.44-.34-.35-.52-.52-.36-.33-.54-.49-.36-.33-.55-.5c-.18.16-.37.3-.55.46s-.37.3-.55.46-.31.37-.49.53-.36.32-.53.47-.39.27-.57.43-.32.35-.5.51-.36.31-.53.46-.37.29-.54.45-.33.33-.51.49-.35.28-.52.44c.11.07.14.13.24.19-.11.22-.17.44-.28.66s-.25.43-.35.65-.22.44-.33.66-.15.47-.26.69-.28.41-.39.64-.21.46-.32.69ZM417.84,7.16c-.2-.15-.44-.26-.64-.38-.21-.13-.4-.28-.61-.38-.22-.11-.45-.19-.67-.27-.23-.08-.47-.09-.71-.13s-.47-.11-.71-.09-.46.1-.7.17c-.22.06-.44.15-.66.26-.21.1-.44.17-.65.31-.2.14-.4.27-.56.41-.18.16-.28.38-.42.56-.15.19-.27.38-.37.58s-.27.39-.34.61-.1.45-.13.68-.03.46-.03.69.02.46.05.69.11.44.15.68c.04.23.1.45.16.68s.06.48.16.7.19.44.31.64.3.37.44.57.23.41.38.6.29.38.46.55.38.28.56.44.35.32.54.46.39.28.59.4.42.21.64.31.44.18.66.25.45.15.68.19c.24.04.47.12.7.14.24.02.49.02.71,0,.24-.01.48-.06.71-.1.24-.05.44-.19.65-.27.22-.09.44-.18.63-.3s.39-.27.55-.43.36-.31.49-.52.16-.44.25-.67c.08-.21.18-.43.22-.67.04-.22.01-.46.02-.71,0-.23.07-.47.04-.71-.02-.25-.12-.46-.18-.67-.06-.24-.13-.45-.23-.65-.11-.21-.19-.44-.34-.62s-.38-.28-.56-.42-.37-.25-.58-.37-.38-.26-.6-.35-.43-.15-.66-.22c-.17-.39-.37-.62-.4-.88-.03-.28.01-.57.02-.87,0-.28,0-.58,0-.89ZM382.16,10.16c-.2.11-.32.24-.45.32-.2.12-.36.17-.51.25-.22.1-.41.22-.6.34-.2.12-.36.29-.53.43-.19.15-.39.26-.54.43-.16.18-.25.39-.36.58s-.19.41-.25.63-.16.43-.17.66c-.01.22-.03.45,0,.69.03.22.15.43.21.66.07.24.14.46.22.66.09.23.11.48.22.67.12.21.27.4.41.57.16.18.34.33.53.46s.4.22.63.3c.21.07.44.08.68.12.22.03.44.06.69.06.22,0,.45.1.7.09.24-.01.49-.03.71-.07.24-.04.45-.17.67-.24s.46-.11.68-.21.43-.2.63-.32.35-.32.54-.46.38-.28.55-.44.34-.32.51-.49.3-.36.46-.54.31-.36.46-.54c.15-.18.31-.36.43-.56s.27-.39.37-.62.17-.45.24-.68.11-.47.15-.7,0-.48.02-.72.04-.48.03-.71-.02-.48-.06-.71-.03-.49-.1-.72c-.07-.23-.23-.43-.34-.63-.11-.22-.22-.43-.37-.61-.16-.18-.36-.31-.52-.47-.18-.17-.31-.37-.49-.5-.2-.14-.42-.21-.62-.3-.21-.1-.42-.19-.65-.23s-.45-.13-.68-.12c-.22,0-.44.12-.68.17-.21.04-.43.11-.66.2-.21.07-.44.1-.66.2-.2.09-.41.2-.62.31-.2.11-.39.23-.6.36-.03.27-.1.54-.13.82s-.03.55-.06.83-.08.53-.11.81Z"/>
  <path class="b" d="M19.23,15.73c.12.21.24.42.35.64s.23.43.33.65.22.43.33.65.27.41.39.62.19.45.33.65.3.38.46.57c.15.18.3.36.46.54s.33.34.48.51.32.34.48.52.3.37.46.54.34.32.5.5.27.39.43.56.38.29.54.46.33.33.5.5.31.36.47.53.34.32.51.49.34.33.5.5.32.34.49.51.29.37.45.54c.18.19.4.31.57.47.19.18.34.38.52.52.21.16.41.29.61.4.22.12.47.16.69.23.24.07.46.11.71.12s.48.02.72-.03c.22-.05.46-.12.69-.23.21-.09.44-.18.66-.31.2-.12.39-.28.6-.42.19-.13.36-.3.56-.45-.23.02-.46.06-.69.08s-.47.06-.71.08-.47-.03-.71,0c-.23.02-.46.1-.7.12-.23.02-.47.05-.72.07-.18-.14-.4-.26-.61-.41-.19-.14-.36-.31-.56-.46-.19-.14-.4-.26-.6-.41s-.38-.29-.58-.44-.41-.33-.61-.47c.19-.14.43-.31.63-.43s.41-.24.63-.35.46-.14.68-.22.45-.15.68-.22.43-.22.67-.27.47-.08.71-.12.47-.09.71-.11.48-.02.72-.03.48-.04.72-.04.48.02.72.04.48.03.71.06.46.13.7.17.46.12.69.17.48.06.71.13.45.17.67.25.45.14.68.23.46.14.68.24.4.27.61.38.44.19.65.31.41.25.6.39.34.34.52.49.35.33.52.49.4.27.56.45.33.38.47.57c-.14.2-.36.36-.51.55s-.3.38-.46.55-.33.35-.51.51-.36.32-.55.46-.36.33-.57.45-.42.24-.63.35-.47.11-.7.21-.45.16-.68.24-.43.22-.67.28-.48.06-.72.1-.47.06-.71.09-.47.13-.71.15-.48,0-.72,0-.48,0-.72-.01-.48,0-.72,0-.48-.03-.72-.06-.47-.08-.71-.11-.46-.13-.7-.17-.47-.09-.71-.14-.47-.09-.7-.15-.49-.04-.72-.1-.45-.15-.68-.22c-.18.13-.37.25-.57.39-.19.13-.42.21-.62.35-.19.13-.35.34-.55.49-.2-.17-.39-.38-.58-.55s-.43-.3-.63-.47-.34-.4-.53-.57-.43-.29-.63-.46-.38-.36-.58-.53c.02-.26.11-.53.13-.79.02-.29-.04-.54-.02-.77-.22-.12-.43-.22-.65-.34s-.4-.31-.62-.43-.44-.24-.65-.36-.44-.23-.66-.35-.41-.28-.63-.4-.45-.21-.67-.34-.43-.24-.65-.36c.09-.25.2-.46.29-.69s.1-.48.19-.73c.08-.22.19-.44.29-.7-.14-.12-.27-.27-.43-.41-.14-.13-.31-.25-.46-.39-.15-.13-.29-.31-.45-.45-.24.12-.47.26-.68.38s-.43.25-.66.37c-.21.11-.43.18-.67.31-.19-.14-.39-.23-.59-.38s-.37-.31-.57-.46-.41-.26-.61-.41-.36-.33-.56-.48-.43-.26-.63-.41c.05-.19.1-.4.15-.59s.09-.39.14-.59c.05-.19.07-.34.12-.55-.35-.05-.65-.23-.81-.12-.22.16-.39.32-.54.46-.2.19-.36.35-.44.54-.09.22-.1.44-.02.68.07.19.15.42.33.64.13.16.32.31.52.5.18.17.34.36.53.53s.37.33.56.5.39.31.58.47.36.34.55.5.41.28.6.44.34.36.53.52.4.3.59.46.41.29.59.46.36.35.54.52c.17.16.34.33.51.49s.34.33.51.49.35.31.53.47.35.32.52.48.33.33.5.5.3.36.48.53.34.32.51.49.39.28.56.44.34.32.51.49.29.38.46.55.34.32.51.49.39.27.56.43.33.33.5.5.34.33.51.49.31.35.48.52.35.31.52.48.34.33.51.49.3.36.47.53.35.32.52.48c.17.17.37.29.5.46.15.19.24.4.35.59.11.21.21.41.28.62.07.22.06.45.08.67s.06.45.03.68-.06.45-.14.67-.2.4-.32.6c-.12.21-.22.42-.36.58-.15.18-.33.32-.51.46s-.4.21-.61.3-.41.16-.64.2c-.21.04-.43.05-.67.05-.22,0-.44-.03-.67-.06-.22-.03-.45-.01-.68-.07-.24-.05-.48-.13-.72-.2s-.46-.18-.7-.26-.48-.15-.71-.22c-.21-.07-.45-.04-.66-.11s-.4-.19-.6-.26-.41-.1-.63-.18c-.21.15-.37.3-.54.46-.18.17-.4.3-.54.49-.15.2-.23.44-.33.65s-.19.44-.27.67-.18.46-.22.7-.07.48-.09.73,0,.49,0,.73.06.48.08.73c.02.24-.02.48-.01.71s.04.47.05.71-.02.47-.02.71,0,.47-.01.71.04.48.02.71-.05.47-.07.71-.1.46-.14.7-.09.46-.13.7-.09.46-.15.69-.15.45-.22.68-.08.47-.15.7-.2.43-.29.65-.1.47-.19.69c-.1.25-.29.45-.4.68-.12.24-.24.47-.4.67-.16.21-.36.37-.57.51s-.43.23-.7.29c-.23.05-.48.11-.77.08-.25-.02-.47-.1-.69-.17s-.46-.15-.66-.28-.38-.28-.55-.46-.26-.38-.39-.59c-.12-.2-.29-.38-.38-.61-.08-.21-.11-.46-.16-.7-.05-.22-.13-.47-.15-.71.18-.08.39-.19.59-.29s.4-.15.61-.19c.18-.03.37-.01.6,0,.17.01.37.01.6.03.18.02.36-.01.59,0-.08-.28-.07-.54-.12-.8-.06-.29-.18-.55-.25-.79-.08-.28-.17-.53-.33-.74-.15-.19-.25-.43-.4-.62s-.32-.37-.47-.57-.3-.39-.46-.58-.32-.38-.47-.57-.34-.36-.49-.55-.28-.41-.43-.6-.36-.34-.52-.52-.31-.38-.46-.56-.31-.38-.46-.57-.28-.4-.43-.59c-.16-.19-.31-.37-.46-.55-.03-.23-.08-.45-.11-.67-.03-.23-.03-.46-.06-.68s-.12-.45-.15-.66c-.03-.23-.08-.45-.11-.67-.03-.23.03-.47,0-.69s-.13-.44-.16-.66-.02-.46-.04-.68-.02-.45-.03-.67-.05-.45-.05-.67c0-.25.05-.5.11-.75s.16-.47.25-.71.16-.48.26-.71.16-.49.27-.71c.1-.21.29-.38.41-.58s.24-.4.38-.59.29-.37.42-.56.19-.4.32-.59c-.17-.18-.28-.38-.46-.52s-.41-.26-.61-.39-.43-.22-.64-.33-.4-.29-.62-.38-.47-.12-.7-.2-.46-.13-.7-.19-.46-.12-.7-.17-.45-.19-.69-.24-.49-.02-.72-.06-.46-.18-.69-.23-.49,0-.73-.05-.46-.16-.69-.22-.46-.13-.69-.2-.49-.06-.71-.14-.46-.16-.68-.26-.41-.24-.63-.35c.14-.24.25-.47.41-.63.19-.2.44-.29.65-.4.23-.12.46-.18.71-.23s.49-.08.74-.09.5,0,.76,0,.51-.07.75-.09.52,0,.76-.07.47-.2.67-.38c.19-.17.34-.38.53-.54s.44-.26.64-.41.37-.34.58-.49.42-.28.63-.43.43-.26.64-.4.42-.28.63-.43.42-.28.63-.43.36-.32.57-.47c-.18-.22-.29-.42-.44-.62-.17-.21-.3-.44-.46-.64-.17-.21-.34-.4-.51-.59-.15-.17-.3-.36-.41-.58-.09-.21-.13-.44-.19-.69-.05-.22-.11-.45-.14-.7-.02-.23-.03-.47-.03-.72,0-.23.01-.47.03-.72.02-.23,0-.48.02-.72s.11-.46.15-.7.04-.47.09-.71.12-.46.18-.7.14-.46.2-.69.07-.47.14-.71.12-.47.18-.7.16-.45.23-.69.08-.48.16-.71.22-.44.29-.67.15-.46.22-.69.1-.48.18-.7.18-.45.26-.68.11-.48.19-.7.16-.46.23-.68c.08-.23.16-.46.23-.68.08-.24.19-.46.26-.67.08-.24.13-.48.2-.69.08-.25.19-.47.24-.68.08-.28.16-.54.18-.72-.23-.05-.48-.05-.7-.1-.23-.05-.43-.17-.64-.22s-.46-.06-.67-.11-.43-.16-.65-.21-.46,0-.68-.06-.42-.17-.64-.22-.47-.07-.69-.12c.15-.21.35-.39.48-.58.15-.21.26-.43.4-.6.17-.2.35-.36.5-.51.19-.19.37-.33.55-.45.21-.14.4-.27.62-.32s.46-.09.71-.06c.21.03.44.1.69.18.21.06.45.11.69.2.23.08.44.19.66.28s.45.18.66.28.44.2.65.31.36.33.56.45.45.2.63.34.4.28.57.43.3.38.47.55.32.35.47.53.36.32.5.52.25.41.37.61.21.43.31.65.16.45.24.67.2.43.26.66.12.46.17.69.07.47.1.71.12.46.14.7,0,.47,0,.72,0,.47,0,.71c0,.23.03.46.04.69s0,.46.01.69.07.46.09.69,0,.46.03.69.13.45.16.68.02.46.05.69.07.46.1.69,0,.45.03.68c0,.04-.03-.04-.02-.02ZM12.4,28.42c.17.16.36.33.53.48s.35.31.52.47.35.32.52.48.38.28.54.44.3.36.47.52.36.3.53.46.34.32.51.47.36.29.53.44.35.3.52.45.33.32.5.47c.18.15.37.28.55.43s.31.35.49.5.41.24.59.38.37.28.55.42.35.3.54.44.39.26.58.39.39.25.58.38.38.26.58.38c.2.12.45.22.73.23.25,0,.51-.09.77-.14s.54-.06.76-.14c.14-.05.22-.29.29-.62.04-.19.02-.44.07-.68.04-.21.1-.41.17-.64-.22.09-.41.14-.6.22-.22.09-.43.17-.62.25-.22.09-.43.15-.62.23-.21.09-.38.2-.58.28-.22-.16-.44-.29-.64-.44s-.43-.31-.64-.47-.43-.3-.64-.46-.36-.35-.57-.51c.09-.2.13-.39.22-.58.09-.2.18-.39.27-.58s.15-.4.24-.6.21-.36.3-.55c-.25-.21-.49-.36-.69-.54-.24-.2-.44-.38-.65-.56-.2.09-.36.18-.55.27-.2.09-.4.16-.59.25s-.41.18-.6.27c-.2-.15-.38-.36-.58-.5s-.39-.3-.59-.45-.45-.22-.65-.36-.39-.31-.59-.45-.42-.28-.61-.43c.06-.2.17-.42.26-.62s.16-.41.22-.6c.07-.23.1-.41.01-.6-.08-.15-.21-.26-.48-.36-.16-.06-.35-.18-.61-.22-.15.17-.33.33-.48.51s-.26.39-.42.56-.33.33-.48.5c-.16.18-.32.37-.46.54ZM14.6,37.14c.22-.06.45-.13.66-.18s.41-.12.64-.19c.2-.06.41-.12.64-.18.2-.06.37-.13.61-.2-.21-.15-.34-.31-.52-.45-.2-.15-.4-.27-.59-.41-.19-.14-.38-.29-.57-.43s-.39-.26-.58-.41c-.18-.13-.35-.27-.56-.42.03.26.03.48.05.7.03.25.08.49.1.71.02.24-.02.48,0,.72s.09.47.11.72Z"/>
  <path class="b" d="M785.6,17.95c.08.3.21.58.27.82.08.3.18.55.24.8.07.28.1.55.17.82-.17.14-.36.27-.52.41s-.32.28-.49.42-.36.24-.53.38-.31.33-.48.47c-.22-.15-.41-.36-.61-.51s-.43-.29-.64-.44-.44-.31-.66-.46c-.21.17-.39.41-.59.57s-.43.3-.64.47-.43.3-.64.47-.36.37-.57.54c.1.24.24.44.34.69.09.22.19.46.3.72.09.22.2.49.31.76-.23.11-.53.17-.76.28s-.47.21-.7.31-.46.21-.69.32-.47.2-.7.31-.45.24-.68.35-.46.21-.69.31-.45.23-.68.34c.05.24.09.46.14.66.05.23.11.44.15.65.05.22.1.43.15.65-.18.16-.36.32-.54.48s-.38.29-.56.45-.36.32-.54.48-.32.41-.5.57c-.18-.15-.37-.33-.53-.47-.18-.15-.38-.25-.55-.38-.18-.14-.32-.31-.49-.44-.23.08-.46.16-.69.23s-.47.15-.7.22-.49.09-.72.14-.47.17-.7.22-.49.04-.73.08-.48.07-.72.1-.49.03-.73.04-.49.03-.73.03-.49.02-.73.01-.49.01-.73-.01-.49-.06-.73-.1-.47-.16-.7-.21-.47-.1-.71-.17-.47-.13-.7-.21-.46-.16-.68-.26-.45-.19-.67-.3-.43-.22-.64-.34-.44-.21-.65-.34-.37-.32-.57-.47-.4-.27-.59-.42-.37-.31-.56-.47-.38-.31-.56-.49c.13-.19.28-.39.43-.58s.34-.33.51-.5.32-.35.51-.5.41-.24.61-.37.35-.33.55-.45.41-.25.62-.36.44-.19.65-.28.43-.2.65-.29.44-.17.67-.24.46-.13.69-.18.47-.06.71-.1.46-.15.69-.18.48,0,.72-.02.47-.04.71-.04.48-.07.71-.06.48.03.71.05.47.1.7.13.47.09.7.14.45.14.68.21.46.12.68.2.45.15.67.25.43.21.63.33.43.27.62.41c-.2.19-.46.35-.66.53-.21.2-.37.42-.56.6-.22.2-.42.4-.59.56-.25-.02-.51,0-.75-.01s-.49-.07-.74-.08-.49,0-.74-.01-.49-.03-.74-.05-.48-.02-.73-.04-.49-.05-.74-.06-.45-.05-.71-.06c.15.19.24.37.4.54.17.18.33.35.5.49.19.15.43.22.62.33.2.12.4.24.61.33s.44.13.67.18.45.09.68.09.45-.04.69-.08.44-.08.67-.15.42-.16.64-.26c.21-.09.44-.14.65-.27.16-.09.32-.21.45-.35.16-.17.28-.38.44-.55s.35-.31.51-.48.31-.35.48-.52.29-.37.45-.54.38-.29.54-.46.29-.37.45-.54.32-.34.49-.51.38-.29.54-.46.35-.32.51-.49.26-.4.42-.57.32-.34.48-.52.38-.29.54-.46.3-.36.46-.53.3-.36.46-.53.3-.36.45-.54.26-.4.41-.58.3-.36.45-.54.37-.3.52-.49.29-.37.43-.56c.14-.19.19-.43.29-.65s.24-.4.31-.63.16-.44.21-.67.02-.47.05-.71.09-.46.11-.69.05-.47.06-.7,0-.47,0-.71.01-.47.02-.7.04-.47.05-.7c0-.24.07-.47.08-.71s.02-.47.03-.71.01-.47.03-.71-.04-.48-.02-.71.08-.47.11-.7.09-.46.14-.69.18-.44.24-.67.06-.47.14-.7.21-.42.31-.64.16-.45.28-.66.31-.36.44-.56c.13-.19.22-.41.37-.58s.32-.33.48-.49.38-.26.56-.4.31-.35.5-.47.39-.25.59-.36.44-.15.64-.24.41-.18.63-.27.42-.18.63-.25.44-.1.66-.17c.24-.07.46-.14.67-.15.24,0,.46.03.68.1s.41.2.6.33.41.22.58.38.3.35.45.53.28.36.42.54c-.12.3-.23.52-.37.67-.2.22-.44.28-.68.3s-.49,0-.75-.07c-.25-.06-.51-.12-.76-.16s-.54-.1-.79-.03c-.17.16-.26.41-.35.65-.08.21-.15.43-.17.69-.02.22.02.46.03.71.01.22-.02.47.01.71.03.23.12.45.17.7.04.23.08.46.13.7.05.23.1.46.16.69s.15.45.21.68.1.46.16.7.14.45.2.69.09.47.15.7.11.46.17.69.07.47.13.7.15.45.21.69.08.47.13.71.1.47.15.7.12.47.16.7.06.48.1.71.12.47.15.71,0,.48.02.72.07.48.08.71.06.48.06.72-.03.48-.04.72-.04.48-.07.72-.08.47-.13.71-.1.47-.17.7-.15.46-.24.68-.22.43-.34.63-.31.4-.45.59c.21.13.43.3.63.44s.44.24.64.39.39.3.59.46.34.37.53.53.39.3.59.45.44.24.65.38.41.29.62.42.43.25.65.36.43.25.66.34.47.15.71.22.48.11.73.15.49.1.74.11c.24,0,.49-.02.75-.04.21-.02.44,0,.66.13.18.11.34.28.52.45.16.15.33.33.48.51-.22.08-.48.12-.71.19s-.44.19-.67.26-.45.15-.68.22-.47.09-.7.15-.45.16-.68.22-.47.1-.7.16-.47.08-.7.14-.46.14-.69.2-.46.13-.69.2-.46.13-.68.21-.43.21-.65.3-.44.17-.66.27-.45.16-.66.27-.42.23-.62.35-.35.33-.55.47-.42.24-.61.39c.14.21.32.39.46.59s.3.39.45.6.22.45.34.66.3.4.4.63c.09.2.18.4.26.6s.11.42.18.63.13.42.18.63.11.42.14.64.09.43.09.65c0,.23-.06.46-.08.7s-.01.46-.04.69-.07.45-.11.68-.05.45-.09.69c-.03.22,0,.46-.04.7-.03.22-.07.45-.11.69-.03.22-.11.45-.14.69-.03.22-.07.45-.11.69-.09.23-.19.45-.3.68s-.27.41-.4.62-.22.44-.37.65-.34.36-.49.56-.25.43-.41.62-.38.32-.55.51-.31.38-.47.57-.35.35-.51.54-.32.38-.48.57-.27.42-.43.61-.33.38-.47.58-.27.42-.41.62-.28.41-.41.63-.3.44-.42.66c.25.06.54.07.77.13.25.06.48.16.7.22.25.06.5.08.72.13.25.06.48.14.71.19s.45.14.68.19c-.01.27-.07.49-.11.72-.05.26-.1.5-.18.72-.1.25-.17.5-.31.69-.15.21-.38.33-.58.47s-.39.31-.64.39c-.23.08-.48.12-.74.15-.27.03-.51-.05-.72-.1-.25-.06-.46-.16-.64-.31s-.33-.34-.46-.56-.24-.42-.34-.65-.21-.45-.28-.68c-.07-.22-.1-.46-.17-.68s-.2-.43-.27-.65-.13-.45-.2-.68-.12-.45-.18-.68-.08-.46-.13-.69-.11-.46-.16-.68-.11-.46-.15-.69-.04-.47-.07-.7-.12-.46-.13-.69-.05-.47-.06-.7.08-.47.09-.7-.06-.47-.04-.71.07-.46.11-.7c.03-.25.07-.49.08-.73s-.02-.49-.04-.74-.02-.49-.06-.73-.07-.49-.14-.73-.18-.46-.28-.69-.25-.42-.37-.64-.17-.46-.31-.67-.31-.4-.47-.59c-.22.08-.47.15-.69.23s-.41.26-.63.34-.47.08-.7.17-.43.21-.65.29-.44.2-.66.27-.48.07-.71.13c-.24.07-.46.18-.69.22-.25.04-.49.08-.72.09-.25,0-.5-.01-.73-.05-.24-.04-.45-.19-.67-.27s-.47-.14-.67-.28-.31-.37-.47-.55-.37-.32-.49-.53c-.13-.23-.18-.48-.25-.71-.08-.24-.11-.48-.12-.73s-.09-.5-.05-.75.1-.49.19-.73c.08-.23.24-.43.37-.66.12-.21.22-.45.37-.65.15-.19.37-.34.54-.53.17-.18.34-.35.51-.52s.33-.36.49-.54.34-.35.51-.52.29-.4.46-.57.4-.29.57-.46.35-.34.52-.51.3-.39.47-.56.4-.29.57-.46.31-.38.49-.54.36-.33.54-.5.38-.31.56-.47.36-.33.54-.5.36-.33.54-.49.31-.38.5-.54.39-.29.58-.45.39-.29.57-.45.36-.33.54-.49.35-.34.53-.5.39-.29.58-.45.35-.34.54-.49.37-.31.56-.47.37-.31.56-.47.34-.35.53-.5.41-.27.6-.43.35-.34.54-.49.4-.28.59-.44c.19-.15.4-.28.58-.44s.32-.38.45-.57.23-.42.28-.67c.04-.22.08-.46.03-.72-.04-.21-.15-.41-.26-.66-.2-.02-.39-.1-.64-.12-.2-.02-.42-.04-.67-.06-.2-.02-.43.02-.67,0-.21-.02-.47-.08-.71-.1ZM775.06,35.86c.21.16.46.26.66.37.23.13.45.19.67.26.24.08.46.16.69.18.25.02.49.02.72-.03s.46-.14.68-.24.45-.18.66-.31.35-.33.54-.49c.18-.15.41-.24.59-.39s.36-.3.54-.45.37-.29.55-.44.31-.36.49-.51.38-.27.56-.42.38-.27.56-.42.32-.35.5-.5.33-.33.51-.48.36-.3.54-.45.35-.3.53-.45.41-.24.59-.39.36-.29.54-.44.36-.3.53-.45.37-.29.54-.44.34-.33.51-.48.36-.3.54-.45.35-.33.53-.48c-.15-.17-.3-.34-.45-.51s-.31-.33-.47-.5-.31-.33-.47-.5-.31-.34-.46-.51-.3-.38-.45-.54c-.18.13-.38.26-.54.38-.18.13-.29.34-.45.46-.18.13-.37.22-.53.34-.18.13-.3.25-.46.37.11.23.17.42.26.61.11.23.21.43.3.62.1.21.2.42.31.63-.2.14-.42.24-.61.37-.2.14-.35.32-.54.44-.2.14-.41.23-.6.35-.2.14-.37.26-.55.39-.23-.13-.43-.26-.63-.37-.23-.13-.44-.24-.64-.35s-.44-.22-.66-.34c-.17.18-.31.38-.47.55-.17.18-.34.34-.5.51s-.38.29-.55.46-.33.38-.49.55c.14.26.28.51.41.75s.27.48.4.73.26.47.4.72c-.2.15-.39.28-.57.42-.2.15-.36.32-.55.46-.2.15-.41.23-.6.36-.26-.13-.49-.22-.72-.34-.25-.12-.48-.24-.72-.36s-.48-.21-.73-.34c-.12.18-.23.35-.34.52s-.26.33-.38.5-.21.36-.33.54c-.11.17-.29.34-.42.52ZM786.79,33.63c-.22.14-.46.33-.67.46-.23.13-.43.29-.64.42-.22.14-.45.25-.65.4s-.4.32-.56.51-.28.41-.4.65c-.1.21-.22.48-.29.74.26,0,.54-.05.77-.05.25,0,.5.07.74.07s.49,0,.74,0,.52,0,.77,0c.02-.27-.03-.56-.02-.82s.07-.51.09-.78.07-.51.09-.78c.02-.25,0-.55.03-.82Z"/>
  <path class="b" d="M19.28,15.75c.2-.1.4-.21.6-.32s.4-.23.6-.34.41-.22.61-.3.43-.15.65-.2c.23-.04.47-.07.7-.09s.47-.02.7-.02.47.01.7.05.47.08.69.15.44.16.65.26.41.23.6.37.36.29.53.46.3.35.44.55c.13.19.26.39.36.59s.18.42.25.64.13.44.16.67.05.45.06.68,0,.45-.03.69-.07.45-.13.68c-.05.22-.12.43-.2.66s-.15.43-.25.65c-.09.2-.19.42-.3.63-.21-.17-.41-.34-.61-.51s-.41-.34-.6-.5-.4-.35-.6-.51-.4-.34-.6-.51-.39-.34-.59-.51c-.19-.16-.37-.33-.56-.49s-.37-.32-.56-.49-.37-.33-.55-.49-.37-.33-.56-.49-.37-.33-.55-.5-.37-.33-.55-.49-.37-.33-.55-.49-.37-.33-.55-.49c-.02-.02,0,.04.03.03Z"/>
  <path class="b" d="M777.5,17.9c-.15.18-.28.37-.39.56s-.22.4-.32.61-.2.42-.3.62-.21.41-.34.6-.28.36-.45.52-.35.27-.58.37c-.19.08-.42.15-.67.18-.11-.22-.21-.44-.29-.66-.09-.23-.18-.45-.25-.67-.08-.23-.14-.46-.19-.69-.06-.24-.11-.47-.14-.7-.03-.25-.05-.48-.04-.71,0-.25.03-.48.08-.71.05-.24.12-.46.21-.68s.21-.42.36-.61.31-.35.49-.51c.18-.16.36-.3.55-.41.2-.13.41-.22.61-.31.22-.09.43-.15.65-.2s.45-.07.68-.08.45,0,.68.02.45.07.67.13.43.12.65.2.43.15.64.24.42.18.63.29c0,.27-.04.51-.1.72-.07.25-.18.47-.31.64-.15.2-.34.34-.54.47s-.42.22-.65.31-.45.16-.68.23-.46.15-.67.24Z"/>
  <path class="b" d="M120.79,3.83c-.08.17-.15.38-.22.6-.07.2-.14.41-.21.61-.08.21-.15.42-.24.59-.12.23-.27.39-.44.44-.23.06-.46.09-.71.1s-.47,0-.72-.02-.47-.05-.71-.08-.47-.07-.71-.1-.47-.07-.71-.09c-.03-.3-.06-.56-.09-.8-.03-.31-.07-.57-.09-.81-.03-.32-.06-.58-.08-.8.12-.23.25-.43.41-.59.17-.18.37-.31.59-.4s.45-.13.7-.13c.22,0,.46.04.71.11.21.06.44.15.67.25.2.09.41.2.64.33.2.11.4.24.61.39.19.13.39.27.59.42Z"/>
  <path class="b" d="M282.55,5.05c0-.26,0-.52,0-.78s0-.52,0-.78,0-.53,0-.79c.21-.11.41-.21.62-.29.22-.09.44-.16.66-.2.24-.05.47-.07.68-.05.23.02.45.08.65.19.18.11.35.26.5.46.16.22.24.49.29.78.04.27.05.56.05.84,0,.31,0,.6.02.83-.18.17-.36.31-.53.42-.21.14-.41.24-.6.31-.23.08-.45.11-.66.1-.23-.01-.44-.08-.64-.18-.19-.1-.37-.23-.55-.38-.16-.14-.32-.3-.49-.46Z"/>
  <path class="b" d="M680.87,2.14c.24.03.47.07.7.1.24.03.47.07.69.1.24.03.47.06.7.09s.46.07.69.1.46.06.69.09c-.02.24-.04.46-.06.68-.02.24-.04.46-.05.68-.02.24-.03.46-.05.67-.02.24-.04.46-.05.67-.19.16-.37.29-.55.39-.22.13-.42.22-.62.26-.23.05-.46.05-.67.01s-.42-.13-.62-.26c-.18-.11-.35-.25-.53-.41-.16-.14-.31-.31-.47-.48.02-.2.03-.42.05-.67.02-.2.03-.42.05-.67.02-.21.03-.43.05-.67.02-.21.04-.43.05-.67Z"/>
  <path class="b" d="M132.51,6.56c.23.05.46.1.68.15s.46.09.68.14.45.1.68.15.45.1.68.15.45.1.68.15c.22.05.45.09.69.14-.07.24-.15.46-.21.66-.07.24-.14.46-.2.66-.07.23-.15.45-.21.66-.07.23-.14.44-.21.65-.26-.04-.49-.08-.71-.12-.26-.05-.5-.09-.71-.13-.27-.06-.5-.12-.69-.19-.27-.09-.47-.2-.63-.34-.17-.15-.28-.35-.36-.61-.06-.19-.09-.43-.11-.7-.02-.21-.03-.44-.03-.71,0-.22-.01-.46-.02-.72Z"/>
  <path class="b" d="M517.4,2.18c.02.24.04.47.05.68.02.25.03.48.04.69,0,.25,0,.48-.01.68-.02.27-.06.49-.12.67-.08.25-.2.43-.38.55-.17.11-.38.17-.64.19-.2.02-.42,0-.68-.01-.2-.02-.43-.05-.67-.09-.21-.03-.43-.07-.67-.11.02-.25.02-.54,0-.83s-.02-.57,0-.83c.03-.31.11-.58.28-.76.16-.17.38-.28.63-.37.21-.07.45-.13.71-.18.23-.04.48-.08.73-.13.24-.04.48-.09.73-.16Z"/>
  <path class="b" d="M96.69,38.82c.2.13.4.26.59.38.2.13.4.26.59.38.2.13.4.26.59.38s.4.25.6.38.39.25.58.38.39.24.59.37.38.25.59.38c-.21.13-.4.24-.58.34-.21.12-.39.24-.57.35-.2.12-.39.23-.57.34s-.38.22-.57.34c-.23-.1-.45-.21-.68-.31s-.45-.2-.69-.3c-.22-.1-.45-.21-.69-.32-.22-.1-.45-.2-.69-.31.08-.24.16-.46.23-.69s.15-.45.23-.69c.07-.21.14-.45.22-.7.07-.21.15-.45.23-.7Z"/>
  <path class="b" d="M266.36,6.85c.24,0,.47,0,.68,0,.23,0,.46,0,.67,0s.44,0,.67,0,.44,0,.67,0c.21,0,.44,0,.68,0-.07.22-.13.44-.18.64-.06.22-.11.44-.16.65-.06.23-.12.44-.2.64-.09.22-.2.41-.36.55-.12.12-.37.18-.65.19-.22,0-.46-.02-.69-.07-.26-.06-.49-.16-.61-.29-.17-.17-.26-.42-.32-.72-.05-.24-.07-.51-.1-.79-.03-.26-.06-.52-.11-.79Z"/>
  <path class="b" d="M142.78,31.13c.24.12.47.25.68.36.24.12.46.23.68.34.23.12.46.24.67.35s.45.23.67.35.44.23.67.35c-.13.25-.24.48-.35.69-.12.24-.24.46-.36.68s-.23.45-.35.69c-.24-.09-.46-.18-.68-.27-.23-.09-.45-.18-.68-.27s-.45-.18-.68-.27-.44-.17-.68-.27c.03-.23.07-.45.1-.68.03-.21.06-.43.1-.68.03-.21.07-.43.1-.68.03-.21.06-.44.1-.69Z"/>
  <path class="b" d="M665.15,6.81c.21,0,.42,0,.63,0s.41,0,.63,0c.2,0,.41,0,.64,0,.2,0,.41,0,.64,0-.01.23,0,.47,0,.69.01.24.03.48.02.69-.01.26-.06.49-.19.65-.12.15-.31.29-.54.41-.2.1-.42.18-.64.23-.25.05-.49.06-.67,0-.24-.07-.43-.17-.59-.29-.19-.14-.33-.31-.4-.51s-.09-.41-.05-.65c.03-.19.09-.4.19-.63.08-.18.19-.38.32-.58Z"/>
  <path class="b" d="M305.54,42.33c-.25-.08-.49-.17-.75-.26s-.49-.17-.75-.25c-.24-.08-.49-.16-.75-.24-.24-.08-.49-.17-.75-.26-.24-.08-.49-.16-.75-.25.2-.13.38-.25.55-.37.2-.13.38-.25.56-.37.19-.13.37-.25.55-.37s.37-.24.56-.36.36-.25.55-.37c.18-.12.36-.24.56-.37.1.24.2.46.29.67.1.23.19.46.28.67.1.23.19.45.28.66.1.22.19.44.28.66-.12.14-.23.28-.35.41s-.24.27-.36.41Z"/>
  <path class="b" d="M700.35,40.89c.22-.15.42-.29.61-.42.22-.15.42-.29.61-.42.21-.15.41-.29.61-.42.21-.14.41-.28.61-.41.26.1.5.21.71.34.25.15.46.32.61.51.17.22.25.47.23.74-.02.23-.12.46-.31.71-.17.22-.34.38-.51.49-.22.14-.45.2-.67.19s-.45-.07-.68-.18c-.2-.09-.4-.22-.61-.35-.19-.12-.39-.25-.6-.39-.19-.13-.39-.26-.6-.39Z"/>
  <path class="b" d="M258.76,34.55c-.18-.13-.36-.25-.54-.38s-.36-.25-.55-.38-.36-.26-.54-.38-.36-.26-.54-.38c.05-.28.11-.56.16-.84.23-.06.48-.15.73-.24s.5-.18.73-.24c.3-.07.56-.09.74.02.19.12.31.36.4.64.07.23.12.49.18.76s.11.52.18.76c-.16.11-.32.22-.48.33s-.31.22-.47.33Z"/>
  <path class="b" d="M531.61,9.72c-.1-.24-.2-.49-.29-.73s-.2-.49-.29-.73-.19-.49-.29-.73c.25-.1.49-.2.74-.3s.5-.19.75-.29.5-.2.74-.29c.18.19.37.37.55.55-.07.2-.13.41-.2.61s-.13.41-.2.61-.14.41-.2.61-.13.41-.2.61c-.18.01-.37.03-.56.04s-.37.03-.55.04Z"/>
  <path class="b" d="M497.49,41.26c-.21.1-.42.2-.64.31-.2.1-.41.19-.63.3-.2.1-.41.2-.64.31-.2.1-.41.2-.64.31-.06-.22-.11-.43-.16-.63-.06-.22-.11-.43-.16-.63-.05-.22-.11-.42-.16-.62-.05-.21-.1-.42-.15-.62.17-.17.35-.34.52-.5.23.08.46.17.69.25s.46.17.69.25.46.16.69.25.46.17.69.25c-.03.26-.05.52-.08.78Z"/>
  <path class="b" d="M66.77,34c-.19-.12-.38-.24-.56-.35-.19-.12-.38-.24-.56-.35s-.37-.23-.56-.35-.37-.23-.56-.35-.37-.23-.56-.35c.14-.19.26-.35.38-.5.13-.17.25-.33.37-.49s.24-.31.37-.49c.23.1.45.2.67.3s.44.19.67.3c.22.1.44.19.68.3.21.1.44.2.68.31-.12.24-.23.46-.34.68-.12.23-.23.44-.35.67-.11.21-.22.43-.34.67Z"/>
  <path class="b" d="M656.43,30.83c.17.26.33.48.48.69.19.26.36.47.5.67.19.28.31.51.32.75,0,.2-.15.49-.35.75-.23.3-.51.54-.64.51-.18-.05-.39-.13-.59-.24s-.37-.23-.52-.37c-.17-.16-.3-.35-.34-.52-.04-.17.02-.37.14-.6.08-.16.2-.33.32-.53.1-.16.22-.34.34-.53.1-.17.21-.35.32-.55Z"/>
  <path class="b" d="M540.8,32.17c.22-.12.44-.22.64-.29.25-.09.48-.13.69-.1.23.03.43.13.57.36.1.16.18.38.22.66.03.19-.13.5-.34.77s-.49.5-.68.5c-.27,0-.49-.04-.67-.11-.24-.1-.39-.25-.47-.46-.08-.19-.1-.42-.08-.66.01-.21.06-.44.12-.67Z"/>
  <path class="b" d="M735.97,31.94c-.21.2-.38.36-.53.49-.25.22-.43.34-.61.37-.2.03-.39-.04-.67-.22-.16-.1-.35-.24-.59-.42.1-.23.19-.44.3-.62.14-.23.29-.4.46-.5.19-.12.41-.14.65-.03.17.07.35.21.55.4.14.14.29.31.45.52Z"/>
  <path class="b" d="M336.39,30.73c.2.21.37.39.51.54.22.25.35.44.39.62.05.21-.02.41-.2.69-.1.17-.25.36-.42.6-.24-.09-.45-.19-.62-.29-.23-.14-.4-.29-.49-.46-.11-.19-.12-.41-.03-.65.07-.17.19-.36.37-.56.13-.15.29-.31.48-.48Z"/>
  <path class="b" d="M464.88,32.04c-.14.21-.28.39-.41.53-.18.2-.35.33-.52.41-.22.11-.43.11-.64.02-.17-.08-.34-.22-.51-.42-.12-.15-.25-.34-.37-.55.13-.22.25-.41.37-.57.17-.21.34-.35.51-.43.21-.09.42-.08.65.04.16.09.34.23.51.43.13.15.26.33.4.55Z"/>
</svg>