<?xml version="1.0" encoding="UTF-8"?>
<svg id="a" data-name="Layer 1" xmlns="http://www.w3.org/2000/svg" viewBox="0 0 600 42.04">
  <defs>
    <style>
      .b {
        fill: #242424;
      }
    </style>
  </defs>
  <path class="b" d="M57.9,16.28c.23-.03.54-.11.77-.13s.48.05.71.03.46-.1.7-.12.47.01.71,0,.47-.03.71-.04.47-.05.71-.05.47,0,.71,0,.47-.08.71-.07.47.05.71.08.46.14.69.17.48-.03.71.02.47.05.7.11.43.22.66.28.45.12.68.19.46.11.68.2.42.2.64.3c.23-.08.48-.09.73-.18.23-.08.43-.26.68-.34.23-.08.46-.18.71-.27.23-.08.47-.15.72-.24.23-.08.49-.05.74-.13.16.09.38.19.64.34.21.12.43.24.65.36-.02.26,0,.48-.06.69-.07.24-.26.4-.39.58-.13.2-.24.4-.41.55s-.38.26-.58.38-.39.24-.6.35-.36.24-.58.34c.06.21.03.41.09.62s.14.42.2.63.09.43.14.64.21.4.27.61.05.44.1.65c.06.23.11.46.13.69s.05.47.04.7,0,.48-.03.71-.09.47-.15.69-.28.39-.37.61-.08.48-.2.69c-.12.2-.31.34-.44.51-.14.18-.28.36-.45.5s-.34.31-.54.41-.45.08-.66.14-.42.11-.65.12c-.22,0-.43,0-.66-.04-.25-.04-.51-.05-.77-.11s-.5-.13-.73-.24-.51-.16-.71-.34c-.18-.16-.24-.44-.37-.69-.11-.21-.23-.43-.29-.71.2-.1.41-.15.6-.25s.39-.18.59-.27c.19-.09.37-.2.58-.3.19-.09.4-.2.61-.31-.05-.24-.08-.52-.13-.78s-.16-.48-.21-.73-.16-.48-.22-.73-.06-.51-.11-.76c-.15-.02-.28-.04-.43-.06-.04.25-.03.5-.1.73s-.2.46-.29.68-.24.43-.36.64-.19.46-.35.65-.3.39-.49.56-.45.2-.66.33-.39.28-.62.38c-.24.1-.5.19-.78.21-.26.02-.54,0-.81-.02s-.56-.04-.81-.11c-.25-.07-.48-.13-.68-.2-.25-.09-.46-.2-.65-.3-.24-.13-.43-.27-.56-.44-.14-.18-.17-.41-.2-.67-.02-.2.04-.42.08-.69.03-.21-.01-.47.05-.72.21.05.43.13.65.19.2.05.42.08.65.14.2.05.44.18.67.24.04-.21.14-.47.2-.68.07-.25.11-.51.03-.68-.1-.22-.23-.41-.34-.6-.12-.21-.28-.38-.4-.56-.13-.2-.29-.36-.44-.52-.16-.17-.26-.4-.45-.53s-.43-.15-.65-.23c-.2-.07-.41-.16-.66-.18-.21-.02-.44.02-.68.04-.21.01-.44.04-.68.08-.21.03-.43.04-.67.1.01.24-.06.48-.05.73s.01.49-.02.73-.11.45-.24.67c-.11.2-.22.41-.44.57-.18.13-.38.3-.64.4-.2-.05-.45-.21-.73-.27-.24-.06-.5-.08-.74-.13-.11-.22-.18-.43-.28-.62-.12-.22-.35-.34-.48-.5-.15-.2-.3-.34-.46-.47-.18-.14-.32-.33-.54-.41-.2-.07-.43-.1-.67-.12-.21-.02-.43.02-.68.03-.21,0-.44,0-.68.03-.21.02-.43.1-.68.13-.23.03-.47.03-.7.07s-.47.07-.7.1-.47.07-.7.1-.47.03-.7.06-.46.09-.7.12-.47.08-.7.1-.47.07-.7.09-.48-.02-.71,0-.48-.03-.71,0-.47.07-.7.09-.46.14-.69.16c-.26.02-.51.04-.73.02-.26-.02-.48-.15-.7-.22-.24-.08-.44-.18-.62-.34s-.29-.35-.42-.57c-.11-.19-.2-.4-.28-.65-.07-.21-.19-.43-.24-.69.21-.03.42-.13.63-.17s.44.02.66-.02.42-.12.63-.15.43-.09.65-.1c.24,0,.47,0,.71,0s.47.1.71.1.47-.03.71-.03.47-.07.71-.07.47.03.71.02.48.07.71.05.46-.16.69-.19.48.05.71,0,.46-.09.69-.15.44-.17.66-.25.46-.1.68-.2c.21-.09.41-.19.62-.27s.42-.17.63-.25.41-.18.62-.27.41-.17.61-.28c.21-.12.45-.18.66-.3s.4-.27.6-.39.38-.31.58-.43.47-.14.68-.26.42-.23.62-.36.41-.25.61-.38.38-.3.58-.42.37-.31.58-.43.44-.2.64-.33.38-.29.59-.42.4-.25.6-.39.39-.28.58-.41c.2-.14.4-.28.61-.43s.43-.24.64-.38.4-.28.6-.42.4-.28.6-.43.34-.36.54-.51.48-.18.68-.32.33-.38.53-.53.4-.29.6-.44.41-.27.61-.41.43-.24.63-.39.38-.32.58-.47.37-.33.57-.48.42-.26.63-.41.37-.37.57-.52c.16.12.37.32.63.51.19.14.46.21.7.38.2.14.38.35.61.51.23-.05.47-.12.7-.17s.49-.03.72-.09.46-.15.7-.2.46-.16.7-.21.47-.13.71-.19.48-.07.72-.12.48-.05.72-.1.47-.11.71-.16.48-.06.72-.11.42-.2.67-.25c-.14-.17-.25-.29-.37-.43-.13-.17-.24-.34-.37-.49s-.23-.32-.36-.47c.24-.12.43-.29.64-.37.25-.1.5-.14.73-.19.26-.06.51-.11.74-.1.25,0,.47.15.7.25.21.08.4.22.62.38.18.13.44.2.64.39.16.16.27.39.44.59.15.17.33.35.5.55.15.18.32.35.48.56.23.07.45.18.68.24s.48.09.71.15.47.11.71.16.47.12.71.17.47.12.71.16.48.09.72.12.48.12.72.14.49-.08.73-.07.49.12.73.11.48-.1.72-.12.47-.09.71-.13.49,0,.73-.05.44-.21.68-.29.47-.13.7-.22c.27.14.52.26.75.41.17.11.35.26.6.48-.08.25-.23.51-.31.79-.07.24-.11.51-.2.8.23-.03.47-.05.7-.03s.46.11.7.15.48.03.71.07.46.11.69.1.47,0,.7-.09c.2-.08.38-.23.57-.4.15-.14.36-.3.5-.53-.11-.26-.26-.53-.37-.81-.11-.26-.25-.54-.36-.81.26-.02.53.02.77.04.26.02.5.07.74.13.25.07.48.16.69.28.23.12.47.22.65.38s.32.39.45.6.21.44.28.69c.07.23.18.47.2.72.02.24-.06.49-.09.75-.03.24-.05.49-.12.74-.07.23-.12.46-.23.69.23.13.42.27.64.37.24.1.5.11.74.17.25.06.49.14.74.16s.51,0,.75-.03.48-.13.72-.22.49-.11.72-.24c.21-.12.42-.26.63-.42.19-.15.43-.33.62-.52-.18-.16-.46-.27-.64-.43s-.32-.35-.5-.51-.39-.34-.57-.5c.17-.19.45-.29.64-.43s.4-.28.62-.37.46-.13.7-.17.48-.11.72-.09.5,0,.74.07.45.19.67.31.45.21.64.38c.19.17.27.41.4.6.14.2.35.36.43.59s.07.48.08.72c.01.23.02.47-.02.72-.04.22-.05.48-.13.72-.07.22-.27.4-.38.62-.1.2-.2.42-.33.63-.12.2-.23.41-.38.61-.14.19-.29.39-.45.58.26,0,.51-.06.74-.07.26-.02.51.01.73-.04.25-.06.45-.22.66-.31.23-.1.49-.14.67-.3s.32-.36.47-.56c.13-.19.24-.41.34-.64.09-.21.22-.43.28-.68.06-.22.03-.48.06-.74.04-.26.12-.5.16-.71.05-.27.05-.51.12-.72.08-.25.18-.48.3-.67s.33-.33.53-.5c.17-.15.36-.27.59-.41.19-.11.36-.29.6-.41.2-.1.42-.23.66-.35.19.07.46.18.69.32.23.14.45.33.66.52,0,.24-.02.46-.03.66,0,.22.03.46,0,.68s-.15.45-.16.67c0,.23.04.46.11.67.07.24.18.47.23.71.05.25.01.5.04.74.03.25.06.49.06.73,0,.25-.08.48-.12.72s-.02.5-.1.73-.23.43-.35.64-.22.43-.37.63-.24.43-.43.61c-.17.16-.4.28-.6.43-.19.14-.38.31-.6.44-.2.12-.48.13-.71.24-.22.1-.39.31-.61.4s-.46.15-.68.24-.45.19-.67.26-.48.09-.71.15-.45.18-.69.23-.48.05-.72.09-.48.06-.71.09-.47.16-.71.18-.49-.07-.73-.06-.48.12-.72.11-.48-.11-.72-.12-.48-.05-.72-.07-.47-.06-.71-.09-.48-.01-.72-.05-.48-.05-.72-.1-.46-.16-.69-.21c-.23-.06-.45-.16-.74-.23-.21-.06-.48-.06-.78-.14.09.23.22.45.32.67s.13.48.23.69c.11.22.24.43.36.63s.31.37.46.56.31.36.48.53.35.32.55.45.41.22.64.31c.21.08.44.14.69.2.26.06.5.21.75.28s.56.04.8.15.41.34.61.53c.18.17.37.37.51.63-.18.2-.38.37-.57.52-.2.16-.41.31-.63.43s-.44.29-.67.37-.52.03-.77.09-.48.19-.73.23-.46.07-.71.09c.03.24-.02.43.01.64.04.24.15.45.2.66.06.24.07.47.15.67.09.23.21.43.33.6.14.19.34.29.54.4s.36.28.6.32c.2.04.44-.01.68-.02.21,0,.41,0,.65-.04-.02-.21-.03-.4-.05-.61s-.06-.43-.08-.64.05-.39.03-.61c.25-.02.43.01.66.04.24.03.5-.05.72.02.23.08.44.21.64.34s.36.31.52.49.34.35.45.56.11.46.18.69c.06.22.17.44.19.69.02.26-.04.51-.07.74-.03.26-.14.46-.25.68s-.2.43-.39.61c-.17.15-.35.31-.59.44-.2.11-.45.13-.7.22-.21.08-.43.2-.69.27-.22.06-.45.16-.71.22-.23.05-.48.03-.74.07-.23.04-.46.17-.72.2-.24.03-.47,0-.72.03.21.15.35.33.52.48.21.17.45.26.62.39.23.17.4.32.61.34.26.02.51,0,.76-.02.26-.02.5-.09.73-.16.25-.07.5-.11.71-.24s.36-.34.53-.52c.16-.18.3-.37.42-.6.11-.21.31-.35.38-.6.24.08.4.13.58.24.22.13.35.3.48.47.14.19.3.35.36.57s.08.45.07.69c-.01.22-.14.43-.2.66-.06.25-.1.49-.18.71-.09.24-.14.48-.25.69-.12.22-.3.39-.45.58-.15.2-.3.38-.48.54s-.37.3-.58.43-.4.27-.64.35-.46.13-.71.17c-.23.04-.47.09-.72.1-.24,0-.48-.01-.74-.04-.24-.03-.49,0-.74-.06-.25-.05-.5-.11-.73-.18-.24-.07-.46-.21-.69-.3s-.42-.28-.63-.39-.43-.24-.63-.38-.45-.22-.64-.38-.38-.33-.55-.5-.27-.42-.42-.62-.36-.34-.5-.55-.22-.45-.35-.66-.26-.42-.38-.63-.3-.4-.41-.62-.26-.43-.36-.65-.13-.49-.23-.71c-.09-.21-.17-.42-.25-.63s-.22-.4-.29-.62-.14-.43-.21-.65c-.07-.21-.18-.41-.25-.64-.07-.21-.07-.48-.15-.7-.12.21-.29.43-.41.63s-.22.43-.33.64-.17.46-.28.66-.32.38-.43.58-.11.49-.23.7-.32.37-.43.58-.26.42-.38.63c.08.13.22.2.3.33.25-.07.47-.15.71-.2.26-.05.54-.05.77-.03.25.02.49.14.69.31.17.14.25.35.37.63-.05.23-.04.45-.1.66-.06.23-.15.44-.23.64-.09.23-.18.43-.28.62-.12.21-.21.43-.35.59-.15.18-.39.26-.57.38-.19.13-.33.36-.55.42s-.46.04-.69.03c-.25,0-.49-.03-.71-.07-.24-.04-.5-.04-.71-.13s-.37-.31-.57-.45-.37-.27-.53-.45c-.15-.17-.29-.35-.42-.57-.12-.19-.3-.37-.4-.6-.09-.21-.08-.46-.16-.7-.07-.22-.11-.45-.17-.69-.05-.22-.16-.45-.21-.7-.25-.03-.5-.08-.74-.12s-.49-.06-.73-.11-.48-.13-.71-.19-.47-.13-.71-.2-.51-.04-.73-.12-.42-.27-.65-.36-.46-.17-.68-.27-.47-.16-.68-.28-.43-.25-.63-.38-.36-.34-.56-.49-.39-.29-.58-.45-.32-.37-.49-.54-.42-.28-.57-.47-.3-.39-.44-.59-.23-.43-.36-.64-.3-.39-.41-.61-.14-.47-.24-.7-.31-.4-.4-.63-.12-.47-.2-.71-.09-.48-.15-.72-.15-.46-.21-.7-.1-.49-.14-.73c-.17.07-.35.24-.55.33s-.41.09-.61.09c-.23,0-.47-.02-.69-.13-.21-.1-.41-.25-.62-.34.09-.23.23-.44.31-.64.1-.24.16-.46.25-.66.1-.24.12-.49.22-.68.13-.24.25-.45.38-.61.16-.2.38-.33.57-.44s.43-.07.69-.09c.21-.02.44-.12.7-.09.21.02.43.11.69.15.21.04.46.12.71.17.16-.19.36-.37.53-.54s.35-.35.52-.51.34-.37.53-.51.41-.27.62-.4.37-.35.58-.46.49-.13.71-.22.46-.19.69-.25.47-.17.71-.21.49-.08.74-.09.5,0,.74.03.49.1.72.16.49.11.71.2.46.19.67.32.42.26.62.41.35.35.52.52.29.39.44.58.29.39.42.6.2.4.31.63c-.2.18-.36.24-.54.29-.23.07-.41.06-.62,0s-.45-.06-.65-.17-.36-.27-.55-.37c-.23-.12-.46-.19-.65-.28-.25-.1-.45-.25-.65-.29-.25-.04-.5-.06-.72,0-.2.06-.34.3-.56.45-.17.12-.35.25-.54.44-.15.15-.36.28-.53.47.18.16.32.36.5.53s.34.34.49.52.37.33.5.53.15.46.24.68.18.43.21.68c.03.23.11.47.09.72-.02.23-.11.44-.17.69-.21,0-.39.03-.59.03s-.42.03-.62.03-.38.02-.59.02c-.16.2-.34.37-.42.61s-.15.5-.15.76.11.5.17.76.18.46.29.69.17.49.33.69.35.39.56.52c.2.13.42.21.64.3s.46.07.69.1.46.2.69.18.47-.07.7-.13.45-.15.66-.26.39-.26.57-.41c.19-.16.33-.37.51-.53s.42-.27.59-.45.26-.42.42-.61.38-.32.53-.52.16-.48.29-.69.3-.38.42-.6.18-.46.28-.68.31-.39.41-.62.15-.46.24-.7.1-.42.17-.65c-.24.03-.43,0-.66.03s-.48.08-.71.09c-.25,0-.48-.07-.7-.13s-.47-.1-.67-.26c-.17-.13-.28-.35-.43-.57.17-.2.29-.41.43-.61s.28-.43.4-.64.26-.44.35-.67.21-.47.27-.71.08-.51.09-.76-.06-.5-.09-.75-.07-.49-.14-.74c-.06-.24-.05-.51-.15-.75-.1-.22-.28-.42-.41-.65-.12-.21-.19-.46-.32-.66s-.32-.38-.46-.57-.31-.38-.47-.56-.3-.39-.48-.55-.38-.3-.58-.45-.44-.2-.66-.32-.41-.26-.64-.35-.43-.23-.67-.29-.47-.11-.72-.14c-.23-.04-.5-.03-.75-.04,0,.24-.02.5-.03.75s.03.49.01.73-.11.48-.14.72-.03.5-.11.72-.17.46-.29.67-.24.44-.42.61c-.17.16-.43.21-.67.32-.2.1-.43.14-.69.2-.22.05-.45.12-.71.14-.23.02-.46.05-.68.01s-.44-.15-.64-.24-.43-.18-.61-.32-.33-.32-.48-.5-.26-.38-.36-.58-.14-.4-.19-.62c.2,0,.37-.02.57-.02s.4-.01.6-.01.37,0,.58,0c-.1-.24-.24-.42-.34-.62-.11-.23-.23-.44-.34-.63-.14-.22-.19-.47-.34-.65-.17-.19-.32-.4-.51-.53s-.47-.12-.71-.2c-.21-.07-.43-.18-.68-.22-.22-.03-.46-.04-.72-.04-.23,0-.47-.05-.73-.03-.21.02-.41.04-.62.03s-.42.07-.63.05-.41-.15-.62-.16c-.21,0-.43.12-.65.12s-.43-.12-.65-.12c-.21,0-.48.01-.7.01-.05.25-.04.55-.09.8s-.13.49-.18.74-.02.53-.07.79c-.18.12-.42.19-.6.31s-.38.21-.56.33-.29.33-.47.46-.38.15-.56.27c-.27-.11-.53-.2-.81-.32-.26-.11-.51-.2-.82-.33.09-.21.09-.42.18-.63s.24-.38.33-.6c.08-.2.13-.41.22-.63-.23-.08-.45-.11-.67-.17s-.44-.19-.66-.24-.47-.03-.7-.06-.46-.13-.69-.14-.47-.04-.7-.05-.47.1-.7.12-.47-.01-.7.02-.46.09-.69.14-.47.06-.69.12-.43.19-.65.27-.49.03-.71.11-.43.19-.65.28-.43.2-.64.31-.37.31-.57.42-.39.26-.59.38-.42.21-.62.34-.46.28-.66.41Z"/>
  <path class="b" d="M262.83,18.96c0,.28.02.49.02.71,0,.26.01.5.01.74,0,.23.06.5.06.78-.23.02-.51.02-.75.05s-.47.07-.69.09-.47.09-.7.1-.46-.1-.7-.12c-.24-.02-.5.07-.75.04s-.48-.16-.72-.19-.5.04-.74,0-.49-.07-.73-.1-.48-.11-.73-.14-.49-.03-.74-.07-.48-.08-.73-.11-.48-.11-.73-.14-.49-.04-.74-.06-.49-.07-.73-.09-.49,0-.74-.03c-.23-.02-.46.01-.69.03s-.45.06-.69.09-.47.02-.69.06-.46.09-.68.13-.51.02-.73.05c-.07.23-.14.48-.2.68-.07.23-.15.43-.22.63-.07.22-.06.49-.13.69-.26,0-.51-.13-.71-.14-.26-.02-.5.02-.69-.04-.25-.07-.45-.18-.6-.34-.13-.15-.22-.36-.3-.62-.05-.19-.08-.42-.11-.68-.02-.2.02-.43,0-.69-.01-.21-.04-.48-.05-.73-.25-.04-.55.02-.78,0-.25-.02-.49-.13-.73-.11s-.5.05-.74.1-.47.17-.69.25-.47.15-.68.28-.41.27-.6.43c-.18.15-.37.32-.53.51-.15.18-.24.43-.38.64-.21.31-.39.51-.45.71-.08.24-.04.47.11.82.08.2.23.42.39.73.23-.13.48-.19.71-.32s.43-.35.66-.47c.14.2.31.39.41.56.12.22.13.46.17.64.05.24.01.43-.07.63-.08.18-.23.3-.42.46-.15.12-.32.24-.53.35-.22.12-.4.3-.62.36s-.48.08-.71.1-.47-.06-.71-.08-.49,0-.71-.07-.45-.18-.66-.29-.4-.26-.59-.41-.31-.36-.47-.54-.37-.31-.5-.51-.25-.41-.34-.64-.05-.48-.1-.72c-.06-.25-.17-.5-.19-.79-.01-.25.01-.5,0-.8-.23.15-.41.29-.59.46-.2.18-.37.36-.52.56-.16.21-.33.41-.43.64s-.21.48-.26.73-.05.51-.06.77.07.49.1.75c.2.11.39.2.59.3s.36.29.55.4.42.16.62.27.42.23.62.33c-.14.22-.28.48-.44.66-.17.19-.46.26-.65.4-.21.15-.4.3-.62.39-.24.1-.47.17-.71.21s-.5.07-.75.04-.52-.02-.75-.11-.44-.26-.65-.4c-.2-.14-.37-.33-.55-.51-.17-.18-.31-.38-.45-.6-.13-.2-.22-.41-.31-.61s-.21-.41-.28-.62-.21-.42-.25-.65,0-.47,0-.7,0-.46.01-.69-.05-.47-.02-.7.13-.44.18-.67c.05-.23.1-.46.16-.69s.15-.44.22-.67.18-.43.25-.67.13-.48.2-.71c-.21-.12-.46-.24-.69-.35s-.48-.16-.69-.29-.39-.32-.57-.48-.43-.29-.56-.51c-.11-.2-.2-.45-.25-.72-.04-.22.03-.46.04-.73.27-.07.5-.14.75-.12s.5.15.75.23.48.18.72.29.46.25.7.35.52.08.77.13.48.05.75.03c.22-.1.45-.17.67-.26s.48-.1.7-.18.43-.24.66-.3.49-.01.73-.07.46-.13.7-.17.46-.15.7-.18.48-.05.72-.07.48-.07.72-.08.48.13.72.13.48-.07.72-.06.48,0,.72.02.47.12.71.15.49-.05.73,0,.45.21.69.25.48.04.72.08.48.04.72.09.45.19.68.25.47.11.7.18.48.1.71.17c-.18-.15-.38-.3-.56-.44s-.41-.23-.6-.37-.32-.37-.51-.5-.45-.17-.65-.29-.4-.25-.6-.36-.42-.2-.63-.3-.39-.26-.61-.36-.45-.14-.67-.22-.41-.24-.63-.32-.47-.05-.7-.12-.42-.23-.65-.29-.45-.13-.68-.19-.45-.13-.68-.18-.46-.09-.7-.13-.47-.02-.7-.06c-.22.04-.47-.02-.74.04-.23.04-.45.23-.71.28-.23.05-.48.1-.73.15-.24.05-.5.02-.75.06s-.5.05-.75.09-.5.15-.75.2c.11.25.29.46.38.67.1.24.13.5.22.71.1.23.17.42.27.65-.27.03-.48.08-.71.07-.27-.01-.51-.07-.74-.14-.24-.08-.5-.14-.7-.29s-.31-.38-.48-.58c-.14-.18-.25-.4-.38-.64-.11-.2-.28-.4-.38-.64-.09-.22-.17-.44-.25-.7-.26-.02-.5-.01-.76-.04s-.5-.15-.75-.18-.52.01-.77-.01-.51-.04-.76-.06-.51-.13-.76-.14-.51.11-.77.12c-.25.01-.51-.08-.74-.03-.24.05-.46.19-.68.28s-.44.21-.64.34-.36.31-.55.47-.42.26-.58.44-.29.38-.44.58-.24.42-.38.63-.25.34-.37.55c.28,0,.49.06.74.06.27,0,.53-.03.79-.03s.52.02.79.02c-.11.23-.21.45-.33.64-.14.21-.26.43-.42.59-.17.18-.44.24-.63.36-.21.13-.38.32-.61.38s-.48.1-.72.08c-.23-.01-.46-.13-.7-.2-.24-.07-.49-.11-.68-.22-.21-.12-.34-.35-.51-.51s-.4-.28-.52-.49c-.12-.2-.19-.43-.26-.67-.07-.21-.15-.44-.19-.69-.03-.22-.02-.46-.03-.71,0-.23.04-.46.06-.71.01-.23,0-.46.04-.71-.26,0-.51,0-.75.02-.26.03-.49.14-.73.19s-.52.02-.75.1-.47.2-.69.3-.41.3-.62.43-.44.23-.64.38-.4.29-.59.47-.4.31-.57.49-.27.42-.43.62-.35.37-.48.58-.21.46-.33.68c-.13.22-.23.45-.33.67-.1.23-.15.47-.21.71-.07.24-.16.47-.2.71s-.05.49-.04.74.07.48.12.72.07.49.17.72.21.44.35.66c.13.2.24.43.4.63.15.18.32.33.51.51-.19.26-.27.5-.42.64-.2.19-.44.3-.75.27-.2-.02-.43-.14-.74-.25-.21-.07-.44-.17-.72-.28-.22-.09-.43-.13-.7-.24.03.25.05.43.1.67s.11.48.17.72.11.48.19.71.24.43.34.65.13.48.24.7.3.39.43.6.3.38.45.58.28.4.44.59.28.41.45.59.41.28.59.44.28.42.47.58.41.27.61.42c.2.15.38.33.59.41.23.09.48.13.71.15s.46-.12.7-.17.48-.02.7-.1.44-.18.65-.29.36-.33.56-.44c.22-.12.43-.23.6-.41s.27-.4.39-.62.21-.43.27-.67.09-.47.1-.72.08-.49.03-.74c-.03-.18-.04-.36-.09-.54-.04-.17-.13-.36-.18-.55-.24.08-.47.21-.69.28-.24.08-.46.11-.68.19-.17-.19-.33-.35-.44-.54-.13-.22-.15-.45-.2-.68s-.19-.46-.15-.71c.03-.22.14-.45.25-.68.09-.2.22-.41.37-.62.13-.18.3-.35.47-.54.15-.17.3-.36.48-.54.17-.16.3-.31.49-.47-.17-.21-.26-.39-.43-.53-.2-.17-.41-.31-.61-.4-.23-.11-.47-.21-.7-.23s-.49.04-.73.08-.47.11-.7.2-.46.16-.68.26-.41.27-.63.37-.44.22-.66.31-.44.09-.67.14c-.02-.28-.1-.5-.08-.74.02-.27.13-.52.22-.75.09-.24.21-.47.37-.67.15-.19.31-.4.53-.57.19-.14.4-.3.64-.44.21-.11.47-.17.73-.28.21-.09.43-.19.65-.24s.45-.13.68-.15.47,0,.7.02.46.03.7.07.42.2.65.27.43.13.65.23.45.13.65.24.35.3.55.43.38.25.57.4.43.2.61.36.32.34.49.5.26.43.42.61c.27,0,.56-.09.82-.09s.53.01.79.01.53.06.8.06.56-.12.83-.12c.12.22.21.5.33.72s.23.44.35.67.26.42.38.65c.12.21.19.46.32.69.12.21.21.38.33.61-.25-.07-.43-.12-.65-.18-.25-.07-.5-.08-.72-.15-.24-.07-.49-.1-.71-.17s-.45-.21-.69-.28c0,.25.05.5.02.75s-.13.48-.17.72-.04.49-.09.73-.16.47-.23.7-.17.46-.26.69-.08.5-.18.72-.31.39-.42.61-.24.42-.37.63-.22.44-.37.63-.33.36-.49.55-.28.41-.45.58-.39.3-.58.46-.41.26-.61.4-.37.32-.58.45-.44.2-.66.32-.42.24-.65.34-.42.25-.65.34-.48.08-.72.16-.47.09-.71.15-.46.15-.71.2-.47.16-.71.19-.49,0-.74.03-.53,0-.78.02c-.01.22.05.51.04.73s-.08.45-.1.67.02.47-.03.68-.16.43-.25.64-.2.41-.34.59-.34.28-.53.42c-.17.13-.32.3-.55.39-.19.08-.41.14-.65.19-.28.06-.54.01-.78,0-.27-.02-.52-.05-.76-.16s-.41-.29-.6-.48c-.18-.18-.35-.36-.49-.6-.12-.19-.34-.32-.47-.52s-.23-.41-.32-.62-.05-.45-.04-.68c0-.21-.07-.46.07-.69.1-.17.29-.37.49-.56.18.12.36.31.55.43s.39.18.59.3c.18.11.34.25.54.37.09-.13.19-.28.23-.46.05-.24.16-.46.16-.68,0-.24.03-.48-.01-.7-.04-.23-.12-.46-.21-.67s-.16-.44-.28-.64-.35-.32-.49-.51-.25-.38-.4-.57-.21-.41-.35-.6-.29-.36-.41-.56-.25-.36-.35-.57c-.09.22-.24.39-.33.6s-.07.48-.15.69-.21.42-.3.64-.13.46-.21.67-.25.41-.33.62-.09.47-.18.68-.28.39-.37.6-.12.46-.21.67-.17.43-.27.64c-.11.22-.26.42-.38.63s-.3.39-.43.59-.27.4-.42.59-.23.44-.4.61-.4.28-.58.44-.36.31-.56.45-.36.34-.57.45-.47.13-.7.22-.45.15-.69.21-.45.16-.7.2-.46.15-.71.18c-.24.02-.49.02-.7,0-.24-.01-.45-.18-.67-.23-.23-.06-.44-.12-.64-.23s-.42-.18-.6-.33-.29-.34-.45-.52c-.15-.17-.29-.34-.42-.54-.13-.2-.33-.37-.45-.58s-.21-.44-.31-.66-.22-.44-.28-.68-.09-.49-.09-.73c0-.23.08-.48.16-.72.06-.22.13-.46.25-.69.11-.2.3-.35.46-.55.03.28.03.53.09.75.08.27.25.47.38.66.14.22.27.46.46.61s.45.25.69.34.5.07.75.12.49.12.74.15c.26.03.49.09.7.06.24-.04.46-.15.64-.27s.34-.29.48-.49c.13-.17.3-.38.41-.61-.21-.08-.47-.14-.69-.21s-.45-.09-.66-.16-.38-.28-.6-.35-.46-.06-.67-.13-.42-.18-.64-.25-.4-.24-.61-.31-.5-.05-.7-.12c-.06-.25-.05-.53-.09-.76-.05-.25-.1-.49-.12-.72-.03-.26,0-.5.01-.73,0-.26-.09-.51-.05-.73.04-.26.22-.46.31-.66.11-.23.2-.44.37-.61s.37-.27.61-.36c.21-.09.42-.22.68-.24.23-.02.47,0,.73.03-.04.22-.12.43-.17.66-.04.21-.08.43-.13.67-.04.21-.01.38-.06.62.27.02.47.17.73.21.28.04.54-.04.77-.11.23-.07.43-.14.63-.25.21-.11.44-.18.6-.34s.35-.32.47-.51.19-.42.27-.64c.08-.21.15-.43.19-.66.04-.22.03-.45.04-.69.01-.22-.01-.4-.03-.64-.23,0-.4-.1-.63-.13s-.47,0-.69-.04-.41-.2-.63-.28-.46-.07-.67-.19-.32-.33-.5-.48c-.17-.14-.37-.25-.53-.43-.14-.16-.33-.35-.47-.55.21-.09.44-.23.65-.32s.45-.1.67-.18.41-.22.63-.3.44-.14.65-.23.46-.1.67-.19.43-.18.63-.28.35-.31.54-.43.42-.2.59-.36.28-.36.42-.55.33-.33.44-.53c.1-.2.2-.41.27-.64.07-.21.05-.41.09-.65-.23.01-.43-.05-.66-.04s-.46.06-.69.08-.46.05-.69.06-.46.07-.69.09-.46,0-.7.01-.47-.05-.7-.04-.46.03-.7.04-.46.05-.7.06-.46.05-.7.05-.47-.08-.7-.07c-.25,0-.49.1-.74.08s-.48-.11-.72-.14-.48-.1-.72-.15-.47-.12-.71-.19-.49-.08-.72-.16-.44-.22-.66-.32-.42-.24-.64-.35-.44-.2-.66-.32-.45-.2-.66-.32-.46-.19-.67-.32c-.22-.14-.33-.4-.51-.56-.19-.17-.37-.33-.52-.51s-.39-.34-.5-.56-.14-.48-.21-.71-.06-.48-.09-.72-.07-.47-.06-.73c0-.24.06-.47.1-.73.04-.24.03-.48.1-.73.06-.23.16-.46.25-.7.08-.23.19-.46.3-.69-.06-.23-.23-.45-.3-.69s-.1-.47-.16-.71-.16-.51-.22-.75c.23-.04.52-.01.74,0s.47-.03.68.02.45.13.65.23.36.28.54.42.41.23.55.41.27.38.37.58.13.43.19.66c.05.2.06.41.09.62.03.26.01.52.06.76.05.26.15.5.22.72.08.25.14.5.24.71.12.24.27.44.42.62s.33.38.54.52.41.28.65.38c.22.09.46.19.72.25.23.05.48.06.75.09.24.03.49-.05.76-.04.24,0,.55.1.81.1-.15-.18-.39-.38-.54-.56s-.29-.38-.44-.56-.33-.35-.47-.54-.16-.46-.27-.67-.29-.39-.37-.61-.1-.46-.13-.7-.12-.47-.09-.71c.03-.22.22-.41.31-.65.08-.2.17-.41.31-.62.12-.19.18-.43.35-.62.16-.18.37-.28.55-.39.19-.12.37-.27.6-.31.2-.04.44-.06.69-.04.2.02.42.13.65.19.2.06.39.18.61.27.2.08.45.05.67.15.2.09.4.25.61.35-.2.18-.39.39-.58.55-.2.18-.44.3-.63.47s-.33.38-.53.55c.12.21.21.4.34.57.15.19.34.32.51.45s.38.23.59.32.4.21.63.25c.21.04.44.1.68.1.22,0,.43-.13.67-.17.21-.03.43-.06.67-.11.21-.05.43-.08.66-.15.21-.06.43-.12.66-.2.21-.07.44-.15.66-.24-.05-.26-.09-.53-.14-.8s-.05-.53-.1-.8-.11-.52-.16-.79-.1-.5-.15-.77c.16-.16.24-.35.38-.52s.32-.32.46-.49.28-.35.44-.49.32-.33.54-.4c.19-.06.42-.1.67-.08.2.01.46.09.7.17-.12.27-.32.52-.43.76-.12.26-.25.51-.37.76.03.22.14.47.3.64.14.15.38.21.6.31.19.09.4.16.63.19.21.03.44.1.68.07.22-.03.43-.16.65-.19s.44-.04.66-.07.44-.06.66-.09.44.02.67,0,.44-.08.66-.11.43-.1.66-.13c-.22-.13-.43-.26-.63-.38s-.39-.3-.6-.43-.51-.18-.72-.3c.1-.24.31-.44.41-.68.21-.05.4-.17.61-.25.25-.09.47-.18.65-.1.22.1.44.15.66.23s.44.17.66.22.47.03.69.06.45.17.68.18.47-.07.7-.07.47.06.7.04.45-.11.68-.14.47,0,.7-.04.43-.21.66-.25.46-.07.68-.11.45-.09.68-.14.46-.07.68-.12.46-.07.68-.11c.27-.05.53-.19.8-.27s.56-.13.83-.21c.12-.25.17-.53.28-.74.13-.24.27-.46.4-.65.16-.23.41-.35.58-.5.2-.19.35-.41.57-.5s.49-.11.76-.11c.23,0,.47.08.74.16.22.06.47.12.73.23.22.09.4.23.65.36-.17.14-.3.26-.47.42-.15.13-.36.23-.54.39-.15.13-.32.34-.51.51.25.05.53.13.77.18s.5.07.74.13.51.04.75.1.47.17.72.23.49.11.73.17.48.15.72.2.5.06.74.11.48.13.72.18.49.06.74.12.47.17.71.23.48.06.72.12c.13-.2.24-.37.36-.56s.28-.35.41-.55c.12-.18.21-.45.34-.65.22.11.47.26.68.35.25.1.51.18.63.36.14.2.28.4.43.59s.33.36.5.54.3.39.48.56.41.28.59.44.31.39.5.54.42.25.62.4.39.29.6.43.36.34.57.47.47.18.67.31.37.33.58.46.45.2.66.32.36.35.57.48.49.14.7.27.4.29.6.42c.21.13.38.32.59.45s.47.16.68.29.36.35.58.47.45.21.66.33.39.31.6.43.44.22.65.35.47.17.68.3.39.3.59.45c.2.14.34.37.54.5s.42.25.63.37.48.14.69.25.44.2.66.3.41.27.64.35.49.07.72.15.43.24.67.3.47.11.71.16.47.13.71.17.49-.02.73,0,.47.16.71.18.48.06.72.07.49-.08.73-.08.48.04.72.04.48.05.73.04c.25,0,.5-.03.75-.03s.5-.07.75-.07.49-.04.75-.03.49.12.75.12.45-.02.71-.02Z"/>
  <path class="b" d="M535.36,12.8c-.24.05-.5.09-.77.14-.24.05-.49.13-.75.19s-.49.15-.75.2-.51.07-.77.12-.49.16-.75.21-.58.01-.84.06c.1.24.28.49.37.71.1.24.21.45.3.67.1.23.21.5.3.73-.27.03-.57.01-.8,0-.27-.01-.53,0-.76-.07-.24-.08-.44-.24-.65-.4-.19-.14-.35-.32-.51-.54-.14-.19-.31-.37-.43-.62-.1-.21-.19-.44-.29-.7-.08-.22-.18-.42-.26-.67-.25-.02-.47-.03-.73-.06s-.51-.07-.76-.1-.5-.14-.75-.16-.51-.02-.76-.04-.51-.1-.76-.1-.51,0-.77,0c-.25,0-.49.09-.72.14-.25.05-.46.15-.69.24s-.45.18-.65.31-.4.26-.59.42-.36.31-.53.49-.39.31-.53.5-.2.45-.33.66-.29.39-.41.61c.24,0,.47-.06.69-.06.24,0,.46.08.68.08s.49-.06.72-.06c-.04.26-.19.5-.28.72-.09.24-.17.46-.32.64-.16.19-.37.29-.59.4s-.4.27-.65.31c-.23.04-.48.06-.74.04-.24-.02-.46-.14-.67-.2-.23-.07-.42-.17-.61-.29s-.42-.2-.58-.38-.33-.33-.44-.54c-.1-.19-.1-.45-.17-.68-.06-.21-.13-.43-.17-.67-.04-.22-.12-.44-.14-.68-.02-.22.05-.46.05-.7,0-.22-.08-.41-.07-.65-.24-.01-.42-.04-.65-.03-.24.01-.46.1-.69.14s-.46.08-.68.14-.47.06-.69.15-.41.22-.61.34-.38.27-.57.4-.4.24-.58.39-.32.33-.48.5-.36.3-.51.48-.23.41-.37.6-.28.37-.41.56c-.13.2-.33.35-.43.55-.11.21-.1.47-.19.68s-.14.43-.2.65-.13.44-.15.66-.12.45-.11.68,0,.47.04.69.15.44.22.66.13.44.24.65.23.39.36.59.26.37.41.55c.14.17.34.36.5.53-.24.19-.53.25-.74.32-.27.1-.49.1-.73.07-.25-.03-.53,0-.77-.1s-.46-.23-.69-.34-.47-.32-.72-.38c.04.24.1.53.15.76s.13.47.2.7.13.47.21.69.15.46.25.68.22.43.33.65.28.39.41.6.17.46.31.66.27.4.42.59.29.39.45.57.35.33.52.51.38.3.56.47.32.37.5.53c.2.17.45.24.69.34s.47.16.74.19.5,0,.76-.03.51,0,.77-.08.48-.18.72-.29.48-.2.69-.35c.2-.13.37-.29.52-.45.16-.17.25-.38.36-.58s.15-.41.21-.64c.06-.21.14-.42.15-.65.01-.22.01-.44-.01-.67-.02-.22-.02-.45-.07-.68-.05-.21-.1-.47-.18-.7-.22.07-.46.22-.68.29s-.47.12-.68.19c-.16-.2-.21-.44-.32-.63-.11-.22-.28-.4-.33-.61-.05-.23-.01-.46.02-.7.03-.22.02-.47.12-.69.09-.2.27-.36.42-.57.13-.18.23-.39.4-.57.15-.16.37-.27.55-.44.16-.15.25-.34.44-.49-.16-.22-.21-.43-.37-.59-.19-.18-.43-.27-.63-.38-.23-.12-.46-.19-.69-.21s-.48-.01-.72.03-.47.07-.71.16-.44.2-.66.3-.44.21-.66.31-.45.18-.67.26c-.23.08-.41.1-.64.13-.02-.26-.14-.46-.12-.68.02-.26.19-.47.27-.69.08-.23.12-.48.28-.68.14-.18.38-.28.59-.44.18-.14.34-.32.57-.45.2-.11.4-.25.65-.35.22-.09.44-.2.66-.26s.47-.08.7-.1.47.08.7.09.48-.08.71-.03.42.23.65.3.48.03.7.13.41.23.62.34.35.31.55.44.45.17.64.31.38.28.56.43.32.34.49.51.31.34.47.52c.26,0,.52-.04.77-.04s.52.07.78.07.52,0,.78,0,.54-.06.81-.06c.13.22.29.46.42.69s.25.44.39.67c.12.22.16.49.3.72.12.22.33.4.46.63.12.22.25.5.38.74-.22-.07-.5-.11-.7-.17-.22-.07-.41-.17-.61-.24-.21-.07-.39-.23-.59-.3s-.42-.1-.63-.17c-.2-.06-.42-.11-.64-.18.03.25.05.49.06.73,0,.25.07.49.06.72s-.11.48-.14.71-.02.49-.07.72-.13.47-.21.69-.28.4-.38.62-.1.49-.22.7-.26.41-.39.61-.35.33-.5.52-.2.45-.36.63-.31.37-.48.54-.35.33-.52.5c-.18.17-.38.32-.56.47s-.42.25-.62.39-.39.29-.6.41-.43.23-.65.34-.41.3-.63.38-.47.14-.7.21-.48.09-.72.15-.47.17-.71.21-.5-.05-.74-.02-.48.1-.72.12-.48.02-.72.02c-.08.25-.17.48-.24.72s-.17.48-.24.72-.12.5-.21.73-.16.48-.26.71-.28.42-.41.64c-.12.19-.24.41-.47.52-.2.11-.46.15-.68.23-.24.09-.47.17-.66.26-.24-.09-.45-.2-.66-.3-.23-.11-.46-.18-.66-.3-.22-.13-.45-.24-.62-.38-.2-.16-.28-.41-.42-.6-.15-.2-.24-.4-.32-.62s-.24-.44-.25-.68c0-.23.09-.46.15-.71.05-.22.08-.5.18-.74.21.12.46.24.68.36.2.11.39.28.62.4.2.11.4.2.63.33.09-.25.21-.44.25-.67.04-.25.03-.51.02-.74-.01-.25-.05-.5-.12-.73s-.18-.46-.28-.68-.28-.4-.4-.61-.17-.46-.31-.67-.3-.38-.44-.58-.35-.35-.48-.56-.24-.43-.35-.65-.18-.51-.27-.74c-.11.32-.22.61-.3.81-.13.34-.12.58-.16.8-.04.23-.12.46-.17.69s-.08.47-.15.69-.22.42-.3.64-.04.49-.13.7-.23.42-.32.63-.26.4-.36.61-.18.43-.3.64-.17.45-.29.65-.32.35-.45.55-.27.38-.41.57-.19.44-.33.63c-.14.19-.34.32-.49.48s-.29.37-.46.51-.4.24-.59.36-.44.14-.64.24-.38.27-.59.34-.44.13-.66.18-.46-.01-.69.02-.44.18-.66.19-.46-.06-.68-.06c-.24,0-.48-.02-.7-.08s-.46-.12-.67-.24-.39-.27-.57-.43-.35-.32-.5-.51-.32-.36-.44-.56-.15-.46-.24-.68-.26-.42-.32-.65-.03-.48-.05-.72-.03-.48-.02-.71.09-.46.16-.69.13-.48.25-.69c.13.21.3.41.44.6.15.2.3.39.46.55.18.18.37.31.56.45.2.15.39.3.6.39.23.1.46.13.69.17s.48.15.71.12.45-.17.67-.26c.21-.09.39-.23.59-.38.18-.14.45-.21.61-.4.15-.17.19-.39.33-.6-.23-.02-.4-.06-.63-.07s-.45-.09-.67-.11-.44-.09-.66-.14-.44-.09-.65-.16-.46-.05-.67-.15-.36-.27-.55-.4-.38-.23-.55-.39c-.16-.15-.27-.33-.41-.52-.06-.25-.12-.48-.15-.71-.03-.26-.04-.5-.04-.73,0-.26.04-.5.07-.72.04-.26.02-.51.11-.72.1-.24.3-.39.46-.56s.32-.35.56-.45c.21-.09.44-.14.7-.17.23-.02.44-.02.7,0-.04.21-.02.4-.06.62-.04.21-.16.4-.2.63-.04.2-.02.42-.07.65.23.04.44.11.66.16.23.06.46.12.67.08.24-.05.48-.11.69-.21.22-.1.44-.23.62-.38s.3-.37.45-.57.28-.38.38-.61c.09-.21.16-.44.22-.68.06-.22.06-.46.09-.71.03-.23.03-.42.03-.67-.23-.02-.42-.06-.65-.09s-.45-.14-.67-.2-.43-.17-.65-.26-.42-.18-.63-.29c-.2-.11-.39-.22-.58-.37-.18-.13-.37-.27-.55-.43-.17-.15-.37-.28-.54-.46.24-.09.46-.24.7-.32s.52-.08.75-.15.47-.2.71-.28.5-.13.73-.22.44-.24.66-.35.48-.17.68-.32c.2-.14.36-.32.53-.49s.28-.39.44-.58.36-.32.51-.53.29-.38.43-.58.18-.46.32-.66.35-.35.5-.55c-.24.03-.5.01-.73.03s-.47.13-.71.15-.49,0-.72.02-.48.08-.71.11-.49-.01-.72.01-.48.05-.72.07-.48.07-.71.1-.48.03-.71.05c-.25.03-.48.15-.73.16s-.49-.1-.73-.1-.49-.04-.73-.06-.49,0-.73-.05-.47-.15-.71-.2-.48-.08-.72-.15-.46-.14-.7-.22-.48-.1-.71-.19-.47-.13-.7-.22-.46-.16-.69-.26c-.22-.09-.43-.21-.63-.31-.21-.11-.38-.29-.56-.41-.2-.13-.42-.22-.59-.37s-.31-.36-.46-.53-.36-.31-.49-.5-.16-.44-.26-.65-.17-.42-.24-.64-.15-.43-.18-.66-.1-.46-.1-.69.15-.45.18-.68-.04-.47.02-.7.19-.42.27-.65c.08-.21.21-.42.31-.64-.05-.25-.14-.52-.19-.78s-.08-.52-.14-.78-.17-.51-.22-.77c.25.01.49.11.72.15.25.04.51.01.73.09.24.08.42.26.63.37.22.12.48.17.65.34s.33.37.46.58.19.44.27.68c.08.22.2.44.24.69.03.24-.02.49.03.7.05.24.14.46.2.67.06.24.14.46.22.66.09.23.23.41.35.6.13.21.25.39.41.55s.34.29.54.41c.19.11.39.2.62.28.21.07.43.09.67.13.21.04.43.1.68.12.22.02.45.07.7.07.22,0,.52.02.76.01-.14-.17-.3-.4-.43-.55-.15-.16-.36-.25-.48-.41-.13-.17-.24-.35-.34-.53-.13-.24-.3-.46-.43-.71s-.24-.51-.33-.76c-.1-.27-.07-.55-.08-.82-.01-.26-.11-.53-.08-.8s.07-.54.16-.79.21-.52.39-.71c.17-.18.43-.28.71-.39.22-.09.43-.2.65-.25s.47,0,.7-.02.46-.05.69-.01.44.11.66.21c.2.08.38.22.59.36.18.12.37.21.55.38-.21.17-.36.33-.55.48-.2.16-.43.27-.62.43s-.38.35-.57.5c.13.21.26.42.4.59.16.18.31.37.49.5s.45.15.66.24.4.25.63.29c.22.04.45-.03.7-.03.22,0,.45.04.69.01.22-.03.46-.03.69-.09.21-.05.44-.12.67-.2.21-.07.41-.2.64-.28.21-.08.46-.14.69-.24-.09-.23-.24-.45-.3-.66-.07-.23-.04-.48-.08-.7-.05-.24-.15-.46-.16-.68-.02-.25,0-.48.02-.7.02-.25.09-.47.16-.68.08-.23.22-.41.35-.59s.26-.39.46-.51c.19-.12.4-.21.64-.27.21-.05.44-.13.69-.14.22,0,.43.09.68.12-.13.26-.28.48-.41.74s-.19.52-.33.8c.17.21.37.32.54.46.21.16.39.3.6.38.23.09.46.22.7.23s.49.02.74,0,.46-.17.7-.22.49-.01.73-.05.47-.16.71-.18.48.09.72.12.44,0,.67.11c-.04-.23-.11-.38-.25-.54s-.32-.31-.48-.45c-.18-.15-.37-.29-.47-.46s-.18-.41-.11-.67c.05-.17.2-.37.36-.59.22.09.48.15.7.23s.44.17.67.23.44.21.67.25.49-.02.72,0,.46.16.7.17.48,0,.72,0,.48-.04.71-.05.47-.07.71-.1.47-.07.7-.11.47-.06.7-.1.48,0,.72-.06.44-.22.67-.28.46-.09.69-.15.48-.05.71-.11.43-.24.66-.3.47-.06.7-.13c.12-.25.23-.48.35-.68.14-.24.31-.44.44-.63.16-.23.33-.42.49-.58.2-.2.39-.34.61-.43.23-.1.46-.2.72-.2.23,0,.46.11.73.19.22.07.47.12.72.24.21.1.44.21.68.34-.16.14-.32.28-.49.43-.15.13-.29.3-.47.46-.15.13-.26.23-.45.39.25.06.43.08.67.13s.47.19.71.25.51.02.75.07.46.23.7.29.51,0,.76.06.49.11.73.16.49.1.73.15.46.2.71.25.48.13.72.19.49.08.73.13.49.09.73.14c.13-.19.26-.38.4-.57s.29-.36.43-.55.24-.41.38-.61c.17.08.38.12.54.17.19.07.31.21.41.34.15.19.32.36.47.54s.35.33.51.5.31.36.49.53.37.31.54.47.29.39.48.54.41.26.6.4.35.33.54.47.44.21.64.34.4.25.6.39.33.37.53.5.46.16.67.28.41.25.61.37.36.33.57.45.47.15.67.27.4.27.6.39.43.21.64.33.36.32.57.44c.21.12.45.21.66.33s.44.23.64.35.41.27.62.4.37.33.58.46.41.27.61.41.45.21.65.35c.2.14.35.36.55.49s.48.15.69.27.4.29.62.4.44.23.66.32.48.11.71.2.42.28.65.35.5.02.74.08.45.21.69.26.48.12.72.16.49.04.73.07.49,0,.74,0,.48.03.73.04.49.04.73.04.49-.05.73-.06c.23,0,.45.12.68.12s.45-.04.68-.03.45.03.68.05.46-.08.68-.06.45.07.68.09.49.02.71.03c.02.27-.07.55-.08.77-.01.28.04.53-.03.74-.08.26-.24.46-.41.61s-.39.3-.66.35c-.21.04-.47-.03-.75-.06-.24-.02-.48-.1-.72-.12s-.5.07-.74.05-.48-.11-.72-.14-.48-.09-.72-.11-.48-.06-.73-.09-.5.07-.74.05-.48-.07-.72-.11-.47-.13-.72-.16-.49,0-.73-.05-.47-.12-.71-.16c-.24-.05-.48-.12-.72-.15s-.49-.09-.73-.11-.49.08-.73.08-.48.03-.72.06-.49,0-.73.05-.45.18-.68.26-.46.12-.69.23c-.07.2-.2.39-.29.63-.07.2-.11.43-.21.67-.07.2-.17.4-.26.65-.25-.13-.53-.18-.77-.29-.25-.12-.47-.3-.71-.41-.25-.12-.49-.26-.73-.37,0-.28-.02-.53-.02-.77,0-.28.06-.53.06-.77,0-.27-.1-.47-.1-.72-.24-.04-.42-.19-.65-.21-.24-.02-.49-.02-.72-.01-.25,0-.48.08-.72.11s-.46.14-.68.21-.46.13-.67.24-.42.22-.61.37c-.18.14-.38.28-.55.47-.15.17-.21.43-.35.63-.13.2-.31.36-.43.56-.13.21-.27.42-.3.64s.02.45.14.69c.09.18.24.31.45.5.25-.11.53-.11.8-.23s.47-.27.73-.39c.11.28.14.51.2.73.09.31.26.55.24.76-.03.27-.2.49-.41.68-.16.14-.39.28-.67.42-.22.11-.44.22-.67.28s-.48.04-.72.05-.47,0-.71-.03-.46-.11-.68-.19-.43-.18-.64-.31-.44-.19-.63-.35-.28-.39-.43-.57-.32-.34-.45-.55-.26-.4-.34-.63-.14-.45-.19-.69c-.05-.25-.1-.5-.12-.81-.01-.24.05-.55.02-.86-.18.15-.41.32-.57.47-.17.17-.32.34-.46.51-.15.18-.31.36-.42.55-.12.2-.13.45-.21.66s-.19.42-.23.65-.02.45-.01.69c0,.22.02.47.06.7.23.11.47.25.69.36s.46.22.68.33.44.18.66.29c-.06.25-.15.43-.24.63-.11.23-.13.51-.28.68-.16.19-.38.33-.59.44s-.45.21-.69.25c-.22.03-.48,0-.73-.04-.22-.03-.44-.15-.69-.23-.24-.08-.47-.16-.69-.29s-.43-.25-.62-.42-.34-.36-.5-.56-.29-.4-.41-.62-.17-.46-.25-.7-.22-.45-.26-.7,0-.49.01-.75c0-.24.05-.46.07-.7s-.01-.47.02-.71.03-.47.07-.7.04-.47.08-.7.21-.44.25-.67.05-.47.09-.71.08-.47.12-.7c-.19-.12-.44-.19-.67-.31-.21-.11-.41-.27-.62-.4s-.38-.3-.55-.48c-.16-.17-.28-.37-.39-.61-.09-.2-.21-.42-.25-.69-.03-.22,0-.43.02-.71.24.07.46.08.7.15s.48.16.71.23.49.11.72.18.49.13.72.2.44.26.67.33.49.07.73.14c.22-.1.44-.21.66-.3s.45-.19.68-.27.48-.12.71-.18.49-.08.72-.13.46-.18.7-.23.49,0,.74-.03.48-.13.72-.15.49-.08.73-.09.49.03.73.03.49.05.73.06.49-.09.74-.07.47.16.72.19.49,0,.73.04.47.13.71.17.48.08.72.13.48.1.71.16.49.05.73.11.44.24.67.31.45.06.68.13c-.17-.16-.33-.27-.51-.42s-.34-.33-.52-.47-.38-.28-.57-.41-.38-.28-.58-.4-.39-.27-.59-.38-.41-.22-.62-.32-.42-.22-.63-.31-.48-.06-.7-.15-.39-.28-.61-.36-.47-.07-.69-.15-.44-.16-.66-.23-.42-.22-.65-.28-.47-.03-.7-.09-.46-.07-.69-.12-.44-.2-.67-.25Z"/>
  <path class="b" d="M387.44,33.86c-.24,0-.49.03-.73.02s-.47-.15-.7-.18-.49.03-.72,0-.48-.07-.71-.13-.43-.24-.66-.31-.49-.07-.71-.16-.42-.24-.63-.34-.45-.17-.66-.29-.41-.25-.61-.38-.36-.32-.55-.47-.4-.26-.58-.42-.36-.31-.53-.48-.33-.35-.48-.53-.33-.35-.47-.54-.28-.39-.41-.59-.32-.37-.43-.58-.17-.45-.28-.67-.16-.45-.24-.67-.25-.42-.32-.65-.07-.48-.13-.71-.18-.45-.22-.69.02-.49,0-.72-.07-.51-.08-.75c-.25.06-.54.14-.78.21s-.51.1-.75.16-.47.16-.71.22c.03-.24.05-.44.09-.65.05-.24.06-.47.13-.67.07-.24.21-.43.31-.61.11-.21.27-.36.43-.51.16-.16.3-.35.51-.44.19-.08.41-.17.66-.2.21-.03.44,0,.68.02.21,0,.43.11.67.15.21.03.43-.06.67-.01.18-.17.34-.3.52-.45.18-.16.41-.26.59-.41.19-.15.37-.32.55-.45.2-.15.41-.26.6-.39.2-.14.42-.23.62-.35.21-.12.39-.29.6-.39.22-.11.45-.18.67-.26.23-.09.47-.13.69-.18.24-.06.46-.2.69-.22.24-.02.49-.03.72-.01s.47.12.7.18.42.2.64.31.43.18.63.32c.19.13.38.27.56.44.17.15.37.29.53.48.15.17.32.35.47.55.14.19.16.42.29.63-.19.26-.35.35-.53.4-.24.07-.43.03-.67-.09-.21-.1-.41-.24-.63-.38-.21-.13-.42-.25-.61-.34-.23-.11-.45-.2-.66-.26-.24-.07-.48-.1-.7-.1-.23,0-.44.14-.66.23-.2.08-.4.17-.6.33-.17.13-.39.23-.57.4-.15.15-.33.36-.49.54.2.15.46.28.64.44s.37.34.53.52.33.38.46.59.13.48.21.71.17.45.2.7c.02.23.09.48.06.74-.02.23-.14.43-.21.68-.3-.04-.58-.01-.86-.05s-.58-.08-.87-.11c-.09.22-.23.39-.29.6-.06.23,0,.47-.04.68-.03.23-.06.45-.05.67,0,.23-.03.46.02.68s.12.45.22.65.24.39.39.57c.14.16.32.33.5.47.18.14.43.17.63.27s.37.28.59.35.44.12.66.16.46-.06.68-.06.45.07.68.03.46-.05.67-.13.36-.29.56-.41.38-.22.56-.37c.19-.16.37-.32.55-.49s.36-.34.52-.52.3-.38.46-.58.37-.34.51-.54.24-.43.36-.65.26-.42.37-.64.24-.43.34-.66.08-.5.16-.73.24-.44.31-.68.12-.48.17-.72.07-.48.1-.72c-.25.07-.49.11-.74.19s-.48.18-.73.25-.49.16-.73.23-.49.14-.74.21c-.15-.12-.32-.25-.47-.37.12-.2.24-.41.36-.61s.22-.41.34-.61.26-.39.36-.6.17-.43.25-.65.18-.43.23-.66.14-.45.15-.68-.11-.45-.14-.69-.02-.46-.1-.68c-.07-.21-.14-.44-.25-.65-.11-.2-.25-.38-.37-.59s-.3-.36-.42-.55-.21-.42-.34-.61-.2-.43-.34-.61-.3-.36-.46-.52-.34-.32-.52-.47c-.19-.15-.43-.21-.64-.34s-.38-.29-.6-.4-.41-.25-.63-.35-.45-.16-.68-.25-.46-.13-.68-.22-.45-.17-.67-.27-.39-.16-.61-.26c0,.23-.04.4-.05.63s-.05.47-.06.69,0,.47-.03.69c-.02.24-.01.47-.06.69-.04.23-.08.47-.15.68s-.15.46-.27.65-.33.32-.51.48c-.16.14-.36.26-.58.37-.19.1-.39.21-.63.28-.27.08-.52.05-.76.05-.26,0-.5,0-.74-.1s-.47-.17-.69-.34c-.19-.15-.33-.37-.51-.58-.16-.18-.33-.33-.49-.55.25-.04.44-.1.66-.13.25-.04.47-.11.69-.15.24-.04.47-.04.69-.08-.09-.24-.11-.49-.21-.71-.11-.23-.28-.42-.4-.62-.13-.22-.26-.43-.41-.61-.16-.19-.32-.39-.51-.53s-.46-.18-.68-.29-.42-.22-.66-.29c-.23-.07-.44-.22-.69-.25-.23-.03-.48,0-.74,0-.23,0-.48,0-.73.03-.22.02-.45.02-.67.03s-.45,0-.67,0-.45.1-.67.1-.45-.05-.67-.05-.44-.09-.67-.1-.47.03-.7.03c-.05.26-.07.54-.12.81-.05.25-.03.53-.08.8-.05.25-.11.54-.16.81-.21.11-.46.22-.67.33s-.47.14-.68.25-.43.21-.65.32-.4.28-.61.39c-.1-.12-.17-.23-.27-.35.09-.22.17-.42.26-.65.09-.21.18-.43.28-.66.08-.21.1-.42.2-.66-.24-.07-.44-.13-.67-.2s-.46-.17-.7-.24-.47-.15-.71-.2-.48-.11-.72-.15-.49,0-.74-.03-.48-.09-.73-.1-.49-.03-.74-.02-.49,0-.74.03-.47.13-.72.18c-.24.05-.45.18-.68.25s-.48.09-.71.16-.49.08-.71.17-.43.24-.65.34-.44.2-.66.31-.43.22-.64.34-.39.29-.6.41-.4.27-.6.4-.47.16-.67.29-.38.3-.58.44-.38.29-.58.43-.35.33-.55.48-.39.22-.59.37c.24-.06.47-.05.71-.11s.45-.26.69-.32.49-.09.73-.15.49-.09.73-.15.46-.2.71-.25.5-.05.74-.1.49-.06.74-.11c.24-.05.48-.11.72-.15s.49-.01.73-.04.47-.18.72-.2.49.1.74.09.49-.06.73-.05.48.06.73.08.49-.02.73.01.49.04.73.08.47.14.71.19.49.05.72.12.43.24.66.32.49.07.72.16c.2.08.42.17.66.17.22,0,.44-.11.67-.16.22-.05.45-.04.68-.1s.44-.13.65-.2.45-.09.67-.13c.23-.05.46-.14.71-.24.21-.08.45-.28.71-.38.04.28.05.6.04.82-.02.28-.1.53-.19.74-.11.24-.32.39-.49.56s-.36.34-.58.47-.38.35-.61.47-.45.18-.66.31c.06.24.1.47.17.71s.14.48.2.72.11.49.17.73.19.47.24.71.09.5.13.74c.04.24.03.47.03.7s.04.48.02.71-.15.45-.21.68-.05.48-.14.69-.21.43-.33.63-.33.34-.47.52-.26.4-.43.55-.4.24-.6.36-.4.24-.62.32c-.23.08-.44.13-.65.16-.23.04-.46.07-.67.04-.22-.03-.45-.09-.65-.19-.19-.1-.36-.25-.53-.41-.15-.14-.23-.36-.36-.55-.12-.17-.3-.34-.41-.55.17-.09.38-.17.55-.27s.35-.16.53-.25c.31-.16.65-.28.93-.4.05-.24-.02-.52,0-.74.03-.25.07-.48.06-.7,0-.25-.08-.46-.13-.68-.05-.23-.12-.44-.22-.65s-.13-.46-.29-.64c-.14-.17-.29-.36-.48-.53-.16-.15-.36-.28-.57-.43-.18-.13-.36-.17-.57-.3.11.24.14.44.19.66.06.26.09.5.09.73,0,.26-.06.49-.12.72s-.18.45-.3.66-.24.42-.4.61-.33.35-.51.53-.29.4-.47.57c-.17.16-.36.32-.57.43s-.44.2-.67.25-.47.03-.71.04-.48.04-.71,0-.46-.13-.67-.23-.43-.21-.61-.35c-.25-.19-.35-.39-.41-.62-.05-.19-.01-.41.04-.74.03-.21,0-.48.06-.78.28.09.58.17.86.25s.52.12.8.21c.09-.23.16-.4.2-.62.05-.24.13-.47.13-.7,0-.24-.06-.48-.12-.7s-.2-.43-.33-.63-.29-.35-.47-.52c-.17-.15-.32-.34-.53-.47-.19-.12-.43-.16-.66-.25-.21-.08-.41-.23-.65-.29-.22-.05-.47,0-.71-.04-.23-.03-.46-.06-.7-.07-.23,0-.46.02-.71.03-.23,0-.45-.02-.69,0-.01.27-.05.49-.06.71-.02.28-.05.51-.08.72-.04.29-.05.54-.13.72-.11.24-.27.42-.5.54-.18.09-.44.06-.72.11-.21.04-.43.13-.71.17-.11-.26-.18-.54-.29-.8-.12-.27-.34-.47-.45-.71-.21-.13-.36-.29-.57-.38-.22-.1-.43-.21-.65-.28s-.48-.02-.71-.05-.46-.1-.69-.1-.47-.06-.71-.05-.46.12-.69.15-.46.05-.7.09-.45.12-.69.16-.48,0-.71.03-.46.1-.69.13c-.23.03-.48-.02-.71,0s-.46.18-.69.2-.48-.05-.71-.03-.46.11-.7.14-.48-.04-.71-.02-.47.08-.7.1-.47.06-.7.07-.47.1-.7.11c-.25.02-.48-.07-.7-.12s-.46-.11-.65-.27c-.16-.14-.25-.36-.37-.59-.1-.18-.27-.4-.34-.65.22-.09.46-.2.67-.3s.46-.11.67-.2.42-.23.65-.27c.23-.04.47-.02.7-.03s.47-.06.7-.05.47.05.7.07c.24.01.48.07.73.08s.49.02.73.02.49-.07.73-.08.48-.08.72-.1.49,0,.73-.02.47-.12.71-.17.5.01.73-.04.46-.18.69-.24.45-.17.68-.25.48-.09.71-.18.41-.27.63-.37.47-.13.69-.24.41-.26.62-.38.39-.29.6-.42.47-.16.68-.3c.2-.14.4-.26.6-.39s.33-.37.53-.5.45-.2.65-.33.4-.26.6-.39.36-.32.57-.45.46-.17.66-.3.36-.34.56-.46.47-.16.67-.28.37-.32.57-.45.46-.17.66-.3.41-.25.61-.38.4-.27.6-.4.41-.25.61-.39.33-.36.53-.5c.19-.13.45-.17.64-.31s.31-.36.5-.51.34-.32.52-.47.39-.26.57-.41.37-.29.55-.44.34-.32.52-.48.39-.27.57-.42.31-.36.49-.51c.17-.14.32-.3.51-.45.16-.12.36-.17.57-.33.16.2.32.34.48.53s.34.35.5.55c.15.18.26.44.43.64.24-.06.5-.11.74-.17s.46-.19.7-.25.5-.04.74-.09.48-.12.72-.17.48-.12.72-.17.49-.08.73-.14.46-.18.7-.24.48-.11.72-.16.49-.09.73-.15.49-.09.73-.15.49-.14.74-.19c-.16-.17-.35-.28-.48-.42-.15-.16-.21-.38-.35-.52s-.26-.24-.41-.4c.25-.12.45-.2.66-.31.24-.13.42-.33.65-.37.27-.04.53,0,.75,0,.26.02.51.04.73.15.2.11.36.3.54.51.14.17.37.31.51.55.12.19.13.47.25.71.1.21.21.46.32.7.23.05.49.1.73.16s.47.08.7.13.46.13.69.19.46.12.7.17.47.11.7.16.48.02.72.06.46.14.7.18.49-.06.73-.04.46.19.7.2.48,0,.72,0,.48-.02.72-.03.48-.03.72-.05.48-.03.72-.06.46-.14.69-.2.49-.03.72-.09.46-.23.69-.31c.06.29.08.56.04.76-.05.26-.17.49-.33.66s-.43.2-.64.34c-.19.13-.32.36-.52.52-.18.14-.37.24-.53.44.24-.05.46-.08.7-.1s.49.04.73.05.49-.09.73-.07.49.02.74.04.48.11.73.13.49.02.73.02.49-.05.73-.08.5,0,.74-.07.4-.29.63-.4c.21-.1.43-.17.64-.31-.09-.21-.1-.42-.18-.61-.09-.2-.26-.36-.35-.55s-.08-.37-.16-.57c.27-.02.47,0,.7.03.27.03.51.06.73.15.24.1.46.22.64.38s.34.36.46.59c.11.21.2.45.24.71.04.23.1.49.09.75,0,.23-.13.47-.18.73-.04.23-.08.48-.16.73-.07.23-.2.49-.3.74.22.1.49.22.7.31.23.09.47.13.69.2.24.08.48.08.7.14.24.06.45.23.68.26.25.03.49-.04.72-.05.24,0,.49.04.72-.01s.48-.11.69-.21.39-.28.59-.42c.19-.13.37-.28.55-.45.17-.16.42-.31.58-.5-.16-.15-.42-.26-.58-.41s-.24-.38-.4-.53-.32-.24-.48-.39c.15-.18.26-.36.44-.5s.41-.23.63-.32.45-.14.68-.18.47-.13.7-.11.49.08.7.16.45.22.62.37c.19.18.34.4.46.62s.12.49.17.74c.05.24.07.48.05.74-.02.24-.05.48-.12.74-.06.23-.06.5-.17.75-.1.22-.27.42-.41.65-.12.21-.31.39-.46.6-.14.2-.21.47-.38.67-.16.19-.4.35-.58.54.24.05.49.15.71.18.24.03.48,0,.7.02.24.01.48.02.7,0,.24-.02.46-.12.67-.18.23-.06.44-.14.64-.24s.45-.15.63-.3.24-.4.38-.59c.13-.18.36-.31.46-.53.09-.2.14-.43.21-.66.07-.21.05-.45.1-.69.04-.22.19-.43.22-.67.03-.23.05-.45.11-.66.06-.23.16-.42.25-.61.09-.21.19-.4.31-.58.13-.19.28-.33.45-.47s.34-.27.54-.36.39-.18.62-.23c.21-.04.4-.06.64-.07.05.22.09.42.14.64s.16.43.21.65.07.45.11.67.13.43.18.65.04.45.08.67.1.44.14.66c.04.23.05.48.03.72s0,.49-.05.73-.23.43-.32.65-.09.49-.21.7-.29.39-.43.59-.36.32-.52.5-.3.37-.49.53-.34.36-.54.49-.46.18-.67.29c-.21.11-.4.26-.62.36s-.45.15-.67.23-.45.15-.67.23-.46.12-.68.19-.42.25-.65.3-.49,0-.72.05-.46.1-.69.13-.45.17-.69.2-.47,0-.71.02-.47.03-.71.04-.47.03-.71.03-.47-.13-.7-.15-.48.05-.71.02-.47-.05-.7-.09-.45-.17-.68-.22-.46-.07-.7-.13c-.2-.05-.42-.03-.64-.09-.19-.05-.38-.18-.61-.23-.19-.05-.44-.07-.67-.12.05.25.17.5.24.73.08.24.14.47.24.69s.14.49.27.7.3.41.45.59.37.33.55.5.39.31.58.45c.19.14.38.3.59.41s.43.2.66.29.46.12.69.2.44.17.67.24.47.1.7.18.41.23.64.31c-.13.2-.25.37-.39.54-.16.18-.27.39-.44.53-.18.15-.4.24-.6.34s-.44.13-.65.2-.42.17-.64.22-.45.04-.68.06-.43.08-.65.1c0,.25-.02.48.01.71.03.25.14.48.19.7.06.25.08.5.17.71.1.23.2.46.34.65.14.2.38.31.56.46s.36.32.58.42c.21.1.43.19.68.25.22.05.47,0,.72.01.23.01.5.11.75.09,0-.23-.06-.5-.06-.74s.05-.47.05-.71-.02-.48-.02-.72c.24.02.46.09.66.15.23.07.43.16.61.27.19.12.43.21.57.38s.23.4.32.61c.08.2.13.42.17.65.04.21,0,.44.01.67,0,.26.02.5-.04.73-.06.24-.16.47-.29.67s-.35.31-.55.47c-.18.14-.36.27-.6.39-.2.1-.39.28-.64.36-.22.07-.45.17-.7.22-.23.05-.47.1-.72.14-.23.03-.48,0-.74.03-.23.02-.48.03-.74.04-.02.25.03.47.08.66.07.23.14.45.29.6s.38.23.59.32c.19.09.4.18.62.23.24.06.48.02.71.02.24,0,.46-.04.69-.08s.44-.1.66-.19.45-.14.65-.28c.18-.13.34-.31.52-.48.16-.16.37-.29.53-.48.14-.18.24-.35.38-.55.1.22.19.39.24.62s.09.47.1.71-.02.47-.05.71-.02.48-.09.71-.2.43-.31.64-.2.43-.34.62-.31.35-.48.52-.31.37-.51.5-.43.21-.65.3-.44.15-.68.2-.46.04-.71.04c-.24,0-.47-.02-.7-.04s-.47-.02-.7-.06-.48,0-.71-.07-.41-.25-.63-.34-.44-.16-.64-.27-.38-.27-.57-.41-.39-.25-.56-.42-.35-.31-.5-.5-.23-.4-.36-.61c-.12-.2-.28-.38-.4-.58s-.21-.42-.32-.62-.28-.38-.39-.58-.15-.45-.26-.65-.19-.42-.29-.63-.19-.42-.28-.64c-.1-.24-.24-.47-.33-.72s-.11-.52-.19-.77-.22-.48-.3-.73-.09-.52-.16-.78-.21-.47-.29-.72c-.2.13-.35.28-.53.43s-.37.29-.53.46-.38.3-.52.49-.27.4-.39.6-.11.48-.2.69-.24.41-.31.63-.06.47-.1.7-.12.46-.12.69,0,.47.04.7.07.48.15.7c.2-.1.37-.26.57-.36s.4-.17.6-.27.42-.18.62-.28c.07.25.03.52.05.76s.12.51.08.76-.22.46-.32.69-.19.46-.34.66-.34.36-.54.51-.42.25-.66.33c-.21.07-.41.16-.64.17s-.44-.06-.66-.1-.46-.05-.66-.15-.36-.28-.52-.43-.4-.27-.49-.47c-.09-.2-.09-.44-.16-.64s-.18-.4-.24-.61-.12-.42-.17-.63-.09-.43-.15-.64-.09-.43-.15-.64Z"/>
  <path class="b" d="M459.31,27.35c.18.16.32.33.49.49s.38.28.56.44.33.34.51.49.39.27.57.43.35.31.53.47.33.34.5.5.38.28.56.44.34.33.51.49c.18.16.36.32.53.5s.32.36.48.54.3.38.45.57.3.38.43.59c.14.23.24.45.33.64.13.25.22.47.24.67.04.26-.02.46-.17.66-.12.16-.27.33-.52.47-.18.11-.38.24-.63.34-.2.09-.43.12-.68.21-.19-.13-.39-.21-.59-.35-.19-.12-.38-.26-.58-.4-.19-.13-.37-.28-.57-.42-.19-.13-.4-.2-.61-.34-.15.16-.29.31-.44.47s-.35.28-.5.45-.28.35-.43.51-.28.35-.43.51-.31.32-.46.49-.31.33-.47.49-.33.33-.49.5c-.21-.18-.43-.35-.64-.52s-.41-.34-.62-.51c-.2-.17-.39-.36-.6-.54.1-.2.22-.38.32-.57s.15-.41.24-.6.2-.38.3-.57.23-.37.33-.56c-.1-.15-.22-.32-.35-.51-.1-.15-.23-.34-.36-.54-.22.18-.42.4-.62.57s-.45.33-.66.5-.4.35-.62.53c-.17-.13-.34-.24-.51-.37s-.33-.26-.5-.4c-.16-.13-.32-.27-.5-.41-.16-.13-.33-.27-.51-.42.16-.18.35-.34.51-.52.16-.19.29-.4.44-.57.16-.19.33-.36.48-.53.16-.19.3-.38.46-.55.16-.18.35-.33.51-.51.16-.18.35-.37.5-.54-.13-.23-.31-.45-.44-.67s-.27-.45-.39-.68-.26-.45-.38-.67-.24-.46-.37-.69c.11-.08.24-.16.35-.24-.18-.17-.37-.33-.55-.5s-.36-.34-.54-.5-.38-.3-.57-.47-.33-.37-.51-.53-.37-.32-.56-.49-.36-.34-.55-.51-.38-.34-.56-.52c-.18.16-.36.36-.54.51s-.39.28-.58.44-.33.35-.51.51-.39.29-.57.45-.38.3-.56.46-.33.35-.51.51-.37.3-.55.46-.33.32-.51.48c.09.06.18.12.27.18-.1.2-.25.38-.35.58s-.21.39-.32.59-.2.39-.31.59-.16.41-.26.62c-.1.19-.23.37-.33.58.14.15.3.36.51.58.16.17.34.37.52.57.17.18.35.38.53.57.18.2.37.36.5.53.17.23.31.43.37.62.08.25.04.47-.07.7-.08.18-.21.37-.42.57-.15.14-.34.28-.56.45-.18.13-.36.28-.58.43-.18-.14-.35-.28-.54-.42s-.37-.26-.55-.4-.32-.33-.5-.47-.38-.26-.56-.4c-.22.25-.39.43-.48.61-.11.22-.09.43.05.75.08.18.18.41.36.68.12.18.31.37.48.61.14.19.3.41.47.65-.16.19-.37.36-.55.57-.16.18-.3.39-.48.61-.16.18-.33.39-.51.6-.16-.16-.35-.32-.5-.47-.16-.16-.3-.35-.45-.51s-.3-.34-.45-.49-.33-.3-.49-.46c-.15-.15-.31-.28-.46-.44s-.25-.34-.39-.5-.32-.27-.46-.43-.27-.33-.42-.49c-.21.14-.41.3-.6.45-.2.16-.4.3-.6.43-.21.14-.43.24-.66.31-.18.06-.4.1-.63.13s-.44.03-.64,0c-.26-.02-.48-.06-.6-.19-.14-.15-.27-.37-.35-.62-.08-.22-.1-.47-.11-.7-.02-.26.02-.5.11-.69.09-.2.17-.41.28-.6s.26-.36.4-.53.3-.33.44-.5.29-.33.45-.49.27-.36.43-.51c.17-.17.35-.33.53-.49s.39-.29.57-.45.34-.35.52-.51.37-.31.55-.47.4-.28.58-.44.35-.33.54-.49.37-.32.55-.47.37-.31.55-.46c0-.24-.02-.46-.02-.67s0-.44,0-.67c0-.21,0-.44,0-.68.26-.06.53-.13.8-.2s.53-.08.8-.15c.26-.06.52-.14.79-.21.17-.17.33-.34.51-.52s.33-.36.5-.53.38-.31.55-.48.3-.38.47-.55.35-.34.52-.51.34-.35.51-.53.33-.36.5-.54.38-.33.56-.51c-.16-.18-.31-.38-.47-.56s-.33-.34-.49-.52-.34-.33-.5-.51-.32-.35-.49-.52-.33-.34-.51-.5-.33-.35-.52-.5-.42-.23-.62-.36-.39-.27-.6-.38-.42-.22-.64-.31-.43-.19-.66-.26-.46-.12-.69-.17c-.23-.05-.46-.13-.67-.27-.2-.13-.4-.28-.58-.44s-.38-.3-.57-.43c-.25.02-.49.05-.73.07s-.5,0-.74.01-.49.03-.74.04-.49.02-.74.03-.49.08-.73.1-.49.05-.73.07c-.24.02-.46,0-.67-.04-.23-.03-.46-.07-.66-.15s-.4-.21-.58-.35-.33-.3-.49-.46-.31-.32-.44-.51c-.13-.19-.24-.4-.36-.6s-.21-.42-.32-.62-.23-.41-.32-.62-.2-.42-.27-.64-.12-.45-.16-.68-.05-.46-.07-.69,0-.46,0-.69.03-.46.08-.69c.05-.22.16-.43.24-.66.08-.24.15-.49.24-.73s.18-.48.27-.72.18-.49.26-.72.13-.51.22-.74c.09-.25.22-.48.3-.71.09-.25.14-.52.22-.75.21-.09.44-.17.64-.25.22-.09.42-.19.61-.27.21-.09.44-.12.64-.2.21-.09.41-.19.61-.28.21-.09.4-.21.6-.3s.4-.19.6-.28c.22-.11.45-.19.68-.27s.47-.13.7-.18.48-.05.72-.07.49-.06.73-.04.48.06.72.11.47.11.7.19.46.16.68.27.41.26.61.39.4.28.58.44.33.35.49.53.34.34.48.54.25.41.36.63.16.45.23.68.15.45.19.7.07.47.08.72c0,.24,0,.47-.01.71s-.02.47-.04.71-.02.47-.04.71-.06.47-.09.7-.03.47-.05.71-.01.46-.03.7c.21.17.39.37.6.54s.45.35.65.51c.04.25.09.49.15.72.07.24.16.47.25.69s.19.45.31.66.23.44.37.63.29.4.44.59.37.32.54.5.33.36.5.53.35.33.53.5.36.33.54.49.35.34.53.5.38.35.56.52c.17-.17.35-.38.53-.55s.39-.31.57-.48.35-.35.53-.52.33-.36.5-.54.36-.34.52-.52.3-.39.45-.58.31-.38.44-.6.18-.45.28-.68.2-.44.27-.69c.06-.23.11-.46.14-.71.21-.16.41-.33.65-.51.21-.16.4-.36.64-.54,0-.2,0-.39,0-.59s-.05-.41-.06-.61c-.01-.23.02-.46,0-.69s-.05-.46-.08-.69-.09-.46-.11-.68,0-.46-.01-.69,0-.46.02-.69.04-.46.09-.68c.05-.24.14-.46.23-.68s.14-.46.26-.67.26-.4.41-.59.31-.36.48-.53.33-.35.52-.5.4-.26.61-.38.43-.21.65-.3.46-.13.69-.19.45-.15.69-.18.47-.04.71-.04.48-.04.72-.01.47.09.7.14.46.12.69.2.45.17.66.28c.19.1.39.2.6.29s.41.14.62.23.4.17.61.25.39.21.6.29.4.14.61.23c.13.21.29.4.42.61s.24.44.36.65.19.46.29.69.25.44.34.66.18.47.26.7.18.47.25.71.11.49.16.73.11.49.14.73.03.5.03.75,0,.5-.02.75-.06.5-.12.74-.12.48-.2.72-.2.45-.31.68-.23.43-.37.65c-.13.19-.25.39-.39.56-.15.19-.3.35-.46.51-.16.17-.34.31-.52.44s-.37.26-.58.36-.41.17-.64.23c-.21.05-.43.1-.67.11-.22.01-.44-.03-.68-.06-.22-.02-.44-.05-.66-.08s-.45,0-.67-.02c-.23-.02-.45-.03-.67-.06-.23-.02-.45-.08-.66-.1-.24-.02-.46-.04-.66-.06-.22.09-.42.21-.62.29-.22.1-.42.2-.62.28-.22.1-.44.15-.64.24-.21.09-.42.18-.62.27s-.42.17-.63.25c-.23.09-.45.2-.66.31s-.43.22-.64.35-.43.23-.63.37-.39.29-.58.45-.35.33-.53.5-.35.33-.52.51-.35.34-.51.53-.3.38-.45.58-.29.38-.44.58c.2.16.39.32.59.48s.41.3.61.46.37.35.57.51.41.3.61.46.37.35.57.51.42.29.62.45.4.32.6.48c-.11.09-.22.19-.33.28.25.05.5.07.76.12s.49.12.75.17.51.08.77.13c0,.23.01.47.01.69s-.03.45-.03.67.03.42.03.66ZM434.78,10.45c.06.24.09.47.17.67.09.23.22.43.34.62.13.21.24.42.39.58.17.18.38.28.57.39.21.12.41.2.64.26s.45.12.69.12.45-.07.69-.12.45-.08.68-.15.43-.16.65-.25c.22-.09.44-.19.65-.33s.4-.28.58-.45.33-.36.49-.55.31-.38.44-.59.23-.44.34-.66.21-.45.29-.68.12-.48.16-.72.05-.49.05-.73.04-.5,0-.74c-.04-.23-.14-.44-.22-.64-.09-.21-.19-.41-.32-.59s-.27-.37-.44-.51-.39-.21-.6-.3-.4-.16-.63-.21c-.22-.04-.43-.11-.66-.1s-.44.08-.66.12-.43.12-.64.17c-.22.05-.42.08-.63.11-.05.27-.08.5-.12.73-.04.27-.09.51-.13.74-.04.25-.09.5-.13.75-.23.09-.46.19-.68.3s-.45.2-.65.33-.41.27-.58.44-.26.4-.38.62c-.11.2-.2.42-.26.67-.05.22-.08.45-.09.71ZM463.53,5.78c-.26-.11-.46-.24-.68-.32-.27-.1-.53-.14-.75-.19-.28-.06-.53-.13-.76-.11-.26.01-.49.12-.73.22-.22.09-.43.21-.66.37-.22.16-.43.29-.58.47-.17.2-.26.43-.36.65s-.18.46-.22.7-.04.49-.04.74,0,.49.02.75c.02.27.06.52.15.76.09.24.22.47.37.68s.28.43.45.63.35.37.52.57c.17.19.34.38.51.55.19.18.39.32.58.47.21.16.43.27.64.38.23.13.44.27.66.34.25.08.5.08.74.09.25.01.5,0,.73-.07s.48-.13.69-.27c.2-.12.36-.32.54-.51.17-.16.33-.34.48-.56.14-.19.32-.37.44-.6.11-.21.19-.45.29-.69,0-.27-.06-.5-.11-.72-.06-.25-.15-.47-.26-.67-.12-.21-.27-.4-.45-.56s-.36-.32-.56-.45-.41-.25-.63-.36-.45-.21-.67-.31c-.04-.23-.05-.46-.09-.68s-.05-.44-.08-.67-.13-.41-.16-.64Z"/>
  <path class="b" d="M133.89,4.56c.24-.1.47-.24.71-.33s.48-.18.72-.27.49-.16.73-.26.48-.2.71-.32c.22-.11.42-.26.64-.34s.48-.09.71-.14.47-.12.71-.14.49-.03.73-.02.48.05.72.1.48.06.71.13.46.17.68.27.42.23.63.36.39.28.58.43.41.27.57.45.29.39.43.59.25.41.37.62.19.44.27.67.2.44.25.68.02.48.03.73c.02.23.05.47.05.7s-.03.47-.05.7-.03.47-.05.7-.02.47-.05.7-.03.47-.05.7-.08.46-.1.7c.15.18.27.38.41.57s.28.37.4.57.26.39.38.59.25.39.37.59.23.41.35.61.2.42.33.62.28.38.41.57.27.38.41.57.28.37.44.55.3.35.47.52.36.29.55.44.33.33.54.46.42.24.63.35c.18-.16.34-.37.52-.53s.38-.3.56-.46.38-.31.55-.47.34-.35.51-.52.32-.37.48-.55.31-.37.46-.56.33-.36.46-.56.26-.41.37-.62.24-.42.33-.65.18-.45.26-.68.11-.47.17-.72c.15-.13.38-.28.61-.47.19-.16.38-.34.58-.51-.03-.26-.08-.51-.11-.76s-.05-.51-.08-.76-.08-.51-.1-.76-.01-.51-.03-.77-.02-.51-.01-.77c0-.25,0-.5.03-.73s.05-.5.1-.73.17-.47.25-.69.19-.46.3-.67.28-.4.43-.6.28-.41.45-.58.37-.33.56-.47.39-.31.6-.43.44-.21.67-.3.45-.19.69-.24.48-.05.73-.08.48-.05.73-.04.49.03.73.07.48.07.72.14.45.19.68.29.45.18.67.3c.21.12.42.24.65.33s.44.18.68.26c.22.08.47.11.71.19.22.08.43.2.67.29.15.2.29.39.43.6s.3.4.42.62.23.44.34.67.21.45.3.68.13.48.2.72.17.47.23.71.16.48.2.72.07.5.09.74.02.5.02.75-.01.5-.03.74.01.51-.03.75-.11.49-.19.72-.19.46-.3.68-.22.45-.37.65c-.15.21-.32.4-.48.6-.17.2-.35.38-.52.55-.19.18-.35.38-.56.52s-.45.25-.69.33-.48.1-.75.12c-.24.02-.49.08-.76.05-.22-.02-.44-.07-.66-.1s-.44-.05-.66-.08-.44-.04-.66-.06-.44-.06-.66-.09-.44-.07-.65-.09-.45-.06-.66-.08c-.22.12-.42.28-.62.4s-.43.24-.64.37-.42.27-.63.38-.45.19-.68.27c-.23.08-.46.17-.67.27s-.43.22-.64.34-.4.26-.6.4-.4.27-.59.42-.34.34-.52.5-.33.34-.5.51-.36.31-.53.49-.3.37-.46.55-.32.35-.48.53-.35.37-.51.55c.17.18.35.37.52.55s.37.32.54.5.33.36.5.54.37.33.53.5.32.37.48.54.34.35.5.53.33.35.5.52.33.35.49.52c.28.05.53.13.79.18s.53.09.79.14.51.09.78.14c.02.23.06.43.07.65s-.01.44,0,.68c.01.21.1.41.11.66.17.15.32.3.49.45s.33.3.5.45.31.33.48.48.37.26.54.41.34.3.51.45.32.33.49.48.32.33.48.48.33.31.5.47c.19.18.39.35.57.53s.35.38.53.58.34.39.51.59.34.4.48.61c.14.21.24.41.33.59.12.24.19.44.21.63.03.24-.01.45-.13.64-.1.16-.28.29-.5.44-.16.11-.36.2-.59.31-.19.09-.38.22-.61.31-.2-.13-.4-.3-.62-.43-.2-.13-.41-.26-.63-.4-.2-.13-.42-.26-.63-.4-.2-.13-.42-.24-.64-.37-.16.18-.32.35-.49.53s-.33.35-.5.53-.31.38-.47.55-.35.34-.51.52-.33.35-.5.54-.34.34-.51.52-.32.35-.49.53c-.19-.18-.4-.3-.57-.45-.19-.18-.34-.37-.51-.53-.19-.18-.36-.34-.54-.5.03-.23.13-.43.25-.63s.22-.4.36-.58.28-.36.41-.55.3-.37.35-.59c.05-.21,0-.43-.05-.68-.04-.19-.09-.41-.22-.64-.2.16-.39.31-.58.45-.2.16-.4.3-.59.44-.2.15-.41.28-.6.43-.2.15-.38.29-.56.44-.25-.11-.45-.23-.64-.33-.25-.14-.49-.22-.65-.35-.23-.19-.36-.4-.43-.6-.08-.22-.05-.44.05-.7.07-.19.18-.4.35-.63.13-.18.25-.4.44-.6.18-.2.37-.39.55-.58s.4-.36.57-.55c.19-.2.34-.41.51-.59-.11-.2-.23-.38-.34-.58s-.2-.41-.3-.61-.18-.42-.29-.62-.23-.38-.34-.58-.18-.4-.29-.6c.08-.06.17-.13.25-.18-.19-.17-.4-.34-.59-.51s-.41-.31-.6-.48-.38-.35-.57-.52-.35-.38-.54-.55-.4-.32-.59-.49-.4-.32-.59-.49-.37-.33-.55-.5c-.23.08-.46.12-.66.21-.22.1-.41.24-.61.37s-.42.23-.6.38-.37.3-.54.47-.32.35-.48.53-.29.38-.43.57-.28.38-.41.58-.2.43-.32.63-.23.41-.34.62-.28.38-.39.59-.16.45-.28.66-.24.4-.36.6c.14.16.28.34.44.52.15.17.29.34.45.52.15.17.33.32.49.49.15.17.29.35.44.52s.26.38.42.56.33.32.48.5c-.19.22-.36.44-.54.64-.19.21-.38.41-.56.61s-.36.42-.56.64c-.18-.14-.33-.33-.5-.47s-.36-.26-.53-.4-.35-.26-.53-.41-.33-.27-.51-.41c-.14.18-.28.32-.4.47-.13.17-.26.35-.39.51.11.19.27.35.37.53s.19.37.3.56.22.36.32.54c.1.18.22.38.33.57-.18.21-.4.4-.58.62-.17.2-.35.41-.54.64-.17.2-.35.44-.54.66-.17-.18-.33-.39-.49-.57-.17-.18-.34-.35-.5-.53s-.32-.37-.48-.55-.31-.38-.47-.56-.36-.32-.52-.5-.32-.35-.48-.53-.31-.34-.47-.52c-.22.14-.45.23-.66.37s-.43.27-.65.41-.43.27-.65.41-.42.31-.65.45c-.18-.09-.38-.19-.57-.28s-.36-.2-.55-.29c-.18-.09-.33-.21-.52-.31,0-.25-.01-.47.02-.7.03-.25.1-.48.16-.7s.15-.46.25-.68.2-.44.33-.64.32-.36.48-.54.3-.38.48-.55.38-.29.57-.45c.18-.16.36-.31.54-.46s.36-.31.54-.46.32-.36.5-.51.39-.29.56-.44.35-.32.53-.48.36-.31.53-.47.34-.34.52-.49.35-.31.52-.46c.02-.25.04-.47.05-.68.01-.24.02-.46.03-.68s.05-.43.06-.67c.24-.04.47-.06.7-.1s.46-.12.69-.16.46-.08.69-.12c.16-.15.32-.3.49-.46s.35-.28.52-.43.32-.31.49-.46.3-.34.46-.49.38-.25.55-.41.33-.31.49-.46.33-.32.49-.47.35-.33.52-.48c-.15-.19-.33-.39-.49-.58s-.29-.4-.45-.58-.35-.34-.52-.52-.35-.34-.52-.51-.36-.33-.54-.49-.34-.36-.53-.51-.42-.25-.63-.38-.44-.21-.66-.31-.42-.25-.65-.34-.47-.1-.71-.16c-.25-.06-.47-.22-.69-.39-.2-.16-.39-.35-.59-.53s-.4-.33-.61-.5c-.23.04-.47.04-.71.08s-.47.08-.71.12-.47.09-.71.12-.47.14-.71.17-.49-.02-.73-.01c-.25.01-.48.05-.71.04-.25-.01-.49-.01-.71-.05-.24-.04-.47-.1-.69-.17-.23-.07-.44-.19-.65-.3s-.4-.25-.58-.4-.4-.27-.55-.45-.27-.38-.4-.59c-.12-.2-.24-.4-.34-.63-.09-.21-.12-.45-.18-.69-.06-.22-.11-.45-.16-.69-.04-.21-.14-.42-.16-.65s-.02-.44-.03-.67.01-.44.02-.66.04-.44.06-.66.07-.44.12-.65c.06-.24.1-.49.17-.73s.14-.48.22-.72.18-.47.27-.7.17-.47.26-.7.18-.47.27-.7.16-.47.25-.71.23-.43.32-.66c.13.08.24.17.37.26ZM163.42,5.78c-.23-.12-.5-.18-.72-.27-.25-.09-.48-.17-.72-.22-.26-.06-.5-.12-.74-.13-.26-.01-.52,0-.76.04-.26.05-.48.18-.7.29s-.47.2-.65.38-.31.39-.43.62c-.12.21-.21.44-.28.7-.06.24-.12.47-.14.71s.02.48.04.72.05.48.11.71.11.47.2.69.18.45.3.66.3.38.44.57.26.4.43.58.33.35.51.51.37.31.57.44.44.2.66.3.42.25.65.32.48.09.71.11.48.05.72.03c.26-.03.51-.09.74-.16.25-.08.46-.21.67-.35s.37-.32.53-.52c.15-.19.3-.38.41-.62.09-.22.18-.45.23-.72.04-.23.05-.46.04-.67,0-.23-.05-.45-.11-.66s-.17-.41-.29-.59-.26-.34-.44-.49c-.16-.14-.32-.29-.53-.4-.21-.11-.44-.2-.66-.31s-.43-.23-.65-.35c-.02-.21-.04-.43-.05-.63-.02-.21-.02-.42-.04-.62s0-.43-.02-.64ZM137.17,6.15c-.02.24,0,.47,0,.68-.02.23-.04.45-.06.66-.02.22-.07.43-.09.65-.19.09-.36.16-.52.23-.18.09-.32.22-.48.31-.23.12-.47.21-.66.36-.2.16-.35.37-.49.56-.15.21-.27.42-.36.65s-.15.48-.16.73.06.48.14.73c.07.24.14.46.23.66.1.23.2.44.33.61.15.19.31.37.49.5s.42.18.65.25c.21.07.42.15.67.17.22.02.45.03.7.02.25-.01.5-.03.73-.08.25-.05.46-.18.68-.26.23-.09.48-.14.68-.27s.39-.3.57-.46.37-.32.53-.5.3-.38.44-.58.25-.42.38-.62.22-.43.33-.65c.12-.23.25-.46.32-.69.07-.25.14-.5.16-.75s0-.52-.04-.77-.11-.5-.2-.74-.23-.46-.37-.67-.31-.41-.5-.57c-.2-.18-.38-.35-.58-.47-.22-.13-.47-.19-.69-.26-.24-.07-.48-.09-.73-.09s-.48.03-.73.1c-.23.06-.46.13-.7.23-.22.1-.46.19-.68.32Z"/>
  <path class="b" d="M294.62,30.1c.16.18.35.34.52.52s.3.38.46.56.3.38.47.56.36.33.52.52.3.39.46.58c.08.09.01.27.07.62-.15.16-.3.32-.47.51-.16.16-.32.34-.49.52-.16.17-.32.34-.49.52-.17-.14-.31-.29-.46-.43-.16-.14-.35-.24-.51-.38s-.31-.29-.47-.42-.31-.27-.47-.41c-.27.19-.45.36-.56.53-.16.26-.15.51-.08.75s.17.48.32.71.31.42.41.66.16.48.09.75c-.14.13-.33.26-.53.44-.15.14-.31.31-.5.48-.16.15-.32.28-.5.45-.16-.17-.31-.32-.46-.49s-.33-.33-.48-.5-.31-.35-.47-.52-.34-.32-.49-.49-.31-.34-.46-.51-.31-.34-.46-.51-.3-.35-.45-.52c-.22.14-.42.3-.63.44s-.45.25-.66.39-.41.3-.63.44-.44.23-.67.37c-.19-.1-.38-.18-.58-.3s-.36-.24-.56-.35-.36-.21-.56-.32c.04-.25.04-.48.1-.7.07-.24.18-.45.27-.67s.21-.44.33-.64.25-.41.39-.61.28-.39.44-.57.36-.32.53-.49.36-.32.54-.48.34-.33.53-.49.35-.33.53-.48.37-.3.55-.46.39-.29.56-.45.36-.32.53-.49.32-.36.47-.55.26-.4.41-.6.33-.36.45-.57c.02-.13,0-.43.06-.8.03-.23.1-.49.14-.78.25-.04.5-.06.76-.1s.49-.1.76-.14c.24-.04.5-.08.77-.13.17-.18.33-.37.5-.56s.34-.36.51-.54.34-.36.52-.54.34-.36.51-.54.35-.35.52-.54.32-.39.49-.57.38-.37.55-.55c-.15-.2-.33-.39-.48-.57s-.28-.4-.44-.58-.34-.34-.51-.52-.33-.35-.51-.52-.32-.37-.5-.52-.39-.28-.59-.42-.4-.27-.6-.4-.4-.27-.62-.37-.46-.13-.7-.21-.45-.14-.7-.19c-.23-.05-.46-.18-.67-.35-.19-.15-.37-.33-.56-.51s-.33-.4-.52-.56c-.23.02-.47.08-.71.1s-.47.04-.7.06-.47.06-.7.09-.48.02-.71.04-.47.09-.7.11-.48,0-.71.03-.47.04-.7.06-.47.04-.7.06c-.2-.15-.37-.32-.55-.47-.19-.16-.39-.29-.56-.46-.18-.17-.32-.36-.48-.54s-.34-.35-.48-.54-.28-.4-.39-.61-.2-.44-.29-.66-.21-.44-.28-.67-.09-.47-.13-.71-.09-.47-.1-.71.06-.48.08-.72.03-.47.08-.71.05-.48.12-.71.14-.46.22-.69.19-.44.29-.66c.1-.22.22-.43.31-.66s.11-.47.14-.71c.04-.29.15-.53.24-.75.1-.26.21-.49.39-.67s.42-.28.68-.38c.22-.08.47-.14.76-.17.23-.02.47-.11.7-.19s.47-.15.67-.27c.21-.13.41-.26.62-.36s.44-.22.66-.3.46-.14.69-.19.47-.09.71-.12.48,0,.72,0,.48-.02.72.02.46.12.69.2.45.15.67.25.42.22.63.35.38.29.57.44c.19.15.36.29.52.46.17.17.34.33.47.51s.28.38.38.58.19.43.27.64.11.45.16.68.08.45.1.68.05.46.06.69-.01.46-.03.69,0,.46-.03.7-.07.46-.12.69c-.05.24-.13.48-.19.69-.09.32-.2.58-.23.68.14.21.29.41.42.61.14.21.25.44.38.64.14.21.28.41.41.62s.27.42.41.62.3.39.44.59.27.41.42.6c.14.19.31.35.46.53s.26.39.41.57.28.38.43.56.29.36.44.54.32.34.47.53.31.36.46.54.28.38.43.57c.18-.15.38-.3.56-.45s.34-.34.52-.49.37-.3.55-.45.37-.3.54-.46.31-.36.48-.53.36-.31.52-.48.32-.36.46-.54.27-.39.4-.59.29-.37.41-.58.18-.44.27-.66.21-.42.29-.65c.08-.23.2-.46.38-.67.16-.19.35-.37.53-.56.17-.18.36-.37.53-.57-.03-.23-.11-.47-.16-.72-.04-.23-.07-.48-.12-.73s-.09-.48-.13-.72-.05-.49-.07-.73-.04-.49-.03-.74c0-.25,0-.5.04-.74s.11-.48.17-.72.17-.46.25-.69.14-.48.25-.69.28-.4.43-.6.28-.4.45-.58.36-.33.56-.48.39-.3.6-.42.45-.2.67-.29.45-.21.69-.27.49-.04.73-.06.48-.09.73-.08.48.06.73.1.48.07.72.14.44.2.68.29.46.17.68.28c.19.1.34.34.53.36.26.02.5,0,.72.04.25.05.46.17.67.25.24.09.46.18.65.3.21.14.39.29.55.46s.27.39.4.59.24.41.33.63.19.44.25.67.13.46.18.69.09.47.14.7.07.47.12.7.11.47.17.69c.06.24.09.47.12.7.04.24.11.47.12.71s-.05.48-.07.71-.09.47-.15.69-.1.47-.19.69-.19.43-.31.64-.27.39-.41.58-.28.37-.44.56-.31.35-.48.52-.37.29-.56.45-.35.31-.54.45c-.22-.02-.44-.02-.67-.04s-.45-.03-.68-.05-.45-.05-.68-.07-.46,0-.69-.01-.46-.06-.68-.08-.46-.07-.68-.09-.46-.05-.68-.07c-.23-.02-.46,0-.68-.01-.23.13-.44.25-.64.37-.23.13-.47.21-.67.33-.22.13-.42.28-.64.39-.22.12-.45.2-.68.29-.23.09-.46.17-.68.27s-.43.24-.64.35-.4.27-.6.41-.42.24-.61.4c-.18.15-.33.34-.52.51-.17.16-.33.34-.51.52-.16.17-.34.33-.5.53-.15.18-.29.37-.45.57-.15.18-.34.34-.49.54-.14.19-.26.4-.41.61.16.17.31.35.48.53s.33.35.5.52.31.36.48.54.33.35.49.52.34.34.51.51.34.34.51.51.32.36.49.53.32.36.49.54c.25.04.5.06.74.1s.48.07.73.11.49.07.74.11c.05.21.07.44.11.64.05.22.11.42.15.62.05.22.08.44.12.62.16.17.35.32.52.49s.32.34.49.51.32.35.48.52.31.36.47.53.33.34.49.51.36.31.52.48.28.38.44.55.35.31.52.48.34.33.5.5.3.36.46.53.31.35.47.52.32.34.48.51.34.32.5.49c.13.15.18.39.22.66.03.21.02.45.07.69-.17.13-.31.28-.48.41s-.36.22-.54.36c-.16.13-.33.24-.51.38-.19-.12-.36-.22-.54-.34s-.38-.21-.56-.33-.33-.27-.52-.39-.39-.18-.58-.31c-.18-.12-.35-.28-.54-.4-.17.18-.31.4-.48.58s-.38.31-.55.49-.33.36-.5.54-.34.35-.51.53-.35.35-.52.53-.33.36-.51.54-.32.42-.5.6c-.18-.17-.36-.36-.52-.51-.18-.17-.33-.36-.49-.51-.18-.17-.37-.31-.52-.46.1-.21.17-.42.26-.62s.21-.4.3-.6.21-.4.3-.6.16-.42.25-.62.18-.4.27-.6c.04-.1-.2-.31-.38-.57-.2.15-.39.28-.58.43-.2.15-.36.33-.55.48-.2.15-.4.28-.59.42s-.39.31-.57.45c-.23-.12-.43-.27-.61-.38-.23-.14-.43-.26-.59-.39-.22-.18-.35-.36-.43-.54-.1-.21-.16-.43-.07-.68.07-.19.2-.39.36-.61.12-.17.29-.34.47-.54.16-.18.35-.34.52-.52s.3-.39.46-.57c.28-.31.6-.6.74-.75-.13-.25-.25-.5-.37-.73s-.28-.47-.4-.71-.26-.48-.38-.71-.23-.49-.35-.73c.1-.07.23-.14.33-.2-.19-.17-.37-.34-.56-.51s-.4-.3-.59-.47-.35-.35-.54-.52-.38-.32-.57-.49-.38-.33-.57-.5-.38-.33-.57-.5-.36-.35-.55-.52-.38-.3-.57-.47c-.19.17-.4.28-.59.44s-.35.38-.54.54-.39.33-.58.5-.4.31-.59.48-.37.34-.56.51-.36.36-.55.52-.41.3-.59.47c.08.05.18.11.26.16-.1.2-.22.39-.32.59s-.2.39-.3.59-.16.41-.26.61-.2.39-.3.6-.2.4-.3.6ZM313.36,5.42c-.2-.15-.43-.25-.63-.37-.22-.13-.42-.26-.63-.34-.23-.09-.46-.18-.69-.21s-.47.01-.72.04-.46.06-.69.16c-.21.09-.44.17-.65.32-.2.14-.37.3-.53.46-.17.17-.31.36-.43.55-.12.2-.21.42-.28.63s-.13.44-.15.68c-.02.22.03.45.04.69.02.22.03.45.07.69.04.23.1.46.18.68s.16.44.26.66.25.4.38.6.24.41.39.6.34.34.51.5.36.31.55.45.38.3.58.41.44.2.66.28.45.16.68.21c.25.04.5.05.73.05.26,0,.5-.03.73-.07.25-.04.49-.11.7-.2.23-.1.42-.25.6-.4s.35-.32.49-.53.24-.41.32-.65c.07-.22.13-.45.15-.71.02-.23-.01-.47-.04-.73-.03-.26-.05-.5-.13-.72-.09-.24-.23-.43-.37-.62s-.29-.39-.49-.54-.42-.23-.65-.33-.43-.2-.67-.27c-.13-.29-.26-.46-.27-.66-.02-.21-.08-.43-.08-.65,0-.21.05-.43.05-.66ZM286.63,7.66c-.38.22-.53.37-.71.46-.22.1-.43.19-.61.31-.2.13-.39.26-.55.41-.17.17-.26.38-.37.57s-.22.4-.26.62-.1.44-.08.68c.02.22.07.44.14.68.07.24.15.46.23.66.1.23.22.43.35.6.14.2.3.37.49.5s.41.18.65.25c.21.06.43.11.68.13.21.02.45.02.7,0,.24-.01.47-.03.68-.07.23-.05.44-.14.65-.22s.44-.15.63-.26.37-.27.55-.41.34-.3.51-.46.34-.3.5-.47.29-.35.44-.53c.16-.19.32-.4.44-.63s.19-.47.27-.72.11-.5.15-.75.06-.51.06-.76-.05-.51-.1-.76c-.05-.26-.11-.5-.21-.73-.1-.24-.23-.46-.39-.65-.18-.2-.34-.39-.51-.53-.2-.17-.42-.28-.63-.39-.23-.11-.45-.22-.69-.25s-.47,0-.73.04c-.23.04-.47.05-.73.14-.22.08-.43.21-.67.33-.21.1-.44.2-.67.34-.02.2-.05.42-.07.62s.02.42,0,.63-.08.4-.11.61Z"/>
  <path class="b" d="M14.45,11.82c.11.19.21.38.31.58s.17.4.27.6.21.39.31.58.21.39.33.57.26.35.4.52c.15.17.32.33.48.5s.32.33.47.5.25.39.41.56.36.29.52.46.32.33.48.5.27.38.43.54.33.32.49.49.36.29.52.46.31.34.47.5.29.36.45.53c.17.18.36.31.52.45.18.16.37.29.54.41.2.14.4.24.6.31.22.08.43.15.66.16s.45-.02.68-.08c.2-.06.42-.13.64-.24.19-.1.35-.27.55-.41.18-.12.4-.24.59-.39-.22.02-.46.08-.68.1s-.44,0-.67.01c-.21.02-.43.06-.66.09-.21.02-.44.05-.67.07-.17-.13-.37-.25-.56-.39-.17-.13-.36-.26-.55-.4-.18-.13-.35-.29-.53-.43s-.32-.28-.51-.42c.19-.14.34-.3.55-.42s.44-.19.66-.28.45-.16.68-.23.46-.11.69-.16.46-.15.69-.18.48,0,.72-.02.48-.05.72-.04.47.06.71.09.48.02.71.06.47.1.7.16.46.14.68.22.44.19.66.28.45.17.66.27.44.2.64.32.42.24.61.38.35.33.53.48.35.32.51.49.34.34.48.52c-.13.2-.26.4-.41.57s-.34.32-.51.48-.33.33-.52.47-.39.25-.6.37-.39.25-.61.35-.42.21-.64.29-.45.11-.68.17-.46.05-.69.09-.45.11-.69.13-.46-.01-.7,0-.46.03-.7.02-.46-.04-.7-.06-.46-.04-.7-.07-.46-.05-.7-.09-.45-.13-.68-.19-.47-.05-.7-.11-.45-.16-.68-.22c-.2.15-.41.33-.63.5-.21.15-.43.25-.66.41-.19-.16-.38-.27-.56-.43s-.34-.35-.53-.5-.37-.31-.55-.47-.39-.29-.58-.46c.02-.19.09-.4.11-.6.02-.22,0-.43.02-.6-.23-.13-.47-.26-.69-.39s-.45-.28-.68-.4-.45-.27-.68-.39-.48-.21-.71-.34-.41-.28-.64-.41c.1-.28.16-.51.26-.78.09-.24.2-.5.32-.8-.15-.13-.35-.28-.54-.45-.16-.14-.33-.29-.51-.45-.27.14-.5.27-.75.4s-.49.22-.76.37c-.18-.13-.38-.24-.56-.38s-.34-.3-.53-.44-.38-.25-.57-.39c-.18-.13-.33-.3-.52-.44.05-.21.09-.42.15-.64.05-.21.09-.44.15-.67-.26-.04-.55-.18-.67-.1-.21.15-.36.32-.49.46-.18.2-.24.39-.24.59,0,.19.03.4.19.62.11.15.26.32.45.5.17.17.36.32.54.48s.38.3.56.45.35.33.53.48.36.32.54.47.37.31.55.47.39.28.57.44.33.35.5.52c.18.16.33.35.51.51s.4.27.58.44.33.35.51.51.36.32.53.49.32.37.49.53.36.32.53.48.36.32.53.48.37.31.54.48.3.38.48.54.36.32.53.48.33.35.5.51.38.3.55.47.31.37.48.54.34.34.51.51c.18.18.34.35.46.54.14.21.26.41.33.62.08.23.14.46.15.69s0,.48-.05.71-.15.45-.27.67c-.12.22-.27.42-.43.57-.17.17-.38.31-.59.41s-.44.15-.69.18c-.22.03-.45,0-.71-.01-.22-.02-.45-.05-.7-.11-.27-.06-.56-.06-.83-.14s-.53-.18-.8-.26c-.24-.07-.47-.17-.7-.25s-.47-.21-.7-.29c-.21.15-.4.34-.56.5-.17.18-.33.38-.45.58s-.2.45-.27.68-.09.47-.12.72-.1.48-.1.73.05.48.07.73c.02.23.04.46.05.69s.03.46.03.69-.06.46-.07.69,0,.46-.03.69-.04.46-.07.69-.05.46-.1.69-.13.44-.19.67-.07.46-.14.68-.19.42-.27.64-.16.43-.25.64c-.1.23-.15.48-.27.69-.12.22-.27.43-.44.6s-.4.27-.64.35c-.21.06-.45.09-.73.06-.26-.03-.5-.09-.72-.18s-.42-.26-.6-.44-.38-.33-.51-.56c-.11-.21-.2-.45-.27-.71-.06-.23-.09-.48-.12-.75.27-.12.57-.3.89-.36.2-.04.39-.02.67,0,.19.02.4,0,.68.02-.06-.21-.08-.41-.12-.6-.04-.22-.11-.41-.17-.6-.06-.21-.14-.39-.26-.55-.15-.2-.29-.41-.45-.61s-.3-.41-.45-.61-.36-.36-.52-.56-.28-.43-.44-.62-.34-.38-.5-.57-.32-.4-.48-.58c-.16-.2-.36-.36-.51-.55-.17-.2-.27-.43-.42-.61-.03-.26-.1-.5-.13-.75-.04-.26-.09-.51-.12-.76-.04-.26-.04-.52-.08-.76-.04-.26-.05-.51-.08-.76-.03-.26-.1-.51-.12-.75s.01-.51,0-.76c0-.25.02-.5.09-.75s.13-.49.23-.73.27-.44.38-.66c.1-.21.16-.45.29-.64s.27-.38.41-.58.3-.36.43-.56c-.18-.18-.37-.32-.56-.46s-.4-.28-.6-.4-.43-.22-.65-.31-.43-.23-.66-.31-.47-.12-.7-.18-.48-.06-.72-.11-.47-.12-.7-.16-.47-.13-.7-.18-.49-.02-.72-.08-.45-.17-.68-.24-.47-.13-.69-.22-.41-.2-.62-.31c.15-.25.28-.42.45-.57.21-.18.43-.26.67-.33s.49-.13.74-.13.51.02.76.02.51-.06.75-.11.44-.17.65-.35c.19-.17.41-.3.61-.46s.4-.31.61-.46.42-.28.63-.42.42-.27.63-.41.42-.28.63-.43.39-.3.6-.45c-.2-.25-.38-.47-.55-.68-.19-.24-.37-.47-.56-.68-.15-.17-.24-.39-.33-.62-.08-.21-.17-.43-.2-.68-.03-.22-.05-.46-.05-.71,0-.23.08-.46.1-.71.02-.23.05-.46.09-.7.03-.23.06-.46.1-.7s.05-.47.11-.7.13-.45.19-.68.13-.45.19-.68.16-.45.23-.67.08-.47.16-.7.16-.45.24-.67.19-.44.26-.66.13-.46.21-.68c.08-.23.13-.46.21-.68.08-.23.14-.47.21-.68.08-.24.16-.46.23-.67.08-.25.15-.48.21-.68.08-.29.19-.54.21-.7-.24-.06-.49-.1-.72-.15-.24-.06-.47-.1-.69-.15-.24-.05-.46-.14-.69-.19s-.46-.09-.69-.14-.49-.08-.72-.14c.15-.22.29-.44.42-.61.16-.22.31-.41.45-.56.19-.21.39-.33.56-.45.22-.15.42-.26.66-.28.21-.02.45.02.71.08.2.05.44.12.69.21.24.09.44.25.66.35.23.1.49.14.7.26.22.12.41.29.61.43s.45.24.64.39.34.37.51.54.35.35.5.54.28.4.41.61.23.43.33.66.23.43.31.67.15.47.2.71.07.48.1.73.1.48.12.73,0,.49,0,.74c0,.23.05.46.06.69s-.01.46.01.69.02.46.05.69.1.45.13.68,0,.46.03.69.1.45.12.68c0,.03-.03-.05-.02-.04ZM9.33,21.35c.19.17.37.33.55.5s.35.36.53.53.37.34.55.5.36.35.54.52.38.33.56.49.39.31.58.47.38.31.57.47c.18.15.3.36.48.51s.4.24.58.39.37.28.55.43.33.33.52.47.39.26.58.39.42.21.61.33c.22.13.51.16.83.13.29-.03.61-.06.86-.15.13-.05.17-.34.23-.72.04-.23.08-.47.15-.74-.23.1-.4.18-.58.26-.23.1-.44.15-.62.23-.21.09-.4.16-.6.24-.22-.16-.41-.33-.61-.49s-.46-.26-.67-.42-.38-.34-.59-.5c.09-.2.13-.4.21-.59.09-.2.23-.37.31-.56s.16-.39.25-.58c-.19-.16-.35-.29-.51-.42-.18-.15-.34-.27-.5-.4-.23.1-.43.2-.64.3-.23.1-.46.18-.67.28-.19-.14-.36-.32-.54-.45-.19-.14-.42-.22-.6-.35s-.35-.3-.54-.43-.35-.27-.54-.41c.08-.25.23-.49.33-.73.12-.29.11-.54-.09-.74-.13-.12-.34-.25-.72-.32-.15.17-.28.38-.43.55s-.33.33-.48.5c-.16.18-.3.36-.44.52ZM10.97,27.86c.22-.06.42-.12.63-.18.2-.06.41-.09.65-.15.19-.05.41-.13.65-.2-.2-.14-.37-.29-.54-.42-.19-.14-.37-.26-.54-.39s-.37-.24-.55-.37c-.17-.12-.31-.24-.5-.38.03.27,0,.47.01.68.03.25.12.47.14.7s.02.45.05.7Z"/>
  <path class="b" d="M589.23,13.51c.06.23.09.44.14.62.06.23.17.41.21.59.05.21.04.39.1.6-.17.14-.28.32-.45.46s-.37.23-.54.37-.32.26-.49.4c-.25-.18-.47-.34-.7-.5s-.49-.28-.73-.45c-.21.17-.42.29-.63.46s-.4.35-.6.52-.38.34-.59.51c.11.27.17.53.29.81.1.23.25.48.39.79-.2.09-.41.21-.61.3s-.41.18-.61.27-.39.21-.59.31-.42.17-.62.26-.4.19-.6.28-.43.15-.63.24c.06.28.13.53.18.74.05.25.11.48.17.73-.18.16-.38.3-.56.46s-.32.35-.5.52-.36.31-.55.47c-.21-.17-.38-.35-.56-.5-.2-.16-.41-.3-.6-.45-.23.08-.45.17-.68.24s-.45.15-.68.21-.47.07-.7.12-.46.11-.69.15-.47.04-.71.06-.47.1-.71.11-.47-.06-.71-.08-.48.03-.71,0-.47-.07-.7-.12-.47-.08-.7-.15-.45-.15-.67-.23-.44-.17-.66-.27-.43-.2-.64-.32-.38-.28-.58-.41-.39-.26-.58-.41-.35-.31-.54-.46-.34-.29-.51-.45c.14-.2.26-.37.42-.55s.35-.33.53-.49.34-.34.54-.48.4-.27.61-.39.43-.22.65-.32.46-.15.68-.23.44-.21.67-.27.47-.11.71-.16.48-.06.72-.09.48-.1.72-.11.48.02.72.02.49-.04.73-.01.47.13.71.18.48.06.71.12.45.19.67.28.44.19.65.31.42.22.62.36c-.15.14-.27.31-.41.45-.16.15-.33.26-.47.39-.16.15-.32.26-.45.38-.27-.02-.51,0-.76-.02s-.52-.05-.77-.07-.51-.02-.77-.04-.51.01-.78,0c-.25-.02-.48-.03-.74-.05.16.21.32.35.49.52.19.18.37.34.57.47.22.14.44.23.67.3s.47.15.72.16.5.04.75,0c.24-.04.47-.14.71-.23.22-.09.46-.17.68-.3.12-.07.21-.19.31-.29.16-.17.33-.35.49-.52s.3-.37.47-.54.35-.32.52-.49.36-.31.53-.49.31-.36.48-.53.34-.34.51-.51.32-.36.48-.53.31-.36.48-.53.34-.34.5-.51.36-.32.51-.5.33-.35.48-.53.3-.37.45-.55.3-.37.45-.56.26-.4.4-.59c.13-.18.25-.37.34-.58s.15-.42.21-.64.16-.42.2-.65-.01-.46,0-.68.08-.45.1-.67.02-.45.03-.68,0-.46.01-.68c0-.24.03-.49.04-.73s.04-.49.05-.73.03-.49.06-.73.03-.49.08-.73.13-.47.2-.7.13-.46.22-.69.16-.46.28-.68.26-.41.4-.61c.15-.22.32-.41.49-.59.18-.19.37-.36.56-.52s.4-.32.62-.45.46-.23.69-.33.47-.19.71-.27.46-.23.71-.31c.28-.09.55-.11.78-.07.26.04.48.2.7.34s.43.29.61.48.31.4.47.61c-.11.29-.21.51-.36.62-.21.16-.46.19-.71.16-.23-.03-.46-.16-.7-.22s-.49-.06-.73,0c-.16.15-.3.36-.37.61-.05.2-.06.45-.06.71,0,.22,0,.46.04.71.03.22.12.45.17.69.04.22.11.45.16.69.05.22.08.46.14.7s.1.46.16.69.14.45.2.68.1.46.16.68.16.44.22.67.05.47.11.7.15.45.2.68.06.47.1.7.06.47.09.7.07.47.09.7.04.47.05.71.05.48.04.71,0,.48-.03.71-.11.46-.16.69-.12.46-.2.68-.14.45-.26.66-.21.4-.35.59c.2.13.38.27.58.41s.4.27.6.42.36.33.55.48.38.3.57.44.41.26.61.4.39.29.6.4.45.18.68.26.44.21.68.26.48.04.73.05c.23.01.48.06.73.04.22-.02.44.09.68.28.18.15.35.32.52.53-.22.08-.43.15-.65.22s-.45.14-.68.21-.47.1-.7.16-.46.14-.69.2-.46.13-.69.19-.46.12-.69.18-.45.15-.68.23-.44.18-.66.26-.44.17-.66.27-.44.17-.65.29-.42.22-.62.35-.37.3-.56.45c.14.21.26.43.41.63s.3.4.43.6.29.41.38.63c.11.24.17.52.27.77s.21.51.27.77.09.54.09.81c0,.23.02.46,0,.7s-.04.46-.07.69c-.03.22-.08.45-.12.69-.03.22-.08.45-.11.69-.03.22-.09.45-.13.69-.03.22-.04.46-.07.7-.08.22-.21.42-.32.63s-.19.43-.33.63-.32.34-.47.53-.25.4-.41.58-.35.31-.51.49-.28.38-.44.56-.3.36-.46.54-.29.37-.44.56-.3.37-.44.56-.3.37-.43.57-.21.42-.33.63c.24.06.46.12.67.17.24.06.46.11.67.16.24.06.45.12.66.17.23.06.44.11.66.16-.01.24,0,.47-.05.67-.05.24-.15.45-.24.64-.11.21-.23.41-.39.55s-.36.27-.58.36c-.2.08-.43.13-.66.15-.26.03-.49-.02-.69-.09-.22-.08-.39-.24-.54-.42s-.27-.37-.36-.58-.15-.44-.22-.65c-.07-.22-.13-.44-.2-.66s-.17-.42-.24-.64-.16-.43-.22-.65-.09-.45-.15-.67-.08-.45-.12-.68-.1-.45-.13-.67-.02-.46-.04-.68-.09-.45-.09-.68.05-.45.06-.68,0-.46.03-.69c.03-.25.09-.49.09-.73s-.07-.49-.1-.73-.05-.49-.12-.72-.18-.45-.29-.67-.19-.45-.32-.66-.27-.42-.43-.62c-.25.09-.5.21-.75.31s-.51.16-.76.25-.5.18-.76.26-.48.25-.74.32c-.26.07-.52.05-.76.08-.27.03-.52.1-.76.07-.26-.03-.49-.16-.71-.26s-.45-.23-.63-.4-.35-.35-.48-.58c-.14-.24-.23-.49-.29-.74s-.09-.53-.06-.79.14-.5.25-.75c.1-.23.19-.48.35-.71.14-.21.32-.4.51-.6.16-.17.33-.34.49-.51s.31-.36.48-.53.34-.33.51-.5.33-.34.5-.51.36-.31.53-.48.31-.36.48-.53.35-.33.52-.49.36-.31.54-.47.32-.35.5-.51.37-.3.54-.46.38-.29.56-.44.34-.33.52-.48.34-.33.52-.49.35-.32.53-.48.36-.31.54-.47.35-.32.53-.47.4-.26.58-.41.35-.32.53-.47.39-.27.58-.42.34-.33.53-.48c.17-.14.39-.25.55-.41s.31-.35.41-.56c.08-.19.09-.43.07-.68-.02-.2-.08-.41-.19-.65-.2-.02-.41-.08-.66-.1-.2-.02-.42-.01-.67-.03-.2-.02-.43-.03-.68-.05ZM581.32,26.93c.22.17.44.32.64.42.25.12.51.13.74.16.26.03.52.07.76,0s.45-.23.67-.36.45-.23.65-.39c.19-.16.39-.31.58-.46s.39-.31.58-.47.34-.36.54-.52.41-.28.6-.44.37-.33.56-.49.37-.34.55-.5.41-.28.6-.44.35-.36.54-.52.37-.33.56-.49.38-.32.57-.48.36-.34.55-.5.39-.29.58-.45c-.14-.16-.28-.29-.43-.45s-.25-.35-.4-.51-.3-.3-.45-.46-.29-.3-.43-.46c-.18.13-.37.23-.53.35-.18.13-.32.3-.48.41-.18.14-.36.24-.51.36.13.28.21.51.31.72.12.24.24.44.36.68-.2.14-.38.28-.56.4-.2.14-.38.28-.56.41-.2.14-.4.23-.58.35-.27-.15-.51-.26-.73-.38-.25-.14-.48-.29-.73-.43-.17.18-.31.4-.47.57-.17.18-.38.3-.54.47s-.28.37-.45.54c.1.19.2.36.29.54s.22.36.32.54.18.38.29.58c-.23.17-.45.34-.65.49-.23.17-.46.33-.66.48-.19-.1-.37-.23-.54-.32-.18-.09-.36-.18-.54-.27s-.37-.2-.56-.3c-.12.18-.26.37-.38.54s-.21.36-.33.53c-.11.16-.23.34-.35.53ZM590.07,25.28c-.2.13-.42.23-.61.34-.2.12-.37.29-.55.41-.19.13-.42.22-.58.38s-.24.38-.35.59c-.1.19-.23.39-.29.64.26,0,.52.02.75.02.25,0,.49,0,.74,0s.46-.05.72-.05c.02-.27.07-.51.09-.76s.01-.51.03-.78c.02-.24.03-.51.05-.79Z"/>
  <path class="b" d="M14.46,11.85c.2-.1.4-.22.6-.33s.4-.22.61-.31.42-.18.64-.22c.23-.04.47-.08.7-.09s.47-.01.7.01.47.07.69.14.44.16.65.27.39.25.57.42c.17.15.32.33.46.53.15.22.27.45.36.68s.17.49.21.74.05.51.04.77c-.01.25-.05.5-.11.76-.06.24-.14.49-.24.74-.09.23-.2.47-.32.7-.19-.16-.38-.32-.56-.47-.19-.16-.39-.31-.58-.47s-.37-.32-.56-.47-.37-.32-.55-.48c-.19-.16-.37-.33-.56-.49s-.37-.32-.56-.49-.37-.33-.56-.49-.37-.33-.55-.5-.37-.33-.55-.5-.37-.33-.55-.5c-.02-.01,0,.03.02.03Z"/>
  <path class="b" d="M583.13,13.46c-.15.19-.28.4-.39.61s-.22.43-.33.65-.22.44-.36.63-.31.36-.53.49c-.19.11-.41.19-.68.22-.1-.21-.2-.42-.28-.63-.09-.22-.16-.44-.22-.65-.07-.23-.12-.46-.15-.68-.03-.24-.04-.47-.03-.69,0-.24.04-.47.1-.68.07-.22.16-.43.29-.62s.28-.35.46-.51c.21-.18.42-.32.64-.43.24-.12.48-.21.72-.26s.51-.08.77-.07.51.05.76.12.49.14.73.24.47.2.7.32c0,.32-.06.58-.16.79-.13.26-.32.45-.54.59s-.48.23-.74.32-.53.16-.76.25Z"/>
  <path class="b" d="M90.59,2.91c-.08.17-.15.38-.22.6s-.14.42-.22.6c-.11.24-.24.42-.4.47-.21.06-.43.08-.66.09s-.44-.02-.67-.04-.44-.07-.66-.1-.45-.06-.67-.08c-.02-.22-.04-.42-.06-.61-.03-.23-.04-.43-.06-.61-.03-.24-.05-.43-.07-.6.12-.24.27-.43.44-.57.19-.15.41-.24.66-.27.21-.02.45,0,.71.07.21.06.43.15.67.27.2.1.41.22.62.36.19.12.39.26.59.42Z"/>
  <path class="b" d="M211.91,3.83c0-.29,0-.59,0-.89s0-.59,0-.89c.2-.1.39-.19.59-.26.21-.08.42-.13.63-.15.22-.02.44,0,.63.09s.35.2.49.4c.12.16.18.37.21.59.03.21.04.42.04.63,0,.23,0,.45.02.63-.22.2-.42.34-.62.44-.26.14-.5.19-.73.18-.25-.02-.48-.12-.7-.27-.19-.13-.38-.31-.57-.5Z"/>
  <path class="b" d="M510.65,1.64c.23.03.44.06.65.09.23.03.44.06.65.09s.43.06.65.09.42.06.65.09c-.02.24-.04.46-.05.67-.02.25-.03.47-.05.68-.02.25-.04.47-.05.67-.23.19-.44.33-.64.41-.26.11-.51.13-.74.09s-.45-.16-.67-.34c-.18-.14-.36-.32-.54-.53.01-.2.03-.41.05-.67.02-.2.03-.42.05-.67.02-.2.03-.43.05-.68Z"/>
  <path class="b" d="M99.39,4.96c.27.06.52.11.77.16s.51.11.76.16.5.11.76.17c.24.05.5.1.77.16-.08.24-.15.46-.21.66-.08.24-.14.46-.21.66-.07.23-.14.45-.21.66-.26-.04-.5-.09-.71-.12-.28-.05-.51-.1-.7-.15-.29-.08-.49-.17-.64-.31-.16-.15-.26-.34-.31-.62-.04-.19-.05-.43-.06-.71,0-.21-.01-.45-.02-.72Z"/>
  <path class="b" d="M388.05,1.68c.02.28.04.54.05.77.01.3.02.55,0,.77-.02.33-.08.57-.19.73-.14.2-.35.3-.66.32-.21.02-.46,0-.76-.04-.22-.03-.48-.07-.76-.12.02-.19.01-.41,0-.62s-.01-.43,0-.62c.02-.23.08-.44.21-.57.16-.16.38-.26.65-.33.22-.06.47-.1.72-.14.23-.04.48-.08.72-.15Z"/>
  <path class="b" d="M72.52,29.15c.22.14.43.27.62.4.22.14.42.27.62.4.21.14.42.27.62.4s.41.26.62.39.4.26.61.4c-.21.13-.4.24-.58.34-.21.13-.4.24-.57.34-.19.12-.38.23-.57.34-.23-.1-.45-.2-.68-.3-.22-.1-.44-.2-.69-.31-.21-.1-.44-.2-.69-.31.08-.24.15-.46.23-.69.07-.21.14-.44.22-.69.07-.21.15-.44.23-.7Z"/>
  <path class="b" d="M199.78,5.17c.23,0,.43,0,.63,0,.22,0,.42,0,.63,0s.41,0,.63,0c.2,0,.41,0,.64,0-.07.22-.13.44-.18.64-.06.23-.11.45-.18.65-.08.23-.17.43-.32.57-.13.12-.44.16-.75.13-.29-.03-.58-.12-.72-.26-.18-.18-.24-.48-.28-.83-.03-.28-.05-.58-.11-.89Z"/>
  <path class="b" d="M107.09,23.39c.23.12.44.22.64.33.23.12.43.23.63.33.22.11.42.22.63.33s.41.21.63.32c-.15.29-.27.53-.4.77-.13.26-.26.5-.4.77-.24-.1-.46-.18-.68-.27-.23-.09-.45-.18-.67-.27s-.44-.17-.68-.26c.03-.23.06-.44.1-.68.03-.2.06-.42.1-.68.03-.2.06-.43.1-.69Z"/>
  <path class="b" d="M498.86,5.15c.21,0,.41,0,.63,0,.2,0,.41,0,.63,0,.19,0,.41,0,.64,0-.01.26.01.53.02.78.01.3,0,.57-.14.74-.13.16-.38.31-.64.41s-.55.13-.75.07c-.32-.1-.54-.25-.67-.45-.13-.21-.16-.48-.08-.8.06-.23.18-.47.35-.75Z"/>
  <path class="b" d="M229.15,31.78c-.23-.08-.46-.16-.7-.24-.22-.07-.45-.15-.7-.23-.22-.07-.45-.15-.7-.24-.22-.07-.46-.15-.71-.24.23-.15.44-.29.63-.42.22-.15.43-.28.63-.42.21-.14.41-.28.62-.41.2-.13.4-.27.62-.42.1.24.2.46.28.67.1.24.2.45.29.66.1.23.19.45.28.66-.18.21-.36.41-.54.62Z"/>
  <path class="b" d="M525.26,30.7c.22-.15.43-.29.61-.42.22-.15.42-.29.61-.42.21-.15.41-.29.61-.42.27.1.51.23.7.37.24.18.41.39.45.63s-.02.47-.23.73c-.21.27-.41.42-.62.48-.25.07-.51.02-.77-.11-.22-.1-.44-.25-.69-.41-.21-.14-.43-.3-.67-.44Z"/>
  <path class="b" d="M194.07,25.95c-.18-.13-.36-.25-.54-.38s-.36-.26-.54-.38-.36-.25-.55-.38c.04-.21.08-.42.12-.63.26-.06.54-.18.82-.28.33-.11.64-.18.83-.07.21.13.3.43.38.76.06.28.11.6.19.85-.24.17-.47.33-.71.5Z"/>
  <path class="b" d="M398.71,7.33c-.11-.27-.22-.55-.33-.83s-.22-.55-.33-.82c.19-.07.37-.15.56-.22s.37-.15.56-.22.37-.15.56-.22c.14.14.27.28.41.42-.07.2-.13.41-.2.61s-.13.41-.2.61-.13.41-.2.61c-.28.02-.56.04-.83.06Z"/>
  <path class="b" d="M373.11,30.98c-.2.1-.41.2-.63.3-.19.09-.4.19-.64.31-.19.09-.41.2-.64.31-.06-.23-.11-.44-.16-.63-.06-.22-.11-.43-.16-.62-.05-.21-.11-.42-.16-.62.13-.13.26-.25.39-.38.23.08.46.17.69.25s.46.17.69.25.46.16.69.25c-.02.19-.04.39-.06.58Z"/>
  <path class="b" d="M50.08,25.53c-.25-.16-.48-.3-.7-.44-.24-.15-.47-.29-.7-.44s-.45-.29-.69-.44c.16-.22.3-.39.42-.56.14-.18.26-.35.42-.56.22.1.45.2.67.3.21.1.44.19.68.3.21.09.43.19.68.3-.14.28-.26.52-.39.76s-.25.48-.39.76Z"/>
  <path class="b" d="M492.32,23.15c.13.19.25.36.36.51.14.2.27.36.37.51.14.21.23.38.24.56,0,.15-.12.37-.26.56-.17.22-.38.4-.48.38-.2-.05-.44-.17-.64-.31-.22-.16-.4-.35-.44-.54-.04-.16.04-.35.18-.58.09-.15.21-.33.34-.53.1-.16.22-.35.33-.55Z"/>
  <path class="b" d="M405.6,24.16c.23-.12.45-.22.65-.27.26-.06.49-.04.66.11.14.12.23.32.28.63.02.14-.1.38-.26.58s-.37.37-.51.37c-.29,0-.5-.05-.65-.16-.18-.13-.26-.34-.27-.59,0-.2.03-.43.09-.67Z"/>
  <path class="b" d="M551.98,23.99c-.23.22-.4.38-.54.49-.25.19-.41.21-.67.09-.15-.08-.34-.21-.6-.4.09-.23.19-.42.3-.57.15-.22.32-.34.51-.35.17,0,.35.08.57.27.13.12.28.27.43.48Z"/>
  <path class="b" d="M252.29,23.09c.22.23.39.4.5.55.21.26.24.43.12.67-.08.16-.21.34-.41.61-.23-.09-.42-.18-.57-.28-.21-.15-.32-.32-.33-.52,0-.17.08-.36.24-.57.11-.14.26-.29.44-.46Z"/>
  <path class="b" d="M348.66,24.06c-.2.29-.38.49-.56.62-.27.2-.52.2-.77.02-.17-.13-.34-.35-.52-.65.12-.21.24-.39.36-.52.18-.19.36-.28.55-.27.17.01.35.11.54.3.12.13.25.29.39.5Z"/>
</svg>