<?xml version="1.0" encoding="UTF-8"?>
<svg id="a" data-name="Layer 1" xmlns="http://www.w3.org/2000/svg" viewBox="0 0 1920 64">
  <defs>
    <style>
      .b {
        fill: none;
      }

      .c {
        fill: #242424;
      }
    </style>
  </defs>
  <path class="b" d="M1534.41,32.11l2.09,1.13c1.31-1.25,2.64-2.38-2.09-1.13Z"/>
  <path class="b" d="M1372.07,25.28c1.71-2.81,4.36-5.84,4.33-8.6-.9-.08-1.78-.07-2.61.05,5.46,2.17-5.72,6.34-1.72,8.55Z"/>
  <path class="b" d="M841.41,35.55c-3.96-1.44-6.01-3.82-8.66,1.16,1.7,2.56,6.33-.25,8.66-1.16Z"/>
  <path class="b" d="M461.19,39.64c3.18.06,5.91-.42,8.63-.99-3.15-1.38-6.27-2.24-9.33-2.74-.33,1.47-1.12,2.87.7,3.73Z"/>
  <path class="b" d="M1023.82,25.09c-2.75-1.11-5.23-1.27-7.42-.92,3.02,1.65,5.69,2.36,7.42.92Z"/>
  <path class="b" d="M248.05,38.75l.06-.02s-.03-.02-.05-.05c0,.03-.01.04-.01.07Z"/>
  <path class="b" d="M247.94,38.19c-.67-.28-.47.01.12.49.02-.2.12-.38.17-.57-.07.01-.24.03-.29.08Z"/>
  <path class="b" d="M248.86,36.65c-.28.45-.54.92-.63,1.46,1.26-.46,4.64-.66.63-1.46Z"/>
  <path class="b" d="M1305.27,33.84c-4.19.25-8.41-.06-12.4-.6-1.06,1.66-1.57,3.24-1.37,4.58l13.77-3.98Z"/>
  <path class="b" d="M310.41,24.76c-.62.39-1.17.76-1.68,1.11.8-.13,1.58-.25,2.31-.34l-.63-.77Z"/>
  <path class="b" d="M246.49,29.33c-1.04.18-2.15.4-3.39.68l1.01,1.24c1.15-.6,1.76-1.27,2.38-1.92Z"/>
  <path class="b" d="M357.84,24.05c-2.73-.74-1.89-1.43-.27-2.25-5.39.78-10.99,3.43-8.5,5.68,3.1-1.07,6-2.37,8.77-3.43Z"/>
  <path class="b" d="M489.51,41.03l-1.59-3.5c-.79-.11-1.54-.19-2.28-.26-1.94,1.33.91,2.99,3.87,3.76Z"/>
  <path class="b" d="M427.62,23.27c-13-3.97-20.42,4.33-28.33,6.19l9.31-1.1c4.02-2.7,8.69-5.7,19.02-5.09Z"/>
  <path class="b" d="M390.92,36.63c-.08.09-.15.14-.25.21,1.79.4,3.15.77,3.41.82-.22-.09-1.17-.38-3.16-1.03Z"/>
  <path class="c" d="M780.25,37.23l-3.39,1.01c1.61-.31,2.64-.65,3.39-1.01Z"/>
  <path class="c" d="M804.82,37.47l.6-1.75c-1.14.97-1.6,1.68-.6,1.75Z"/>
  <path class="c" d="M1002.67,32.91l-6.52-2.52c1.46.88,3.56,1.72,6.52,2.52Z"/>
  <path class="c" d="M642.09,45.34c6.2-.02,3.47-2.03,3.96-3.98l-3.96,3.98Z"/>
  <path class="c" d="M159.37,38.13c-.35-.18-.78-.26-1.1-.47-.11.53.38.56,1.1.47Z"/>
  <path class="c" d="M1175.77,33.98c.15-.04.23-.14.36-.19-.15-.04-.34-.09-.47-.14l.11.33Z"/>
  <path class="c" d="M1899.93,35.64c.14.08.28.15.43.24-.15-.1-.27-.24-.44-.3-.06-.02-.11-.03-.17-.04.06.03.12.06.18.1ZM1279.96,40.37s.08-.01.12-.02c-.04-.01-.08-.02-.12-.02-.23-.02-.31.02-.44.04.14.01.29.02.44,0ZM1045.19,30.19h.15c-.05-.05-.11-.08-.18-.09-.23-.05-.44-.1-.7-.14.26.04.47.21.73.23ZM789.91,35.34s.08-.05.12-.08c-.04-.01-.09-.01-.14-.01-.29.02-.34.05-.53.05.2.02.42.12.55.04ZM591.75,42.17s.03-.01.04-.02c-.01,0-.03,0-.04.01-.21.05-.28.13-.38.2.13-.06.25-.14.38-.19ZM370.52,38.49s.04,0,.06-.02c-.02-.01-.05-.01-.08-.01-.14,0-.22-.01-.28-.01.1.04.2.07.3.04ZM370.2,38.45c-.13-.04-.26-.09-.4-.06.21.04.29.05.4.06ZM285.74,34.33c.07-.04.12-.09.16-.15-.07,0-.15,0-.22.02-.17.04-.28.17-.43.26.18-.04.35-.04.49-.13ZM244.66,35.95s.06-.01.09-.02c-.05,0-.09-.02-.14-.03-.07-.02-.15-.04-.25-.06.09.06.18.12.3.11ZM243.16,37.98s.02-.01.02-.01c0-.04.01-.08.02-.11-.02,0-.04.01-.07.01,0,.01.02.07.03.11ZM236.69,36.44c-.07-.02-.13-.05-.23-.05.09.02.16.04.23.05ZM135.22,33.04c.12-.06.18-.12.23-.18-.04.02-.1.04-.16.07-.24.1-.32.13-.46.19.11,0,.21,0,.39-.08ZM133.29,33.62c.33.17.29.11.64-.03.35-.14.31-.23.66-.37.11-.04.18-.07.24-.1-.09.01-.18.02-.32.09-.33.15-.38.03-.71.18-.32.15-.83.06-.51.23ZM.43,24.1c.23.04.49-.06.73-.01.23.05.48.02.72.08.23.06.39.37.62.44.22.06.52-.08.75,0,.22.07.39.32.62.4.22.07.46.12.68.2.23.09.5.03.73.12.22.08.39.3.61.39.22.08.45.14.67.23.22.09.5.04.72.13.22.09.42.22.64.31.22.09.42.23.64.33.22.09.4.26.62.35.22.09.48.1.7.19.22.09.45.17.67.26.22.09.48.08.7.17.22.08.43.2.65.28.23.08.38.37.6.45.23.08.51-.01.74.07.22.07.36.43.59.5.23.07.52-.06.75,0,.23.07.42.29.65.35s.46.15.69.21c.23.05.54-.23.77-.18.24.04.43.31.67.35.23.04.48-.03.72,0,.24.03.47.11.7.14.24.02.48.11.72.12.23.01.48.08.72.08s.48-.07.72-.08c.23-.01.48.01.72-.01.23-.02.47-.07.71-.1.24-.03.44-.27.67-.31.24-.05.51.1.75.05.23-.06.49-.04.72-.11.22-.07.43-.23.65-.32.23-.07.37-.37.59-.47.22-.09.42-.2.64-.3.21-.11.52-.01.74-.12.2-.11.3-.42.51-.54.2-.12.48-.12.69-.25.19-.13.36-.31.56-.45.19-.14.33-.34.52-.49.19-.15.47-.21.65-.36.24.14.33.42.47.56.21.21.61.26.64.46.04.22-.17.5-.31.72-.12.18-.23.42-.41.6-.16.16-.31.35-.49.51-.17.16-.48.18-.64.35-.17.18-.18.44-.28.63-.11.22-.16.37-.12.61.03.2-.01.48.16.7.17-.19.38-.39.55-.56.17-.18.22-.48.4-.64.19-.17.47-.21.66-.36.2-.16.46-.2.66-.34.2-.14.29-.45.5-.57.21-.13.4-.32.62-.43.21-.11.52-.03.75-.13.22-.09.49-.03.73-.11.23-.08.41-.29.65-.35.23-.06.44-.3.68-.34.24-.05.49-.06.74-.09.23-.03.49.07.74.05.24-.02.48.04.73.03.24,0,.49-.18.74-.17.24,0,.47.23.72.24.24.02.49-.02.73,0,.24.02.5-.14.75-.12.24.03.47.13.72.16.24.03.47.13.72.17.24.04.5-.07.75-.03.23.04.48.09.72.14.24.05.48.11.72.16.24.05.39.18.64.24-.12.3-.03.39-.25.63s-.61-.02-.74.28c.24-.01.64.08.88.08.24-.01.47-.05.71-.06s.49.13.73.13c.24-.01.47-.2.71-.21.24,0,.48.05.72.04.24,0,.48.15.71.14.24,0,.48-.18.72-.18s.48-.17.71-.17.48.14.71.14.48.17.72.18c.23,0,.6-.15.83-.15-.01.28-.66.61-.38.62.48,0,.45-.29.89-.48.24,0,.42.02.66.03.24,0,.49-.08.72-.07.25,0,.49.03.73.04.24,0,.49-.26.73-.25.25.01.48.1.72.11.25.01.48.27.72.28.24.01.49-.21.73-.2.24.02.47.13.71.15.24.01.49-.04.72-.02.25.01.47.23.71.24.24.02.49-.11.73-.09.24.01.49-.06.73-.04s.48.02.72.04c.24.02.45.27.69.29.24.02.49-.09.73-.07.24.03.47.15.71.17s.49-.08.72-.06c.24.03.46.25.69.27.24.03.5-.11.73-.08.24.03.46.22.69.25.24.03.52-.27.75-.24.24.03.55.23.79.26-.01.23-.29.14-.27.37.29-.03.5-.05.8-.08.29-.03.58-.01.88-.05.23.03.49-.14.73-.11.24.03.47.09.71.13.24.03.45.26.68.3.24.03.48.05.72.09.24.03.5-.1.74-.06.24.03.43.37.67.4.24.04.49,0,.73.03.23.04.47.11.71.14.23.04.52-.25.76-.21.24.03.45.22.69.26.24.04.44.29.68.33s.49-.04.73,0c.24.03.47.12.71.15.24.04.51-.12.74-.09.24.04.48.09.72.13.23.03.47.08.71.12.24.04.47.12.71.16.23.04.48.02.72.05.24.04.49-.02.73.02.24.03.43.36.67.4.23.03.5-.12.74-.08.23.03.47.06.71.1.24.03.48.01.72.04.24.04.44.3.68.34.24.03.49-.02.73.02.23.03.47.1.71.13.23.03.5-.12.74-.09.24.04.47.12.71.15.24.04.48.08.72.11.23.03.47.11.71.15.24.03.47.1.71.13.24.03.48.1.72.13s.48.07.72.1c.24.03.48.01.72.04.24.02.48.05.72.08.24.03.47.15.71.18.24.03.51-.15.75-.13.24.03.49-.03.73,0,.24.03.48.1.72.13.24.02.45.33.69.36.24.03.51-.2.76-.17.24.02.46.23.7.25.25.03.46-.03.71,0-.01-.35.05-.38-.08-.7-.13-.32-.31-.25-.44-.57s-.02-.36-.15-.68c-.13-.33-.26-.28-.39-.6-.13-.32,0-.37-.13-.69-.14-.33-.27-.27-.4-.6-.13-.32-.08-.32-.08-.67.25.03.36.09.6.12.26.04.48.17.72.21.25.04.51-.03.74.01.26.05.51.03.74.08.26.06.45.29.68.35.25.07.52.01.75.09.24.08.45.21.67.3.24.1.45.23.66.33.23.11.5.12.71.23.22.12.41.29.62.41.22.12.48.13.7.25.21.12.32.43.55.54.21.11.51.29.74.4.18-.19.35-.5.48-.68.17-.21.37-.38.47-.56.14-.25.25-.51.29-.71.05-.27-.03-.59-.14-.79-.11-.18-.48-.13-.71-.26-.19-.11-.34-.29-.59-.36-.21-.06-.42-.22-.67-.26-.22-.04-.45-.14-.7-.16-.23-.03-.48.09-.72.07-.23-.01-.46-.17-.7-.19-.23-.01-.48.07-.72.06-.23-.01-.47-.02-.7-.03-.24-.02-.48-.11-.71-.13-.24-.01-.48.09-.72.07-.24-.02-.46-.2-.7-.22s-.47-.07-.7-.1c-.24-.03-.49.09-.72.05-.24-.05-.47-.11-.69-.17-.24-.07-.41-.27-.61-.36-.23-.1-.54-.02-.7-.17-.19-.16-.48-.32-.55-.54-.08-.2.11-.49.15-.75.03-.21-.07-.49.03-.74.09-.2.45-.27.58-.5.12-.18.13-.44.29-.64.14.19.39.26.56.44.16.17.35.3.54.45.18.16.34.32.54.46.19.14.35.31.56.43.2.13.37.31.59.42.21.11.47.1.69.2.22.1.44.17.66.26.22.09.42.24.65.31.22.08.43.2.67.27.22.07.43.21.67.28.22.05.5-.05.73,0,.23.05.43.28.67.33.23.05.49-.06.73-.02.24.04.44.28.68.32.23.03.47.14.7.17.24.03.48.05.72.08.24.03.51-.18.75-.16.23.03.46.16.7.18.23.02.47.08.71.1.23.02.47.07.71.08.24.02.48-.06.72-.04.24.01.48.03.72.04s.47.16.71.18c.24.01.5-.3.74-.29.23.01.47.23.71.24s.48-.01.72,0c.23.01.48-.13.72-.12s.48-.07.72-.06.48.27.72.28c.24,0,.48-.27.72-.26.25,0,.48.24.72.24.24.01.48.14.72.15.25,0,.49-.2.73-.2.24,0,.48.15.72.16.25,0,.49-.14.73-.14.24.01.48.23.72.24.24.01.49-.15.73-.14.24,0,.48.18.72.19.24,0,.48.05.72.06.25,0,.5-.3.74-.29.25.01.49.04.73.06.24.01.46.32.7.34.24.01.5-.23.74-.21.24.02.48.11.72.13s.48.03.72.05c.24.03.46.22.7.25.24.03.49-.09.73-.05.24.03.49-.04.73,0,.24.03.43.3.67.35.24.04.49,0,.72.06.24.05.5-.02.73.03.24.06.48.07.71.14.24.06.38.43.6.5.23.07.48.08.7.16.22.09.49.08.71.17-.27.24-.35.11-.67.26-.2.09-.24.2-.32.31.19-.1.23-.17.52-.28.35-.14.34-.23.71-.31.22.1.51.22.71.32.2.11.28.43.47.55.2.12.47.12.65.25.19.14.35.31.52.45.17.16.22.43.37.59.16.17.53.15.67.33.14.18.27.38.39.58.11.19.13.44.22.65.26,0,.49.21.71.2.26-.01.5-.13.71-.15.27-.03.52-.02.72-.07.28-.06.55-.12.73-.21.25-.14.31-.47.39-.66.08-.21.06-.43,0-.68-.05-.21-.01-.49-.11-.71-.1-.22-.4-.35-.49-.56-.1-.23.04-.53-.01-.74-.06-.25-.26-.48-.17-.69.08-.19.27-.34.53-.48.17-.09.41-.13.68-.19.2-.05.44.04.71.01.21-.02.43-.26.69-.27.22-.01.47.04.72.05.28.22.19.31.4.59.22.28.09.38.31.66.22.28.34.19.56.47.22.28.2.3.42.58.22.28.12.41.48.39.34-.02.12-.19.29-.5.17-.3.16-.3.34-.6.17-.31.13-.33.3-.63.17-.31.35-.21.52-.51q.18-.3.35-.61c.18-.3-.05-.49.19-.73.24.02.59.04.82.08.24.04.47.1.7.15.23.06.48.08.7.15.24.06.42.26.64.34.23.08.49.08.7.17.22.09.39.3.6.4.21.11.39.28.59.4.2.13.53.07.71.2.2.15.21.52.38.67.19.16.37.3.53.46.17.17.37.3.52.47.16.19.33.35.46.54.14.2.26.4.37.6.12.21.43.33.51.54.1.23-.09.55-.03.77.06.24.27.52.28.74-.21-.04-.53.02-.8.03-.23.01-.47,0-.73.05-.23.04-.51-.1-.76-.04-.25.05-.48.14-.73.2-.24.06-.44.32-.67.38-.26.06-.51.07-.75.13-.26.06-.58.01-.81.04.22.1.53.12.75.21.22.08.44.17.67.24.22.07.46.11.69.17.23.05.41.33.65.38.23.05.48.02.72.06.23.04.47.08.7.11.24.03.48-.03.72-.01s.48.08.71.09c.24,0,.48-.13.72-.12.24,0,.48.12.72.12s.47-.04.71-.04c.24-.01.48-.13.71-.14.24,0,.49.13.73.11.24-.01.47-.05.71-.07.24-.02.47-.15.71-.18.24-.02.51.25.74.23.24-.03.44-.39.68-.42.24-.02.48.01.72-.02s.5.12.74.08c.24-.03.48.02.72-.01.24-.04.43-.36.67-.39.24-.04.5.09.73.05.24-.03.48-.01.72-.04.24-.04.46-.2.69-.23.24-.04.46-.2.69-.23.24-.03.53.27.76.24.24-.04.44-.36.67-.38.24-.03.59,0,.81-.01-.17.14-.23.42-.32.59-.09.18-.16.29-.17.49,0,.19-.13.3-.08.51.36-.02.36,0,.7-.12.34-.13.3-.22.64-.34s.41.06.75-.06c.34-.13.35-.11.69-.23.34-.13.27-.3.61-.42.34-.12.32-.18.66-.3.34-.13.39,0,.73-.13.34-.12.26-.33.61-.45.34-.13.43.13.77.01.35-.13.33-.18.64-.37-.25-.01-.49-.15-.73-.16-.26,0-.51.27-.75.26-.26,0-.5-.1-.74-.1-.26.01-.52-.19-.76-.18-.26.02-.51.09-.74.11-.26.03-.47.35-.69.39-.27.05-.51.04-.73.1-.26.07-.53.24-.72.34-.35-.02-.29-.45-.62-.53-.34-.07-.35.01-.69-.06q-.34-.08-.67-.15c-.34-.07-.35-.02-.68-.09-.34-.08-.34-.09-.67-.17-.34-.07-.39.15-.72.08-.34-.07-.28-.34-.62-.41-.34-.07-.4.2-.73.12-.34-.07-.32-.19-.64-.32.23-.02.47.05.7.02.23-.02.47.02.71,0,.23-.03.45-.15.68-.17.23-.02.45-.23.68-.25.23-.02.46-.06.69-.08.24-.02.5.27.73.25.23-.02.45-.26.68-.27.23-.02.48.16.71.14.24-.02.47,0,.7-.02.23-.01.45-.34.68-.36.23-.01.48.18.71.17.24-.02.46-.22.69-.24.24-.01.48.08.71.07.23-.02.46-.09.7-.1.23-.01.47.13.71.12.23-.01.47-.04.7-.05.22,0,.43-.07.64-.08-.02-.01-.05-.01-.07-.01.1-.05.12-.07.25-.11.24,0,.5.12.74.11.24-.01.47-.11.71-.11.24-.01.48-.1.72-.11.24,0,.48.13.72.13.24,0,.47-.18.71-.19.24,0,.48.03.72.03.24-.01.48.07.72.06.24,0,.48-.09.72-.1.24,0,.48-.07.72-.07.24-.01.48.01.72.01.24-.01.48.22.72.22s.48-.17.72-.18c.24,0,.48.22.72.22s.48-.06.72-.06c.24-.01.48-.05.72-.05s.48-.17.72-.17c.24-.01.48-.04.72-.04s.48.17.72.17.48.03.72.03.48.09.72.09.48-.14.72-.14.48.12.72.12.48-.25.72-.25.48.18.72.18.48-.06.72-.07c.24,0,.48.09.72.09s.48.05.72.05.48-.15.72-.15.49.1.73.1.48-.2.72-.2.48-.06.72-.07c.24,0,.48.05.72.05s.48-.06.72-.06.49.09.73.09.48.26.72.26c.24-.01.48-.37.72-.37.24-.01.49.31.73.3.24,0,.48-.06.72-.06.24-.01.48-.22.72-.22s.48.05.72.05c.24-.01.49.16.73.16.24-.01.48.03.72.02.25,0,.49-.06.73-.07.24,0,.48-.02.72-.03.24,0,.48-.08.72-.08.24-.01.48-.03.72-.04.24-.01.48-.13.72-.14.24-.01.49.05.73.04s.48.02.72.01.48-.15.72-.16.48-.02.72-.03.48-.07.72-.08c.24-.02.48.03.72.02s.49.04.73.03c.24-.02.47-.22.71-.24.24-.01.49.12.73.1.24-.02.49.08.73.07.24-.02.46-.27.7-.29s.51.3.75.28c.24-.02.45-.29.69-.32.24-.02.49.07.73.04.24-.02.49,0,.73-.02.24-.03.47-.09.71-.11.24-.03.46-.25.7-.28.24-.03.5.15.74.12.23-.03.46-.13.7-.16.24-.03.51.14.74.11.24-.03.44-.4.67-.43.24-.04.5.05.73.01.24-.03.51.13.74.09.24-.04.48-.06.72-.1.24-.03.43-.34.67-.38.24-.04.48,0,.72-.06.24-.04.45-.19.69-.23.24-.05.51.12.75.08.23-.04.47-.07.71-.12.23-.05.43-.3.66-.35.24-.05.52.14.76.09.23-.05.45-.19.68-.24.23-.06.44-.23.67-.29.23-.05.51.06.74,0,.23-.05.45-.17.68-.23s.49-.12.73-.18c-.02-.21-.19-.11-.19-.32.26-.02.4.05.63.04.27-.02.51.07.73.06.28,0,.52-.12.73-.12.29,0,.53.05.73.06.36.03.65-.11.77-.04.23.13.12.5-.18.73-.16.13-.37.29-.6.44-.19.13-.55.05-.75.2-.2.14-.28.46-.45.61-.2.18-.3.38-.41.56-.13.23-.13.34-.04.57.07.18,0,.49.25.67.17.12.38.27.64.39.2.09.48.05.74.13.21.07.48,0,.73.07.22.06.24.33.5.39-.23.06-.26.2-.48.25-.23.05-.51-.14-.73-.1-.23.05-.44.18-.66.22-.23.04-.43.24-.66.27-.23.04-.45.13-.68.16-.23.04-.47.03-.7.06-.23.02-.47-.1-.7-.08-.23.03-.44.26-.67.28-.23.03-.47-.05-.7-.03-.23.02-.46.04-.69.06h-.05s.07.01.11.02c.25.05.49.12.73.17.25.06.47.18.71.24.25.06.45.28.69.34.24.05.56-.22.8-.16.25.07.44.3.68.36.24.07.46.2.7.26.24.07.52,0,.75.07.24.08.41.37.65.45.23.07.51-.02.74.06-.12-.08-.17-.24-.28-.34h-.01s-.01.03-.01.04c0,0-.01-.01-.01-.02,0,0-.03.03-.05.03h-.01c-.21-.19-.36-.34-.45-.46-.17-.2-.09-.3.34-.1.05-.05.27,0,.37,0-.01,0-.01.01-.02.01-.04.15-.1.26-.14.4.28,0,.34.23.66.17.34-.05.34-.06.69-.11.34-.06.33-.17.67-.22.35-.06.37.05.71,0,.35-.06.31-.3.66-.36.35-.05.36,0,.71-.05.34-.06.38.14.72.09.35-.06.36,0,.71-.06.35-.06.33-.14.68-.2.35-.05.33-.16.68-.21.35-.06.34-.12.69-.18.35-.05.33-.14.68-.2.35-.05.39.18.74.12q.35-.06.7-.12c.35-.05.37.09.72.03s.33-.14.68-.19c.35-.06.34-.12.69-.18.35-.06.37.03.72-.03.35-.05.33-.18.68-.24.35-.05.31-.16.65-.27-.24-.05-.4-.01-.65-.05-.24-.04-.5.07-.75.04-.23-.02-.48,0-.73-.02-.24-.02-.46-.3-.71-.31-.24-.02-.49.02-.74.01-.24-.01-.49.01-.74,0-.23,0-.48-.07-.73-.07s-.48.16-.73.17c-.24,0-.48.21-.73.22-.24.01-.5-.34-.75-.33-.24.01-.48.09-.73.1-.24.01-.49.04-.74.05-.23.01-.47.23-.71.24-.24.02-.5-.19-.75-.18-.24.02-.49.06-.74.08-.24,0-.48.04-.73.06-.21.01-.41.21-.63.27.21.05.4.07.54.12.39.13.67.36.69.46.02.13-.37.28-.71.38-.19.06-.43.1-.67.16-.22.05-.47.02-.69.07-.22.06-.36.22-.52.31.03-.29-.08-.63.03-.87.11-.26.28-.6.42-.84.16.03.35.08.52.12-.1-.06-.19-.12-.32-.11.12-.21,0-.39.13-.58.14-.19.37-.32.52-.51.15-.18.45-.23.61-.4.17-.17.13-.54.3-.71.17-.16.57-.08.74-.24.18-.15.35-.31.53-.47.18-.15.26-.43.44-.58.18-.15.48-.17.66-.32.18-.16.2-.5.37-.66.18-.16.36-.32.52-.48.17-.17.49-.21.64-.38.16-.19.09-.54.21-.73.13-.21.18-.42.26-.63.09-.22.26-.39.28-.63.02-.23-.09-.59-.14-.83.24.04.63.13.86.17.24.04.5-.03.73.02.24.05.47.1.7.15.24.05.4.41.63.46.23.06.49-.04.72.02s.49.01.72.07.44.19.68.25c.22.05.43.22.67.27.22.05.51-.14.74-.1.23.05.46.1.7.14.23.04.43.3.67.33.23.04.45.16.69.19.23.03.5-.22.74-.19.23.03.45.28.69.3.23.02.48-.15.72-.13.24.01.46.23.7.24s.48.02.72.03c.23.01.47.01.72.01.23,0,.47-.3.72-.3.23,0,.47.2.71.2.24-.01.47-.02.72-.03.23,0,.46-.07.71-.08.23-.01.46-.09.71-.1.23-.02.47.01.72,0,.23-.02.48.11.72.09.24-.01.46-.19.71-.21.23-.03.47.22.72.19h.01c-.13.14-.13.22-.26.36.12-.09.18-.2.33-.28.12.22.26.37.38.59.13.22.39.35.51.56.13.22.08.54.21.75.13.21.39.34.53.55.13.21.03.58.16.79.14.21.47.28.62.48.14.21.35.36.49.56.15.2.09.56.25.76.15.19.58.17.74.36.15.19.14.35.3.53.03-.23.27-.27.31-.5.04-.22.08-.41.17-.64.08-.2-.06-.53.09-.73.12-.17.35-.29.53-.47.16-.14.4-.21.6-.36.18-.12.38-.22.6-.35.18-.11.3-.35.52-.46.2-.1.42-.17.64-.27.2-.1.44-.12.67-.21.2-.09.34-.37.57-.46.21-.08.53.11.75.02.21-.07.38-.31.6-.38.22-.08.49,0,.72-.07.22-.07.47-.26.7-.33-.16-.14-.5-.22-.75-.36-.2-.11-.35-.36-.59-.48-.22-.1-.41-.29-.65-.39-.22-.1-.49-.12-.73-.22-.22-.09-.51-.05-.75-.14-.23-.1-.4-.36-.63-.46-.23-.09-.46-.21-.69-.3-.24-.09-.53-.03-.77-.12-.23-.09-.6-.21-.83-.31.22-.05.62.03.84-.02.23-.04.43-.23.66-.27.22-.04.47.08.7.04.23-.03.45-.13.68-.16.23-.03.46.01.69,0,.23-.03.44-.2.67-.21.23-.02.47.11.7.1.23-.02.46-.23.69-.24.23-.01.46-.07.69-.07s.46.17.7.18c.23,0,.53-.02.76,0-.24.14-.44.34-.59.47-.22.19-.41.31-.46.5-.05.23.07.42.21.64.11.18.17.44.36.62.16.14.35.29.55.44.19.13.38.27.59.41.19.12.34.33.54.46.2.12.46.16.65.29.21.13.45.19.64.32.2.14.44.22.62.35.2.16.36.35.52.5.18.19.18.46.28.65.11.22.37.42.31.65-.05.19-.27.36-.48.55-.1.1-.19.27-.32.41.17,0,.35.03.5,0,.24-.06.5.03.72-.03.24-.05.47-.11.7-.16.23-.06.45-.17.67-.23.24-.06.45-.19.67-.25.24-.06.46-.15.68-.21.24-.06.43-.27.65-.32.24-.07.48-.07.7-.13.24-.06.47-.09.69-.15.24-.07.48-.09.7-.15.23-.07.43-.24.64-.31.24-.07.54.1.76.03.23-.08.48-.1.69-.18.24-.08.36-.44.56-.52.24-.1.43-.22.63-.31.23-.11.54-.02.73-.13.22-.12.39-.3.57-.43.2-.14.47-.18.64-.33.18-.16.34-.34.5-.51.16-.17.2-.44.37-.62.14-.17.24-.39.41-.58.15-.16.35-.3.52-.48.15-.16.49-.15.67-.33.16-.15.18-.47.36-.64.16-.15.37-.27.55-.44.17-.15.29-.37.48-.52.18-.15.34-.33.53-.49.18-.14.54-.34.73-.5-.04.26-.05.65-.06.87-.02.27-.07.49-.03.71.04.26.13.45.24.64.12.22.22.42.43.55.19.12.38.35.63.41.22.04.49-.1.74-.1.23.01.46-.06.71-.08.23-.03.48.01.72-.03.23-.04.48-.05.72-.1.23-.05.45-.15.69-.22.22-.06.49,0,.72-.07s.45-.18.68-.25c.23-.07.44-.18.67-.26.23-.07.42-.28.65-.36.22-.08.49-.06.72-.14.23-.08.51-.1.74-.18-.04-.25.04-.56-.03-.76-.08-.24-.34-.4-.45-.58-.13-.21-.36-.39-.53-.54.19-.17.5-.28.69-.43.19-.16.39-.3.59-.45.2-.14.29-.46.51-.59.2-.13.45-.21.68-.33.21-.11.51-.07.74-.17.22-.1.4-.33.64-.42.22-.08.45-.2.69-.28.23-.07.53.07.78,0,.24-.06.43-.2.68-.26-.15.14-.3.24-.44.4-.14.15-.34.27-.47.44-.12.16-.25.51-.36.69.26.27.48.01.8.19.32.19.3.22.63.4.32.19.36.12.68.3.33.19.24.34.56.52.33.19.31.22.63.4.32.19.44,0,.76.17.33.19.19.43.51.62.33.18.4.05.73.24.32.18.36.12.68.3.33.19.22.36.52.59.07.16.32.33.33.51-.22.09-.54.14-.77.24-.21.1-.46.12-.68.22-.22.1-.41.25-.63.35-.22.1-.52.02-.74.12-.21.1-.3.48-.52.59-.21.1-.54-.04-.76.06-.22.11-.3.48-.52.58-.22.11-.56-.06-.78.05-.21.1-.3.48-.52.58-.21.11-.5.05-.72.16-.22.1-.35.38-.56.49-.22.1-.56-.06-.78.04-.22.1-.4.28-.62.38-.22.1-.38.32-.6.42s-.49.09-.71.19-.4.29-.62.38c-.23.09-.54-.03-.76.06-.23.09-.33.47-.56.56-.22.09-.52-.02-.75.06-.23.09-.51.01-.74.09-.22.08-.39.34-.62.41-.23.08-.43.24-.66.31s-.45.21-.68.27c-.23.07-.52-.05-.75.01-.23.06-.47.13-.7.18-.24.05-.46.18-.7.22-.23.05-.47.12-.71.16-.23.04-.48.02-.72.05-.24.03-.5-.11-.74-.09-.24.02-.47.06-.72.08-.24.01-.47.01-.72.01-.24.01-.48.15-.72.14-.24,0-.49.07-.73.05-.24-.02-.46-.23-.7-.25-.24-.03-.49-.03-.72-.07-.24-.04-.6-.13-.83-.18.14.21.49.4.62.58.16.21.33.38.47.55.17.21.21.48.36.64.19.21.24.5.4.64.23.19.51.25.69.32.25.1.49-.15.72-.17.21-.01.44.2.71.24.2.02.4.11.67.22.18.08.33.27.56.42.18.11.47.09.68.25.18.13.32.33.52.5.17.15.36.28.55.46.16.15.5.14.68.32.16.16.06.6.24.78.16.16.46.2.63.38-.14-.21-.1-.49-.2-.69-.12-.23-.46-.34-.52-.55-.07-.25.18-.51.2-.72.01-.25-.06-.46.06-.66.12-.19.35-.24.56-.38.18-.13.26-.47.5-.56.2-.08.51.12.75.06.22-.06.38-.44.62-.48.23-.04.47-.03.72-.06.22-.03.47,0,.71-.02.23-.02.47-.07.71-.08.23-.01.47.14.71.14.23-.01.47-.02.7-.02s.47-.05.71-.05.47.08.71.08.48-.14.71-.14.48.25.71.25.48-.31.72-.31.47.26.71.26.48-.06.71-.06c.24-.01.48.07.71.07.25,0,.48-.21.71-.22.24-.02.5.16.73.14.24-.03.45-.32.67-.35.25-.04.51.05.72,0,.26-.05.45-.22.65-.3.25-.1.55-.07.71-.2.19-.17.09-.48.14-.71.04-.2.01-.35-.07-.62-.07-.19-.08-.41-.22-.64-.11-.18-.34-.48-.5-.68.17.18.55.36.72.53.18.17.22.49.4.65.18.16.34.36.53.51.19.16.55.1.75.24.2.14.3.43.5.56.21.13.52.09.73.21.22.12.44.2.66.31.22.1.36.38.58.47.23.1.49.09.72.17.23.08.44.22.67.29.24.07.46.17.7.23.23.06.45.19.69.24.24.06.5.02.73.07.24.05.45.23.69.28.23.05.54-.21.78-.15.23.05.38.47.62.53.24.05.55-.2.79-.14.23.06.44.23.67.3.23.07.51.02.74.1.23.08.46.16.7.25.22.08.39.33.62.43.22.09.46.15.68.25.22.1.39.3.61.41s.52.06.73.18c.21.12.39.31.6.44.21.12.5.12.71.26.2.13.2.55.41.7.19.13.4.26.6.41.19.15.46.11.66.26-.03-.23.01-.45-.07-.68-.08-.23-.19-.46-.27-.67-.11-.24-.12-.47-.15-.67-.05-.26-.13-.39.08-.56.14-.1.32-.19.63-.24.2-.04.42-.27.7-.28.21,0,.46.17.72.18.22,0,.46-.02.72,0,.22.02.45.18.7.2.23.02.47.01.72.04.23.02.48-.04.73-.01.11-.19.34-.35.54-.56.17-.19.34-.4.53-.58.22-.19.43-.25.6-.39.23.05.26-.17.46-.11-.15-.07-.18-.03-.34-.11.33-.28.31-.34-.21-.07-.21-.1-.46-.15-.67-.26-.21-.11-.32-.39-.51-.51-.21-.12-.55-.01-.74-.13-.2-.14-.37-.31-.55-.45-.2-.14-.23-.46-.39-.61-.18-.17-.33-.33-.47-.5-.16-.19-.44-.31-.54-.5.15-.18.42-.29.6-.45.17-.16.2-.49.39-.64.18-.14.44-.2.64-.33.19-.13.49-.09.7-.2.2-.11.41-.21.63-.31.21-.1.43-.15.66-.25.21-.09.38-.27.61-.36.22-.08.4-.26.63-.34.22-.07.43-.19.66-.26.23-.07.49-.02.71-.09.23-.06.46-.1.69-.16s.42-.26.65-.31c.23-.06.48-.03.71-.09.23-.05.49,0,.72-.05.23-.05.42-.34.65-.39.23-.04.51-.03.75-.08.22.11.4.38.62.51.21.13.44.24.65.39.2.14.3.41.5.57.19.16.5.18.69.36.18.16.34.36.51.55.17.18.2.49.37.68.16.19.47.1.63.31.17-.19.37-.18.52-.36.16-.2.16-.5.29-.69.15-.22.54-.26.66-.46.13-.23.12-.52.2-.73.1-.25-.03-.52.01-.74.04-.26.1-.47.06-.69-.04-.25-.05-.49-.18-.69.22-.05.44-.13.65-.18.22-.06.45-.06.66-.12.22-.06.39-.25.6-.31.22-.07.41-.17.61-.25.22-.08.49.02.69-.07.21-.09.39-.19.57-.3.26.06.48.07.67.13.28.08.43.26.58.35.29.17.52.28.47.47-.04.17-.26.36-.45.56-.14.15-.38.24-.55.41-.16.16-.42.27-.55.44-.14.2.01.52-.03.73-.04.21-.08.36.05.59.09.17.14.24.35.42.34-.07.28-.11.58-.28.3-.17.38-.04.68-.21.3-.17.3-.16.6-.34.3-.17.35-.09.65-.26.3-.17.17-.39.47-.56.3-.17.35-.08.65-.25.3-.18.37-.07.67-.24.3-.17.21-.34.51-.51.3-.17.27-.22.57-.4.31-.17.32-.19.67-.24.03.24.13.46.22.69.09.23.21.43.34.65.13.2.12.52.28.71.16.19.5.22.67.4.17.18.4.29.58.45.18.17.22.5.41.66.18.16.52.15.71.31s.34.37.52.52c.2.16.42.29.6.44.2.17.41.33.57.49.19.18.24.49.38.67.17.21.21.46.29.66.1.25.07.4.01.64-.04.21-.02.43-.22.63-.15.15-.36.26-.6.41-.19.11-.41.18-.66.29-.21.09-.33.45-.58.54-.21.08-.5-.01-.75.07-.21.06-.4.2-.63.28.28.03.3.22.63.23.36,0,.37-.25.73-.24.36.01.36-.01.73,0,.36.01.35.36.71.37.36,0,.37-.18.73-.17s.36.04.72.05c.37.01.37-.19.73-.18.36.01.36-.03.72-.03.37.01.37.09.73.1.36,0,.36.14.72.15.37,0,.37-.04.73-.03.37.01.38-.1.74-.06.23.09.38.44.61.53.22.09.58-.16.81-.07.22.08.34.47.57.55.23.08.48.11.72.18.23.08.51,0,.74.07.24.06.49.07.73.13.23.06.45.19.69.25.23.06.47.1.71.15s.45.28.69.32c.24.05.53-.18.77-.14.24.05.43.37.68.41.24.03.48.11.72.14.25.03.5,0,.74.02.25.02.5-.08.75-.06.24.02.49-.09.74-.08.24.01.48.08.73.08.24.01.49.22.73.22s.5.02.74.01.49-.04.73-.06c.25-.01.5.01.74-.02.25-.02.46-.34.7-.38.24-.03.54.22.77.17.25-.04.45-.25.69-.31s.47-.15.7-.22c.23-.08.47-.09.69-.18.23.05.46-.02.7-.01.23.02.47.13.7.11.24-.01.49.02.72-.01.23-.04.42-.35.65-.4.23-.05.5.07.72.01.23-.06.46-.14.68-.22.22-.08.47-.08.69-.17.22-.08.48-.1.69-.19.23-.09.32-.47.53-.57.22-.1.47-.12.67-.22.23-.12.44-.22.63-.31.25-.13.4-.37.57-.46.43-.23.61-.23.38,0-.09.1-.16.36-.41.59-.15.13-.37.3-.58.48.36.04.35-.19.71-.25.35-.06.37.05.73,0,.35-.07.37,0,.72-.07.36-.06.33-.24.68-.3.36-.07.37-.03.72-.09.36-.06.35-.1.71-.16.36-.06.38.06.74,0,.35-.07.33-.19.69-.25.35-.06.33-.18.69-.24.36-.06.38.07.74.01.36-.07.35-.1.71-.16.36-.07.37,0,.73-.06.36-.07.35-.14.71-.21.34-.06.33-.09.68-.16.34-.06.34-.07.68-.13.34-.06.33-.15.67-.21.34-.06.35-.02.69-.08.34-.07.38.12.72.06.35-.06.34-.09.69-.15.34-.06.31-.23.66-.29.34-.06.61-.34.84-.08.35.41-.17.67,0,1.18.24.01.49-.08.73-.07.24,0,.48.28.72.28s.48-.25.72-.26c.24,0,.48.11.72.1s.48-.05.72-.07c.24-.01.48.05.72.04.24,0,.49.05.73.04.24-.02.47-.18.71-.2s.48.02.72,0c.24-.02.46-.25.7-.28.24-.02.48-.01.72-.03.24-.03.48-.05.71-.08.24-.03.48-.09.71-.12.24-.03.52.23.76.2.23-.03.44-.34.67-.37.24-.03.49.04.73.01.24-.04.49.05.73.02.24-.03.43-.36.67-.39.24-.04.49.03.73-.01.24-.03.49.02.72-.01.24-.04.49-.02.73-.05.23-.04.48-.05.71-.08.24-.04.44-.33.68-.37.24-.03.52.26.76.22.24-.03.47-.1.71-.13.24-.04.46-.17.7-.21.24-.03.45-.28.68-.32.24-.03.49.01.73-.02.24-.04.47-.11.71-.14.24-.03.5.07.74.04.24-.03.46-.2.7-.23.24-.03.48-.07.72-.1.24-.02.5.17.74.15s.46-.21.7-.23c.25-.02.63.14.87.12-.15.32-.35.21-.58.47-.24.25-.33.17-.57.42-.24.26-.21.28-.45.54-.24.25-.23.26-.47.52-.24.25-.3.19-.54.45s-.17.32-.41.58-.12.34-.32.63c.23-.14.3-.38.52-.49.24-.12.55-.03.78-.13.24-.1.41-.37.65-.45.25-.08.47-.25.71-.31.25-.06.53-.01.78-.05.26-.04.5-.15.76-.17.25-.03.52,0,.77-.02.23.08.48.11.7.19.23.07.38.39.6.46.23.07.46.15.68.22.23.07.55-.18.78-.11.23.06.43.19.66.25s.46.12.68.17c.23.06.43.25.65.31.24.05.44.24.67.29s.48,0,.71.05c.24.04.51-.16.74-.12.23.03.45.16.68.2.23.03.48-.04.7-.01.24.02.47.12.7.14.23.08.51.07.74.15.23.08.41.33.64.4.23.08.48.11.71.18.24.08.52,0,.76.06.22.09.45.17.68.24s.37.45.6.51c.23.07.47.16.7.21.24.06.53-.14.76-.1.24.04.45.33.69.35.24.03.5-.14.74-.13s.48.14.72.14c.24-.01.5.04.74.02.24-.02.45-.31.69-.35.23-.04.52.16.76.1.23-.05.42-.29.65-.37.23-.07.46-.13.69-.22.22-.09.47-.14.69-.25.21-.11.29-.46.5-.59.2-.12.36-.06.56-.2-.25-.14-.38-.21-.63-.31-.26-.11-.45-.36-.7-.46-.23-.09-.51-.07-.74-.15.21-.08.4-.33.62-.38.23-.05.51.09.74.04.24-.05.49.01.73-.05.24-.05.41-.38.65-.43.23-.05.48-.06.72-.1.23-.05.47-.12.71-.16.23-.05.51.14.75.09.23-.04.44-.28.68-.32.24-.04.48-.07.72-.1.24-.04.47.08.72.05.17.16.35.28.54.43.18.16.33.36.52.51.18.14.49.13.69.27.19.14.43.2.64.33.19.13.36.31.57.43.2.12.4.24.61.36.21.1.3.47.52.58.22.09.55-.06.77.03.22.08.37.37.6.45.22.07.51-.04.75.03.22.06.44.17.68.23.23.06.49-.03.72.03.23.04.41.42.65.46.23.05.48.03.72.07.23.03.51-.24.75-.22.24.03.46.14.71.16.23.02.46.16.7.17s.48.01.72.02.48-.1.72-.1.48-.08.72-.08c.24-.01.47,0,.72-.01.23,0,.47.01.72,0,.24-.01.46.08.7.06-.22,0-.41-.18-.65-.2-.22-.03-.45-.03-.68-.07-.23-.04-.52.2-.75.15-.22-.05-.61-.23-.83-.29.05,0,.12-.03.19-.05-.22-.05-.5-.11-.68-.17-.22-.07-.41-.21-.63-.29-.22-.08-.44-.15-.64-.24-.22-.09-.4-.23-.6-.34-.21-.11-.48-.09-.67-.21-.21-.13-.45-.2-.62-.34-.19-.16-.17-.5-.3-.66-.16-.21-.45-.31-.49-.52-.03-.22.17-.41.31-.62.1-.17.14-.54.36-.69.25.02.57.05.83.07.25.03.46.41.72.45.25.03.44-.06.7-.02.21.26.38.17.51.48.13.3-.06.39.07.69.13.31.1.33.23.63.13.31.23.27.37.58.13.31,0,.36.14.67.12.29.44.24.51.49.19-.07.4-.15.55-.17.23-.03.47-.07.71-.09.23-.01.48.22.72.22.23,0,.46.07.7.07.24.01.48-.2.72-.19.23.01.46.23.7.25.23.02.49-.24.72-.22s.46.17.7.19c.23.03.48-.06.72-.03.23.03.47.02.71.05.23.03.46.09.7.12.24.03.45.26.68.29.24.03.46.17.7.2.23.04.47.04.7.07.02,0,.08-.17.1-.17.07,0,.12-.03.19-.03.24.03.47.09.71.12.23.04.43.33.66.37.23.03.49-.09.72-.06.24.03.49-.04.72-.01.23.03.45.19.68.21.23.03.45.19.68.22.24.02.49-.06.72-.04.24.02.48.03.71.05.24.01.48-.17.71-.16.24.01.47.25.7.25s.47-.05.7-.06c.24-.01.49.1.72.08.24-.03.45-.22.67-.26.24-.05.45-.17.66-.23.23-.08.44-.15.64-.26.22-.1.43-.19.61-.34.18-.14.33-.18.47-.37.13.2.17.35.32.54.15.19.53.17.7.35.16.17.12.56.29.72.18.16.4.3.59.45.19.14.43.23.63.36s.36.35.57.47c.2.11.47.15.68.26.22.1.52.02.74.11.21.1.38.31.61.4.22.08.41.26.64.34.23.07.54-.14.77-.08.23.07.38.47.61.53.23.05.51-.08.74-.03.24.05.44.29.68.33.23.04.47.07.71.11.24.03.51-.17.75-.14.23.03.45.26.69.28.24.02.5-.26.75-.25.23.02.46.22.7.24.24.01.47.17.71.18s.49-.11.73-.11c.24.01.48-.17.72-.16.24,0,.48.32.72.32s.48-.07.72-.07c.24-.01.48.03.72.02.24,0,.47-.23.71-.24s.47-.1.71-.11l.72-.03c.24-.02.5.27.74.25.24-.01.46-.22.7-.24s.49.11.73.09c.24-.02.48-.13.72-.15s.47-.14.71-.16c.24-.02.47-.11.71-.13.24-.02.48-.02.72-.04.24-.03.51.22.75.2s.47-.1.71-.12c.24-.02.47-.2.71-.23.24-.02.48-.1.72-.12.24-.02.48-.03.72-.05.24-.02.49.02.73,0,.24-.03.5.11.74.09s.49.05.73.03c.24-.03.47-.21.71-.24.24-.02.47-.12.71-.14.24-.02.48-.05.72-.07.24-.02.48-.09.72-.11.24-.02.5.17.74.16.24-.02.47-.12.71-.13.25-.02.48-.18.72-.2.24-.01.49.27.73.25.24-.01.48.01.72,0s.48-.02.71-.02c.25,0,.48-.32.72-.32s.48.19.72.19.49-.17.73-.16.47.28.7.29c.24.01.49-.06.72-.04.24.02.48.02.71.04.24.03.45.04.68.08.14-.32-.07-.34-.04-.69.03-.34.08-.34.11-.68.03-.35.15-.33.18-.68.03-.34.04-.34.07-.69.03-.34.01-.34.04-.69s-.1-.36-.07-.7c.03-.35,0-.38.14-.7.25.01.52.14.76.14.25.01.5-.03.75-.03.24,0,.49-.2.74-.21.24,0,.49.33.74.33s.49-.39.73-.39c.25-.01.49.01.74,0,.25-.02.51.31.76.3.24-.02.49-.1.73-.11.25-.02.5.02.75,0,.24-.02.46-.34.71-.37.24-.02.51.19.76.17.24-.03.46-.3.71-.33.24-.03.49-.06.73-.09.25-.03.53-.04.78-.07.22.1.43.3.65.39.22.09.46.14.69.22.23.07.48.03.72.09.23.06.45.15.68.2.24.05.45.17.69.21.24.04.47.15.7.18.24.03.48.08.72.11.24.02.49-.11.73-.09.24.01.47.24.71.25s.48.05.72.05.49.01.73.01c.24-.01.48-.1.72-.11.25-.01.49.01.73-.01.24-.01.48-.11.72-.12.24-.02.46-.26.7-.29.24-.02.52.29.75.26.25-.02.47-.24.7-.27.25-.02.47-.14.71-.17.24-.03.48-.07.71-.09.25-.03.5.04.73.01.24-.03.47-.2.7-.23.25-.03.49-.02.72-.04.25-.03.51.19.74.17.25-.02.49-.06.71-.07.26-.02.44-.09.66-.1-.24-.02-.42-.22-.67-.25-.25-.04-.54.24-.79.2-.25-.04-.47-.25-.71-.3-.26-.05-.52-.04-.76-.11-.25-.06-.45-.25-.67-.34-.25-.1-.5-.18-.68-.31.28-.23.32-.18.66-.31.34-.14.4.01.74-.12.34-.14.27-.32.61-.45.34-.14.37-.04.71-.17.34-.14.32-.18.66-.31.34-.14.29-.26.63-.4.34-.13.39-.02.73-.16.34-.13.41.04.75-.1s.26-.34.6-.47c.34-.14.36-.09.7-.23.34-.14.33-.16.67-.3.34-.13.31-.22.65-.35.34-.14.36-.09.7-.22.34-.14.36-.11.7-.24.34-.14.3-.24.64-.38.35-.14.34-.15.68-.28.34-.14.43.08.78-.05.34-.14.31-.2.65-.33.35-.14.38-.04.73-.18.34-.14.25-.36.6-.49.34-.14.41.04.76-.1.34-.13.28-.36.63-.45.21.04.47.09.67.13.2.04.35.35.56.39.2.04.39,0,.6.03.16.22.16.4.2.61.05.23.08.4,0,.63-.08.2-.15.4-.31.6-.14.17-.36.26-.55.43-.17.15-.27.39-.46.54-.18.14-.3.37-.5.51-.19.14-.34.16-.53.3.23-.04.35-.09.57-.14.22-.05.41-.22.63-.28.23-.07.45-.1.67-.17.22-.08.48-.03.7-.11.21-.09.48-.02.7-.11.21-.08.31-.44.52-.53.21-.09.48-.03.7-.11.21-.09.33-.41.55-.49.22-.08.52.07.74,0,.21-.08.47-.03.7-.1.21-.07.33-.5.55-.56.22-.06.49-.08.73-.14.23.05.49.14.73.18.24.04.45.27.69.31.24.04.38.06.62.1-.06.23.16.44.1.67-.06.24-.35.42-.41.65-.06.24-.02.5-.08.73-.07.24-.29.42-.37.65-.07.24-.13.47-.21.69-.09.23-.24.42-.34.64-.11.22.08.59-.05.8-.12.2-.33.37-.48.57-.14.19-.23.45-.4.63-.16.17-.54.13-.73.29-.18.15-.34.32-.55.46-.19.14-.31.39-.53.52-.2.11-.43.22-.65.33-.21.1-.51.02-.74.11-.21.08-.41.2-.63.27.31-.07.4.18.72.09.35-.1.31-.24.66-.33.34-.1.39.09.74,0,.35-.09.26-.41.61-.5.35-.1.44.24.79.15.35-.1.28-.36.63-.45.35-.1.36-.04.71-.13.35-.1.36-.08.71-.17.34-.1.34-.12.69-.22.35-.09.32-.18.67-.28.35-.09.37-.03.72-.12.35-.1.32-.22.66-.32.36-.09.37-.02.72-.12.36-.09.39.04.74-.06.35-.09.37-.02.72-.11.35-.1.28-.37.63-.47.35-.09.37.01.73-.08.35-.1.33-.15.69-.24.35-.1.35-.08.71-.17.35-.1.37.08.74.07.1.17.16.32.38.52.17.15.57.05.79.2.19.14.29.42.51.57.2.13.45.21.66.35.2.14.39.3.61.44.21.14.5.15.71.29.21.14.27.49.48.63.21.14.4.3.59.45.21.16.59.1.76.25.21.19.18.58.31.75.19.24.49.39.51.59,0,.23-.03.46-.29.65.23.06.28.16.52.2.24.05.48.12.72.15.24.02.49-.11.74-.1.23.02.47.22.72.22s.48-.16.72-.17c.24-.02.48-.1.72-.13.24-.02.49.06.74.03.23-.03.44-.28.68-.32s.48-.04.72-.08c.23-.05.52.12.76.07.23-.05.41-.36.64-.42.24-.06.53.14.77.08.23-.06.45-.16.69-.22.23-.07.48-.05.72-.11.23-.07.38-.4.61-.47.23-.07.47-.13.7-.2s.49-.05.72-.13c.23-.07.41-.28.64-.36.23-.07.47-.1.7-.17s.49-.05.72-.12.46-.17.69-.24.44-.21.67-.28c.23-.07.51.02.75-.05.23-.07.42-.26.65-.33.24-.07.49-.08.72-.15s.44-.23.67-.29c.24-.07.47-.16.7-.22.24-.07.47-.13.71-.19.23-.06.53.13.76.07.24-.05.5-.02.73-.07.24-.05.43-.33.67-.38s.49,0,.73-.04.48-.07.72-.1c.24-.04.47-.15.71-.18.24-.03.5.09.74.06.24-.02.48-.1.72-.12.24-.02.48-.05.72-.06.24-.02.48-.26.72-.27.24,0,.49.26.73.27.24,0,.48.04.72.05.25.01.48.08.72.1s.5-.12.74-.09c.24.03.51-.13.75-.09.24.04.48.08.72.13.24.05.38.11.61.17.15-.18.37-.21.6-.38.18-.14.36-.37.61-.5.2-.12.44-.25.7-.36.22-.09.49-.12.75-.2.23-.08.47-.2.74-.27.24-.07.53.12.8.06.24.02.46.01.7.03.23.03.48,0,.71.02.24.03.47.08.71.11.23.03.45.16.69.2.24.03.49-.08.73-.04.23.03.44.23.68.26.23.04.5-.14.74-.1.23.04.43.28.67.32.23.04.49-.08.73-.04.23.04.47.05.71.09.23.04.48.02.71.06.23.05.46.1.7.15.23.04.46.14.69.18.23.04.45.18.68.22.24.04.47.1.7.14.24.04.47.08.7.12.24.04.52-.18.75-.14.24.04.44.27.67.31.24.03.46.15.69.18.24.04.51-.14.74-.11.24.03.46.11.7.14.23.03.47.09.7.12.24.03.47.11.7.13.24.03.48-.01.72.01.24.02.48.08.72.09.19.16.33.39.52.54.2.15.46.22.65.36.2.15.35.36.54.51.21.15.4.3.6.44.21.15.42.28.61.41.22.14.38.35.58.47.23.13.48.22.68.31.26.12.55.06.75.1.3.06.48.01.64-.13.15-.12.37-.28.39-.6.02-.2-.01-.47-.05-.76-.13-.42-.27-.37-.42-.79-.16-.41-.06-.42-.09-.86.23-.02.28-.08.51-.1.24-.02.45-.16.68-.19.23-.02.46-.05.69-.08.23-.04.49.1.72.06.23-.04.44-.17.67-.21.23-.05.45-.1.68-.15s.49.04.72-.02c.22-.05.41-.25.64-.31.22-.05.51.11.74.05.22-.06.41-.25.63-.32.23-.07.4-.3.62-.38.22-.07.42-.18.64-.26.22-.08.46-.12.68-.2.21-.08.42.05.64-.04.3.17.39.04.65.28.25.24.22.27.47.5.25.24.15.35.41.58.25.24.34.15.59.39.25.24.21.28.47.52.25.23.33.15.58.39s.06.44.31.67c.26.24.44.05.69.28.25.24.25.25.5.49s.1.4.35.64c.26.24.28.22.53.46.25.24.22.28.48.52.25.24.31.17.57.41.26.25.14.44.45.62.26-.04.55-.43.77-.48.26-.06.57.16.77.09.27-.08.41-.37.59-.47.26-.13.5-.18.63-.34.17-.2.27-.43.27-.67,0-.22-.13-.43-.23-.68-.08-.2-.09-.48-.23-.7-.12-.19-.33-.35-.48-.55-.14-.19-.34-.34-.49-.54-.14-.19-.31-.37-.45-.57-.15-.2-.15-.5-.28-.69-.14-.21-.35-.37-.46-.57-.12-.22-.18-.46-.26-.68-.08-.24-.19-.47-.19-.71-.01-.24.01-.5.1-.73.08-.21.21-.44.39-.64.14-.16.47-.14.69-.29.18-.13.29-.38.53-.5.2-.1.44-.14.69-.23.21-.09.37-.34.62-.42.21-.07.44-.18.69-.25.22-.06.49.03.74-.03.1.16.19.26.29.44.18-.27.5-.37.8-.59.22-.05.38-.28.6-.32.22-.04.43-.12.66-.16.24-.04.5,0,.72-.04.25-.04.49-.03.72-.06.25-.03.48-.15.71-.18.25-.02.51.28.73.27.26-.01.49-.17.71-.16.26,0,.51-.15.73-.13.26.03.46.32.67.38.25.06.46.12.66.21.23.12.37.27.54.42.17.17.44.25.55.46.11.2.07.46.12.7.05.23-.04.46-.03.71.01.23.01.45.01.7-.01.23.15.47.14.71s.18.49.17.72c0,.25-.31.49-.3.72.02.25.24.46.29.69.06.23.06.49.17.69s.36.29.55.45c.16.15.28.24.52.35.2-.12.43-.09.64-.21.2-.12.34-.37.55-.49.2-.12.55,0,.76-.13.2-.12.34-.35.55-.47s.35-.36.56-.48c.2-.12.37-.3.58-.42.21-.12.42-.23.63-.34.21-.12.52-.05.73-.16.21-.12.34-.38.56-.49.21-.11.5-.07.72-.17.21-.11.38-.3.6-.41.21-.1.4-.27.62-.38.21-.1.52,0,.74-.09.22-.1.4-.28.63-.38.22-.09.46-.12.68-.21.23-.09.39-.34.62-.42.22-.08.43-.22.66-.3.23-.07.45-.17.68-.24s.54.13.78.07c.23-.07.46-.11.69-.17.24-.06.43-.28.67-.33.23-.05.49,0,.72-.05.24-.04.46-.16.7-.2.24-.04.47-.14.71-.17.24-.03.49.04.73.02.24-.02.47-.2.71-.21.24-.01.49.27.73.27s.48-.15.72-.14c.24,0,.47.13.71.15.24.01.48-.01.72.02.24.03.48.04.72.08.24.03.5-.03.73.01.24.05.43.31.66.37.23.06.47.09.7.16s.55-.14.78-.06c.22.08.4.31.63.4.22.08.38.32.61.42.22.09.51.01.73.12.22.1.59.27.81.38-.24.09-.69.01-.92.08-.25.07-.42.39-.66.44-.24.06-.51-.02-.75.02-.25.03-.49.08-.74.1-.24.02-.49-.04-.74-.03s-.49.15-.74.15-.5.04-.74.04c-.25-.01-.49-.1-.74-.11-.24-.01-.49-.01-.74-.02-.24,0-.48.02-.73.02s-.49-.07-.74-.06c-.24,0-.5-.07-.74-.05-.25.02-.44.08-.69.11.29.24.29.23.62.38.34.15.41,0,.74.16.34.16.22.41.55.57.34.15.34.16.67.32.34.15.36.1.7.26.33.15.39.02.73.18.33.15.28.27.61.43.34.15.44-.07.77.09.34.15.31.22.65.37.34.16.24.37.58.52.33.16.43-.04.76.11.34.16.47.02.75.28-.21.12-.55.27-.76.39-.2.13-.42.24-.62.35-.21.12-.32.42-.53.53-.21.11-.51.06-.72.17-.22.11-.39.3-.6.4-.22.11-.48.11-.69.21-.22.11-.34.42-.55.52-.22.1-.44.2-.65.29-.23.1-.54-.03-.76.05-.22.1-.35.41-.57.5-.23.09-.46.16-.67.24-.23.09-.49.1-.7.18-.24.09-.41.31-.63.39-.23.08-.58-.19-.79-.11-.24.08-.42.29-.63.36-.24.09-.46.18-.67.26-.24.09-.44.23-.64.31-.25.11-.46.22-.64.33-.24.14-.39.31-.5.47-.14.2-.31.42-.22.67.07.18.14.46.33.69.13.15.37.27.57.45.16.15.34.3.55.47.17.13.39.23.6.38.18.14.31.36.52.51.18.13.48.22.69.36.02-.25-.07-.57-.03-.8.05-.24.27-.44.34-.66.07-.24.21-.43.31-.64.1-.23.01-.54.13-.74.13-.21.31-.39.46-.57.15-.19.36-.32.53-.49.18-.17.43-.22.62-.37.19-.15.22-.52.43-.65.2-.13.48-.12.7-.23.21-.11.37-.34.6-.44.21-.09.52.05.75-.04.22-.08.45-.15.68-.22.23-.07.39-.38.62-.44s.47-.14.7-.19c.24-.05.54.22.77.18.24-.04.43-.37.66-.41.24-.04.51.17.75.13.24-.03.48-.01.72-.03.24-.03.45-.32.69-.35.24-.02.49.18.73.16.24-.02.47-.13.71-.15.24-.02.49.15.73.13.24-.01.46-.31.7-.32.24-.01.48.06.72.04.24-.01.48-.03.72-.04.24-.02.48.04.73.03.24-.01.48.09.72.08.25,0,.47-.33.72-.34.24-.01.48.01.72,0s.49.06.73.05c.24-.02.49.17.73.15.24-.01.47-.3.71-.32.24-.01.49.11.73.09.24,0,.49.01.73,0,.24-.02.48-.06.72-.09.24-.02.46-.24.7-.26.24-.03.51.19.75.16.24-.04.47-.15.7-.18.24-.04.5.01.73-.03.24-.05.48-.1.71-.15.24-.05.43-.28.66-.33.24-.06.45-.2.67-.27.24-.07.52.04.75-.04.23-.09.38-.34.6-.43.23-.1.49-.09.7-.2.22-.11.37-.31.57-.44.21-.13.58-.01.77-.16.19-.15.28-.43.45-.6s.33-.35.48-.54c.15-.18.42-.3.55-.51.12-.2-.05-.56.05-.78.09-.22.33-.38.4-.61.07-.23-.06-.5-.01-.74.04-.23.23-.41.25-.66.37.05.42-.02.75.15.34.17.19.46.52.63.33.17.45-.07.79.1.33.17.34.15.67.32.33.17.2.43.53.6.33.17.44-.04.78.13.33.17.32.19.66.36.33.17.33.19.62.42-.25-.02-.47-.16-.67-.14-.25.02-.4.36-.59.42-.22.07-.45.05-.66.12-.2.06-.41.16-.66.18-.19.02-.58-.13-.84-.15.22.13.67.16.87.27.23.12.39.32.6.42.23.11.48.13.69.22.24.09.41.31.63.38.25.07.5.05.72.09.26.04.48.15.71.16.26.01.5-.02.73-.05.25-.03.43-.25.66-.32.23-.07.42-.16.64-.27.21-.11.56.01.76-.13.19-.14.27-.43.46-.6.17-.15.33-.33.5-.51.17-.17.41-.27.57-.46.15-.18.3-.37.46-.56.15-.18.19-.46.34-.65.15-.19.39-.31.54-.5s.42-.28.58-.46c.15-.19.15-.5.31-.69.16-.18.41-.28.57-.46.17-.17.42-.26.59-.43s.34-.33.53-.48c.18-.16.24-.47.43-.62.19-.14.34-.36.55-.49.19-.13.53-.05.74-.16.21-.12.4-.25.63-.36.21-.09.39-.3.62-.38.22-.08.47-.1.71-.17.23-.06.45-.17.69-.21.23-.05.48-.04.73-.07.23-.03.46-.25.7-.27.24-.01.49.15.74.15s.47.13.72.14c.24,0,.49-.09.73-.07.24.02.49,0,.74.04.25.05.45.28.69.34.24.06.53-.05.76.02.25.06.45.26.68.34.25.07.46.22.68.3.25.08.58-.09.8,0,.25.1.38.42.59.53.24.11.54.08.73.2.24.15.28.49.44.64.21.2.43.28.5.48.09.24.26.54.13.78-.09.18-.36.34-.6.51-.18.13-.44.18-.69.3.35-.07.39.05.74-.06.34-.1.26-.35.6-.46.35-.11.4.06.74-.05.35-.1.33-.16.67-.27.35-.1.37-.03.71-.14.35-.11.38,0,.73-.1.34-.11.33-.14.68-.24.34-.11.3-.25.65-.35.34-.11.33-.15.68-.25.34-.11.39.06.74-.04.34-.11.29-.27.64-.38.34-.1.38,0,.72-.1.35-.11.27-.37.62-.47.35-.11.37-.04.72-.14.34-.11.38.02.73-.05.26.02.47-.02.67.03.26.06.39.3.56.39.25.13.56.09.65.26.12.21.21.55.09.77-.07.14-.24.33-.43.46.23.02.28.15.58.12.36-.02.36-.04.71-.06.36-.03.36-.01.72-.03.36-.03.36-.01.72-.03s.34-.22.7-.24c.36-.02.38.25.74.23.36-.03.34-.22.7-.25.36-.02.36-.01.72-.04.36-.02.37.2.73.17.36-.02.35-.21.71-.23.36-.03.35-.17.71-.19.36-.03.37.21.73.18.36-.02.35-.15.71-.18.36-.02.37.15.73.13.36-.02.35-.18.71-.2.36-.03.35-.17.71-.19.37-.02.39.35.75.32.36-.02.35-.2.71-.22.37-.03.47-.35.79-.17.17.09-.3.3-.26.5.16-.15.52-.19.71-.35.17-.14.33-.32.52-.47.18-.14.41-.22.61-.37.18-.14.33-.32.53-.46.19-.14.34-.33.54-.46.19-.14.32-.37.51-.5.2-.13.36-.32.55-.45.2-.13.37-.3.57-.43s.59.04.79-.09c.2-.13.34-.35.54-.48s.29-.44.49-.56c.2-.13.53-.03.73-.15.21-.13.39-.22.59-.34.22.01.43-.14.65-.13.23,0,.46-.13.69-.13s.45.36.68.37c.23,0,.47-.26.7-.25.23,0,.45.1.69.1-.18.11-.38.36-.66.45-.24.08-.49.15-.73.24-.27.11-.58.08-.73.23-.18.18-.21.39-.02.68.33.03.32-.05.64-.16.32-.12.33-.09.64-.2.32-.11.35-.02.67-.13.32-.12.28-.21.6-.32.32-.12.33-.08.65-.19.32-.12.33-.09.64-.21.32-.11.26-.29.59-.37.25,0,.51-.14.76-.14.24.01.49.2.74.2.25.01.5-.13.75-.12.25,0,.49.34.73.34.25.01.51-.34.76-.33.25,0,.5.16.75.17s.53.01.77.02c.02.24-.02.52-.1.76-.08.22-.25.4-.4.61-.14.19-.18.49-.37.67-.17.15-.52.1-.73.25-.19.13-.39.25-.61.37-.21.12-.39.29-.61.4-.22.1-.42.24-.65.33-.23.09-.48.11-.71.19-.23.08-.48.09-.72.16-.23.06-.45.18-.69.23-.24.06-.44.26-.69.3-.24.05-.47.14-.72.17-.24.04-.51-.15-.75-.12-.25.02-.49,0-.73.01-.25.02-.49.19-.73.19-.25.01-.49-.17-.73-.17-.25,0-.37.2-.61.18.13.21.04.4.17.59.14.21.25.43.38.62.14.2.5.25.63.43.15.2.11.53.26.72s.37.33.51.51c.17.19.22.47.38.64.17.18.36.35.52.51.19.17.52.16.7.29.21.15.43.23.62.34.23.11.44.19.66.25.24.07.44.19.68.2.24.02.44-.16.68-.2.23-.03.45-.07.68-.14.22-.07.53.07.76-.03.21-.09.32-.42.54-.53.21-.1.42-.2.64-.31.21-.1.42-.22.64-.32.21-.11.54.04.77-.06.21-.1.45-.14.67-.23.22-.09.43-.19.66-.27.22-.08.41-.25.64-.32.23-.07.47-.04.71-.1.23-.06.44-.2.68-.25.23-.04.46-.09.7-.12.23-.03.47-.04.72-.06.23-.01.46-.19.71-.2.23,0,.47.08.72.08.23.01.47-.01.72,0,.23.02.48.02.72.05.23.03.46.17.7.21.23.04.47.04.72.09.23.05.43.24.67.29.23.06.48.04.71.1.23.06.51-.04.74.03.22.07.4.32.63.4.23.07.44.19.67.27.22.08.4.28.63.36.22.09.54-.07.77.02.22.09.38.18.6.28-.31.15-.34-.04-.68.03l-.68.14c-.35.07-.34.12-.68.19-.34.07-.3.26-.65.33-.34.07-.32.17-.66.24-.35.07-.4-.21-.75-.14-.34.07-.32.15-.67.21-.34.07-.37-.09-.72-.02-.34.06-.32.17-.66.24-.35.07-.3.31-.64.38-.35.07-.39-.15-.74-.08s-.46-.12-.76.06c.14.2.33.54.48.72.15.19.46.24.62.41.16.19.19.47.36.64.16.17.28.39.45.55.18.17.43.25.61.4.18.15.34.34.53.48.19.14.32.38.51.51.2.14.45.2.66.32.2.12.39.28.6.39.21.11.46.15.68.25.21.09.49.05.71.13.22.09.36.41.59.48.22.08.52-.06.75,0,.22.06.46.1.69.16.22.06.46.09.69.15s.42.27.65.32c.23.06.5-.1.74-.05.23.05.41.33.64.38s.48.02.71.07c.23.04.47.09.7.14.23.05.47.05.71.1.23.05.44.18.68.24.22.05.46.09.69.15s.45.15.69.22c.22.06.5-.03.73.04.23.06.4.33.63.4.22.07.47.08.69.15.23.07.41.26.64.34.22.08.54-.1.77-.01.22.08.4.28.63.37.21.09.35.37.57.46.22.1.5.06.72.17.21.1.39.03.61.14-.13-.14-.22-.22-.44-.4-.16-.14-.48-.12-.69-.28-.18-.13-.38-.27-.58-.42-.18-.13-.17-.56-.37-.71-.19-.14-.45-.19-.65-.34-.19-.13-.44-.2-.64-.35-.19-.13-.33-.35-.52-.49s-.33-.36-.52-.51c-.19-.14-.48-.16-.67-.3-.19-.15-.47-.17-.67-.32-.19-.15-.25-.46-.44-.61-.19-.15-.36-.33-.55-.48-.18-.15-.54-.09-.73-.24-.19-.16-.23-.49-.41-.65-.19-.15-.48-.19-.66-.35-.18-.16-.28-.41-.45-.58-.18-.17-.45-.24-.62-.41-.17-.17-.38-.32-.54-.49-.17-.18-.33-.36-.49-.54-.16-.2-.23-.46-.37-.64-.15-.21-.13-.5-.26-.7-.13-.22-.5-.29-.6-.5-.1-.23-.05-.52-.1-.75-.07-.24-.21-.48-.2-.71,0-.25.27-.43.36-.66.08-.22.12-.43.28-.63.14-.17.19-.46.4-.62.17-.14.39-.26.62-.39.15-.08.35-.1.53-.16-.21.09-.58-.12-.81-.01-.22.1-.4.28-.63.39-.22.1-.32.46-.55.56-.22.1-.53,0-.76.1-.22.09-.46.15-.69.23-.24.09-.43.27-.67.34-.24.07-.5,0-.74.05-.25.05-.45.35-.69.37-.25.03-.51-.16-.75-.18-.25-.02-.46-.14-.68-.22-.23-.09-.43-.18-.62-.34-.17-.15-.26-.29-.4-.51.11-.23.08-.44.19-.64.12-.22.18-.47.3-.65.14-.21.48-.25.62-.43.16-.2.14-.52.3-.67.18-.18.47-.19.65-.31.22-.13.39-.26.61-.32.23-.07.44-.25.67-.26.23,0,.46.16.7.21.22.04.45.07.68.15.21.07.49.02.71.12.21.09.41.22.63.32.21.1.4.25.62.35.2.1.38.28.6.38.21.09.46.1.68.2.21.09.57.22.79.31-.2.08-.52.35-.76.46.06-.01.12-.03.17-.05.21-.09.42-.15.66-.23.23.08.48,0,.72.06.23.07.4.38.64.44.24.06.52-.11.77-.07.23.04.45.24.7.27.24.03.48.12.73.13.24.01.49.04.74.04s.5,0,.75-.02c.24-.02.49-.08.73-.11.24-.03.47-.21.71-.25.24-.05.5.02.75-.04.23-.06.43-.24.67-.31.23-.07.52.02.76-.06.23-.08.33-.5.57-.59.22-.09.48-.09.71-.19.22-.09.41-.27.63-.37.22-.11.58-.17.81-.28,0,.25.08.57.11.79.03.25-.1.52-.03.73.08.23.18.46.31.65s.35.33.52.48c.18.15.31.39.53.5.2.1.48.04.71.11.22.07.42.22.66.27.22.04.46-.01.71.02.22.02.45.18.69.19.23.01.47-.1.71-.1.22,0,.46-.12.7-.12.22-.01.46.01.7,0,.23-.01.47.21.71.19.23-.01.44-.28.68-.29.23-.02.48.21.72.19.23-.01.46-.12.69-.14.23-.01.46-.06.7-.07.23-.02.47.14.71.13.23-.01.34-.18.58-.19.09.37.11.35.09.73-.03.38-.22.37-.25.75-.02.38.04.38.01.76s.02.38,0,.76c-.03.38,0,.38-.02.76-.03.39.04.39.01.77-.02.38-.19.37-.22.75-.03.39-.18.45-.08.82.23-.06.6-.23.82-.29.23-.07.49-.02.71-.1.23-.07.43-.22.64-.3.23-.09.42-.23.63-.32.22-.1.46-.14.66-.24.22-.11.5-.1.69-.21.21-.13.43-.25.61-.38.2-.14.37-.32.54-.47.19-.15.34-.35.51-.51.17-.16.19-.47.34-.64.16-.17.32-.33.48-.51.15-.18.23-.41.38-.59.14-.18.53-.16.68-.34.15-.18.18-.45.34-.63.15-.17.4-.26.56-.43.16-.17.35-.29.53-.46.16-.15.29-.34.48-.5.17-.14.24-.53.44-.67.23.01.49.29.72.31.22.02.45.05.67.08.23.02.48-.19.7-.17.23.03.44.12.66.15.23.03.41.25.63.27.24.07.53-.09.75-.01.23.09.39.34.6.43.23.1.38.31.59.42s.4.25.59.37c.21.14.45.19.64.33.19.14.36.31.53.47.18.16.3.37.46.54.17.17.32.34.47.52.15.19.45.25.59.44.14.2.31.37.43.57.13.2.24.42.36.63.12.21.27.39.39.61.11.21-.03.54.08.75.1.22.35.36.45.58.1.22.16.45.26.67.1.22.19.44.28.66.1.21.2.49.29.7.26.02.56-.11.79-.1.26.01.49.27.71.27.27,0,.52,0,.74-.01.27-.02.51-.12.72-.16.29-.04.49-.23.66-.32.28-.13.52-.27.54-.48.02-.2-.25-.38-.38-.64-.1-.19-.27-.34-.42-.55-.14-.18-.08-.53-.25-.72-.14-.18-.25-.41-.41-.59-.15-.19-.38-.3-.54-.49-.15-.18-.31-.36-.46-.55-.15-.2-.35-.35-.47-.55-.14-.21-.08-.5-.17-.71-.1-.24-.38-.39-.4-.62-.03-.24.03-.49.13-.71.08-.2.31-.29.52-.47.15-.13.23-.42.48-.55.19-.09.49.04.74-.04.21-.08.4-.24.65-.31.22-.05.43-.2.68-.25.22-.04.45-.17.7-.21.22-.03.48.1.73.08.23-.03.46.04.71.02.25.06.59-.06.84-.01-.15.18-.5.27-.64.44-.15.18-.17.46-.28.63-.11.21-.19.43-.18.64,0,.2.06.52.23.73.16-.09.48-.23.73-.36.2-.1.35-.34.58-.44.22-.1.45-.17.68-.26.23-.08.5-.01.73-.07.24-.07.43-.29.66-.32.25-.03.5-.07.73-.04.25.02.55-.03.76.07.21.1.22.48.38.68.2.24.48.35.49.55.01.24-.13.49-.32.69-.15.15-.46.13-.7.27-.19.12-.25.52-.48.63-.21.11-.52.04-.75.14-.22.1-.48.1-.71.2-.22.1-.36.39-.58.49-.22.11-.41.13-.61.25.24,0,.42.18.65.17.24-.02.45-.4.69-.42.24-.02.51.29.74.26.24-.03.48-.03.71-.07.24-.03.46-.18.68-.22.24-.04.44-.24.67-.29.23-.05.51.09.73.03.24-.06.41-.32.63-.39.23-.07.47-.06.69-.14.23-.08.49-.07.71-.15.22-.09.47-.13.68-.23.21-.1.39-.29.59-.4.21-.11.44-.2.63-.32.21-.13.27-.45.46-.59.19-.14.41-.23.59-.38.18-.15.43-.22.6-.38.18-.16.26-.41.42-.58.16-.17.38-.29.53-.47.23-.04.47-.1.71-.14.24-.04.48-.04.72-.08.24-.05.44-.24.68-.29.24-.05.51.08.75.03.23-.05.42-.3.66-.36.23-.05.53.19.77.13.23-.05.4-.37.64-.43.23-.05.49,0,.73-.06.23-.06.51.03.74-.03.23-.06.46-.13.7-.2.23-.06.46-.14.7-.21.23-.06.48-.07.71-.13.23-.07.39-.41.62-.48.23-.06.48-.08.71-.15.23-.07.46-.15.69-.22.23-.07.49-.04.73-.11.23-.07.46-.14.69-.21.23-.07.49-.05.73-.12.23-.07.48-.1.71-.17.23-.07.37-.46.6-.53s.52.04.76-.03c.23-.07.45-.19.68-.26.24-.07.48-.21.72-.29.25.08.48.25.7.32.26.09.5.14.71.23.26.11.57.09.75.2.26.15.5.34.63.49.21.23.06.57.03.79-.03.22-.19.36-.36.58-.15.18-.28.39-.47.57-.18.17-.21.51-.39.67-.19.19-.44.28-.56.46-.16.24-.36.45-.29.69.05.18.24.24.51.42.34-.1.21-.25.49-.47.28-.22.36-.11.64-.33.29-.22.25-.27.53-.49.28-.22.37-.11.65-.34.28-.21.31-.18.59-.4.28-.22.15-.39.43-.61.28-.22.35-.13.63-.35.29-.22.29-.21.58-.43.28-.23.3-.2.58-.43.29-.22.39-.09.67-.31.29-.22.15-.39.48-.55.32.03.42.23.58.35.21.17.44.24.47.5.02.24-.04.5-.09.75-.06.26-.04.39-.11.59.25-.09.46.1.67,0,.24-.12.38-.38.57-.51.22-.15.29-.42.45-.59.18-.18.5-.22.63-.41.13-.21.18-.47.27-.69.09-.23.36-.4.43-.64.07-.23-.19-.56-.12-.8.07-.23.35-.4.44-.63.09-.22.15-.46.28-.68.24.02.49-.14.73-.12.24,0,.48,0,.72.02s.47.26.71.27c.24,0,.48.08.72.08.24.01.48-.03.72-.03.25.01.49-.22.73-.21.24,0,.48.25.72.25s.48-.18.72-.18c.24,0,.48-.06.72-.06.24,0,.49.14.73.13s.48,0,.72-.02c.24-.01.46-.28.7-.3.24-.02.5.18.73.15.25-.02.48-.12.71-.15.24-.03.45-.19.68-.23.25-.04.5.04.73-.01.24-.05.45-.15.68-.21.24-.05.49-.03.71-.1.23-.07.53.05.74-.03.24-.09.33-.47.54-.57.22-.11.5.08.69-.05.22.1.41.07.63.17.22.1.43.23.66.33.22.09.47.13.69.22.23.1.52.03.75.12.22.09.41.27.64.36.22.09.4.32.62.4.23.09.45.21.68.29.23.07.49.08.72.15.24.07.49.09.72.16.23.07.47.11.71.17.24.06.5-.02.74.03s.42.37.66.41c.24.04.49.1.73.14.24.03.49,0,.74.01.24.02.49-.05.73-.05.25.01.49-.13.73-.13.24-.01.48.1.73.08.24-.02.47-.12.71-.15.24-.04.49.02.73-.03.24-.05.47-.1.71-.17.23-.07.41-.27.64-.36.23-.08.45-.16.67-.26.22-.1.56.03.78-.08.21-.12.43-.25.63-.38.21-.13.34-.27.53-.42.24.16.45.21.59.38.17.21.33.44.37.67.04.24.02.53-.04.78-.07.23-.1.51-.21.74-.11.22-.4.36-.52.58-.12.22-.23.44-.34.67-.11.23-.29.43-.36.67-.08.24.13.51.13.76-.01.24-.06.33.02.58.23-.09.35-.05.57-.13.23-.08.47-.13.69-.21.23-.08.43-.23.65-.31.23-.08.48-.1.7-.18.23-.08.43-.23.65-.31.23-.08.44-.21.66-.29.24-.08.53.04.75-.04.24-.08.4-.35.62-.42.23-.08.46-.14.68-.22.23-.08.45-.2.66-.27.24-.08.55.11.77.03.24-.08.41-.31.63-.38.23-.08.48-.1.7-.17.23-.08.42-.28.64-.35.23-.09.43-.24.65-.31.23-.09.5-.03.72-.12.23-.08.43-.2.65-.29.23-.09.47-.12.69-.2.22-.09.47-.12.69-.21.22-.1.48-.09.7-.19.21-.09.35-.36.57-.46.21-.1.49-.06.71-.17.2-.1.32-.39.54-.5.2-.11.41-.22.63-.33.2-.11.4-.24.62-.35.2-.11.55.02.76-.1.21-.11.33-.37.55-.49.2-.11.35-.33.56-.45.2-.11.49-.09.7-.21.21-.12.34-.36.55-.48.2-.12.49-.09.7-.22.2-.11.41-.23.63-.35.2-.12.34-.35.55-.48.2-.11.39-.26.6-.38.2-.12.39-.28.6-.41.2-.12.46.01.67-.11.35.05.29.14.62.27.32.13.4-.05.72.08.33.13.28.25.6.38.33.14.3.21.63.34.32.14.41-.08.74.06.32.13.29.21.61.35.33.13.34.11.66.24.33.14.27.3.59.43.33.14.47-.2.79-.07.33.14.22.41.54.54.33.13.34.1.67.23.33.14.39-.02.72.11s.22.39.55.53c.33.13.36.06.69.19.33.13.3.26.64.35-.22-.14-.28-.59-.47-.73-.21-.16-.39-.31-.56-.47-.2-.18-.55-.18-.7-.37-.17-.2-.29-.44-.41-.64-.13-.23-.22-.47-.29-.7-.08-.25-.15-.5-.16-.75-.01-.24.06-.51.11-.76.24.05.49.1.72.15.25.05.48.1.71.14.25.05.47.18.7.22.25.04.52-.13.75-.1.25.04.46.27.69.3.26.03.5-.03.73-.02.26.02.49.09.72.09.26.01.51.16.73.15.26,0,.48-.31.71-.33.26-.03.52.12.74.08.25-.05.49-.06.71-.11.24-.06.33-.13.56-.2-.04.25.06.38.04.62-.02.25.06.48.07.72.02.24-.04.43.01.67.17-.15.42-.13.66-.27.21-.12.39-.3.63-.4.23-.1.4-.37.64-.46.24-.08.51-.07.76-.14.24-.07.5-.08.75-.14s.59-.18.84-.23c-.16.19-.36.47-.5.65-.15.21-.36.36-.46.55-.13.23-.25.46-.29.67-.05.25-.06.57.07.77.12.18.47.21.75.1.16-.06.28-.33.5-.48.17-.11.37-.21.57-.36.16-.13.28-.34.47-.48.17-.13.52-.04.7-.19.18-.13.18-.5.36-.64.18-.13.41-.1.6-.24.24.28.2.29.35.63.15.34.22.31.37.64.14.34.05.38.2.72.14.34.18.32.33.66.14.34.04.38.18.72.15.34.38.24.52.58.15.34.04.38.18.72.15.34,0,.41.15.75.14.34.19.32.34.66.15.34-.02.55.35.56.35.01.15-.22.24-.56.09-.34-.04-.37.05-.7.09-.34.33-.28.42-.62.09-.33-.31-.54,0-.71.31-.18.37-.02.72.07.35.09.35.08.7.17.35.09.3.27.65.35.35.09.39-.07.74.02.35.08.29.33.64.41.35.09.36.02.71.11.35.08.41-.15.76-.06.34.09.28.34.63.42q.35.09.7.18c.35.09.37,0,.72.09.35.09.31.26.66.35.35.09.41-.14.76-.05.35.08.3.28.65.37.35.08.4-.12.75-.03.36.09.32.25.67.33.35.09.37,0,.72.09.35.08.4-.09.75,0,.35.09.32.22.67.31.35.09.38-.03.73.06.35.09.34.15.69.24.35.08.3.29.65.37.36.09.39-.03.74.06.35.09.31.27.66.36.36.09.39-.01.75,0,.21-.11.37-.29.57-.41.21-.12.53-.03.74-.15.2-.11.35-.31.56-.44.2-.12.35-.32.55-.44.2-.12.5-.08.7-.21.2-.12.39-.27.59-.39.2-.13.23-.53.43-.65.19-.13.47-.14.66-.26.2-.13.38-.29.57-.42.2-.12.34-.33.54-.46s.46-.16.66-.29c.19-.12.37-.28.57-.41s.46-.15.66-.28c.2-.13.46-.16.65-.29.2-.12.25-.48.45-.61.2-.12.42-.21.62-.34s.53-.04.73-.16c.2-.13.25-.49.44-.62.2-.13.34-.34.54-.47.2-.12.51-.08.71-.2.2-.13.31-.4.5-.53.2-.13.39-.28.59-.4.2-.13.44-.18.64-.31s.46-.17.66-.29c.2-.13.41-.43.61-.56.19.16.41.43.6.6.18.16.22.49.4.65.18.17.42.26.6.43.18.16.32.38.5.55.18.17.31.38.49.56.17.17.34.35.52.52.17.17.42.27.6.44s.52.18.69.35c.18.18.3.41.47.59.18.17.32.4.5.57-.26.04-.55-.04-.81-.01-.25.02-.51.06-.77.08-.25,0-.51-.03-.77-.03-.26.01-.51.09-.77.08-.21-.01-.43.04-.63.04.16.11.3.31.46.35.26.07.53,0,.74.08.24.1.57.03.75.15.24.14.23.54.38.7.18.2.29.35.36.56.09.24.39.46.36.7-.02.24-.14.51-.24.73-.1.22-.44.3-.59.49-.16.2-.23.48-.42.62.37-.06.36-.12.71-.23.35-.11.4.03.75-.09.35-.11.3-.25.65-.36.36-.12.4.03.76-.08.35-.12.25-.42.6-.54.36-.11.36-.09.72-.2.35-.12.38.05.75.02.17.16.38.13.54.28.17.16.37.29.54.43.17.16.25.42.42.57.18.14.5.11.67.25.18.15.14.58.32.71.19.14.4.24.58.37.2.13.41.23.6.35.2.12.41.24.61.34.21.1.53-.08.73,0,.23.08.42.24.63.28.31.21.2.38.06.56-.11.13-.14.49-.42.61-.19.08-.47.03-.71.11-.22.07-.45.13-.68.2-.22.06-.47.06-.7.12-.23.07-.47.1-.69.16-.23.07-.3.22-.5.29.22.09.33.15.55.23.23.09.41.3.62.38.24.08.44.22.66.3.24.08.48.12.69.19.24.07.54-.08.76-.02.24.06.45.22.67.27.24.06.44.29.66.33.26.04.53-.18.75-.16.26.02.49.03.7.02.27-.01.46-.12.66-.18.26-.08.46-.11.61-.26.17-.17.4-.3.48-.54.07-.21.09-.46.11-.71.02-.22.07-.47.07-.71.01-.23-.12-.47-.13-.72,0-.23.21-.46.21-.7,0-.24-.15-.48-.13-.72.02-.24-.11-.5-.07-.74.05-.23.12-.48.2-.71.08-.22.32-.39.44-.59.12-.2.18-.47.34-.65.16-.17.45-.22.64-.37.18-.14.28-.44.5-.56.2-.11.5-.03.74-.13.21-.08.41-.12.65-.19.14.16.2.39.38.51.16.13.42.14.62.24.18.09.41.11.62.18.19.07.45.09.66.15.03.24-.04.53-.04.78s.07.49.05.73c-.02.25-.01.5-.03.74-.03.25-.07.49-.09.73-.02.25-.21.48-.22.72,0,.25.07.51.1.74.03.25.11.49.19.72s.36.33.51.53c.13.18.23.37.44.53.18.14.35.27.59.39.2.09.37.34.62.42.21.07.49-.05.75,0,.22.05.47.01.73.05.23.03.49.1.75.12.19.12.34.42.6.48.21.05.46-.07.72-.07.22.01.44-.09.69-.12.23-.03.45-.08.69-.13.23-.04.45-.09.69-.14.22-.06.48-.02.72-.08.22-.06.47-.05.71-.12.22-.07.47-.06.71-.13.22-.08.4-.28.63-.36.22-.08.5,0,.73-.08.22-.08.45-.14.68-.23.22-.08.4-.28.63-.36.22-.08.38-.34.61-.42.22-.08.45-.12.68-.2.22-.08.45-.13.68-.21.22-.08.4-.26.63-.35.22-.08.47-.09.69-.17.22-.08.53.07.76-.01.22-.08.42-.22.65-.3.22-.08.44-.17.67-.25.22-.07.47-.08.7-.16.22-.07.44-.17.66-.25.23-.07.38-.4.6-.47.23-.07.56.17.78.1.23-.07.44-.22.67-.28.23-.07.46-.12.69-.18.23-.07.46-.11.69-.17.24-.06.4-.37.64-.43.23-.06.48-.01.72-.07.23-.05.47-.08.7-.13.24-.05.5.08.74.04.23-.04.42-.38.65-.42.24-.03.51.18.75.15.24-.03.47-.04.71-.06.24-.03.45-.32.69-.34.24-.01.49.27.73.26.24-.01.47-.29.71-.29s.48.09.72.1c.24.01.48,0,.72.01.24.02.48.02.72.05.23.03.46.12.7.16.23.04.48.06.71.11.23.05.46.12.69.19.23.07.42.26.64.34.23.08.45.14.67.23.22.1.41.25.62.36.21.11.62.23.82.35-.16-.17-.59-.35-.75-.53-.16-.18-.12-.54-.27-.72-.16-.19-.47-.25-.61-.43-.15-.2-.25-.43-.38-.63-.14-.21-.36-.37-.46-.57-.11-.23-.16-.5-.21-.72-.06-.24.07-.5.1-.73.03-.23-.04-.51.08-.74.11-.19.24-.43.43-.61.16-.15.48-.15.69-.3.19-.12.45-.12.68-.24.2-.11.29-.48.52-.58.21-.09.52.09.76,0,.23-.02.44-.04.69-.05.23-.01.47-.12.71-.11.24.01.48.02.72.04.24.02.46.13.71.16.23.03.5-.16.74-.12.24.04.44.28.68.33.23.05.46.11.7.16.23.05.45.15.69.21.23.06.47.09.7.15.23.06.44.2.67.27.23.07.51-.06.74.01.23.07.5.01.73.08s.42.28.65.35c.22.07.48.04.71.12.23.07.37.42.6.49.23.07.48.06.71.14.23.07.51-.03.74.04.23.08.39.39.62.46.23.08.49.05.72.12s.43.23.67.3c.23.06.5,0,.73.06.23.07.46.15.69.21.24.07.5-.01.74.05.23.06.4.4.63.45.24.06.49.05.73.09.24.05.51-.09.74-.04.24.04.47.11.71.15s.46.19.7.21c.24.03.48.12.72.14.24.02.5-.28.74-.28.24.01.47.06.71.06s.49.16.73.15c.24-.02.48-.06.72-.09.24-.03.5.05.74,0,.23-.04.45-.2.68-.26.24-.06.5-.04.73-.12.23-.08.41-.3.63-.4.21-.1.43-.2.64-.32.21-.11.51-.1.71-.24.2-.13.28-.44.47-.59.18-.15.5-.17.67-.33.18-.16.24-.42.41-.6.26.17.53.25.71.42.24.22.26.55.38.76.16.27.26.56.28.82.22-.07.55-.14.79-.21.22-.06.43-.23.67-.29.22-.07.45-.14.69-.2.23-.06.49-.02.73-.08.23-.06.44-.21.68-.27.23-.05.48,0,.72-.06.23-.06.48-.05.72-.1.23-.05.42-.31.66-.36.23-.05.51.14.75.09.24-.05.46-.15.7-.2.23-.05.43-.3.66-.35.24-.05.51.09.75.04.23-.05.47-.07.71-.12.23-.05.45-.19.69-.24.23-.05.47-.09.71-.14.24-.05.47-.11.71-.16.23-.06.47-.11.71-.16.23-.06.41-.36.65-.42.23-.05.49,0,.73-.07.23-.06.54.14.77.08.24-.06.4-.4.63-.46.24-.06.49-.08.72-.14.23-.07.49-.05.72-.12.24-.07.4-.36.63-.43.23-.07.48-.09.71-.17.23-.07.47-.11.69-.19.23-.08.46-.15.69-.23.23-.09.42-.24.64-.34.23-.09.55.06.77-.04.22-.11.38-.35.59-.46.22-.11.47-.14.68-.26.21-.12.38-.3.58-.43.21-.14.32-.15.5-.3-.05.23-.02.34-.07.57-.06.24-.3.43-.35.66-.06.23.2.54.15.78-.06.23-.15.46-.21.69s-.2.45-.26.67c-.06.24-.33.42-.39.64-.07.24-.03.5-.09.72-.07.25-.2.46-.26.67-.08.25.04.55-.03.75-.1.28-.38.37-.46.52.27-.24.37-.14.61-.4.25-.27.1-.41.34-.67.25-.27.44-.09.69-.36.25-.26.14-.36.39-.63.25-.27.34-.18.59-.45.25-.27.22-.29.47-.56.25-.27.13-.38.38-.65s.4-.13.66-.4c.25-.27.12-.42.44-.6.16.18.45.23.62.39.18.16.16.55.34.69.19.14.48.15.68.27.2.13.43.18.64.29.21.11.39.25.61.34.22.09.46.1.69.17.22.07.38.38.61.44.22.06.48.02.71.06.23.05.47.05.71.08.23.03.33.02.57.04-.04.34.12.39-.03.69-.16.31-.42.18-.57.48-.16.31.04.4-.11.71-.15.3-.19.28-.35.59-.15.3-.34.21-.49.51-.15.31.06.42-.09.72-.15.31-.16.3-.32.61-.15.31-.24.26-.39.57s-.09.34-.19.66c.17-.17.25-.39.41-.55.17-.17.38-.31.54-.47.18-.17.41-.26.59-.42.18-.16.25-.44.43-.59.19-.15.41-.26.6-.39.2-.15.31-.41.51-.53.2-.14.41-.27.61-.38.22-.12.49-.14.69-.23.23-.11.53.03.75-.05.23-.08.4-.31.62-.37.24-.05.45-.25.68-.28.23-.03.49.08.72.07.24-.01.48-.02.71,0,.24.01.48.01.72.05.23.03.43.23.66.28.23.05.51-.1.74-.05.23.06.44.17.68.24.22.06.34.17.58.24.01-.35.03-.35-.08-.68-.11-.34-.21-.31-.32-.64-.11-.34.03-.38-.08-.72-.11-.33-.34-.29-.33-.65.24-.04.52-.12.76-.16.24-.05.53.1.77.05s.47-.16.71-.21.49-.08.73-.14c.24-.05.42-.41.66-.47.24-.05.48-.12.72-.17.24-.06.5-.02.74-.07.25-.06.54.1.78.04.24-.05.59-.36.83-.42-.11.21-.35.54-.47.74-.12.19-.37.29-.51.48-.14.18-.19.42-.35.59-.15.17-.32.32-.49.48-.16.15-.27.38-.45.52s-.4.22-.6.35c-.18.13-.42.17-.62.29-.2.11-.4.21-.61.31-.2.1-.38.25-.6.33-.21.09-.26.21-.49.29.23.06.32.11.55.18.23.06.41.28.65.34.22.07.52-.15.76-.09.22.06.44.15.68.2.23.05.42.31.66.36.23.04.47.02.71.06.23.03.49-.12.73-.1.23.03.45.32.69.34.23.01.48-.05.72-.04.23.01.47-.09.71-.09s.48.09.72.08c.23-.01.47-.12.71-.14.23-.02.47-.08.71-.1.23-.03.48.01.72-.03.23-.03.44-.19.68-.23.23-.05.48-.02.72-.07.23-.04.45-.12.69-.18.23-.06.44-.2.67-.26.23-.06.48-.04.71-.11.23-.06.48-.07.71-.14.23-.08.61-.16.84-.24-.19-.08-.47-.36-.67-.53-.16-.15-.48-.16-.65-.35-.14-.17-.09-.5-.22-.71-.13-.18-.33-.33-.45-.54-.12-.2-.22-.41-.33-.62-.11-.21-.1-.47-.2-.69-.1-.21-.46-.3-.55-.52-.09-.22,0-.51-.09-.73-.08-.22-.11-.34-.18-.57.24-.04.37-.13.61-.17.25-.03.48-.2.72-.23.25-.03.5-.01.74-.04.25-.02.49-.01.73-.03.25-.01.5-.17.74-.17.25,0,.5.08.74.09.25.01.49.19.72.21.26.03.49.09.72.14.25.05.45.17.68.24.24.08.43.18.64.29.23.11.62-.05.81.09.19.15.37.37.53.56.15.18.3.4.43.62.11.21.15.48.23.72.07.22.07.48.11.73.05.23-.01.48.01.73.02.24.09.58.09.84.33.11.39.04.73.02.36-.01.34-.28.7-.3.35-.01.35.01.7-.01.35-.01.35.15.7.14.35-.02.35-.13.7-.14.35-.02.35.14.7.13.36-.02.35-.27.7-.28.35-.02.36.26.71.25.36-.02.35-.16.7-.12.2.12.46.13.68.26.2.13.41.31.62.44-.26-.2-.52-.49-.66-.82.33-.19.4.03.78.02.38-.02.38.1.76.08q.37,0,.75-.03c.37-.01.37-.03.75-.04.38-.02.37-.03.75-.05.38,0,.37-.19.75-.21.38-.02.38-.1.75-.12.38-.01.41.01.78.09-.06.18-.21.37-.29.52-.08.18-.06.44-.17.55.32-.23.34-.21.66-.45.31-.25.13-.57.5-.71.34-.13.41.29.77.27.37,0,.36-.25.72-.27.36-.01.37.22.73.21.36-.02.35-.32.71-.34.36-.01.36.01.73-.01.36-.01.37.24.74.23.36-.02.45-.44.65-.14.22.32.09.37-.03.74-.13.37-.26.3-.26.69.25.02.36-.08.6-.06.25.02.49.13.73.14.25.02.49.11.73.12.25.01.5-.17.74-.17.25.01.49.31.73.31s.49-.09.73-.09c.25-.01.49.05.73.04.25-.01.5,0,.74-.01.25-.02.47-.24.71-.26.25-.02.5.02.73-.01.25-.02.5.04.74.01.24-.03.45-.12.68-.16.13.18.2.37.33.53.13.18.5.15.64.31.11.13.1.34.18.5-.08-.21.07-.33.28-.45.16-.09.36-.24.66-.29.21-.03.45-.12.72-.14.23,0,.47-.1.73-.11.24,0,.48.31.74.31.23,0,.48-.2.73-.19.24.01.48.11.73.12.23.01.48-.11.73-.1.24.01.47.29.72.3.24.01.5-.33.74-.32.24.02.47.28.71.29.25.01.49-.04.74-.03.24.01.49-.01.73,0,.25.01.49.08.73.09.25.01.49-.12.74-.11.24.01.48.13.72.14.25.01.49.19.73.19s.5-.11.74-.11.49-.1.73-.1c.25-.02.49-.05.72-.07.26-.02.53.12.75.08.27-.04.52-.26.72-.32-.27-.21-.42.06-.73-.07-.32-.14-.3-.2-.62-.34-.32-.13-.2-.41-.52-.54-.32-.14-.35-.08-.67-.21q-.32-.14-.64-.27c-.32-.14-.41.07-.73-.07-.33-.13-.25-.3-.57-.44-.33-.14-.3-.19-.62-.33-.33-.14-.41.04-.7-.15.25.02.51.05.75.07.26.02.52.02.76.02.26.01.51-.13.76-.13.26-.01.52.26.77.24.26-.02.48-.32.73-.34.26-.03.55.27.8.23.25-.04.47-.24.71-.29.24.04.49-.02.73.02.24.04.46.2.7.24.24.03.5-.08.74-.05.24.03.47.13.71.16.24.04.5-.05.74-.02.24.03.46.21.7.23.24.03.46.19.7.22.24.03.52-.29.76-.26.24.02.46.28.69.3.25.02.49,0,.73.02.24.01.48.05.72.06.25.02.48.19.72.2.25,0,.5-.31.74-.31.25.01.48.25.72.25s.49-.26.73-.27c.24,0,.49.23.72.22.25-.01.48-.14.72-.16s.47-.14.71-.16c.24-.03.49.09.73.06.24-.03.48-.05.72-.09.23-.04.5.06.73.02.24-.05.45-.23.69-.28.23-.05.48-.04.72-.1.23-.05.47-.09.7-.16.23-.06.48-.07.72-.14.22-.07.35-.45.58-.53s.45-.16.68-.25c.22-.07.53.06.75-.02.22-.09.44-.19.67-.28.22-.09.37-.36.6-.45.22-.09.45-.15.68-.25.21-.09.41-.25.63-.35.22-.09.46-.14.69-.24.22-.09.49-.12.71-.22.1.22.05.54.17.74.13.2.5.23.65.42.15.18.21.43.38.6.17.16.33.34.53.48.18.13.36.32.57.43.2.11.49.07.71.16.21.09.46.05.7.11.22.06.47.44.72.48.11-.18.19-.53.32-.74.12-.18.22-.4.35-.6.12-.19.22-.4.35-.6.12-.19.17-.44.29-.64.12-.19.33-.33.46-.54.12-.19.24-.39.36-.59.13-.2.28-.37.41-.57.2.27.27.26.37.59.11.32-.05.37.05.69.11.32.09.33.2.65.1.32.02.37.22.64.19-.13.4-.23.65-.3.21-.06.47.02.73-.01.22-.03.44-.32.7-.32.23-.01.47.33.72.34.23.01.49-.29.74-.27.23.02.44.34.69.37.23.03.48-.04.73,0,.23.03.46.17.7.21.24.04.48.03.73.07.23.05.46.11.71.16.23.04.34,0,.58.05-.2.16-.33.14-.52.29-.2.15-.35.36-.54.5-.2.15-.31.41-.51.55-.2.15-.52.12-.72.26-.2.15-.23.51-.43.65-.2.14-.63.21-.82.34.23.1.66.05.86.15.23.11.4.3.59.41.22.12.42.24.6.36.22.13.49.17.66.3.21.15.41.3.56.44.2.18.2.51.35.66.18.17.35.33.54.47.17.13.43.11.68.2.19.07.36.3.63.35.2.04.43.12.69.15.21.02.46-.23.72-.22.21.01.44-.02.69-.01.22,0,.45.24.7.24.22,0,.45-.25.69-.25.23-.01.46.19.71.18.22,0,.44,0,.69,0,.19.19.2.42.31.6.15.22.29.35.31.56.03.24.02.44-.09.65-.11.19-.32.28-.51.45-.16.15-.29.34-.5.47-.19.12-.35.32-.57.42-.21.1-.49.02-.72.1-.21.09-.36.38-.59.45-.22.08-.5-.04-.73.02-.22.06-.46.06-.69.12-.23.05-.46.11-.69.15-.23.05-.4.42-.63.46-.24.05-.48.04-.71.07-.2.03-.39.08-.57.1.24.06.26.24.58.27.35.03.37-.18.73-.14.36.03.36-.03.72,0,.36.03.35.15.7.19.36.03.35.13.71.17.36.03.38-.16.73-.13.36.04.36.08.72.11.35.04.35.03.71.07.36.03.35.08.71.11.35.03.35.08.7.11.36.04.36.07.71.1.36.03.37-.09.73-.05.36.03.37-.06.73-.03.35.03.35.1.7.13q.36.03.72.07c.36.03.36.04.71.07.36.04.37-.04.73,0,.36.03.35.08.71.11.36.04.34.26.7.3.36.03.38-.23.74-.2.36.04.34.28.7.31.36.03.36.01.72.04.36.04.37-.14.73-.11.36.04.37-.05.73-.02.36.03.35.15.71.18.36.03.35.13.71.16.37.04.39.16.74.07-.03-.25-.01-.53.01-.77.01-.24-.16-.54-.09-.77s.47-.33.59-.54c.12-.21.17-.44.33-.64.16-.18.36-.31.54-.47.18-.16.21-.51.41-.66.19-.14.42-.26.63-.39.2-.13.51-.07.73-.19.21-.12.31-.44.54-.55.21-.11.53-.01.75-.11.22-.1.48-.11.71-.21.22-.09.35-.41.58-.5.22-.09.5-.05.73-.14.22-.09.41-.27.64-.36.23-.08.53.02.76-.07.23-.09.36-.43.59-.51.23-.09.52-.02.75-.11.23-.09.42-.26.64-.35.23-.09.5-.09.72-.19.23-.1.36-.4.57-.5.23-.11.58.05.79-.06.22-.12.34-.42.54-.55.21-.13.33-.37.52-.51.2-.15.47-.19.64-.35.18-.18.25-.42.38-.61.14-.2.28-.44.36-.67.3-.08.7-.08,1-.17-.06.18-.3.36-.44.61-.1.19.01.58-.18.78-.15.16-.44.21-.66.37-.18.13-.49.28-.73.4.25-.07.63-.07.88-.13.26-.07.49-.23.74-.29.26-.05.51-.12.77-.17.26-.05.55.09.81.05.26-.05.59-.27.85-.31-.11.38-.33.86-.3,1.11.13-.15.41-.37.63-.52.17-.12.31-.34.53-.45.2-.1.47,0,.69-.1.23-.02.41-.36.65-.38.23-.01.47.08.7.07.23-.01.46.01.7.01.23-.01.46-.07.69-.07s.47-.07.7-.07c.23.01.46.35.69.35.23.01.47-.16.7-.16.23.01.46.04.7.05.23.01.45.16.68.18.23.02.47-.06.7-.04.23.02.46.06.69.08.24.02.47.03.7.06.23.02.47-.01.7,0,.23.03.45.05.68.08-.28.27-.37.13-.71.32-.34.19-.29.26-.63.45-.34.2-.25.35-.59.54-.34.19-.6-.14-.87.14.24.07.61.12.85.17s.45.32.69.35c.24.03.5-.11.75-.11.24.01.48-.02.73-.04.24-.01.46-.15.71-.19.24-.03.47-.08.71-.14.23-.05.49-.02.72-.09.24-.07.52,0,.75-.08.23-.09.39-.36.61-.46.23-.09.51-.04.73-.14.24.04.5-.1.73-.06.24.05.46.22.7.26.23.05.5-.09.74-.04.24.04.44.29.68.33.24.05.51-.11.75-.06s.43.34.66.39c.24.05.49.06.72.1.24.05.49.04.73.09.23.05.47.11.7.16.24.05.47.16.71.2.23.05.47.09.71.14.24.05.52-.14.76-.09.24.04.46.16.7.21.23.04.48.04.72.08.24.05.43.32.67.37.24.04.48.05.72.09.24.04.45.2.69.24.24.05.5-.05.74,0,.24.04.46.17.7.21.24.04.5-.11.74-.07.24.04.45.27.69.3.24.04.48.05.72.08.24.03.51-.2.75-.17.24.03.47.1.7.12.25.03.47.25.71.27.24.02.47.11.71.13s.49-.04.73-.03c.24,0,.48.13.71.14.24.01.49-.28.73-.28s.48.2.72.2.48.08.72.07c.24,0,.5-.28.74-.29.21.13.31.51.51.61.23.12.53.03.74.1.26.08.49.25.69.23.24-.03.58-.15.72-.36.11-.16.17-.47.21-.76-.02-.01-.2-.16-.21-.17.24-.05.49-.02.72-.08.23-.06.43-.23.65-.3.23-.08.51,0,.73-.09.22-.09.51-.04.72-.14.22-.1.33-.42.54-.53.21-.12.34-.34.54-.47.2-.13.47-.15.66-.29s.49-.15.67-.31c.18-.15.25-.43.42-.6.17-.16.23-.42.39-.6.16-.18.58-.13.73-.32.14-.19.05-.55.19-.75.13-.2.24-.4.36-.61.13-.2.37-.33.48-.54.11-.21.19-.44.29-.66.1-.21.32-.25.41-.48.3-.18.18-.45.51-.56.34-.11.4.07.73-.04.33-.11.34-.09.67-.2.33-.11.38.05.72-.06.33-.11.24-.38.57-.49.34-.11.36-.06.69-.17.34-.11.32-.17.65-.28.34-.11.35-.18.71-.17-.02.24.14.51.17.75.03.24-.12.51-.04.74.08.22.25.41.38.62.13.2.25.32.43.51.02-.23.26-.32.37-.56.09-.2.04-.5.19-.71.13-.19.43-.25.6-.44.15-.18.29-.36.47-.54.17-.16.15-.55.33-.71.18-.16.38-.32.57-.47.2-.15.59-.04.78-.17.21-.16.31-.44.49-.56.41-.16.4-.3.83-.36.25.13.46.37.62.52.19.19.36.38.45.59.1.23.2.48.23.72.03.25-.05.51-.04.75,0,.25.12.49.16.72.05.24.11.44.27.64.13.17.28.32.54.44.19.08.41.16.69.21.21.04.45.18.72.2.23.01.47-.11.74-.11.23-.01.47-.08.74-.1.23-.02.4-.03.66-.05.05-.26.21-.4.29-.61.1-.24.21-.45.34-.64.15-.21.36-.33.54-.49.18-.16.28-.45.49-.57.21-.11.45-.19.68-.28.23-.08.47-.16.71-.22.23-.05.5.03.74,0,.24-.02.48-.21.72-.22s.49.25.73.26c.25,0,.49,0,.73.01.26.01.52-.27.75-.25.27.02.5.19.72.21.34.03.6.17.73.15.19-.03.16-.34-.31-.62-.16-.1-.51.03-.77-.11-.18-.1-.29-.41-.53-.54-.19-.1-.34-.33-.58-.45-.2-.11-.43-.2-.66-.32-.2-.1-.49-.08-.72-.2.23.04.47.04.71.08.23.03.48-.07.71-.04.24.03.45.23.69.25.23.03.48-.02.71,0,.24.02.46.25.69.27.24.02.48,0,.72.02.24.02.49-.11.72-.1.24.02.47.21.71.23.24.02.48-.02.71,0,.24.02.5-.21.74-.2.24.02.46.21.7.23.24.02.47.09.7.12.24.02.47.1.7.12.25.03.52-.2.75-.17.24.03.43.36.66.4.24.04.46.12.69.16.24.05.5-.04.73.02.23.06.5,0,.72.07.24.09.46.19.67.29.23.11.41.28.59.41.21.15.4.3.54.48.15.19.08.47.14.69.06.22.14.5.12.75.24,0,.58-.17.82-.17s.48.11.72.11c.24,0,.48-.06.72-.06h.72c.24,0,.48.06.72.06s.48-.09.72-.09.48.17.72.17.49-.05.73-.05c.24.01.48-.08.72-.08s.48.05.72.05c.24.01.48-.15.72-.15.24.01.48.14.72.14s.48-.04.72-.04c.24.01.48.02.72.02.24.01.48-.05.72-.05.24.01.48.14.72.15.24,0,.48-.05.72-.05.24.01.48.19.72.2.24,0,.48-.12.72-.11s.48.13.72.14c.24.01.48,0,.72,0,.24,0,.49-.26.73-.26.24,0,.48.12.72.13.24,0,.48.16.72.16.24.01.48-.03.72-.02.24.01.48.09.72.1s.48-.14.72-.13c.24.01.48.1.72.11s.48-.02.72-.01c.24.01.49-.05.73-.04s.48-.05.72-.04c.24.01.48.09.72.11.24.01.47.26.71.28.24.01.48-.09.72-.08.24.01.47.15.71.16.24.02.5-.24.74-.23.24.02.46.31.7.32.24.01.49-.08.73-.06.24.01.47.11.71.12.24,0,.5-.15.73-.14.24.02.48.16.72.18.24.01.49-.22.73-.2.24.01.46.32.7.34.24,0,.5-.19.74-.17.24.01.48,0,.72,0,.24.02.48-.03.72,0,.24,0,.47.22.71.24.24.01.47.18.71.2.24.01.48-.04.72-.02.24.01.5-.19.74-.17.24,0,.46.26.7.28s.5-.29.74-.28c.24.02.46.35.7.37.24,0,.49-.07.73-.05.24.02.48.08.72.1.24.01.49-.19.73-.17.24.02.47.17.71.19.24.02.47.23.71.25.24.02.48-.07.72-.05.24.02.48.1.72.11.24.02.48,0,.72.02.24.02.49-.13.73-.11s.46.27.7.28c.24.02.49-.05.73-.03.24.02.48-.02.72,0s.5-.14.74-.12.47.07.71.09c.24.02.47.26.71.28.23.01.47.07.71.09.24.02.51-.29.75-.28.24.02.46.3.69.32.24.02.5-.21.74-.2.24.02.46.33.7.34.24.02.47.13.71.15.24.02.51-.3.75-.28.24.01.47.16.71.18s.48-.04.72-.02.49-.04.73-.03c.24.02.45.4.69.42s.49-.09.73-.07c.23.02.47.08.71.09.24.02.48.05.72.07.24.02.49-.13.73-.11.24.02.47.19.71.2.24.02.49-.15.73-.13s.47.2.71.22c.24.02.48.02.72.04s.47.13.71.15c.24.02.49-.14.73-.12.24.02.46.22.7.24.24.02.48.04.72.06.24.02.5-.25.74-.23.24.02.46.31.7.33.24.01.5-.23.74-.21.24.02.48.02.71.04.24.02.47.17.71.19.24.02.47.18.71.2.24.02.5-.21.74-.2.24.02.46.28.7.3s.5-.33.74-.32c.24.02.47.25.71.26.24.02.47.14.71.15.24.02.48,0,.72.03.24.01.49-.21.73-.19.24.01.47.22.71.24.24.01.48.01.72.02.24.02.49-.11.73-.1.24.02.47.08.71.09.24.02.49-.1.73-.08.24.01.47.14.71.15.24.02.48.15.72.16.23.01.48-.11.72-.1s.47.22.71.23.48.07.72.08c.24.01.49-.32.73-.31s.48.06.72.08c.24.01.48-.05.72-.04.24.01.46.39.7.4.24.01.48.02.72.03.24,0,.48-.1.72-.09.24.01.49-.15.73-.14s.47.26.71.27c.24.01.48-.15.72-.14s.48.2.72.2c.23.01.48,0,.71,0,.24.01.48-.05.72-.04.24,0,.48.07.72.08.24,0,.49-.28.73-.27.24,0,.47.26.71.26.24.01.48-.24.72-.24.24.01.47.25.71.25s.43-.07.67-.07c-.04-.35.02-.38-.14-.7-.16-.32-.16-.31-.32-.63-.16-.31-.4-.19-.56-.51-.16-.31-.03-.38-.19-.7-.16-.31-.05-.37-.21-.69-.16-.31-.38-.2-.54-.52-.16-.31.01-.4-.15-.71-.16-.32-.28-.26-.44-.57-.16-.32-.27-.27-.43-.58-.16-.32-.02-.4-.18-.71-.16-.32-.54-.37-.35-.67.19-.3.39.15.75.17q.35.01.7.02c.36.01.35.09.71.1.35,0,.35-.01.71,0,.35.02.35,0,.71.02.35.02.35-.06.71-.05.35.01.36-.19.72-.17.35.01.34.21.7.22.35.02.36-.24.72-.23.35.01.35.26.7.27.35,0,.35.07.71.09.35.01.36-.16.72-.15.35.02.35.17.7.18.36.02.37-.24.73-.23.36.02.35.15.7.21.21.12.51.09.7.23.19.15.28.43.44.59.17.18.29.39.42.58.14.2.14.45.22.66.09.22.24.4.25.63.01.24.01.47-.08.69-.08.2-.35.27-.52.45-.16.15-.26.33-.49.46-.18.11-.39.16-.63.25-.21.07-.39.26-.63.32-.22.05-.44.1-.69.14-.22.03-.45.09-.7.11-.22.02-.46.06-.7.06-.23.01-.47-.1-.71-.1s-.6.02-.84.01c.18.18.46.43.66.57.2.14.41.3.63.39.22.1.49.1.73.16.23.05.49-.06.73-.04.24.01.48.16.73.15.23-.01.47-.11.71-.15.24-.04.51.04.75-.02.23-.06.4-.32.64-.4.23-.08.43-.21.66-.3.22-.09.44-.19.66-.29.22-.1.47-.12.69-.23.22-.11.45-.19.66-.31.21-.13.38-.32.58-.45.21-.14.49-.16.69-.29.2-.14.46-.2.66-.34.2-.15.33-.38.52-.52.2-.16.43-.27.61-.42.19-.17.24-.48.41-.64.19-.18.44-.27.59-.43.18-.2.18-.51.3-.68.19-.26.49-.3.51-.46.25.04.45.04.68.09.25.05.49.06.72.11.25.06.47.18.69.24.24.07.49.08.71.15.24.08.49.12.7.2.24.1.44.26.63.36.24.12.35.38.52.5.23.17.46.24.57.41.15.22.42.44.4.67-.02.22-.16.51-.31.73-.11.18-.43.24-.62.43-.16.15-.27.38-.48.54-.18.14-.49.11-.69.25-.2.13-.41.23-.62.36-.2.12-.33.37-.54.49-.21.11-.33.42-.54.53-.21.11-.56-.02-.77.08-.22.12-.46.18-.67.28-.22.12-.45.2-.66.3-.23.12-.36.38-.56.48-.24.13-.45.26-.62.36-.34.21-.62.4-.58.51.04.1.33.03.76.05.34-.01.33-.06.67-.09.35-.03.36.12.71.09.34-.03.34-.06.68-.09.35-.03.35.06.7.03.34-.03.33-.19.67-.22.34-.03.33-.13.68-.16.35-.03.35.03.7,0,.34-.03.36.15.7.12.35-.03.56.24.55-.11,0-.4-.27-.09-.62-.29-.35-.2-.36-.22-.63-.52.22-.13.48-.15.69-.28.21-.13.4-.29.6-.42.21-.14.47-.19.67-.33.2-.14.29-.44.49-.58.2-.15.31-.4.5-.54.2-.15.5-.16.7-.31.19-.15.26-.47.45-.61.2-.15.56-.06.76-.2.2-.13.28-.47.49-.6.2-.12.45-.19.67-.31.21-.11.39-.3.62-.4.22-.1.48-.11.72-.19.22-.08.49-.05.73-.12.23-.06.43-.22.68-.28.23-.05.45-.23.69-.27.23-.04.53.27.78.23.23-.03.46-.07.71-.09.24-.02.47-.2.72-.21.24-.01.48.05.73.04.24,0,.48-.11.73-.11.24-.01.48.15.74.15.23.01.49-.14.74-.13.26.07.48.24.7.3.26.08.52.11.73.19.26.1.51.15.71.25.25.13.49.23.68.37.22.16.44.32.59.49.18.2.06.58.17.78.12.24.2.44.25.66.07.27.3.46.37.68.07.26.09.56.28.71.16.13.45.13.76.17,0,.21.15.3.52.37.19.04.42.2.74.19.21,0,.47-.02.75-.05.22-.03.47-.11.74-.15.23-.04.47-.13.74-.18.35-.01.34.21.69.22.35.02.36-.12.71-.11.35.02.36-.19.71-.17.35.01.35.15.7.17.35,0,.34.25.7.27.35.01.35-.13.71-.11.35.02.35-.01.7,0,.35.02.35.07.7.09.36.02.35.11.71.13.35.02.35-.04.71-.03.35.02.35-.03.71-.02.35.02.36-.14.71-.13.36.02.35.3.7.31.35.02.36-.2.72-.19.35.02.36-.1.71-.08.35.01.34.22.7.24.36.01.36-.18.72-.16.36.01.34.29.7.31.36.01.73.29.89-.03.15-.31-.31-.43-.55-.68s-.24-.26-.48-.51c-.25-.24-.26-.23-.5-.48s-.35-.15-.59-.39c-.24-.25-.24-.26-.48-.51s-.25-.24-.5-.49-.25-.24-.49-.49c-.25-.25-.26-.24-.5-.49-.25-.25-.33-.17-.57-.42-.25-.25-.18-.32-.43-.57s-.36-.2-.51-.52c.22-.1.49-.23.7-.32.23-.08.5-.01.72-.08.22-.08.42-.21.65-.27.23-.07.43-.21.66-.26.23-.05.48-.02.71-.06.23-.05.48.04.71,0,.24-.04.43-.36.66-.39.24-.03.47-.03.7-.06.24-.03.49.1.72.07.24-.03.47-.17.69-.2.25-.03.45-.21.66-.25.27-.05.54.12.73.04.27-.09.42-.27.53-.44.12-.17.34-.43.26-.71-.06-.18-.43-.28-.58-.51-.11-.18-.03-.51-.2-.72-.13-.17-.33-.3-.5-.49-.1-.12-.23-.21-.36-.31.16.06.36.08.5.17.2.14.45.18.66.31.2.12.33.37.55.49.21.11.46.14.68.25.21.1.33.44.55.54.22.09.48.09.71.18.22.09.48.1.71.18.22.08.41.3.64.37.23.07.49.05.73.12.23.07.44.2.68.26.23.06.45.17.69.23.23.06.53-.18.77-.13.24.06.42.36.66.41.23.04.5-.05.74,0,.23.04.47.07.7.12.24.04.49-.01.73.03.23.04.44.27.68.31.23.03.46.13.7.16.24.04.48.02.72.05.24.03.47.09.71.12.24.02.5-.15.74-.13.24.03.49-.07.73-.05.24.03.48.09.72.11.23.02.46.15.71.17.23.02.47.12.71.14.24.02.49-.12.73-.1s.48.07.72.08c.24.02.48,0,.72.02.24,0,.47.15.71.16.24.01.48.07.72.08s.49-.12.73-.11c.24.01.48-.09.72-.08s.48.12.72.13c.24.01.49-.03.73-.03.24.01.48.06.72.07.24,0,.48.21.72.21.24.01.49-.11.73-.11s.48-.21.73-.21.48.25.72.25.48.01.73.01c.24,0,.48-.27.72-.27s.49.19.73.19.49.14.73.14.48-.06.73-.06.48-.15.72-.15.49.04.73.04c.25,0,.49.07.73.07s.49-.13.73-.14c.24,0,.49.21.73.2.24,0,.49,0,.73-.01.24,0,.48-.04.73-.04s.48-.07.72-.07c.25-.01.49-.13.73-.14.24,0,.49-.04.73-.04s.49.21.73.2c.24,0,.48-.19.72-.19s.49.04.73.04.49-.18.73-.18c.24-.01.49.33.73.33.24-.01.48-.22.72-.22s.49.05.73.05.48-.13.72-.14c.25,0,.49.12.73.12s.48.14.72.14.49-.2.73-.2.48-.02.72-.02c.24.01.48,0,.72,0,.25.01.48.16.72.17.25,0,.49-.03.72-.03.25.01.48.2.72.22.24.01.49-.14.73-.12.24.01.5-.15.73-.13.25.02.47.23.7.26.25.03.49.08.71.12.26.03.51,0,.73.03.25.06.47.16.68.22.26.08.48.05.67.15.22-.1.48-.01.69-.11.22-.1.34-.42.56-.52.22-.09.53.02.75-.07.22-.09.45-.15.68-.24.22-.08.44-.17.67-.25.22-.09.37-.38.6-.45.23-.08.53.08.76.01s.47-.1.7-.16c.23-.07.4-.37.63-.43.23-.06.51.06.74,0,.23-.06.46-.12.7-.17.23-.05.48-.01.71-.06.24-.05.43-.33.66-.37.24-.05.46-.17.7-.21.23-.04.5.14.74.1.24-.03.46-.14.7-.18.23-.03.46-.19.69-.22.24-.03.48-.04.72-.06.24-.02.5.2.74.17.23-.02.46-.16.7-.17.24-.02.47-.17.71-.18.23-.02.48.08.72.06.24-.01.47-.12.71-.13s.48.07.72.07c.24-.01.48.12.72.12.24-.01.47-.21.71-.21s.48.24.72.24.47-.06.71-.05c.24,0,.48-.22.72-.22s.48-.04.72-.03c.24,0,.47.16.71.17s.48.09.72.1c.24.01.48-.12.72-.11s.48-.03.72-.02c.24.01.48-.06.72-.05s.47.22.71.23c.24.01.48.18.72.19.24.02.68-.09.92-.08-.21-.1-.5-.41-.7-.57-.18-.15-.47-.19-.63-.39-.14-.19-.24-.42-.36-.64-.11-.21-.21-.43-.29-.67-.07-.23.06-.49.03-.73-.02-.24-.07-.45-.04-.69.03-.24-.21-.57-.12-.8.09-.22.43-.32.58-.52.14-.18.22-.44.42-.61.18-.14.47-.14.7-.27.2-.1.33-.4.57-.49.22-.08.52.09.77.03.23-.05.45-.13.71-.16.23-.04.47-.01.72-.03.24-.02.47-.04.73-.05.23,0,.47.01.73.02.23.01.38-.01.63.02-.06.24.14.42.1.65-.05.24-.38.43-.41.66-.03.25.03.5.02.73-.02.25-.1.49-.09.72.01.25.23.47.26.7.04.24.01.49.07.71.07.24.21.44.31.65.11.21.15.47.28.66.14.2.26.42.43.59.16.17.48.17.67.32.18.14.39.23.6.35.2.12.27.48.49.59.21.1.45.16.68.25.21.09.47.09.7.16.22.08.44.16.67.23.23.06.44.18.68.24.22.06.44.21.67.26s.51-.15.75-.1c.23.05.47.02.71.07.23.04.47.03.71.07.23.04.4.45.64.49.23.04.52-.24.75-.2.23.04.47.03.71.07.23.04.44.23.68.26.23.04.48,0,.72.04.23.04.43.26.67.3.23.05.5-.11.74-.06.23.04.42.32.65.37.24.05.5-.04.73.01.23.06.49.03.72.09.23.05.38.41.61.48.23.06.46.1.69.17.23.07.55-.14.78-.06.22.08.39.31.61.4.23.08.52,0,.74.11.22.09.4.28.61.39.22.1.4.28.6.39.21.12.37.32.57.45s.53.08.72.22c.19.14.33.36.51.52.18.15.36.31.53.48.17.16.23.37.39.54-.16-.23-.23-.44-.26-.63-.03-.25,0-.55.14-.75.12-.16.32-.38.55-.52.18-.11.5,0,.74-.1.21-.08.36-.37.6-.44.22-.06.46-.09.7-.15.23-.05.49.03.73-.02.22-.04.48.07.72.03.23-.04.43-.31.67-.34.23-.04.48.05.72,0,.23-.03.47-.02.71-.05.23-.03.45-.17.68-.2.24-.03.46-.2.69-.23.24-.02.49.1.72.07.24-.03.49.05.72.02.24-.03.45-.27.69-.3.23-.03.5.16.73.13.24-.03.44-.3.68-.33.23-.04.51.19.74.16.24-.04.43-.36.66-.39.24-.04.53.24.76.2.24-.05.48-.06.71-.11.24-.05.46-.18.68-.24.24-.06.5-.04.72-.11.24-.07.39-.37.6-.46.23-.09.42-.24.61-.35.23-.12.48-.16.64-.3.2-.17.48-.28.59-.48.1-.21.16-.52.15-.76-.01-.22-.36-.37-.47-.61-.08-.2-.14-.4-.29-.61-.12-.18-.18-.43-.35-.63-.14-.16-.37-.26-.56-.44-.16-.16-.39-.44-.58-.61.25.04.57.3.79.34.25.04.51-.06.72-.01.24.07.52,0,.72.07.24.1.39.36.57.46.22.14.3.36.44.51.17.19.34.3.41.51.07.22.24.43.25.67,0,.22.03.47.01.71-.02.23-.21.45-.23.68-.01.23-.11.48-.1.71.02.23.23.44.29.68.06.21-.03.51.08.73.11.19.28.39.44.58.14.17.31.35.5.52.17.14.45.16.66.3.18.12.38.18.6.3.23-.06.47.02.7-.04.24-.06.44-.23.67-.29.23-.06.47-.09.71-.14.23-.05.49.04.73-.01.23-.04.43-.27.67-.32.23-.04.48.01.72-.03.24-.04.46-.19.69-.23.24-.03.49.04.73.01.24-.03.46-.13.7-.16.24-.03.47-.16.7-.19.24-.02.5.16.74.14.24-.02.47-.07.71-.08.24-.02.48.05.72.04.24-.02.48-.1.71-.11.24-.01.48-.04.72-.05.24-.01.47-.18.71-.18.24-.01.49.18.72.17.24,0,.48-.18.72-.18s.48-.04.72-.04.48.08.72.09c.24,0,.47.2.71.2.24.01.48-.01.72,0s.47.11.71.12.48.02.72.03c.24.01.48-.04.72-.03.24.02.49-.21.73-.2.23.02.48,0,.71.02.24.02.46.28.7.3.24.01.5-.21.73-.19.24.02.48.08.72.1.23.02.48-.02.72.01.23.02.47.02.71.04.24.03.46.23.7.26.24.02.46.2.69.23.24.02.49-.01.72.02.24.02.49-.02.72.01.24.02.46.19.7.22.24.03.49-.12.73-.09.24.02.46.2.69.23.24.03.48.02.72.05.24.03.5-.17.74-.14.23.03.46.19.69.22.24.03.49-.04.73,0,.23.03.45.26.68.29.24.03.48,0,.72.02.24.03.48.04.72.07.23.03.46.14.7.17.24.03.48-.01.72.02.24.03.5-.11.74-.09.23.03.45.22.69.25.24.02.47.06.71.09.24.03.46.19.7.21.24.03.49-.05.73-.02.24.03.49-.07.73-.04.24.03.46.21.69.23.24.03.48.07.72.09.24.03.49-.06.73-.04.24.03.48-.01.72,0,.24.02.49-.04.73-.02.23.02.48.01.72.03.23.03.44.39.68.41.24.03.49-.09.73-.07s.47.12.71.14c.24.02.49-.12.73-.1.24.01.48.14.71.16.24,0,.49,0,.73.02.24.01.47.18.71.19.24.02.49-.17.73-.16s.48.05.72.06c.24.02.47.19.71.2s.48.03.72.04.49-.29.73-.29c.24.01.48.14.72.15.24,0,.48-.15.72-.15s.48.34.72.34.48.02.72.01c.24,0,.48-.38.72-.38s.48.07.72.06c.24,0,.49.3.73.29.24-.01.48-.16.72-.17s.48.02.72.01.49.07.73.05c.24-.01.46-.26.7-.27.24-.02.47-.01.71-.02.04-.23.18-.48.12-.73-.06-.22-.22-.44-.31-.67-.1-.22-.19-.44-.29-.67-.09-.22-.35-.38-.43-.61-.07-.23-.09-.48-.12-.72-.03-.24.14-.46.18-.71.03-.22-.03-.48.08-.71.1-.19.38-.26.56-.46.14-.17.14-.49.34-.66.18-.14.33-.36.55-.5.19-.12.49-.18.71-.31.33.12.33.17.62.38.28.21.1.45.38.66.28.2.31.17.59.38.29.2.43.01.71.22.29.21.15.39.44.59.28.21.31.18.59.39.29.21.44,0,.73.21.28.2.11.44.39.65.29.21.33.15.61.36.29.21.42.03.7.24.29.21.1.47.38.68.29.21.34.14.62.35.29.21.33.14.62.35.28.21.18.36.46.57.29.21.45-.02.74.19.28.21.17.36.46.57.28.21.24.26.53.47.29.21.3.19.59.4.28.22.46-.02.74.19.29.21.21.28.54.43.24-.05.45.11.67.01.22-.1.42-.28.62-.42.19-.14.47-.21.65-.38.17-.17.22-.46.38-.65.16-.19.36-.34.51-.53.14-.2.22-.44.36-.64.14-.2.35-.35.49-.55.15-.2.2-.46.35-.65.16-.19.24-.45.4-.62.17-.19.45-.25.64-.41.18-.16.33-.39.54-.51.21-.11.45-.22.69-.29.22-.07.48-.12.73-.14.23-.01.46.22.72.26.22.04.44.09.68.17.22.07.41.2.65.31.21.09.51.01.73.13.21.11.46.16.67.3.2.12.26.47.47.61.2.14.48.09.69.24-.14-.17-.16-.38-.3-.57-.14-.18-.51-.19-.64-.38-.12-.2-.04-.52-.14-.71-.11-.22-.19-.41-.24-.62-.07-.23-.03-.41,0-.62.04-.21-.02-.47.17-.64.14-.13.34-.27.59-.37.18-.07.42-.21.68-.25.23.04.45.35.68.4.24.04.51-.11.75-.06.23.04.49-.02.72.02.24.04.43.35.67.39.23.04.5-.11.74-.07.23.04.43.32.67.36.24.03.52-.23.76-.19.24.03.46.15.7.19.24.03.48-.01.72.02.24.03.48.06.71.1.24.03.47.14.71.17.23.03.48.01.72.04.24.03.47.09.71.12.24.02.47.05.71.08.24.03.48,0,.72.03.24.03.47.19.7.21.24.03.47.16.71.18.24.02.48,0,.72.03.24.02.47.12.71.14.24.02.49-.05.73-.03s.48-.08.72-.07c.24.02.47.16.71.17.24.02.48.11.72.13.23.01.49-.18.73-.16.24.01.48.04.72.06.23.01.48-.03.72-.01.24.01.46.27.7.28s.49-.1.73-.09c.24.02.46.26.7.27s.5-.31.74-.29c.24.01.47.08.71.09s.49-.06.73-.05.47.27.71.27c.24,0,.48-.07.72-.06.24.01.48.06.72.07.24.01.48-.13.72-.12.24,0,.48.08.72.08.24.01.48.07.72.08.23,0,.48-.09.72-.09.24.01.48-.12.72-.12.24.01.48.12.72.13.23,0,.48-.11.72-.11s.47.25.71.26c.24,0,.48-.2.72-.2.24.01.48.03.72.03s.48.01.72.01.48.26.72.26c.24-.01.48-.13.72-.13s.48.08.72.08c.24-.01.48-.18.72-.18s.48.17.72.16c.24,0,.48-.11.72-.12.24,0,.48-.1.72-.1.24-.01.48.21.72.21.24-.01.48-.17.72-.18.24,0,.48-.04.72-.05s.48.18.72.17c.24,0,.48.02.72.01s.48-.17.72-.17c.24-.01.47-.19.71-.2.24,0,.49.29.73.28.24,0,.48-.04.72-.05.24,0,.48-.03.72-.04s.47-.31.71-.32.48.17.72.16c.24,0,.49.17.73.16l.72-.03c.24,0,.47-.12.71-.13.24-.01.47-.28.71-.28.24-.01.49.14.73.13.23-.01.48.07.72.06s.47-.29.71-.3.49.28.73.27c.24,0,.47-.21.71-.22s.47-.07.71-.08c.24-.01.49.26.73.25s.47-.25.71-.26c.24,0,.48-.07.72-.08s.49.26.73.25.48-.01.72-.02.47-.25.71-.26c.24-.01.48.01.72,0s.48-.07.72-.08c.24,0,.48.11.72.1s.47-.23.71-.24c.24-.01.49.16.73.15s.48-.1.72-.11.48.16.72.15l.72-.03c.24-.01.49.08.73.07.23-.01.47-.23.71-.24.24,0,.48,0,.72-.01s.48.17.72.16c.24,0,.47-.37.71-.38.24-.01.49.18.73.17s.48.14.72.13c.24-.01.48-.04.72-.05.24-.01.48-.08.72-.08.24-.01.48,0,.72-.01.24,0,.47-.18.71-.18.24-.01.48-.1.72-.11h.72c.24-.01.48.04.72.04s.48.04.72.03c.24,0,.49.13.73.13s.47-.18.71-.18.49.14.73.14.48.07.72.07.48-.03.72-.03.47-.19.71-.19.49-.07.73-.07.48,0,.72,0,.47.21.71.21.49-.18.73-.18.47.29.71.29.49-.22.73-.22c.24.01.47.24.71.25.24,0,.49-.24.73-.23.24,0,.48-.08.72-.08.24.01.47.19.71.2.24,0,.49-.09.73-.08.24.01.47.16.71.17.24,0,.48.11.72.12s.48.06.72.07.48-.15.72-.14.47.17.71.18c.24.01.48.06.72.07s.49-.25.73-.24.47.3.71.31c.24.02.48-.05.72-.03.24.01.48.05.72.06.24.02.49-.24.73-.22.24.02.47.18.71.2s.47.12.71.14c.24.02.48.05.72.07.24.02.48-.06.72-.04.24.02.47.19.71.21s.49-.08.72-.05c.24.02.49-.06.73-.03.24.02.47.16.71.18.23.03.49-.11.73-.09.24.03.45.3.69.33.24.02.48-.03.72,0,.24.03.48.03.72.06.24.03.45.23.69.26.24.03.49-.08.73-.04.24.03.51-.17.75-.14.24.04.45.25.68.29.24.03.47.14.71.18.23.03.51-.19.75-.15.23.04.43.35.66.39.24.04.49,0,.73.04.23.03.46.13.7.17.23.04.46.12.7.16.23.05.46.13.7.17.23.05.51-.12.74-.08.24.05.47.11.71.15.23.05.44.24.68.28.23.05.45.16.69.21.23.05.51-.1.74-.05.24.05.5-.01.73.05.24.05.39.44.63.49.23.05.47.1.7.16.23.05.49,0,.73.05.23.06.44.2.67.26.24.05.48.07.71.13.24.06.5-.03.74.03.23.06.42.28.65.34s.54-.15.77-.09c.23.06.43.25.66.32.23.06.5.01.73.07.23.07.47.11.7.17.23.07.42.29.65.36.23.07.4.32.63.39.23.07.5,0,.73.07.23.07.5.03.72.1.23.08.45.18.68.26.23.07.49.06.71.14.23.07.41.29.64.37.17.05.37.03.55.05-.15-.09-.3-.16-.43-.24-.21-.14-.4-.28-.57-.41-.22-.15-.49-.21-.64-.35-.21-.19-.17-.54-.26-.7-.17-.26-.41-.5-.31-.69.09-.16.4-.27.67-.38.19-.07.42-.13.68-.19.21-.04.44-.05.69-.09.22-.03.46.04.7.02.22-.02.46.04.7.02.23-.01.46-.02.69-.03.23-.01.46-.29.69-.3.23,0,.34.15.58.14-.27-.07-.38-.18-.56-.29-.22-.14-.23-.42-.33-.62-.1-.21-.33-.38-.34-.63,0-.22-.08-.5-.03-.75.04-.22.11-.46.17-.7.07-.23.35-.4.42-.63.06-.23-.03-.5.03-.73.06-.24.13-.46.17-.69.04-.24.34-.46.34-.69.01-.25-.19-.46-.25-.68.37.01.34.11.68.23.35.12.3.26.64.38.35.12.37.06.72.18.34.12.4-.04.74.08.35.12.36.08.71.2.34.12.31.22.65.34s.4-.04.75.08c.34.12.31.21.65.33.34.12.37.05.71.17.34.12.26.37.6.49.35.12.43-.12.77,0,.35.13.36.1.7.23q.35.12.69.24c.35.12.31.24.65.36.35.12.28.31.62.43.35.12.37.06.72.18.35.12.32.2.66.32.35.12.47-.23.82-.11.35.12.31.22.66.34.35.13.38.03.72.15.35.12.25.4.6.53q.35.12.69.24c.35.12.36.09.71.21.35.12.42-.1.77.02.35.12.33.18.68.3.06.02.1.04.14.07V0H0v24c.14.04.28.08.43.1ZM1536.92,30.72c.24-.06.52.09.72.04.26-.06.49-.07.68-.1.28-.05.49-.19.67-.2.39-.02.48.11.53.24.05.14.16.41-.05.66-.13.16-.43.21-.6.39-.16.16-.35.5-.52.66-.38-.1-.38-.21-.73-.41s-.18-.51-.53-.71c-.35-.2-.43-.02-.71-.31.23-.06.33-.21.54-.26ZM1372.34,22.06c.08-.21.16-.43.31-.65.12-.19.15-.48.32-.67.14-.18.34-.34.51-.53.16-.17.36-.31.53-.48.17-.18.4-.29.57-.46.17-.18.27-.42.43-.6.17-.18.32-.36.46-.55.16-.19.22-.43.34-.63.14-.22.26-.39.33-.6.08-.24.31-.45.27-.68-.04-.22-.28-.35-.46-.55-.14-.16-.15-.54-.38-.69-.19-.11-.66-.02-.91-.12.22-.03.58-.26.8-.28.22-.01.45.33.67.32.22,0,.43-.08.65-.07.22.01.57-.19.79-.17,0,.24-.18.58-.21.82-.04.24-.12.47-.18.7-.05.24-.02.5-.1.73-.08.22-.3.4-.39.63-.1.22.05.55-.06.77-.11.22-.39.35-.5.57-.12.21-.3.39-.42.6-.12.2-.22.42-.35.63-.13.21-.3.39-.43.59-.13.21-.14.49-.27.7-.13.2-.19.45-.32.66-.13.2-.48.27-.61.48-.13.2-.07.53-.19.73-.13.21-.34.29-.46.5-.25-.14-.38-.24-.52-.39-.18-.21-.42-.38-.45-.6-.03-.23.14-.47.23-.71ZM1292.28,34.92c.06-.22.2-.43.29-.67.08-.22.23-.41.33-.64.1-.22.15-.46.27-.68.11-.21.1-.61.23-.82.24.03.58.05.82.09.24.03.44.41.68.44.24.03.5-.02.74.01.24.03.52-.22.76-.2.25.03.47.26.71.29.25.02.49.08.73.1.25.02.5-.07.74-.05.25.02.48.17.73.19.24,0,.5-.24.75-.23.24.01.48.21.72.22.25,0,.49.08.74.08.24.01.49,0,.73,0,.25,0,.5.06.74.06s.49-.15.74-.16c.24,0,.49-.09.73-.1.21-.01.42.16.63.21.03,0,.08-.02.13-.04.21-.06.32-.01.44,0,.11-.02.21-.04.31-.04-.13.06-.22.06-.31.04-.15.02-.31.05-.45.06-.04,0-.08,0-.12-.02-.22.08-.25.12-.54.21-.34.1-.3.25-.64.35-.35.1-.39-.02-.73.08-.35.11-.33.14-.68.25-.35.1-.3.25-.65.35-.34.11-.35.07-.7.18-.34.1-.36.05-.71.16-.34.1-.37.02-.71.12-.35.11-.32.2-.67.3q-.34.11-.69.22c-.34.1-.32.2-.66.3-.35.11-.36.08-.71.18-.34.11-.41-.09-.75.01-.35.11-.3.27-.65.38-.34.1-.43-.18-.77-.07-.35.1-.29.31-.64.41-.34.11-.39-.05-.74.06-.35.1-.36.07-.71.18-.35.11-.29.56-.65.55-.04-.24,0-.65.02-.9,0-.24-.09-.49-.05-.74.04-.23.15-.46.22-.71ZM1016.22,22.64c.23-.03.46,0,.69-.01.23-.01.45-.17.69-.17s.46-.07.7-.06c.22.01.43.29.67.31.22.03.48-.17.71-.13s.42.25.65.3c.22.05.45.07.68.13.22.06.48-.02.71.05.21.07.39.27.61.36.21.08.61.11.82.2-.19.17-.47.47-.68.58-.22.12-.57-.12-.8-.06-.23.07-.43.18-.68.2-.23.02-.48.29-.73.27-.23,0-.45-.26-.7-.31-.23-.04-.45-.14-.69-.21-.22-.06-.49-.04-.72-.13-.22-.08-.4-.3-.62-.4-.22-.09-.56.05-.78-.06-.21-.1-.35-.38-.57-.5-.21-.11-.34-.2-.56-.32.23-.04.37,0,.6-.04ZM456.23,36.51c.05-.23.1-.48.17-.73.06-.24.24-.42.29-.67.23.04.41.16.64.2.23.05.45.15.68.2.22.05.45.11.68.16.22.05.46.06.69.12.22.06.47.04.69.1.23.06.48.04.71.1.22.07.46.07.69.14.22.07.45.12.67.2.23.07.44.17.66.25s.44.16.67.24c.21.08.42.19.64.28.22.08.36.36.58.45.21.09.54-.07.76.02.19.09.34.35.53.47-.22,0-.47-.15-.69-.1-.24.05-.43.32-.67.37-.24.04-.49.03-.73.07-.24.05-.46.15-.7.19s-.5-.06-.74-.03c-.24.04-.45.29-.69.32-.24.03-.5-.04-.74-.02-.24.03-.48.14-.72.16-.24.02-.49-.03-.74-.02-.24.02-.47.21-.72.22-.24,0-.49-.34-.74-.34s-.45.01-.69.01c-.26-.13-.58-.03-.74-.18-.21-.19-.26-.48-.35-.7-.09-.23-.25-.47-.24-.73.01-.23.1-.49.15-.75ZM395.86,28.17s.08-.01.12-.01c.19-.06.37-.17.56-.24.22-.07.46-.13.68-.21.23-.09.44-.19.67-.28.22-.09.36-.37.58-.47.22-.09.52,0,.74-.11.21-.1.46-.12.68-.23.21-.1.38-.29.6-.4.21-.1.32-.42.53-.53.21-.1.41-.23.63-.34.21-.11.52-.02.74-.13.21-.11.32-.42.53-.53.21-.11.49-.08.7-.19.22-.11.4-.27.62-.38.21-.11.39-.29.6-.4.21-.1.48-.1.7-.2.21-.11.51-.04.73-.14.21-.1.29-.51.51-.61s.49-.07.71-.17c.22-.09.41-.26.63-.35.23-.08.44-.22.66-.3s.52.02.75-.05c.22-.08.4-.3.63-.37.23-.07.47-.13.7-.2.23-.06.5.04.74-.02.23-.05.46-.12.69-.17.23-.06.43-.29.67-.33.23-.04.5.07.73.03.24-.04.49.05.73.02.23-.02.45-.26.69-.28.23-.02.47-.12.71-.13s.49.18.73.18.47.14.71.15c.24,0,.48-.14.72-.13.24.02.49-.15.74-.13.23.02.47.08.71.11.24.03.46.19.69.23.24.04.46.15.7.2.23.04.5-.07.74-.02.23.05.41.33.64.39s.47.08.71.14c.23.07.64.11.87.19-.25-.02-.66.09-.9.08s-.47-.37-.71-.38c-.25-.01-.5.07-.74.06-.24,0-.49.28-.72.28-.25.01-.5-.2-.73-.2-.25,0-.5-.02-.73-.01-.25.02-.49.14-.72.15-.25.02-.5-.09-.74-.07-.25.02-.46.31-.7.34-.24.03-.51-.12-.74-.08-.25.03-.5,0-.74.05-.24.04-.48.11-.71.16-.24.04-.49.05-.73.1-.24.06-.44.26-.67.32s-.44.21-.67.28c-.24.07-.54-.1-.77-.03-.23.08-.39.38-.61.46-.23.09-.52.01-.74.1-.23.1-.44.23-.66.33s-.37.34-.59.44c-.22.11-.49.1-.71.21-.21.12-.4.27-.61.38-.22.12-.35.37-.55.5-.21.12-.44.22-.64.35-.2.13-.43.21-.63.34-.21.14-.46.2-.65.33-.21.14-.35.36-.55.49-.19.14-.41.3-.6.43-.35.09-.36.15-.72.19-.36.05-.36.01-.72.06-.36.04-.38-.17-.74-.12-.36.04-.34.21-.7.26-.36.04-.4-.25-.76-.2-.36.04-.33.25-.69.3-.36.04-.38-.12-.74-.08-.36.05-.36.02-.72.06-.36.05-.32.39-.68.43-.36.05-.39-.18-.75-.13-.36.04-.35.15-.71.2-.31.03-.36-.01-.61.02-.04.02-.07.03-.11.04-.16.05-.35-.01-.53-.02.18,0,.24.02.52,0ZM388.6,36.6c.25.08.55-.11.73-.05.29.1.41.27.49.34-.1-.03-.27-.13-.58-.22-.2-.05-.45-.01-.71-.07-.03-.01-.06-.02-.08-.04.05.01.1.02.15.04ZM386.71,35.67c.23.08.5.17.7.23.15.05.25.25.35.39.04-.01.08-.01.12,0,.21.05.38.2.56.27-.16-.03-.33-.04-.5-.11-.07-.02-.13-.08-.18-.16-.2,0-.43.14-.63.09-.23-.05-.4-.28-.64-.34.1-.07.14-.27.22-.37ZM344.07,24.91c.01-.23.03-.46.15-.69.1-.2.13-.5.3-.69.15-.17.37-.32.57-.48.17-.14.41-.25.62-.38.19-.13.44-.18.66-.3.2-.12.37-.31.59-.42.21-.1.43-.21.66-.31.22-.09.41-.28.63-.36.22-.09.47-.14.7-.22.22-.08.52.05.75-.02.23-.07.41-.31.64-.37.23-.06.54.16.77.1.24-.06.42-.32.66-.37.23-.05.5.07.74.02.24-.04.61-.25.85-.28-.23.12-.51.4-.7.51-.23.14-.64,0-.79.13-.22.21-.33.57-.29.77.03.17.37.17.66.34.16.1.27.38.54.48.19.07.35.12.61.19-.23.09-.36.19-.59.28-.22.1-.5.06-.72.16-.23.09-.35.43-.57.53-.22.09-.52.02-.74.12-.23.09-.48.13-.7.22-.23.1-.44.22-.67.32-.22.09-.46.14-.69.24-.22.09-.39.32-.62.42-.22.09-.42.26-.64.36-.23.09-.55-.06-.78.03-.23.09-.38.4-.61.49-.22.09-.52,0-.75.1s-.42.21-.65.29c-.19-.19-.44-.28-.54-.47-.12-.23-.05-.51-.05-.74ZM304.68,24.11c.18-.13.39-.23.58-.37.18-.12.43-.44.63-.57.4.32.46.4.67.87-.25.03-.68-.05-.94-.01-.26.03-.51.15-.77.2-.25.04-.62.31-.88.35.18-.13.52-.34.71-.47ZM238.79,28.66c.23-.06.49.03.71-.02.24-.05.41-.36.63-.41.23-.05.5.09.72.04.23-.04.61-.16.83-.2-.17.2-.39.55-.57.74s-.61.12-.81.3c-.19.16-.33.37-.56.53-.2.15-.46.51-.7.65-.34-.23-.13-.49-.38-.82-.25-.33-.32-.27-.47-.66.23-.05.38-.1.6-.15ZM485.99,40.47s-.01-.05-.01-.07c-.04.01-.07.02-.11.04.04.01.08.02.12.03Z"/>
  <path class="c" d="M791.25,36.24l-1.43.09c.56.04,1.04,0,1.43-.09Z"/>
  <path class="c" d="M493.35,41.38c-.38.03-.72.05-1.08.07.4,0,.77-.01,1.08-.07Z"/>
  <path class="c" d="M1003.14,31.03c-.66-.73-.84-1.54-.99-2.36-.91.73-.93,1.57.99,2.36Z"/>
  <path class="c" d="M646.42,40.58c-.2.26-.31.52-.37.78l.73-.73c-.12-.04-.24-.02-.37-.05Z"/>
  <path class="c" d="M1375.91,33.56c-2.22-.62-3.45-1.42-4.28-2.24-.12,1.06.89,1.96,4.28,2.24Z"/>
  <path class="c" d="M1257.38,33.14c-6.03,2.29-9.19.99-6.42,7.02,9.99,2.2,2.37-5.66,11.4-2.91,2.34-2.17-7.38-2.24-4.97-4.11Z"/>
  <path class="c" d="M1257.38,33.14c.97-.36,1.99-.8,3.08-1.39-1.75.57-2.57,1.01-3.08,1.39Z"/>
  <path class="c" d="M854.23,44.04l5.02,3.28.49-1.41c-.99-1.52-2.5-1.63-5.51-1.87Z"/>
  <polygon class="c" points="772.15 42.94 773.65 43.06 770.85 37.78 772.15 42.94"/>
  <path class="c" d="M706.34,48.99c.7.07,1.43.07,2.21-.04-.71-.05-1.45-.02-2.21.04Z"/>
  <path class="c" d="M699.06,49.68c2.27.17,4.85-.47,7.28-.69-5.13-.53-7.99-5.11-7.28.69Z"/>
  <path class="c" d="M11.06,37.76c-2.86-.33-1.83,3.44-2.26,4.12,4.79-.84,2.14-5.1,2.26-4.12Z"/>
  <path class="c" d="M121.49,43.02c.95-.04,2.26-.03,4.5.15-1.45-2.5,5.09-2.15-5.49-.78.53.27.68.43.99.63Z"/>
  <path class="c" d="M121.49,43.02c-4.65.18,3.04,2.1,0,0h0Z"/>
  <path class="c" d="M142.96,41.59l-6.12,2.23c1.28,1.48,6.73,1.81,4.71,2.88,6.28-1.22,4.99-2.69,1.42-5.11Z"/>
  <path class="c" d="M148.77,36.9l-3.17.95c.56.62,1.4.83,3.17-.95Z"/>
  <path class="c" d="M142.51,38.56c.55-1.9-.78-.07-3.64,1.27l6.73-1.99c-.89-1.04-.98-3.12-3.09.72Z"/>
  <path class="c" d="M133.33,34.36c-11.72.88-9.99,5.4,1.73,4.5-3.44-1.4-7.87-2.28-1.73-4.5Z"/>
  <path class="c" d="M174.08,41.09c2.33.94,6.73,1.8,7.04,3.82.38-1.37-2.06-3.64-2.52-5.39l-4.52,1.57Z"/>
  <polygon class="c" points="203.14 48.25 209.97 43.47 206.97 45.08 203.14 48.25"/>
  <path class="c" d="M224.12,44.53c-2.84,2.62,3.89,4.43.89,6.05,4.66-.47,8.64-2.72,12.22-4.74-3.81,1.13-7.86.84-13.11-1.3Z"/>
  <path class="c" d="M243.25,42.89c-1.9.63-3.87,1.75-6.01,2.95,2.02-.61,4.01-1.48,6.01-2.95Z"/>
  <path class="c" d="M196.9,37.85c.52.83,1.53,2.99,5.33,3.9l-2.66-3.84c-.81-.02-1.73-.04-2.67-.06Z"/>
  <path class="c" d="M199.48,37.78l.09.12c2.89.08,4.89.17,5.75.22-.74-.04-2.5-.13-5.85-.34Z"/>
  <path class="c" d="M196.23,37.83c.25,0,.43.02.67.02-.26-.38-.41-.5-.67-.02Z"/>
  <path class="c" d="M230.93,39.29c3.11-1.67,6.5-1.82,10.34-2.08-4.11-.76-8.37-1.16-12.4-1.16-.57,1.21-2.34,3.38,2.06,3.24Z"/>
  <path class="c" d="M215.64,38.22c.21-.09.49-.13.69-.22-.42-.32-.76-.43-.69.22Z"/>
  <path class="c" d="M278.45,36.53c-.05.23-.08.44-.14.66l.75.04c-.21-.21-.39-.47-.61-.7Z"/>
  <path class="c" d="M228.17,35.33c-3.09-.74-4.94.2-6.7,1.39,2.31-.39,4.76-.64,7.39-.67.26-.54.3-.9-.69-.72Z"/>
  <path class="c" d="M253.79,41.09c-1.61-.8-3.44-1.48-5.35-2.11,1.57,1.22,4.78,3.12,5.35,2.11Z"/>
  <path class="c" d="M217.38,39.06c-.15.06-.29.13-.46.17,1.01.83.89.42.46-.17Z"/>
  <path class="c" d="M216.33,38c.38.27.77.69,1.04,1.06,1.59-.55,2.84-1.5,4.1-2.35-1.88.3-3.63.72-5.14,1.28Z"/>
  <path class="c" d="M264.91,36.17l-2.92.44c3.33.62,5.72,2.05,10.11,4.84,4.86-1.74,5.87-3.06,6.21-4.25l-14.4-.5,1-.53Z"/>
  <polygon class="c" points="278.84 43.26 285.51 37.47 280.37 39.16 278.84 43.26"/>
  <polygon class="c" points="294.83 42.23 298.79 40.08 295.38 38.67 294.83 42.23"/>
  <path class="c" d="M1132.72,35.91c2.08-.71,2.96-1.5,2.9-2.37-2.14.67-3.35,1.42-2.9,2.37Z"/>
  <path class="c" d="M1905.05,32.97c-1.4.24-3.67.25-5.82.3,1.05.27,2.8.24,5.82-.3Z"/>
  <path class="c" d="M355.78,40.37c-3.18.25-.5.43,0,0h0Z"/>
  <path class="c" d="M355.06,39.76c-.66-.3-1.9-.68-4.07-1.16,1.2.48,2.57.88,4.07,1.16Z"/>
  <path class="c" d="M351.63,40.44c-1.1-.18-1.96-.27-2.78-.38-.4.65-.05,1.06,2.78.38Z"/>
  <path class="c" d="M355.06,39.76c.63.26.89.48.72.62.93-.06,2.25-.14,4.43-.21-1.82.06-3.52-.12-5.15-.4Z"/>
  <path class="c" d="M1662.98,35.29c-.18-.22-.37-.42-.56-.62.14.19.32.4.56.62Z"/>
  <path class="c" d="M323.51,39.78c.13.86,1.1,2.05.05,2.43l6.16-1.01c-3.34.22-4.53-.73-6.21-1.42Z"/>
  <path class="c" d="M323.57,42.21l-.74.12c.32-.01.56-.05.74-.12Z"/>
  <path class="c" d="M366.24,37.38c-2.29-.94-1.44,4.67-2.73,3.18-2.56,4.65,15.28-5.62,2.73-3.18Z"/>
</svg>