<?xml version="1.0" encoding="UTF-8"?>
<svg id="a" data-name="Layer 1" xmlns="http://www.w3.org/2000/svg" viewBox="0 0 34 34">
  <defs>
    <style>
      .b {
        fill: #242424;
      }
    </style>
  </defs>
  <polygon class="b" points="29.53 26.51 30.2 26.37 30.89 26.35 31.58 26.38 32.26 26.43 32.95 26.44 33.64 26.41 33.92 27.11 34.02 27.86 33.96 28.62 33.87 29.37 33.95 30.13 33.87 30.89 33.92 31.66 34.01 32.42 33.94 33.18 33.65 33.87 32.94 33.92 32.22 33.92 31.49 33.87 30.77 33.87 30.05 33.88 29.33 33.88 28.61 33.94 27.89 33.9 27.16 33.92 26.44 33.93 25.72 33.91 25 33.92 24.28 33.92 23.56 33.91 22.84 33.94 22.12 33.93 21.4 33.92 20.68 33.95 19.95 33.92 19.23 33.92 18.51 33.93 17.79 33.94 17.07 33.96 16.35 33.92 15.63 33.9 14.9 33.95 14.18 33.89 13.46 33.95 12.74 33.95 12.02 33.92 11.29 33.93 10.57 33.89 9.85 33.88 9.12 33.9 8.4 33.87 7.68 33.88 6.95 33.9 6.22 33.85 5.56 33.92 4.9 33.93 4.23 33.95 3.56 33.95 2.9 33.88 2.23 33.85 1.5 33.92 .78 33.95 .18 33.71 .16 32.97 .13 32.24 .08 31.5 .03 30.76 .05 30.02 .02 29.27 .06 28.53 .12 27.79 .22 27.06 .61 26.46 1.33 26.47 2.05 26.43 2.77 26.48 3.49 26.5 4.22 26.48 4.94 26.48 5.66 26.48 6.38 26.48 7.11 26.48 7.83 26.48 8.55 26.49 9.27 26.46 10 26.45 10.72 26.47 11.44 26.43 12.17 26.42 12.89 26.41 13.61 26.44 14.34 26.44 15.06 26.4 15.78 26.43 16.51 26.42 17.23 26.39 17.96 26.38 18.68 26.41 19.4 26.37 20.13 26.39 20.85 26.34 21.57 26.38 22.3 26.37 23.02 26.39 23.75 26.36 24.47 26.42 25.19 26.44 25.92 26.41 26.64 26.44 27.37 26.47 28.09 26.47 28.81 26.53 29.53 26.51"/>
  <polygon class="b" points="33.99 14.13 33.95 14.82 33.9 15.51 33.92 16.2 33.95 16.89 33.91 17.58 33.95 18.27 33.93 18.97 33.91 19.66 33.94 20.36 33.4 20.81 32.71 20.8 32 20.79 31.31 20.8 30.58 20.8 29.86 20.83 29.14 20.83 28.42 20.8 27.7 20.81 26.97 20.77 26.25 20.83 25.53 20.84 24.81 20.82 24.09 20.78 23.37 20.81 22.64 20.77 21.92 20.8 21.2 20.83 20.48 20.78 19.76 20.82 19.04 20.83 18.32 20.82 17.6 20.79 16.88 20.82 16.16 20.76 15.44 20.78 14.72 20.79 14 20.82 13.28 20.77 12.55 20.8 11.83 20.77 11.11 20.78 10.39 20.76 9.67 20.79 8.96 20.79 8.24 20.78 7.52 20.84 6.81 20.79 6.09 20.82 5.38 20.81 4.67 20.83 3.95 20.8 3.24 20.79 2.45 20.8 1.65 20.83 .85 20.83 .2 20.42 .26 19.72 .24 19.02 .24 18.32 .25 17.61 .2 16.91 .13 16.22 .06 15.52 .05 14.82 .08 14.12 .56 13.64 1.21 13.39 1.91 13.35 2.6 13.37 3.3 13.34 3.99 13.41 4.69 13.39 5.39 13.46 6.13 13.44 6.86 13.44 7.59 13.41 8.32 13.39 9.05 13.38 9.78 13.4 10.51 13.37 11.24 13.37 11.97 13.41 12.71 13.42 13.44 13.41 14.17 13.44 14.9 13.44 15.63 13.41 16.36 13.4 17.09 13.38 17.82 13.43 18.55 13.43 19.28 13.39 20.02 13.39 20.75 13.44 21.48 13.39 22.21 13.41 22.94 13.42 23.67 13.43 24.4 13.39 25.13 13.39 25.86 13.41 26.59 13.39 27.29 13.43 28 13.41 28.7 13.39 29.41 13.41 30.12 13.37 30.83 13.36 31.54 13.31 32.25 13.36 32.96 13.38 33.63 13.61 33.99 14.13"/>
  <polygon class="b" points="3.97 7.11 3.28 7.26 2.58 7.24 1.88 7.2 1.18 7.17 .5 7.35 .08 6.8 .02 6.08 .05 5.37 .07 4.65 .13 3.93 .18 3.21 .07 2.51 0 1.75 .04 .98 .45 .34 1.15 .04 1.92 .06 2.69 .08 3.45 .12 4.19 .11 4.92 .08 5.66 .03 6.4 .02 7.13 .06 7.87 .03 8.61 .02 9.34 .05 10.08 .06 10.82 .03 11.55 .06 12.29 .02 13.03 .04 13.74 .02 14.44 .07 15.15 .04 15.86 .06 16.57 .07 17.28 .06 17.99 .03 18.7 .07 19.41 .01 20.12 .04 20.83 .02 21.54 .02 22.25 0 22.96 0 23.67 .05 24.38 0 25.09 0 25.8 -.02 26.51 .04 27.22 0 27.93 -.02 28.64 0 29.35 -.03 30.06 0 30.77 0 31.48 .02 32.19 0 32.9 0 33.62 0 33.84 .72 33.87 1.46 33.92 2.2 33.91 2.95 33.89 3.69 33.85 4.43 33.79 5.17 33.78 5.92 33.92 6.66 33.41 7.15 32.75 7.37 32.06 7.46 31.36 7.5 30.66 7.48 29.96 7.5 29.25 7.47 28.55 7.4 27.85 7.34 27.14 7.31 26.44 7.24 25.73 7.23 25.03 7.29 24.34 7.36 23.61 7.32 22.89 7.29 22.16 7.29 21.43 7.33 20.71 7.31 19.98 7.3 19.25 7.27 18.53 7.26 17.8 7.28 17.07 7.26 16.34 7.3 15.62 7.33 14.89 7.31 14.16 7.28 13.43 7.31 12.7 7.3 11.98 7.29 11.25 7.32 10.52 7.29 9.79 7.28 9.06 7.32 8.33 7.29 7.61 7.25 6.88 7.21 6.15 7.2 5.42 7.19 4.7 7.15 3.97 7.11"/>
</svg>