<?xml version="1.0" encoding="UTF-8"?>
<svg id="a" data-name="Layer 1" xmlns="http://www.w3.org/2000/svg" viewBox="0 0 34 34">
  <defs>
    <style>
      .b {
        fill: #242424;
      }
    </style>
  </defs>
  <polygon class="b" points="28.33 33.48 27.83 32.97 27.35 32.42 26.85 31.89 26.32 31.39 25.83 30.86 25.34 30.32 24.79 29.84 24.29 29.31 23.78 28.79 23.27 28.28 22.78 27.73 22.25 27.23 21.71 26.74 21.2 26.22 20.68 25.71 20.16 25.2 19.66 24.67 19.15 24.15 18.62 23.65 18.11 23.13 17.6 22.63 17.08 22.12 16.59 22.64 16.08 23.14 15.6 23.66 15.1 24.16 14.59 24.66 14.08 25.16 13.56 25.64 13.04 26.13 12.52 26.62 12.02 27.13 11.54 27.65 11.01 28.13 10.56 28.68 10.04 29.16 9.54 29.66 9.09 30.21 8.56 30.66 8.09 31.17 7.57 31.63 7.12 32.16 6.64 32.65 6.15 33.13 5.61 33.57 5.09 34.03 4.47 33.65 4 33.11 3.55 32.54 2.96 32.06 2.39 31.56 1.84 31.03 1.33 30.47 .82 29.9 .25 29.4 -.03 28.95 .12 28.4 .68 27.97 1.17 27.45 1.69 26.96 2.21 26.48 2.7 25.96 3.22 25.47 3.73 24.96 4.2 24.41 4.72 23.92 5.21 23.41 5.73 22.91 6.24 22.41 6.74 21.89 7.24 21.38 7.79 20.91 8.27 20.38 8.8 19.9 9.31 19.41 9.8 18.89 10.35 18.42 10.82 17.89 11.36 17.42 11.84 16.92 11.38 16.4 10.89 15.87 10.41 15.33 9.92 14.81 9.41 14.3 8.85 13.85 8.36 13.33 7.86 12.82 7.36 12.3 6.85 11.79 6.34 11.28 5.81 10.79 5.31 10.27 4.8 9.76 4.29 9.25 3.8 8.72 3.41 8.1 2.76 7.56 2.22 7.14 1.74 6.66 1.29 6.15 .79 5.7 .24 5.3 .12 4.69 .66 4.15 1.2 3.64 1.73 3.15 2.21 2.6 2.73 2.1 3.25 1.58 3.78 1.09 4.29 .56 4.8 .04 5.46 .17 6.01 .61 6.48 1.12 6.99 1.6 7.5 2.09 7.98 2.6 8.47 3.11 8.98 3.59 9.51 4.06 9.98 4.59 10.5 5.06 10.97 5.59 11.47 6.08 12 6.56 12.5 7.05 12.98 7.57 13.47 8.07 13.96 8.58 14.45 9.08 14.95 9.57 15.5 10.05 16.02 10.57 16.5 11.12 17.07 11.54 17.68 11.16 18.2 10.66 18.68 10.1 19.22 9.6 19.75 9.11 20.26 8.58 20.8 8.08 21.3 7.55 21.81 7.02 22.33 6.5 22.83 5.97 23.32 5.42 23.89 4.95 24.42 4.44 24.97 3.96 25.54 3.52 26.14 2.83 26.75 2.17 27.16 1.72 27.63 1.34 28.03 .87 28.33 .41 28.75 .11 29.4 .57 29.93 1.2 30.54 1.74 31.03 2.29 31.56 2.78 32.08 3.3 32.61 3.8 33.13 4.32 33.61 4.86 33.52 5.5 33.14 6.08 32.63 6.55 32.15 7.05 31.66 7.54 31.15 8.01 30.63 8.48 30.16 8.98 29.67 9.53 29.12 10.04 28.6 10.57 28.06 11.08 27.55 11.62 27.04 12.16 26.49 12.66 25.98 13.2 25.47 13.74 24.92 14.23 24.39 14.75 23.88 15.28 23.35 15.81 22.85 16.35 22.32 16.87 22.82 17.39 23.34 17.89 23.83 18.42 24.34 18.92 24.86 19.43 25.37 19.94 25.91 20.41 26.41 20.93 26.95 21.4 27.43 21.94 27.95 22.43 28.49 22.91 28.98 23.43 29.5 23.93 30.02 24.43 30.52 24.94 31.02 25.45 31.51 25.98 32.01 26.49 32.5 27.02 33.03 27.5 33.51 28.04 34 28.57 33.6 29.19 33.05 29.67 32.47 30.13 32.12 30.66 31.64 31.08 31.2 31.53 30.76 31.98 30.28 32.43 29.83 32.91 29.35 33.37 28.89 33.67 28.33 33.48"/>
</svg>