<?xml version="1.0" encoding="UTF-8"?>
<svg id="a" data-name="Layer 1" xmlns="http://www.w3.org/2000/svg" viewBox="0 0 247.42 170.53">
  <defs>
    <style>
      .b {
        fill: #242424;
      }
    </style>
  </defs>
  <polygon class="b" points="0 26.47 .66 26.78 1.34 27 2.02 27.19 2.73 27.29 3.44 27.38 4.16 27.4 4.87 27.42 5.58 27.44 6.3 27.44 7.01 27.4 7.73 27.43 8.44 27.42 9.16 27.45 9.87 27.47 10.59 27.55 10.3 28.24 10.01 28.91 9.62 29.53 9.27 30.17 8.88 30.79 8.49 31.41 8.12 32.03 7.79 32.68 7.46 33.33 7.22 34.02 7.06 34.73 6.98 35.43 7.68 35.29 8.39 35.08 9.07 34.79 9.75 34.48 10.42 34.16 11.08 33.81 11.76 33.49 12.43 33.17 13.11 32.86 13.8 32.59 14.52 32.39 15.25 32.34 15.82 32.73 16.13 33.36 16.28 34.05 16.39 34.74 16.43 35.44 16.49 36.14 16.52 36.85 16.52 37.56 16.52 38.26 16.55 38.96 16.59 39.67 16.73 40.35 17.32 39.97 17.87 39.54 18.45 39.13 18.98 38.67 19.53 38.23 20.07 37.77 20.6 37.3 21.14 36.84 21.68 36.39 22.27 36 22.88 35.67 23.51 35.91 24.06 36.32 24.58 36.78 25.06 37.27 25.55 37.75 26.01 38.27 26.52 38.73 27.06 39.16 27.62 39.56 28.16 39.87 28.73 40.11 29.32 40.33 29.2 39.6 29.12 38.87 29.05 38.13 29 37.4 28.98 36.66 29 35.93 29.05 35.19 29.23 34.48 29.48 33.79 29.9 33.19 30.48 32.76 31.14 32.53 31.84 32.54 32.54 32.61 33.22 32.79 33.87 33.06 34.52 33.31 35.16 33.6 35.8 33.9 36.43 34.23 37.07 34.53 37.71 34.83 38.37 35.07 39.02 34.98 38.97 34.33 38.59 33.72 38.18 33.12 37.73 32.56 37.29 31.99 36.87 31.4 36.45 30.8 36.12 30.16 35.86 29.49 35.79 28.77 36.11 28.13 36.74 27.83 37.43 27.68 38.12 27.6 38.83 27.56 39.53 27.49 40.23 27.45 40.94 27.43 41.66 27.4 42.36 27.35 43.07 27.32 43.77 27.22 44.46 27.06 45.15 26.87 44.7 26.3 44.24 25.74 43.7 25.28 43.15 24.81 42.56 24.41 41.93 24.07 41.3 23.73 40.66 23.42 40.02 23.11 39.38 22.8 38.75 22.45 38.12 22.12 37.5 21.76 36.89 21.39 37.5 21.03 38.09 20.64 38.7 20.3 39.29 19.91 39.9 19.55 40.5 19.18 41.09 18.79 41.67 18.41 42.26 18.01 42.84 17.61 43.42 17.22 43.96 16.77 44.5 16.32 44.79 15.73 44.15 15.67 43.47 15.76 42.79 15.89 42.11 15.96 41.43 16.01 40.73 15.98 40.03 15.96 39.34 15.88 38.65 15.79 37.96 15.63 37.28 15.48 36.61 15.26 35.96 15.01 35.33 14.73 35.61 14.05 35.92 13.39 36.27 12.74 36.63 12.11 37.03 11.49 37.39 10.85 37.77 10.23 38.09 9.57 38.41 8.91 38.65 8.22 38.88 7.52 38.99 6.8 39 6.08 38.31 6.16 37.63 6.31 36.96 6.51 36.32 6.8 35.69 7.11 35.12 7.51 34.52 7.88 33.95 8.28 33.35 8.65 32.73 8.96 32.08 9.21 31.43 9.48 30.76 9.63 30.1 9.75 29.45 9.61 29.11 9.04 29.07 8.36 29.18 7.69 29.3 7.02 29.39 6.34 29.52 5.63 29.57 4.91 29.64 4.18 29.65 3.46 29.65 2.73 29.61 2 29.53 1.29 29.36 .59 28.97 0 28.33 .3 27.83 .81 27.41 1.4 27 2 26.58 2.59 26.22 3.22 25.87 3.86 25.48 4.46 25.15 5.11 24.78 5.73 24.45 6.38 24.12 7.02 23.79 7.67 23.44 8.31 23.12 8.96 22.78 9.6 22.33 9.08 21.9 8.52 21.51 7.94 21.14 7.34 20.76 6.75 20.4 6.15 20.05 5.54 19.71 4.93 19.36 4.32 18.96 3.74 18.56 3.17 18.12 2.63 17.66 2.09 17.14 1.62 16.61 1.16 16.5 1.9 16.45 2.65 16.45 3.39 16.43 4.14 16.41 4.88 16.38 5.63 16.38 6.38 16.34 7.13 16.33 7.88 16.25 8.63 16.18 9.38 15.9 10.03 15.19 10.08 14.49 9.92 13.81 9.68 13.14 9.39 12.49 9.07 11.84 8.74 11.19 8.4 10.53 8.09 9.89 7.72 9.24 7.4 8.57 7.09 7.91 6.81 7.24 6.57 7.29 7.3 7.46 8.01 7.66 8.72 7.96 9.39 8.31 10.03 8.7 10.66 9.13 11.25 9.54 11.85 10 12.42 10.42 13.02 10.81 13.65 11.21 14.26 11.52 14.93 11.82 15.6 11.11 15.61 10.4 15.63 9.69 15.59 8.98 15.55 8.27 15.51 7.56 15.46 6.85 15.4 6.14 15.4 5.44 15.34 4.73 15.38 4.02 15.4 3.32 15.48 2.62 15.6 1.94 15.8 1.26 16.01 1.82 16.48 2.44 16.88 3.06 17.25 3.69 17.63 4.32 18.01 4.96 18.36 5.62 18.69 6.26 19.06 6.89 19.44 7.54 19.8 8.15 20.21 8.74 20.64 9.17 21.22 8.79 21.8 8.21 22.22 7.62 22.59 6.99 22.92 6.35 23.24 5.73 23.58 5.08 23.88 4.44 24.2 3.79 24.5 3.13 24.76 2.49 25.08 1.84 25.38 1.21 25.71 .6 26.08 0 26.47"/>
  <path class="b" d="M247.37,162.76v-.71s-.06-.71-.06-.71l-.16-.69-.3-.65-.14-.69-.28-.65-.23-.66-.34-.62-.32-.63-.42-.57-.39-.59-.36-.6-.26-.67-.53-.49-.42-.56-.3-.65-.45-.54-.38-.64-.62-.42-.5-.53-.51-.52-.43-.6-.59-.44-.45-.58-.61-.42-.47-.57-.55-.48-.51-.53-.53-.51-.51-.53-.68-.36-.46-.59-.63-.41-.54-.51-.48-.57-.5-.55-.55-.48-.57-.47-.53-.51-.67-.34-.46-.58-.69-.2-.56-.45-.61-.35-.68-.23-.55-.45-.61-.34-.69-.21-.54-.46-.67-.24-.55-.45-.62-.33-.61-.36-.64-.3-.64-.28-.66-.24-.66-.25-.65-.26-.65-.26-.71-.12-.67-.22-.62-.36-.69-.15-.63-.33-.63-.32-.72-.08-.65-.27-.67-.2-.64-.29-.67-.22-.64-.3-.69-.23-.65-.33-.69-.23-.7-.19-.69-.23-.63-.38-.71-.17-.67-.28-.66-.3-.68-.26-.69-.22-.66-.31-.64-.36-.68-.24-.69-.24-.62-.39-.71-.18-.63-.36-.71-.2-.66-.29-.61-.4-.64-.34-.72-.18-.58-.45-.66-.3-.64-.34-.69-.25-.66-.3-.57-.47-.69-.25-.54-.51-.68-.28-.59-.38-.58-.4-.58-.39-.63-.32-.5-.51-.58-.39-.61-.36-.63-.33-.56-.44-.53-.47-.61-.36-.58-.41-.58-.4-.62-.35-.55-.45-.57-.43-.58-.41-.57-.42-.55-.45-.62-.35-.63-.34-.58-.4-.53-.47-.58-.39-.64-.54-.75-.38-.73-.42-.56-.46-.57-.45-.61-.39-.57-.45-.65-.33-.59-.41-.64-.35-.53-.52-.66-.32-.57-.45-.59-.42-.66-.32-.61-.38-.63-.35-.52-.52-.68-.28-.59-.41-.61-.38-.63-.34-.58-.43-.65-.3-.5-.54-.63-.29-.65-.26-.56-.4-.55-.43-.62-.3-.55-.42-.61-.3-.55-.41-.57-.36-.61-.37-.61-.37-.63-.34-.68-.27-.56-.47-.64-.33-.58-.42-.57-.45-.68-.26-.52-.53-.68-.25-.61-.38-.52-.52-.64-.32-.6-.39-.64-.33-.57-.44-.64-.33-.58-.43-.59-.43-.68-.28-.6-.41-.6-.4-.53-.5-.63-.36-.62-.37-.59-.41-.65-.32-.56-.46-.63-.35-.66-.31-.58-.43-.57-.44-.61-.39-.61-.38-.55-.46-.68-.27-.61-.44-.58-.49-.59-.47-.61-.45-.55-.53-.65-.4-.69-.34-.52-.6-.66-.31-.51-.51-.67-.3-.51-.52-.58-.42-.67-.29-.56-.45-.62-.36-.61-.38-.59-.42-.58-.62-.73-.42-.69-.48-.63-.36-.56-.47-.68-.28-.52-.53-.66-.31-.56-.47-.59-.41-.63-.36-.61-.4-.63-.36-.59-.42-.54-.49-.66-.31-.55-.47-.68-.27-.6-.41-.56-.46-.66-.3-.61-.37-.61-.38-.52-.51-.63-.32-.57-.39-.64-.28-.55-.42-.68-.22-.58-.38-.57-.38-.57-.38-.58-.36-.57-.35-.62-.37-.64-.33-.58-.44-.67-.27-.58-.44-.7-.24-.6-.4-.68-.26-.55-.49-.63-.33-.69-.24-.62-.35-.64-.31-.63-.37-.67-.29-.57-.47-.72-.2-.56-.48-.68-.27-.65-.33-.59-.43-.57-.45-.73-.19-.58-.44-.63-.35-.61-.39-.67-.29-.64-.35-.57-.47-.61-.4-.69-.26-.57-.47-.68-.29-.58-.47-.66-.32-.62-.4-.63-.37-.64-.35-.66-.31-.59-.44-.66-.31-.58-.45-.68-.28-.61-.38-.53-.5-.63-.33-.67-.27-.51-.53-.67-.27-.55-.47-.63-.34-.62-.35-.65-.31-.56-.45-.63-.33-.55-.47-.62-.35-.6-.38-.59-.39-.58-.41-.66-.29-.64-.31-.61-.37-.57-.43-.56-.44-.65-.3-.61-.37-.63-.33-.57-.44-.67-.26-.57-.44-.61-.36-.6-.39-.67-.26-.62-.36-.61-.36-.59-.4-.67-.26-.6-.4-.69-.23-.58-.43-.69-.23-.57-.46-.64-.33-.65-.3-.67-.26-.62-.36-.64-.33-.64-.33-.63-.35-.7-.2-.59-.46-.65-.33-.66-.3-.63-.37-.59-.44-.6-.43-.68-.29-.6-.44-.66-.32-.65-.35-.66-.33-.7-.23-.66-.35-.75-.06-.71-.19-.77-.14.54.53.35.64.55.45.49.51.59.39.5.51.59.4.6.37.6.37.55.46.71.2.5.54.68.24.55.45.61.36.57.41.66.27.56.46.62.38.63.37.6.41.57.46.55.49.6.42.7.27.58.45.55.48.66.32.55.48.62.39.62.38.6.42.56.47.63.38.56.48.6.42.69.28.57.46.65.34.61.4.51.55.63.37.6.42.62.39.68.3.58.45.62.38.52.53.68.3.61.4.52.53.61.4.67.31.54.5.62.39.58.44.67.31.54.47.63.34.56.44.58.42.57.43.52.49.65.31.54.47.64.33.58.41.59.39.49.53.57.43.57.42.6.39.63.34.53.48.62.36.62.36.61.38.52.51.62.37.6.39.55.46.61.38.58.42.59.41.54.47.58.42.69.26.57.43.5.53.57.44.63.35.56.45.67.28.54.47.59.4.54.46.57.44.56.42.68.3.6.41.59.42.56.47.55.49.65.33.63.37.6.41.52.54.68.31.06-.03.66.61.74.5.7.21.58.39.59.38.53.47.62.32.58.39.66.25.55.47.52.51.62.39.68.32.6.43.47.61.65.36.62.4.54.52.68.33.58.47.65.37.66.63.14-.06.58.35.53.42.51.46.56.39.63.29.51.47.64.29-.02.05.16.11.57.43.58.41.64.33.63.34.58.42.53.48.57.42.62.36.59.39.62.34.6.36.62.45.67.37.55.55.73.28.62.44.63.43.63.42.67.35.04-.05.52.52.6.39.61.36.66.27.56.45.67.27.54.47.56.44.64.31.63.34.58.42.59.4.66.29.55.47.61.37.66.28.55.45.64.31.59.4.61.36.55.47.64.33.6.39.61.37.56.46.63.35.63.35.63.35.62.37.56.45.58.43.58.42.62.36.69.26.51.54.63.35.66.3.56.45.67.28.5.55.65.32.57.44.63.35.59.4.68.28.53.51.63.34.55.46.65.31.54.48.62.35.63.35.52.49.59.44.6.42.63.39.54.51.68.32.54.51.63.4.62.41.56.51.84.37.05.07.48.5.61.31.56.39.63.29.52.46.58.37.56.4v.02s.1.2.1.2l.7.26.56.47.64.34.52.53.64.34.64.34.58.43.58.43.58.43.56.47.6.41.61.4.59.43.66.33.62.39.59.43.54.5.68.3.57.45.6.4.56.46.61.38.63.36.59.41.47.57.55.47.62.37.58.43.53.49.55.46.64.35.6.4.53.49.49.54.55.46.65.34.55.47.48.55.55.46.67.32.51.52.51.51.64.36.44.59.55.47.55.46.64.36.45.58.56.46.6.41.58.43.51.51.51.51.45.57.54.48.62.39.45.58.63.39.38.65.65.37.46.57.47.55.62.41.42.61.51.52.48.55.6.44.45.58.46.57.57.46.51.52.42.6.59.45.49.54.37.65.63.4.44.59.57.46.41.61.54.49.55.48.43.59.59.44.43.6.46.57.52.51.6.43.49.54.54.49.62.4.4.63.66.35.46.58.65.35.49.54.6.4.52.5.59.41.57.43.6.4.59.41.66.3.58.44.71.2.6.4.61.38.63.34.72.15.61.4.69.2.67.24.6.44.68.23.72.11.64.32.72.12.66.3.71.15.7.21.73.07.71.25.74-.03.73-.08.74.02.74-.06.68-.31.74-.09.68-.29.69-.27.62-.4.53-.52.62-.4.5-.54.44-.59.28-.68.41-.62.17-.72.1-.72.23-.71-.05-.74ZM234.53,161.31l-.71-.1-.7-.14-.7-.11-.72-.04-.67-.27-.69-.19-.66-.29-.68-.23-.65-.3-.68-.24-.65-.31-.61-.38-.53-.51-.68-.26-.6-.39-.49-.54-.59-.41-.48-.54-.65-.34-.52-.49-.52-.49-.43-.59-.57-.44-.42-.59-.58-.44-.42-.59-.49-.52-.44-.56-.45-.55-.42-.58-.6-.43-.35-.64-.54-.49-.43-.58-.36-.63-.05-.72-.09-.72-.05-.73.1-.72.06-.76.57-.49.62-.41.75.1.72.13.71.05.64.31.67.21.71.09.6.39.69.18.58.42.62.32.59.39.6.37.58.39.58.4.55.44.5.49.51.53.62.41.56.47.48.57.63.39.5.54.52.52.67.32.55.48.59.43.53.51.57.46.5.54.55.49.46.58.52.52.54.5.5.55.36.66.53.53.41.62.36.65.34.66.25.71-.16.73-.59.41-.68.25-.73.12-.73-.12-.74.03Z"/>
</svg>