<?xml version="1.0" encoding="UTF-8"?>
<svg id="a" data-name="Layer 1" xmlns="http://www.w3.org/2000/svg" viewBox="0 0 16 16">
  <defs>
    <style>
      .b {
        fill: #fff7ed;
      }

      .c {
        fill: #242424;
      }
    </style>
  </defs>
  <rect class="b" y="0" width="16" height="16"/>
  <path class="c" d="M15.13,13.87l-.51-.59-.56-.54-.54-.56-.5-.6-.59-.54-.15-.81-.94-.13-.46-.57-.48-.53-.5-.52-.48-.54-.47-.55-.46-.57-.49-.53-.46-.56-.48-.54-.43-.57-.43-.57.15-.58.08-.74-.07-.74-.28-.68-.48-.56-.67-.36-.74-.21-.75.15-.7.3-.59.19-.61.24-.26.61-.19.59-.26.67-.1.72.14.7.25.68.45.56.55.47.8-.1.8-.04.8-.08.54.45.55.46.57.43.52.49.56.45.54.49.58.43.54.47.52.49.55.46.57.45.22.67.24.66-.29.32-.41.48-.33.5.2.51.5.35.49-.4.49-.38.15.24-.3.65-.28.66.66.61.5-.54.53-.51.49-.55.58.38.59.37.66-.5-.13-.58ZM4.97,3.96l-.48.48-.53.41-.66.17-.84-.22-.49-.72.1-.86.65-.58.34-.15.07-.8.65-.35h.74s.58.45.58.45l.26.71-.02.77-.36.67Z"/>
</svg>