<?xml version="1.0" encoding="UTF-8"?>
<svg id="a" data-name="Layer 1" xmlns="http://www.w3.org/2000/svg" viewBox="0 0 340 280">
  <defs>
    <style>
      .b {
        fill: #fff;
      }
    </style>
  </defs>
  <polygon class="b" points="339.92 139.99 339.9 140.71 340 141.43 339.88 142.15 339.98 142.87 339.87 143.59 339.87 144.31 339.64 145.02 339.73 145.74 339.6 146.46 339.56 147.17 339.59 147.9 339.6 148.62 339.59 149.34 339.55 150.06 339.26 150.76 339.15 151.47 339.18 152.19 339.2 152.92 339.16 153.64 338.95 154.34 339 155.07 338.68 155.76 338.8 156.5 338.6 157.2 338.43 157.9 338.51 158.64 338.27 159.33 338.1 160.03 337.86 160.72 337.79 161.44 337.89 162.19 337.48 162.84 337.55 163.59 337.36 164.28 337.18 164.98 336.87 165.65 336.82 166.37 336.58 167.06 336.48 167.77 336.21 168.44 336.26 169.2 335.9 169.85 335.71 170.54 335.58 171.25 335.29 171.92 335.13 172.62 334.99 173.33 334.66 173.98 334.71 174.75 334.33 175.38 334.23 176.1 334.02 176.79 333.7 177.44 333.39 178.1 333.15 178.78 332.91 179.45 332.73 180.15 332.41 180.8 332.39 181.56 331.87 182.13 331.72 182.85 331.49 183.53 331.28 184.22 330.86 184.82 330.74 185.55 330.27 186.14 330.22 186.9 329.78 187.49 329.63 188.21 329.3 188.85 328.9 189.46 328.62 190.12 328.2 190.71 327.98 191.41 327.62 192.03 327.28 192.67 326.99 193.32 326.81 194.04 326.35 194.61 326.24 195.36 325.79 195.94 325.51 196.61 325.1 197.2 324.81 197.86 324.31 198.41 324.11 199.12 323.53 199.61 323.31 200.32 323.06 201.01 322.68 201.62 322.19 202.16 321.85 202.79 321.56 203.46 321.2 204.08 320.6 204.56 320.23 205.17 319.79 205.74 319.54 206.43 319.17 207.05 318.63 207.56 318.38 208.25 318.05 208.9 317.49 209.39 316.97 209.91 316.64 210.55 316.3 211.19 315.84 211.74 315.54 212.41 315.05 212.95 314.53 213.46 314.04 213.98 313.81 214.71 313.34 215.26 312.7 215.67 312.45 216.39 311.98 216.93 311.6 217.55 311.05 218.03 310.44 218.46 310 219.03 309.55 219.6 309.11 220.16 308.58 220.65 308.18 221.26 307.73 221.82 307.18 222.29 306.87 222.98 306.41 223.53 305.82 223.96 305.4 224.56 304.84 225.02 304.36 225.56 303.89 226.1 303.45 226.67 302.96 227.2 302.47 227.72 301.99 228.26 301.39 228.68 300.89 229.2 300.4 229.73 299.94 230.28 299.31 230.66 298.81 231.18 298.21 231.6 297.84 232.25 297.28 232.71 296.62 233.06 296.21 233.66 295.54 234 295.12 234.61 294.48 234.97 293.95 235.45 293.56 236.1 292.89 236.43 292.5 237.08 291.92 237.5 291.37 237.97 290.82 238.43 290.29 238.92 289.57 239.17 289.17 239.82 288.43 240.05 287.93 240.57 287.38 241.03 286.9 241.59 286.17 241.82 285.78 242.49 285.05 242.72 284.59 243.31 283.97 243.67 283.45 244.18 282.8 244.52 282.15 244.84 281.6 245.3 281.13 245.88 280.5 246.24 279.85 246.56 279.4 247.17 278.81 247.58 278.12 247.85 277.57 248.31 276.96 248.69 276.42 249.19 275.83 249.59 275.15 249.87 274.52 250.21 273.85 250.51 273.29 250.95 272.72 251.41 272.18 251.9 271.42 252.03 270.89 252.54 270.3 252.95 269.67 253.31 269.11 253.77 268.47 254.09 267.78 254.35 267.23 254.82 266.62 255.22 265.92 255.44 265.29 255.78 264.6 256.02 264.03 256.47 263.45 256.9 262.85 257.31 262.09 257.41 261.49 257.82 260.82 258.09 260.16 258.37 259.64 258.93 258.9 259.06 258.25 259.38 257.71 259.91 257.09 260.27 256.38 260.46 255.75 260.81 255.1 261.12 254.49 261.51 253.83 261.8 253.07 261.87 252.41 262.15 251.84 262.63 251.21 262.98 250.44 263.03 249.84 263.46 249.16 263.7 248.53 264.05 247.88 264.36 247.2 264.6 246.54 264.87 245.87 265.15 245.18 265.35 244.57 265.76 243.84 265.87 243.15 266.08 242.54 266.5 241.86 266.75 241.15 266.88 240.47 267.12 239.88 267.59 239.17 267.75 238.54 268.12 237.79 268.17 237.14 268.49 236.45 268.69 235.83 269.11 235.14 269.3 234.42 269.44 233.74 269.68 233.09 269.99 232.35 270.05 231.68 270.31 230.99 270.52 230.28 270.66 229.64 271.04 228.97 271.31 228.21 271.27 227.56 271.61 226.9 271.9 226.19 272.04 225.5 272.25 224.79 272.36 224.14 272.73 223.44 272.89 222.75 273.09 222.05 273.29 221.29 273.21 220.61 273.46 219.9 273.56 219.26 273.97 218.51 273.94 217.81 274.12 217.1 274.23 216.43 274.5 215.71 274.59 215.01 274.77 214.36 275.15 213.6 275.04 212.94 275.39 212.2 275.39 211.54 275.75 210.81 275.77 210.13 276.02 209.38 275.97 208.69 276.18 208.01 276.46 207.26 276.35 206.58 276.66 205.87 276.79 205.14 276.75 204.46 277.09 203.72 277.03 203.01 277.11 202.29 277.17 201.6 277.46 200.87 277.41 200.19 277.72 199.44 277.59 198.77 278 198.04 277.97 197.35 278.21 196.59 278.02 195.89 278.19 195.2 278.46 194.47 278.4 193.74 278.38 193.03 278.51 192.33 278.76 191.61 278.76 190.9 278.94 190.16 278.71 189.47 279.07 188.74 279.03 188.01 278.95 187.3 279.08 186.58 279.19 185.87 279.38 185.14 279.26 184.44 279.49 183.71 279.47 182.99 279.51 182.26 279.4 181.55 279.57 180.83 279.55 180.11 279.64 179.39 279.56 178.66 279.54 177.95 279.69 177.23 279.74 176.5 279.63 175.78 279.7 175.07 279.87 174.34 279.74 173.62 279.77 172.9 279.76 172.18 279.93 171.45 279.98 170.73 279.99 170.01 279.97 169.29 280 168.57 279.94 167.85 279.79 167.13 279.66 166.41 279.68 165.69 279.64 164.96 279.86 164.25 279.79 163.53 279.62 162.81 279.64 162.09 279.65 161.37 279.71 160.65 279.6 159.92 279.72 159.2 279.73 158.49 279.46 157.77 279.46 157.05 279.54 156.33 279.53 155.6 279.51 154.89 279.38 154.18 279.31 153.46 279.18 152.74 279.15 152.04 278.97 151.3 279.15 150.58 279.03 149.87 278.92 149.14 278.96 148.44 278.79 147.72 278.77 147.02 278.52 146.32 278.33 145.59 278.35 144.87 278.28 144.15 278.26 143.42 278.25 142.72 278.12 142 278.02 141.3 277.85 140.56 277.89 139.86 277.72 139.15 277.62 138.43 277.58 137.73 277.38 137.05 277.08 136.32 277.08 135.59 277.07 134.89 276.89 134.18 276.75 133.45 276.77 132.76 276.55 132.04 276.49 131.34 276.32 130.63 276.18 129.94 275.93 129.26 275.68 128.54 275.61 127.8 275.59 127.15 275.19 126.44 275.07 125.72 275.02 124.99 274.97 124.28 274.84 123.62 274.51 122.87 274.54 122.24 274.08 121.47 274.17 120.81 273.84 120.11 273.7 119.43 273.44 118.69 273.42 118.01 273.17 117.33 272.91 116.62 272.79 115.92 272.61 115.2 272.54 114.51 272.3 113.86 271.98 113.16 271.78 112.48 271.55 111.77 271.41 111.06 271.27 110.35 271.14 109.69 270.84 108.97 270.7 108.32 270.4 107.65 270.11 106.94 269.97 106.31 269.57 105.65 269.28 104.95 269.11 104.26 268.89 103.6 268.6 102.9 268.41 102.14 268.4 101.56 267.9 100.9 267.62 100.15 267.55 99.45 267.38 98.82 267.01 98.16 266.73 97.52 266.37 96.82 266.19 96.13 265.97 95.43 265.78 94.76 265.52 94.18 265.03 93.44 264.95 92.82 264.55 92.19 264.2 91.41 264.19 90.79 263.81 90.22 263.32 89.51 263.15 88.87 262.8 88.12 262.72 87.56 262.21 86.92 261.88 86.24 261.65 85.5 261.52 84.92 261.06 84.31 260.67 83.57 260.55 82.93 260.21 82.29 259.88 81.7 259.46 80.99 259.27 80.39 258.85 79.69 258.63 79.12 258.19 78.44 257.92 77.87 257.46 77.15 257.29 76.52 256.93 76.01 256.36 75.34 256.1 74.65 255.85 74.14 255.29 73.44 255.07 72.83 254.68 72.15 254.41 71.54 254.04 71.02 253.5 70.27 253.36 69.75 252.81 69.07 252.56 68.52 252.07 67.95 251.63 67.29 251.32 66.71 250.9 66 250.67 65.38 250.31 64.89 249.75 64.26 249.39 63.57 249.14 63.01 248.68 62.53 248.1 61.89 247.76 61.29 247.37 60.62 247.07 60.03 246.66 59.49 246.18 58.83 245.86 58.28 245.39 57.68 245 57.11 244.55 56.62 244.01 55.95 243.69 55.37 243.27 54.78 242.86 54.26 242.35 53.71 241.9 53.02 241.6 52.5 241.11 51.98 240.6 51.36 240.23 50.95 239.59 50.4 239.12 49.7 238.84 49.13 238.4 48.55 237.98 48.19 237.29 47.57 236.91 47.08 236.37 46.53 235.91 45.94 235.49 45.28 235.15 44.96 234.43 44.3 234.09 43.87 233.5 43.27 233.08 42.74 232.6 42.3 232.02 41.56 231.75 41.26 231.03 40.72 230.55 40.08 230.18 39.68 229.56 39.14 229.08 38.59 228.61 38.07 228.11 37.57 227.59 36.98 227.16 36.52 226.61 36.07 226.04 35.53 225.56 34.98 225.09 34.59 224.47 34.14 223.9 33.64 223.38 33.2 222.82 32.69 222.3 32.26 221.73 31.83 221.15 31.13 220.8 30.72 220.21 30.21 219.7 29.79 219.1 29.52 218.39 28.93 217.95 28.49 217.38 28.1 216.78 27.46 216.36 27.09 215.74 26.64 215.17 26.36 214.48 25.74 214.05 25.43 213.39 25.08 212.75 24.68 212.16 24.05 211.72 23.79 211.02 23.31 210.49 22.95 209.86 22.44 209.34 21.98 208.78 21.75 208.07 21.24 207.55 20.91 206.9 20.36 206.41 20.05 205.75 19.57 205.2 19.19 204.59 18.91 203.92 18.47 203.34 18.01 202.78 17.79 202.07 17.46 201.43 16.95 200.9 16.61 200.27 16.17 199.69 15.99 198.97 15.71 198.3 15.24 197.74 14.95 197.08 14.62 196.44 14.36 195.77 13.76 195.27 13.61 194.54 13.35 193.87 12.91 193.28 12.69 192.59 12.35 191.96 11.87 191.39 11.53 190.76 11.28 190.08 11.09 189.38 10.85 188.7 10.43 188.1 10.09 187.46 9.72 186.84 9.66 186.08 9.23 185.48 9.11 184.76 8.66 184.17 8.39 183.5 8.19 182.81 8.13 182.06 7.81 181.41 7.56 180.74 7.15 180.12 6.9 179.45 6.72 178.75 6.38 178.11 6.13 177.44 6.12 176.68 5.92 175.99 5.51 175.37 5.5 174.62 5.17 173.97 4.86 173.31 4.77 172.59 4.55 171.91 4.42 171.2 4.31 170.48 4.04 169.81 3.82 169.13 3.75 168.4 3.56 167.71 3.42 167.01 3.23 166.32 2.91 165.65 2.9 164.92 2.63 164.24 2.64 163.51 2.52 162.8 2.3 162.11 2.26 161.39 2.05 160.7 1.88 160 1.71 159.3 1.74 158.57 1.42 157.89 1.34 157.18 1.17 156.48 1.03 155.77 .94 155.06 .95 154.33 1.09 153.59 .72 152.91 .92 152.17 .74 151.46 .55 150.76 .67 150.03 .5 149.32 .57 148.6 .47 147.88 .2 147.18 .3 146.46 .12 145.74 .36 145.01 .25 144.3 .15 143.58 .18 142.86 .07 142.15 .16 141.43 .08 140.71 .05 139.99 .27 139.27 .01 138.55 .05 137.83 0 137.1 .33 136.39 .23 135.67 .24 134.95 .33 134.23 .2 133.51 .19 132.78 .46 132.08 .43 131.36 .48 130.64 .41 129.91 .64 129.21 .55 128.47 .83 127.78 .97 127.07 .88 126.34 1.01 125.63 1.24 124.93 1.29 124.21 1.46 123.51 1.43 122.78 1.66 122.09 1.54 121.34 1.75 120.65 1.86 119.93 2 119.23 2.25 118.54 2.16 117.8 2.28 117.09 2.69 116.43 2.67 115.7 2.78 114.98 3.14 114.33 3.03 113.56 3.35 112.9 3.52 112.2 3.59 111.48 3.86 110.8 4.01 110.1 4.22 109.41 4.45 108.73 4.64 108.03 4.8 107.33 4.87 106.6 5.06 105.91 5.26 105.21 5.52 104.54 5.81 103.88 6.16 103.24 6.3 102.53 6.66 101.89 6.66 101.13 7.1 100.52 7.4 99.86 7.43 99.11 7.61 98.41 8.09 97.82 8.36 97.15 8.37 96.39 8.64 95.72 9.19 95.17 9.19 94.39 9.58 93.77 9.86 93.11 10.14 92.45 10.44 91.79 10.87 91.2 11.02 90.48 11.23 89.78 11.62 89.17 11.91 88.51 12.44 87.97 12.74 87.31 13.02 86.65 13.2 85.94 13.57 85.32 14.03 84.75 14.37 84.12 14.74 83.5 14.99 82.82 15.25 82.14 15.53 81.47 16.12 80.98 16.34 80.28 16.56 79.57 17.2 79.12 17.58 78.51 17.84 77.83 18.2 77.2 18.67 76.65 18.98 76 19.35 75.38 19.71 74.76 19.98 74.08 20.57 73.6 20.79 72.89 21.27 72.34 21.66 71.74 21.97 71.08 22.55 70.61 22.92 69.98 23.28 69.36 23.85 68.88 24.26 68.29 24.56 67.62 24.95 67.02 25.34 66.41 25.84 65.89 26.28 65.32 26.83 64.84 27.34 64.32 27.51 63.54 28.02 63.03 28.61 62.58 28.93 61.91 29.45 61.41 29.85 60.81 30.45 60.37 30.75 59.68 31.33 59.23 31.71 58.61 32.15 58.04 32.78 57.63 33.32 57.16 33.81 56.63 34.12 55.94 34.62 55.42 35.14 54.92 35.74 54.5 36.14 53.89 36.59 53.33 37.22 52.93 37.58 52.28 38.13 51.82 38.62 51.29 39.25 50.91 39.71 50.35 40.09 49.7 40.78 49.39 41.09 48.68 41.73 48.3 42.2 47.75 42.81 47.35 43.4 46.93 43.86 46.37 44.45 45.95 44.86 45.34 45.33 44.78 45.97 44.42 46.48 43.91 46.97 43.37 47.71 43.13 48.16 42.55 48.62 41.98 49.15 41.49 49.78 41.12 50.26 40.58 50.93 40.26 51.41 39.7 52.06 39.37 52.65 38.96 53.16 38.44 53.79 38.08 54.27 37.53 54.93 37.21 55.51 36.78 56.05 36.3 56.64 35.9 57.25 35.51 57.84 35.11 58.36 34.6 59 34.26 59.61 33.88 60.18 33.44 60.77 33.03 61.31 32.54 61.82 32.03 62.47 31.69 63.15 31.42 63.6 30.8 64.27 30.51 64.88 30.14 65.54 29.83 66.11 29.39 66.7 28.98 67.24 28.48 67.94 28.25 68.48 27.76 69.1 27.39 69.81 27.18 70.44 26.84 71.01 26.38 71.54 25.87 72.2 25.57 72.83 25.22 73.5 24.95 74.01 24.4 74.78 24.3 75.37 23.88 75.93 23.4 76.69 23.29 77.23 22.79 77.84 22.4 78.49 22.08 79.11 21.72 79.86 21.61 80.38 21.04 80.99 20.67 81.78 20.63 82.41 20.29 83.01 19.87 83.57 19.39 84.34 19.33 84.89 18.8 85.66 18.75 86.17 18.16 86.94 18.09 87.6 17.81 88.23 17.47 88.84 17.06 89.48 16.73 90.13 16.42 90.78 16.12 91.48 15.92 92.2 15.77 92.86 15.5 93.49 15.14 94.18 14.93 94.77 14.45 95.5 14.36 96.14 14 96.79 13.7 97.52 13.59 98.11 13.13 98.78 12.85 99.48 12.67 100.2 12.55 100.79 12.08 101.55 12.06 102.24 11.84 102.84 11.39 103.51 11.12 104.2 10.92 104.89 10.7 105.55 10.42 106.22 10.15 106.98 10.14 107.64 9.84 108.28 9.5 109.01 9.4 109.7 9.21 110.4 9.04 111.05 8.69 111.76 8.56 112.47 8.42 113.14 8.17 113.87 8.1 114.5 7.68 115.24 7.66 115.94 7.5 116.57 7.08 117.26 6.87 118 6.83 118.71 6.72 119.37 6.39 120.04 6.11 120.77 6.07 121.51 6.07 122.2 5.84 122.88 5.61 123.57 5.39 124.28 5.27 124.99 5.17 125.68 4.95 126.41 4.89 127.09 4.64 127.8 4.51 128.52 4.46 129.22 4.27 129.93 4.15 130.61 3.9 131.32 3.76 132.01 3.56 132.71 3.39 133.43 3.33 134.16 3.28 134.83 2.97 135.55 2.88 136.29 2.93 137.02 2.92 137.69 2.6 138.39 2.42 139.14 2.5 139.85 2.4 140.57 2.37 141.28 2.21 141.99 2.13 142.68 1.85 143.4 1.84 144.11 1.67 144.82 1.58 145.56 1.67 146.26 1.44 146.96 1.29 147.69 1.29 148.42 1.39 149.12 1.09 149.85 1.17 150.56 .99 151.28 .96 151.99 .88 152.72 .91 153.43 .78 154.16 .89 154.87 .63 155.58 .54 156.31 .6 157.02 .48 157.74 .45 158.46 .35 159.19 .48 159.9 .25 160.63 .43 161.34 .16 162.06 .21 162.78 .19 163.51 .15 164.23 .13 164.95 .32 165.67 .26 166.4 .27 167.12 .26 167.84 .06 168.56 0 169.28 .17 170.01 .12 170.73 .19 171.45 .16 172.17 .2 172.89 .29 173.61 .15 174.33 .18 175.05 .28 175.77 .24 176.48 .37 177.21 .26 177.93 .22 178.65 .31 179.36 .43 180.08 .4 180.8 .39 181.52 .45 182.25 .37 182.97 .46 183.67 .67 184.4 .62 185.12 .66 185.83 .74 186.54 .89 187.28 .71 187.99 .92 188.7 1.04 189.41 1.17 190.14 1.03 190.86 1.14 191.56 1.35 192.28 1.37 193.02 1.27 193.73 1.38 194.44 1.49 195.16 1.58 195.86 1.76 196.56 1.92 197.28 1.99 198.01 1.94 198.71 2.14 199.41 2.38 200.16 2.21 200.84 2.51 201.55 2.61 202.27 2.69 203.01 2.64 203.69 2.9 204.42 2.95 205.12 3.08 205.83 3.22 206.56 3.24 207.25 3.44 207.96 3.59 208.68 3.63 209.37 3.87 210.06 4.12 210.8 4.07 211.45 4.48 212.2 4.44 212.89 4.64 213.61 4.74 214.33 4.82 215 5.12 215.72 5.19 216.44 5.28 217.13 5.51 217.82 5.69 218.54 5.81 219.18 6.23 219.9 6.3 220.64 6.31 221.31 6.59 222.03 6.69 222.71 6.94 223.41 7.11 224.06 7.48 224.77 7.61 225.46 7.82 226.16 7.98 226.82 8.3 227.59 8.22 228.29 8.41 228.93 8.79 229.59 9.07 230.34 9.11 230.98 9.45 231.69 9.62 232.39 9.78 233.06 10.05 233.72 10.36 234.47 10.38 235.08 10.83 235.77 11.04 236.47 11.22 237.18 11.37 237.87 11.57 238.47 12.03 239.2 12.15 239.88 12.37 240.51 12.75 241.19 12.97 241.82 13.35 242.48 13.63 243.19 13.81 243.91 13.94 244.61 14.14 245.18 14.63 245.92 14.72 246.59 15.01 247.27 15.23 247.93 15.52 248.59 15.81 249.22 16.18 249.92 16.38 250.58 16.67 251.21 17.01 251.77 17.53 252.46 17.74 253.21 17.85 253.77 18.35 254.47 18.55 255.09 18.92 255.73 19.26 256.45 19.42 257.05 19.82 257.63 20.27 258.3 20.54 259.04 20.67 259.57 21.23 260.25 21.47 260.9 21.79 261.47 22.24 262.1 22.59 262.85 22.72 263.47 23.08 264.03 23.56 264.67 23.89 265.29 24.25 266.03 24.41 266.64 24.8 267.19 25.28 267.76 25.73 268.51 25.88 269.09 26.3 269.67 26.75 270.23 27.21 270.89 27.51 271.56 27.79 272.18 28.16 272.7 28.69 273.32 29.05 273.96 29.38 274.62 29.69 275.14 30.2 275.86 30.42 276.42 30.89 276.92 31.43 277.57 31.75 278.08 32.27 278.73 32.6 279.38 32.93 279.95 33.37 280.54 33.78 281.21 34.08 281.77 34.53 282.21 35.15 282.82 35.53 283.49 35.84 284 36.36 284.69 36.64 285.28 37.05 285.79 37.57 286.29 38.1 286.83 38.57 287.48 38.91 287.92 39.51 288.58 39.85 289.16 40.27 289.71 40.73 290.17 41.3 290.71 41.78 291.34 42.14 291.84 42.67 292.52 42.98 292.91 43.63 293.49 44.06 294.1 44.45 294.73 44.83 295.07 45.53 295.66 45.95 296.21 46.41 296.84 46.78 297.4 47.24 297.82 47.85 298.43 48.25 298.79 48.91 299.35 49.37 299.85 49.88 300.5 50.26 300.95 50.82 301.47 51.32 301.88 51.92 302.36 52.46 302.89 52.95 303.44 53.42 303.94 53.94 304.5 54.4 305.04 54.88 305.46 55.47 306.01 55.94 306.35 56.6 306.74 57.22 307.37 57.63 307.81 58.19 308.4 58.63 308.7 59.33 309.24 59.81 309.59 60.46 310.08 60.99 310.65 61.45 311.07 62.03 311.55 62.57 311.94 63.18 312.48 63.67 312.9 64.26 313.18 64.95 313.62 65.52 314.14 66.02 314.49 66.66 314.93 67.23 315.5 67.7 316 68.23 316.24 68.94 316.79 69.43 317.13 70.07 317.62 70.6 317.89 71.29 318.36 71.84 318.8 72.41 319.27 72.96 319.62 73.59 319.97 74.22 320.37 74.82 320.63 75.5 321 76.12 321.64 76.57 321.78 77.33 322.14 77.95 322.73 78.43 322.96 79.13 323.41 79.71 323.73 80.35 324.15 80.93 324.33 81.66 324.7 82.27 325.07 82.89 325.42 83.52 325.93 84.06 325.98 84.85 326.45 85.41 326.92 85.98 327.22 86.64 327.49 87.3 327.65 88.03 327.99 88.65 328.46 89.23 328.67 89.93 328.98 90.57 329.4 91.17 329.54 91.89 329.84 92.55 330.02 93.25 330.45 93.85 330.83 94.47 331 95.18 331.38 95.8 331.43 96.55 331.74 97.2 332.13 97.82 332.4 98.49 332.45 99.24 332.65 99.93 333.09 100.53 333.22 101.25 333.49 101.92 333.61 102.63 334.07 103.24 334.17 103.96 334.52 104.6 334.72 105.29 334.97 105.97 335.02 106.7 335.25 107.38 335.35 108.1 335.76 108.73 335.89 109.44 335.86 110.19 336.31 110.82 336.53 111.5 336.46 112.26 336.58 112.97 337.01 113.61 336.99 114.35 337.24 115.03 337.27 115.76 337.44 116.45 337.48 117.18 337.83 117.84 337.76 118.58 337.97 119.28 338.07 119.99 338.19 120.69 338.4 121.39 338.55 122.09 338.71 122.79 338.64 123.53 338.67 124.25 338.83 124.95 338.88 125.67 339.25 126.35 339.06 127.09 339.26 127.79 339.4 128.5 339.54 129.21 339.41 129.94 339.63 130.64 339.49 131.38 339.76 132.08 339.57 132.81 339.75 133.52 339.75 134.24 339.65 134.96 339.83 135.67 339.8 136.39 339.91 137.11 339.92 137.83 339.84 138.55 339.95 139.27 339.92 139.99"/>
  <g>
    <g>
      <polygon points="233.01 200.2 232.51 200.62 231.84 200.59 231.16 200.61 230.49 200.58 229.81 200.6 229.13 200.64 228.45 200.64 227.77 200.59 227.1 200.69 226.42 200.66 225.74 200.69 225.06 200.59 224.38 200.71 223.71 200.62 223.03 200.72 222.35 200.6 221.66 200.64 220.98 200.68 220.3 200.7 219.61 200.66 218.93 200.71 218.24 200.59 217.56 200.68 216.87 200.72 216.19 200.66 215.51 200.72 214.83 200.6 214.15 200.67 213.46 200.65 212.78 200.61 212.11 200.56 211.41 200.63 210.93 200.11 210.45 199.62 209.91 199.19 209.44 198.68 208.9 198.26 208.5 197.67 207.94 197.28 207.52 196.72 207.03 196.24 206.54 195.77 206.03 195.31 205.57 194.8 205.06 194.35 204.59 193.85 204.13 193.33 203.65 192.84 203.2 192.31 202.63 191.91 202.2 191.36 201.66 190.93 201.2 190.42 200.7 189.95 200.25 189.43 199.83 188.87 199.28 188.47 198.86 187.91 198.32 187.48 197.89 186.94 197.38 186.47 196.91 185.96 196.44 185.45 196 184.92 195.5 184.45 194.96 184.02 194.52 183.48 193.98 183.04 193.53 182.52 193.04 182.03 192.56 181.52 192.07 181.04 191.6 180.52 191.07 180.07 190.62 179.53 190.18 178.98 189.64 178.54 189.16 178.04 188.73 177.47 188.15 177.08 187.68 176.56 187.27 175.98 186.73 175.54 186.25 175.04 185.74 174.56 185.27 174.05 184.81 173.51 184.27 173.07 183.83 172.53 183.33 172.05 182.85 171.55 182.33 171.09 181.85 170.59 181.42 170.03 180.85 169.62 180.36 169.13 179.93 168.58 179.46 168.08 178.94 167.61 178.46 167.13 178.01 166.61 177.46 166.2 177.02 165.7 176.57 165.19 176.1 164.7 175.64 164.21 175.16 163.74 174.69 163.27 174.25 162.75 173.71 162.35 173.25 161.86 172.87 161.32 172.57 160.43 172.58 159.73 172.57 159.04 172.5 158.34 172.44 157.65 172.32 156.96 172.27 156.26 172.23 155.56 172.01 154.89 172.02 154.18 171.82 153.51 171.64 152.83 171.54 152.14 171.49 151.43 171.2 150.78 171.13 150.08 170.99 149.39 170.72 148.75 170.57 148.06 170.39 147.38 170.14 146.73 170 146.04 169.71 145.41 169.55 144.73 169.37 144.06 169.06 143.41 168.88 142.71 168.68 142.02 168.34 141.38 168.11 140.7 167.91 140.01 167.6 139.36 167.26 138.73 166.99 138.07 166.74 137.39 166.47 136.73 166.1 136.12 165.79 135.48 165.45 134.85 165.12 134.22 164.79 133.59 164.53 132.92 164.18 132.29 163.79 131.7 163.44 131.08 163.08 130.46 162.67 129.89 162.36 129.24 161.94 128.67 161.66 128 161.25 127.42 160.85 126.83 160.55 126.17 160.19 125.56 159.74 125 159.35 124.4 158.99 123.77 159.15 123.57 159.83 123.54 160.52 123.43 161.21 123.49 161.9 123.43 162.58 123.54 163.27 123.44 163.97 123.56 164.66 123.42 165.34 123.57 166.02 123.56 166.7 123.45 167.38 123.5 168.06 123.51 168.74 123.58 169.42 123.51 170.1 123.45 170.78 123.58 171.46 123.52 172.15 123.47 172.82 123.47 173.5 123.55 174.18 123.54 174.86 123.44 175.55 123.53 176.23 123.48 176.91 123.49 177.59 123.57 178.28 123.51 178.97 123.56 179.65 123.52 180.34 123.44 181.02 123.51 181.71 123.53 182.39 123.48 183.08 123.43 183.77 123.48 184.45 123.43 185.14 123.41 185.82 123.42 186.5 123.43 187.19 123.51 187.87 123.44 188.55 123.45 189.24 123.49 189.92 123.48 190.61 123.42 191.29 123.48 191.97 123.54 192.66 123.46 193.34 123.6 194.02 123.48 194.68 123.6 195.19 124.07 195.75 124.49 196.28 124.94 196.69 125.53 197.25 125.96 197.73 126.48 198.22 126.98 198.67 127.53 199.12 128.06 199.64 128.54 200.13 129.04 200.61 129.56 201.05 130.12 201.55 130.62 201.97 131.19 202.48 131.68 202.88 132.27 203.42 132.72 203.9 133.24 204.38 133.75 204.82 134.29 205.23 134.9 205.48 135.57 205.54 136.31 205.14 136.93 204.68 137.45 204.29 138.04 203.78 138.52 203.28 139 202.87 139.58 202.39 140.08 201.88 140.56 201.47 141.13 201 141.65 200.45 142.08 199.98 142.59 199.51 143.12 199.05 143.65 198.64 144.22 198.07 144.64 197.68 145.23 197.12 145.65 196.72 146.24 196.24 146.74 195.75 147.24 195.24 147.72 194.75 148.21 194.34 148.79 193.9 149.33 193.36 149.78 193.01 150.35 192.61 150.89 193.04 151.37 193.72 151.39 194.39 151.46 195.07 151.46 195.75 151.54 196.43 151.52 197.11 151.63 197.79 151.56 198.47 151.62 199.15 151.64 199.83 151.6 200.51 151.67 201.19 151.66 201.87 151.64 202.55 151.73 203.23 151.6 203.91 151.64 204.59 151.64 205.27 151.75 205.96 151.7 206.64 151.68 207.32 151.73 208 151.69 208.67 151.82 209.36 151.75 210.04 151.78 210.71 151.88 211.39 151.95 211.96 152.31 212.35 152.85 212.57 153.5 212.62 154.21 212.75 154.9 212.68 155.6 212.68 156.3 212.71 157 212.79 157.7 212.72 158.41 212.75 159.11 212.82 159.81 212.82 160.51 212.82 161.21 212.84 161.91 212.75 162.61 212.76 163.31 212.87 164.01 212.78 164.71 212.77 165.42 212.81 166.15 212.76 166.87 212.61 167.59 212.27 168.24 212.06 168.95 211.66 169.57 211.43 170.27 211.13 170.93 210.76 171.56 210.61 172.28 210.56 172.99 210.4 173.71 210.53 174.43 210.53 175.15 210.57 175.87 210.73 176.58 210.88 177.28 211.09 177.97 211.27 178.66 211.45 179.36 211.68 180.04 211.94 180.71 212.09 181.42 212.39 182.07 212.57 182.78 212.9 183.42 213.17 184.08 213.37 184.78 213.75 185.38 214.01 186.05 214.26 186.74 214.66 187.34 214.97 188 215.36 188.6 215.71 189.24 216.25 189.71 216.7 190.28 217.27 190.7 217.85 191.1 218.47 191.43 219.15 191.55 219.84 191.68 220.53 191.64 221.23 191.62 221.9 191.42 222.59 191.26 223.25 191.01 223.82 190.72 224.43 190.53 225.02 190.31 225.64 190.14 226.27 190.21 226.89 190.31 227.48 190.67 228.13 190.92 228.62 191.43 229.16 191.87 229.67 192.35 230.09 192.92 230.47 193.51 230.95 194.04 231.19 194.72 231.57 195.32 231.87 195.97 232.11 196.65 232.34 197.32 232.54 198.01 232.74 198.7 232.91 199.4 233.09 200.1 233.01 200.2"/>
      <polygon points="196.02 200.49 195.83 200.75 195.15 200.78 194.46 200.8 193.78 200.75 193.1 200.74 192.41 200.77 191.73 200.8 191.04 200.75 190.35 200.77 189.66 200.75 188.99 200.76 188.31 200.74 187.64 200.77 186.96 200.79 186.29 200.75 185.62 200.75 184.95 200.76 184.28 200.76 183.61 200.75 182.93 200.79 182.26 200.78 181.58 200.79 180.91 200.76 180.24 200.77 179.57 200.8 178.89 200.79 178.21 200.77 177.53 200.79 176.86 200.77 176.18 200.77 175.5 200.79 174.82 200.81 174.14 200.75 173.46 200.81 172.78 200.75 172.1 200.75 171.42 200.78 170.75 200.77 170.07 200.75 169.4 200.75 168.72 200.74 168.04 200.79 167.37 200.73 166.69 200.79 166.02 200.73 165.35 200.74 165.21 200.17 165.4 199.57 165.62 198.98 165.82 198.29 166.07 197.63 166.3 196.95 166.51 196.27 166.8 195.61 167.02 194.93 167.32 194.29 167.58 193.62 167.87 192.97 168.13 192.3 168.42 191.65 168.66 190.97 168.98 190.33 169.29 189.69 169.59 189.03 169.86 188.37 170.16 187.72 170.49 187.08 170.83 186.45 171.12 185.8 171.46 185.17 171.78 184.53 172.13 183.9 172.47 183.28 172.84 182.66 173.19 182.04 173.53 181.41 173.86 180.78 174.26 180.19 174.59 179.56 174.97 178.96 175.32 178.33 175.74 177.76 176.11 177.15 176.47 176.54 176.89 175.97 177.27 175.37 177.68 174.8 178.06 174.21 178.54 173.63 179.18 173.37 179.75 173.79 180.22 174.3 180.73 174.77 181.21 175.28 181.69 175.78 182.18 176.27 182.65 176.79 183.14 177.28 183.64 177.78 184.1 178.31 184.59 178.82 185.09 179.31 185.56 179.83 186.08 180.31 186.55 180.82 187.01 181.36 187.48 181.86 187.69 182.46 187.39 183.04 187 183.54 186.51 184.04 186.04 184.55 185.57 185.07 185.1 185.58 184.62 186.09 184.15 186.61 183.71 187.16 183.23 187.67 182.77 188.2 182.27 188.71 181.81 189.23 181.36 189.78 180.87 190.26 180.4 190.84 180.14 191.54 180.48 192.18 181.15 192.47 181.86 192.54 182.58 192.59 183.28 192.44 183.96 192.33 184.61 192.09 185.25 191.85 185.89 191.6 186.52 191.32 187.16 191.05 187.8 190.8 188.46 190.63 189.13 190.55 189.79 190.7 190.43 190.93 191 191.31 191.56 191.72 192.03 192.24 192.52 192.73 192.91 193.32 193.32 193.89 193.7 194.48 194.03 195.11 194.39 195.72 194.66 196.38 194.93 197.04 195.21 197.7 195.45 198.37 195.69 199.04 195.86 199.73 196.04 200.42 196.02 200.49"/>
      <path d="M168.78,154.1l-.04-.72-.26-.67v-.73s-.32-.66-.32-.66l-.1-.71-.24-.67-.11-.71-.08-.72-.33-.65-.21-.68-.22-.68-.17-.69-.31-.64-.07-.73-.33-.63-.14-.71-.34-.63-.27-.65-.33-.62-.22-.67-.19-.69-.35-.62-.29-.64-.36-.6-.23-.67-.28-.65-.42-.57-.18-.71-.38-.59-.29-.64-.44-.55-.37-.6-.21-.7-.52-.5-.28-.65-.34-.61-.31-.63-.44-.55-.44-.54-.3-.65-.27-.67-.55-.47-.21-.71-.52-.49-.33-.63-.31-.64-.38-.6-.45-.55-.34-.63-.49-.51-.48-.52-.35-.62-.4-.58-.43-.56-.33-.64-.32-.64-.42-.56-.46-.54-.43-.56-.41-.58-.31-.65-.5-.51-.25-.69-.51-.5-.35-.62-.38-.6-.43-.56-.34-.63-.28-.67-.42-.57-.26-.68-.37-.6-.48-.54-.26-.67-.34-.62-.39-.6-.3-.64-.3-.65-.28-.65-.32-.63-.22-.68-.27-.66-.25-.67-.28-.65-.18-.7-.22-.68-.29-.65-.25-.67-.06-.73-.32-.65-.18-.69v-.74s-.29-.67-.29-.67l-.06-.72-.17-.7-.06-.72-.22-.69.13-.74-.21-.7.1-.73-.1-.71-.15-.71-.06-.72.04-.73.04-.73-.22-.71.03-.73.08-.73.03-.72-.09-.72-.11-.72-.03-.73.22-.73v-.73s-.16-.73-.16-.73l.06-.73v-.73s.18-.72.18-.72l-.07-.73.16-.72v-.74s-.05-.74-.05-.74l.06-.74-.21-.74-.71.03-.59.33-.54.41-.44.54-.61.32-.48.49-.46.51-.41.57-.57.39-.49.47-.46.51-.34.62-.53.44-.37.59-.47.5-.34.61-.52.47-.29.65-.4.56-.35.59-.39.57-.37.59-.33.61-.42.55-.59.34-.61-.28-.39-.54-.41-.52-.53-.41-.29-.64-.52-.43-.54-.39-.46-.47-.46-.47-.45-.52-.48-.49-.59-.33-.53-.42-.56-.38-.52-.44-.56-.38-.55-.41-.58-.35-.63-.24-.64-.21-.55-.43-.68-.09-.56-.41-.65-.18-.59-.35-.66-.12-.64-.19-.67-.05-.66-.1-.64-.19-.66-.04h-.58s-.58.15-.58.15l-.45.47v.75s-.36.64-.36.64l.02.73-.22.68-.12.7-.02.71.05.72-.03.71-.22.7.11.71.04.71.15.7v.71s.06.7.06.7l.07.7.03.71.14.69.16.69.12.7.18.69.2.68.25.66.17.69.43.59.12.72.42.58.22.68.44.56.14.73.35.58-.44.46-.48.42-.6.19-.66.1-.64.19-.63.21-.67.09-.62.26-.58.37-.64.21-.58.36-.68.13-.59.34-.59.34-.59.34-.56.39-.55.4-.63.26-.45.56-.6.31-.62.3-.53.43-.39.6-.61.33-.37.62-.49.47-.19.52.67.27.71-.12.7-.05.71.05.69-.08h.68s.67.14.67.14l.68.04.68-.09.66.18.67.05.69-.07.67.08.67.12.64.29.7-.08.64.3h.69s.67.12.67.12l.65.2.64.25.67.11.65.19.62.32.67.12.63.26.62.3.64.22.68.13.64.25.6.34.58.39.68.15.56.43.6.33.61.3.69.14.54.44.56.41.62.29.61.31.61.31.48.53.64.27.54.43.5.49.58.37.52.45.58.38.51.48.5.48.59.36.48.5.62.33.38.62.5.48.53.45.42.57.55.43.46.52.37.61.6.39.34.63.45.53.4.58.49.5.47.52.33.63.34.62.45.54.34.61.31.64.52.5.18.72.48.53.22.7.48.55.17.73.44.57.27.67.36.62.29.66.36.62.29.65.35.62.26.67.19.7.28.66.34.63.29.66.2.69.13.72.4.62.03.75.42.62.09.72.07.73.37.65.08.7.2.67.14.68v.71s.14.68.14.68l.11.69.27.66-.09.73.25.67.14.69.11.7-.06.72.24.68-.05.72.19.69.02.71-.09.71.09.7.07.71.02.71-.07.71v.71s-.23.69-.23.69l.11.72-.1.7-.18.68-.13.69-.11.7-.13.7-.22.67-.39.6-.18.68-.26.65-.33.61-.35.61-.47.51-.27.68-.53.45-.4.58-.57.43-.61.35-.63.29-.63.28-.6.37-.63.32-.72-.04-.67.15h-.69s-.69.02-.69.02h-.69s-.69-.07-.69-.07l-.64-.29-.64-.24-.7-.12-.61-.36-.52-.5-.58-.4-.56-.44-.35-.66-.58-.45-.36-.63-.4-.61-.13-.75-.33-.64-.16-.71-.25-.69.03-.74-.11-.72.09-.72-.05-.74.32-.66.19-.68.15-.7.31-.64.18-.7.37-.61.39-.59.49-.5.43-.57.48-.53.68-.26.51-.51.61-.36.62-.34.7-.13.67-.21.7-.05.68-.21.7.12h.69s.69.01.69.01l.71-.06.67.24.68.13.64.3.66.22.68.18.47-.51-.02-.74.15-.76-.14-.74-.06-.75v-.74s-.27-.7-.27-.7v-.72s-.1-.71-.1-.71v-.73s-.32-.67-.32-.67l-.11-.71-.06-.72-.06-.72-.25-.67-.14-.7-.16-.7-.22-.68-.23-.68-.11-.72-.35-.64-.26-.67-.14-.71-.18-.7-.32-.65-.35-.63-.11-.73-.4-.61-.11-.74-.32-.64-.39-.61-.22-.69-.34-.63-.37-.61-.23-.69-.51-.53-.16-.74-.51-.52-.34-.63-.35-.62-.35-.62-.43-.56-.47-.53-.43-.56-.39-.6-.44-.55-.52-.47-.48-.5-.61-.35-.68-.14-.69-.05-.69.05-.68.05-.68.13-.7-.04h-.7s-.67.27-.67.27l-.71-.06-.66.25-.7.03-.66.22-.66.23-.69.1-.65.27-.71.04-.67.18-.61.39-.62.34-.7.13-.6.38-.7.13-.64.3-.55.45-.66.23-.57.4-.64.27-.55.43-.63.29-.5.51-.62.31-.55.43-.6.35-.47.54-.54.44-.58.39-.53.45-.48.52-.45.55-.58.4-.39.6-.55.43-.38.61-.54.46-.4.59-.51.49-.43.56-.39.59-.33.63-.5.51-.35.62-.44.56-.27.67-.31.64-.42.57-.2.71-.38.6-.39.6-.19.7-.32.63-.39.6-.13.72-.22.68-.35.63-.11.72-.38.63-.18.69-.17.7-.06.73-.18.69-.18.69-.2.68-.17.69.03.73-.19.69v.72s-.29.68-.29.68l.16.74-.09.71-.11.71-.16.71.02.72.02.72.17.71-.03.72-.08.72v.72s.08.71.08.71l.24.69.1.71-.04.73.22.69v.73s.22.68.22.68v.73s.15.7.15.7l.23.68.07.72.35.64.2.68v.74s.25.67.25.67l.2.69.42.6.22.68.27.66.24.67.25.66.33.63.16.71.4.59.34.62.34.62.24.68.36.61.37.6.35.62.42.57.41.57.37.6.44.55.46.53.47.52.52.47.5.49.35.64.62.35.42.58.55.43.5.49.5.5.55.42.5.5.56.42.64.3.46.56.59.37.66.26.46.58.6.35.59.37.63.29.55.44.62.31.65.23.64.26.56.43.64.25.66.2.61.33.62.29.62.31.63.28.67.15.66.17.69.07.62.33.66.17h.7s.66.17.66.17l.66.19.68.05h.68s.67.14.67.14l.68.07.68.06.68-.05.67.25.68-.21.68.14h.68s.68-.05.68-.05l.67-.2.69.15.66-.24h.69s.67-.16.67-.16l.67-.1.7.07.64-.28.7.02.62-.39.69-.02.68-.08.66-.21.6-.4.67-.13.68-.12.62-.29.61-.32.63-.26.66-.19.65-.21.65-.22.52-.51.69-.15.58-.38.62-.31.6-.34.59-.36.52-.48.56-.41.54-.44.64-.29.48-.52.65-.29.5-.49.47-.52.56-.41.47-.52.4-.59.56-.42.56-.42.43-.56.4-.59.43-.55.5-.5.42-.56.34-.62.48-.51.3-.65.36-.6.52-.5.21-.7.46-.54.29-.65.26-.67.34-.62.27-.66.38-.6.38-.6.17-.7.3-.64.18-.69.23-.67.25-.67.14-.7.29-.66.11-.71.27-.66.12-.71.09-.71.16-.7.1-.71.22-.69.13-.7.02-.72-.07-.73.17-.7.08-.71.04-.71.05-.71.03-.72.06-.72-.02-.72-.1-.71.07-.72-.19-.71-.02-.71.03-.72-.04-.72-.08-.71-.27-.68-.07-.71-.14-.7-.02-.73-.09-.17Z"/>
      <polygon points="244.9 135.87 245.33 136.41 245.82 136.89 246.23 137.45 246.7 137.95 247.17 138.44 247.63 138.95 248.08 139.46 248.57 139.94 249.02 140.47 249.45 140.99 249.93 141.49 250.43 141.96 250.9 142.47 251.37 142.97 251.8 143.52 252.34 143.96 252.78 144.49 253.27 144.98 253.71 145.51 254.16 146.02 254.65 146.51 255.08 147.05 255.57 147.53 256 148.07 255.8 148.27 255.1 148.27 254.41 148.31 253.72 148.32 253.03 148.32 252.34 148.29 251.65 148.35 250.96 148.33 250.27 148.33 249.58 148.4 248.89 148.36 248.2 148.35 247.5 148.42 246.8 148.42 246.11 148.44 245.41 148.46 244.72 148.42 244.02 148.5 243.32 148.43 242.63 148.5 241.94 148.52 241.26 148.53 240.56 148.53 239.92 148.69 239.8 149.36 239.76 150.09 239.73 150.79 239.77 151.48 239.76 152.17 239.75 152.87 239.71 153.56 239.7 154.25 239.65 154.95 239.69 155.65 239.67 156.35 239.61 157.05 239.65 157.75 239.62 158.45 239.57 159.15 239.62 159.85 239.61 160.55 239.61 161.25 239.53 161.95 239.57 162.65 239.51 163.33 239.59 164.11 239.55 164.9 239.37 165.57 238.9 165.08 238.37 164.66 237.87 164.2 237.43 163.67 236.93 163.21 236.5 162.68 236 162.21 235.5 161.74 235.01 161.28 234.56 160.75 234.08 160.27 233.58 159.8 233.11 159.29 232.64 158.78 232.13 158.32 231.7 157.78 231.2 157.3 230.69 156.85 230.25 156.31 229.74 155.85 229.31 155.3 228.83 154.83 228.34 154.32 227.73 153.95 227.15 154.34 226.66 154.86 226.19 155.37 225.7 155.85 225.19 156.32 224.74 156.85 224.28 157.37 223.77 157.84 223.25 158.3 222.78 158.82 222.3 159.32 221.8 159.81 221.3 160.29 220.81 160.8 220.32 161.29 219.89 161.85 219.39 162.34 218.91 162.84 218.37 163.27 217.93 163.81 217.37 164.39 216.76 164.91 216.14 165.42 215.95 164.81 215.89 164.18 215.95 163.55 215.9 162.91 215.92 162.19 215.91 161.47 215.82 160.75 215.9 160.03 215.88 159.31 215.84 158.58 215.82 157.86 215.84 157.14 215.8 156.42 215.78 155.69 215.74 154.97 215.75 154.24 215.71 153.52 215.74 152.79 215.75 152.06 215.72 151.34 215.7 150.61 215.68 149.9 215.65 149.05 215.16 148.52 214.47 148.48 213.78 148.49 213.09 148.51 212.41 148.45 211.72 148.46 211.03 148.47 210.34 148.4 209.65 148.47 208.96 148.4 208.27 148.44 207.58 148.39 206.88 148.37 206.18 148.38 205.49 148.39 204.79 148.39 204.1 148.37 203.41 148.29 202.72 148.27 202.03 148.34 201.38 148.31 200.73 148.22 200.08 148.29 199.47 148.11 199.95 147.6 200.37 147.02 200.83 146.49 201.33 146 201.83 145.51 202.26 144.96 202.72 144.43 203.21 143.92 203.71 143.44 204.14 142.88 204.63 142.38 205.1 141.85 205.59 141.34 206.09 140.83 206.55 140.29 207.07 139.82 207.56 139.31 207.99 138.75 208.47 138.23 208.99 137.75 209.43 137.2 209.92 136.69 210.38 136.17 210.3 135.46 209.82 134.94 209.34 134.44 208.88 133.9 208.46 133.33 207.98 132.82 207.45 132.36 207 131.81 206.52 131.3 206.04 130.8 205.6 130.25 205.12 129.72 204.66 129.19 204.15 128.7 203.66 128.19 203.17 127.69 202.67 127.19 202.24 126.63 201.75 126.12 201.3 125.57 200.77 125.1 200.37 124.51 199.88 124.01 199.88 123.37 200.7 123.35 201.38 123.36 202.06 123.38 202.74 123.32 203.42 123.36 204.1 123.31 204.78 123.34 205.46 123.35 206.15 123.28 206.83 123.3 207.51 123.24 208.16 123.23 208.81 123.3 209.47 123.28 210.12 123.26 210.78 123.2 211.44 123.23 212.1 123.16 212.76 123.21 213.41 123.19 214.07 123.23 214.72 123.18 215.37 123.12 215.72 122.39 215.76 121.67 215.67 120.94 215.76 120.21 215.77 119.49 215.74 118.76 215.76 118.04 215.8 117.32 215.79 116.59 215.84 115.87 215.82 115.14 215.85 114.42 215.79 113.68 215.87 112.95 215.86 112.22 215.87 111.49 215.84 110.76 215.88 110.04 215.84 109.31 215.85 108.58 215.87 107.86 215.92 107.13 215.93 106.41 216.21 106.15 216.71 106.64 217.21 107.13 217.74 107.59 218.23 108.1 218.7 108.62 219.21 109.09 219.69 109.6 220.13 110.16 220.64 110.64 221.11 111.17 221.62 111.66 222.11 112.17 222.57 112.71 223.06 113.22 223.64 113.65 224.12 114.17 224.6 114.7 225.11 115.18 225.56 115.73 226.09 116.19 226.59 116.69 227.12 117.14 227.57 117.68 228.18 117.43 228.63 116.96 229.11 116.51 229.54 116.01 230.05 115.58 230.47 115.04 230.97 114.58 231.41 114.07 231.93 113.64 232.41 113.17 232.88 112.68 233.32 112.16 233.83 111.71 234.29 111.21 234.74 110.69 235.21 110.2 235.72 109.74 236.21 109.27 236.66 108.75 237.13 108.25 237.63 107.79 238.06 107.26 238.53 106.79 239.1 106.3 239.47 106.41 239.51 107.12 239.55 107.84 239.6 108.56 239.55 109.27 239.56 109.99 239.63 110.7 239.66 111.42 239.62 112.14 239.58 112.86 239.67 113.57 239.62 114.29 239.61 115.01 239.66 115.73 239.68 116.45 239.7 117.18 239.69 117.9 239.63 118.62 239.73 119.34 239.72 120.06 239.74 120.78 239.81 121.49 239.84 122.21 239.8 122.93 240.22 123.11 240.89 123.12 241.56 123.15 242.23 123.21 242.9 123.23 243.57 123.21 244.23 123.26 244.9 123.28 245.57 123.21 246.25 123.23 246.91 123.26 247.59 123.23 248.26 123.33 248.93 123.35 249.61 123.35 250.28 123.27 250.96 123.35 251.63 123.29 252.3 123.31 252.98 123.34 253.65 123.34 254.32 123.39 254.99 123.43 255.65 123.41 255.88 123.77 255.41 124.29 254.92 124.8 254.44 125.33 253.93 125.81 253.51 126.38 253.01 126.88 252.5 127.37 252.08 127.94 251.56 128.41 251.08 128.94 250.61 129.46 250.14 130 249.62 130.48 249.17 131.04 248.63 131.51 248.19 132.08 247.68 132.57 247.23 133.13 246.72 133.62 246.25 134.15 245.8 134.69 245.32 135.23 244.92 135.81 244.9 135.87"/>
    </g>
    <polygon points="315.81 151.14 315.65 150.43 315.28 149.63 314.85 148.94 314.3 148.36 313.66 147.86 312.93 147.49 312.18 147.28 311.37 147.17 310.58 147.2 309.82 147.34 309.12 147.56 308.32 148.03 307.75 148.53 307.25 149.05 306.81 149.85 306.54 150.52 306.33 152.17 306.44 152.98 306.62 153.75 306.92 154.47 307.34 155.17 307.88 155.77 308.52 156.25 309.23 156.61 309.99 156.85 310.75 156.95 311.55 156.96 312.34 156.83 313.09 156.56 313.8 156.17 314.41 155.67 314.94 155.06 315.33 154.4 315.64 153.68 315.83 153 315.89 152.19 315.92 151.97 315.81 151.14"/>
    <g>
      <polygon points="21.5 107.23 21.03 106.72 20.68 106.11 20.34 105.49 19.97 104.89 19.55 104.32 19.3 103.63 18.86 103.07 18.34 102.6 17.82 102.76 17.51 103.4 17.33 104.09 17.1 104.75 16.92 105.43 16.76 106.12 16.64 106.82 16.35 107.47 16.26 108.18 15.95 108.83 15.79 109.52 15.59 110.19 15.47 110.9 15.23 111.56 15.15 112.27 14.92 112.95 14.8 113.65 14.64 114.33 14.32 114.98 14.15 115.67 14 116.35 14.18 117.04 14.94 116.98 15.61 116.64 16.26 116.27 16.92 115.91 17.61 115.6 18.27 115.24 19.01 115.08 19.73 114.81 20.47 114.94 21.18 115.09 21.88 115.25 22.59 115.4 23.26 115.68 23.97 115.84 24.64 116.11 25.33 116.33 26.02 116.53 26.71 116.78 27.4 116.96 28.11 117.13 28.82 117.27 29.48 117.62 30.17 117.85 30.91 117.92 31.59 118.18 32.27 118.47 33 118.56 33.67 118.86 34.35 119.13 35.08 119.23 35.74 119.54 36.43 119.78 37.11 120.03 37.83 120.16 38.52 120.36 39.29 120.8 40 121.33 40.43 121.85 40.73 122.46 41.11 123.03 41.39 123.66 41.74 124.25 42.06 124.87 42.51 125.39 43.1 125.69 43.55 125.36 43.85 124.69 44 123.97 44.14 123.25 44.46 122.58 44.57 121.85 44.8 121.16 45.03 120.47 45.16 119.75 45.37 119.05 45.52 118.33 45.85 117.66 46 116.94 46.11 116.21 46.33 115.51 46.55 114.81 46.81 114.12 46.95 113.4 47.11 112.69 47.33 112 47.22 111.27 46.46 111.38 45.76 111.68 45.08 112.02 44.4 112.35 43.7 112.67 43.1 113.16 42.36 113.3 41.53 113.55 40.65 113.51 40.01 113.17 39.33 112.96 38.63 112.81 37.94 112.61 37.23 112.5 36.55 112.28 35.91 111.93 35.21 111.77 34.51 111.65 33.81 111.48 33.17 111.14 32.47 110.97 31.8 110.75 31.06 110.7 30.38 110.47 29.68 110.32 29.04 109.94 28.34 109.78 27.64 109.6 26.97 109.33 26.26 109.21 25.58 108.97 24.94 108.61 24.23 108.44 23.56 108.2 22.91 107.9 22.26 107.61 21.55 107.4 21.5 107.23"/>
      <polygon points="61.26 73.05 61.21 73.75 61.26 74.47 61.41 75.17 61.58 75.88 61.81 76.57 62.24 77.18 62.42 77.88 62.5 78.61 62.71 79.29 62.72 80.01 62.66 80.72 62.4 81.4 62 82.01 61.53 82.56 60.94 82.98 60.34 83.35 59.71 83.68 59.02 83.52 58.38 83.25 57.82 82.81 57.23 82.39 56.76 81.82 56.16 81.4 55.68 80.86 55.17 80.35 54.58 79.91 54.11 79.35 53.47 78.97 52.95 78.46 52.49 77.9 51.96 77.39 51.38 76.94 50.85 76.44 50.28 75.97 49.7 75.52 49.23 74.95 48.63 74.51 48.09 74.02 47.67 73.4 47.07 72.97 46.52 72.49 46.03 71.94 45.51 71.43 44.91 71 44.34 70.56 43.95 69.95 43.7 69.28 43.41 68.63 43.44 67.9 43.23 67.21 43.22 66.5 43.22 65.78 42.98 65.06 43.02 64.29 42.57 63.72 41.87 63.95 41.49 64.58 41.05 65.14 40.53 65.63 39.98 66.1 39.57 66.7 39 67.15 38.48 67.65 38.05 68.22 37.61 68.79 37.14 69.33 36.63 69.85 36.19 70.43 35.61 70.88 35.14 71.43 34.65 71.96 34.21 72.54 33.73 73.06 33.38 73.56 33.05 74.06 32.71 74.6 33.16 74.78 33.87 74.91 34.61 75.04 35.35 75 36.09 74.93 36.83 74.95 37.57 75.08 38.33 75.05 39.02 75.34 39.59 75.81 40.17 76.26 40.65 76.82 41.32 77.17 41.87 77.65 42.37 78.19 42.89 78.72 43.49 79.14 43.99 79.68 44.6 80.09 45.15 80.58 45.59 81.19 46.15 81.66 46.77 82.07 47.2 82.7 47.77 83.18 48.27 83.73 48.95 84.09 49.49 84.6 49.92 85.22 50.45 85.73 51.03 86.18 51.53 86.72 52.16 87.12 52.71 87.58 53.25 88.07 53.68 88.65 54.06 89.25 54.5 89.84 54.76 90.52 54.81 91.25 54.92 91.96 55.09 92.67 55.14 93.38 55.02 94.12 55.28 94.85 55.62 95.38 56.04 95.39 56.56 94.87 57.03 94.3 57.6 93.83 57.98 93.18 58.43 92.6 59.02 92.14 59.55 91.63 59.99 91.05 60.54 90.56 60.99 89.98 61.44 89.4 61.88 88.81 62.38 88.26 63 87.83 63.38 87.17 63.84 86.59 64.46 86.16 64.92 85.58 65.47 85.09 65.92 84.51 66.39 83.94 66.81 83.39 67.33 82.92 67.98 82.64 68.48 82.15 69.13 81.8 69.84 81.6 70.51 81.3 71.11 80.89 71.7 80.44 71.51 79.9 71.37 79.32 70.8 78.85 70.4 78.27 69.92 77.74 69.54 77.13 68.96 76.69 68.51 76.13 68.02 75.61 67.59 75.03 67.13 74.47 66.72 73.87 66.3 73.28 65.81 72.75 65.24 72.3 64.74 71.79 64.4 71.12 63.72 70.88 63.03 70.89 62.37 71.14 61.9 71.66 61.38 72.18 61.16 72.88 61.26 73.05"/>
      <polygon points="100.6 47.35 100.34 48.02 100.28 48.73 100.18 49.43 100.06 50.13 99.97 50.84 100.11 51.56 100.14 52.28 100.07 52.99 99.75 53.65 99.69 54.38 99.24 54.95 98.72 55.42 98.15 55.84 97.58 56.27 96.88 56.46 96.2 56.64 95.51 56.59 94.84 56.38 94.48 55.78 94.12 55.17 93.75 54.57 93.47 53.92 93.15 53.29 92.84 52.67 92.46 52.07 92.03 51.5 91.87 50.79 91.48 50.19 91.13 49.59 90.83 48.95 90.41 48.37 90.11 47.72 89.77 47.09 89.6 46.38 89.11 45.83 88.79 45.19 88.54 44.52 88.25 43.87 87.87 43.27 87.66 42.58 87.36 41.94 86.99 41.33 86.64 40.71 86.32 40.08 86.11 39.4 85.84 38.75 85.65 38.1 85.53 37.4 85.63 36.71 85.94 36.07 86.07 35.39 86.24 34.72 86.53 34.08 86.58 33.38 86.68 32.51 86.17 32.18 85.53 32.48 84.89 32.77 84.21 32.96 83.57 33.26 82.97 33.65 82.28 33.85 81.71 34.3 81.02 34.48 80.38 34.78 79.8 35.2 79.15 35.5 78.51 35.81 77.86 36.12 77.21 36.41 76.64 36.85 75.99 37.15 75.33 37.41 74.68 37.7 74.12 38.19 73.61 38.68 74.07 39.2 74.67 39.59 75.38 39.72 75.98 40.1 76.69 40.19 77.32 40.48 77.95 40.76 78.52 41.14 78.99 41.62 79.39 42.23 79.88 42.79 80.18 43.46 80.48 44.14 80.85 44.77 81.22 45.4 81.56 46.05 81.93 46.68 82.19 47.38 82.46 48.06 82.92 48.65 83.25 49.3 83.55 49.97 83.89 50.63 84.1 51.35 84.42 52.01 84.77 52.66 85.18 53.28 85.46 53.97 85.78 54.64 86.07 55.32 86.56 55.89 86.9 56.54 87.21 57.2 87.52 57.86 87.8 58.55 88.06 59.24 88.25 59.96 88.31 60.69 88.18 61.41 88.07 62.14 87.84 62.84 87.6 63.54 87.4 64.26 87.2 64.97 87.25 65.71 87.77 66.07 88.37 65.66 89.02 65.38 89.7 65.15 90.36 64.89 90.98 64.53 91.64 64.27 92.27 63.95 92.83 63.48 93.48 63.21 94.14 62.93 94.79 62.66 95.43 62.34 96.03 61.95 96.64 61.57 97.3 61.3 97.96 61.02 98.58 60.65 99.25 60.38 99.9 60.09 100.56 59.81 101.14 59.39 101.85 59.24 102.47 58.88 103.11 58.58 103.84 58.36 104.6 58.33 105.36 58.35 106.11 58.31 106.87 58.28 107.56 58 107.9 57.47 107.89 56.8 107.55 56.14 107.33 55.45 107.09 54.76 106.84 54.08 106.62 53.38 106.4 52.69 106.21 52.01 105.91 51.38 105.71 50.72 105.53 50.05 105.2 49.43 105.04 48.75 104.73 48.13 104.49 47.48 104.32 46.78 103.83 46.25 103.16 45.98 102.47 46.11 101.84 46.4 101.27 46.79 100.76 47.27 100.6 47.35"/>
      <polygon points="136.67 16.89 137.14 17.36 137.58 17.9 138.1 18.35 138.71 18.68 139.24 19.12 139.8 19.51 140.29 19.99 140.71 20.52 141.1 21.06 141.46 21.68 141.57 22.39 141.75 23.07 141.9 23.77 142.02 24.47 142.18 25.15 142.45 25.82 142.47 26.54 142.67 27.22 142.65 27.95 142.75 28.65 142.87 29.36 143.1 30.05 143.28 30.74 143.38 31.45 143.32 32.17 143.56 32.85 143.65 33.55 143.79 34.24 143.86 34.97 144.02 35.68 144.12 36.42 144.09 37.16 143.98 37.89 143.78 38.61 143.57 39.32 143.18 39.95 142.89 40.64 142.41 41.21 141.77 41.58 141.2 42.08 140.46 42.17 139.73 42.15 138.98 42.24 138.29 41.98 137.58 41.73 136.96 41.33 136.41 40.83 136.01 40.21 135.56 39.64 135.26 38.98 134.97 38.31 134.56 37.69 134.38 36.99 134.19 36.28 134.02 35.57 133.86 34.86 133.67 34.16 133.66 33.45 133.48 32.77 133.27 32.1 133.19 31.4 133.1 30.71 132.9 30.03 132.79 29.34 132.64 28.64 132.59 27.94 132.39 27.26 132.33 26.56 132.18 25.87 132.14 25.16 131.92 24.49 131.81 23.8 131.74 23.18 131.83 22.56 131.96 21.96 132.36 21.32 132.62 20.59 133.05 19.96 133.56 19.37 133.89 18.67 134.32 18.05 134.39 17.31 133.84 17.02 133.13 17.2 132.38 17.2 131.68 17.44 130.95 17.54 130.2 17.51 129.49 17.73 128.76 17.77 128.03 17.83 127.32 18.06 126.6 18.2 125.85 18.2 125.13 18.38 124.41 18.54 123.68 18.63 122.97 18.84 122.23 18.88 121.53 19.16 120.79 19.2 120.12 19.49 120.11 20.08 120.63 20.64 121.18 21.05 121.71 21.46 122.29 21.83 122.87 22.19 123.37 22.66 123.83 23.17 124.26 23.69 124.47 24.38 124.79 25.03 124.97 25.72 124.98 26.46 125.32 27.12 125.27 27.85 125.48 28.54 125.62 29.24 125.72 29.95 125.81 30.65 125.91 31.36 126.09 32.06 126.15 32.78 126.31 33.48 126.37 34.2 126.6 34.89 126.81 35.58 126.93 36.29 126.94 37.02 127.28 37.68 127.37 38.4 127.54 39.1 127.82 39.76 128.14 40.41 128.33 41.11 128.76 41.7 128.96 42.4 129.44 42.95 129.87 43.53 130.36 44.05 130.86 44.55 131.33 45.1 131.96 45.46 132.51 45.93 133.16 46.24 133.87 46.42 134.54 46.66 135.22 46.89 135.94 46.92 136.64 47.12 137.36 47.17 138.07 47.27 138.8 47.27 139.52 47.14 140.24 47.1 140.96 47.04 141.63 46.76 142.36 46.69 143.02 46.4 143.67 46.09 144.38 45.9 144.93 45.41 145.54 45.03 146.19 44.69 146.65 44.12 147.2 43.65 147.69 43.12 147.97 42.44 148.39 41.85 148.78 41.24 149.02 40.57 149.23 39.88 149.46 39.2 149.66 38.5 149.76 37.79 149.69 37.06 149.81 36.35 149.81 35.63 149.83 34.91 149.65 34.2 149.66 33.48 149.49 32.77 149.35 32.07 149.21 31.37 149.14 30.65 149.02 29.94 148.89 29.24 148.64 28.56 148.48 27.86 148.35 27.15 148.21 26.45 148.09 25.73 148.01 25.02 147.78 24.33 147.66 23.61 147.6 22.89 147.48 22.18 147.48 21.46 147.39 20.75 147.28 20.03 147.56 19.31 147.86 18.64 148.14 17.93 148.57 17.3 149.04 16.72 149.46 16.09 149.73 15.44 150.09 14.82 149.52 14.48 148.8 14.5 148.07 14.51 147.34 14.59 146.62 14.78 145.91 14.93 145.19 15.1 144.47 15.2 143.74 15.3 143.01 15.36 142.28 15.46 141.58 15.74 140.85 15.79 140.12 15.9 139.4 16.07 138.67 16.15 137.94 16.25 137.24 16.44 136.62 16.85 136.67 16.89"/>
      <polygon points="186.98 19.35 187.66 19.26 188.35 19.37 188.93 19.76 189.5 20.19 189.89 20.8 190.23 21.43 190.7 21.98 191 22.63 191.43 23.2 191.75 23.85 192.31 24.3 192.92 24.65 193.6 24.83 194.29 25.04 194.97 24.82 195.64 24.54 195.75 23.77 195.94 23.03 195.93 22.27 195.88 21.51 195.82 20.76 195.74 20.09 195.77 19.41 195.71 18.74 195.67 18.06 195.51 17.4 195.42 16.73 195.42 16.02 195.4 15.33 195.45 14.62 195.17 13.97 194.66 13.51 193.99 13.58 193.3 13.68 192.64 13.88 191.96 14.02 191.3 14.3 190.6 14.17 189.85 14.17 189.1 14.04 188.42 13.71 187.66 13.6 186.97 13.3 186.22 13.21 185.49 13 184.73 13.04 184.06 13.33 183.39 13.58 182.7 13.8 182.16 14.29 181.58 14.7 180.92 15.03 180.47 15.6 180.06 16.19 179.63 16.75 179.26 17.37 178.84 17.95 178.65 18.65 178.37 19.32 178.28 20.03 178.21 20.74 178.09 21.45 178.16 22.17 178.23 22.88 178.3 23.61 178.56 24.27 178.72 24.98 179.02 25.64 179.41 26.24 179.79 26.86 180.22 27.44 180.83 27.87 181.16 28.54 181.7 29.02 182.13 29.61 182.74 30.02 183.21 30.57 183.65 31.15 184.23 31.6 184.74 32.11 185.09 32.77 185.72 33.18 186.11 33.8 186.64 34.3 187 34.94 187.4 35.54 187.9 36.08 188.21 36.74 188.31 37.47 188.58 38.16 188.44 38.89 188.07 39.53 187.5 40.01 186.79 40.26 186.06 40.35 185.36 40.5 184.65 40.37 183.98 40.11 183.47 39.59 183.03 39.02 182.67 38.39 182.3 37.75 182.04 37.07 181.65 36.44 181.37 35.77 180.91 35.19 180.52 34.58 180.03 34.03 179.3 33.78 178.58 33.46 177.79 33.49 177.13 33.87 176.77 34.5 176.64 35.2 176.71 35.91 176.74 36.62 176.73 37.34 176.7 38.04 176.68 38.74 176.87 39.43 176.88 40.13 176.87 40.84 176.96 41.54 177 42.24 176.86 42.95 176.94 43.64 177.12 44.37 177.17 45.09 177.35 45.75 177.92 46.09 178.6 46.08 179.25 45.89 179.86 45.59 180.51 45.41 181.18 45.35 181.84 45.4 182.59 45.5 183.39 45.51 184.11 45.8 184.86 46.01 185.6 46.23 186.34 46.46 187.12 46.59 187.88 46.38 188.66 46.3 189.38 46.01 190.07 45.65 190.83 45.44 191.45 45.2 192.02 44.82 192.62 44.53 193.22 44.21 193.6 43.65 193.96 43.04 194.34 42.43 194.71 41.81 194.95 41.13 195.08 40.42 195.35 39.74 195.48 39.04 195.65 38.33 195.55 37.6 195.71 36.89 195.58 36.17 195.63 35.45 195.53 34.73 195.29 34.04 195.04 33.37 194.7 32.74 194.45 32.05 193.98 31.5 193.49 30.98 193.09 30.39 192.67 29.81 192.13 29.34 191.62 28.84 191.2 28.25 190.71 27.72 190.16 27.25 189.68 26.71 189.27 26.12 188.86 25.52 188.28 25.08 187.77 24.58 187.32 24.06 187.02 23.41 186.47 22.95 186.21 22.3 185.93 21.67 185.78 21 185.8 20.29 186.26 19.76 186.81 19.36 186.98 19.35"/>
      <polygon points="233.72 23.83 233.14 23.41 232.61 22.91 231.94 22.62 231.4 22.14 230.79 21.77 230.17 21.4 229.59 20.98 228.87 20.86 228.17 20.76 227.67 21.27 227.15 21.77 226.79 22.38 226.53 23.05 226.22 23.7 225.78 24.27 225.53 24.94 225.17 25.56 224.81 26.18 224.46 26.79 224.01 27.34 223.67 27.97 223.42 28.64 223.15 29.28 222.92 29.97 223.36 30.63 223.99 31.04 224.69 31.34 225.45 31.29 226.19 31.24 226.83 31.09 227.37 30.71 227.9 30.33 228.48 29.98 229.11 29.72 229.64 29.28 230.32 29.16 231.05 28.95 231.78 29.19 232.37 29.6 232.39 30.37 232.09 31.02 231.79 31.67 231.49 32.31 231.22 32.97 231.03 33.66 230.86 34.35 230.51 34.98 230.27 35.65 230.05 36.33 229.8 36.99 229.7 37.71 229.32 38.33 229.12 39.02 228.78 39.66 228.69 40.39 228.41 41.05 228.04 41.68 227.83 42.37 227.69 43.08 227.41 43.74 227.05 44.37 226.81 45.04 226.59 45.72 226.34 46.4 226.07 47.06 225.67 47.66 225.44 48.34 224.9 48.87 224.26 49.26 223.6 49.63 222.98 50.08 222.31 50.44 221.65 50.8 220.92 51.05 220.46 51.41 220.19 51.93 220.76 52.34 221.36 52.68 222.03 52.87 222.68 53.09 223.32 53.37 223.97 53.58 224.59 53.89 225.31 54 225.99 54.23 226.66 54.49 227.32 54.79 227.99 55.06 228.69 55.26 229.33 55.59 230.03 55.77 230.7 56.04 231.33 56.41 232.02 56.64 232.69 56.88 233.39 57.08 233.9 56.93 233.9 56.37 233.86 55.78 233.64 55.04 233.21 54.39 233.05 53.63 232.65 52.97 232.55 52.2 232.4 51.46 232.25 50.7 232.54 50.03 232.72 49.34 233.04 48.7 233.23 48.01 233.49 47.35 233.72 46.68 233.97 46.01 234.15 45.31 234.46 44.66 234.76 44.02 234.9 43.31 235.23 42.67 235.4 41.97 235.64 41.29 236 40.66 236.21 39.97 236.46 39.3 236.66 38.6 236.94 37.94 237.2 37.28 237.49 36.62 237.7 35.93 238.04 35.29 238.2 34.58 238.55 33.95 238.79 33.28 239.1 32.65 239.62 32.2 240.34 32.25 240.82 32.78 241.39 33.23 241.67 33.9 241.9 34.57 242.18 35.22 242.24 35.94 242.52 36.6 242.9 37.19 243.3 37.75 243.77 38.29 244.45 38.52 245.12 38.66 245.8 38.8 246.34 38.36 246.81 37.82 246.91 37.12 247.12 36.46 247.31 35.79 247.44 35.1 247.49 34.36 247.64 33.63 247.88 32.93 247.92 32.18 248.17 31.48 248.33 30.75 248.44 30.02 248.52 29.28 248.45 28.55 248.2 27.91 247.6 27.54 246.91 27.44 246.24 27.24 245.53 27.38 244.85 27.26 244.16 27.2 243.46 26.98 242.75 26.88 242.02 26.86 241.34 26.59 240.61 26.52 239.97 26.16 239.28 25.95 238.54 25.86 237.89 25.54 237.23 25.25 236.59 24.89 235.91 24.64 235.2 24.47 234.52 24.23 233.91 23.81 233.72 23.83"/>
      <path d="M274.87,44.34l-.28.64-.04.7.13.69v.69s.06.69.06.69l.18.69-.15.69v.7s-.24.66-.24.66l-.36.59-.52.5-.43.57-.34.64-.61.42-.32.66-.42.58-.55.47-.49.52-.5.51-.35.63-.47.54-.46.55-.52.5-.49.53-.45.56-.39.62-.43.58-.46.55-.52.5-.56.46-.48.54-.3.69-.64.4-.39.61-.36.63-.59.43-.4.45-.47.36-.51.34-.7.08-.67.22-.71-.05-.65.32-.7.09-.73-.02-.7.17-.48.45.13.59.56.27.53.46.53.46.48.53.63.34.49.51.57.41.48.52.5.51.56.44.58.41.6.39.53.47.51.49.65.33.42.61.61.37.53.47.53.47.7-.08.26-.7.07-.76.02-.76-.2-.75.02-.76.02-.76.16-.72.09-.76.35-.66.5-.56.45-.59.57-.48.33-.69.63-.43.37-.58.54-.41.58-.42.24.88.16.76-.09.76-.05.77-.25.73-.14.7.09.74-.3.68-.02.73-.18.7v.72s-.11.71-.11.71l-.06.71-.04.72.12.71v.72s.09.71.09.71l.24.71.06.75.22.72.17.73.07.75.27.7.35.66.54.41.65.25.69-.08.69-.04.66-.19.57-.37.53-.43.32-.63.14-.68.1-.69.1-.69-.05-.73.13-.69.23-.68.12-.7.04-.71-.02-.72.12-.7.12-.7.24-.69.06-.71.16-.69.05-.71.17-.7v-.71s.16-.69.16-.69l.34-.68.74-.2.72.26.67.04.64.11.64.08.67.02.68-.38.71-.27.68-.34.7-.32.73-.26.72-.29.67-.38.47-.62.42-.6.37-.64.39-.65.21-.72.2-.72.24-.72.2-.72.15-.69-.04-.71v-.68s.02-.73.02-.73l-.54-.53-.35-.62-.39-.6-.27-.68-.49-.53-.42-.58-.53-.48-.42-.59-.57-.44-.51-.49-.4-.62-.53-.48-.67-.32-.51-.5-.51-.51-.54-.47-.59-.4-.56-.45-.47-.56-.65-.34-.55-.45-.52-.49-.61-.38-.45-.58-.56-.44-.62-.37-.46-.56-.7-.37-.59-.48-.71-.32.03.12ZM283.44,58.36l-.36.62-.27.64-.19.68-.36.6-.46.58-.54.57-.71.3-.53.48-.7.17-.71-.02-.64-.28-.63-.28-.66-.27-.41-.6-.63-.34-.47-.71.52-.51.47-.52.49-.51.34-.62.46-.54.45-.55.52-.49.48-.52.43-.56.39-.6.67-.33.71.23.53.48.44.56.44.46.53.45.07.7.25.61.07.11Z"/>
      <path d="M318.77,96.46l-.54-.53-.58-.49-.52-.55-.55-.53-.57-.5-.65-.4-.68-.34-.65-.38-.66-.35-.7-.28-.75-.1-.72-.22-.75-.12-.76-.03-.75-.03-.75.11-.74.06-.76-.03-.69.16-.7.1-.68.2-.71.07-.65.3-.7.12-.67.22-.64.32-.71.15-.57.46-.7.18-.62.34-.58.42-.66.29-.58.41-.58.41-.55.45-.44.57-.56.44-.5.5-.53.47-.37.62-.39.59-.49.52-.35.62-.37.62-.12.72-.27.68-.05.73-.14.71-.16.71-.04.73-.04.73-.05.73.03.73.11.72.32.66.13.72.4.62.13.72.25.68.35.64.25.68.24.69.34.64.41.6.37.62.48.54.49.52.53.48.51.51.58.42.58.42.65.31.58.43.68.23.67.24.66.29.7.14h.72s.69.25.69.25h.72s.71-.12.71-.12l.72.1.71-.12.71-.1.7-.14.71-.08.69-.21.7-.11.67-.22.74-.03.69-.31.73-.2.68-.32.6-.48.71-.26.68-.32.55-.53.67-.34.58-.47.62-.42.57-.49.62-.42.46-.6.52-.5.49-.53.31-.66.5-.54.35-.63.15-.72.41-.61.06-.73.22-.68.09-.71.11-.71.03-.72.02-.72.14-.71-.03-.72-.14-.7-.26-.67-.19-.69-.18-.69-.39-.62-.24-.68-.22-.67-.32-.63-.17-.69-.32-.63-.33-.62-.41-.56-.05-.17ZM297,105.56l.38-.62.38-.63.44-.59.52-.52.49-.55.6-.43.62-.39.65-.24.67-.2.63-.3.6-.37.7-.13.6-.39.7-.12.62-.33.64-.29.68-.2.64-.27.67-.18.7-.02.7-.09.7.05.7.1.69.13.7.12.67.23.62.36.66.27.56.43.53.47.55.46.33.63.21.7.07.74-.11.74-.08.74-.17.74-.32.68-.43.62-.36.65-.36.66-.49.57-.53.47-.56.42-.53.49-.68.22-.62.35-.66.25-.66.26-.66.27-.66.26-.66.26-.67.24-.64.31-.71.15-.64.33-.69.19-.72.05-.72.14h-.73s-.71-.18-.71-.18l-.73-.06-.7-.21-.7-.2-.61-.41-.68-.27-.62-.38-.56-.47-.45-.57-.41-.62-.21-.72-.03-.75.02-.77.29-.71.14-.75.29-.7.08-.15Z"/>
    </g>
    <g>
      <polygon points="52.33 182.36 51.66 182.04 51.08 181.58 50.46 181.18 49.74 180.98 49.13 180.55 48.4 180.41 47.71 180.15 47 179.95 46.26 179.95 45.54 179.74 44.81 179.79 44.08 179.68 43.34 179.69 42.63 179.93 41.9 180.01 41.21 180.25 40.5 180.42 39.83 180.71 39.14 180.97 38.49 181.3 37.83 181.59 37.17 181.88 36.51 182.17 35.95 182.64 35.28 182.93 34.69 183.34 34.12 183.78 33.52 184.2 33.03 184.74 32.51 185.23 31.88 185.62 31.38 186.14 30.92 186.7 30.46 187.26 30.1 187.89 29.54 188.38 29.28 189.08 28.9 189.68 28.44 190.26 28.13 190.91 27.87 191.59 27.66 192.28 27.4 192.96 27.24 193.67 27.21 194.4 27.17 195.12 27.26 195.85 27.29 196.59 27.38 197.33 27.47 198.07 27.52 198.81 27.67 199.54 28.04 200.21 28.26 200.92 28.66 201.55 28.93 202.25 29.43 202.82 29.84 203.44 30.25 204.06 30.63 204.71 31.22 205.19 31.66 205.8 32.27 206.24 32.76 206.82 33.41 207.19 33.94 207.7 34.6 208.02 35.21 208.42 35.81 208.83 36.44 209.2 37.11 209.47 37.8 209.68 38.51 209.83 39.22 209.76 39.96 209.73 40.6 209.34 41.17 208.88 41.79 208.48 42.43 208.1 43.04 207.68 43.64 207.26 44.24 206.81 44.92 206.52 45.62 206.36 46.32 206.41 47.03 206.36 47.72 206.57 48.43 206.56 49.13 206.7 49.84 206.69 50.52 206.54 50.85 206.09 50.57 205.43 50.12 204.88 49.7 204.31 49.26 203.75 48.81 203.2 48.48 202.55 48.03 202 47.63 201.41 47.21 200.83 46.76 200.27 46.27 199.74 45.92 199.1 45.5 198.52 45.06 197.94 44.69 197.33 44.27 196.75 43.81 196.21 43.44 195.59 42.61 195.03 42.04 195.41 41.78 196.15 41.74 196.88 41.52 197.56 41.31 198.24 41.26 198.97 40.89 199.6 40.67 200.28 40.27 200.88 39.81 201.43 39.15 201.76 38.64 202.31 37.94 202.56 37.21 202.59 36.48 202.58 35.77 202.38 35.14 202 34.66 201.44 34.33 200.79 34.06 200.13 33.77 199.43 33.75 198.67 33.62 197.92 33.63 197.17 33.79 196.43 33.88 195.68 34.15 194.97 34.45 194.28 34.92 193.68 35.29 193.03 35.74 192.42 36.39 192.02 36.96 191.53 37.55 191.07 38.14 190.6 38.78 190.19 39.33 189.76 39.88 189.31 40.45 188.91 41.06 188.55 41.65 188.16 42.24 187.79 42.89 187.53 43.5 187.16 44.16 186.92 44.85 186.76 45.56 186.71 46.26 186.75 46.96 186.75 47.64 186.93 48.34 187.05 49.05 187.18 49.72 187.45 50.32 187.85 50.86 188.34 51.22 188.96 51.29 189.66 51.34 190.39 50.97 191.07 50.55 191.71 49.98 192.23 49.44 192.77 48.83 193.24 48.32 193.82 48.18 194.57 48.18 195.24 48.41 195.89 48.81 196.43 49.19 197.01 49.75 197.41 50.29 197.82 50.91 198.12 51.57 198.24 52.28 198.37 52.99 198.52 53.71 198.5 54.44 198.47 55.1 198.19 55.71 197.81 56.24 197.32 56.61 196.71 56.93 196.06 57.06 195.35 57.27 194.66 57.33 193.94 57.31 193.22 57.38 192.5 57.24 191.79 57.23 191.06 57.17 190.34 56.97 189.64 56.71 188.98 56.58 188.27 56.3 187.61 55.85 187.04 55.56 186.39 55.12 185.82 54.76 185.2 54.25 184.7 53.92 184.04 53.38 183.56 52.85 183.09 52.39 182.54 52.33 182.36"/>
      <path d="M78.08,209.23l.12.74.07.71.23.68v.73s.2.68.2.68l.3.67.05.72-.06.72v.73s-.29.68-.29.68l-.39.59-.44.56-.22.69-.42.57-.34.61-.3.64-.41.58-.35.62-.36.61-.4.58-.19.71-.47.55-.27.66-.42.58-.43.58-.18.72-.43.58-.44.57-.34.62-.38.6-.33.63-.33.63-.42.58-.29.65-.27.66-.37.6-.51.55-.56.48-.6.46-.69.32-.76.09-.69.29-.72.2-.58.34-.6.25-.62.3.35.57.58.29.59.39.56.43.67.25.54.48.68.24.58.39.65.29.55.47.61.37.64.3.64.31.62.33.61.36.61.37.67.26.56.46.68.23.51.53.58-.1.17-.83.03-.77-.19-.74-.15-.75-.32-.71v-.77s-.12-.76-.12-.76l.2-.74.31-.69.14-.76.43-.62.3-.69.51-.57.3-.71.47-.59.27-.72.72-.35.36.69-.04.81.12.79.1.74.15.74-.11.75.06.74-.14.74.1.75-.04.75.12.75.06.74-.03.75.3.71.03.75.22.72.22.68.4.62.11.72.4.63.19.7.26.67.39.6.36.63.63.33.68.18.72-.11.72-.16.71-.26.49-.54.25-.64.13-.67.19-.72-.15-.71-.06-.71.12-.71-.12-.71.02-.71.03-.71-.21-.7v-.71s.15-.72.15-.72l-.15-.71.1-.72-.02-.71-.12-.71.13-.71-.09-.71-.14-.71.03-.71.26-.76.75-.26.74.19.78-.03.77.1.77-.13.67-.4.65-.41.58-.5.6-.44.61-.42.61-.42.65-.37.5-.55.37-.57.25-.63.13-.67.11-.67.16-.67.08-.68.14-.68-.1-.7.17-.73-.14-.74.03-.75-.43-.61-.28-.69-.58-.45-.56-.46-.4-.61-.5-.51-.56-.44-.52-.49-.59-.41-.56-.45-.55-.46-.61-.38-.59-.41-.71-.22-.56-.45-.65-.3-.56-.47-.63-.34-.62-.36-.6-.38-.71-.19-.54-.51-.66-.29-.65-.31-.63-.33-.62-.36-.57-.44-.67-.26-.69-.36-.61-.53-.82-.04-.12.11ZM85.4,218.84h.69s.66.26.66.26l.59.38.5.48.58.4.31.63.27.61.1.67-.23.65v.69s-.38.59-.38.59l-.14.69-.55.53-.65.42-.43.66-.74.23-.64.21-.71.03-.69-.15-.62-.35-.61-.35-.64-.29-.52-.47.21-.66.33-.6.4-.56.28-.63.25-.64.48-.52.28-.63.38-.58.33-.6.35-.59.44-.53.11.02Z"/>
      <path d="M134.39,229.72l-.6.38-.65.3-.57.43-.56.43-.54.47-.56.44-.64.35-.41.61-.45.55-.49.52-.36.61-.21.68-.5.56-.25.7-.5.55-.25.7-.42.6-.35.64-.46.57-.26.7-.4.61-.36.63-.43.59-.4.61-.45.58-.44.59-.37.64-.29.69-.36.65-.56.52-.31.68-.37.64-.44.59-.36.64-.5.55-.34.65-.42.6-.33.66-.39.62-.42.59-.45.58-.3.62-.52.45-.47.49-.45.53-.62.31-.49.5-.65.26-.49.51-.58.34-.61.31-.24.63.16.59.68.14.69.08.68.13.66.23.68.18.7.06.67.19.68.15.69.13.68.2.7.1.71.06.66.28.7.07.68.16.69.1.69.1h.98s.07-.76.07-.76l-.31-.63-.23-.68-.53-.51-.22-.69-.4-.59-.05-.71-.11-.73.17-.73.38-.64.5-.53.56-.45.68-.32.75.13.74.04.74.11.75.1.71.23.76.1.68.37.61.48.31.71.12.75.09.76v.77s-.17.68-.17.68l-.39.59-.31.61-.29.64-.5.49-.3.66.18.65.52.5.72.08.69.15.68.27h.73s.7.12.7.12l.72.15.7.26.71.2.74.1.74.11.7.29.75.04.71.24.74.06.73.15.57-.4-.1-.71-.36-.66-.35-.67-.48-.56-.39-.61-.33-.65-.4-.61-.27-.68-.15-.71-.07-.71-.17-.7-.02-.72-.06-.72-.27-.7-.02-.73v-.73s-.09-.72-.09-.72l-.1-.72-.15-.71-.03-.72-.02-.72-.07-.71-.13-.71v-.72s-.18-.71-.18-.71v-.73s-.21-.7-.21-.7l-.06-.72-.04-.72-.1-.72-.04-.73-.09-.72-.08-.72.02-.73-.12-.72-.2-.71-.08-.72v-.73s-.11-.72-.11-.72l-.13-.71-.08-.72.05-.74-.28-.7-.03-.72-.02-.73-.09-.72-.17-.7-.19-.7-.13-.69-.31-.32-.11.02ZM126.56,248.91l.34-.65.27-.69.38-.63.46-.59.45-.59.25-.72.33-.66.39-.63.18-.05.26.73-.03.76.09.75.09.75.16.75-.04.76.08.75.03.72-.72.05-.73-.28-.76-.14-.77-.11-.7-.26-.02-.02Z"/>
      <path d="M189.95,244.69l.21-.72-.14-.74v-.65s-.11-.63-.11-.63l-.26-.6-.1-.63v-.75s-.31-.69-.31-.69l-.12-.72-.16-.72-.15-.72-.02-.75-.16-.72-.18-.72-.36-.5-.42-.43-.76-.07-.76.08-.73.23-.74.19-.69.33-.74.18-.72.27-.71.11-.72.04-.7.18-.72-.06-.71.11-.71.13-.71.03-.71-.03-.71.09-.71-.03-.72-.09-.71.17-.71.05-.73-.11-.72.22-.73-.05-.74-.03-.73.12-.74-.07-.72.21h-.73s-.66,0-.66,0l-.6.25-.2.44.21.61.52.45.52.44.47.49.46.52.5.47.52.47.36.6.13.68.2.65v.73s.14.72.14.72l-.11.73.19.72-.03.73.04.73.09.72.07.73.03.73-.06.73.13.72-.06.73.09.73-.04.74.03.73v.73s.22.72.22.72l-.07.74.04.73.12.73.05.73-.04.73.06.73-.09.73.15.72-.11.75-.2.72-.3.7-.51.54-.5.54-.38.65-.46.57-.61.54-.37.72.19.58.78.21.72-.12h.72s.72-.13.72-.13l.73.06.72-.12.73.07.72-.08.72-.05h.73s.73.06.73.06l.73-.12h.73s.73-.08.73-.08h.73s.72-.11.72-.11l.72-.02.73.07.9-.16.31-.78-.53-.5-.48-.53-.46-.56-.52-.5-.49-.53-.51-.51-.38-.61-.34-.63-.21-.7.06-.76-.08-.74-.23-.72.03-.75v-.75s-.14-.74-.14-.74l.12-.74.06-.74.06-.76.54-.59.66-.44.79-.08.77.03.77.12.75.22.65.42.59.49.52.57.58.5.59.49.63.56.65.55.49-.51v-.7s.12-.71.12-.71v-.71s-.15-.71-.15-.71l-.1-.71-.04-.71v-.71s-.14-.71-.14-.71v-.72s-.02-.72-.02-.72v-.72s.11-.71.11-.71l-.1-.72.15-.71.54-.47.62-.38.74.03.7-.24.72-.18.07-.13ZM181.23,248.08l-.76.11-.77-.04h-.76s-.76.03-.76.03l-.69-.29-.36-.86v-.7s.02-.69.02-.69l-.06-.69-.17-.69.06-.7-.04-.7v-.69s0-.69,0-.69l.19-.77.69-.5.69.06.68-.14.7.09h.69s.69-.02.69-.02l.7-.07.7.45.49.65.36.74.49.44.36.54.37.52-.13.62-.4.6-.4.62-.46.57-.47.56-.51.53-.48.55-.6.42-.07.13Z"/>
      <polygon points="222.35 232.74 222.55 232.09 222.77 231.43 223.06 230.81 223.4 230.2 223.7 229.58 224.14 229.03 224.46 228.41 224.57 227.71 224.07 227.26 223.37 227.42 222.73 227.75 222.01 227.76 221.35 228.01 220.68 228.26 219.98 228.37 219.33 228.63 218.64 228.77 217.98 229.03 217.27 229.12 216.62 229.39 215.92 229.51 215.21 229.63 214.55 229.88 213.88 230.11 213.18 230.21 212.54 230.52 211.84 230.67 211.15 230.79 210.49 231.04 210.11 231.63 210.67 232.21 211.28 232.65 211.97 232.95 212.62 233.3 213.23 233.76 213.91 234.09 214.39 234.68 215.03 235.11 215.32 235.81 215.53 236.5 215.82 237.17 215.96 237.88 216.32 238.53 216.43 239.25 216.59 239.96 216.9 240.62 217.13 241.31 217.25 242.03 217.46 242.72 217.71 243.4 217.93 244.09 218.19 244.77 218.42 245.46 218.52 246.19 218.81 246.87 218.94 247.59 219.13 248.29 219.45 248.96 219.59 249.68 219.78 250.38 219.96 251.08 220.11 251.8 220.48 252.45 220.67 253.15 220.81 253.85 221.02 254.73 220.83 255.6 220.63 256.32 220.21 256.94 219.98 257.66 219.57 258.29 219.31 258.99 218.93 259.63 218.7 260.4 219.39 260.58 220.1 260.41 220.84 260.4 221.54 260.18 222.25 260.01 222.96 259.85 223.62 259.54 224.35 259.43 225.07 259.29 225.73 258.93 226.44 258.76 227.19 258.71 227.85 258.39 228.54 258.14 229.26 257.99 229.97 257.82 230.67 257.63 231.35 257.35 232.05 257.14 232.76 256.97 233.22 256.64 232.94 256.03 232.34 255.64 231.75 255.25 231.1 254.96 230.46 254.65 229.85 254.29 229.3 253.84 228.74 253.43 228.26 252.81 227.94 252.11 227.59 251.48 227.44 250.78 227.24 250.09 227.04 249.41 226.83 248.73 226.64 248.04 226.43 247.36 226.19 246.68 225.89 246.03 225.67 245.35 225.53 244.64 225.25 243.99 225.05 243.3 224.81 242.62 224.67 241.91 224.38 241.25 224.24 240.54 224.01 239.86 223.9 239.14 223.58 238.49 223.42 237.78 223.2 237.09 223.06 236.38 222.86 235.69 222.83 234.97 222.51 234.3 222.39 233.6 222.36 232.89 222.35 232.74"/>
      <path d="M263.25,224.18l-.38-.55.02-.68.16-.65.1-.66.15-.68-.09-.71.06-.7.24-.67.02-.7.17-.68.09-.69v-.7s.02-.71.02-.71l.23-.68.05-.7-.02-.71.09-.69.14-.68.16-.67.19-.67.09-.69.28-.65.1-.69-.06-.71.03-.68-.24-.6-.49.06-.6.08-.57.45-.57.44-.65.32-.55.47-.72.2-.54.5-.63.35-.61.39-.56.47-.71.21-.54.49-.59.41-.68.26-.61.38-.55.48-.7.22-.59.4-.57.43-.65.31-.56.46-.63.35-.67.3-.54.49-.58.43-.61.38-.71.22-.58.42-.56.47-.68.26-.59.41-.53.51-.68.25-.57.44-.6.44v.62s.6.45.6.45l.71.28.78.02.72.23.72.23.68.34.7.27.53.47.55.48.43.57.39.6.4.59.23.71.46.55.48.54.33.64.28.67.51.53.33.64.4.59.39.6.24.69.51.53.22.71.39.61.42.59.46.57.29.67.32.64.46.56.3.66.33.64.46.56.38.61.45.56.29.72.22.74.02.77-.27.73v.77s-.04.76-.04.76l-.26.72v.66s-.06.64-.06.64l-.11.69.69.08.52-.42.7-.19.5-.54.67-.25.6-.36.53-.47.69-.2.53-.48.59-.38.6-.38.68-.24.59-.39.51-.51.7-.21.54-.47.55-.44.68-.25.57-.41.57-.41.39-.67-.67-.43-.62-.41-.71-.17-.73-.08-.65-.37-.74-.08-.69-.26-.58-.53-.6-.49-.43-.64-.46-.61-.37-.67-.47-.62-.24-.61-.29-.58-.16-.61.22-.53.76-.13.76.27.7.27.65.36.64.38.71.25.68.31.61.44.64.38.73.19.58.5.7.24.75.08.69.25.7.32.7-.04.68.19h.71s.65.31.65.31h.71s.7.07.7.07l.71.12.71-.12.62-.34.59-.37.41-.6.11-.67.18-.67-.12-.68-.25-.62-.33-.59-.63-.26-.62-.37-.55-.5-.71-.2-.57-.46-.68-.25-.68-.25-.58-.43-.71-.2-.64-.34-.66-.3-.62-.38-.62-.39-.65-.33-.67-.28-.68-.27-.61-.39-.59-.43-.74-.13-.66-.38-.75-.17-.76-.02-.77-.08-.76.1-.71-.04h-.12ZM255.59,214.63l.75.07.75.15.72.24.65.29.38.52-.12.7v.71s-.16.7-.16.7l-.07.71.07.73-.09.71-.09.71-.29.68-.03.72-.15.71-.12.7-.25-.16-.42-.71-.39-.73-.57-.62-.25-.69-.37-.61-.47-.55-.24-.68-.04-.68.06-.75.03-.76.13-.75.34-.7.23-.62.03-.02Z"/>
      <path d="M310.41,195.23l.48.49.49.52.35.63.42.58.57.42.6.29.7-.73.43-.55.41-.57.48-.53.38-.59.31-.65.55-.47.28-.67.37-.61.49-.53.44-.56.44-.56.3-.65.4-.58.39-.59.38-.6-.22-.66-.71-.1-.7.14-.69.15-.76.1-.77.04-.77-.02-.75.05-.73.09-.67-.32-.72-.06-.73-.04-.67-.31-.7-.15-.7-.17-.72-.1-.67-.29-.71-.12-.65-.32h-.74s-.69-.2-.69-.2l-.66-.31-.69-.2-.7-.15-.65-.33-.74-.04-.69-.22-.69-.22-.67-.3-.73-.09-.67-.28-.71-.17-.67-.29-.68-.27-.7-.2-.71-.17-.72-.14-.69-.24-.68-.26-.73-.08-.64-.39-.72-.12-.68-.24-.68-.24-.72-.11-.68-.24-.69-.22-.69-.21-.73-.03-.68-.21-.52.44-.02.76.27.72.17.73.1.76.16.74.09.76.45.63.2.74.5.57.4.64.6.47.35.68.54.47.41.58.46.54.32.65.39.59.56.46.28.67.49.52.37.61.48.53.4.58.41.58.4.59.49.53.37.61.39.6.49.53.38.62.49.53.44.57.34.64.43.57.42.58.43.57.39.6.49.52.38.61.42.57.47.54.3.66.25.67.23.68.21.63.15.66.27.65.12.68.04.7.17.67.3.63.5.39.5-.3.42-.56.51-.5.38-.6.45-.55.36-.61.44-.55.33-.64.42-.57.39-.6.41-.59.49-.53.3-.66.39-.6.43-.57.48-.53.29-.66.41-.92-.57-.29h-.73s-.74,0-.74,0l-.75.02-.74.07-.74.17-.76-.08-.65-.29-.51-.48-.47-.49-.32-.6-.12-.66v-.67s.13-.66.13-.66l.16-.68.38-.58.51-.5.24-.68.46-.53.51-.49.65-.28.61-.31.68-.05.69.02.63.29.66.23.61.37.04.22ZM302,192.36l-.37.59-.35.61-.45.54-.43.55-.54.66-.5-.38-.5-.46-.38-.56-.34-.58-.33-.59-.48-.52-.35-.62-.41-.57-.46-.53.03-.05.69.1.65.2.61.37.68.12.66.21.68.14.62.31.69.1.59.34v.04Z"/>
    </g>
    <polygon points="31.31 151.09 31.11 150.34 30.86 149.64 30.37 148.87 29.89 148.31 29.13 147.76 28.38 147.4 27.67 147.2 26.72 147.16 25.99 147.26 25.14 147.57 24.49 147.92 23.82 148.55 23.34 149.11 22.94 149.86 22.69 150.74 22.51 152.28 22.61 153.12 22.82 153.86 23.11 154.6 23.48 155.21 24.1 155.84 24.64 156.3 25.39 156.67 26.23 156.88 27.01 156.98 27.85 156.85 28.61 156.61 29.25 156.3 29.95 155.73 30.43 155.19 30.86 154.41 31.14 153.69 31.33 152.91 31.39 152.16 31.31 151.09"/>
  </g>
</svg>