<?xml version="1.0" encoding="UTF-8"?>
<svg id="a" data-name="Layer 1" xmlns="http://www.w3.org/2000/svg" viewBox="0 0 308 254">
  <defs>
    <style>
      .b {
        fill: #242424;
      }
    </style>
  </defs>
  <g>
    <polygon class="b" points="219.01 187.2 218.51 187.62 217.84 187.59 217.16 187.61 216.49 187.58 215.81 187.6 215.13 187.64 214.45 187.64 213.77 187.59 213.1 187.69 212.42 187.66 211.74 187.69 211.06 187.59 210.38 187.71 209.71 187.62 209.03 187.72 208.35 187.6 207.66 187.64 206.98 187.68 206.3 187.7 205.61 187.66 204.93 187.71 204.24 187.59 203.56 187.68 202.87 187.72 202.19 187.66 201.51 187.72 200.83 187.6 200.15 187.67 199.46 187.65 198.78 187.61 198.11 187.56 197.41 187.63 196.93 187.11 196.45 186.62 195.91 186.19 195.44 185.68 194.9 185.26 194.5 184.67 193.94 184.28 193.52 183.72 193.03 183.24 192.54 182.77 192.03 182.31 191.57 181.8 191.06 181.35 190.59 180.85 190.13 180.33 189.65 179.84 189.2 179.31 188.63 178.91 188.2 178.36 187.66 177.93 187.2 177.42 186.7 176.95 186.25 176.43 185.83 175.87 185.28 175.47 184.86 174.91 184.32 174.48 183.89 173.94 183.38 173.47 182.91 172.96 182.44 172.45 182 171.92 181.5 171.45 180.96 171.02 180.52 170.48 179.98 170.04 179.53 169.52 179.04 169.03 178.56 168.52 178.07 168.04 177.6 167.52 177.07 167.07 176.62 166.53 176.18 165.98 175.64 165.54 175.16 165.04 174.73 164.47 174.15 164.08 173.68 163.56 173.27 162.98 172.73 162.54 172.25 162.04 171.74 161.56 171.27 161.05 170.81 160.51 170.27 160.07 169.83 159.53 169.33 159.05 168.85 158.55 168.33 158.09 167.85 157.59 167.42 157.03 166.85 156.62 166.36 156.13 165.93 155.58 165.46 155.08 164.94 154.61 164.46 154.13 164.01 153.61 163.46 153.2 163.02 152.7 162.57 152.19 162.1 151.7 161.64 151.21 161.16 150.74 160.69 150.27 160.25 149.75 159.71 149.35 159.25 148.86 158.87 148.32 158.57 147.43 158.58 146.73 158.57 146.04 158.5 145.34 158.44 144.65 158.32 143.96 158.27 143.26 158.23 142.56 158.01 141.89 158.02 141.18 157.82 140.51 157.64 139.83 157.54 139.14 157.49 138.43 157.2 137.78 157.13 137.08 156.99 136.39 156.72 135.75 156.57 135.06 156.39 134.38 156.14 133.73 156 133.04 155.71 132.41 155.55 131.73 155.37 131.06 155.06 130.41 154.88 129.71 154.68 129.02 154.34 128.38 154.11 127.7 153.91 127.01 153.6 126.36 153.26 125.73 152.99 125.07 152.74 124.39 152.47 123.73 152.1 123.12 151.79 122.48 151.45 121.85 151.12 121.22 150.79 120.59 150.53 119.92 150.18 119.29 149.79 118.7 149.44 118.08 149.08 117.46 148.67 116.89 148.36 116.24 147.94 115.67 147.66 115 147.25 114.42 146.85 113.83 146.55 113.17 146.19 112.56 145.74 112 145.35 111.4 144.99 110.77 145.15 110.57 145.83 110.54 146.52 110.43 147.21 110.49 147.9 110.43 148.58 110.54 149.27 110.44 149.97 110.56 150.66 110.42 151.34 110.57 152.02 110.56 152.7 110.45 153.38 110.5 154.06 110.51 154.74 110.58 155.42 110.51 156.1 110.45 156.78 110.58 157.46 110.52 158.15 110.47 158.82 110.47 159.5 110.55 160.18 110.54 160.86 110.44 161.55 110.53 162.23 110.48 162.91 110.49 163.59 110.57 164.28 110.51 164.97 110.56 165.65 110.52 166.34 110.44 167.02 110.51 167.71 110.53 168.39 110.48 169.08 110.43 169.77 110.48 170.45 110.43 171.14 110.41 171.82 110.42 172.5 110.43 173.19 110.51 173.87 110.44 174.55 110.45 175.24 110.49 175.92 110.48 176.61 110.42 177.29 110.48 177.97 110.54 178.66 110.46 179.34 110.6 180.02 110.48 180.68 110.6 181.19 111.07 181.75 111.49 182.28 111.94 182.69 112.53 183.25 112.96 183.73 113.48 184.22 113.98 184.67 114.53 185.12 115.06 185.64 115.54 186.13 116.04 186.61 116.56 187.05 117.12 187.55 117.62 187.97 118.19 188.48 118.68 188.88 119.27 189.42 119.72 189.9 120.24 190.38 120.75 190.82 121.29 191.23 121.9 191.48 122.57 191.54 123.31 191.14 123.93 190.68 124.45 190.29 125.04 189.78 125.52 189.28 126 188.87 126.58 188.39 127.08 187.88 127.56 187.47 128.13 187 128.65 186.45 129.08 185.98 129.59 185.51 130.12 185.05 130.65 184.64 131.22 184.07 131.64 183.68 132.23 183.12 132.65 182.72 133.24 182.24 133.74 181.75 134.24 181.24 134.72 180.75 135.21 180.34 135.79 179.9 136.33 179.36 136.78 179.01 137.35 178.61 137.89 179.04 138.37 179.72 138.39 180.39 138.46 181.07 138.46 181.75 138.54 182.43 138.52 183.11 138.63 183.79 138.56 184.47 138.62 185.15 138.64 185.83 138.6 186.51 138.67 187.19 138.66 187.87 138.64 188.55 138.73 189.23 138.6 189.91 138.64 190.59 138.64 191.27 138.75 191.96 138.7 192.64 138.68 193.32 138.73 194 138.69 194.67 138.82 195.36 138.75 196.04 138.78 196.71 138.88 197.39 138.95 197.96 139.31 198.35 139.85 198.57 140.5 198.62 141.21 198.75 141.9 198.68 142.6 198.68 143.3 198.71 144 198.79 144.7 198.72 145.41 198.75 146.11 198.82 146.81 198.82 147.51 198.82 148.21 198.84 148.91 198.75 149.61 198.76 150.31 198.87 151.01 198.78 151.71 198.77 152.42 198.81 153.15 198.76 153.87 198.61 154.59 198.27 155.24 198.06 155.95 197.66 156.57 197.43 157.27 197.13 157.93 196.76 158.56 196.61 159.28 196.56 159.99 196.4 160.71 196.53 161.43 196.53 162.15 196.57 162.87 196.73 163.58 196.88 164.28 197.09 164.97 197.27 165.66 197.45 166.36 197.68 167.04 197.94 167.71 198.09 168.42 198.39 169.07 198.57 169.78 198.9 170.42 199.17 171.08 199.37 171.78 199.75 172.38 200.01 173.05 200.26 173.74 200.66 174.34 200.97 175 201.36 175.6 201.71 176.24 202.25 176.71 202.7 177.28 203.27 177.7 203.85 178.1 204.47 178.43 205.15 178.55 205.84 178.68 206.53 178.64 207.23 178.62 207.9 178.42 208.59 178.26 209.25 178.01 209.82 177.72 210.43 177.53 211.02 177.31 211.64 177.14 212.27 177.21 212.89 177.31 213.48 177.67 214.13 177.92 214.62 178.43 215.16 178.87 215.67 179.35 216.09 179.92 216.47 180.51 216.95 181.04 217.19 181.72 217.57 182.32 217.87 182.97 218.11 183.65 218.34 184.32 218.54 185.01 218.74 185.7 218.91 186.4 219.09 187.1 219.01 187.2"/>
    <polygon class="b" points="182.02 187.49 181.83 187.75 181.15 187.78 180.46 187.8 179.78 187.75 179.1 187.74 178.41 187.77 177.73 187.8 177.04 187.75 176.35 187.77 175.66 187.75 174.99 187.76 174.31 187.74 173.64 187.77 172.96 187.79 172.29 187.75 171.62 187.75 170.95 187.76 170.28 187.76 169.61 187.75 168.93 187.79 168.26 187.78 167.58 187.79 166.91 187.76 166.24 187.77 165.57 187.8 164.89 187.79 164.21 187.77 163.53 187.79 162.86 187.77 162.18 187.77 161.5 187.79 160.82 187.81 160.14 187.75 159.46 187.81 158.78 187.75 158.1 187.75 157.42 187.78 156.75 187.77 156.07 187.75 155.4 187.75 154.72 187.74 154.04 187.79 153.37 187.73 152.69 187.79 152.02 187.73 151.35 187.74 151.21 187.17 151.4 186.57 151.62 185.98 151.82 185.29 152.07 184.63 152.3 183.95 152.51 183.27 152.8 182.61 153.02 181.93 153.32 181.29 153.58 180.62 153.87 179.97 154.13 179.3 154.42 178.65 154.66 177.97 154.98 177.33 155.29 176.69 155.59 176.03 155.86 175.37 156.16 174.72 156.49 174.08 156.83 173.45 157.12 172.8 157.46 172.17 157.78 171.53 158.13 170.9 158.47 170.28 158.84 169.66 159.19 169.04 159.53 168.41 159.86 167.78 160.26 167.19 160.59 166.56 160.97 165.96 161.32 165.33 161.74 164.76 162.11 164.15 162.47 163.54 162.89 162.97 163.27 162.37 163.68 161.8 164.06 161.21 164.54 160.63 165.18 160.37 165.75 160.79 166.22 161.3 166.73 161.77 167.21 162.28 167.69 162.78 168.18 163.27 168.65 163.79 169.14 164.28 169.64 164.78 170.1 165.31 170.59 165.82 171.09 166.31 171.56 166.83 172.08 167.31 172.55 167.82 173.01 168.36 173.48 168.86 173.69 169.46 173.39 170.04 173 170.54 172.51 171.04 172.04 171.55 171.57 172.07 171.1 172.58 170.62 173.09 170.15 173.61 169.71 174.16 169.23 174.67 168.77 175.2 168.27 175.71 167.81 176.23 167.36 176.78 166.87 177.26 166.4 177.84 166.14 178.54 166.48 179.18 167.15 179.47 167.86 179.54 168.58 179.59 169.28 179.44 169.96 179.33 170.61 179.09 171.25 178.85 171.89 178.6 172.52 178.32 173.16 178.05 173.8 177.8 174.46 177.63 175.13 177.55 175.79 177.7 176.43 177.93 177 178.31 177.56 178.72 178.03 179.24 178.52 179.73 178.91 180.32 179.32 180.89 179.7 181.48 180.03 182.11 180.39 182.72 180.66 183.38 180.93 184.04 181.21 184.7 181.45 185.37 181.69 186.04 181.86 186.73 182.04 187.42 182.02 187.49"/>
    <path class="b" d="M154.78,141.1l-.04-.72-.26-.67v-.73s-.32-.66-.32-.66l-.1-.71-.24-.67-.11-.71-.08-.72-.33-.65-.21-.68-.22-.68-.17-.69-.31-.64-.07-.73-.33-.63-.14-.71-.34-.63-.27-.65-.33-.62-.22-.67-.19-.69-.35-.62-.29-.64-.36-.6-.23-.67-.28-.65-.42-.57-.18-.71-.38-.59-.29-.64-.44-.55-.37-.6-.21-.7-.52-.5-.28-.65-.34-.61-.31-.63-.44-.55-.44-.54-.3-.65-.27-.67-.55-.47-.21-.71-.52-.49-.33-.63-.31-.64-.38-.6-.45-.55-.34-.63-.49-.51-.48-.52-.35-.62-.4-.58-.43-.56-.33-.64-.32-.64-.42-.56-.46-.54-.43-.56-.41-.58-.31-.65-.5-.51-.25-.69-.51-.5-.35-.62-.38-.6-.43-.56-.34-.63-.28-.67-.42-.57-.26-.68-.37-.6-.48-.54-.26-.67-.34-.62-.39-.6-.3-.64-.3-.65-.28-.65-.32-.63-.22-.68-.27-.66-.25-.67-.28-.65-.18-.7-.22-.68-.29-.65-.25-.67-.06-.73-.32-.65-.18-.69v-.74s-.29-.67-.29-.67l-.06-.72-.17-.7-.06-.72-.22-.69.13-.74-.21-.7.1-.73-.1-.71-.15-.71-.06-.72.04-.73.04-.73-.22-.71.03-.73.08-.73.03-.72-.09-.72-.11-.72-.03-.73.22-.73v-.73s-.16-.73-.16-.73l.06-.73v-.73s.18-.72.18-.72l-.07-.73.16-.72v-.74s-.05-.74-.05-.74l.06-.74-.21-.74-.71.03-.59.33-.54.41-.44.54-.61.32-.48.49-.46.51-.41.57-.57.39-.49.47-.46.51-.34.62-.53.44-.37.59-.47.5-.34.61-.52.47-.29.65-.4.56-.35.59-.39.57-.37.59-.33.61-.42.55-.59.34-.61-.28-.39-.54-.41-.52-.53-.41-.29-.64-.52-.43-.54-.39-.46-.47-.46-.47-.45-.52-.48-.49-.59-.33-.53-.42-.56-.38-.52-.44-.56-.38-.55-.41-.58-.35-.63-.24-.64-.21-.55-.43-.68-.09-.56-.41-.65-.18-.59-.35-.66-.12-.64-.19-.67-.05-.66-.1-.64-.19-.66-.04h-.58s-.58.15-.58.15l-.45.47v.75s-.36.64-.36.64l.02.73-.22.68-.12.7-.02.71.05.72-.03.71-.22.7.11.71.04.71.15.7v.71s.06.7.06.7l.07.7.03.71.14.69.16.69.12.7.18.69.2.68.25.66.17.69.43.59.12.72.42.58.22.68.44.56.14.73.35.58-.44.46-.48.42-.6.19-.66.1-.64.19-.63.21-.67.09-.62.26-.58.37-.64.21-.58.36-.68.13-.59.34-.59.34-.59.34-.56.39-.55.4-.63.26-.45.56-.6.31-.62.3-.53.43-.39.6-.61.33-.37.62-.49.47-.19.52.67.27.71-.12.7-.05.71.05.69-.08h.68s.67.14.67.14l.68.04.68-.09.66.18.67.05.69-.07.67.08.67.12.64.29.7-.08.64.3h.69s.67.12.67.12l.65.2.64.25.67.11.65.19.62.32.67.12.63.26.62.3.64.22.68.13.64.25.6.34.58.39.68.15.56.43.6.33.61.3.69.14.54.44.56.41.62.29.61.31.61.31.48.53.64.27.54.43.5.49.58.37.52.45.58.38.51.48.5.48.59.36.48.5.62.33.38.62.5.48.53.45.42.57.55.43.46.52.37.61.6.39.34.63.45.53.4.58.49.5.47.52.33.63.34.62.45.54.34.61.31.64.52.5.18.72.48.53.22.7.48.55.17.73.44.57.27.67.36.62.29.66.36.62.29.65.35.62.26.67.19.7.28.66.34.63.29.66.2.69.13.72.4.62.03.75.42.62.09.72.07.73.37.65.08.7.2.67.14.68v.71s.14.68.14.68l.11.69.27.66-.09.73.25.67.14.69.11.7-.06.72.24.68-.05.72.19.69.02.71-.09.71.09.7.07.71.02.71-.07.71v.71s-.23.69-.23.69l.11.72-.1.7-.18.68-.13.69-.11.7-.13.7-.22.67-.39.6-.18.68-.26.65-.33.61-.35.61-.47.51-.27.68-.53.45-.4.58-.57.43-.61.35-.63.29-.63.28-.6.37-.63.32-.72-.04-.67.15h-.69s-.69.02-.69.02h-.69s-.69-.07-.69-.07l-.64-.29-.64-.24-.7-.12-.61-.36-.52-.5-.58-.4-.56-.44-.35-.66-.58-.45-.36-.63-.4-.61-.13-.75-.33-.64-.16-.71-.25-.69.03-.74-.11-.72.09-.72-.05-.74.32-.66.19-.68.15-.7.31-.64.18-.7.37-.61.39-.59.49-.5.43-.57.48-.53.68-.26.51-.51.61-.36.62-.34.7-.13.67-.21.7-.05.68-.21.7.12h.69s.69.01.69.01l.71-.06.67.24.68.13.64.3.66.22.68.18.47-.51-.02-.74.15-.76-.14-.74-.06-.75v-.74s-.27-.7-.27-.7v-.72s-.1-.71-.1-.71v-.73s-.32-.67-.32-.67l-.11-.71-.06-.72-.06-.72-.25-.67-.14-.7-.16-.7-.22-.68-.23-.68-.11-.72-.35-.64-.26-.67-.14-.71-.18-.7-.32-.65-.35-.63-.11-.73-.4-.61-.11-.74-.32-.64-.39-.61-.22-.69-.34-.63-.37-.61-.23-.69-.51-.53-.16-.74-.51-.52-.34-.63-.35-.62-.35-.62-.43-.56-.47-.53-.43-.56-.39-.6-.44-.55-.52-.47-.48-.5-.61-.35-.68-.14-.69-.05-.69.05-.68.05-.68.13-.7-.04h-.7s-.67.27-.67.27l-.71-.06-.66.25-.7.03-.66.22-.66.23-.69.1-.65.27-.71.04-.67.18-.61.39-.62.34-.7.13-.6.38-.7.13-.64.3-.55.45-.66.23-.57.4-.64.27-.55.43-.63.29-.5.51-.62.31-.55.43-.6.35-.47.54-.54.44-.58.39-.53.45-.48.52-.45.55-.58.4-.39.6-.55.43-.38.61-.54.46-.4.59-.51.49-.43.56-.39.59-.33.63-.5.51-.35.62-.44.56-.27.67-.31.64-.42.57-.2.71-.38.6-.39.6-.19.7-.32.63-.39.6-.13.72-.22.68-.35.63-.11.72-.38.63-.18.69-.17.7-.06.73-.18.69-.18.69-.2.68-.17.69.03.73-.19.69v.72s-.29.68-.29.68l.16.74-.09.71-.11.71-.16.71.02.72.02.72.17.71-.03.72-.08.72v.72s.08.71.08.71l.24.69.1.71-.04.73.22.69v.73s.22.68.22.68v.73s.15.7.15.7l.23.68.07.72.35.64.2.68v.74s.25.67.25.67l.2.69.42.6.22.68.27.66.24.67.25.66.33.63.16.71.4.59.34.62.34.62.24.68.36.61.37.6.35.62.42.57.41.57.37.6.44.55.46.53.47.52.52.47.5.49.35.64.62.35.42.58.55.43.5.49.5.5.55.42.5.5.56.42.64.3.46.56.59.37.66.26.46.58.6.35.59.37.63.29.55.44.62.31.65.23.64.26.56.43.64.25.66.2.61.33.62.29.62.31.63.28.67.15.66.17.69.07.62.33.66.17h.7s.66.17.66.17l.66.19.68.05h.68s.67.14.67.14l.68.07.68.06.68-.05.67.25.68-.21.68.14h.68s.68-.05.68-.05l.67-.2.69.15.66-.24h.69s.67-.16.67-.16l.67-.1.7.07.64-.28.7.02.62-.39.69-.02.68-.08.66-.21.6-.4.67-.13.68-.12.62-.29.61-.32.63-.26.66-.19.65-.21.65-.22.52-.51.69-.15.58-.38.62-.31.6-.34.59-.36.52-.48.56-.41.54-.44.64-.29.48-.52.65-.29.5-.49.47-.52.56-.41.47-.52.4-.59.56-.42.56-.42.43-.56.4-.59.43-.55.5-.5.42-.56.34-.62.48-.51.3-.65.36-.6.52-.5.21-.7.46-.54.29-.65.26-.67.34-.62.27-.66.38-.6.38-.6.17-.7.3-.64.18-.69.23-.67.25-.67.14-.7.29-.66.11-.71.27-.66.12-.71.09-.71.16-.7.1-.71.22-.69.13-.7.02-.72-.07-.73.17-.7.08-.71.04-.71.05-.71.03-.72.06-.72-.02-.72-.1-.71.07-.72-.19-.71-.02-.71.03-.72-.04-.72-.08-.71-.27-.68-.07-.71-.14-.7-.02-.73-.09-.17Z"/>
    <polygon class="b" points="230.9 122.87 231.33 123.41 231.82 123.89 232.23 124.45 232.7 124.95 233.17 125.44 233.63 125.95 234.08 126.46 234.57 126.94 235.02 127.47 235.45 127.99 235.93 128.49 236.43 128.96 236.9 129.47 237.37 129.97 237.8 130.52 238.34 130.96 238.78 131.49 239.27 131.98 239.71 132.51 240.16 133.02 240.65 133.51 241.08 134.05 241.57 134.53 242 135.07 241.8 135.27 241.1 135.27 240.41 135.31 239.72 135.32 239.03 135.32 238.34 135.29 237.65 135.35 236.96 135.33 236.27 135.33 235.58 135.4 234.89 135.36 234.2 135.35 233.5 135.42 232.8 135.42 232.11 135.44 231.41 135.46 230.72 135.42 230.02 135.5 229.32 135.43 228.63 135.5 227.94 135.52 227.26 135.53 226.56 135.53 225.92 135.69 225.8 136.36 225.76 137.09 225.73 137.79 225.77 138.48 225.76 139.17 225.75 139.87 225.71 140.56 225.7 141.25 225.65 141.95 225.69 142.65 225.67 143.35 225.61 144.05 225.65 144.75 225.62 145.45 225.57 146.15 225.62 146.85 225.61 147.55 225.61 148.25 225.53 148.95 225.57 149.65 225.51 150.33 225.59 151.11 225.55 151.9 225.37 152.57 224.9 152.08 224.37 151.66 223.87 151.2 223.43 150.67 222.93 150.21 222.5 149.68 222 149.21 221.5 148.74 221.01 148.28 220.56 147.75 220.08 147.27 219.58 146.8 219.11 146.29 218.64 145.78 218.13 145.32 217.7 144.78 217.2 144.3 216.69 143.85 216.25 143.31 215.74 142.85 215.31 142.3 214.83 141.83 214.34 141.32 213.73 140.95 213.15 141.34 212.66 141.86 212.19 142.37 211.7 142.85 211.19 143.32 210.74 143.85 210.28 144.37 209.77 144.84 209.25 145.3 208.78 145.82 208.3 146.32 207.8 146.81 207.3 147.29 206.81 147.8 206.32 148.29 205.89 148.85 205.39 149.34 204.91 149.84 204.37 150.27 203.93 150.81 203.37 151.39 202.76 151.91 202.14 152.42 201.95 151.81 201.89 151.18 201.95 150.55 201.9 149.91 201.92 149.19 201.91 148.47 201.82 147.75 201.9 147.03 201.88 146.31 201.84 145.58 201.82 144.86 201.84 144.14 201.8 143.42 201.78 142.69 201.74 141.97 201.75 141.24 201.71 140.52 201.74 139.79 201.75 139.06 201.72 138.34 201.7 137.61 201.68 136.9 201.65 136.05 201.16 135.52 200.47 135.48 199.78 135.49 199.09 135.51 198.41 135.45 197.72 135.46 197.03 135.47 196.34 135.4 195.65 135.47 194.96 135.4 194.27 135.44 193.58 135.39 192.88 135.37 192.18 135.38 191.49 135.39 190.79 135.39 190.1 135.37 189.41 135.29 188.72 135.27 188.03 135.34 187.38 135.31 186.73 135.22 186.08 135.29 185.47 135.11 185.95 134.6 186.37 134.02 186.83 133.49 187.33 133 187.83 132.51 188.26 131.96 188.72 131.43 189.21 130.92 189.71 130.44 190.14 129.88 190.63 129.38 191.1 128.85 191.59 128.34 192.09 127.83 192.55 127.29 193.07 126.82 193.56 126.31 193.99 125.75 194.47 125.23 194.99 124.75 195.43 124.2 195.92 123.69 196.38 123.17 196.3 122.46 195.82 121.94 195.34 121.44 194.88 120.9 194.46 120.33 193.98 119.82 193.45 119.36 193 118.81 192.52 118.3 192.04 117.8 191.6 117.25 191.12 116.72 190.66 116.19 190.15 115.7 189.66 115.19 189.17 114.69 188.67 114.19 188.24 113.63 187.75 113.12 187.3 112.57 186.77 112.1 186.37 111.51 185.88 111.01 185.88 110.37 186.7 110.35 187.38 110.36 188.06 110.38 188.74 110.32 189.42 110.36 190.1 110.31 190.78 110.34 191.46 110.35 192.15 110.28 192.83 110.3 193.51 110.24 194.16 110.23 194.81 110.3 195.47 110.28 196.12 110.26 196.78 110.2 197.44 110.23 198.1 110.16 198.76 110.21 199.41 110.19 200.07 110.23 200.72 110.18 201.37 110.12 201.72 109.39 201.76 108.67 201.67 107.94 201.76 107.21 201.77 106.49 201.74 105.76 201.76 105.04 201.8 104.32 201.79 103.59 201.84 102.87 201.82 102.14 201.85 101.42 201.79 100.68 201.87 99.95 201.86 99.22 201.87 98.49 201.84 97.76 201.88 97.04 201.84 96.31 201.85 95.58 201.87 94.86 201.92 94.13 201.93 93.41 202.21 93.15 202.71 93.64 203.21 94.13 203.74 94.59 204.23 95.1 204.7 95.62 205.21 96.09 205.69 96.6 206.13 97.16 206.64 97.64 207.11 98.17 207.62 98.66 208.11 99.17 208.57 99.71 209.06 100.22 209.64 100.65 210.12 101.17 210.6 101.7 211.11 102.18 211.56 102.73 212.09 103.19 212.59 103.69 213.12 104.14 213.57 104.68 214.18 104.43 214.63 103.96 215.11 103.51 215.54 103.01 216.05 102.58 216.47 102.04 216.97 101.58 217.41 101.07 217.93 100.64 218.41 100.17 218.88 99.68 219.32 99.16 219.83 98.71 220.29 98.21 220.74 97.69 221.21 97.2 221.72 96.74 222.21 96.27 222.66 95.75 223.13 95.25 223.63 94.79 224.06 94.26 224.53 93.79 225.1 93.3 225.47 93.41 225.51 94.12 225.55 94.84 225.6 95.56 225.55 96.27 225.56 96.99 225.63 97.7 225.66 98.42 225.62 99.14 225.58 99.86 225.67 100.57 225.62 101.29 225.61 102.01 225.66 102.73 225.68 103.45 225.7 104.18 225.69 104.9 225.63 105.62 225.73 106.34 225.72 107.06 225.74 107.78 225.81 108.49 225.84 109.21 225.8 109.93 226.22 110.11 226.89 110.12 227.56 110.15 228.23 110.21 228.9 110.23 229.57 110.21 230.23 110.26 230.9 110.28 231.57 110.21 232.25 110.23 232.91 110.26 233.59 110.23 234.26 110.33 234.93 110.35 235.61 110.35 236.28 110.27 236.96 110.35 237.63 110.29 238.3 110.31 238.98 110.34 239.65 110.34 240.32 110.39 240.99 110.43 241.65 110.41 241.88 110.77 241.41 111.29 240.92 111.8 240.44 112.33 239.93 112.81 239.51 113.38 239.01 113.88 238.5 114.37 238.08 114.94 237.56 115.41 237.08 115.94 236.61 116.46 236.14 117 235.62 117.48 235.17 118.04 234.63 118.51 234.19 119.08 233.68 119.57 233.23 120.13 232.72 120.62 232.25 121.15 231.8 121.69 231.32 122.23 230.92 122.81 230.9 122.87"/>
  </g>
  <polygon class="b" points="301.81 138.14 301.65 137.43 301.28 136.63 300.85 135.94 300.3 135.36 299.66 134.86 298.93 134.49 298.18 134.28 297.37 134.17 296.58 134.2 295.82 134.34 295.12 134.56 294.32 135.03 293.75 135.53 293.25 136.05 292.81 136.85 292.54 137.52 292.33 139.17 292.44 139.98 292.62 140.75 292.92 141.47 293.34 142.17 293.88 142.77 294.52 143.25 295.23 143.61 295.99 143.85 296.75 143.95 297.55 143.96 298.34 143.83 299.09 143.56 299.8 143.17 300.41 142.67 300.94 142.06 301.33 141.4 301.64 140.68 301.83 140 301.89 139.19 301.92 138.97 301.81 138.14"/>
  <g>
    <polygon class="b" points="7.5 94.23 7.03 93.72 6.68 93.11 6.34 92.49 5.97 91.89 5.55 91.32 5.3 90.63 4.86 90.07 4.34 89.6 3.82 89.76 3.51 90.4 3.33 91.09 3.1 91.75 2.92 92.43 2.76 93.12 2.64 93.82 2.35 94.47 2.26 95.18 1.95 95.83 1.79 96.52 1.59 97.19 1.47 97.9 1.23 98.56 1.15 99.27 .92 99.95 .8 100.65 .64 101.33 .32 101.98 .15 102.67 0 103.35 .18 104.04 .94 103.98 1.61 103.64 2.26 103.27 2.92 102.91 3.61 102.6 4.27 102.24 5.01 102.08 5.73 101.81 6.47 101.94 7.18 102.09 7.88 102.25 8.59 102.4 9.26 102.68 9.97 102.84 10.64 103.11 11.33 103.33 12.02 103.53 12.71 103.78 13.4 103.96 14.11 104.13 14.82 104.27 15.48 104.62 16.17 104.85 16.91 104.92 17.59 105.18 18.27 105.47 19 105.56 19.67 105.86 20.35 106.13 21.08 106.23 21.74 106.54 22.43 106.78 23.11 107.03 23.83 107.16 24.52 107.36 25.29 107.8 26 108.33 26.43 108.85 26.73 109.46 27.11 110.03 27.39 110.66 27.74 111.25 28.06 111.87 28.51 112.39 29.1 112.69 29.55 112.36 29.85 111.69 30 110.97 30.14 110.25 30.46 109.58 30.57 108.85 30.8 108.16 31.03 107.47 31.16 106.75 31.37 106.05 31.52 105.33 31.85 104.66 32 103.94 32.11 103.21 32.33 102.51 32.55 101.81 32.81 101.12 32.95 100.4 33.11 99.69 33.33 99 33.22 98.27 32.46 98.38 31.76 98.68 31.08 99.02 30.4 99.35 29.7 99.67 29.1 100.16 28.36 100.3 27.53 100.55 26.65 100.51 26.01 100.17 25.33 99.96 24.63 99.81 23.94 99.61 23.23 99.5 22.55 99.28 21.91 98.93 21.21 98.77 20.51 98.65 19.81 98.48 19.17 98.14 18.47 97.97 17.8 97.75 17.06 97.7 16.38 97.47 15.68 97.32 15.04 96.94 14.34 96.78 13.64 96.6 12.97 96.33 12.26 96.21 11.58 95.97 10.94 95.61 10.23 95.44 9.56 95.2 8.91 94.9 8.26 94.61 7.55 94.4 7.5 94.23"/>
    <polygon class="b" points="47.26 60.05 47.21 60.75 47.26 61.47 47.41 62.17 47.58 62.88 47.81 63.57 48.24 64.18 48.42 64.88 48.5 65.61 48.71 66.29 48.72 67.01 48.66 67.72 48.4 68.4 48 69.01 47.53 69.56 46.94 69.98 46.34 70.35 45.71 70.68 45.02 70.52 44.38 70.25 43.82 69.81 43.23 69.39 42.76 68.82 42.16 68.4 41.68 67.86 41.17 67.35 40.58 66.91 40.11 66.35 39.47 65.97 38.95 65.46 38.49 64.9 37.96 64.39 37.38 63.94 36.85 63.44 36.28 62.97 35.7 62.52 35.23 61.95 34.63 61.51 34.09 61.02 33.67 60.4 33.07 59.97 32.52 59.49 32.03 58.94 31.51 58.43 30.91 58 30.34 57.56 29.95 56.95 29.7 56.28 29.41 55.63 29.44 54.9 29.23 54.21 29.22 53.5 29.22 52.78 28.98 52.06 29.02 51.29 28.57 50.72 27.87 50.95 27.49 51.58 27.05 52.14 26.53 52.63 25.98 53.1 25.57 53.7 25 54.15 24.48 54.65 24.05 55.22 23.61 55.79 23.14 56.33 22.63 56.85 22.19 57.43 21.61 57.88 21.14 58.43 20.65 58.96 20.21 59.54 19.73 60.06 19.38 60.56 19.05 61.06 18.71 61.6 19.16 61.78 19.87 61.91 20.61 62.04 21.35 62 22.09 61.93 22.83 61.95 23.57 62.08 24.33 62.05 25.02 62.34 25.59 62.81 26.17 63.26 26.65 63.82 27.32 64.17 27.87 64.65 28.37 65.19 28.89 65.72 29.49 66.14 29.99 66.68 30.6 67.09 31.15 67.58 31.59 68.19 32.15 68.66 32.77 69.07 33.2 69.7 33.77 70.18 34.27 70.73 34.95 71.09 35.49 71.6 35.92 72.22 36.45 72.73 37.03 73.18 37.53 73.72 38.16 74.12 38.71 74.58 39.25 75.07 39.68 75.65 40.06 76.25 40.5 76.84 40.76 77.52 40.81 78.25 40.92 78.96 41.09 79.67 41.14 80.38 41.02 81.12 41.28 81.85 41.62 82.38 42.04 82.39 42.56 81.87 43.03 81.3 43.6 80.83 43.98 80.18 44.43 79.6 45.02 79.14 45.55 78.63 45.99 78.05 46.54 77.56 46.99 76.98 47.44 76.4 47.88 75.81 48.38 75.26 49 74.83 49.38 74.17 49.84 73.59 50.46 73.16 50.92 72.58 51.47 72.09 51.92 71.51 52.39 70.94 52.81 70.39 53.33 69.92 53.98 69.64 54.48 69.15 55.13 68.8 55.84 68.6 56.51 68.3 57.11 67.89 57.7 67.44 57.51 66.9 57.37 66.32 56.8 65.85 56.4 65.27 55.92 64.74 55.54 64.13 54.96 63.69 54.51 63.13 54.02 62.61 53.59 62.03 53.13 61.47 52.72 60.87 52.3 60.28 51.81 59.75 51.24 59.3 50.74 58.79 50.4 58.12 49.72 57.88 49.03 57.89 48.37 58.14 47.9 58.66 47.38 59.18 47.16 59.88 47.26 60.05"/>
    <polygon class="b" points="86.6 34.35 86.34 35.02 86.28 35.73 86.18 36.43 86.06 37.13 85.97 37.84 86.11 38.56 86.14 39.28 86.07 39.99 85.75 40.65 85.69 41.38 85.24 41.95 84.72 42.42 84.15 42.84 83.58 43.27 82.88 43.46 82.2 43.64 81.51 43.59 80.84 43.38 80.48 42.78 80.12 42.17 79.75 41.57 79.47 40.92 79.15 40.29 78.84 39.67 78.46 39.07 78.03 38.5 77.87 37.79 77.48 37.19 77.13 36.59 76.83 35.95 76.41 35.37 76.11 34.72 75.77 34.09 75.6 33.38 75.11 32.83 74.79 32.19 74.54 31.52 74.25 30.87 73.87 30.27 73.66 29.58 73.36 28.94 72.99 28.33 72.64 27.71 72.32 27.08 72.11 26.4 71.84 25.75 71.65 25.1 71.53 24.4 71.63 23.71 71.94 23.07 72.07 22.39 72.24 21.72 72.53 21.08 72.58 20.38 72.68 19.51 72.17 19.18 71.53 19.48 70.89 19.77 70.21 19.96 69.57 20.26 68.97 20.65 68.28 20.85 67.71 21.3 67.02 21.48 66.38 21.78 65.8 22.2 65.15 22.5 64.51 22.81 63.86 23.12 63.21 23.41 62.64 23.85 61.99 24.15 61.33 24.41 60.68 24.7 60.12 25.19 59.61 25.68 60.07 26.2 60.67 26.59 61.38 26.72 61.98 27.1 62.69 27.19 63.32 27.48 63.95 27.76 64.52 28.14 64.99 28.62 65.39 29.23 65.88 29.79 66.18 30.46 66.48 31.14 66.85 31.77 67.22 32.4 67.56 33.05 67.93 33.68 68.19 34.38 68.46 35.06 68.92 35.65 69.25 36.3 69.55 36.97 69.89 37.63 70.1 38.35 70.42 39.01 70.77 39.66 71.18 40.28 71.46 40.97 71.78 41.64 72.07 42.32 72.56 42.89 72.9 43.54 73.21 44.2 73.52 44.86 73.8 45.55 74.06 46.24 74.25 46.96 74.31 47.69 74.18 48.41 74.07 49.14 73.84 49.84 73.6 50.54 73.4 51.26 73.2 51.97 73.25 52.71 73.77 53.07 74.37 52.66 75.02 52.38 75.7 52.15 76.36 51.89 76.98 51.53 77.64 51.27 78.27 50.95 78.83 50.48 79.48 50.21 80.14 49.93 80.79 49.66 81.43 49.34 82.03 48.95 82.64 48.57 83.3 48.3 83.96 48.02 84.58 47.65 85.25 47.38 85.9 47.09 86.56 46.81 87.14 46.39 87.85 46.24 88.47 45.88 89.11 45.58 89.84 45.36 90.6 45.33 91.36 45.35 92.11 45.31 92.87 45.28 93.56 45 93.9 44.47 93.89 43.8 93.55 43.14 93.33 42.45 93.09 41.76 92.84 41.08 92.62 40.38 92.4 39.69 92.21 39.01 91.91 38.38 91.71 37.72 91.53 37.05 91.2 36.43 91.04 35.75 90.73 35.13 90.49 34.48 90.32 33.78 89.83 33.25 89.16 32.98 88.47 33.11 87.84 33.4 87.27 33.79 86.76 34.27 86.6 34.35"/>
    <polygon class="b" points="122.67 3.89 123.14 4.36 123.58 4.9 124.1 5.35 124.71 5.68 125.24 6.12 125.8 6.51 126.29 6.99 126.71 7.52 127.1 8.06 127.46 8.68 127.57 9.39 127.75 10.07 127.9 10.77 128.02 11.47 128.18 12.15 128.45 12.82 128.47 13.54 128.67 14.22 128.65 14.95 128.75 15.65 128.87 16.36 129.1 17.05 129.28 17.74 129.38 18.45 129.32 19.17 129.56 19.85 129.65 20.55 129.79 21.24 129.86 21.97 130.02 22.68 130.12 23.42 130.09 24.16 129.98 24.89 129.78 25.61 129.57 26.32 129.18 26.95 128.89 27.64 128.41 28.21 127.77 28.58 127.2 29.08 126.46 29.17 125.73 29.15 124.98 29.24 124.29 28.98 123.58 28.73 122.96 28.33 122.41 27.83 122.01 27.21 121.56 26.64 121.26 25.98 120.97 25.31 120.56 24.69 120.38 23.99 120.19 23.28 120.02 22.57 119.86 21.86 119.67 21.16 119.66 20.45 119.48 19.77 119.27 19.1 119.19 18.4 119.1 17.71 118.9 17.03 118.79 16.34 118.64 15.64 118.59 14.94 118.39 14.26 118.33 13.56 118.18 12.87 118.14 12.16 117.92 11.49 117.81 10.8 117.74 10.18 117.83 9.56 117.96 8.96 118.36 8.32 118.62 7.59 119.05 6.96 119.56 6.37 119.89 5.67 120.32 5.05 120.39 4.31 119.84 4.02 119.13 4.2 118.38 4.2 117.68 4.44 116.95 4.54 116.2 4.51 115.49 4.73 114.76 4.77 114.03 4.83 113.32 5.06 112.6 5.2 111.85 5.2 111.13 5.38 110.41 5.54 109.68 5.63 108.97 5.84 108.23 5.88 107.53 6.16 106.79 6.2 106.12 6.49 106.11 7.08 106.63 7.64 107.18 8.05 107.71 8.46 108.29 8.83 108.87 9.19 109.37 9.66 109.83 10.17 110.26 10.69 110.47 11.38 110.79 12.03 110.97 12.72 110.98 13.46 111.32 14.12 111.27 14.85 111.48 15.54 111.62 16.24 111.72 16.95 111.81 17.65 111.91 18.36 112.09 19.06 112.15 19.78 112.31 20.48 112.37 21.2 112.6 21.89 112.81 22.58 112.93 23.29 112.94 24.02 113.28 24.68 113.37 25.4 113.54 26.1 113.82 26.76 114.14 27.41 114.33 28.11 114.76 28.7 114.96 29.4 115.44 29.95 115.87 30.53 116.36 31.05 116.86 31.55 117.33 32.1 117.96 32.46 118.51 32.93 119.16 33.24 119.87 33.42 120.54 33.66 121.22 33.89 121.94 33.92 122.64 34.12 123.36 34.17 124.07 34.27 124.8 34.27 125.52 34.14 126.24 34.1 126.96 34.04 127.63 33.76 128.36 33.69 129.02 33.4 129.67 33.09 130.38 32.9 130.93 32.41 131.54 32.03 132.19 31.69 132.65 31.12 133.2 30.65 133.69 30.12 133.97 29.44 134.39 28.85 134.78 28.24 135.02 27.57 135.23 26.88 135.46 26.2 135.66 25.5 135.76 24.79 135.69 24.06 135.81 23.35 135.81 22.63 135.83 21.91 135.65 21.2 135.66 20.48 135.49 19.77 135.35 19.07 135.21 18.37 135.14 17.65 135.02 16.94 134.89 16.24 134.64 15.56 134.48 14.86 134.35 14.15 134.21 13.45 134.09 12.73 134.01 12.02 133.78 11.33 133.66 10.61 133.6 9.89 133.48 9.18 133.48 8.46 133.39 7.75 133.28 7.03 133.56 6.31 133.86 5.64 134.14 4.93 134.57 4.3 135.04 3.72 135.46 3.09 135.73 2.44 136.09 1.82 135.52 1.48 134.8 1.5 134.07 1.51 133.34 1.59 132.62 1.78 131.91 1.93 131.19 2.1 130.47 2.2 129.74 2.3 129.01 2.36 128.28 2.46 127.58 2.74 126.85 2.79 126.12 2.9 125.4 3.07 124.67 3.15 123.94 3.25 123.24 3.44 122.62 3.85 122.67 3.89"/>
    <polygon class="b" points="172.98 6.35 173.66 6.26 174.35 6.37 174.93 6.76 175.5 7.19 175.89 7.8 176.23 8.43 176.7 8.98 177 9.63 177.43 10.2 177.75 10.85 178.31 11.3 178.92 11.65 179.6 11.83 180.29 12.04 180.97 11.82 181.64 11.54 181.75 10.77 181.94 10.03 181.93 9.27 181.88 8.51 181.82 7.76 181.74 7.09 181.77 6.41 181.71 5.74 181.67 5.06 181.51 4.4 181.42 3.73 181.42 3.02 181.4 2.33 181.45 1.62 181.17 .97 180.66 .51 179.99 .58 179.3 .68 178.64 .88 177.96 1.02 177.3 1.3 176.6 1.17 175.85 1.17 175.1 1.04 174.42 .71 173.66 .6 172.97 .3 172.22 .21 171.49 0 170.73 .04 170.06 .33 169.39 .58 168.7 .8 168.16 1.29 167.58 1.7 166.92 2.03 166.47 2.6 166.06 3.19 165.63 3.75 165.26 4.37 164.84 4.95 164.65 5.65 164.37 6.32 164.28 7.03 164.21 7.74 164.09 8.45 164.16 9.17 164.23 9.88 164.3 10.61 164.56 11.27 164.72 11.98 165.02 12.64 165.41 13.24 165.79 13.86 166.22 14.44 166.83 14.87 167.16 15.54 167.7 16.02 168.13 16.61 168.74 17.02 169.21 17.57 169.65 18.15 170.23 18.6 170.74 19.11 171.09 19.77 171.72 20.18 172.11 20.8 172.64 21.3 173 21.94 173.4 22.54 173.9 23.08 174.21 23.74 174.31 24.47 174.58 25.16 174.44 25.89 174.07 26.53 173.5 27.01 172.79 27.26 172.06 27.35 171.36 27.5 170.65 27.37 169.98 27.11 169.47 26.59 169.03 26.02 168.67 25.39 168.3 24.75 168.04 24.07 167.65 23.44 167.37 22.77 166.91 22.19 166.52 21.58 166.03 21.03 165.3 20.78 164.58 20.46 163.79 20.49 163.13 20.87 162.77 21.5 162.64 22.2 162.71 22.91 162.74 23.62 162.73 24.34 162.7 25.04 162.68 25.74 162.87 26.43 162.88 27.13 162.87 27.84 162.96 28.54 163 29.24 162.86 29.95 162.94 30.64 163.12 31.37 163.17 32.09 163.35 32.75 163.92 33.09 164.6 33.08 165.25 32.89 165.86 32.59 166.51 32.41 167.18 32.35 167.84 32.4 168.59 32.5 169.39 32.51 170.11 32.8 170.86 33.01 171.6 33.23 172.34 33.46 173.12 33.59 173.88 33.38 174.66 33.3 175.38 33.01 176.07 32.65 176.83 32.44 177.45 32.2 178.02 31.82 178.62 31.53 179.22 31.21 179.6 30.65 179.96 30.04 180.34 29.43 180.71 28.81 180.95 28.13 181.08 27.42 181.35 26.74 181.48 26.04 181.65 25.33 181.55 24.6 181.71 23.89 181.58 23.17 181.63 22.45 181.53 21.73 181.29 21.04 181.04 20.37 180.7 19.74 180.45 19.05 179.98 18.5 179.49 17.98 179.09 17.39 178.67 16.81 178.13 16.34 177.62 15.84 177.2 15.25 176.71 14.72 176.16 14.25 175.68 13.71 175.27 13.12 174.86 12.52 174.28 12.08 173.77 11.58 173.32 11.06 173.02 10.41 172.47 9.95 172.21 9.3 171.93 8.67 171.78 8 171.8 7.29 172.26 6.76 172.81 6.36 172.98 6.35"/>
    <polygon class="b" points="219.72 10.83 219.14 10.41 218.61 9.91 217.94 9.62 217.4 9.14 216.79 8.77 216.17 8.4 215.59 7.98 214.87 7.86 214.17 7.76 213.67 8.27 213.15 8.77 212.79 9.38 212.53 10.05 212.22 10.7 211.78 11.27 211.53 11.94 211.17 12.56 210.81 13.18 210.46 13.79 210.01 14.34 209.67 14.97 209.42 15.64 209.15 16.28 208.92 16.97 209.36 17.63 209.99 18.04 210.69 18.34 211.45 18.29 212.19 18.24 212.83 18.09 213.37 17.71 213.9 17.33 214.48 16.98 215.11 16.72 215.64 16.28 216.32 16.16 217.05 15.95 217.78 16.19 218.37 16.6 218.39 17.37 218.09 18.02 217.79 18.67 217.49 19.31 217.22 19.97 217.03 20.66 216.86 21.35 216.51 21.98 216.27 22.65 216.05 23.33 215.8 23.99 215.7 24.71 215.32 25.33 215.12 26.02 214.78 26.66 214.69 27.39 214.41 28.05 214.04 28.68 213.83 29.37 213.69 30.08 213.41 30.74 213.05 31.37 212.81 32.04 212.59 32.72 212.34 33.4 212.07 34.06 211.67 34.66 211.44 35.34 210.9 35.87 210.26 36.26 209.6 36.63 208.98 37.08 208.31 37.44 207.65 37.8 206.92 38.05 206.46 38.41 206.19 38.93 206.76 39.34 207.36 39.68 208.03 39.87 208.68 40.09 209.32 40.37 209.97 40.58 210.59 40.89 211.31 41 211.99 41.23 212.66 41.49 213.32 41.79 213.99 42.06 214.69 42.26 215.33 42.59 216.03 42.77 216.7 43.04 217.33 43.41 218.02 43.64 218.69 43.88 219.39 44.08 219.9 43.93 219.9 43.37 219.86 42.78 219.64 42.04 219.21 41.39 219.05 40.63 218.65 39.97 218.55 39.2 218.4 38.46 218.25 37.7 218.54 37.03 218.72 36.34 219.04 35.7 219.23 35.01 219.49 34.35 219.72 33.68 219.97 33.01 220.15 32.31 220.46 31.66 220.76 31.02 220.9 30.31 221.23 29.67 221.4 28.97 221.64 28.29 222 27.66 222.21 26.97 222.46 26.3 222.66 25.6 222.94 24.94 223.2 24.28 223.49 23.62 223.7 22.93 224.04 22.29 224.2 21.58 224.55 20.95 224.79 20.28 225.1 19.65 225.62 19.2 226.34 19.25 226.82 19.78 227.39 20.23 227.67 20.9 227.9 21.57 228.18 22.22 228.24 22.94 228.52 23.6 228.9 24.19 229.3 24.75 229.77 25.29 230.45 25.52 231.12 25.66 231.8 25.8 232.34 25.36 232.81 24.82 232.91 24.12 233.12 23.46 233.31 22.79 233.44 22.1 233.49 21.36 233.64 20.63 233.88 19.93 233.92 19.18 234.17 18.48 234.33 17.75 234.44 17.02 234.52 16.28 234.45 15.55 234.2 14.91 233.6 14.54 232.91 14.44 232.24 14.24 231.53 14.38 230.85 14.26 230.16 14.2 229.46 13.98 228.75 13.88 228.02 13.86 227.34 13.59 226.61 13.52 225.97 13.16 225.28 12.95 224.54 12.86 223.89 12.54 223.23 12.25 222.59 11.89 221.91 11.64 221.2 11.47 220.52 11.23 219.91 10.81 219.72 10.83"/>
    <path class="b" d="M260.87,31.34l-.28.64-.04.7.13.69v.69s.06.69.06.69l.18.69-.15.69v.7s-.24.66-.24.66l-.36.59-.52.5-.43.57-.34.64-.61.42-.32.66-.42.58-.55.47-.49.52-.5.51-.35.63-.47.54-.46.55-.52.5-.49.53-.45.56-.39.62-.43.58-.46.55-.52.5-.56.46-.48.54-.3.69-.64.4-.39.61-.36.63-.59.43-.4.45-.47.36-.51.34-.7.08-.67.22-.71-.05-.65.32-.7.09-.73-.02-.7.17-.48.45.13.59.56.27.53.46.53.46.48.53.63.34.49.51.57.41.48.52.5.51.56.44.58.41.6.39.53.47.51.49.65.33.42.61.61.37.53.47.53.47.7-.08.26-.7.07-.76.02-.76-.2-.75.02-.76.02-.76.16-.72.09-.76.35-.66.5-.56.45-.59.57-.48.33-.69.63-.43.37-.58.54-.41.58-.42.24.88.16.76-.09.76-.05.77-.25.73-.14.7.09.74-.3.68-.02.73-.18.7v.72s-.11.71-.11.71l-.06.71-.04.72.12.71v.72s.09.71.09.71l.24.71.06.75.22.72.17.73.07.75.27.7.35.66.54.41.65.25.69-.08.69-.04.66-.19.57-.37.53-.43.32-.63.14-.68.1-.69.1-.69-.05-.73.13-.69.23-.68.12-.7.04-.71-.02-.72.12-.7.12-.7.24-.69.06-.71.16-.69.05-.71.17-.7v-.71s.16-.69.16-.69l.34-.68.74-.2.72.26.67.04.64.11.64.08.67.02.68-.38.71-.27.68-.34.7-.32.73-.26.72-.29.67-.38.47-.62.42-.6.37-.64.39-.65.21-.72.2-.72.24-.72.2-.72.15-.69-.04-.71v-.68s.02-.73.02-.73l-.54-.53-.35-.62-.39-.6-.27-.68-.49-.53-.42-.58-.53-.48-.42-.59-.57-.44-.51-.49-.4-.62-.53-.48-.67-.32-.51-.5-.51-.51-.54-.47-.59-.4-.56-.45-.47-.56-.65-.34-.55-.45-.52-.49-.61-.38-.45-.58-.56-.44-.62-.37-.46-.56-.7-.37-.59-.48-.71-.32.03.12ZM269.44,45.36l-.36.62-.27.64-.19.68-.36.6-.46.58-.54.57-.71.3-.53.48-.7.17-.71-.02-.64-.28-.63-.28-.66-.27-.41-.6-.63-.34-.47-.71.52-.51.47-.52.49-.51.34-.62.46-.54.45-.55.52-.49.48-.52.43-.56.39-.6.67-.33.71.23.53.48.44.56.44.46.53.45.07.7.25.61.07.11Z"/>
    <path class="b" d="M304.77,83.46l-.54-.53-.58-.49-.52-.55-.55-.53-.57-.5-.65-.4-.68-.34-.65-.38-.66-.35-.7-.28-.75-.1-.72-.22-.75-.12-.76-.03-.75-.03-.75.11-.74.06-.76-.03-.69.16-.7.1-.68.2-.71.07-.65.3-.7.12-.67.22-.64.32-.71.15-.57.46-.7.18-.62.34-.58.42-.66.29-.58.41-.58.41-.55.45-.44.57-.56.44-.5.5-.53.47-.37.62-.39.59-.49.52-.35.62-.37.62-.12.72-.27.68-.05.73-.14.71-.16.71-.04.73-.04.73-.05.73.03.73.11.72.32.66.13.72.4.62.13.72.25.68.35.64.25.68.24.69.34.64.41.6.37.62.48.54.49.52.53.48.51.51.58.42.58.42.65.31.58.43.68.23.67.24.66.29.7.14h.72s.69.25.69.25h.72s.71-.12.71-.12l.72.1.71-.12.71-.1.7-.14.71-.08.69-.21.7-.11.67-.22.74-.03.69-.31.73-.2.68-.32.6-.48.71-.26.68-.32.55-.53.67-.34.58-.47.62-.42.57-.49.62-.42.46-.6.52-.5.49-.53.31-.66.5-.54.35-.63.15-.72.41-.61.06-.73.22-.68.09-.71.11-.71.03-.72.02-.72.14-.71-.03-.72-.14-.7-.26-.67-.19-.69-.18-.69-.39-.62-.24-.68-.22-.67-.32-.63-.17-.69-.32-.63-.33-.62-.41-.56-.05-.17ZM283,92.56l.38-.62.38-.63.44-.59.52-.52.49-.55.6-.43.62-.39.65-.24.67-.2.63-.3.6-.37.7-.13.6-.39.7-.12.62-.33.64-.29.68-.2.64-.27.67-.18.7-.02.7-.09.7.05.7.1.69.13.7.12.67.23.62.36.66.27.56.43.53.47.55.46.33.63.21.7.07.74-.11.74-.08.74-.17.74-.32.68-.43.62-.36.65-.36.66-.49.57-.53.47-.56.42-.53.49-.68.22-.62.35-.66.25-.66.26-.66.27-.66.26-.66.26-.67.24-.64.31-.71.15-.64.33-.69.19-.72.05-.72.14h-.73s-.71-.18-.71-.18l-.73-.06-.7-.21-.7-.2-.61-.41-.68-.27-.62-.38-.56-.47-.45-.57-.41-.62-.21-.72-.03-.75.02-.77.29-.71.14-.75.29-.7.08-.15Z"/>
  </g>
  <g>
    <polygon class="b" points="38.33 169.36 37.66 169.04 37.08 168.58 36.46 168.18 35.74 167.98 35.13 167.55 34.4 167.41 33.71 167.15 33 166.95 32.26 166.95 31.54 166.74 30.81 166.79 30.08 166.68 29.34 166.69 28.63 166.93 27.9 167.01 27.21 167.25 26.5 167.42 25.83 167.71 25.14 167.97 24.49 168.3 23.83 168.59 23.17 168.88 22.51 169.17 21.95 169.64 21.28 169.93 20.69 170.34 20.12 170.78 19.52 171.2 19.03 171.74 18.51 172.23 17.88 172.62 17.38 173.14 16.92 173.7 16.46 174.26 16.1 174.89 15.54 175.38 15.28 176.08 14.9 176.68 14.44 177.26 14.13 177.91 13.87 178.59 13.66 179.28 13.4 179.96 13.24 180.67 13.21 181.4 13.17 182.12 13.26 182.85 13.29 183.59 13.38 184.33 13.47 185.07 13.52 185.81 13.67 186.54 14.04 187.21 14.26 187.92 14.66 188.55 14.93 189.25 15.43 189.82 15.84 190.44 16.25 191.06 16.63 191.71 17.22 192.19 17.66 192.8 18.27 193.24 18.76 193.82 19.41 194.19 19.94 194.7 20.6 195.02 21.21 195.42 21.81 195.83 22.44 196.2 23.11 196.47 23.8 196.68 24.51 196.83 25.22 196.76 25.96 196.73 26.6 196.34 27.17 195.88 27.79 195.48 28.43 195.1 29.04 194.68 29.64 194.26 30.24 193.81 30.92 193.52 31.62 193.36 32.32 193.41 33.03 193.36 33.72 193.57 34.43 193.56 35.13 193.7 35.84 193.69 36.52 193.54 36.85 193.09 36.57 192.43 36.12 191.88 35.7 191.31 35.26 190.75 34.81 190.2 34.48 189.55 34.03 189 33.63 188.41 33.21 187.83 32.76 187.27 32.27 186.74 31.92 186.1 31.5 185.52 31.06 184.94 30.69 184.33 30.27 183.75 29.81 183.21 29.44 182.59 28.61 182.03 28.04 182.41 27.78 183.15 27.74 183.88 27.52 184.56 27.31 185.24 27.26 185.97 26.89 186.6 26.67 187.28 26.27 187.88 25.81 188.43 25.15 188.76 24.64 189.31 23.94 189.56 23.21 189.59 22.48 189.58 21.77 189.38 21.14 189 20.66 188.44 20.33 187.79 20.06 187.13 19.77 186.43 19.75 185.67 19.62 184.92 19.63 184.17 19.79 183.43 19.88 182.68 20.15 181.97 20.45 181.28 20.92 180.68 21.29 180.03 21.74 179.42 22.39 179.02 22.96 178.53 23.55 178.07 24.14 177.6 24.78 177.19 25.33 176.76 25.88 176.31 26.45 175.91 27.06 175.55 27.65 175.16 28.24 174.79 28.89 174.53 29.5 174.16 30.16 173.92 30.85 173.76 31.56 173.71 32.26 173.75 32.96 173.75 33.64 173.93 34.34 174.05 35.05 174.18 35.72 174.45 36.32 174.85 36.86 175.34 37.22 175.96 37.29 176.66 37.34 177.39 36.97 178.07 36.55 178.71 35.98 179.23 35.44 179.77 34.83 180.24 34.32 180.82 34.18 181.57 34.18 182.24 34.41 182.89 34.81 183.43 35.19 184.01 35.75 184.41 36.29 184.82 36.91 185.12 37.57 185.24 38.28 185.37 38.99 185.52 39.71 185.5 40.44 185.47 41.1 185.19 41.71 184.81 42.24 184.32 42.61 183.71 42.93 183.06 43.06 182.35 43.27 181.66 43.33 180.94 43.31 180.22 43.38 179.5 43.24 178.79 43.23 178.06 43.17 177.34 42.97 176.64 42.71 175.98 42.58 175.27 42.3 174.61 41.85 174.04 41.56 173.39 41.12 172.82 40.76 172.2 40.25 171.7 39.92 171.04 39.38 170.56 38.85 170.09 38.39 169.54 38.33 169.36"/>
    <path class="b" d="M64.08,196.23l.12.74.07.71.23.68v.73s.2.68.2.68l.3.67.05.72-.06.72v.73s-.29.68-.29.68l-.39.59-.44.56-.22.69-.42.57-.34.61-.3.64-.41.58-.35.62-.36.61-.4.58-.19.71-.47.55-.27.66-.42.58-.43.58-.18.72-.43.58-.44.57-.34.62-.38.6-.33.63-.33.63-.42.58-.29.65-.27.66-.37.6-.51.55-.56.48-.6.46-.69.32-.76.09-.69.29-.72.2-.58.34-.6.25-.62.3.35.57.58.29.59.39.56.43.67.25.54.48.68.24.58.39.65.29.55.47.61.37.64.3.64.31.62.33.61.36.61.37.67.26.56.46.68.23.51.53.58-.1.17-.83.03-.77-.19-.74-.15-.75-.32-.71v-.77s-.12-.76-.12-.76l.2-.74.31-.69.14-.76.43-.62.3-.69.51-.57.3-.71.47-.59.27-.72.72-.35.36.69-.04.81.12.79.1.74.15.74-.11.75.06.74-.14.74.1.75-.04.75.12.75.06.74-.03.75.3.71.03.75.22.72.22.68.4.62.11.72.4.63.19.7.26.67.39.6.36.63.63.33.68.18.72-.11.72-.16.71-.26.49-.54.25-.64.13-.67.19-.72-.15-.71-.06-.71.12-.71-.12-.71.02-.71.03-.71-.21-.7v-.71s.15-.72.15-.72l-.15-.71.1-.72-.02-.71-.12-.71.13-.71-.09-.71-.14-.71.03-.71.26-.76.75-.26.74.19.78-.03.77.1.77-.13.67-.4.65-.41.58-.5.6-.44.61-.42.61-.42.65-.37.5-.55.37-.57.25-.63.13-.67.11-.67.16-.67.08-.68.14-.68-.1-.7.17-.73-.14-.74.03-.75-.43-.61-.28-.69-.58-.45-.56-.46-.4-.61-.5-.51-.56-.44-.52-.49-.59-.41-.56-.45-.55-.46-.61-.38-.59-.41-.71-.22-.56-.45-.65-.3-.56-.47-.63-.34-.62-.36-.6-.38-.71-.19-.54-.51-.66-.29-.65-.31-.63-.33-.62-.36-.57-.44-.67-.26-.69-.36-.61-.53-.82-.04-.12.11ZM71.4,205.84h.69s.66.26.66.26l.59.38.5.48.58.4.31.63.27.61.1.67-.23.65v.69s-.38.59-.38.59l-.14.69-.55.53-.65.42-.43.66-.74.23-.64.21-.71.03-.69-.15-.62-.35-.61-.35-.64-.29-.52-.47.21-.66.33-.6.4-.56.28-.63.25-.64.48-.52.28-.63.38-.58.33-.6.35-.59.44-.53.11.02Z"/>
    <path class="b" d="M120.39,216.72l-.6.38-.65.3-.57.43-.56.43-.54.47-.56.44-.64.35-.41.61-.45.55-.49.52-.36.61-.21.68-.5.56-.25.7-.5.55-.25.7-.42.6-.35.64-.46.57-.26.7-.4.61-.36.63-.43.59-.4.61-.45.58-.44.59-.37.64-.29.69-.36.65-.56.52-.31.68-.37.64-.44.59-.36.64-.5.55-.34.65-.42.6-.33.66-.39.62-.42.59-.45.58-.3.62-.52.45-.47.49-.45.53-.62.31-.49.5-.65.26-.49.51-.58.34-.61.31-.24.63.16.59.68.14.69.08.68.13.66.23.68.18.7.06.67.19.68.15.69.13.68.2.7.1.71.06.66.28.7.07.68.16.69.1.69.1h.98s.07-.76.07-.76l-.31-.63-.23-.68-.53-.51-.22-.69-.4-.59-.05-.71-.11-.73.17-.73.38-.64.5-.53.56-.45.68-.32.75.13.74.04.74.11.75.1.71.23.76.1.68.37.61.48.31.71.12.75.09.76v.77s-.17.68-.17.68l-.39.59-.31.61-.29.64-.5.49-.3.66.18.65.52.5.72.08.69.15.68.27h.73s.7.12.7.12l.72.15.7.26.71.2.74.1.74.11.7.29.75.04.71.24.74.06.73.15.57-.4-.1-.71-.36-.66-.35-.67-.48-.56-.39-.61-.33-.65-.4-.61-.27-.68-.15-.71-.07-.71-.17-.7-.02-.72-.06-.72-.27-.7-.02-.73v-.73s-.09-.72-.09-.72l-.1-.72-.15-.71-.03-.72-.02-.72-.07-.71-.13-.71v-.72s-.18-.71-.18-.71v-.73s-.21-.7-.21-.7l-.06-.72-.04-.72-.1-.72-.04-.73-.09-.72-.08-.72.02-.73-.12-.72-.2-.71-.08-.72v-.73s-.11-.72-.11-.72l-.13-.71-.08-.72.05-.74-.28-.7-.03-.72-.02-.73-.09-.72-.17-.7-.19-.7-.13-.69-.31-.32-.11.02ZM112.56,235.91l.34-.65.27-.69.38-.63.46-.59.45-.59.25-.72.33-.66.39-.63.18-.05.26.73-.03.76.09.75.09.75.16.75-.04.76.08.75.03.72-.72.05-.73-.28-.76-.14-.77-.11-.7-.26-.02-.02Z"/>
    <path class="b" d="M175.95,231.69l.21-.72-.14-.74v-.65s-.11-.63-.11-.63l-.26-.6-.1-.63v-.75s-.31-.69-.31-.69l-.12-.72-.16-.72-.15-.72-.02-.75-.16-.72-.18-.72-.36-.5-.42-.43-.76-.07-.76.08-.73.23-.74.19-.69.33-.74.18-.72.27-.71.11-.72.04-.7.18-.72-.06-.71.11-.71.13-.71.03-.71-.03-.71.09-.71-.03-.72-.09-.71.17-.71.05-.73-.11-.72.22-.73-.05-.74-.03-.73.12-.74-.07-.72.21h-.73s-.66,0-.66,0l-.6.25-.2.44.21.61.52.45.52.44.47.49.46.52.5.47.52.47.36.6.13.68.2.65v.73s.14.72.14.72l-.11.73.19.72-.03.73.04.73.09.72.07.73.03.73-.06.73.13.72-.06.73.09.73-.04.74.03.73v.73s.22.72.22.72l-.07.74.04.73.12.73.05.73-.04.73.06.73-.09.73.15.72-.11.75-.2.72-.3.7-.51.54-.5.54-.38.65-.46.57-.61.54-.37.72.19.58.78.21.72-.12h.72s.72-.13.72-.13l.73.06.72-.12.73.07.72-.08.72-.05h.73s.73.06.73.06l.73-.12h.73s.73-.08.73-.08h.73s.72-.11.72-.11l.72-.02.73.07.9-.16.31-.78-.53-.5-.48-.53-.46-.56-.52-.5-.49-.53-.51-.51-.38-.61-.34-.63-.21-.7.06-.76-.08-.74-.23-.72.03-.75v-.75s-.14-.74-.14-.74l.12-.74.06-.74.06-.76.54-.59.66-.44.79-.08.77.03.77.12.75.22.65.42.59.49.52.57.58.5.59.49.63.56.65.55.49-.51v-.7s.12-.71.12-.71v-.71s-.15-.71-.15-.71l-.1-.71-.04-.71v-.71s-.14-.71-.14-.71v-.72s-.02-.72-.02-.72v-.72s.11-.71.11-.71l-.1-.72.15-.71.54-.47.62-.38.74.03.7-.24.72-.18.07-.13ZM167.23,235.08l-.76.11-.77-.04h-.76s-.76.03-.76.03l-.69-.29-.36-.86v-.7s.02-.69.02-.69l-.06-.69-.17-.69.06-.7-.04-.7v-.69s0-.69,0-.69l.19-.77.69-.5.69.06.68-.14.7.09h.69s.69-.02.69-.02l.7-.07.7.45.49.65.36.74.49.44.36.54.37.52-.13.62-.4.6-.4.62-.46.57-.47.56-.51.53-.48.55-.6.42-.07.13Z"/>
    <polygon class="b" points="208.35 219.74 208.55 219.09 208.77 218.43 209.06 217.81 209.4 217.2 209.7 216.58 210.14 216.03 210.46 215.41 210.57 214.71 210.07 214.26 209.37 214.42 208.73 214.75 208.01 214.76 207.35 215.01 206.68 215.26 205.98 215.37 205.33 215.63 204.64 215.77 203.98 216.03 203.27 216.12 202.62 216.39 201.92 216.51 201.21 216.63 200.55 216.88 199.88 217.11 199.18 217.21 198.54 217.52 197.84 217.67 197.15 217.79 196.49 218.04 196.11 218.63 196.67 219.21 197.28 219.65 197.97 219.95 198.62 220.3 199.23 220.76 199.91 221.09 200.39 221.68 201.03 222.11 201.32 222.81 201.53 223.5 201.82 224.17 201.96 224.88 202.32 225.53 202.43 226.25 202.59 226.96 202.9 227.62 203.13 228.31 203.25 229.03 203.46 229.72 203.71 230.4 203.93 231.09 204.19 231.77 204.42 232.46 204.52 233.19 204.81 233.87 204.94 234.59 205.13 235.29 205.45 235.96 205.59 236.68 205.78 237.38 205.96 238.08 206.11 238.8 206.48 239.45 206.67 240.15 206.81 240.85 207.02 241.73 206.83 242.6 206.63 243.32 206.21 243.94 205.98 244.66 205.57 245.29 205.31 245.99 204.93 246.63 204.7 247.4 205.39 247.58 206.1 247.41 206.84 247.4 207.54 247.18 208.25 247.01 208.96 246.85 209.62 246.54 210.35 246.43 211.07 246.29 211.73 245.93 212.44 245.76 213.19 245.71 213.85 245.39 214.54 245.14 215.26 244.99 215.97 244.82 216.67 244.63 217.35 244.35 218.05 244.14 218.76 243.97 219.22 243.64 218.94 243.03 218.34 242.64 217.75 242.25 217.1 241.96 216.46 241.65 215.85 241.29 215.3 240.84 214.74 240.43 214.26 239.81 213.94 239.11 213.59 238.48 213.44 237.78 213.24 237.09 213.04 236.41 212.83 235.73 212.64 235.04 212.43 234.36 212.19 233.68 211.89 233.03 211.67 232.35 211.53 231.64 211.25 230.99 211.05 230.3 210.81 229.62 210.67 228.91 210.38 228.25 210.24 227.54 210.01 226.86 209.9 226.14 209.58 225.49 209.42 224.78 209.2 224.09 209.06 223.38 208.86 222.69 208.83 221.97 208.51 221.3 208.39 220.6 208.36 219.89 208.35 219.74"/>
    <path class="b" d="M249.25,211.18l-.38-.55.02-.68.16-.65.1-.66.15-.68-.09-.71.06-.7.24-.67.02-.7.17-.68.09-.69v-.7s.02-.71.02-.71l.23-.68.05-.7-.02-.71.09-.69.14-.68.16-.67.19-.67.09-.69.28-.65.1-.69-.06-.71.03-.68-.24-.6-.49.06-.6.08-.57.45-.57.44-.65.32-.55.47-.72.2-.54.5-.63.35-.61.39-.56.47-.71.21-.54.49-.59.41-.68.26-.61.38-.55.48-.7.22-.59.4-.57.43-.65.31-.56.46-.63.35-.67.3-.54.49-.58.43-.61.38-.71.22-.58.42-.56.47-.68.26-.59.41-.53.51-.68.25-.57.44-.6.44v.62s.6.45.6.45l.71.28.78.02.72.23.72.23.68.34.7.27.53.47.55.48.43.57.39.6.4.59.23.71.46.55.48.54.33.64.28.67.51.53.33.64.4.59.39.6.24.69.51.53.22.71.39.61.42.59.46.57.29.67.32.64.46.56.3.66.33.64.46.56.38.61.45.56.29.72.22.74.02.77-.27.73v.77s-.04.76-.04.76l-.26.72v.66s-.06.64-.06.64l-.11.69.69.08.52-.42.7-.19.5-.54.67-.25.6-.36.53-.47.69-.2.53-.48.59-.38.6-.38.68-.24.59-.39.51-.51.7-.21.54-.47.55-.44.68-.25.57-.41.57-.41.39-.67-.67-.43-.62-.41-.71-.17-.73-.08-.65-.37-.74-.08-.69-.26-.58-.53-.6-.49-.43-.64-.46-.61-.37-.67-.47-.62-.24-.61-.29-.58-.16-.61.22-.53.76-.13.76.27.7.27.65.36.64.38.71.25.68.31.61.44.64.38.73.19.58.5.7.24.75.08.69.25.7.32.7-.04.68.19h.71s.65.31.65.31h.71s.7.07.7.07l.71.12.71-.12.62-.34.59-.37.41-.6.11-.67.18-.67-.12-.68-.25-.62-.33-.59-.63-.26-.62-.37-.55-.5-.71-.2-.57-.46-.68-.25-.68-.25-.58-.43-.71-.2-.64-.34-.66-.3-.62-.38-.62-.39-.65-.33-.67-.28-.68-.27-.61-.39-.59-.43-.74-.13-.66-.38-.75-.17-.76-.02-.77-.08-.76.1-.71-.04h-.12ZM241.59,201.63l.75.07.75.15.72.24.65.29.38.52-.12.7v.71s-.16.7-.16.7l-.07.71.07.73-.09.71-.09.71-.29.68-.03.72-.15.71-.12.7-.25-.16-.42-.71-.39-.73-.57-.62-.25-.69-.37-.61-.47-.55-.24-.68-.04-.68.06-.75.03-.76.13-.75.34-.7.23-.62.03-.02Z"/>
    <path class="b" d="M296.41,182.23l.48.49.49.52.35.63.42.58.57.42.6.29.7-.73.43-.55.41-.57.48-.53.38-.59.31-.65.55-.47.28-.67.37-.61.49-.53.44-.56.44-.56.3-.65.4-.58.39-.59.38-.6-.22-.66-.71-.1-.7.14-.69.15-.76.1-.77.04-.77-.02-.75.05-.73.09-.67-.32-.72-.06-.73-.04-.67-.31-.7-.15-.7-.17-.72-.1-.67-.29-.71-.12-.65-.32h-.74s-.69-.2-.69-.2l-.66-.31-.69-.2-.7-.15-.65-.33-.74-.04-.69-.22-.69-.22-.67-.3-.73-.09-.67-.28-.71-.17-.67-.29-.68-.27-.7-.2-.71-.17-.72-.14-.69-.24-.68-.26-.73-.08-.64-.39-.72-.12-.68-.24-.68-.24-.72-.11-.68-.24-.69-.22-.69-.21-.73-.03-.68-.21-.52.44-.02.76.27.72.17.73.1.76.16.74.09.76.45.63.2.74.5.57.4.64.6.47.35.68.54.47.41.58.46.54.32.65.39.59.56.46.28.67.49.52.37.61.48.53.4.58.41.58.4.59.49.53.37.61.39.6.49.53.38.62.49.53.44.57.34.64.43.57.42.58.43.57.39.6.49.52.38.61.42.57.47.54.3.66.25.67.23.68.21.63.15.66.27.65.12.68.04.7.17.67.3.63.5.39.5-.3.42-.56.51-.5.38-.6.45-.55.36-.61.44-.55.33-.64.42-.57.39-.6.41-.59.49-.53.3-.66.39-.6.43-.57.48-.53.29-.66.41-.92-.57-.29h-.73s-.74,0-.74,0l-.75.02-.74.07-.74.17-.76-.08-.65-.29-.51-.48-.47-.49-.32-.6-.12-.66v-.67s.13-.66.13-.66l.16-.68.38-.58.51-.5.24-.68.46-.53.51-.49.65-.28.61-.31.68-.05.69.02.63.29.66.23.61.37.04.22ZM288,179.36l-.37.59-.35.61-.45.54-.43.55-.54.66-.5-.38-.5-.46-.38-.56-.34-.58-.33-.59-.48-.52-.35-.62-.41-.57-.46-.53.03-.05.69.1.65.2.61.37.68.12.66.21.68.14.62.31.69.1.59.34v.04Z"/>
  </g>
  <polygon class="b" points="17.31 138.09 17.11 137.34 16.86 136.64 16.37 135.87 15.89 135.31 15.13 134.76 14.38 134.4 13.67 134.2 12.72 134.16 11.99 134.26 11.14 134.57 10.49 134.92 9.82 135.55 9.34 136.11 8.94 136.86 8.69 137.74 8.51 139.28 8.61 140.12 8.82 140.86 9.11 141.6 9.48 142.21 10.1 142.84 10.64 143.3 11.39 143.67 12.23 143.88 13.01 143.98 13.85 143.85 14.61 143.61 15.25 143.3 15.95 142.73 16.43 142.19 16.86 141.41 17.14 140.69 17.33 139.91 17.39 139.16 17.31 138.09"/>
</svg>