<?xml version="1.0" encoding="UTF-8"?>
<svg id="a" data-name="Layer 1" xmlns="http://www.w3.org/2000/svg" viewBox="0 0 200 150">
  <defs>
    <style>
      .b {
        fill: #fff;
      }
    </style>
  </defs>
  <polygon class="b" points="156.97 149.95 156.25 149.95 155.53 149.88 154.81 149.89 154.09 149.83 153.37 149.97 152.65 149.99 151.93 149.98 151.21 149.94 150.49 149.92 149.77 149.99 149.05 149.91 148.33 149.99 147.62 149.97 146.9 149.84 146.18 149.85 145.46 149.83 144.74 149.83 144.03 149.89 143.31 149.97 142.59 149.87 141.87 149.83 141.15 149.96 140.44 149.83 139.72 149.95 139 149.82 138.28 149.83 137.57 149.96 136.85 149.89 136.13 149.93 135.41 149.85 134.69 149.89 133.98 149.87 133.26 149.88 132.54 149.88 131.82 149.95 131.1 149.89 130.38 149.85 129.66 149.95 128.94 149.87 128.22 149.96 127.5 149.97 126.78 149.87 126.06 149.93 125.33 149.93 124.61 149.99 123.89 149.97 123.17 149.96 122.45 149.93 121.73 149.97 121.01 149.89 120.29 149.97 119.57 149.87 118.85 149.87 118.13 149.87 117.41 149.91 116.69 149.95 115.97 149.81 115.25 149.95 114.53 149.88 113.82 149.88 113.1 149.97 112.38 149.84 111.66 149.87 110.94 149.95 110.22 149.94 109.49 149.84 108.77 149.93 108.05 149.99 107.33 149.85 106.61 149.92 105.89 149.8 105.16 149.92 104.44 149.87 103.72 149.82 103 149.82 102.28 149.9 101.56 149.9 100.84 149.83 100.12 149.95 99.4 149.87 98.68 149.86 97.96 149.88 97.24 149.87 96.51 149.96 95.79 149.86 95.07 149.87 94.35 149.94 93.63 149.83 92.9 149.99 92.18 149.91 91.46 149.94 90.74 149.82 90.02 149.83 89.3 149.96 88.58 149.86 87.87 149.98 87.15 149.83 86.43 149.85 85.71 150 84.99 149.93 84.26 149.9 83.54 149.81 82.82 149.84 82.1 149.94 81.38 149.99 80.66 149.85 79.94 149.8 79.22 149.93 78.5 149.9 77.78 149.82 77.06 149.98 76.34 149.98 75.62 149.83 74.9 149.88 74.18 149.94 73.46 149.86 72.74 149.95 72.01 149.88 71.29 149.97 70.57 149.92 69.84 149.85 69.12 149.97 68.4 149.99 67.68 149.82 66.96 149.88 66.24 149.9 65.51 149.88 64.79 149.99 64.06 149.9 63.34 149.86 62.62 149.95 61.89 149.8 61.17 149.98 60.45 149.94 59.72 149.8 59 149.99 58.27 149.95 57.55 149.87 56.82 149.92 56.11 149.99 55.39 149.89 54.66 149.92 53.94 149.92 53.21 150 52.49 149.81 51.76 150 51.04 149.94 50.31 149.86 49.59 149.99 48.86 149.99 48.13 149.81 47.4 149.81 46.68 149.9 45.95 149.89 45.22 149.9 44.49 149.92 43.76 149.97 43.03 149.93 42.31 149.89 41.59 149.82 40.87 149.8 40.15 149.83 39.44 149.73 38.73 149.66 38.02 149.53 37.29 149.61 36.59 149.41 35.89 149.26 35.16 149.24 34.47 149.02 33.77 148.89 33.04 148.83 32.37 148.57 31.68 148.37 31 148.13 30.3 147.98 29.61 147.78 28.96 147.46 28.28 147.25 27.56 147.1 26.89 146.84 26.27 146.48 25.64 146.13 24.95 145.91 24.32 145.57 23.66 145.28 22.97 145.05 22.39 144.6 21.77 144.24 21.14 143.91 20.55 143.49 19.96 143.1 19.34 142.73 18.69 142.42 18.14 141.94 17.56 141.53 17.02 141.05 16.46 140.6 15.9 140.15 15.27 139.79 14.81 139.22 14.21 138.83 13.72 138.3 13.13 137.88 12.71 137.29 12.21 136.77 11.65 136.31 11.19 135.76 10.69 135.24 10.3 134.63 9.75 134.16 9.31 133.59 8.86 133.04 8.38 132.49 8.04 131.86 7.7 131.22 7.29 130.63 6.86 130.06 6.46 129.46 6 128.91 5.77 128.21 5.44 127.57 4.95 127.02 4.73 126.33 4.45 125.67 4 125.09 3.72 124.43 3.41 123.78 3.17 123.1 2.97 122.41 2.69 121.75 2.41 121.09 2.18 120.41 1.94 119.73 1.83 119.01 1.63 118.33 1.39 117.65 1.25 116.94 1.06 116.25 1.05 115.52 .78 114.84 .66 114.14 .56 113.42 .57 112.7 .4 112 .22 111.3 .21 110.58 .24 109.86 .13 109.14 .18 108.42 .18 107.71 .09 106.99 .11 106.27 .09 105.55 0 104.83 .09 104.11 .08 103.4 .12 102.68 .03 101.96 0 101.25 0 100.53 .19 99.81 .19 99.1 .07 98.38 .2 97.66 .13 96.95 0 96.23 .17 95.51 .06 94.79 .2 94.07 .19 93.35 .09 92.64 .06 91.92 .02 91.2 .05 90.48 .18 89.76 .09 89.05 .11 88.34 .02 87.62 .11 86.91 .1 86.19 .13 85.48 .09 84.76 .02 84.04 .11 83.32 .04 82.6 .16 81.88 .05 81.17 .09 80.45 .19 79.73 .03 79.02 .12 78.3 .09 77.59 .2 76.87 .08 76.16 .19 75.44 .02 74.73 .08 74.01 .03 73.29 .17 72.57 .13 71.85 0 71.13 0 70.41 .09 69.69 .12 68.98 .11 68.26 .14 67.54 .11 66.82 .03 66.1 .13 65.38 0 64.66 .12 63.94 .12 63.22 .09 62.5 .1 61.78 .1 61.06 .17 60.34 .07 59.62 .13 58.9 .01 58.18 .07 57.46 .17 56.74 .06 56.02 .06 55.31 .06 54.59 .14 53.87 .19 53.15 .07 52.43 .07 51.71 .09 50.99 .02 50.26 .15 49.54 .12 48.82 .06 48.09 .07 47.37 .06 46.64 .07 45.92 .15 45.2 .08 44.47 .12 43.74 0 43.01 .07 42.29 .1 41.58 .08 40.86 .29 40.15 .34 39.43 .39 38.72 .41 38 .57 37.3 .49 36.56 .6 35.85 .84 35.16 .88 34.44 1.12 33.76 1.29 33.06 1.52 32.38 1.68 31.68 1.75 30.96 1.92 30.26 2.25 29.61 2.46 28.92 2.69 28.24 2.99 27.59 3.15 26.88 3.57 26.28 3.8 25.6 4.17 24.98 4.34 24.26 4.76 23.67 5.02 23 5.4 22.39 5.81 21.8 6.04 21.1 6.51 20.55 6.87 19.92 7.18 19.27 7.7 18.76 8.08 18.15 8.43 17.52 8.91 16.98 9.4 16.45 9.81 15.87 10.26 15.31 10.72 14.75 11.27 14.28 11.64 13.65 12.23 13.22 12.71 12.69 13.22 12.19 13.75 11.7 14.2 11.13 14.8 10.73 15.29 10.2 15.86 9.77 16.4 9.29 17.03 8.94 17.6 8.5 18.17 8.07 18.7 7.58 19.3 7.18 19.97 6.9 20.56 6.48 21.15 6.07 21.73 5.65 22.35 5.28 23.01 5 23.67 4.7 24.31 4.39 24.96 4.08 25.61 3.79 26.3 3.58 26.96 3.29 27.62 3.03 28.27 2.72 28.92 2.41 29.6 2.17 30.33 2.11 30.97 1.75 31.67 1.57 32.36 1.37 33.06 1.21 33.78 1.14 34.46 .91 35.17 .79 35.88 .67 36.59 .55 37.29 .41 38 .32 38.73 .38 39.44 .29 40.16 .21 40.87 .09 41.59 .19 42.31 .09 43.03 .12 43.75 .13 44.47 .08 45.19 .07 45.91 .19 46.63 0 47.35 .03 48.07 .04 48.79 0 49.51 .12 50.23 .02 50.95 .09 51.66 .01 52.38 .19 53.1 .04 53.82 .13 54.54 .01 55.26 .03 55.97 .2 56.69 .09 57.41 .08 58.13 .05 58.84 .12 59.56 .12 60.28 .04 61 .13 61.71 .06 62.43 .12 63.15 .17 63.87 .17 64.59 .13 65.3 .02 66.02 .11 66.74 .13 67.46 .16 68.18 .05 68.9 .03 69.62 .02 70.34 .18 71.06 .16 71.78 .06 72.5 .19 73.22 .16 73.94 .14 74.67 .1 75.39 .19 76.11 .13 76.83 .06 77.55 0 78.27 .17 78.99 .02 79.71 .09 80.43 .16 81.15 .18 81.87 .1 82.59 .02 83.31 .02 84.02 .05 84.74 .15 85.46 .11 86.18 .18 86.9 .16 87.62 .07 88.34 .13 89.06 .1 89.78 .11 90.5 .01 91.23 .12 91.95 .08 92.67 .04 93.39 .18 94.11 .03 94.84 .04 95.56 .09 96.28 .17 97 .04 97.72 0 98.44 .04 99.16 .08 99.88 .1 100.6 .15 101.32 .18 102.04 .03 102.76 .08 103.48 .19 104.21 .12 104.93 .13 105.65 .09 106.37 .03 107.09 .05 107.82 .06 108.54 .16 109.26 .18 109.98 .07 110.7 .18 111.41 .14 112.13 .08 112.85 0 113.57 .1 114.29 .02 115.01 .08 115.74 .11 116.46 .05 117.18 .13 117.9 0 118.62 .03 119.34 .12 120.06 .13 120.78 .08 121.5 .1 122.22 .07 122.94 .01 123.66 .1 124.38 .03 125.1 .04 125.82 .18 126.54 .11 127.26 .1 127.98 .15 128.71 .18 129.43 .1 130.15 .04 130.88 .09 131.6 .14 132.32 .05 133.04 .17 133.76 .06 134.48 .1 135.21 .16 135.93 .03 136.66 .18 137.38 .08 138.1 .18 138.83 .05 139.55 0 140.28 .05 141 .13 141.73 .05 142.45 .15 143.17 .2 143.89 .14 144.61 .1 145.33 .09 146.06 .11 146.79 .06 147.51 .17 148.23 .16 148.96 .16 149.69 .11 150.41 .12 151.14 .06 151.87 .03 152.59 .18 153.32 .03 154.05 .06 154.78 .15 155.51 .12 156.24 .07 156.97 .08 157.69 .17 158.41 .05 159.13 .13 159.84 .19 160.56 .24 161.26 .41 161.99 .35 162.71 .43 163.41 .59 164.11 .74 164.83 .79 165.52 .98 166.25 1.04 166.95 1.19 167.62 1.48 168.32 1.64 169.04 1.73 169.68 2.07 170.38 2.26 171.04 2.54 171.77 2.62 172.44 2.88 173.06 3.27 173.72 3.56 174.39 3.8 175.02 4.15 175.72 4.36 176.37 4.66 176.99 5.03 177.59 5.42 178.21 5.78 178.89 6.03 179.53 6.38 180.08 6.84 180.69 7.23 181.33 7.57 181.91 7.98 182.4 8.53 183.04 8.87 183.65 9.26 184.12 9.82 184.67 10.28 185.23 10.72 185.71 11.26 186.33 11.65 186.88 12.11 187.32 12.69 187.8 13.22 188.36 13.68 188.83 14.22 189.31 14.75 189.83 15.25 190.22 15.86 190.67 16.42 191.08 17.01 191.49 17.6 192.01 18.1 192.34 18.75 192.79 19.31 193.2 19.9 193.57 20.52 193.88 21.16 194.2 21.81 194.64 22.38 195.03 22.98 195.29 23.66 195.61 24.3 195.86 24.97 196.23 25.59 196.59 26.22 196.85 26.89 197.1 27.56 197.31 28.25 197.51 28.94 197.84 29.59 197.9 30.32 198.18 30.98 198.45 31.65 198.61 32.35 198.71 33.07 198.9 33.76 199.07 34.45 199.21 35.16 199.38 35.86 199.47 36.57 199.54 37.28 199.53 38.01 199.64 38.72 199.76 39.42 199.86 40.14 199.88 40.86 199.8 41.58 199.93 42.29 199.85 43.01 199.91 43.73 200 44.45 199.87 45.17 199.82 45.88 199.81 46.6 199.92 47.32 199.89 48.04 199.96 48.75 199.81 49.47 199.84 50.19 199.97 50.9 199.94 51.62 199.87 52.34 199.96 53.05 199.97 53.77 199.93 54.49 199.84 55.21 199.96 55.93 199.9 56.65 199.9 57.36 199.95 58.08 199.89 58.8 199.89 59.52 199.88 60.24 199.83 60.95 199.99 61.66 199.88 62.38 199.96 63.09 199.89 63.81 199.82 64.52 199.99 65.24 199.92 65.96 199.84 66.68 199.85 67.4 199.83 68.12 199.85 68.83 199.88 69.55 199.81 70.26 199.88 70.98 199.96 71.7 199.94 72.41 199.86 73.13 199.86 73.84 199.94 74.56 199.96 75.27 199.83 75.99 199.89 76.71 199.86 77.43 199.98 78.15 199.98 78.87 199.83 79.59 199.93 80.31 200 81.02 199.96 81.74 199.89 82.46 199.99 83.18 199.87 83.9 199.98 84.61 199.94 85.33 200 86.06 199.88 86.78 199.86 87.5 199.91 88.22 199.94 88.94 199.95 89.66 199.93 90.38 199.91 91.1 199.99 91.82 199.89 92.54 199.99 93.26 199.8 93.98 199.95 94.69 199.96 95.41 199.84 96.13 199.86 96.85 199.84 97.57 199.98 98.29 199.89 99.01 199.98 99.74 199.91 100.46 199.83 101.18 199.97 101.91 199.88 102.63 199.94 103.36 199.82 104.08 199.93 104.8 199.86 105.53 199.99 106.26 199.9 106.99 199.93 107.71 199.78 108.42 199.79 109.14 199.79 109.86 199.83 110.58 199.66 111.28 199.63 112 199.42 112.7 199.41 113.42 199.25 114.12 199.2 114.84 199.07 115.55 198.84 116.23 198.82 116.96 198.54 117.63 198.34 118.32 198.09 119 198.02 119.72 197.71 120.38 197.62 121.1 197.33 121.76 197.05 122.43 196.83 123.11 196.47 123.74 196.3 124.45 195.94 125.08 195.64 125.73 195.27 126.35 194.89 126.95 194.64 127.63 194.35 128.29 193.96 128.9 193.45 129.43 193.16 130.09 192.8 130.71 192.3 131.24 191.96 131.88 191.51 132.44 191.05 132.99 190.73 133.65 190.26 134.2 189.7 134.66 189.31 135.27 188.76 135.74 188.27 136.27 187.85 136.85 187.25 137.27 186.79 137.82 186.35 138.4 185.81 138.87 185.29 139.37 184.73 139.82 184.1 140.19 183.61 140.73 182.98 141.08 182.38 141.47 181.85 141.96 181.27 142.39 180.71 142.84 180.11 143.23 179.5 143.61 178.88 143.97 178.21 144.24 177.6 144.62 176.98 144.98 176.35 145.33 175.73 145.69 175.08 146 174.39 146.23 173.73 146.5 173.04 146.7 172.43 147.1 171.72 147.25 171.08 147.6 170.36 147.72 169.72 148.07 168.98 148.1 168.32 148.41 167.65 148.66 166.92 148.71 166.22 148.84 165.52 149.02 164.81 149.12 164.11 149.28 163.4 149.37 162.69 149.42 161.98 149.54 161.27 149.59 160.57 149.82 159.84 149.79 159.13 149.9 158.41 149.82 157.69 149.85 156.97 149.95"/>
  <g>
    <polygon points="157.05 138.11 156.55 138.54 155.88 138.5 155.2 138.53 154.53 138.49 153.85 138.51 153.17 138.56 152.5 138.55 151.82 138.51 151.14 138.6 150.47 138.58 149.79 138.61 149.11 138.51 148.43 138.63 147.76 138.54 147.08 138.64 146.4 138.51 145.72 138.56 145.04 138.6 144.36 138.61 143.67 138.57 142.99 138.62 142.31 138.5 141.62 138.59 140.94 138.64 140.26 138.57 139.58 138.63 138.9 138.52 138.22 138.58 137.54 138.56 136.86 138.52 136.18 138.48 135.49 138.55 135 138.03 134.53 137.53 133.99 137.1 133.52 136.6 132.98 136.18 132.58 135.59 132.02 135.2 131.6 134.64 131.11 134.16 130.62 133.69 130.11 133.23 129.66 132.72 129.14 132.27 128.67 131.77 128.21 131.25 127.74 130.76 127.29 130.23 126.72 129.83 126.29 129.28 125.75 128.86 125.29 128.34 124.79 127.88 124.34 127.36 123.93 126.8 123.37 126.39 122.95 125.84 122.42 125.41 121.98 124.86 121.48 124.4 121.01 123.89 120.54 123.38 120.1 122.85 119.6 122.38 119.06 121.95 118.62 121.42 118.09 120.97 117.63 120.45 117.14 119.96 116.67 119.46 116.17 118.97 115.71 118.45 115.18 118.01 114.73 117.47 114.29 116.92 113.75 116.48 113.27 115.98 112.84 115.41 112.27 115.02 111.79 114.5 111.38 113.92 110.84 113.49 110.36 112.98 109.86 112.5 109.39 111.99 108.93 111.46 108.4 111.02 107.96 110.47 107.45 109.99 106.98 109.49 106.45 109.04 105.97 108.54 105.54 107.98 104.98 107.57 104.49 107.08 104.06 106.53 103.59 106.03 103.07 105.56 102.59 105.08 102.14 104.56 101.59 104.16 101.15 103.65 100.7 103.15 100.24 102.66 99.78 102.17 99.29 101.7 98.82 101.23 98.39 100.7 97.85 100.31 97.39 99.82 97.01 99.28 96.71 98.39 96.72 97.7 96.71 97 96.65 96.31 96.58 95.61 96.46 94.92 96.41 94.23 96.38 93.53 96.15 92.86 96.16 92.15 95.97 91.48 95.78 90.8 95.69 90.11 95.63 89.4 95.35 88.75 95.27 88.05 95.14 87.37 94.86 86.72 94.72 86.03 94.53 85.36 94.29 84.7 94.15 84.02 93.85 83.39 93.69 82.71 93.52 82.04 93.21 81.39 93.03 80.69 92.83 80 92.49 79.36 92.26 78.69 92.06 77.99 91.75 77.35 91.41 76.72 91.14 76.06 90.9 75.38 90.62 74.72 90.26 74.11 89.94 73.47 89.6 72.84 89.27 72.21 88.94 71.58 88.68 70.91 88.34 70.29 87.95 69.69 87.6 69.07 87.24 68.46 86.83 67.88 86.52 67.24 86.09 66.67 85.82 66 85.41 65.42 85.01 64.83 84.72 64.17 84.35 63.56 83.91 63 83.52 62.4 83.15 61.77 83.31 61.57 83.99 61.55 84.68 61.44 85.37 61.5 86.05 61.44 86.74 61.54 87.43 61.44 88.12 61.56 88.81 61.43 89.49 61.57 90.17 61.57 90.85 61.46 91.53 61.5 92.21 61.52 92.89 61.58 93.57 61.51 94.25 61.46 94.93 61.58 95.61 61.52 96.29 61.47 96.96 61.47 97.64 61.55 98.32 61.54 99 61.44 99.68 61.53 100.36 61.49 101.04 61.49 101.73 61.57 102.41 61.51 103.1 61.56 103.78 61.52 104.47 61.44 105.15 61.52 105.83 61.53 106.52 61.48 107.2 61.43 107.89 61.49 108.57 61.43 109.26 61.41 109.94 61.42 110.62 61.43 111.3 61.52 111.98 61.44 112.67 61.45 113.35 61.49 114.03 61.49 114.72 61.42 115.4 61.49 116.08 61.54 116.77 61.46 117.44 61.6 118.13 61.48 118.79 61.6 119.29 62.07 119.85 62.49 120.38 62.95 120.79 63.53 121.35 63.97 121.83 64.48 122.32 64.98 122.76 65.53 123.22 66.06 123.73 66.54 124.23 67.04 124.7 67.56 125.14 68.11 125.64 68.61 126.06 69.19 126.57 69.67 126.97 70.26 127.51 70.72 127.98 71.23 128.46 71.74 128.91 72.29 129.31 72.89 129.57 73.56 129.62 74.3 129.22 74.92 128.77 75.44 128.37 76.03 127.87 76.51 127.36 76.99 126.96 77.56 126.48 78.07 125.97 78.55 125.56 79.12 125.09 79.63 124.54 80.06 124.07 80.58 123.61 81.1 123.15 81.63 122.74 82.2 122.17 82.61 121.78 83.21 121.22 83.63 120.82 84.22 120.34 84.72 119.85 85.22 119.34 85.69 118.85 86.19 118.45 86.76 118 87.31 117.46 87.75 117.12 88.32 116.72 88.86 117.14 89.34 117.82 89.36 118.5 89.44 119.18 89.43 119.85 89.51 120.53 89.49 121.21 89.6 121.89 89.53 122.57 89.59 123.25 89.61 123.92 89.57 124.6 89.64 125.28 89.63 125.96 89.61 126.64 89.7 127.32 89.57 128 89.61 128.68 89.61 129.36 89.72 130.04 89.67 130.72 89.65 131.4 89.7 132.08 89.66 132.75 89.79 133.44 89.72 134.12 89.75 134.79 89.85 135.47 89.92 136.03 90.28 136.42 90.82 136.65 91.47 136.69 92.17 136.82 92.87 136.75 93.57 136.75 94.27 136.78 94.97 136.86 95.67 136.8 96.37 136.82 97.07 136.89 97.77 136.9 98.47 136.89 99.17 136.91 99.87 136.82 100.57 136.83 101.27 136.94 101.97 136.85 102.67 136.84 103.37 136.88 104.1 136.83 104.83 136.68 105.55 136.35 106.2 136.13 106.9 135.74 107.52 135.5 108.22 135.2 108.88 134.83 109.51 134.69 110.22 134.63 110.94 134.47 111.65 134.6 112.37 134.61 113.09 134.65 113.82 134.8 114.52 134.95 115.22 135.16 115.91 135.35 116.6 135.52 117.3 135.76 117.97 136.02 118.64 136.16 119.36 136.47 120.01 136.64 120.71 136.97 121.35 137.24 122.01 137.44 122.71 137.82 123.32 138.08 123.98 138.33 124.66 138.73 125.27 139.04 125.93 139.42 126.53 139.78 127.17 140.32 127.64 140.76 128.2 141.33 128.62 141.91 129.02 142.53 129.36 143.22 129.48 143.9 129.6 144.59 129.56 145.29 129.54 145.96 129.34 146.64 129.18 147.3 128.94 147.87 128.64 148.48 128.46 149.07 128.24 149.69 128.06 150.32 128.14 150.94 128.23 151.53 128.6 152.17 128.85 152.67 129.35 153.2 129.8 153.71 130.27 154.13 130.84 154.51 131.43 154.99 131.96 155.23 132.64 155.61 133.24 155.9 133.89 156.14 134.56 156.38 135.24 156.58 135.93 156.78 136.61 156.95 137.31 157.13 138.01 157.05 138.11"/>
    <polygon points="120.12 138.4 119.93 138.66 119.25 138.69 118.56 138.71 117.89 138.67 117.2 138.66 116.52 138.69 115.83 138.71 115.15 138.66 114.46 138.68 113.77 138.67 113.1 138.68 112.43 138.65 111.75 138.69 111.08 138.7 110.4 138.66 109.74 138.66 109.07 138.67 108.4 138.67 107.73 138.67 107.06 138.7 106.38 138.69 105.71 138.7 105.04 138.67 104.37 138.68 103.69 138.72 103.02 138.7 102.34 138.68 101.67 138.71 100.99 138.68 100.31 138.68 99.63 138.7 98.96 138.72 98.28 138.67 97.6 138.72 96.92 138.66 96.24 138.66 95.57 138.69 94.89 138.68 94.22 138.66 93.54 138.66 92.87 138.66 92.19 138.7 91.52 138.64 90.84 138.7 90.17 138.64 89.5 138.66 89.36 138.08 89.56 137.48 89.77 136.89 89.97 136.21 90.22 135.54 90.46 134.87 90.66 134.19 90.95 133.53 91.17 132.85 91.47 132.21 91.73 131.54 92.02 130.89 92.28 130.22 92.57 129.57 92.81 128.89 93.13 128.26 93.44 127.61 93.73 126.96 94 126.3 94.31 125.65 94.63 125.01 94.97 124.38 95.27 123.73 95.61 123.1 95.93 122.46 96.27 121.84 96.61 121.21 96.98 120.6 97.33 119.98 97.67 119.35 98 118.71 98.4 118.13 98.73 117.5 99.11 116.9 99.46 116.27 99.87 115.7 100.24 115.09 100.61 114.48 101.02 113.91 101.41 113.32 101.81 112.74 102.19 112.15 102.67 111.57 103.31 111.31 103.88 111.73 104.35 112.25 104.86 112.72 105.33 113.23 105.82 113.73 106.31 114.21 106.78 114.73 107.27 115.22 107.76 115.72 108.22 116.25 108.71 116.76 109.21 117.25 109.68 117.77 110.2 118.24 110.67 118.76 111.13 119.29 111.6 119.8 111.81 120.39 111.5 120.97 111.11 121.47 110.63 121.97 110.16 122.49 109.69 123 109.22 123.51 108.74 124.02 108.28 124.54 107.83 125.09 107.35 125.6 106.89 126.13 106.4 126.63 105.93 127.16 105.49 127.7 104.99 128.19 104.53 128.77 104.27 129.46 104.61 130.11 105.27 130.39 105.98 130.46 106.7 130.51 107.4 130.36 108.08 130.26 108.73 130.01 109.37 129.77 110.01 129.52 110.64 129.25 111.27 128.97 111.91 128.72 112.57 128.56 113.24 128.48 113.9 128.62 114.54 128.85 115.11 129.24 115.67 129.64 116.14 130.16 116.63 130.65 117.02 131.24 117.42 131.81 117.81 132.4 118.14 133.03 118.49 133.64 118.76 134.3 119.03 134.96 119.31 135.61 119.55 136.28 119.79 136.95 119.96 137.64 120.14 138.33 120.12 138.4"/>
    <path d="M92.93,92.07l-.04-.72-.26-.67v-.73s-.32-.66-.32-.66l-.1-.71-.24-.67-.11-.71-.08-.72-.33-.64-.2-.68-.22-.68-.17-.69-.31-.64-.07-.73-.33-.63-.14-.71-.34-.63-.27-.65-.33-.62-.22-.67-.19-.69-.34-.61-.29-.64-.36-.6-.23-.67-.28-.64-.42-.57-.18-.71-.38-.59-.29-.64-.44-.55-.37-.6-.21-.7-.52-.5-.28-.65-.34-.61-.31-.63-.44-.54-.44-.54-.29-.65-.27-.67-.55-.47-.21-.71-.52-.49-.33-.63-.31-.64-.38-.6-.45-.55-.34-.63-.49-.51-.48-.52-.35-.62-.4-.58-.43-.56-.33-.64-.32-.64-.42-.56-.46-.53-.43-.56-.41-.58-.31-.65-.5-.51-.25-.69-.51-.5-.34-.62-.38-.6-.43-.56-.34-.63-.27-.67-.42-.57-.26-.67-.37-.6-.48-.54-.26-.67-.34-.62-.39-.6-.3-.64-.3-.65-.28-.65-.32-.63-.22-.68-.26-.66-.25-.67-.28-.65-.18-.69-.22-.68-.29-.65-.25-.67-.06-.73-.32-.65-.18-.69v-.74s-.29-.66-.29-.66l-.06-.72-.17-.7-.06-.72-.22-.69.13-.74-.21-.7.1-.73-.1-.71-.15-.71-.06-.72.04-.73.04-.73-.22-.71.03-.73.08-.73.03-.72-.09-.72-.11-.72-.03-.73.22-.73v-.73s-.16-.73-.16-.73l.06-.73v-.73s.18-.72.18-.72l-.07-.73.16-.72v-.74s-.05-.74-.05-.74l.06-.74-.21-.74-.71.03-.59.33-.54.41-.44.54-.61.32-.48.49-.46.51-.41.56-.57.38-.49.47-.46.51-.34.62-.53.44-.37.59-.47.5-.34.61-.52.47-.29.65-.4.56-.35.59-.39.57-.36.59-.33.61-.41.55-.59.34-.6-.28-.39-.54-.41-.52-.53-.41-.29-.64-.51-.43-.54-.39-.46-.47-.46-.47-.45-.52-.48-.49-.59-.33-.52-.42-.55-.38-.52-.44-.56-.38-.54-.41-.58-.35-.63-.24-.64-.21-.55-.43-.68-.09-.56-.41-.65-.17-.59-.34-.66-.12-.64-.19-.67-.05-.66-.1-.64-.19-.66-.04h-.57s-.58.15-.58.15l-.45.47v.74s-.36.64-.36.64l.02.73-.22.68-.12.7-.02.71.05.71-.03.71-.22.7.11.71.04.71.15.7v.71s.06.7.06.7l.07.7.03.71.14.69.16.69.12.7.18.68.2.68.25.66.17.69.43.58.11.72.42.58.22.67.43.56.14.73.35.58-.44.46-.48.42-.6.19-.66.1-.64.19-.63.21-.67.09-.62.26-.58.36-.64.21-.58.36-.68.13-.58.34-.58.34-.59.34-.55.39-.55.4-.63.26-.45.56-.6.31-.62.3-.53.43-.39.6-.61.33-.37.62-.49.46-.19.52.67.27.71-.12.7-.05.71.05.69-.08h.68s.67.14.67.14l.67.04.68-.09.66.18.67.05.69-.07.67.08.67.12.64.29.7-.08.63.3h.69s.66.12.66.12l.65.2.64.25.67.11.65.19.62.32.67.12.63.26.62.3.64.22.68.13.64.25.6.34.58.39.68.15.56.43.6.33.61.3.69.14.54.44.56.41.62.29.61.31.61.31.48.53.64.27.54.43.5.49.58.37.52.45.58.38.5.47.5.48.59.36.48.5.62.33.38.62.5.48.53.45.42.57.55.43.46.52.37.61.6.39.34.63.45.53.4.57.49.5.47.52.33.63.34.62.45.54.34.61.31.64.52.5.18.72.48.53.22.7.48.55.17.73.44.57.26.67.35.62.29.66.36.62.29.65.35.62.26.67.19.7.28.66.34.63.29.65.2.69.13.72.4.62.03.75.42.61.09.72.07.72.37.65.08.7.2.67.14.68v.71s.14.68.14.68l.11.69.27.66-.09.73.25.67.14.69.11.7-.06.72.24.68-.05.71.19.69.02.71-.09.71.09.7.07.71.02.71-.07.71v.71s-.22.69-.22.69l.11.72-.1.7-.18.68-.13.69-.11.7-.13.7-.22.67-.39.6-.18.68-.26.65-.33.61-.35.6-.47.51-.27.67-.53.45-.4.58-.57.43-.61.35-.63.29-.63.28-.6.37-.63.32-.71-.04-.67.15h-.69s-.68.02-.68.02h-.69s-.69-.07-.69-.07l-.64-.29-.64-.24-.7-.12-.61-.35-.52-.5-.57-.4-.56-.44-.35-.66-.58-.45-.36-.63-.4-.61-.13-.75-.33-.64-.16-.71-.25-.69.03-.74-.11-.72.09-.72-.05-.74.32-.66.19-.68.15-.7.31-.64.18-.7.37-.61.38-.59.49-.5.43-.57.48-.53.68-.26.51-.51.61-.36.62-.34.69-.13.67-.21.7-.05.68-.21.7.12h.69s.69.01.69.01l.71-.06.67.24.68.13.64.3.66.22.68.18.47-.51-.02-.73.15-.76-.14-.74-.06-.75v-.74s-.27-.7-.27-.7v-.72s-.1-.71-.1-.71v-.73s-.32-.67-.32-.67l-.11-.71-.06-.72-.06-.72-.25-.67-.14-.7-.16-.7-.22-.68-.23-.68-.1-.72-.35-.64-.26-.67-.14-.71-.18-.7-.32-.64-.35-.63-.11-.73-.4-.61-.11-.74-.32-.64-.39-.61-.22-.69-.34-.63-.37-.61-.23-.69-.5-.53-.16-.74-.51-.52-.34-.62-.35-.62-.34-.62-.43-.56-.47-.53-.43-.55-.39-.6-.44-.55-.52-.47-.48-.5-.61-.35-.68-.14-.69-.05-.69.05-.68.05-.68.13-.69-.04h-.7s-.67.27-.67.27l-.71-.06-.66.25-.7.03-.66.22-.66.23-.69.1-.65.27-.71.04-.67.18-.61.39-.62.34-.7.13-.6.38-.7.13-.64.3-.55.45-.65.23-.57.4-.63.27-.55.43-.63.29-.5.51-.62.31-.55.43-.6.35-.47.54-.54.44-.58.39-.53.45-.48.52-.45.55-.58.4-.39.6-.55.43-.38.61-.54.46-.4.59-.51.49-.43.55-.39.59-.33.63-.5.51-.35.62-.44.55-.27.67-.31.64-.42.57-.19.71-.38.6-.39.6-.19.7-.32.63-.39.6-.13.72-.22.68-.34.63-.11.72-.38.62-.18.69-.17.7-.06.72-.17.69-.18.69-.2.68-.17.69.03.73-.19.69v.72s-.29.68-.29.68l.16.73-.09.71-.11.71-.16.71.02.72.02.72.17.71-.03.71-.08.72v.72s.08.71.08.71l.24.69.1.71-.04.73.22.69v.73s.22.68.22.68v.73s.15.7.15.7l.23.68.07.72.35.64.2.68v.74s.25.67.25.67l.2.69.41.6.22.68.26.66.24.67.25.66.33.63.16.71.4.59.34.62.34.62.24.68.36.61.37.6.35.62.42.57.41.57.37.6.44.55.46.53.47.52.52.47.5.49.35.64.62.35.42.58.54.43.5.49.5.49.55.42.5.5.56.42.64.3.46.56.59.37.66.26.46.58.6.35.59.37.63.28.55.44.62.31.65.23.64.26.56.43.64.25.66.2.61.33.62.29.62.31.63.28.67.15.66.17.69.07.62.33.66.17h.7s.66.17.66.17l.66.19.68.05h.68s.67.14.67.14l.68.07.68.06.68-.05.67.25.68-.21.68.14h.68s.68-.05.68-.05l.67-.2.69.15.66-.24h.68s.67-.16.67-.16l.67-.1.7.07.64-.28.7.02.62-.39.69-.02.68-.08.66-.21.6-.4.67-.13.67-.12.62-.29.61-.32.63-.26.66-.19.65-.21.65-.22.52-.51.69-.15.58-.38.62-.31.6-.34.59-.36.52-.48.56-.41.54-.44.64-.29.48-.52.65-.29.5-.49.47-.52.56-.41.47-.51.4-.59.56-.42.56-.42.43-.56.4-.59.43-.55.49-.5.42-.56.34-.62.48-.51.3-.65.36-.6.52-.5.21-.7.46-.54.29-.65.26-.67.34-.62.27-.66.38-.6.38-.6.17-.7.3-.64.18-.69.23-.67.25-.66.14-.7.29-.65.11-.71.27-.66.12-.71.09-.71.16-.69.1-.71.22-.69.13-.7.02-.72-.07-.73.17-.7.08-.71.04-.71.05-.71.03-.71.06-.72-.02-.72-.1-.71.07-.72-.19-.71-.02-.71.03-.72-.04-.72-.08-.71-.26-.68-.07-.71-.14-.7-.02-.73-.09-.17Z"/>
    <polygon points="168.91 73.86 169.35 74.4 169.83 74.88 170.24 75.44 170.71 75.93 171.18 76.43 171.64 76.94 172.09 77.45 172.58 77.92 173.02 78.45 173.46 78.98 173.93 79.47 174.43 79.94 174.9 80.45 175.37 80.95 175.81 81.5 176.34 81.93 176.78 82.47 177.27 82.95 177.71 83.48 178.16 84 178.65 84.49 179.08 85.03 179.57 85.51 180 86.04 179.79 86.25 179.1 86.24 178.41 86.29 177.72 86.3 177.03 86.3 176.35 86.26 175.66 86.32 174.97 86.3 174.28 86.3 173.59 86.38 172.9 86.33 172.21 86.33 171.51 86.39 170.82 86.39 170.12 86.41 169.43 86.44 168.73 86.39 168.04 86.47 167.34 86.41 166.65 86.47 165.96 86.49 165.28 86.51 164.59 86.51 163.95 86.67 163.82 87.33 163.78 88.06 163.76 88.76 163.79 89.45 163.79 90.14 163.78 90.83 163.73 91.53 163.73 92.22 163.67 92.92 163.72 93.62 163.7 94.31 163.64 95.01 163.67 95.71 163.65 96.41 163.6 97.11 163.65 97.81 163.63 98.51 163.64 99.21 163.56 99.91 163.59 100.61 163.54 101.29 163.62 102.07 163.58 102.85 163.4 103.53 162.93 103.04 162.39 102.62 161.9 102.15 161.46 101.62 160.96 101.17 160.53 100.63 160.03 100.17 159.53 99.7 159.04 99.24 158.6 98.71 158.11 98.23 157.61 97.76 157.14 97.26 156.68 96.75 156.17 96.28 155.74 95.74 155.24 95.27 154.73 94.81 154.29 94.28 153.78 93.82 153.35 93.27 152.87 92.8 152.38 92.28 151.78 91.91 151.2 92.31 150.71 92.83 150.24 93.33 149.75 93.82 149.24 94.28 148.79 94.81 148.33 95.33 147.82 95.8 147.31 96.26 146.84 96.78 146.36 97.28 145.86 97.77 145.35 98.25 144.87 98.76 144.38 99.25 143.95 99.81 143.45 100.29 142.97 100.8 142.43 101.23 142 101.76 141.44 102.34 140.82 102.86 140.21 103.37 140.02 102.77 139.96 102.14 140.02 101.5 139.97 100.87 139.99 100.15 139.98 99.43 139.88 98.71 139.97 97.99 139.95 97.27 139.9 96.55 139.88 95.83 139.91 95.11 139.87 94.38 139.85 93.66 139.8 92.93 139.82 92.21 139.78 91.49 139.8 90.76 139.81 90.03 139.79 89.31 139.77 88.59 139.74 87.87 139.72 87.02 139.23 86.5 138.54 86.45 137.85 86.46 137.16 86.48 136.48 86.42 135.79 86.43 135.1 86.44 134.41 86.37 133.72 86.45 133.04 86.38 132.35 86.42 131.66 86.37 130.96 86.35 130.27 86.35 129.57 86.37 128.88 86.36 128.19 86.35 127.5 86.26 126.81 86.24 126.12 86.31 125.48 86.28 124.83 86.19 124.18 86.27 123.56 86.09 124.05 85.57 124.46 85 124.92 84.47 125.42 83.98 125.92 83.49 126.35 82.94 126.81 82.41 127.3 81.9 127.8 81.42 128.23 80.86 128.72 80.36 129.19 79.83 129.68 79.32 130.17 78.82 130.63 78.27 131.16 77.8 131.64 77.29 132.07 76.73 132.55 76.22 133.07 75.74 133.51 75.19 134 74.68 134.45 74.16 134.37 73.45 133.9 72.93 133.42 72.43 132.96 71.89 132.54 71.32 132.06 70.81 131.53 70.36 131.09 69.81 130.6 69.3 130.12 68.79 129.68 68.25 129.21 67.72 128.74 67.19 128.24 66.69 127.75 66.19 127.25 65.69 126.76 65.19 126.33 64.63 125.84 64.12 125.39 63.57 124.87 63.1 124.46 62.52 123.98 62.02 123.97 61.38 124.8 61.36 125.47 61.36 126.15 61.39 126.83 61.33 127.51 61.36 128.18 61.32 128.86 61.34 129.54 61.36 130.23 61.28 130.91 61.3 131.59 61.24 132.24 61.23 132.89 61.3 133.54 61.28 134.2 61.26 134.85 61.21 135.51 61.24 136.17 61.16 136.83 61.22 137.48 61.19 138.14 61.24 138.79 61.18 139.43 61.13 139.79 60.39 139.83 59.67 139.74 58.95 139.83 58.22 139.83 57.5 139.81 56.77 139.82 56.05 139.86 55.33 139.86 54.6 139.91 53.88 139.88 53.16 139.92 52.43 139.86 51.7 139.93 50.97 139.93 50.24 139.94 49.51 139.9 48.78 139.95 48.06 139.91 47.33 139.92 46.6 139.94 45.88 139.98 45.15 140 44.43 140.28 44.18 140.78 44.66 141.27 45.15 141.8 45.61 142.29 46.12 142.76 46.64 143.27 47.11 143.75 47.62 144.19 48.18 144.7 48.65 145.17 49.18 145.67 49.67 146.16 50.19 146.63 50.73 147.12 51.24 147.69 51.67 148.17 52.19 148.65 52.71 149.16 53.19 149.61 53.75 150.14 54.2 150.64 54.7 151.16 55.15 151.62 55.69 152.22 55.44 152.68 54.97 153.15 54.53 153.58 54.02 154.09 53.59 154.51 53.05 155.01 52.6 155.45 52.08 155.97 51.65 156.45 51.19 156.92 50.7 157.36 50.18 157.87 49.73 158.32 49.23 158.78 48.71 159.24 48.22 159.75 47.76 160.24 47.29 160.69 46.77 161.16 46.27 161.66 45.82 162.09 45.29 162.56 44.81 163.12 44.32 163.5 44.44 163.53 45.15 163.57 45.86 163.63 46.58 163.57 47.29 163.59 48.01 163.65 48.72 163.68 49.44 163.65 50.16 163.6 50.87 163.69 51.59 163.65 52.3 163.63 53.02 163.69 53.75 163.7 54.47 163.72 55.19 163.71 55.91 163.66 56.63 163.75 57.34 163.75 58.06 163.76 58.78 163.84 59.5 163.87 60.21 163.82 60.94 164.25 61.12 164.91 61.12 165.58 61.16 166.25 61.22 166.92 61.24 167.58 61.22 168.25 61.26 168.92 61.29 169.59 61.22 170.26 61.24 170.93 61.26 171.6 61.23 172.27 61.34 172.94 61.35 173.62 61.36 174.29 61.28 174.96 61.36 175.64 61.3 176.31 61.32 176.98 61.34 177.65 61.35 178.32 61.39 178.99 61.44 179.65 61.42 179.88 61.78 179.4 62.29 178.92 62.81 178.44 63.33 177.94 63.81 177.51 64.38 177.02 64.88 176.5 65.36 176.08 65.94 175.56 66.41 175.09 66.93 174.61 67.46 174.15 68 173.63 68.48 173.18 69.04 172.64 69.5 172.2 70.07 171.69 70.56 171.25 71.12 170.73 71.61 170.27 72.14 169.81 72.68 169.34 73.22 168.94 73.79 168.91 73.86"/>
  </g>
</svg>