<?xml version="1.0" encoding="UTF-8"?>
<svg id="a" data-name="Layer 1" xmlns="http://www.w3.org/2000/svg" viewBox="0 0 160 128">
  <defs>
    <style>
      .b {
        fill: #242424;
      }
    </style>
  </defs>
  <polygon class="b" points="137 127.56 136.5 127.99 135.83 127.95 135.15 127.98 134.48 127.94 133.8 127.96 133.13 128.01 132.45 128 131.77 127.96 131.1 128.05 130.42 128.03 129.74 128.06 129.06 127.96 128.39 128.08 127.71 127.99 127.03 128.09 126.35 127.96 125.67 128.01 124.99 128.05 124.31 128.06 123.62 128.02 122.94 128.07 122.26 127.95 121.57 128.04 120.89 128.09 120.21 128.02 119.53 128.08 118.85 127.97 118.17 128.03 117.49 128.01 116.81 127.97 116.13 127.93 115.44 128 114.95 127.48 114.48 126.98 113.94 126.55 113.47 126.05 112.93 125.63 112.53 125.04 111.97 124.65 111.56 124.09 111.07 123.61 110.58 123.14 110.06 122.68 109.61 122.17 109.09 121.72 108.62 121.22 108.16 120.7 107.69 120.21 107.24 119.68 106.67 119.28 106.25 118.73 105.7 118.31 105.24 117.79 104.75 117.33 104.3 116.81 103.88 116.25 103.32 115.84 102.9 115.29 102.37 114.86 101.93 114.31 101.43 113.85 100.96 113.34 100.5 112.83 100.05 112.3 99.56 111.83 99.01 111.4 98.57 110.87 98.04 110.42 97.58 109.9 97.09 109.41 96.62 108.91 96.12 108.42 95.66 107.9 95.13 107.46 94.68 106.92 94.24 106.37 93.7 105.93 93.22 105.43 92.8 104.86 92.22 104.47 91.75 103.95 91.34 103.37 90.79 102.94 90.32 102.43 89.81 101.95 89.34 101.44 88.89 100.91 88.35 100.47 87.91 99.92 87.41 99.44 86.93 98.94 86.4 98.49 85.93 97.99 85.49 97.43 84.93 97.02 84.44 96.53 84.01 95.98 83.54 95.48 83.03 95.01 82.54 94.53 82.09 94.01 81.54 93.61 81.1 93.1 80.65 92.6 80.19 92.11 79.73 91.62 79.25 91.15 78.77 90.68 78.34 90.15 77.8 89.76 77.34 89.27 76.96 88.73 76.66 87.84 76.67 87.15 76.66 86.45 76.6 85.76 76.54 85.06 76.42 84.37 76.37 83.68 76.33 82.98 76.11 82.31 76.11 81.6 75.92 80.93 75.73 80.25 75.64 79.56 75.58 78.85 75.3 78.2 75.22 77.5 75.09 76.82 74.82 76.17 74.67 75.48 74.48 74.81 74.24 74.15 74.1 73.47 73.8 72.84 73.64 72.16 73.47 71.49 73.16 70.84 72.98 70.14 72.78 69.45 72.44 68.81 72.21 68.14 72.01 67.44 71.7 66.8 71.37 66.17 71.09 65.51 70.85 64.83 70.57 64.17 70.21 63.56 69.9 62.92 69.56 62.29 69.22 61.66 68.9 61.03 68.63 60.36 68.29 59.74 67.9 59.14 67.55 58.52 67.19 57.91 66.78 57.33 66.47 56.69 66.05 56.12 65.77 55.45 65.36 54.87 64.97 54.28 64.67 53.62 64.3 53.01 63.86 52.45 63.47 51.85 63.1 51.22 63.27 51.02 63.95 51 64.63 50.89 65.32 50.95 66.01 50.89 66.69 50.99 67.38 50.89 68.07 51.01 68.77 50.88 69.45 51.02 70.12 51.02 70.8 50.91 71.48 50.95 72.16 50.97 72.84 51.03 73.52 50.96 74.2 50.91 74.88 51.03 75.56 50.97 76.24 50.92 76.92 50.92 77.59 51 78.27 50.99 78.95 50.89 79.63 50.98 80.31 50.94 81 50.94 81.68 51.02 82.36 50.96 83.05 51.01 83.73 50.97 84.42 50.89 85.1 50.97 85.79 50.98 86.47 50.93 87.15 50.88 87.84 50.94 88.52 50.88 89.21 50.86 89.89 50.87 90.57 50.88 91.26 50.97 91.94 50.89 92.62 50.9 93.3 50.94 93.99 50.94 94.67 50.87 95.35 50.94 96.03 50.99 96.72 50.91 97.39 51.05 98.08 50.93 98.74 51.05 99.24 51.52 99.8 51.94 100.33 52.4 100.75 52.98 101.3 53.42 101.78 53.93 102.27 54.43 102.71 54.98 103.17 55.51 103.68 55.99 104.18 56.49 104.65 57.01 105.09 57.56 105.59 58.06 106.01 58.64 106.52 59.12 106.93 59.71 107.46 60.17 107.94 60.68 108.41 61.19 108.86 61.74 109.26 62.34 109.52 63.01 109.58 63.75 109.17 64.37 108.72 64.89 108.33 65.48 107.82 65.96 107.32 66.44 106.91 67.01 106.43 67.52 105.92 68 105.51 68.57 105.04 69.08 104.49 69.51 104.02 70.03 103.56 70.55 103.1 71.08 102.69 71.65 102.12 72.06 101.73 72.66 101.17 73.08 100.77 73.67 100.29 74.17 99.8 74.67 99.29 75.14 98.8 75.64 98.4 76.21 97.96 76.76 97.42 77.2 97.07 77.77 96.67 78.31 97.1 78.79 97.77 78.81 98.45 78.89 99.13 78.88 99.8 78.96 100.48 78.94 101.16 79.05 101.84 78.98 102.52 79.04 103.2 79.06 103.88 79.02 104.55 79.09 105.23 79.08 105.91 79.06 106.59 79.15 107.27 79.02 107.95 79.06 108.63 79.06 109.31 79.17 109.99 79.12 110.67 79.1 111.35 79.15 112.03 79.11 112.71 79.24 113.39 79.17 114.07 79.2 114.74 79.3 115.42 79.37 115.98 79.73 116.37 80.27 116.6 80.92 116.64 81.62 116.77 82.32 116.7 83.02 116.7 83.72 116.74 84.42 116.81 85.12 116.75 85.82 116.77 86.52 116.84 87.22 116.85 87.92 116.84 88.62 116.87 89.32 116.77 90.02 116.79 90.72 116.89 91.42 116.81 92.12 116.79 92.82 116.83 93.55 116.78 94.28 116.63 95 116.3 95.65 116.08 96.35 115.69 96.97 115.45 97.67 115.15 98.33 114.78 98.96 114.64 99.67 114.59 100.39 114.43 101.1 114.56 101.82 114.56 102.54 114.6 103.27 114.76 103.97 114.91 104.67 115.12 105.36 115.3 106.05 115.48 106.75 115.71 107.42 115.97 108.09 116.11 108.81 116.42 109.46 116.6 110.16 116.93 110.8 117.2 111.46 117.39 112.16 117.78 112.77 118.03 113.43 118.28 114.11 118.68 114.72 118.99 115.38 119.38 115.98 119.73 116.62 120.27 117.09 120.72 117.65 121.28 118.07 121.86 118.47 122.48 118.81 123.17 118.93 123.85 119.05 124.54 119.01 125.24 118.99 125.91 118.79 126.6 118.63 127.25 118.39 127.83 118.09 128.43 117.91 129.03 117.69 129.64 117.51 130.27 117.59 130.89 117.68 131.48 118.05 132.13 118.3 132.62 118.8 133.15 119.25 133.66 119.72 134.08 120.29 134.47 120.88 134.94 121.41 135.19 122.09 135.56 122.69 135.86 123.34 136.1 124.01 136.33 124.69 136.53 125.38 136.73 126.06 136.9 126.76 137.08 127.46 137 127.56"/>
  <polygon class="b" points="100.07 127.85 99.88 128.11 99.2 128.14 98.52 128.16 97.84 128.12 97.16 128.11 96.47 128.14 95.79 128.16 95.1 128.11 94.41 128.13 93.72 128.12 93.05 128.13 92.38 128.1 91.7 128.14 91.03 128.15 90.36 128.11 89.69 128.11 89.02 128.12 88.35 128.12 87.68 128.12 87.01 128.15 86.34 128.14 85.66 128.15 84.99 128.12 84.32 128.13 83.65 128.17 82.97 128.15 82.29 128.13 81.62 128.16 80.94 128.13 80.26 128.13 79.59 128.15 78.91 128.17 78.23 128.12 77.55 128.17 76.87 128.11 76.2 128.11 75.52 128.14 74.84 128.13 74.17 128.11 73.5 128.11 72.82 128.11 72.14 128.15 71.47 128.09 70.8 128.15 70.13 128.09 69.46 128.11 69.31 127.53 69.51 126.93 69.73 126.34 69.92 125.66 70.17 124.99 70.41 124.32 70.62 123.64 70.9 122.98 71.12 122.3 71.43 121.66 71.68 120.99 71.97 120.34 72.23 119.67 72.52 119.02 72.76 118.34 73.08 117.71 73.39 117.06 73.69 116.41 73.96 115.75 74.26 115.1 74.58 114.46 74.92 113.83 75.22 113.18 75.56 112.55 75.88 111.91 76.22 111.29 76.56 110.66 76.93 110.05 77.28 109.43 77.62 108.8 77.95 108.16 78.35 107.58 78.68 106.95 79.06 106.35 79.41 105.72 79.83 105.15 80.2 104.54 80.56 103.93 80.97 103.36 81.36 102.77 81.76 102.19 82.14 101.6 82.62 101.02 83.26 100.76 83.83 101.18 84.3 101.7 84.81 102.17 85.29 102.68 85.77 103.18 86.26 103.66 86.73 104.18 87.22 104.67 87.71 105.17 88.17 105.7 88.66 106.21 89.16 106.7 89.63 107.22 90.15 107.69 90.62 108.21 91.08 108.74 91.55 109.25 91.76 109.84 91.45 110.42 91.06 110.92 90.58 111.42 90.11 111.94 89.64 112.45 89.17 112.96 88.7 113.47 88.23 113.99 87.78 114.54 87.3 115.05 86.84 115.58 86.35 116.08 85.88 116.61 85.44 117.15 84.94 117.64 84.48 118.22 84.22 118.91 84.56 119.56 85.22 119.84 85.94 119.91 86.65 119.96 87.35 119.81 88.03 119.71 88.68 119.46 89.32 119.22 89.96 118.97 90.59 118.7 91.22 118.42 91.86 118.17 92.52 118.01 93.19 117.93 93.85 118.07 94.49 118.3 95.06 118.69 95.62 119.09 96.09 119.61 96.58 120.1 96.97 120.69 97.38 121.26 97.76 121.85 98.09 122.48 98.44 123.09 98.71 123.75 98.98 124.41 99.26 125.06 99.5 125.73 99.74 126.4 99.91 127.09 100.09 127.78 100.07 127.85"/>
  <path class="b" d="M72.88,81.52l-.04-.72-.26-.67v-.73s-.32-.66-.32-.66l-.1-.71-.24-.67-.11-.71-.08-.72-.33-.64-.2-.68-.22-.68-.17-.69-.31-.64-.07-.73-.33-.63-.14-.71-.34-.63-.27-.65-.33-.62-.22-.67-.19-.69-.34-.61-.29-.64-.36-.6-.23-.67-.28-.64-.42-.57-.18-.71-.38-.59-.29-.64-.44-.55-.37-.6-.21-.7-.52-.5-.28-.65-.34-.61-.31-.63-.44-.54-.44-.54-.29-.65-.27-.67-.55-.47-.21-.71-.52-.49-.33-.63-.31-.64-.38-.6-.45-.55-.34-.63-.49-.51-.48-.52-.35-.62-.4-.58-.43-.56-.33-.64-.32-.64-.42-.56-.46-.53-.43-.56-.41-.58-.31-.65-.5-.51-.25-.69-.51-.5-.34-.62-.38-.6-.43-.56-.34-.63-.27-.67-.42-.57-.26-.67-.37-.6-.48-.54-.26-.67-.34-.62-.39-.6-.3-.64-.3-.65-.28-.65-.32-.63-.22-.68-.26-.66-.25-.67-.28-.65-.18-.69-.22-.68-.29-.65-.25-.67-.06-.73-.32-.65-.18-.69v-.74s-.29-.66-.29-.66l-.06-.72-.17-.7-.06-.72-.22-.69.13-.74-.21-.7.1-.73-.1-.71-.15-.71-.06-.72.04-.73.04-.73-.22-.71.03-.73.08-.73.03-.72-.09-.72-.11-.72-.03-.73.22-.73v-.73s-.16-.73-.16-.73l.06-.73v-.73s.18-.72.18-.72l-.07-.73.16-.72v-.74s-.05-.74-.05-.74l.06-.74-.21-.74-.71.03-.59.33-.54.41-.44.54-.61.32-.48.49-.46.51-.41.56-.57.38-.49.47-.46.51-.34.62-.53.44-.37.59-.47.5-.34.61-.52.47-.29.65-.4.56-.35.59-.39.57-.36.59-.33.61-.41.55-.59.34-.6-.28-.39-.54-.41-.52-.53-.41-.29-.64-.51-.43-.54-.39-.46-.47-.46-.47-.45-.52-.48-.49-.59-.33-.52-.42-.55-.38-.52-.44-.56-.38-.54-.41-.58-.35-.63-.24-.64-.21-.55-.43-.68-.09-.56-.41-.65-.17-.59-.34-.66-.12-.64-.19-.67-.05-.66-.1-.64-.19-.66-.04h-.57s-.58.15-.58.15l-.45.47v.74s-.36.64-.36.64l.02.73-.22.68-.12.7-.02.71.05.71-.03.71-.22.7.11.71.04.71.15.7v.71s.06.7.06.7l.07.7.03.71.14.69.16.69.12.7.18.68.2.68.25.66.17.69.43.58.11.72.42.58.22.67.43.56.14.73.35.58-.44.46-.48.42-.6.19-.66.1-.64.19-.63.21-.67.09-.62.26-.58.36-.64.21-.58.36-.68.13-.58.34-.58.34-.59.34-.55.39-.55.4-.63.26-.45.56-.6.31-.62.3-.53.43-.39.6-.61.33-.37.62-.49.46-.19.52.67.27.71-.12.7-.05.71.05.69-.08h.68s.67.14.67.14l.67.04.68-.09.66.18.67.05.69-.07.67.08.67.12.64.29.7-.08.63.3h.69s.66.12.66.12l.65.2.64.25.67.11.65.19.62.32.67.12.63.26.62.3.64.22.68.13.64.25.6.34.58.39.68.15.56.43.6.33.61.3.69.14.54.44.56.41.62.29.61.31.61.31.48.53.64.27.54.43.5.49.58.37.52.45.58.38.5.47.5.48.59.36.48.5.62.33.38.62.5.48.53.45.42.57.55.43.46.52.37.61.6.39.34.63.45.53.4.57.49.5.47.52.33.63.34.62.45.54.34.61.31.64.52.5.18.72.48.53.22.7.48.55.17.73.44.57.26.67.35.62.29.66.36.62.29.65.35.62.26.67.19.7.28.66.34.63.29.65.2.69.13.72.4.62.03.75.42.61.09.72.07.72.37.65.08.7.2.67.14.68v.71s.14.68.14.68l.11.69.27.66-.09.73.25.67.14.69.11.7-.06.72.24.68-.05.71.19.69.02.71-.09.71.09.7.07.71.02.71-.07.71v.71s-.22.69-.22.69l.11.72-.1.7-.18.68-.13.69-.11.7-.13.7-.22.67-.39.6-.18.68-.26.65-.33.61-.35.6-.47.51-.27.67-.53.45-.4.58-.57.43-.61.35-.63.29-.63.28-.6.37-.63.32-.71-.04-.67.15h-.69s-.68.02-.68.02h-.69s-.69-.07-.69-.07l-.64-.29-.64-.24-.7-.12-.61-.35-.52-.5-.57-.4-.56-.44-.35-.66-.58-.45-.36-.63-.4-.61-.13-.75-.33-.64-.16-.71-.25-.69.03-.74-.11-.72.09-.72-.05-.74.32-.66.19-.68.15-.7.31-.64.18-.7.37-.61.38-.59.49-.5.43-.57.48-.53.68-.26.51-.51.61-.36.62-.34.69-.13.67-.21.7-.05.68-.21.7.12h.69s.69.01.69.01l.71-.06.67.24.68.13.64.3.66.22.68.18.47-.51-.02-.73.15-.76-.14-.74-.06-.75v-.74s-.27-.7-.27-.7v-.72s-.1-.71-.1-.71v-.73s-.32-.67-.32-.67l-.11-.71-.06-.72-.06-.72-.25-.67-.14-.7-.16-.7-.22-.68-.23-.68-.1-.72-.35-.64-.26-.67-.14-.71-.18-.7-.32-.64-.35-.63-.11-.73-.4-.61-.11-.74-.32-.64-.39-.61-.22-.69-.34-.63-.37-.61-.23-.69-.5-.53-.16-.74-.51-.52-.34-.62-.35-.62-.34-.62-.43-.56-.47-.53-.43-.55-.39-.6-.44-.55-.52-.47-.48-.5-.61-.35-.68-.14-.69-.05-.69.05-.68.05-.68.13-.69-.04h-.7s-.67.27-.67.27l-.71-.06-.66.25-.7.03-.66.22-.66.23-.69.1-.65.27-.71.04-.67.18-.61.39-.62.34-.7.13-.6.38-.7.13-.64.3-.55.45-.65.23-.57.4-.63.27-.55.43-.63.29-.5.51-.62.31-.55.43-.6.35-.47.54-.54.44-.58.39-.53.45-.48.52-.45.55-.58.4-.39.6-.55.43-.38.61-.54.46-.4.59-.51.49-.43.55-.39.59-.33.63-.5.51-.35.62-.44.55-.27.67-.31.64-.42.57-.19.71-.38.6-.39.6-.19.7-.32.63-.39.6-.13.72-.22.68-.34.63-.11.72-.38.62-.18.69-.17.7-.06.72-.17.69-.18.69-.2.68-.17.69.03.73-.19.69v.72s-.29.68-.29.68l.16.73-.09.71-.11.71-.16.71.02.72.02.72.17.71-.03.71-.08.72v.72s.08.71.08.71l.24.69.1.71-.04.73.22.69v.73s.22.68.22.68v.73s.15.7.15.7l.23.68.07.72.35.64.2.68v.74s.25.67.25.67l.2.69.41.6.22.68.26.66.24.67.25.66.33.63.16.71.4.59.34.62.34.62.24.68.36.61.37.6.35.62.42.57.41.57.37.6.44.55.46.53.47.52.52.47.5.49.35.64.62.35.42.58.54.43.5.49.5.49.55.42.5.5.56.42.64.3.46.56.59.37.66.26.46.58.6.35.59.37.63.28.55.44.62.31.65.23.64.26.56.43.64.25.66.2.61.33.62.29.62.31.63.28.67.15.66.17.69.07.62.33.66.17h.7s.66.17.66.17l.66.19.68.05h.68s.67.14.67.14l.68.07.68.06.68-.05.67.25.68-.21.68.14h.68s.68-.05.68-.05l.67-.2.69.15.66-.24h.68s.67-.16.67-.16l.67-.1.7.07.64-.28.7.02.62-.39.69-.02.68-.08.66-.21.6-.4.67-.13.67-.12.62-.29.61-.32.63-.26.66-.19.65-.21.65-.22.52-.51.69-.15.58-.38.62-.31.6-.34.59-.36.52-.48.56-.41.54-.44.64-.29.48-.52.65-.29.5-.49.47-.52.56-.41.47-.51.4-.59.56-.42.56-.42.43-.56.4-.59.43-.55.49-.5.42-.56.34-.62.48-.51.3-.65.36-.6.52-.5.21-.7.46-.54.29-.65.26-.67.34-.62.27-.66.38-.6.38-.6.17-.7.3-.64.18-.69.23-.67.25-.66.14-.7.29-.65.11-.71.27-.66.12-.71.09-.71.16-.69.1-.71.22-.69.13-.7.02-.72-.07-.73.17-.7.08-.71.04-.71.05-.71.03-.71.06-.72-.02-.72-.1-.71.07-.72-.19-.71-.02-.71.03-.72-.04-.72-.08-.71-.26-.68-.07-.71-.14-.7-.02-.73-.09-.17Z"/>
  <polygon class="b" points="148.86 63.31 149.3 63.85 149.79 64.33 150.2 64.89 150.67 65.38 151.13 65.88 151.59 66.39 152.04 66.9 152.53 67.37 152.98 67.9 153.42 68.43 153.89 68.92 154.38 69.39 154.86 69.9 155.33 70.4 155.76 70.95 156.29 71.38 156.74 71.92 157.22 72.4 157.66 72.93 158.12 73.45 158.6 73.94 159.03 74.48 159.52 74.96 159.95 75.49 159.75 75.7 159.05 75.69 158.37 75.74 157.68 75.75 156.98 75.75 156.3 75.71 155.61 75.77 154.92 75.75 154.23 75.75 153.54 75.83 152.85 75.78 152.16 75.78 151.46 75.84 150.77 75.84 150.07 75.86 149.38 75.89 148.69 75.84 147.99 75.92 147.3 75.86 146.6 75.92 145.92 75.94 145.23 75.96 144.54 75.96 143.9 76.12 143.77 76.78 143.73 77.51 143.71 78.21 143.74 78.9 143.74 79.59 143.73 80.28 143.68 80.98 143.68 81.67 143.63 82.37 143.67 83.06 143.65 83.76 143.59 84.46 143.62 85.16 143.6 85.86 143.55 86.56 143.6 87.26 143.59 87.96 143.59 88.66 143.51 89.36 143.55 90.06 143.49 90.74 143.57 91.52 143.53 92.3 143.35 92.98 142.88 92.49 142.35 92.07 141.85 91.6 141.41 91.07 140.91 90.62 140.48 90.08 139.98 89.62 139.49 89.15 138.99 88.69 138.55 88.16 138.06 87.68 137.57 87.21 137.1 86.71 136.63 86.2 136.12 85.73 135.69 85.19 135.2 84.72 134.68 84.26 134.24 83.73 133.74 83.27 133.3 82.72 132.83 82.25 132.34 81.73 131.73 81.36 131.15 81.76 130.66 82.28 130.19 82.78 129.7 83.27 129.2 83.73 128.74 84.26 128.28 84.78 127.78 85.25 127.26 85.71 126.79 86.23 126.31 86.73 125.81 87.22 125.31 87.7 124.82 88.21 124.33 88.7 123.9 89.26 123.41 89.74 122.92 90.25 122.38 90.68 121.95 91.21 121.39 91.79 120.78 92.31 120.16 92.82 119.97 92.22 119.91 91.59 119.97 90.95 119.92 90.32 119.94 89.6 119.93 88.88 119.84 88.16 119.92 87.44 119.9 86.72 119.86 86 119.84 85.28 119.86 84.56 119.82 83.83 119.8 83.11 119.76 82.38 119.77 81.66 119.73 80.94 119.75 80.21 119.77 79.48 119.74 78.76 119.72 78.04 119.7 77.32 119.67 76.47 119.18 75.95 118.49 75.9 117.8 75.91 117.12 75.93 116.43 75.87 115.74 75.88 115.05 75.89 114.36 75.82 113.68 75.9 112.99 75.83 112.3 75.87 111.61 75.82 110.91 75.8 110.22 75.8 109.52 75.82 108.83 75.81 108.14 75.8 107.45 75.71 106.76 75.69 106.07 75.76 105.43 75.73 104.78 75.64 104.13 75.72 103.52 75.54 104 75.02 104.41 74.45 104.88 73.92 105.37 73.43 105.87 72.94 106.31 72.39 106.76 71.86 107.25 71.35 107.75 70.87 108.18 70.31 108.67 69.81 109.14 69.28 109.63 68.77 110.12 68.27 110.58 67.72 111.11 67.25 111.59 66.74 112.02 66.18 112.5 65.67 113.02 65.19 113.46 64.64 113.95 64.13 114.4 63.61 114.33 62.9 113.85 62.38 113.37 61.88 112.91 61.34 112.5 60.77 112.01 60.26 111.48 59.81 111.04 59.26 110.55 58.75 110.07 58.24 109.63 57.7 109.16 57.17 108.69 56.64 108.19 56.14 107.7 55.64 107.21 55.14 106.71 54.64 106.28 54.08 105.79 53.57 105.34 53.02 104.82 52.55 104.41 51.97 103.93 51.47 103.93 50.83 104.75 50.81 105.43 50.81 106.11 50.84 106.78 50.78 107.46 50.81 108.14 50.77 108.81 50.79 109.5 50.81 110.18 50.73 110.86 50.75 111.54 50.69 112.19 50.68 112.85 50.75 113.5 50.73 114.15 50.71 114.8 50.66 115.46 50.69 116.12 50.61 116.78 50.67 117.43 50.64 118.09 50.69 118.74 50.63 119.39 50.58 119.74 49.84 119.78 49.12 119.69 48.39 119.78 47.67 119.79 46.95 119.76 46.22 119.77 45.5 119.81 44.78 119.81 44.05 119.86 43.33 119.83 42.61 119.87 41.88 119.81 41.15 119.88 40.42 119.88 39.69 119.89 38.96 119.85 38.23 119.9 37.51 119.86 36.78 119.87 36.05 119.89 35.33 119.94 34.6 119.95 33.88 120.23 33.63 120.73 34.11 121.23 34.6 121.76 35.06 122.24 35.57 122.71 36.09 123.23 36.56 123.7 37.07 124.14 37.63 124.65 38.1 125.12 38.63 125.63 39.12 126.12 39.64 126.58 40.18 127.07 40.69 127.64 41.12 128.12 41.64 128.6 42.16 129.12 42.64 129.56 43.2 130.09 43.65 130.59 44.15 131.12 44.6 131.57 45.14 132.17 44.89 132.63 44.42 133.11 43.98 133.53 43.47 134.04 43.04 134.47 42.5 134.97 42.05 135.4 41.53 135.92 41.1 136.4 40.64 136.87 40.15 137.31 39.63 137.82 39.18 138.28 38.68 138.73 38.16 139.2 37.67 139.7 37.21 140.19 36.74 140.64 36.22 141.11 35.72 141.61 35.27 142.04 34.74 142.51 34.26 143.07 33.77 143.45 33.89 143.48 34.6 143.52 35.31 143.58 36.03 143.52 36.74 143.54 37.46 143.6 38.17 143.63 38.89 143.6 39.61 143.56 40.32 143.65 41.04 143.6 41.75 143.59 42.47 143.64 43.2 143.65 43.92 143.67 44.64 143.66 45.36 143.61 46.08 143.7 46.79 143.7 47.51 143.71 48.23 143.79 48.95 143.82 49.66 143.78 50.39 144.2 50.57 144.86 50.57 145.53 50.61 146.2 50.67 146.87 50.69 147.54 50.67 148.2 50.71 148.87 50.74 149.54 50.67 150.21 50.69 150.88 50.71 151.55 50.68 152.22 50.79 152.89 50.8 153.57 50.81 154.24 50.72 154.92 50.81 155.59 50.75 156.26 50.77 156.93 50.79 157.6 50.8 158.27 50.84 158.94 50.89 159.6 50.87 159.83 51.23 159.36 51.74 158.87 52.26 158.39 52.78 157.89 53.26 157.46 53.83 156.97 54.33 156.45 54.81 156.03 55.39 155.51 55.86 155.04 56.38 154.57 56.91 154.1 57.45 153.58 57.93 153.13 58.49 152.59 58.95 152.16 59.52 151.64 60.01 151.2 60.57 150.69 61.06 150.22 61.59 149.76 62.13 149.29 62.67 148.89 63.24 148.86 63.31"/>
</svg>