<?xml version="1.0" encoding="UTF-8"?>
<svg id="a" data-name="Layer 1" xmlns="http://www.w3.org/2000/svg" viewBox="0 0 182 118.05">
  <defs>
    <style>
      .b {
        fill: #fff7ed;
      }
    </style>
  </defs>
  <path class="b" d="M170.82,3.28l-.35.66-.38.63-.16.72-.26.68-.26.68-.29.67-.16.71-.25.68-.26.68-.32.65-.16.72-.31.66-.3.67-.22.7-.12.74-.38.64-.27.68-.18.71-.32.65-.27.68-.27.67-.21.71-.54.55-.37-.64-.42-.59-.36-.63-.33-.65-.42-.59-.44-.57-.42-.59-.45-.57-.55-.48-.42-.59-.5-.52-.44-.57-.54-.48-.51-.51-.58-.43-.48-.54-.61-.38-.47-.57-.59-.41-.65-.32-.64-.32-.56-.46-.68-.25-.65-.3-.67-.26-.66-.28-.65-.34-.7-.18-.69-.2-.72-.08-.72-.04-.71-.11-.71-.16-.72-.07-.72.08-.71.09h-.72s-.73-.02-.73-.02l-.71.12-.69.24-.72.07-.69.21-.68.25-.71.12-.69.21-.67.27-.71.16-.65.31-.62.37-.67.25-.63.34-.61.37-.71.19-.61.38-.63.34-.57.45-.67.29-.56.46-.57.43-.63.34-.57.44-.56.46-.58.42-.65.34-.58.43-.55.47-.54.48-.57.44-.56.45-.53.49-.58.43-.54.48-.48.54-.58.44-.51.58-.24-.72-.13-.71-.26-.67-.18-.69-.21-.68-.13-.7-.23-.67-.1-.7-.19-.68-.07-.71-.28-.66-.27-.65-.09-.72-.3-.64-.39-.59-.32-.62-.27-.66-.49-.52-.38-.6-.48-.52-.58-.42-.51-.49-.57-.42-.47-.55-.59-.4-.61-.37-.68-.26-.59-.46-.71-.18-.64-.36-.72-.13-.7-.18-.69-.25-.7-.21-.73-.02-.72-.08-.71-.19-.72-.1-.72-.07-.73-.05-.73.09-.73-.06-.73-.02-.72.11-.72.03-.73-.05-.72.05-.72.09-.73.03-.72.13h-.73s-.72.11-.72.11l-.71.15-.72.09-.71.14-.73.02-.7.21-.72.11-.7.2-.73.05-.7.21-.74.03-.7.22-.7.19-.72.12-.72.09-.7.19-.72.14-.71.17-.74.02-.68.29-.73.07-.71.14-.7.22h-.73s-.7.17-.7.17l-.71.1-.67.26-.72.08-.65.32-.69.2-.69.18-.7.17-.65.31-.72.11-.65.3-.71.12-.63.36-.7.18-.71.13-.68.23-.68.24-.63.37-.72.12-.69.19-.67.24-.66.28-.69.21-.67.26-.66.27-.68.24-.65.3-.69.2-.68.23-.63.37-.68.22-.65.3-.68.23-.69.2-.62.37-.71.16-.67.26-.66.29-.64.32-.64.32-.69.22-.65.31-.67.25-.67.27-.66.28-.66.28-.67.25-.67.27-.61.4-.71.18-.66.29-.62.38-.7.19-.6.42-.72.14-.63.35-.62.37-.66.28-.64.33-.68.24-.66.28-.62.37-.68.25-.7.2-.59.45-.67.26-.66.28-.63.35-.7.2-.66.29-.6.42-.7.21-.61.4-.69.22-.64.33-.65.31-.67.26-.59.44-.72.16-.64.33-.63.36-.63.34-.65.31-.64.34-.71.19-.58.45-.68.26-.61.39-.69.22-.61.39-.64.34-.71.19-.66.29-.61.4-.62.37-.65.31-.67.27-.65.31-.67.28-.6.42-.7.21-.61.39-.64.33-.66.29-.62.36-.62.36-.69.22-.62.36-.61.38-.64.32-.71.19-.57.45-.68.25-.66.28-.65.29-.6.38-.08.7.28.65.34.66.6.45.54.51.65.35.64.36.66.28.64.34.71.14.67.29.72.07h.72s.71.14.71.14l.71-.15.73.06.69-.26.74.03.69-.2.65-.33.7-.18.67-.27.69-.2.6-.41.69-.21.65-.31.65-.31.56-.48.7-.22.54-.49.63-.35.68-.27.61-.38.63-.34.56-.47.66-.3.61-.39.64-.32.57-.45.66-.29.64-.32.63-.36.69-.23.63-.35.67-.26.71-.13.69-.19.72.05.71.03.73.02.38.51-.29.63-.59.41-.51.53-.66.29-.64.33-.62.35-.61.38-.66.29-.62.36-.6.41-.67.27-.69.23-.62.39-.65.32-.71.19-.62.38-.69.21-.63.36-.64.33-.67.25-.7.18-.6.33.07.72.37.64.31.66.54.49.57.43.62.36.65.34h.74s.72.15.72.15l.73-.02.72-.09.7-.22.72-.07.67-.29.68-.25.72-.13.69-.23.65-.34.64-.34.65-.31.67-.27.68-.26.67-.27.59-.44.68-.26.62-.38.7-.22.6-.42.66-.3.62-.37.6-.42.71-.21.62-.38.57-.47.68-.27.67-.3.57-.46.69-.25.6-.42.66-.31.59-.44.67-.29.68-.27.64-.34.66-.31.61-.42.72-.16.64-.35.66-.31.73-.09.69-.2.71-.11.71-.02.72.16-.52.55-.57.44-.62.36-.57.44-.58.43-.6.41-.67.29-.61.39-.64.35-.62.36-.62.37-.58.44-.62.37-.61.39-.65.32-.68.28-.6.42-.65.34-.59.45-.62.38-.65.32-.66.3-.63.36-.63.36-.61.4-.62.38-.7.24-.59.42-.66.31-.6.43-.62.37-.64.32-.62.37-.18.64.37.59.62.37.69.22.65.32.74.02.7.17.69.22h.73s.71.18.71.18l.73.02.72-.13.73.03.71-.13.71-.12.71-.14.68-.25.73-.09.67-.29.65-.33.71-.17.66-.29.67-.28.64-.33.72-.15.59-.44.72-.17.6-.42.71-.19.64-.34.63-.36.72-.17.62-.38.69-.24.66-.3.7-.19.68-.23.66-.32.69-.22.72-.1.67-.29.71-.13h.73s.69-.25.69-.25l.73.09.72-.13.72.08.72-.03.72.08.67.26.72.13.69.23.64.35.63.37.53.48.52.52.16.73-.3.68-.5.52-.53.48-.53.5-.64.33-.64.33-.64.33-.62.38-.66.28-.66.28-.7.21-.66.29-.71.14-.65.31-.67.27-.7.19-.69.2-.67.28-.73.08-.68.26-.68.28-.71.16-.7.21-.73.11-.71.12-.67.28-.72.09-.68.24-.72.09-.7.2-.72.11-.68.26-.72.06-.69.22-.71.13-.71.08-.71.08-.72.04-.72.03-.71.18h-.72s-.72-.09-.72-.09l-.72.07-.72-.04-.72.07h-.72s-.72-.12-.72-.12l-.73.09-.72-.04-.71-.19-.72-.04h-.73s-.72-.03-.72-.03l-.72-.03-.71-.2-.73.05-.72-.12h-.73s-.72-.13-.72-.13l-.73.02-.72-.15-.73.02-.72-.09-.73-.07-.72-.09-.73.06-.72-.16-.73.11-.72-.09-.73.06-.72-.04h-.73s-.73-.1-.73-.1l-.73.03-.72.04h-.73s-.73.16-.73.16l-.74-.02-.74-.02-.73.07-.73.04-.73.09-.74-.11-.73.07-.74.06-.74.05-.74.07-.74.09-.72.18-.72.16-.75-.03-.7.25-.73.13-.69.27-.62.4-.4.58-.08.71-.05.74.08.73.07.73.15.72.16.72.05.74.13.73.21.71.28.69.09.75.38.65.26.68.43.62.64-.34.66-.28.64-.33.71-.13.68-.22.65-.32.69-.21.72-.07.69-.17.71-.11.69-.2.7-.15.72-.04.7-.15.71-.09.71-.06.71-.02.71-.04.71-.08.71-.03.71.04.71-.09h.71s.71.03.71.03l.71.09.72-.03.72.02.7.18.72.02.7.16.79.03-.77.14-.69.18-.71.06-.71.08-.71.06-.69.25-.72.02-.72-.02-.7.16-.7.16h-.72s-.71.04-.71.04l-.7.15-.7.17h-.73s-.69.17-.69.17l-.72.03-.68.23-.71.11-.7.15-.68.24-.68.22-.69.2-.66.27-.65.31-.66.27-.6.39-.51.5-.52.48-.52.49-.3.65-.28.7.37.65.32.66.27.68.39.62.32.65.35.64.3.66.29.67.35.64.26.69.33.65.41.61.33.65.19.72.48.58.27.68.34.65.33.65.28.68.28.68.27.68.38.64.34.66.3.7.6-.5.54-.48.56-.46.58-.44.5-.53.51-.52.62-.39.54-.48.52-.51.67-.32.55-.47.53-.51.69-.28.6-.41.53-.52.7-.24.6-.42.61-.41.67-.29.72-.16.63-.37.69-.22.67-.3.74-.06.7-.18.71-.18h.73s.72-.04.72-.04l.71-.09-.6.37-.6.4-.65.32-.6.39-.64.33-.55.48-.62.36-.62.37-.68.27-.61.39-.57.45-.7.25-.53.51-.64.35-.58.43-.56.46-.65.34-.58.44-.58.45-.46.58-.53.49-.61.41-.46.56-.48.54-.48.54-.42.59-.41.6-.24.69-.4.61-.31.66.34.69.18.73.37.63.35.65.37.64.48.57.32.67.51.54.36.65.56.5.47.57.44.6.5.55.59.46.5.55.67.27.69-.11.65-.31.66-.28.7-.18.68-.23.61-.41.66-.28.68-.23.66-.28.64-.32.66-.27.67-.26.6-.41.65-.31.62-.37.64-.33.66-.28.6-.4.62-.37.61-.37.62-.36.62-.36.66-.29.6-.39.6-.39.57-.44.59-.41.65-.32.58-.43.57-.43.61-.39.6-.4.52-.51.65-.32.57-.43.5-.54.59-.41.57-.44.66-.32.55-.46.51-.51.58-.42.58-.43.54-.47.59-.42.49-.53.6-.41.62-.38.52-.5.52-.5.62-.38.51-.51.49-.54.59-.41.53-.49.57-.44.57-.43.5-.56h.73s.71-.03.71-.03l.71.05.7-.13.72.06.7-.17.7-.12.71-.06.71-.08.71-.04.68-.25.71-.07.7-.13.71-.08.71-.06.71-.08.69-.2.72.02.7-.15.72.02.71-.07.71-.14.71.05.71.04h.71s.71.05.71.05l.7.11.69.15.69.16.7.15.68.22.67.25.64.47.67.43.29.74.02.77-.04.78-.41.6-.45.55-.52.51-.63.36-.64.34-.65.34-.73.12-.68.26-.66.3-.7.2-.71.14-.66.32-.7.2-.71.15-.67.29-.73.11-.67.3-.7.19-.71.18-.68.28-.62.41-.69.24-.66.32-.65.34-.54.51-.59.41-.62.38-.5.53-.48.54-.45.57-.41.59-.32.65-.41.62-.16.72-.06.73-.15.71-.05.72.7-.17.68-.26.72-.12.65-.36.72-.11.72-.13.68-.27.68-.26.74-.05.71-.17.67-.29.7-.18.71-.15.71-.14.67-.3.73-.09.68-.29.73-.12.71-.17.72-.11.68-.28.71-.17.7-.19.73-.08.7-.21.7-.2.72-.11.7-.2.72-.1.73-.07.71-.19.72-.09h.72s.64,0,.64,0l-.25.67-.51.52-.62.38-.59.41-.6.41-.66.3-.68.24-.73.1-.67.27-.68.22-.71.14-.71.13-.69.21-.69.23-.7.19-.71.15-.71.12-.71.11-.72.06-.71.11-.68.25-.72.09-.71.14-.7.17-.71.15-.71.13-.71.14-.72.12-.7.21-.69.24-.7.18-.73.09-.68.28-.7.17-.68.26-.72.14-.69.22-.66.3-.65.31-.67.27-.6.41-.66.3-.54.49-.61.38-.5.53-.56.46-.45.57-.44.58-.22.69-.37.62-.21.69-.07.72-.03.72.09.72-.05.77.74-.19.69-.14.72-.04.66-.28.72-.03.67-.21.68-.18.66-.25.68-.19.68-.18.68-.22.67-.24.72-.1.7-.15.69-.19.66-.3.71-.12.68-.21.69-.17.7-.15.71-.04.69-.1.59.05-.11.67-.27.68-.52.51-.56.46-.63.36-.64.34-.67.26-.68.25-.72.09-.67.27-.69.22-.72.1-.7.18-.71.1-.7.18-.71.11-.69.2-.69.2-.71.09-.7.18-.72.09-.7.18-.7.16-.73.07-.68.27-.7.17-.68.24-.7.19-.7.18-.67.28-.7.18-.67.27-.63.36-.66.29-.55.48-.63.35-.65.33-.51.52-.5.52-.44.57-.42.58-.39.6-.4.6-.14.71-.2.68-.26.68.07.73-.17.72.04.72.11.72.53.47.63.2h.69s.71-.04.71-.04l.7-.16.64-.32.64-.31.69-.18.63-.36.71-.12.69-.22.72-.11.66-.29.72-.08.69-.19.7-.18.65-.35.7-.17.72-.09.66-.33.69-.19.73-.06.66-.32.69-.2.7-.19.72-.08.69-.21.67-.29.69-.19.69-.21.73-.05.65-.36.73-.08.7-.16.65-.35.7-.16.72-.09.65-.33.71-.14.68-.24.7-.18.72-.09.65-.34.68-.22.73-.06.65-.33.72-.1.68-.24.71-.14.69-.2.67-.28.7-.18.68-.23.67-.26.7-.16.71-.15.67-.26.67-.26.7-.18.68-.23.69-.2.66-.3.72-.1.7-.17.68-.24.67-.28.71-.14.64-.38.7-.19.68-.22.68-.22.7-.16.71-.15.66-.29.69-.19.65-.31.69-.21.67-.28.73-.09.63-.37.69-.2.66-.3.72-.13.67-.26.7-.18.65-.31.68-.24.66-.3.72-.14.67-.26.68-.23.65-.31.66-.3.73-.09.68-.25.65-.31.66-.3.71-.16.63-.36.66-.29.72-.13.62-.39.68-.23.71-.16.61-.43.7-.19.7-.19.66-.28.64-.32.64-.32.71-.14.62-.38.68-.21.63-.32.69-.2.65-.28.66-.27.6-.39.66-.27.68-.22.59-.41.63-.33.69-.22.66-.28.63-.34.58-.43.66-.27.66-.29.62-.35.56-.46.63-.34.62-.35.68-.25.58-.42.6-.39.62-.36.55-.47.62-.37.63-.36.58-.42.58-.42.58-.42.58-.43.6-.39.58-.43.58-.43.51-.51.59-.42.45-.57.57-.44.54-.48.44-.58.54-.48.52-.5.5-.51.41-.6.5-.52.49-.53.38-.61.47-.55.33-.64.41-.59.38-.61.28-.67.32-.64.27-.67.22-.69.16-.7.34-.65.18-.7.04-.72.14-.71v-.72s-.03-.72-.03-.72l-.02-.71v-.72s-.17-.7-.17-.7l-.12-.7-.16-.69-.07-.72-.27-.67-.31-.65-.32-.64-.27-.66-.3-.65-.39-.6-.37-.62-.33-.64-.39-.6-.52-.51-.04-.73-.21-.7.08-.72.03-.72.05-.72v-.73s.17-.71.17-.71l.1-.71.14-.7.13-.7.1-.71.07-.72.26-.68.17-.7.15-.71.2-.69.12-.72.16-.71.27-.67.12-.72.27-.67.26-.68.22-.69.22-.69.21-.7.41-.62.22-.69.19-.71.29-.67.29-.67.34-.65.35-.64.19-.72.34-.64.36-.64.24-.7.43-.6.33-.65.41-.61.33-.65.37-.63.43-.59.37-.63.44-.58.53-.5.36-.64.49-.54.54-.49.58-.44.57-.44.55-.47.59-.42.63-.37.73-.11.69-.17.71-.16.72.11.73.04.68.27.6.42-.12.7-.34.63-.31.64-.26.66-.28.69-.66-.45-.64-.45-.78-.07-.75-.14-.73.12-.72.16-.7.27-.55.51-.55.49-.51.56-.19.73-.25.7-.09.74.11.67.05.69.34.6.33.59.5.45.47.48.54.37-.3.53-.14.62-.16.6-.09.62.1.74.21.71.18.74.48.58.53.53.61.43.68.32.71.25.75.07.74-.13.75-.12.65-.38.54-.51.64-.41.43-.63.33-.68.09-.75.06-.74v-.14s.32.03.32.03l.74-.04.69-.27.73-.19.6-.46.44-.61.45-.58.42-.63.06-.76.05-.73-.08-.73-.08-.75-.31-.69-.5-.56-.44-.62-.63-.43-.69-.31-.73-.2-.75.04-.74-.04.19-.64.37-.64.38-.63.17-.73.36-.64.4-.62.24-.7.34-.66.42-.62.33-.66.2-.73.47-.59.35-.65.3-.68.42-.61.27-.69.54-.44.68-.16.69-.06.69-.15.7-.04h.71s.71-.01.71-.01l.71-.06.7-.09.7-.11.7-.05.55-.38-.42-.57-.57-.42-.65-.29-.6-.39-.69-.24-.41-.6-.19-.6.67-.14.72.04.7-.16.7-.13.71-.08.71-.06.72-.04.7-.17.69-.21.57-.42.09-.61-.52-.49-.62-.35-.68-.22-.62-.34-.68-.22-.63-.34-.65-.29-.69-.18-.69-.2-.67-.25-.65-.28-.64-.31-.68-.23-.66-.28-.66-.25-.67-.26-.68-.27ZM142.73,18.73l-.56-.23-.42-.45-.44-.4-.53-.51-.53-.51-.53-.51-.5-.54-.5-.55-.55-.51.5-.54.48-.55.54-.5.51-.54.61-.44.47-.58.42-.47.57-.28.45-.33-.46.55-.36.69-.13.77-.29.71-.06.77-.04.76v.75s.14.73.14.73l.16.73.2.73.48.59.35.65ZM149.39,17.74l-.56.29-.48.36-.51.36.44-.62.31-.68.25-.7.17-.72.09-.74.1-.74-.1-.76-.11-.75-.17-.74-.15-.76-.36-.68-.43-.55.5.23.48.42.41.48.51.53.54.5.62.43.48.57.49.56.63.5-.65.47-.43.61-.59.45-.47.58-.51.54-.49.56ZM157.82,27.56l.18-.72.37-.64.6-.46.75-.15.75.14.55.52.51.55v.75s-.03.74-.03.74l-.5.55-.57.45-.72.19-.75-.11-.65-.41-.35-.68-.15-.73ZM161.33,35.76l-.74-.19-.62-.43-.46-.61v-.76s.06-.73.06-.73l.41-.62.63-.4.72-.25.74.21.55.49.52.54.06.75-.12.73-.4.63-.59.47-.75.16ZM165.88,27.52l.77.02.64.44.44.65.12.77-.17.75-.5.55-.53.56-.77-.03-.72-.09-.58-.44-.45-.58-.18-.72.24-.7.39-.6.57-.45.72-.13Z"/>
</svg>