<?xml version="1.0" encoding="UTF-8"?>
<svg id="a" data-name="Layer 1" xmlns="http://www.w3.org/2000/svg" viewBox="0 0 600.01 314.03">
  <defs>
    <style>
      .b {
        fill: #242424;
      }
    </style>
  </defs>
  <path class="b" d="M352.22,176.62c-.13-.21-.23-.42-.31-.64s-.14-.46-.17-.69-.07-.48-.05-.72.1-.47.18-.7.15-.46.27-.66.28-.39.44-.57.35-.31.56-.45.39-.27.62-.35c.33-.13.33-.1.66-.23s.33-.12.65-.24.31-.16.64-.28.33-.1.66-.23.32-.13.65-.26.32-.13.65-.25.31-.15.64-.28.34-.09.67-.21.32-.14.65-.27.33-.13.66-.25.33-.11.66-.23.32-.16.65-.29.34-.11.68-.24.33-.14.66-.27.33-.13.67-.26.34-.11.68-.24.33-.15.66-.28.34-.12.67-.25.34-.12.67-.25.33-.13.67-.26.33-.14.66-.27.34-.12.67-.25.33-.14.66-.27.34-.12.67-.25.33-.14.67-.27.33-.14.67-.27.34-.11.68-.24.34-.13.67-.25.34-.11.68-.24.32-.17.66-.3.34-.12.67-.25.35-.1.68-.23.33-.15.66-.28.33-.14.66-.26.34-.11.67-.24.34-.11.67-.24.32-.16.66-.28.35-.1.68-.23.33-.14.67-.27.33-.15.66-.28.34-.12.67-.24.34-.12.67-.25.33-.14.67-.27.34-.13.67-.26.33-.15.67-.28.35-.1.69-.23.32-.17.66-.3.33-.13.67-.26.34-.11.68-.24.33-.15.67-.28.34-.13.68-.26.35-.09.69-.22.33-.15.67-.28c.26-.1.46-.28.59-.48.15-.22.22-.47.22-.73s-.05-.52-.2-.74c-.14-.2-.36-.34-.62-.44-.33-.13-.32-.15-.65-.28s-.34-.11-.67-.24-.33-.13-.66-.26-.32-.15-.65-.28-.34-.1-.67-.23-.32-.17-.65-.3-.35-.09-.68-.21-.32-.14-.66-.27-.33-.13-.66-.26-.33-.13-.66-.26-.34-.12-.67-.24-.32-.16-.65-.29-.35-.09-.68-.22-.32-.17-.65-.3-.35-.08-.68-.21-.33-.14-.66-.27-.32-.15-.65-.28-.35-.09-.68-.22-.33-.13-.66-.25-.32-.15-.66-.28-.34-.11-.67-.24-.33-.14-.66-.27-.33-.14-.66-.27-.34-.1-.68-.23-.33-.14-.66-.27-.34-.11-.67-.24-.32-.15-.66-.28-.34-.11-.67-.24-.32-.15-.66-.28-.33-.13-.67-.26-.33-.13-.67-.26-.33-.13-.67-.26-.34-.11-.67-.24-.32-.15-.65-.28-.33-.13-.66-.26-.33-.12-.67-.25-.33-.13-.67-.25-.33-.15-.66-.27-.34-.12-.67-.25-.33-.13-.67-.26-.34-.12-.67-.25-.34-.11-.67-.24-.34-.11-.68-.24-.32-.18-.65-.3-.33-.13-.67-.26-.34-.12-.67-.25-.33-.13-.67-.26-.34-.11-.68-.24-.34-.1-.68-.23-.34-.13-.67-.26-.32-.17-.66-.3-.35-.09-.69-.22-.32-.17-.66-.3c0,0-.02.04-.02.04-.23-.09-.43-.23-.62-.36s-.41-.26-.57-.44-.28-.39-.4-.6-.23-.42-.3-.65-.14-.46-.17-.7,0-.48.02-.72.08-.47.17-.7.21-.42.34-.63c.2-.3.16-.32.36-.62s.21-.29.4-.59.18-.31.38-.61.22-.28.42-.58.16-.32.36-.62.22-.28.42-.58.2-.3.39-.6.17-.32.37-.62.2-.3.4-.6.22-.29.42-.59.17-.32.36-.62.2-.3.39-.61.21-.3.4-.6.21-.3.4-.6.17-.32.36-.63.2-.3.4-.6.23-.28.42-.59.19-.31.38-.61.19-.31.39-.61.19-.31.38-.62.22-.29.42-.6.17-.33.37-.63.21-.29.4-.58.17-.31.36-.61.2-.29.39-.59.2-.29.39-.59.18-.3.37-.6.2-.29.4-.58.19-.3.38-.59.18-.3.38-.6.2-.29.39-.59.19-.3.38-.6.22-.28.41-.57.19-.3.38-.59.17-.31.36-.6.18-.3.37-.6.21-.29.4-.58.2-.29.39-.59.2-.3.39-.59.17-.31.36-.61.2-.29.39-.59.2-.29.4-.59.19-.3.38-.6.22-.28.41-.58.19-.3.38-.6.16-.32.35-.62.21-.28.4-.58.17-.31.36-.61.23-.27.42-.57.19-.3.38-.6.17-.31.37-.61.23-.28.42-.58.17-.32.36-.62c.15-.24.24-.49.23-.73,0-.26-.11-.52-.26-.73s-.37-.38-.61-.47c-.23-.08-.49-.07-.76,0-.35.09-.36.06-.7.16s-.34.13-.69.22-.35.08-.7.18-.35.07-.7.16-.34.12-.69.21-.36.05-.71.14-.34.14-.68.24-.36.05-.71.14-.34.13-.69.23-.35.09-.7.18-.35.1-.69.2-.36.05-.71.14-.34.11-.69.2-.34.12-.69.21-.36.07-.71.16-.34.12-.69.22-.35.08-.7.17-.35.11-.7.2-.35.08-.7.17-.35.1-.7.19-.35.08-.7.17-.35.09-.7.18-.35.09-.7.18-.35.11-.7.2-.35.11-.69.2-.35.08-.7.17-.35.1-.69.19-.35.07-.7.17-.35.09-.7.18-.35.09-.7.19-.35.1-.7.19-.35.11-.7.2-.35.09-.7.18-.35.09-.7.18-.36.07-.71.17-.35.09-.7.19-.35.1-.7.19-.34.12-.7.21-.35.09-.7.19-.36.06-.71.15-.34.13-.69.22-.36.08-.71.17-.35.11-.7.2-.36.06-.72.15-.35.1-.71.19-.35.14-.71.24-.37.05-.73.15-.35.13-.71.23-.37.08-.73.17-.36.12-.72.22-.38.05-.74.15-.36.1-.73.19c-.24.06-.47.14-.7.15s-.48-.05-.71-.09-.46-.11-.68-.2-.43-.2-.63-.34-.39-.29-.55-.47-.29-.38-.41-.59-.21-.43-.28-.66-.11-.47-.12-.71c-.02-.34,0-.34-.02-.68s0-.34-.02-.68-.05-.34-.07-.68.02-.34,0-.69-.03-.34-.05-.68-.04-.34-.06-.68,0-.34-.02-.69-.03-.34-.05-.69-.01-.35-.03-.69-.03-.34-.05-.69.02-.36,0-.72-.03-.36-.05-.72-.02-.36-.04-.72,0-.36-.03-.72-.03-.36-.05-.72-.03-.36-.05-.72,0-.36-.02-.72-.04-.36-.06-.71-.02-.36-.04-.72-.03-.36-.05-.72.03-.36,0-.72-.03-.36-.05-.72-.05-.36-.06-.72-.03-.36-.05-.72.02-.36,0-.72,0-.36-.03-.72-.03-.36-.05-.72-.05-.36-.07-.72,0-.36-.01-.72,0-.36-.02-.72-.03-.36-.05-.72-.04-.36-.06-.72-.03-.36-.05-.72.01-.36,0-.72-.04-.36-.06-.71-.02-.36-.04-.71,0-.36-.02-.72-.05-.36-.07-.72,0-.36-.03-.72-.02-.36-.04-.72-.01-.36-.03-.72-.03-.36-.05-.72,0-.36-.02-.72-.04-.36-.06-.72,0-.36-.02-.72-.01-.36-.03-.72-.02-.36-.04-.72-.02-.36-.04-.72-.03-.36-.05-.72.02-.36,0-.73-.04-.36-.06-.72,0-.36-.02-.73-.04-.36-.06-.73c-.02-.28-.14-.51-.29-.7-.16-.21-.37-.36-.61-.44s-.51-.09-.76-.02c-.23.07-.45.21-.63.43-.22.28-.25.26-.47.53s-.21.29-.44.56-.23.27-.46.55-.23.27-.46.55-.19.3-.42.58-.24.26-.47.54-.22.28-.45.56-.22.28-.44.56-.22.28-.44.56-.23.28-.45.55-.26.25-.48.53-.22.28-.45.56-.21.29-.43.57-.26.25-.48.53-.19.31-.41.58-.24.26-.46.54-.23.27-.46.54-.2.3-.42.58-.26.25-.49.53-.21.29-.43.57-.24.27-.47.55-.22.28-.45.56-.21.29-.43.57-.22.28-.45.56-.25.26-.48.54-.23.27-.46.55-.19.31-.42.59-.25.26-.47.54-.24.27-.46.55-.21.29-.44.57-.22.28-.45.56-.25.26-.48.54-.22.29-.44.57-.22.29-.44.57-.22.29-.45.57-.25.25-.47.52-.23.26-.45.54-.19.3-.41.57-.25.25-.47.53-.2.29-.42.56-.23.27-.45.54-.22.27-.45.55-.21.29-.43.56-.24.26-.46.53-.22.28-.44.55-.23.27-.45.55-.2.29-.42.56-.22.28-.44.55-.24.26-.46.54-.23.27-.45.55-.23.28-.45.55-.23.28-.45.55-.2.29-.43.57c-.16.19-.36.32-.55.47s-.39.29-.6.39-.45.17-.68.22-.47.11-.71.11-.48-.02-.72-.07-.47-.13-.68-.23-.41-.25-.6-.4-.34-.33-.49-.52c-.19-.23-.21-.22-.4-.46-.22-.28-.22-.28-.44-.56s-.23-.27-.45-.55-.23-.27-.45-.55-.22-.28-.44-.56-.22-.28-.44-.56-.22-.28-.45-.55-.23-.27-.45-.55-.25-.26-.47-.53-.2-.29-.43-.57-.21-.29-.44-.56-.24-.27-.46-.55-.25-.26-.47-.54-.23-.28-.45-.56-.21-.29-.43-.57-.25-.26-.47-.54-.2-.29-.43-.57-.23-.28-.45-.55-.24-.26-.47-.54-.21-.29-.44-.57-.23-.27-.46-.55-.21-.29-.43-.57-.23-.28-.45-.55-.22-.28-.45-.56-.23-.27-.46-.55-.22-.28-.45-.56-.25-.25-.48-.53-.21-.29-.44-.57-.22-.28-.44-.56-.21-.29-.44-.57-.25-.26-.48-.53-.23-.27-.45-.55-.22-.28-.44-.56-.22-.28-.44-.56-.21-.29-.44-.56-.26-.25-.48-.53-.21-.29-.44-.57-.22-.28-.45-.56-.24-.27-.46-.55-.23-.27-.46-.55-.2-.3-.43-.58-.24-.26-.47-.54-.21-.29-.44-.57-.23-.27-.46-.55-.23-.28-.46-.55-.23-.28-.46-.56-.22-.28-.45-.56-.24-.27-.47-.55-.21-.29-.44-.57-.22-.28-.45-.56-.25-.27-.48-.55-.2-.3-.43-.58-.24-.27-.47-.56c-.18-.22-.41-.35-.64-.42-.25-.07-.52-.07-.76,0s-.46.23-.62.44c-.15.19-.26.43-.28.72-.02.36-.02.36-.04.72s-.01.36-.03.72,0,.36-.03.72-.06.36-.08.71.02.36,0,.72-.06.36-.08.72-.02.36-.04.72,0,.36-.02.72-.03.36-.05.72-.03.36-.05.72.01.36,0,.72-.01.36-.03.72,0,.36-.03.72-.07.36-.08.71-.02.36-.04.72-.02.36-.04.72-.02.36-.04.72,0,.36-.02.72-.02.36-.04.72-.04.36-.06.72-.01.36-.03.72.02.36,0,.72-.06.36-.08.72-.02.36-.04.72-.01.36-.03.72-.02.36-.04.72,0,.36-.01.72-.03.36-.05.72-.04.36-.06.71-.02.36-.04.72,0,.36-.03.72-.03.36-.05.72-.02.36-.04.72-.02.36-.04.72.02.36,0,.72-.03.36-.05.72-.04.36-.06.72,0,.36-.02.72-.04.36-.06.72-.03.36-.05.72,0,.36-.02.72-.02.36-.04.72,0,.36-.03.72-.02.36-.04.73-.04.36-.06.73-.03.36-.05.73.03.37,0,.73c-.02.39-.06.39-.08.78s-.01.39-.03.79,0,.39-.02.79-.06.39-.08.79-.01.4-.03.79c-.01.25-.06.48-.13.7s-.12.47-.23.68-.26.41-.42.59-.35.33-.54.47-.41.25-.63.35-.44.2-.68.24-.48.02-.72.01-.48-.02-.71-.08c-.36-.1-.35-.11-.71-.2s-.36-.09-.72-.18-.36-.08-.72-.18-.35-.12-.71-.22-.36-.11-.72-.2-.37-.06-.73-.16-.35-.12-.71-.21-.37-.06-.73-.16-.35-.14-.71-.24-.36-.09-.72-.18-.36-.1-.72-.2-.37-.06-.73-.16-.35-.1-.7-.19-.35-.07-.7-.17-.35-.09-.7-.19-.35-.1-.69-.19-.34-.11-.69-.2-.35-.09-.7-.18-.34-.12-.69-.21-.35-.1-.69-.19-.36-.07-.7-.16-.35-.1-.7-.19-.35-.08-.7-.17-.34-.12-.69-.21-.35-.08-.7-.17-.35-.09-.7-.18-.34-.11-.69-.2-.35-.07-.7-.17-.35-.11-.69-.2-.35-.1-.7-.19-.35-.09-.7-.19-.36-.06-.71-.15-.34-.1-.69-.2-.35-.09-.69-.18-.35-.09-.69-.18-.34-.12-.69-.21-.36-.06-.71-.15-.34-.12-.69-.21-.35-.09-.7-.18-.34-.11-.69-.21-.35-.09-.7-.18-.36-.08-.71-.17-.35-.11-.7-.2-.36-.06-.71-.15-.35-.11-.7-.2-.36-.07-.71-.16-.35-.09-.7-.19-.34-.11-.69-.2-.35-.09-.7-.18-.35-.11-.7-.2-.35-.1-.71-.19-.36-.07-.71-.17c-.27-.07-.54-.08-.77,0-.25.09-.47.26-.62.47s-.24.47-.24.73c0,.24.08.49.23.73.19.3.2.3.39.6s.18.31.37.61.19.31.38.61.19.3.38.6.22.28.42.58.16.33.35.63.23.28.43.58.19.31.38.61.18.31.38.61.2.3.39.6.22.29.41.59.19.31.38.61.18.31.37.61.18.31.37.61.2.3.4.6.19.3.39.6.2.3.4.6.19.3.39.61.22.28.42.59.19.31.38.61.19.31.39.61.19.3.39.61.21.29.41.59.19.31.38.61.21.29.4.6.16.33.35.63.23.28.43.58.2.3.4.6.18.31.37.62.21.29.4.59.2.3.39.6.17.32.36.62.2.3.39.6.18.31.37.62.22.29.41.59.17.32.37.62.21.3.4.6.19.31.38.61.23.28.43.58.2.31.39.61.17.32.36.63.21.29.41.6.2.3.4.61.19.31.38.61.22.29.41.6.17.32.37.62.2.31.39.61.2.3.4.61.2.31.39.61.21.3.41.6c.16.25.15.27.31.52s.19.24.35.5.15.26.32.52c.13.21.25.42.33.64s.1.47.13.71.06.48.04.72-.1.47-.17.69-.16.45-.28.65-.24.41-.41.59-.36.31-.56.44-.4.24-.63.33q-.32.12-.65.25c-.32.12-.33.11-.65.24s-.32.14-.64.26-.31.15-.64.27-.33.11-.65.24-.33.11-.65.24-.33.12-.65.24-.33.12-.65.25-.33.11-.65.24-.32.17-.65.3-.35.1-.68.23-.32.16-.66.29-.35.1-.68.23-.33.15-.66.28-.33.14-.66.27-.34.12-.67.25-.34.11-.67.24-.33.15-.66.27-.33.13-.67.26-.33.13-.67.25-.35.1-.68.23-.32.16-.66.29-.34.12-.67.25-.34.13-.67.26-.34.12-.67.25-.33.14-.67.27-.33.14-.66.27-.34.12-.67.25-.34.13-.67.26-.32.16-.66.29-.34.11-.68.24-.33.13-.67.26-.35.1-.68.23-.33.14-.66.27-.33.13-.67.25-.33.14-.66.26-.34.11-.67.24-.32.16-.66.28-.34.13-.67.26-.33.14-.67.27-.35.1-.68.23-.32.16-.66.29-.34.12-.68.25-.34.12-.68.25-.34.13-.67.26-.34.12-.68.25-.33.14-.67.27-.33.15-.66.28-.35.09-.68.22-.34.13-.67.26-.34.14-.67.27-.33.15-.67.28-.33.14-.67.27c-.26.1-.47.25-.61.45-.15.22-.24.47-.24.73s.1.51.25.72c.14.2.32.39.59.49q.34.13.67.26c.34.13.34.13.67.26s.34.11.68.24.34.13.67.26.33.15.66.28.35.09.69.22.33.15.66.28.34.11.68.24.34.13.67.26.34.13.67.26.33.14.67.27.32.17.66.3.35.1.69.23.34.11.68.24.32.17.66.3.34.12.68.25.34.13.67.26.34.12.68.25.33.15.67.28.34.11.68.24.35.11.68.24.32.17.65.3.35.09.68.22.33.13.67.26.33.15.66.28.34.14.67.27.35.1.69.23.33.16.66.29.34.12.68.25.34.14.67.27.34.13.68.26.34.14.67.27.35.11.68.24.34.14.68.27.34.13.68.26.34.13.68.26.35.11.68.24.33.15.67.28.35.1.69.23.33.17.67.3.36.1.7.23.33.17.68.3.35.13.69.26.36.1.7.23.34.16.68.29.34.15.68.28.35.13.69.26.35.12.69.26.35.12.7.26.35.13.69.27.34.16.69.3.35.13.7.27c.23.09.46.17.65.3s.39.29.55.46.31.37.43.58.19.44.27.67.15.46.17.7-.01.48-.04.72-.05.48-.14.7-.2.43-.33.64c-.19.29-.19.29-.38.58s-.17.3-.36.59-.19.29-.37.59-.21.28-.4.57-.16.31-.35.6-.2.28-.39.58-.2.29-.39.58-.17.31-.36.6-.19.3-.38.6-.23.27-.43.57-.2.3-.39.6-.18.31-.38.61-.21.29-.4.59-.19.3-.39.6-.17.32-.36.62-.21.29-.41.59-.19.3-.39.6-.19.3-.39.6-.2.3-.39.6-.2.3-.39.6-.16.33-.35.63-.23.28-.42.58-.18.31-.37.61-.2.3-.4.6-.18.31-.38.61-.19.3-.39.6-.22.28-.42.58-.19.3-.39.6-.18.31-.38.61-.18.31-.38.61-.18.31-.37.61-.21.29-.41.59-.22.28-.41.58-.18.31-.37.61-.19.3-.38.6-.18.31-.37.61-.19.3-.38.6-.22.28-.42.58-.2.3-.39.6-.2.3-.4.6-.2.3-.39.6-.16.33-.35.63-.19.3-.39.61-.22.29-.41.59-.17.32-.37.62-.21.3-.4.6-.22.29-.41.59-.2.3-.4.6-.18.31-.37.62-.19.31-.39.61-.22.29-.42.59-.2.3-.4.61-.19.31-.39.61c-.15.24-.23.5-.22.75,0,.26.13.51.28.72s.35.4.59.49c.23.08.5.09.78.01.34-.09.35-.08.69-.18s.34-.1.69-.19.34-.11.69-.2.35-.09.69-.18.35-.09.69-.18.35-.07.7-.17.34-.13.68-.22.34-.1.69-.19.35-.07.7-.16.34-.11.68-.2.36-.05.7-.14.34-.1.69-.19.34-.1.69-.2.34-.11.69-.21.36-.05.7-.14.34-.11.69-.2.34-.12.69-.21.35-.07.7-.17.34-.11.69-.2.35-.09.69-.19.35-.07.7-.16.34-.11.69-.2.35-.09.69-.18.35-.09.69-.18.35-.07.7-.17.34-.12.68-.21.35-.07.69-.16.34-.1.69-.19.35-.08.69-.17.35-.1.69-.19.35-.09.7-.18.34-.11.69-.2.35-.06.7-.15.34-.1.69-.19.34-.11.69-.2.35-.09.7-.18.35-.09.7-.18.35-.1.69-.2.35-.09.7-.18.35-.09.7-.18.34-.11.69-.2.35-.1.7-.19.36-.07.7-.16.35-.08.7-.18.35-.1.7-.19.33-.11.67-.2.34-.09.67-.18.35-.05.68-.14.33-.1.67-.19.34-.1.67-.19.33-.1.67-.19.35-.06.69-.15.33-.13.67-.22c.24-.06.48-.1.72-.11s.48.04.72.08.47.12.68.21.43.21.62.35.36.31.52.49.31.36.43.58.21.43.28.66.08.47.09.71c.02.36.06.35.08.71s.02.35.04.71-.02.36,0,.71.02.36.04.71.04.36.06.71.03.36.05.71.01.36.03.72,0,.36.01.71.05.35.07.71,0,.36.02.71.03.36.05.72,0,.36.03.72.04.36.06.72.01.36.03.72.02.36.04.71.03.35.05.71-.02.36,0,.71.06.35.08.71-.02.36,0,.71.06.35.08.71,0,.36.02.71-.01.36,0,.71.06.35.08.71.02.36.04.71,0,.36.02.71,0,.36.01.71.03.35.05.71.01.36.03.71.05.35.07.71.02.36.04.71,0,.36.02.71,0,.36.02.71.03.36.05.71,0,.36.02.71.04.35.06.71,0,.36.02.71.04.35.06.71.02.36.04.71,0,.36.03.72,0,.36.03.71.04.35.06.71.01.36.03.71,0,.36.03.72.02.36.04.71.03.36.05.71.05.36.07.71,0,.36,0,.72.02.36.04.71.03.36.05.71.02.36.03.72.05.36.07.72.01.36.03.72,0,.36.01.72c.02.28.13.52.28.71.16.21.37.38.62.46s.51.06.77-.01c.23-.07.48-.18.66-.4.22-.28.2-.3.42-.57s.23-.27.45-.55.21-.28.44-.56.25-.26.47-.53.23-.27.45-.55.23-.27.46-.54.19-.31.41-.59.26-.25.49-.52.22-.28.45-.56.22-.28.44-.56.22-.28.44-.56.24-.27.46-.54.2-.3.42-.58.25-.26.47-.54.23-.28.45-.55.2-.3.42-.58.24-.26.46-.54.24-.26.46-.54.22-.28.44-.55.22-.28.44-.56.24-.26.47-.54.22-.28.45-.56.22-.28.44-.56.21-.29.44-.56.24-.27.46-.55.23-.27.46-.55.23-.28.45-.56.2-.3.43-.58.24-.27.47-.54.24-.27.47-.55.19-.3.42-.58.25-.26.47-.54.2-.3.42-.58.25-.26.47-.54.25-.26.48-.54.2-.3.43-.58.24-.27.47-.55.22-.28.45-.55.21-.29.44-.56.23-.27.45-.55.22-.28.44-.56.23-.27.46-.55.22-.28.44-.56.22-.28.45-.55.24-.27.46-.54.25-.26.47-.54.2-.3.42-.57.23-.27.46-.55.24-.26.47-.54.21-.29.44-.57.24-.27.47-.55.22-.28.45-.56.21-.29.44-.57c.16-.19.32-.37.5-.52s.42-.24.63-.35.44-.2.67-.25.47-.09.71-.09.48.03.72.08.46.15.67.25.41.23.61.38.38.29.54.48c.23.28.21.29.44.56s.21.29.43.57.22.28.45.56.26.25.49.53.23.28.46.56.2.3.43.58.23.27.45.55.24.26.47.53.22.28.44.56.23.27.46.54.19.31.41.58.25.26.47.53.2.29.43.57.25.26.47.53.21.29.43.57.22.28.45.55.24.26.46.54.23.27.45.55.22.28.44.55.24.26.46.54.21.29.43.56.21.29.44.56.21.29.44.57.25.26.48.53.21.29.43.57.22.28.44.56.23.27.46.55.25.26.47.53.23.27.46.55.23.27.45.55.19.3.42.58.22.28.44.56.22.28.45.55.23.27.45.55.23.27.45.55.25.25.48.53.21.28.44.56.23.27.46.55.22.28.45.56.2.3.43.57.22.28.44.56.25.26.47.54.22.28.45.56.23.27.46.55.23.27.46.55.21.29.44.57.25.26.47.53.22.29.44.56.2.3.43.58.24.27.47.54.22.28.45.56.25.26.48.54.23.28.45.56c.18.22.38.38.62.45.25.07.52.06.77-.02s.45-.24.61-.45c.15-.19.27-.42.29-.71.02-.35.03-.35.05-.71s0-.36.01-.71,0-.36.02-.71.05-.35.07-.71-.01-.36,0-.71.06-.35.08-.71.02-.36.04-.71-.03-.36,0-.72.02-.36.04-.71.05-.35.07-.71,0-.36.03-.71,0-.36.03-.71.06-.35.08-.71.02-.36.03-.71,0-.36.01-.71.02-.36.04-.71.05-.36.07-.71,0-.36.03-.72,0-.36.02-.72.03-.36.05-.71.03-.36.05-.71.01-.36.03-.71.04-.36.06-.71.03-.36.05-.72-.02-.36,0-.72.05-.36.07-.71-.01-.36,0-.72.04-.35.06-.71.03-.35.05-.71.03-.36.05-.71.02-.36.04-.71.02-.36.04-.72,0-.36.01-.72.03-.36.04-.71.04-.36.05-.71,0-.36.02-.72.02-.36.04-.72,0-.36.02-.72.03-.36.05-.72.05-.36.07-.72,0-.36.02-.72,0-.36.03-.72.03-.36.05-.72.04-.36.06-.72-.01-.36,0-.72.06-.36.08-.72-.02-.35,0-.7.03-.35.05-.7.04-.35.06-.7,0-.35.03-.7.02-.35.04-.7.01-.35.03-.7,0-.35.02-.71c.01-.25.04-.49.11-.71s.18-.45.29-.66.26-.4.42-.58.34-.33.53-.48.39-.28.61-.38.45-.14.69-.19.47-.06.71-.05.48,0,.72.07c.34.09.34.09.69.18s.33.12.67.21.34.08.68.17.34.1.68.19.34.11.68.2.34.1.68.19.36.05.7.14.34.11.68.2.34.09.69.18.34.12.68.21.36.04.7.14.33.13.68.22.35.06.7.15.33.14.68.23.35.08.69.17.35.07.69.16.34.09.69.18.34.11.69.2.35.09.69.18.34.1.69.2.36.06.7.15.34.1.69.19.34.11.69.2.35.08.7.17.34.11.69.2.34.1.69.19.35.07.7.16.34.11.68.2.35.07.7.16.35.09.69.18.34.1.69.19.34.11.69.2.34.1.69.2.34.1.68.19.34.09.69.18.34.09.69.18.35.08.69.17.34.1.69.2.35.07.7.16.34.1.69.2.34.11.68.2.35.07.7.16.35.09.7.18.34.1.69.19.35.07.7.16.34.13.69.22.35.09.7.18.35.07.7.16.34.1.69.19.34.13.69.22.36.06.71.15.34.12.69.21.35.08.7.17c.27.07.53.03.76-.05.25-.09.44-.25.6-.46s.25-.45.26-.71c0-.24-.06-.49-.22-.73-.19-.3-.17-.31-.36-.61s-.21-.29-.41-.58-.19-.3-.38-.6-.18-.31-.38-.61-.22-.28-.41-.58-.17-.32-.37-.62-.18-.31-.37-.61-.24-.27-.43-.57-.19-.3-.39-.6-.17-.31-.37-.61-.21-.29-.41-.59-.18-.31-.38-.61-.21-.29-.4-.59-.17-.31-.37-.61-.18-.31-.37-.61-.2-.29-.4-.6-.19-.3-.39-.61-.19-.31-.38-.61-.23-.28-.43-.58-.19-.3-.39-.6-.19-.3-.38-.6-.19-.3-.39-.6-.18-.31-.38-.61-.21-.29-.4-.59-.19-.31-.38-.61-.21-.29-.4-.59-.16-.32-.35-.62-.23-.27-.43-.57-.18-.31-.37-.61-.18-.31-.38-.61-.22-.29-.41-.59-.16-.32-.36-.62-.21-.29-.4-.59-.22-.28-.42-.58-.19-.31-.38-.61-.19-.31-.39-.61-.17-.32-.37-.62-.22-.28-.42-.59-.18-.32-.37-.62-.21-.29-.41-.59-.17-.32-.37-.62-.21-.29-.4-.59-.19-.31-.39-.61-.2-.3-.4-.6-.21-.3-.41-.6-.17-.32-.37-.63-.2-.28-.39-.57-.18-.3-.37-.59-.18-.3-.36-.59-.22-.27-.41-.56-.18-.3-.37-.59-.17-.31-.36-.6-.19-.3-.38-.59ZM301.81,167.68s0,.02,0,.02c.3.04.61-.03.84-.19s.38-.43.44-.73c.04-.23.08-.47.12-.7s.1-.47.14-.7.04-.47.08-.71.12-.46.15-.7.04-.47.08-.71.09-.47.13-.7.07-.47.11-.71.07-.47.1-.71.1-.47.14-.7.04-.48.08-.71.08-.47.12-.71.13-.46.17-.7.05-.48.1-.71.13-.46.17-.7.09-.47.14-.71.07-.48.12-.71.1-.47.16-.7.11-.47.17-.7.11-.47.17-.7.15-.46.21-.69.12-.47.19-.69.17-.45.24-.68.14-.46.22-.68.13-.46.22-.69.17-.45.26-.67.22-.43.31-.65.17-.45.27-.66.21-.43.32-.64.24-.41.36-.62.23-.42.35-.63.3-.38.43-.57.25-.41.39-.6.31-.36.47-.54.29-.38.45-.55.33-.35.5-.51.34-.33.52-.49.37-.3.56-.45.37-.3.56-.44.4-.26.6-.38.39-.26.6-.38.41-.24.63-.35.43-.21.65-.3.45-.15.68-.24.44-.18.67-.25.46-.12.69-.18.46-.12.69-.17.47-.07.71-.12.46-.1.7-.14.47-.07.71-.1.48-.03.72-.05c.24-.02.47-.03.7-.04.24-.01.47,0,.7-.01.24,0,.47-.01.7-.01s.47,0,.7.02.47.04.7.06.47.06.69.09.46.08.69.12.45.1.68.15.45.11.68.17.45.11.67.19.43.17.65.25.43.18.65.27.43.18.64.28.41.2.63.3c.19.2.21.39.11.61-.08.18-.21.37-.41.54-.16.14-.37.26-.57.38s-.39.27-.59.37c-.22.11-.46.17-.66.25-.29.11-.52.19-.65.21-.24.04-.48.09-.71.12s-.48.05-.72.07-.49,0-.72.01-.48.05-.72.06-.49,0-.72,0-.49-.02-.73-.03-.49,0-.72-.02-.49-.03-.72-.04-.48-.05-.72-.06-.48-.03-.72-.04-.48-.04-.72-.04-.49,0-.72,0-.48.03-.72.05-.48.07-.71.12-.47.08-.7.15-.45.15-.68.25-.41.24-.62.37c-.2.12-.42.22-.61.37-.18.14-.36.3-.54.47-.17.15-.35.31-.52.49-.16.17-.33.34-.49.53-.15.18-.28.38-.43.58-.14.18-.28.38-.42.58-.13.19-.26.39-.4.6-.13.2-.27.39-.4.6-.12.2-.23.42-.36.63-.12.21-.24.43-.36.64s-.22.44-.32.66-.26.42-.36.64-.17.46-.26.69-.21.45-.29.67-.17.46-.25.69-.11.48-.18.71-.18.46-.24.69-.12.47-.18.71-.09.48-.14.72-.1.48-.15.72-.1.48-.14.72-.06.49-.1.73-.07.48-.1.72-.07.48-.1.73-.06.48-.09.73-.02.49-.05.73-.09.48-.12.72-.05.48-.08.72-.09.48-.13.72-.07.48-.11.72-.07.48-.12.72-.1.48-.15.71-.11.47-.17.71-.12.47-.18.7-.1.48-.17.71-.19.45-.27.68c-.08.23-.18.44-.3.65s-.25.41-.4.59-.31.36-.49.52-.37.3-.57.44-.39.29-.6.4-.43.21-.65.29-.45.18-.68.23-.48.06-.71.08c-.25.02-.49.06-.72.03-.24-.03-.48-.09-.7-.18s-.42-.22-.61-.37-.35-.32-.48-.53c-.11-.19-.2-.41-.31-.64-.09-.21-.2-.42-.28-.66-.07-.21-.1-.45-.17-.69-.06-.22-.15-.44-.21-.68-.05-.22-.1-.46-.15-.7s-.09-.46-.14-.7-.12-.46-.17-.69-.07-.47-.11-.7-.07-.47-.11-.7-.1-.46-.14-.7-.04-.47-.08-.71-.11-.46-.14-.7-.04-.48-.08-.71-.12-.46-.16-.7-.05-.48-.09-.71-.07-.47-.12-.71-.11-.47-.16-.7-.1-.47-.15-.7-.08-.47-.13-.7-.15-.46-.21-.69-.1-.47-.17-.69-.14-.46-.22-.68c-.08-.23-.12-.47-.2-.68-.09-.23-.17-.45-.27-.66-.1-.22-.21-.43-.32-.64s-.24-.42-.35-.63-.23-.42-.36-.62-.24-.41-.38-.61-.28-.39-.42-.58-.29-.38-.44-.57-.31-.37-.46-.55-.32-.36-.49-.53-.32-.36-.49-.53-.39-.29-.57-.44-.37-.31-.56-.45-.36-.32-.56-.45-.41-.25-.61-.38-.41-.25-.62-.36-.45-.18-.67-.27-.43-.22-.65-.3-.46-.15-.69-.21-.46-.15-.69-.2-.48-.06-.71-.1-.47-.1-.71-.12-.48-.04-.72-.04-.48.02-.72.03-.47.04-.72.06c-.24.03-.48.05-.72.1s-.48.07-.72.13-.47.15-.7.22-.46.17-.68.26-.46.17-.68.27-.44.22-.66.32-.46.17-.67.28-.43.25-.64.36-.45.2-.67.31-.43.24-.64.35c-.23.11-.46.18-.68.27-.23.1-.45.19-.67.27-.24.08-.47.14-.7.18-.25.04-.5.07-.76.07s-.52.01-.76-.02c-.26-.03-.51-.12-.74-.2-.26-.09-.47-.22-.65-.37-.2-.17-.33-.37-.39-.62-.06-.22-.07-.46,0-.74.06-.21.14-.45.28-.71.03-.06.24-.21.56-.43.17-.12.37-.25.59-.4.19-.12.38-.26.59-.39.19-.13.4-.25.6-.38s.4-.27.6-.4.39-.28.59-.41c.21-.13.41-.26.6-.38.22-.14.43-.27.61-.37.29-.17.51-.3.62-.35.22-.11.44-.21.65-.31s.45-.19.66-.29.44-.2.66-.29.45-.18.67-.26.46-.15.69-.22.46-.16.69-.22.47-.13.7-.18.48-.08.71-.12.48-.06.72-.09.48-.06.72-.07.48-.04.72-.04.48.04.72.05.48.02.72.04.48.04.72.08.46.12.7.17.46.12.7.19.47.11.7.19.45.16.68.25.43.21.65.32.43.2.65.31.41.24.62.37.42.23.62.37.41.24.61.38.37.31.56.45c.2.15.39.29.57.45s.37.32.54.48.36.33.52.5.34.35.5.53.31.38.46.56.29.39.43.59.29.39.42.59.27.4.39.61.26.41.38.62.22.43.33.65.19.44.29.66.2.44.3.66.21.44.29.66.14.46.22.69.15.46.23.69.16.46.23.69.13.47.2.7.12.47.18.7.1.47.16.71.12.47.17.71.1.47.15.71.13.47.17.71.06.48.1.72.1.48.14.71.09.48.13.72.05.48.09.72.1.48.14.71.06.48.1.72.09.48.13.72.07.48.11.72.1.48.14.72.1.47.15.71.07.48.11.71.11.47.16.71.11.47.16.7.14.45.31.6.39.23.63.26ZM287.85,154.47c-.27-.06-.51,0-.72.17-.18.13-.34.33-.5.56-.13.19-.25.42-.38.65-.12.21-.2.46-.33.68s-.28.42-.42.63-.3.41-.47.59-.36.35-.57.48-.42.27-.67.33c-.23.05-.48.07-.75.04-.26-.02-.49-.1-.7-.18-.24-.09-.45-.19-.64-.33s-.37-.31-.53-.5-.28-.39-.41-.6-.24-.42-.36-.63-.26-.41-.37-.63-.22-.43-.35-.64-.29-.33-.47-.43c-.19-.11-.4-.2-.61-.2s-.42.08-.62.18c-.18.1-.38.21-.51.4-.05.08-.07.18-.12.26-.13.21-.3.36-.48.45-.2.11-.43.16-.64.15s-.43-.11-.62-.22-.36-.25-.48-.43-.21-.39-.21-.62c0-.2.06-.42.18-.63.11-.2.25-.39.4-.57s.28-.37.45-.54.37-.28.55-.43.34-.32.54-.45.4-.23.61-.34.41-.22.62-.32.43-.18.65-.27.44-.14.67-.22.43-.18.66-.24.46-.1.69-.15.46-.06.69-.1.46-.07.7-.09.47-.05.7-.06.47.03.7.04.47,0,.7.03.47.07.69.12c.24.05.47.08.68.15.22.07.42.2.65.31.21.1.42.21.63.34.2.12.41.24.61.38s.36.3.55.46.37.3.54.47.35.32.52.49.31.37.46.55.32.35.47.54.26.4.39.6.28.4.39.6.2.44.3.65.23.43.31.65.09.48.14.71.1.47.12.7.03.5,0,.73c-.25.03-.48-.02-.69-.09s-.41-.19-.58-.35c-.16-.15-.28-.35-.41-.54-.13-.18-.25-.37-.36-.58s-.23-.39-.33-.6-.2-.42-.3-.62c-.11-.21-.24-.4-.36-.58-.13-.21-.27-.38-.42-.53-.18-.18-.34-.33-.56-.37ZM304.42,183.07c-.27.02-.53-.03-.79-.07s-.53-.1-.78-.18-.51-.17-.76-.23c-.27-.07-.53-.09-.78-.09-.23,0-.46.02-.71.04-.23.02-.46.04-.71.07s-.47.05-.7.08-.47.06-.7.08-.47.05-.71.08-.47.03-.71.05-.48.03-.71.04-.48.03-.71.03-.48-.03-.71-.05c-.24-.02-.48-.07-.7-.11-.24-.05-.47-.11-.68-.19-.23-.08-.45-.17-.64-.3s-.36-.3-.51-.48-.3-.35-.4-.58c-.09-.2-.16-.43-.2-.68-.05-.27,0-.53.09-.74.11-.23.29-.42.51-.55s.46-.22.71-.22c.24,0,.48.09.71.24s.45.31.66.43c.25.14.5.27.74.27.16,0,.39-.1.69-.22.2-.08.43-.15.67-.26.2-.09.42-.2.65-.31.21-.1.43-.21.65-.32s.42-.23.65-.33.45-.17.68-.26.45-.18.67-.27.46-.16.69-.23c.24-.07.47-.14.7-.18.25-.05.49-.06.72-.08.25-.01.49-.04.73-.03s.49.03.73.06.48.1.71.15.48.08.71.14.48.1.71.17.45.19.68.26.47.14.69.22.46.15.69.22.47.11.7.18.46.16.7.21.48.07.72.11.48.07.72.08.48-.03.73-.05.48-.02.72-.06.46-.12.7-.19c.23-.07.46-.14.69-.24-.02.24,0,.46.02.67.03.23.03.44-.03.65-.05.18-.13.38-.35.55-.15.12-.38.23-.66.36-.2.09-.42.21-.68.3-.22.08-.46.15-.71.23-.23.08-.47.14-.71.22s-.46.18-.7.25-.48.12-.72.18-.49.1-.74.16-.48.15-.72.2-.5.09-.73.14c-.25.05-.5.1-.73.14-.27.05-.52.08-.74.11-.29.04-.54.1-.73.11ZM327.84,154.58c-.03-.05-.07-.1-.11-.15-.13-.2-.32-.33-.51-.42-.2-.1-.42-.17-.64-.16s-.43.1-.62.23c-.18.11-.36.25-.47.46-.1.19-.2.4-.31.61-.1.2-.19.41-.31.61s-.25.38-.38.57-.26.38-.4.55-.3.34-.47.49-.36.29-.56.39-.43.14-.65.18c-.21.04-.43.06-.67.04-.25-.02-.49-.04-.69-.13-.22-.09-.39-.26-.57-.41s-.34-.32-.49-.5-.28-.38-.4-.58-.27-.39-.38-.6-.22-.43-.33-.63c-.12-.22-.26-.41-.38-.59-.15-.21-.29-.4-.47-.52-.2-.13-.42-.18-.67-.13-.21.05-.4.16-.58.34-.14.15-.3.32-.43.53-.11.18-.18.41-.29.62-.1.2-.24.38-.35.59s-.19.42-.3.62-.23.4-.36.59c-.14.2-.28.38-.44.53-.17.16-.37.28-.58.36s-.43.1-.68.07c-.03-.24-.03-.49-.01-.75s.05-.49.11-.73.1-.48.19-.72.22-.44.32-.67.18-.46.3-.68.29-.4.43-.6.24-.43.39-.63.32-.38.48-.57.33-.38.5-.55.38-.32.56-.49.37-.34.56-.49.4-.3.6-.43c.21-.14.42-.28.62-.4.23-.12.45-.22.67-.31.21-.09.43-.18.67-.24.22-.06.46-.08.7-.12s.46-.08.71-.1.47-.05.71-.06.47.06.71.07.48-.01.72.01.46.11.7.15.47.08.7.13.47.09.7.15.44.18.67.26.44.18.66.27.45.17.66.28.43.22.63.35.39.29.57.43.38.29.55.46.32.36.46.54.29.38.41.58c.13.22.2.41.2.62,0,.23-.04.46-.15.64s-.31.32-.5.43-.41.18-.63.19-.45,0-.65-.11c-.18-.1-.31-.28-.45-.48Z"/>
  <path class="b" d="M593.93,5.52c.14-.2.33-.36.49-.55s.25-.44.42-.62.36-.34.54-.52.31-.4.48-.58.38-.33.53-.53.31-.39.45-.6.29-.41.4-.64.16-.47.23-.72.14-.51.16-.77c-.19.14-.42.3-.62.45-.19.14-.39.28-.59.43s-.34.35-.54.49-.42.25-.62.39-.43.23-.63.37-.36.32-.57.46-.4.28-.6.41-.41.27-.61.4-.47.16-.68.28-.41.27-.62.38-.41.26-.63.37-.46.16-.68.26-.41.28-.63.37-.45.19-.68.28-.48.13-.71.2-.47.15-.7.2-.48.11-.72.15-.49-.02-.73,0-.49.05-.72.03c-.16-.01-.38-.09-.66-.18-.2-.07-.43-.11-.67-.21-.2-.08-.4-.23-.62-.33-.21-.09-.43-.17-.64-.27s-.46-.11-.67-.21-.37-.31-.58-.41-.45-.16-.65-.26c-.22-.1-.45-.17-.65-.26-.23-.1-.43-.23-.63-.31-.25-.1-.45-.22-.64-.28-.23-.08-.49-.06-.73-.13s-.44-.23-.67-.3-.49-.05-.73-.12-.44-.25-.67-.32-.49-.07-.72-.13-.47-.15-.7-.2-.48-.07-.72-.12-.47-.14-.71-.19-.47-.14-.71-.18-.48-.07-.72-.11-.48-.09-.72-.13-.49-.03-.73-.06-.49,0-.73-.02-.48-.08-.72-.1-.49-.02-.73-.04-.48-.08-.72-.09-.49-.04-.73-.05-.49,0-.73,0-.49,0-.73.01-.48.04-.73.05-.49,0-.73,0-.48.11-.72.13-.48.03-.73.06-.48.07-.72.11-.48.06-.72.1-.49,0-.73.04-.47.12-.71.17-.47.13-.71.18-.47.11-.71.18-.47.14-.7.2-.46.14-.7.21-.45.19-.68.27c-.23.08-.49.06-.71.14s-.42.25-.64.34-.46.16-.67.26-.4.27-.61.37-.46.15-.67.26-.4.28-.6.4-.43.21-.63.33-.42.23-.62.35-.44.19-.64.31-.34.36-.55.47-.46.15-.67.27-.43.2-.64.31-.39.28-.6.39-.44.18-.66.28-.39.28-.62.37-.46.12-.69.21-.43.19-.66.27-.47.09-.7.16-.43.2-.67.26-.48.03-.72.09c-.23.06-.46.16-.69.21s-.48.07-.71.12-.45.21-.69.26-.49.02-.73.07-.46.17-.69.21-.48.02-.72.06-.47.11-.71.15-.48.04-.72.08-.46.15-.7.19-.48.01-.72.05-.49,0-.73.04-.47.09-.71.13-.47.12-.71.16-.47.09-.71.13-.49-.02-.73.02-.46.18-.7.22-.48.07-.72.11-.49,0-.73.03-.47.14-.71.17-.49.03-.73.07-.46.16-.7.21-.48.05-.72.1-.48.09-.72.13-.48.09-.72.13-.47.1-.71.15-.49.04-.73.09-.48.1-.71.16-.45.21-.68.27-.47.13-.7.19-.5.01-.73.08-.46.15-.69.22-.45.18-.68.25-.46.15-.69.23-.48.09-.71.17-.45.18-.68.27-.46.16-.68.25-.45.19-.67.29-.43.23-.65.33-.44.2-.66.31-.43.23-.64.34-.43.23-.63.35-.44.2-.65.33-.34.36-.54.49-.43.23-.62.37-.37.31-.55.46c-.19.15-.39.29-.57.46s-.34.35-.51.52-.39.32-.53.51-.29.4-.43.6-.28.41-.4.62-.18.46-.28.68-.15.46-.24.69-.25.43-.33.66-.14.47-.2.71,0,.5-.05.74-.11.47-.15.71-.14.47-.17.71,0,.49-.02.73-.12.48-.13.73.05.49.04.73,0,.49,0,.73.01.49.02.73-.05.49-.04.73.09.49.1.73.08.48.1.73-.06.5-.04.74.06.48.08.72c.02.23,0,.47.03.71s.13.46.15.7.09.46.12.7.07.46.1.7.07.47.1.7.03.47.07.71.06.47.09.71.04.47.08.71.1.46.13.69,0,.48.03.71.07.47.1.7.19.45.22.68.08.47.11.7-.05.49-.02.72.16.45.2.69,0,.48.03.71.11.46.15.7.12.46.15.7.02.48.05.71.06.47.09.71.12.47.15.7-.03.49,0,.72.09.47.12.71.15.46.18.7.06.48.09.71.03.48.06.72.03.48.05.72.08.47.1.71.05.48.07.71,0,.48.02.72-.04.48-.03.72.06.48.07.71.04.48.05.71.06.48.06.71.01.48.02.71-.07.48-.07.71.06.48.05.71-.06.48-.07.71-.05.48-.07.71-.07.47-.1.7-.08.47-.12.7-.08.47-.13.69c-.05.24-.13.46-.2.68-.07.24-.16.46-.25.68s-.09.5-.21.71-.34.36-.48.56-.23.43-.39.62-.32.36-.5.53-.38.3-.57.46-.38.29-.58.44-.33.37-.54.5-.46.17-.68.29-.41.26-.63.37-.45.17-.67.27-.43.21-.66.3-.43.23-.66.31-.48.1-.71.17-.44.22-.68.29-.49.03-.73.08-.47.14-.71.19-.47.16-.71.21-.49.02-.73.06-.48.09-.72.12-.48.08-.73.1-.49.07-.73.09-.5-.09-.74-.08-.49.04-.73.04-.49.12-.73.12-.49-.14-.73-.15-.49,0-.73-.02-.49-.03-.73-.05-.5.04-.74.01-.49-.09-.72-.12-.49-.02-.73-.07-.47-.15-.7-.2-.48-.09-.71-.15c-.24-.06-.47-.15-.69-.22-.23-.07-.43-.21-.65-.3s-.5-.07-.71-.17-.37-.32-.58-.44-.44-.19-.64-.33-.4-.26-.6-.41-.39-.28-.57-.44-.35-.33-.52-.5-.35-.33-.52-.5-.32-.35-.49-.53-.32-.35-.48-.54-.35-.33-.5-.52-.2-.45-.35-.64-.39-.3-.53-.5-.17-.47-.3-.67-.38-.32-.52-.52-.23-.42-.36-.63-.28-.39-.4-.6-.16-.46-.28-.67-.27-.4-.38-.61-.22-.43-.33-.64-.26-.4-.37-.62-.19-.44-.3-.66-.28-.4-.39-.61-.15-.46-.25-.68-.25-.41-.35-.63-.28-.4-.38-.61-.08-.49-.19-.71-.33-.38-.43-.59-.08-.49-.18-.71-.23-.43-.33-.64-.28-.4-.38-.62-.11-.48-.21-.7-.19-.45-.29-.67-.28-.4-.38-.62-.23-.43-.33-.64-.13-.47-.24-.69-.23-.43-.33-.65-.14-.47-.24-.69-.2-.44-.31-.66-.25-.42-.35-.63-.3-.39-.4-.61-.14-.47-.25-.68-.22-.43-.33-.64-.29-.39-.41-.6-.18-.45-.29-.66-.18-.46-.3-.66-.27-.4-.39-.61-.23-.42-.36-.62-.31-.37-.45-.57-.28-.39-.42-.58-.28-.39-.43-.57c-.15-.19-.31-.37-.47-.54s-.33-.35-.5-.51-.35-.33-.53-.48-.35-.33-.54-.47-.39-.28-.59-.4-.43-.21-.64-.32-.4-.28-.61-.38-.42-.23-.65-.32-.45-.17-.68-.24-.47-.09-.71-.14-.45-.17-.69-.21-.49.02-.73,0-.47-.05-.71-.06-.48-.01-.72-.02-.48-.04-.72-.03-.47.05-.71.07-.48,0-.72.02-.48.05-.71.09-.49.01-.72.06-.45.19-.68.25-.48.05-.71.12-.46.15-.68.23-.44.18-.67.27-.41.26-.63.36-.47.13-.68.23-.43.22-.64.33-.42.23-.63.35-.4.26-.6.39-.43.22-.63.35-.35.33-.54.48-.37.3-.56.45-.43.24-.61.39-.32.37-.49.53-.29.38-.46.56-.42.26-.58.44-.29.39-.43.58-.28.39-.42.58-.21.44-.34.64-.35.35-.46.56-.18.45-.29.66-.24.42-.33.64-.09.48-.17.7-.22.43-.29.66c-.07.23-.08.48-.14.71s-.14.46-.2.69-.16.46-.21.69-.13.46-.18.7.03.49,0,.73-.14.46-.18.7-.03.48-.06.72-.12.47-.15.7-.08.47-.11.71.06.49.03.73-.09.47-.11.71-.11.47-.12.71.06.48.04.72-.08.48-.08.72-.03.48-.03.72-.04.48-.04.72.05.48.05.72-.02.48,0,.72,0,.48.02.72.03.48.04.72.13.47.15.71-.05.48-.03.72,0,.48.02.72.02.48.04.72.14.47.17.71.03.48.05.72-.02.48.01.72.12.47.15.71.08.47.11.71.01.48.05.72.04.48.08.71.16.46.2.7.04.48.08.72.13.46.18.7-.01.49.03.72.19.45.23.69-.04.49,0,.73.2.45.25.68.08.47.13.71.13.46.17.7,0,.49.05.73.14.46.19.7.15.46.21.69.09.47.14.71.07.48.13.71.17.45.22.69,0,.5.04.73.23.44.28.67.05.48.11.71.12.46.18.7.09.47.15.71.06.48.12.71.23.44.28.68.09.48.14.71.05.48.1.72.13.47.18.7.17.46.22.69.02.49.08.72.17.45.23.69.09.47.15.71.2.45.25.68,0,.5.05.73.12.47.17.7.16.46.21.69.03.48.08.72.13.46.18.7.14.46.19.69.04.48.09.72.17.45.21.69.03.48.08.72.16.46.2.69.02.48.06.72.22.45.26.68-.06.5-.02.73.13.46.17.7.16.46.19.69,0,.48.03.71c.03.23.11.46.14.69s-.04.48,0,.72.08.47.11.7.1.46.12.7.02.47.04.71.11.47.13.7.07.47.08.71-.04.48-.03.71-.03.47-.03.71-.02.47-.02.71.06.48.05.71-.02.47-.04.71-.09.47-.11.7.05.48.02.72-.18.45-.21.69.02.48-.02.72-.14.46-.19.68-.11.46-.17.69-.11.46-.18.69-.21.43-.3.65-.09.48-.18.69-.2.43-.3.64-.32.36-.44.57-.16.45-.29.65-.35.33-.49.52-.27.38-.42.57-.24.42-.4.59-.33.34-.5.51-.35.32-.53.47-.34.33-.53.48-.42.23-.62.36c-.2.14-.38.31-.58.44s-.46.2-.66.32-.41.27-.61.39-.39.31-.6.42-.44.23-.66.32-.49.1-.71.18-.44.24-.67.3-.47.14-.71.18-.49.02-.73.04-.48.08-.73.08-.47-.15-.72-.18-.48.02-.73-.03-.45-.18-.69-.25-.47-.08-.71-.16c-.22-.08-.44-.17-.67-.27s-.44-.18-.67-.29c-.21-.1-.41-.25-.63-.37-.21-.11-.43-.19-.64-.32s-.37-.29-.57-.43-.41-.24-.61-.39-.4-.27-.58-.43-.36-.31-.54-.47-.28-.39-.46-.56-.37-.3-.54-.48-.29-.38-.45-.56-.33-.35-.48-.53-.26-.41-.41-.59-.35-.33-.5-.52-.32-.36-.46-.55-.25-.41-.4-.6-.28-.39-.42-.58-.25-.41-.38-.61-.29-.38-.42-.58-.26-.4-.39-.6-.22-.42-.35-.62-.23-.42-.36-.62-.24-.41-.36-.62-.24-.41-.36-.62-.26-.4-.38-.61-.31-.38-.43-.58-.2-.44-.32-.65-.21-.43-.33-.64-.23-.42-.35-.63-.19-.44-.31-.65-.25-.41-.37-.62-.28-.39-.4-.61-.17-.45-.28-.67-.32-.38-.43-.59-.13-.48-.24-.69-.23-.42-.34-.64-.28-.4-.39-.61-.22-.43-.33-.64-.14-.47-.25-.68-.31-.39-.41-.6-.2-.44-.31-.65-.18-.45-.29-.66-.26-.41-.37-.62-.22-.43-.33-.64-.18-.45-.29-.66-.22-.43-.33-.64-.18-.45-.29-.66-.24-.42-.35-.63-.24-.42-.35-.62-.26-.41-.37-.61-.17-.46-.28-.66c-.12-.21-.23-.42-.35-.62-.12-.21-.34-.36-.46-.57s-.17-.46-.3-.67-.29-.39-.41-.6-.22-.43-.34-.64-.22-.43-.35-.64-.31-.38-.44-.58-.26-.41-.38-.62-.27-.4-.4-.61-.22-.44-.34-.64-.29-.39-.42-.59-.25-.41-.38-.62-.29-.39-.42-.59-.15-.48-.28-.68-.34-.36-.47-.56-.21-.44-.34-.64-.26-.41-.39-.61-.38-.33-.51-.53-.17-.47-.3-.67-.27-.4-.41-.6-.32-.37-.46-.56-.26-.41-.39-.61-.25-.42-.38-.62-.31-.37-.45-.57-.27-.4-.41-.6-.26-.41-.4-.6-.27-.4-.42-.59-.38-.32-.52-.52-.22-.43-.37-.63-.32-.37-.46-.56-.23-.43-.38-.62-.29-.38-.44-.58-.31-.37-.46-.56-.29-.39-.44-.58-.28-.39-.43-.58-.3-.38-.44-.57-.38-.31-.53-.5-.21-.45-.36-.64-.29-.38-.44-.57-.33-.36-.48-.54-.32-.36-.47-.55-.27-.4-.43-.58-.36-.33-.52-.51-.29-.38-.45-.57-.35-.34-.5-.52-.24-.43-.4-.61-.4-.29-.56-.47-.3-.37-.46-.55-.28-.39-.45-.57-.35-.33-.51-.51-.29-.38-.46-.56-.39-.3-.55-.48-.24-.43-.41-.61-.39-.3-.55-.47-.31-.37-.48-.54-.32-.36-.49-.53-.4-.28-.57-.45-.31-.37-.47-.54-.32-.36-.49-.53-.38-.3-.55-.47-.27-.41-.44-.58-.4-.28-.57-.45-.27-.41-.45-.58-.43-.24-.61-.41-.29-.39-.46-.56-.33-.35-.51-.52-.4-.28-.58-.44-.37-.31-.55-.47-.32-.36-.5-.52-.43-.24-.61-.4-.33-.36-.51-.52-.38-.3-.56-.45-.31-.38-.49-.54-.36-.32-.54-.48-.39-.28-.58-.44-.41-.26-.59-.42-.36-.32-.55-.47-.35-.33-.54-.48-.39-.28-.58-.43-.38-.29-.57-.44-.38-.3-.57-.45-.37-.3-.56-.45-.33-.36-.52-.51-.46-.18-.65-.33-.38-.3-.57-.44-.32-.38-.51-.52-.4-.26-.59-.41-.37-.31-.56-.45-.45-.19-.65-.33-.33-.36-.53-.5-.41-.25-.61-.38-.36-.32-.56-.46-.46-.18-.66-.32-.35-.34-.55-.47-.4-.27-.6-.41-.44-.21-.64-.34-.42-.24-.62-.37-.39-.28-.59-.42-.35-.34-.56-.47-.42-.23-.63-.36-.43-.23-.63-.35-.39-.28-.6-.4-.44-.21-.64-.33-.35-.35-.55-.47-.46-.17-.67-.29-.38-.3-.59-.43-.46-.17-.66-.3-.37-.31-.58-.43-.44-.21-.64-.33-.41-.25-.62-.37-.41-.25-.62-.37-.44-.2-.65-.32-.38-.31-.59-.42-.41-.26-.62-.37-.41-.25-.63-.36-.44-.2-.66-.31-.44-.21-.65-.33c-.21-.11-.41-.25-.62-.36s-.42-.23-.64-.34-.43-.21-.65-.32-.42-.24-.64-.34-.45-.17-.67-.27-.47-.13-.69-.23-.44-.18-.67-.27-.44-.18-.67-.27-.44-.19-.66-.28-.44-.18-.67-.27-.43-.21-.66-.29-.46-.14-.69-.22-.46-.14-.69-.22-.44-.19-.67-.26-.47-.11-.7-.18-.47-.11-.7-.18-.44-.2-.67-.27-.44-.18-.68-.25-.47-.11-.7-.18-.47-.08-.71-.14-.44-.22-.67-.28-.47-.08-.71-.14-.48-.07-.71-.13-.45-.19-.68-.25-.47-.12-.7-.17-.49,0-.72-.06-.47-.08-.71-.13-.45-.17-.69-.22-.48-.07-.71-.11-.46-.14-.7-.19-.48-.05-.72-.09-.48-.02-.72-.06-.46-.18-.69-.22-.48-.06-.71-.1-.47-.09-.71-.13-.48-.06-.72-.09-.48-.05-.72-.09-.47-.1-.71-.14-.47-.11-.71-.14-.48-.04-.72-.07-.48-.05-.72-.08-.48,0-.72-.03-.47-.08-.71-.1-.47-.11-.71-.14-.48-.02-.72-.05-.49.03-.73,0-.47-.12-.71-.14-.48-.05-.72-.07-.48,0-.72-.02-.48-.04-.72-.06-.48-.04-.72-.06-.48-.08-.72-.09-.48,0-.72-.01-.48-.04-.72-.05-.49.06-.73.05-.48-.11-.72-.12-.48.01-.72,0-.48,0-.72-.02-.48-.09-.72-.1-.48.04-.72.03-.48-.08-.72-.08-.48,0-.72,0-.48-.03-.72-.04-.48.03-.72.03-.48.05-.72.04-.48-.07-.72-.07-.48.03-.72.03-.48.01-.72.01-.48-.1-.72-.1-.48.04-.72.04-.48-.02-.72-.01-.48,0-.72,0-.48.11-.72.12-.49-.08-.73-.07-.48.09-.72.09-.48-.02-.73-.01-.48-.03-.73-.02-.48.1-.72.11-.49-.05-.73-.04-.48,0-.72.02-.48.12-.72.13-.49-.04-.73-.03-.48.05-.72.07-.48.04-.72.06-.48.12-.72.14-.49-.08-.73-.07-.48.08-.72.1-.48.04-.72.06-.49-.01-.73,0-.47.15-.71.17-.49,0-.73.02-.48.09-.72.12-.48.05-.72.07-.49-.01-.73.01-.47.11-.71.13-.48.03-.72.06-.49.02-.73.05-.48.07-.72.1-.48.09-.72.12-.48.04-.72.07-.47.11-.71.14-.48.05-.72.08-.48.09-.71.13-.48.09-.71.13-.49.02-.72.06-.48.07-.72.1-.49.02-.72.06-.46.19-.7.23-.48.06-.72.1-.49,0-.73.04-.46.15-.7.2-.47.11-.71.16-.48.05-.72.09-.48.04-.72.08-.46.17-.69.22-.49.02-.72.06-.47.13-.7.18-.46.17-.69.22-.48.07-.71.12-.48.08-.71.14-.46.15-.69.21-.47.1-.7.16-.46.16-.69.22-.49.03-.72.09-.43.24-.66.3-.46.14-.69.21-.47.07-.7.13c-.23.07-.44.18-.67.25s-.46.12-.69.19-.49.03-.72.1-.44.18-.67.26-.44.19-.67.26-.45.16-.68.23-.48.08-.7.16-.42.25-.65.33-.48.08-.7.16-.43.21-.66.29-.46.14-.68.22-.47.1-.7.18-.42.24-.65.32-.49.05-.71.14-.4.28-.63.37-.46.12-.69.21-.45.16-.67.25-.44.18-.67.26-.43.21-.65.3-.48.08-.7.18-.4.29-.62.38-.49.08-.71.17-.39.31-.61.41-.46.15-.68.25-.47.12-.69.22-.39.29-.61.39-.43.2-.65.3-.47.13-.68.23-.41.25-.63.35-.45.16-.67.26-.45.17-.67.27-.4.27-.62.38-.44.19-.66.29-.41.26-.62.36-.46.15-.67.26-.4.27-.61.38-.46.15-.67.26-.43.21-.64.32-.43.21-.64.32-.43.22-.64.33-.4.28-.61.39-.45.17-.66.29-.42.22-.63.34-.41.25-.62.37-.42.24-.63.36-.44.19-.65.31-.4.26-.61.38-.42.23-.63.36-.41.26-.61.38-.39.29-.59.41-.38.29-.59.41-.48.13-.69.26-.41.25-.62.37-.4.27-.6.4-.42.24-.62.37-.37.31-.57.44-.36.32-.57.45-.41.26-.61.39-.47.17-.67.3-.34.35-.54.49-.46.18-.66.31-.33.37-.53.5-.45.2-.64.33-.34.36-.53.49-.46.18-.65.32-.38.3-.57.44-.35.33-.55.47-.4.26-.59.41-.37.3-.57.45-.42.24-.61.39-.32.37-.51.52-.41.26-.6.4-.35.33-.54.48-.43.23-.62.38-.31.38-.49.54-.43.23-.62.38-.37.3-.56.45-.32.37-.5.52-.38.29-.57.44-.42.25-.6.41-.3.38-.48.54-.36.31-.54.47-.38.29-.56.45-.38.3-.56.46-.28.4-.46.56-.37.31-.55.47-.42.26-.59.42-.32.36-.49.53-.34.34-.51.51-.32.36-.49.53-.4.28-.57.45-.27.41-.43.58-.37.31-.54.48-.27.41-.43.58-.35.33-.51.5-.34.34-.5.52-.29.38-.45.56-.35.33-.51.51-.31.36-.47.55-.3.38-.45.56-.33.35-.48.53-.29.38-.44.57-.38.31-.53.49-.29.38-.44.57-.25.41-.4.6-.26.41-.4.6-.33.35-.47.54-.31.37-.45.56-.29.38-.43.57-.22.43-.36.62-.29.38-.42.58c-.14.2-.3.37-.44.57s-.25.41-.38.61-.33.36-.46.56-.24.42-.37.62-.16.47-.28.67-.31.37-.43.58-.18.45-.3.66-.35.35-.47.56-.22.43-.34.63-.17.45-.29.66-.33.37-.44.58-.15.47-.26.68-.29.39-.4.6-.21.43-.32.64-.23.42-.34.63-.14.47-.25.68-.29.39-.4.6-.13.47-.23.69-.23.42-.34.63-.27.4-.37.62-.15.46-.25.68-.32.38-.42.6-.07.5-.17.71-.32.38-.42.59-.1.48-.2.7-.22.43-.32.64-.17.45-.27.67-.32.38-.42.6-.16.45-.26.67-.14.46-.24.68-.26.41-.36.63-.12.47-.22.69-.24.42-.34.64-.16.45-.26.67-.23.42-.33.64-.19.44-.29.66-.24.42-.34.64-.2.43-.3.65-.21.43-.31.65-.17.45-.27.67-.16.46-.26.67-.23.42-.34.64-.19.44-.3.65-.26.41-.36.62-.22.43-.32.64-.21.43-.32.65-.21.43-.31.65-.17.45-.28.66-.23.42-.34.63-.23.42-.34.63-.27.4-.38.61-.22.42-.34.63-.22.43-.33.64-.16.46-.28.67-.24.42-.36.62-.32.37-.44.57-.16.46-.28.67-.28.39-.41.59-.21.43-.34.64-.34.35-.47.55-.25.41-.38.61-.15.47-.29.67-.38.32-.51.52-.18.45-.32.65-.32.36-.46.55-.22.43-.36.63-.38.31-.53.5-.29.38-.43.57-.21.44-.36.63-.38.31-.53.5-.29.38-.45.56-.28.39-.44.57-.26.41-.42.59-.33.35-.49.53c-.16.18-.31.38-.47.55s-.33.36-.49.53-.36.32-.53.49-.37.32-.53.49-.29.4-.46.57-.41.27-.59.43-.33.35-.51.51-.31.38-.49.54-.4.28-.58.44-.34.35-.53.5-.39.29-.58.44-.36.32-.55.47-.45.22-.64.36-.38.31-.57.45-.39.28-.59.42-.41.25-.61.38-.38.3-.58.43-.39.29-.59.42-.43.21-.64.33-.39.3-.6.41-.42.23-.63.35-.41.25-.63.36-.49.1-.7.2-.42.23-.64.33-.41.26-.63.36-.43.22-.65.31-.49.08-.71.17-.46.14-.68.23-.44.2-.66.28-.43.24-.65.32-.48.08-.71.16-.47.1-.7.17-.44.18-.67.25-.44.19-.67.25-.45.16-.68.23-.48.05-.71.11-.45.18-.68.24-.46.11-.7.17-.47.07-.71.13-.44.2-.68.26-.47.08-.71.14-.46.11-.7.17-.47.09-.7.14-.46.14-.69.2-.48.05-.72.1-.45.18-.69.23-.48.05-.72.11-.47.1-.71.16-.46.13-.69.18-.46.12-.7.18-.45.16-.69.21-.49.02-.73.08-.45.18-.69.24-.48.08-.71.15-.45.17-.68.23-.44.21-.68.27-.48.09-.71.16-.47.12-.7.19-.46.16-.7.23c-.23.07-.48.06-.71.14s-.44.19-.67.27-.46.13-.69.21-.46.15-.68.24-.41.28-.63.37-.46.13-.68.22-.44.2-.65.29-.43.22-.64.32-.42.23-.64.33-.43.21-.64.32-.47.13-.68.24-.41.25-.62.36-.38.3-.59.42-.47.15-.67.28-.34.37-.54.49-.43.21-.63.34-.42.23-.62.37-.34.35-.53.49-.46.18-.66.32-.35.34-.54.48-.41.25-.6.39-.37.31-.55.46-.33.35-.51.51-.36.31-.54.47-.42.24-.6.4-.38.3-.55.46-.27.41-.44.58-.4.27-.57.44-.38.3-.55.47-.3.38-.46.55-.32.36-.49.53-.38.3-.55.47-.3.38-.46.55-.29.38-.45.56-.3.37-.46.55-.39.29-.55.47-.34.34-.49.52-.22.44-.38.62-.38.31-.53.5-.24.42-.39.61-.31.36-.46.55-.29.38-.44.57-.25.41-.39.61-.33.35-.47.54-.26.4-.4.59-.29.38-.43.58-.22.43-.35.63c-.13.19-.25.38-.38.58s-.3.35-.43.54-.26.38-.38.57-.25.39-.38.58-.24.39-.36.59-.17.44-.29.64-.35.33-.47.54-.19.43-.3.63-.24.4-.34.61-.12.46-.22.67-.16.44-.24.65-.16.44-.23.65-.2.42-.26.64c.19-.15.41-.25.59-.4s.33-.35.51-.5.37-.29.55-.45.35-.32.52-.48.33-.34.5-.5.36-.3.53-.47.36-.31.53-.48.34-.33.51-.5.32-.35.48-.52.27-.4.43-.57.38-.29.54-.46.35-.32.52-.49.29-.37.45-.54.26-.4.43-.57.32-.35.48-.52.37-.3.53-.47.27-.39.44-.56.38-.29.55-.46.33-.34.49-.51.29-.38.45-.55.38-.29.55-.46.33-.34.5-.5.4-.27.57-.43.35-.32.53-.48.37-.3.55-.45c.18-.15.35-.31.54-.47s.37-.29.56-.45.3-.38.49-.53.4-.26.59-.41.39-.27.58-.42.41-.25.6-.4.32-.37.51-.51.38-.3.57-.44.41-.26.6-.4.4-.26.6-.4.42-.24.62-.38.34-.36.54-.49.43-.22.63-.35.42-.24.62-.37.39-.29.6-.41.41-.26.62-.38.46-.16.67-.28.4-.28.61-.39.46-.17.67-.28.42-.23.64-.33.43-.22.65-.31.44-.2.66-.29.46-.16.68-.24.44-.2.67-.28.48-.09.71-.16.47-.11.7-.17.46-.17.69-.22.49,0,.72-.04.47-.1.71-.12c.23-.02.47-.07.72-.06.23,0,.47.04.72.06.23.02.48.03.72.06s.46.11.71.15.47.07.71.12.47.07.71.12.48.07.71.12.45.2.69.26.5-.01.73.04.45.21.69.26.48.11.71.15.49.04.72.08c.25.04.48.09.71.11.23.02.47.08.71.1s.48-.05.72-.03.47.02.71.03.47,0,.71.02.47.16.71.17.48.02.71.04.48.02.72.03.48,0,.72.02.48-.04.72-.03.48,0,.72,0,.48.06.72.06.48-.03.72-.03.48-.12.71-.13.48.09.72.08.48-.02.72-.03.48-.05.72-.07.48-.04.72-.06.47-.12.71-.15.48-.02.72-.05.48,0,.72-.04.48-.06.71-.11.47-.12.7-.17.48-.06.71-.12.47-.11.7-.17.46-.14.69-.21.42-.25.65-.33.46-.13.68-.22.46-.14.68-.23.41-.25.62-.36c.21-.11.45-.18.66-.29s.44-.2.65-.32.39-.28.6-.4.42-.24.62-.36.39-.27.6-.4.42-.24.62-.37.44-.21.64-.34.41-.25.61-.38.33-.37.52-.51.45-.19.64-.33.37-.31.56-.45.34-.34.53-.49.45-.21.63-.36.36-.32.55-.47.39-.28.58-.43.29-.4.47-.56.37-.3.55-.46.39-.29.56-.45.37-.3.55-.46.29-.39.46-.56.42-.25.59-.42.29-.39.46-.56.37-.31.53-.48.31-.36.48-.54.3-.37.46-.55.38-.3.54-.48.34-.33.5-.51.25-.42.4-.6.36-.32.51-.5.24-.42.39-.61.4-.29.55-.47.28-.38.43-.57.32-.36.46-.55.21-.44.36-.63.3-.37.45-.56.24-.41.39-.61.29-.38.43-.57.29-.38.43-.58.31-.36.45-.56.27-.39.41-.59.33-.35.46-.55.29-.38.42-.58.2-.44.34-.64.28-.39.41-.59.23-.42.36-.62.33-.36.46-.56.22-.43.35-.63.25-.41.38-.61.29-.38.42-.58.2-.44.33-.64.28-.39.41-.59.26-.4.38-.61.25-.41.37-.62.16-.46.28-.67.27-.39.39-.6.24-.41.36-.62.23-.42.35-.63.3-.38.42-.58.15-.47.27-.67.3-.38.42-.59.23-.42.35-.63.29-.39.4-.6.23-.42.34-.63.19-.44.31-.65.27-.4.39-.61.15-.46.27-.67.28-.39.4-.6.18-.45.3-.66.24-.42.35-.63.28-.39.4-.6.22-.43.33-.64.28-.39.4-.6.24-.41.36-.62.19-.44.31-.65.3-.38.42-.59.24-.41.36-.62.22-.43.34-.63.19-.44.31-.65.24-.42.36-.62.28-.39.41-.59.27-.4.39-.6.26-.4.38-.61.16-.46.29-.66.36-.34.48-.54.14-.47.27-.68.27-.39.4-.6.29-.38.42-.58.25-.4.38-.6c.13-.2.2-.44.34-.64s.29-.38.43-.58.32-.35.46-.55.32-.35.46-.54.26-.39.41-.58.3-.37.45-.56.28-.38.43-.57.31-.36.46-.55.23-.43.38-.61.33-.34.49-.52.32-.35.48-.53.32-.35.48-.53.27-.4.43-.57.34-.33.51-.51.29-.38.45-.56.42-.26.58-.43.25-.42.41-.59.32-.35.49-.53.38-.3.54-.47.3-.37.47-.54.33-.34.5-.51.4-.28.57-.44.33-.34.5-.51.39-.29.56-.45.29-.38.47-.55.4-.27.57-.44.32-.35.5-.52.37-.3.55-.47.27-.42.45-.58.36-.32.54-.48.42-.25.6-.41.32-.36.5-.52.35-.32.53-.48.38-.3.56-.45.32-.36.5-.52.42-.25.6-.41.37-.31.55-.46.36-.32.54-.47.37-.3.56-.45.34-.35.52-.5.41-.26.59-.41.32-.36.51-.51.4-.27.59-.42.36-.32.54-.47.45-.2.64-.35.34-.35.53-.5.43-.23.62-.38.37-.31.56-.46.34-.35.53-.49.42-.24.62-.38.38-.3.57-.44.39-.28.58-.43.41-.26.6-.4.37-.31.56-.45.35-.34.54-.48.41-.25.61-.39.42-.25.61-.38.41-.26.6-.39.4-.27.6-.4.42-.24.61-.37.33-.37.53-.5.46-.19.66-.31.36-.33.56-.46.45-.18.65-.31.38-.3.58-.42.39-.28.59-.4.43-.23.63-.35.44-.19.64-.31.39-.28.59-.39.41-.24.61-.35c.21-.11.42-.22.63-.33s.46-.15.67-.26.37-.31.58-.42.43-.19.64-.3.42-.22.63-.33.44-.19.65-.3.41-.24.62-.35.41-.25.62-.36.44-.19.65-.3.43-.21.64-.32.38-.3.59-.41.45-.18.66-.28.42-.22.64-.33.46-.13.68-.24.41-.23.63-.34.43-.2.65-.3.42-.23.64-.33.45-.17.67-.27.4-.27.62-.37.43-.2.65-.3.42-.23.64-.33.48-.11.69-.21.4-.29.61-.38.46-.15.67-.25.45-.16.67-.26.44-.19.66-.28.46-.15.68-.24.43-.21.65-.3.42-.24.64-.33.48-.08.71-.17.45-.17.67-.26.44-.19.67-.27.43-.23.65-.31.44-.2.66-.28.47-.1.7-.18.47-.11.69-.19.43-.23.66-.3.48-.08.71-.15.46-.15.68-.22.46-.14.69-.21.44-.19.67-.26.46-.12.69-.19.48-.06.71-.13.43-.24.66-.3.48-.07.71-.12.45-.18.68-.23.47-.11.7-.16.46-.1.69-.15c.23-.05.47-.07.71-.12s.49,0,.72-.04.45-.17.69-.22.46-.14.7-.18.49.03.73-.01.47-.1.7-.14.47-.07.71-.11.47-.09.71-.13.48-.02.72-.06.46-.12.7-.16.46-.13.7-.16.49.06.72.03.46-.16.7-.19.47-.05.71-.08.48,0,.72-.02.47-.04.71-.06.46-.14.7-.17.48.04.72.02.47-.07.71-.09.48-.02.71-.04.47-.04.71-.06.48-.01.72-.03.47-.09.71-.1.48-.02.72-.03.48-.04.71-.05.48-.03.71-.04.47-.08.71-.09.48.03.72.02.47-.12.71-.13.48.1.72.09.47-.12.71-.13.48.09.72.09.48-.03.72-.03.48-.12.71-.12.48.06.72.05.48.05.72.04.48-.03.72-.03.48-.03.72-.03.48-.03.72-.03.48,0,.72,0,.48.09.72.09.48,0,.72.01.48-.08.72-.07.48,0,.72.01.48.02.72.03.48.1.72.11.48-.06.72-.05.48.1.71.11.48-.07.72-.06.48.06.72.07.48.03.72.04.48-.02.72,0,.48.02.72.03.47.11.71.13.48-.06.72-.04.47.08.71.1.47.08.71.1.48-.02.72,0,.48.02.72.04.47.17.7.19.48.06.71.08.48.01.72.04.47.08.71.11.48.05.71.08.49-.02.72,0,.47.12.71.14.48.05.71.08.48.05.71.08.47.07.71.1.47.08.71.12.49-.06.73-.03.46.19.69.22.48.01.72.05.47.09.71.13.48.04.72.08.48.07.71.11.46.17.69.21.47.08.71.12.48.05.72.09.48.05.71.1.48.04.72.08.46.15.7.19.46.17.69.22.48.05.71.1.47.09.71.14.48.04.72.09.48.08.71.13.45.2.68.25.47.11.7.16.46.13.7.19.46.13.7.19.5,0,.73.05.47.11.7.17.45.19.68.25.48.05.71.12.45.16.69.22.44.2.67.26.46.15.69.22.48.07.71.14.46.12.69.19.44.21.67.28.46.15.69.22.46.13.69.2.45.16.68.23.48.06.71.14.42.25.65.33.47.12.69.2.45.18.67.26.46.14.69.22.47.12.69.21.45.17.67.25.45.17.67.26.43.22.65.31.48.09.7.18.45.17.67.26.42.24.64.33.46.14.68.23.39.3.61.4.45.17.67.27.45.17.67.27.46.15.68.25.38.31.6.41.45.16.67.27.46.15.67.26.41.26.62.37.45.18.66.3.43.22.64.34.39.29.6.4.44.19.65.31.41.25.62.37.41.24.62.36.39.29.59.41.45.18.65.3.37.3.57.43.42.23.62.36.37.3.57.43c.2.13.41.26.6.39s.4.27.59.41.43.23.62.36.34.35.54.48.41.25.6.39.41.25.6.39.38.3.57.44.38.3.57.44.41.26.6.4.37.31.56.45.37.3.56.45.4.26.59.41.39.28.58.43.34.35.52.5.35.32.54.48.38.29.57.44.41.26.59.42.36.32.54.47.29.4.47.55.38.29.56.45.37.31.54.47.38.3.55.46.29.39.47.55.42.25.59.42.35.33.52.5.28.4.45.57.33.35.49.52.34.34.5.51.3.37.47.54.36.31.52.49.33.34.49.52.26.4.42.58.39.29.55.47.31.36.46.55.22.44.37.62.31.36.46.55.34.34.48.53.32.35.47.54.27.39.42.58.23.42.37.61.36.33.5.52.24.41.38.61.3.37.43.57.25.41.38.6.32.36.45.56.24.41.38.61.25.4.38.6.28.38.41.58.17.46.29.66.36.34.48.54.15.46.27.67.34.35.46.55.2.43.32.64.17.45.29.66.32.36.44.57.24.41.35.62.2.43.31.64.16.45.28.66.26.4.37.61.21.42.32.63.3.38.41.59.22.42.33.63.18.44.29.65.18.44.28.66.24.41.34.63.18.44.28.66.26.4.37.61.16.45.27.67.25.41.36.62.21.43.31.64.18.44.28.66.18.44.28.66.25.41.35.62.19.44.29.65.17.45.28.66.2.43.3.65.22.42.32.64.27.4.37.62.13.47.23.68.19.44.29.66.24.43.34.65c.1.22.19.44.28.66s.28.4.37.62.17.45.26.67.11.47.2.7.22.43.31.65.11.47.2.7.25.42.33.64.07.48.15.71.25.41.34.64.14.46.22.68.2.44.28.66.09.48.17.7.15.45.23.68.13.46.21.69.29.41.37.63.03.5.11.72.17.45.25.68.18.44.26.67.19.44.27.67.13.47.21.69.26.42.34.64.1.48.18.7.16.45.25.68.27.41.36.64.13.46.23.69.13.47.22.69.2.44.29.66.21.43.31.65.14.47.24.68.2.44.31.66.23.42.34.64.25.42.36.63.19.45.3.66.2.44.32.65.23.43.34.64.32.38.44.58.2.44.33.65.22.43.35.63.36.34.49.54.21.44.35.64.36.33.51.52.24.42.39.61.25.42.4.61.38.31.54.49.3.38.46.55.33.35.51.51.38.3.55.46.35.32.54.48.38.29.57.44.36.31.56.45.41.25.61.38.4.25.61.38.39.28.6.39.39.29.61.4.48.12.7.21c.22.1.44.21.66.31s.43.25.65.34.47.13.7.21.44.21.67.29.47.13.7.21.48.09.71.16.48.1.71.16.44.23.68.29.48.06.72.11.48.07.72.11.48.09.72.13.47.12.71.15.48.07.72.09.49-.05.73-.03.48.08.72.09.48.09.72.09.49.02.73.02.48-.13.72-.14.48-.02.72-.04.49.05.73.03.48-.06.72-.08.47-.13.71-.16.48-.05.72-.09.47-.11.71-.15.5.04.74,0,.46-.17.69-.23.49-.03.72-.09.45-.2.68-.26.48-.06.71-.13.46-.13.7-.2.45-.18.68-.25.46-.14.69-.22.46-.13.69-.21.44-.21.67-.28.47-.11.7-.19.48-.12.71-.2c.23-.08.47-.12.69-.2s.42-.26.64-.35.47-.13.68-.23.46-.16.67-.26.43-.23.64-.33.4-.28.61-.39.41-.24.62-.36.41-.24.62-.36.47-.14.68-.26.43-.22.63-.35.41-.26.6-.39.39-.28.59-.42.39-.29.58-.43.32-.37.51-.52.4-.27.58-.42.35-.32.54-.48.37-.31.54-.47.41-.26.58-.43.37-.31.54-.48.28-.4.45-.57.35-.33.51-.51.3-.37.46-.56.29-.38.44-.57.35-.33.5-.52.22-.43.37-.62.31-.36.45-.56.35-.34.48-.54.21-.43.34-.63.27-.39.4-.6.18-.45.3-.66.24-.41.35-.62.29-.39.4-.6.2-.43.3-.65.16-.45.26-.67.27-.4.37-.62.23-.43.32-.65.11-.47.19-.7.12-.47.2-.69.25-.42.32-.65.07-.48.14-.71.25-.42.32-.65.12-.46.19-.69,0-.49.06-.73.11-.46.16-.7.18-.45.23-.68.06-.47.1-.71.05-.47.09-.71.19-.45.22-.69.06-.48.09-.71-.01-.48.01-.72.05-.47.07-.71.12-.47.14-.71,0-.48.02-.72-.04-.48-.03-.72.04-.48.05-.72.04-.48.04-.72-.02-.48-.02-.72.05-.48.05-.72,0-.48,0-.72-.11-.47-.13-.71.05-.48.04-.72-.12-.47-.14-.71.01-.48-.01-.72-.03-.48-.05-.72-.04-.48-.07-.72-.06-.47-.1-.71-.06-.48-.1-.71-.15-.46-.19-.7-.07-.47-.11-.71-.05-.48-.1-.71-.15-.46-.21-.69-.11-.47-.16-.7-.16-.45-.22-.69-.08-.47-.14-.7-.05-.48-.12-.71-.18-.45-.25-.68-.17-.45-.24-.68c-.07-.22-.12-.45-.2-.68s-.11-.46-.2-.68-.25-.41-.34-.62-.07-.48-.17-.69-.29-.38-.39-.6-.17-.44-.27-.65-.15-.45-.26-.66-.24-.41-.34-.62-.21-.42-.32-.63-.24-.41-.35-.61-.26-.39-.37-.6-.25-.4-.36-.6-.17-.44-.28-.65-.21-.42-.32-.63-.21-.42-.32-.63-.28-.38-.39-.59-.17-.44-.27-.65-.2-.42-.3-.63-.31-.37-.41-.58-.21-.42-.31-.64-.12-.46-.21-.68-.2-.42-.29-.64c-.09-.21-.16-.43-.24-.66s-.12-.45-.2-.67-.15-.44-.23-.66-.28-.39-.35-.61-.09-.46-.16-.68-.15-.44-.22-.66-.07-.47-.14-.69-.27-.41-.33-.63-.04-.48-.1-.7-.21-.43-.27-.65,0-.49-.07-.71-.16-.44-.22-.67-.18-.44-.23-.67-.11-.46-.16-.68-.07-.47-.12-.69-.1-.46-.15-.69-.07-.47-.11-.69-.18-.44-.23-.67c-.04-.24-.06-.49-.1-.73s-.05-.49-.09-.73-.13-.48-.17-.72-.02-.5-.05-.74-.05-.49-.08-.73-.12-.49-.13-.73.03-.5.03-.74-.06-.5-.05-.74c.01-.25.03-.5.07-.74.04-.25.11-.49.17-.72.07-.24.18-.46.28-.68s.25-.42.39-.61.31-.36.49-.52.36-.3.58-.42c.2-.11.42-.21.66-.29.22-.07.44-.17.7-.22.23-.04.47-.04.73-.06.23-.02.47-.1.73-.09.23,0,.48.04.74.06.24.02.47.1.73.13.24.03.49.02.72.1s.46.16.68.27.41.26.62.4.44.22.63.38.3.39.48.56.35.33.52.52.38.32.53.51.29.39.44.59.21.45.36.65.35.35.49.55.2.45.33.66.3.39.43.6.31.39.44.6.27.42.4.63.21.45.33.67.26.42.38.63.18.47.3.68.3.39.42.6c.13.22.23.44.35.64.13.22.23.44.36.64.14.22.34.37.47.56.14.2.21.44.35.63s.23.43.37.62.39.31.53.51.28.39.42.59.23.43.38.62.33.35.48.54.26.41.4.6.34.35.48.54.24.42.39.61.25.42.4.6.32.36.47.54.29.38.44.57.29.39.44.57.41.29.56.47.31.37.46.55.3.38.46.55.32.36.48.53.3.38.46.56.36.32.53.49.32.36.48.53.38.3.55.46.27.41.44.58.44.24.61.4.32.36.5.52.34.35.52.5.42.25.6.4.31.38.5.53.41.25.6.39.44.21.63.35.38.3.58.43.39.27.6.4.37.32.58.44.46.16.67.27.39.28.61.39.45.16.67.26.41.26.63.35.46.14.68.22.44.18.67.26.46.13.69.19.47.09.7.15.45.19.68.24.48.05.71.09.47.1.71.13.47.1.71.12.48-.08.72-.07.47.03.71.03.48.06.72.05.47-.1.71-.12.48,0,.71-.03.48,0,.72-.03.46-.13.7-.18.47-.06.71-.12.46-.1.7-.16.45-.16.68-.23.47-.09.7-.17.47-.1.7-.18.41-.27.63-.36.48-.08.7-.17.4-.27.62-.37.43-.19.65-.29.46-.14.68-.25.41-.24.63-.35.42-.22.63-.34.4-.27.61-.39.41-.24.61-.37.39-.28.59-.41.42-.23.62-.36.4-.26.6-.4.4-.26.6-.4.41-.25.61-.39.34-.34.54-.49c.19-.14.35-.32.54-.48s.42-.25.6-.41.28-.4.45-.57.4-.28.56-.46.31-.37.46-.55.24-.42.39-.61.31-.37.45-.56.27-.4.4-.6.31-.37.44-.57.23-.42.35-.63.27-.4.38-.61.17-.45.28-.66.3-.38.41-.6.22-.42.32-.64.07-.49.17-.71.3-.39.39-.61.18-.44.27-.67.12-.47.2-.69.18-.44.26-.67.1-.47.18-.7.26-.42.34-.65.05-.49.12-.72.14-.46.2-.69.12-.46.18-.7.16-.46.22-.69.09-.47.14-.71.18-.45.23-.69.01-.49.06-.73.1-.47.15-.71.13-.47.17-.7.13-.47.18-.7.01-.49.05-.72.12-.47.16-.71,0-.49.03-.73.13-.47.16-.71.1-.47.13-.71-.03-.49,0-.73.13-.47.15-.71.05-.48.07-.72.04-.48.06-.72-.07-.49-.05-.73.08-.48.09-.72-.06-.48-.06-.72.11-.48.11-.72.02-.48.02-.71-.09-.48-.1-.71c0-.07-.07-.31-.16-.68-.05-.2-.05-.44-.11-.69-.05-.21-.2-.42-.26-.66-.06-.22-.06-.46-.12-.69s-.05-.46-.11-.69-.1-.46-.15-.69-.16-.45-.21-.67c-.06-.24-.17-.45-.22-.67-.05-.25-.06-.49-.1-.7-.05-.28-.11-.51-.12-.68-.02-.24-.1-.47-.12-.71s0-.48-.03-.71-.03-.48-.05-.71.03-.48,0-.72-.13-.47-.15-.7-.08-.47-.1-.71.02-.48,0-.72,0-.48-.01-.72-.04-.48-.05-.71.05-.48.04-.72-.1-.48-.1-.71.09-.48.1-.71,0-.48.02-.71.04-.47.06-.71-.06-.49-.04-.72.11-.47.14-.7.12-.46.16-.7,0-.48.06-.72.06-.48.12-.71.14-.46.21-.68.15-.46.24-.68.28-.4.38-.61.21-.42.32-.63.23-.41.35-.62.27-.39.4-.58.24-.41.39-.59.31-.36.47-.53.31-.36.48-.53.35-.32.53-.48.35-.31.54-.46.37-.29.57-.42.4-.26.6-.38.43-.19.65-.3.42-.21.64-.32.37-.32.59-.42.46-.13.69-.22c.19-.07.4-.21.65-.3.21-.07.45-.1.69-.18.21-.07.44-.15.67-.23.22-.07.44-.15.67-.23.22-.07.46-.08.7-.16.22-.07.42-.21.65-.28s.47-.07.7-.14.45-.14.68-.21.46-.11.69-.18.45-.14.68-.21.45-.16.68-.22.44-.18.67-.25.46-.12.69-.19.49-.03.72-.09.46-.14.69-.2.46-.14.69-.2.46-.13.69-.19.47-.13.7-.18.47-.11.7-.17.45-.17.68-.22.49-.02.72-.07c.24-.05.47-.13.69-.18.24-.05.48-.09.7-.13.25-.05.48-.11.7-.15.25-.04.49-.08.71-.11.27-.03.51-.01.71-.01.21,0,.45-.01.72.04.22.04.43.2.67.27.22.06.48.04.72.12.22.07.45.14.69.23s.44.2.67.29.46.14.68.23.46.16.68.25.45.18.68.27.43.23.66.31.49.07.72.15c.24.08.45.22.67.28.25.07.48.12.7.16.23.04.48,0,.72.03s.47.07.71.09.47.1.71.12.47.03.71.04.48.04.72.04.48-.05.71-.06.47-.07.71-.09.47-.05.71-.07.47-.07.7-.1.48.03.72,0,.46-.15.69-.19.47-.09.7-.14.45-.14.69-.2.47-.06.7-.12.45-.16.68-.23.46-.13.69-.19.45-.15.68-.22.46-.13.68-.2.45-.16.67-.25.48-.08.7-.17.45-.16.67-.25.39-.29.61-.39.45-.17.66-.27.42-.23.63-.33.44-.19.65-.3.4-.26.61-.37.42-.22.63-.34.4-.25.61-.38.45-.18.65-.31.42-.23.62-.37.35-.33.55-.47.42-.24.6-.38.37-.31.55-.46.33-.35.51-.5.42-.24.59-.4c.13-.12.25-.35.44-.57.14-.16.29-.35.45-.56.14-.18.37-.3.53-.5.15-.18.32-.35.48-.54s.21-.45.36-.64.3-.38.45-.56c.16-.19.4-.31.54-.48.17-.2.31-.4.45-.55.22-.24.39-.42.51-.48.2-.1.41-.21.65-.31.21-.08.42-.23.66-.31.22-.07.46-.13.7-.19.23-.05.49.03.73-.02s.47-.08.71-.11.45-.19.7-.22.48.01.72-.01.48-.02.72-.03.47-.14.71-.15.48.02.72.01.48,0,.72,0,.48-.03.72-.02.48.01.72.03.48.07.72.09.47.12.71.15.48.06.71.1.48.07.71.11.5,0,.73.06.46.16.69.23c.24.08.46.18.67.27.23.1.4.29.6.4.22.12.45.15.63.29.15-.16.13-.35-.03-.61-.1-.16-.32-.29-.51-.48-.15-.15-.27-.38-.46-.53-.18-.14-.41-.21-.61-.35-.19-.13-.37-.28-.57-.41s-.35-.32-.56-.44-.47-.12-.68-.23-.43-.21-.63-.31c-.22-.11-.4-.29-.6-.38-.24-.1-.46-.18-.66-.25-.3-.1-.53-.12-.67-.1ZM554.64,12.8c-.1-.23-.08-.45-.04-.69.04-.22.03-.48.16-.71.11-.19.29-.38.46-.57.15-.17.3-.38.49-.55.18-.15.41-.26.61-.41.19-.14.4-.27.6-.41s.42-.23.64-.36.4-.28.61-.4.45-.2.66-.31.43-.23.65-.34.45-.2.67-.3.42-.27.64-.36.48-.15.7-.23c.24-.09.49-.13.71-.21.25-.09.46-.22.68-.29.27-.08.5-.16.7-.21.39-.09.68-.1.74-.03-.03.23-.15.47-.16.7s.01.47.02.71.05.47.06.7-.02.48,0,.71.15.45.19.68.1.46.15.69.07.46.12.69.13.45.19.67.14.45.2.67.06.47.12.69.17.44.24.66.12.42.19.65c-.24.01-.45.06-.69.07s-.48-.04-.72-.03-.48.03-.71.03-.48.1-.71.1-.47-.13-.71-.14-.48.02-.71,0-.48,0-.71-.02-.47-.09-.7-.12-.46-.11-.69-.15-.48,0-.71-.05-.44-.19-.67-.26-.48-.04-.71-.11-.41-.27-.63-.35-.46-.11-.68-.21-.42-.21-.64-.32-.42-.19-.63-.3ZM576.95,10.49c-.12.09-.35.18-.64.34-.19.1-.35.31-.59.43-.2.1-.43.19-.66.3-.21.1-.41.26-.64.36s-.46.15-.69.25-.45.19-.67.29-.46.17-.68.26-.44.23-.66.32c-.24.09-.48.15-.7.23-.24.09-.47.18-.69.25-.26.08-.5.14-.7.18-.35.08-.64.12-.74.04.14-.22.31-.43.41-.65.11-.23.25-.45.31-.69s.07-.5.11-.75.05-.5.07-.74,0-.5,0-.75.09-.5.08-.75-.05-.5-.06-.75-.05-.5-.05-.75.07-.49.08-.74-.04-.51,0-.76c.22.07.46.11.69.16s.44.13.67.18.46.07.68.11.46.07.69.11.44.16.67.2.46.05.69.1.45.12.67.18.46.08.68.16.42.21.63.3.43.18.63.29.45.16.64.3.28.36.45.53c.07.25.12.42.1.58-.03.21-.11.39-.27.54-.13.12-.33.2-.52.34Z"/>
  <path class="b" d="M493.79,147.9c-.19.16-.42.24-.6.4s-.3.39-.48.56-.34.36-.51.52-.38.31-.55.48-.33.36-.5.54-.42.27-.59.44-.27.42-.44.6-.35.34-.52.52-.38.31-.55.49-.26.42-.43.6-.43.27-.59.45-.3.39-.47.56-.36.33-.53.51-.32.37-.48.55-.29.4-.46.58-.31.38-.48.55-.44.25-.61.43-.25.44-.42.61-.38.31-.55.48-.37.32-.54.49-.3.4-.48.56-.39.29-.58.46-.36.33-.54.49-.42.27-.61.42c-.18.15-.34.33-.53.49s-.35.32-.54.48-.38.29-.56.45-.41.26-.6.41-.34.34-.53.49-.36.32-.55.46-.43.23-.62.38-.36.32-.56.46-.37.31-.57.45-.42.24-.62.38-.34.35-.54.49-.43.23-.63.36-.37.31-.58.44-.46.17-.67.3-.39.29-.6.41-.4.27-.61.38-.45.19-.66.3-.41.25-.63.36-.41.25-.63.36-.43.22-.65.32-.48.11-.7.2-.42.24-.65.33-.46.15-.69.23-.47.12-.7.19-.45.17-.69.23-.45.19-.69.24-.5-.03-.74.01-.46.17-.7.2-.49-.03-.73,0-.48.1-.72.1-.48,0-.72,0-.48-.03-.72-.05c-.24-.02-.48.02-.72,0s-.47-.06-.71-.08-.47-.05-.71-.07-.47-.11-.7-.14-.47-.1-.7-.13-.48-.04-.71-.07-.48.01-.72-.02-.46-.18-.69-.21-.47-.08-.7-.11-.49.03-.72,0-.46-.11-.7-.15-.46-.12-.7-.16-.48.04-.72,0-.46-.14-.69-.17-.48,0-.71-.04-.47-.08-.7-.11-.46-.13-.7-.15-.48.02-.71,0-.48.03-.71.01-.47-.11-.7-.13-.48.04-.71.02-.47-.07-.71-.07-.47-.04-.71-.04-.47-.05-.71-.05-.47.03-.71.03-.47.07-.71.08-.47.06-.71.07-.48-.03-.71,0-.47.04-.71.06-.47.07-.71.1c-.23.03-.48.01-.72.06s-.46.14-.7.2-.45.17-.68.25-.45.16-.68.24-.47.11-.7.2-.42.24-.64.34-.45.17-.67.27-.43.2-.65.31-.46.15-.67.27-.42.23-.63.35-.42.23-.63.35-.38.31-.59.43-.43.22-.63.35-.43.22-.64.35-.39.28-.6.41-.4.28-.6.41-.38.3-.58.43-.38.3-.58.44-.44.22-.63.36-.4.27-.6.41-.42.25-.61.4-.33.37-.52.52-.44.22-.63.36-.36.32-.55.47-.4.28-.58.43-.38.31-.56.46-.35.35-.53.5-.4.27-.58.43-.39.29-.57.44-.33.36-.51.51c-.19.16-.36.33-.53.49-.18.16-.33.34-.51.51s-.38.29-.55.46-.3.37-.47.54-.41.27-.57.44-.3.38-.46.55-.32.35-.48.53-.31.36-.47.54-.31.36-.47.54-.28.39-.43.57-.26.4-.41.59-.37.32-.52.51-.22.43-.37.62-.36.33-.51.52-.29.38-.43.57-.25.41-.39.6-.31.36-.45.56-.19.45-.33.65-.28.39-.41.59-.27.39-.41.59-.26.4-.39.6-.34.35-.47.55-.15.47-.28.67-.32.36-.45.57-.19.45-.31.65-.27.39-.4.6-.23.42-.36.62-.33.36-.46.56-.26.41-.38.61-.16.47-.28.67-.34.36-.46.57-.24.42-.36.63-.16.46-.28.67-.3.38-.42.59-.27.4-.39.61-.16.46-.27.67-.29.39-.41.6-.17.46-.29.67-.3.38-.42.59-.14.47-.26.68-.3.38-.42.59-.27.4-.39.61-.14.47-.25.68-.32.37-.44.58-.25.42-.36.63-.14.48-.25.69-.21.43-.33.64-.25.41-.37.62-.24.42-.36.63-.33.36-.45.57-.18.45-.29.66-.25.41-.36.62-.23.42-.35.63-.25.41-.37.62-.17.45-.29.66-.27.4-.39.6-.22.42-.34.62c-.12.21-.31.38-.44.58s-.26.41-.38.61-.21.44-.34.64-.26.41-.39.61-.24.42-.37.62-.37.33-.5.53-.16.47-.29.67-.35.34-.49.54-.25.41-.38.61-.25.42-.39.61-.32.37-.46.56-.27.4-.41.6-.27.4-.42.59-.26.41-.4.6-.38.32-.52.51-.24.43-.38.61-.33.35-.48.54-.27.4-.42.59-.36.32-.52.51-.31.36-.47.55-.23.43-.39.61-.39.3-.55.48-.24.43-.4.61-.35.33-.51.5-.3.37-.46.55-.36.32-.52.49-.27.41-.43.58-.37.31-.53.48-.31.37-.48.54-.3.38-.46.55-.33.35-.5.52-.41.27-.58.44-.36.31-.53.48-.31.37-.48.54-.31.37-.48.53-.4.27-.57.44-.31.36-.49.53-.38.29-.56.46-.38.29-.56.45-.28.39-.46.55-.37.3-.55.46-.32.35-.5.51-.4.27-.58.43-.37.31-.55.46-.38.29-.57.44-.34.34-.52.5-.39.28-.57.44-.36.32-.54.47-.37.3-.56.46-.32.37-.5.52-.4.28-.59.43-.41.27-.6.43c-.18.15-.33.35-.52.5s-.36.31-.55.46-.37.31-.55.46-.44.22-.63.37-.36.32-.55.47-.36.32-.55.47-.42.24-.61.39-.33.36-.52.5-.38.3-.57.44-.41.26-.6.4-.38.29-.57.44-.38.29-.58.43-.43.22-.63.35-.37.31-.56.45-.4.26-.6.4-.37.31-.57.44-.43.22-.63.36-.39.28-.59.42-.35.35-.55.48-.47.16-.67.29-.38.3-.58.43-.38.29-.58.42-.42.23-.63.35-.43.22-.63.35-.36.33-.56.46-.45.18-.66.3-.36.33-.57.45-.48.14-.68.26-.38.29-.59.41-.43.21-.64.33-.4.27-.61.39-.44.2-.65.32-.44.19-.65.31-.41.24-.62.36-.43.21-.64.32-.41.26-.62.37-.39.28-.61.39-.44.19-.65.3-.42.23-.64.34-.45.17-.66.28-.44.19-.66.29-.42.22-.64.32-.43.21-.65.31-.42.22-.64.32-.45.17-.67.27-.41.26-.63.36-.44.18-.66.27-.43.2-.65.3-.44.18-.67.27-.47.1-.7.19-.43.21-.65.3-.44.2-.66.28-.45.17-.67.26-.44.18-.67.26-.45.17-.67.25-.43.21-.66.29-.49.06-.71.14-.43.23-.65.31-.46.12-.69.2-.43.22-.66.3-.48.08-.71.15-.44.2-.66.28-.46.12-.69.19-.46.13-.69.2-.47.08-.7.15-.42.27-.65.33-.49.04-.72.11-.47.1-.7.16-.44.2-.67.26-.47.09-.7.15-.44.21-.67.27-.48.06-.71.12-.46.14-.69.2-.48.05-.71.11-.45.17-.68.23-.49.02-.72.07-.46.15-.69.2-.47.06-.71.11-.44.21-.68.26-.48.02-.72.07-.45.17-.69.22-.48.02-.72.06-.46.12-.7.16-.48.05-.71.09-.46.16-.69.2-.48.02-.72.06-.48,0-.72.04-.47.09-.71.13-.47.12-.7.15-.47.08-.71.12-.49-.03-.72,0-.46.17-.7.2-.47.05-.71.08-.48-.03-.72,0-.47.11-.71.14-.48,0-.72.02-.47.13-.71.15-.48.01-.72.03-.48.04-.71.06-.48.03-.72.05-.48.04-.71.06-.48-.03-.72-.02-.48.03-.71.04-.47.13-.71.14-.48.04-.71.05-.48-.09-.72-.08-.48.04-.71.05-.48.06-.71.07-.48.02-.72.03-.48-.06-.72-.05-.48.03-.72.03-.48,0-.72,0-.48.01-.72.01-.48.04-.72.04-.48,0-.72-.01-.48,0-.72,0-.48-.01-.72-.02-.48-.06-.71-.06-.48.11-.72.1-.48-.07-.71-.07-.48.01-.72,0-.48-.05-.72-.06-.48-.01-.72-.03-.47-.11-.71-.12-.48-.03-.72-.04-.48-.05-.71-.06-.48.02-.72,0-.48.02-.72,0-.47-.12-.71-.14-.48-.04-.72-.06-.49.07-.73.05-.48-.06-.72-.09-.47-.12-.71-.14c-.24-.02-.49,0-.72-.02s-.47-.13-.71-.16-.49.02-.73-.01-.48-.04-.72-.07-.48-.04-.72-.07-.47-.12-.71-.15-.49,0-.73-.02-.48-.01-.72-.04-.47-.15-.71-.18-.48-.04-.72-.07-.47-.1-.71-.13-.49.01-.73-.02-.48-.03-.72-.06-.48-.06-.72-.09-.48-.06-.72-.1-.47-.1-.71-.14-.47-.08-.71-.12-.47-.1-.71-.14-.48-.05-.72-.09-.46-.16-.7-.2-.47-.08-.71-.12-.49.03-.73,0-.47-.08-.71-.12-.45-.21-.69-.26-.49,0-.73-.04-.46-.16-.69-.21-.48-.05-.72-.1-.48-.05-.72-.1-.46-.15-.69-.2-.47-.11-.7-.16-.48-.05-.71-.1-.45-.19-.68-.25-.47-.08-.71-.13-.49-.02-.72-.08-.47-.11-.7-.16-.46-.14-.69-.2-.46-.14-.69-.2-.47-.09-.7-.15-.47-.12-.7-.18-.46-.16-.69-.22-.44-.2-.67-.27-.47-.11-.7-.17-.47-.12-.7-.19-.47-.1-.7-.17-.46-.14-.69-.21-.44-.21-.66-.29-.48-.08-.71-.16-.44-.19-.67-.27-.45-.17-.68-.25-.44-.18-.67-.26-.44-.18-.67-.26-.45-.16-.68-.24-.44-.19-.66-.28-.44-.19-.66-.27-.49-.07-.71-.16-.4-.28-.62-.37-.47-.12-.69-.22-.44-.19-.66-.29-.42-.24-.64-.33-.43-.21-.65-.3-.48-.1-.7-.2-.39-.29-.61-.4-.45-.18-.66-.28-.41-.24-.63-.35-.44-.19-.65-.3-.46-.16-.67-.26-.4-.27-.61-.38-.47-.14-.68-.25-.38-.31-.59-.42-.44-.2-.65-.32-.45-.17-.66-.29-.39-.29-.6-.4-.43-.22-.63-.34-.43-.22-.63-.34-.43-.22-.63-.34-.34-.35-.55-.48-.42-.24-.62-.36-.46-.16-.67-.29-.33-.37-.53-.5-.41-.25-.61-.38-.4-.26-.6-.39-.45-.19-.64-.33-.38-.29-.58-.43-.42-.23-.62-.37-.36-.33-.55-.46-.4-.26-.6-.4-.38-.3-.57-.44-.35-.33-.54-.47-.46-.18-.66-.32-.31-.38-.5-.52-.42-.24-.61-.39-.39-.29-.57-.43-.39-.28-.57-.43-.36-.32-.55-.47-.37-.3-.56-.45-.36-.32-.55-.47-.37-.31-.55-.46-.4-.27-.58-.43-.29-.41-.47-.57-.45-.22-.64-.38c-.18-.16-.27-.42-.45-.58s-.45-.22-.62-.38-.32-.36-.5-.52-.36-.31-.54-.48-.27-.41-.44-.58-.36-.32-.52-.49-.32-.36-.48-.53-.35-.33-.51-.51-.29-.38-.45-.56-.37-.32-.52-.5-.25-.41-.41-.6-.34-.34-.49-.53-.36-.32-.51-.51-.19-.46-.34-.65-.4-.29-.55-.48-.18-.46-.33-.65-.31-.37-.45-.56-.35-.34-.49-.53-.2-.45-.34-.64-.26-.4-.4-.6-.34-.35-.48-.54-.3-.38-.43-.58-.2-.44-.34-.64-.28-.39-.41-.59-.19-.44-.32-.65-.25-.41-.38-.61-.29-.38-.41-.59-.33-.36-.45-.57-.18-.45-.3-.66-.24-.41-.36-.62-.31-.38-.43-.58-.19-.45-.3-.66-.18-.45-.29-.66-.26-.41-.37-.62-.21-.43-.32-.64-.28-.39-.39-.61-.23-.42-.34-.64-.22-.43-.33-.64-.23-.42-.33-.64-.22-.43-.33-.64-.22-.43-.33-.64-.18-.45-.29-.66-.21-.43-.32-.65-.25-.41-.35-.63-.15-.46-.25-.68-.17-.45-.27-.67-.2-.44-.3-.66-.25-.42-.35-.63-.14-.46-.24-.68-.29-.4-.39-.62-.2-.44-.3-.66-.21-.44-.3-.66-.16-.45-.26-.68-.22-.43-.32-.65-.14-.46-.24-.68-.17-.45-.27-.67-.12-.47-.21-.7-.27-.41-.36-.63-.11-.48-.2-.7-.19-.44-.28-.67-.2-.44-.29-.66-.26-.42-.35-.64-.11-.48-.2-.7-.19-.45-.27-.67-.18-.45-.27-.67-.2-.44-.28-.67-.13-.47-.21-.69-.24-.42-.33-.65-.18-.45-.27-.67-.08-.48-.17-.71-.23-.43-.31-.65-.23-.43-.32-.65-.05-.5-.13-.72-.2-.44-.28-.66-.18-.45-.27-.67-.24-.42-.32-.65-.06-.49-.15-.71-.22-.43-.3-.66-.13-.46-.21-.68-.26-.41-.34-.63c-.08-.23-.1-.48-.19-.7s-.22-.43-.31-.65-.16-.46-.25-.68-.14-.47-.23-.69-.16-.46-.26-.68-.31-.39-.41-.61-.15-.47-.25-.68-.25-.41-.36-.63-.17-.46-.28-.68-.2-.44-.32-.66-.32-.38-.44-.59-.2-.45-.32-.66-.18-.46-.3-.66-.32-.37-.45-.58-.21-.44-.34-.64-.25-.41-.39-.61-.25-.42-.39-.62-.32-.37-.46-.56-.27-.4-.42-.59-.3-.38-.45-.57-.32-.37-.47-.55-.4-.29-.56-.47-.27-.41-.43-.58-.31-.38-.48-.55-.33-.36-.5-.52-.42-.26-.6-.42-.35-.34-.53-.49-.33-.36-.51-.51-.42-.25-.61-.39-.4-.27-.6-.41-.37-.32-.57-.45-.39-.28-.6-.41-.46-.17-.67-.29-.4-.27-.62-.38-.45-.17-.67-.27-.39-.29-.61-.39-.48-.09-.71-.18-.4-.29-.63-.38-.49-.06-.72-.13-.45-.16-.68-.23-.47-.1-.7-.16-.44-.21-.68-.27-.48-.07-.71-.11-.48-.03-.72-.07-.47-.09-.71-.12-.47-.09-.71-.12-.48.02-.72,0-.47-.15-.71-.16-.48.1-.73.1-.48-.07-.72-.07-.48.02-.72.02-.48,0-.72,0-.48-.02-.72,0-.47.15-.71.18-.48.02-.72.05-.48-.01-.72.02-.47.08-.71.12-.46.13-.7.17-.49,0-.73.04-.46.15-.7.2-.47.08-.71.13-.45.19-.68.25-.49,0-.73.06-.46.13-.69.2-.45.18-.68.24-.48.06-.72.13-.45.16-.68.24-.45.19-.68.26-.48.09-.71.17-.44.23-.67.31c-.23.08-.47.1-.7.19s-.43.23-.65.32-.47.11-.69.21-.38.32-.6.42-.5.07-.71.17-.41.25-.62.36-.39.29-.6.41-.46.16-.67.28-.39.28-.6.4-.46.17-.66.29-.39.28-.59.41-.37.3-.57.44-.41.25-.6.4-.34.34-.53.49-.35.32-.54.48-.41.26-.59.42-.39.28-.57.44-.37.31-.54.47-.3.38-.47.55-.34.34-.51.51-.37.31-.53.49-.25.42-.41.6-.4.29-.55.47-.22.43-.37.62-.33.35-.47.54-.28.39-.42.59-.25.41-.38.61-.32.36-.45.56-.17.45-.3.66-.24.41-.36.62-.34.36-.45.57-.14.47-.25.68-.31.38-.41.6-.19.44-.29.66-.12.47-.21.69-.19.44-.28.66-.19.44-.27.66-.14.46-.22.68-.22.43-.3.65-.11.47-.18.69-.22.43-.28.66-.11.47-.17.7-.04.48-.09.72-.1.46-.16.7-.2.45-.25.68-.01.48-.06.72-.07.47-.11.71-.13.46-.17.7-.02.48-.05.72-.19.46-.22.7.03.48,0,.72-.13.47-.14.71.03.48.01.72-.03.48-.05.72-.01.48-.02.72-.06.48-.06.72.04.48.04.72-.04.48-.03.72.07.48.08.72.06.47.07.71.04.48.06.71-.05.48-.03.72.1.47.12.71.01.48.04.72.07.47.11.71,0,.48.04.72.14.46.18.7.11.47.15.7.05.48.09.71.1.47.14.7.07.47.12.71.13.46.18.69.11.46.17.7.08.47.14.7.1.47.16.7.12.46.19.69.13.46.21.69c.07.22.17.44.24.66s.23.42.31.64.13.45.22.67.16.44.25.66.19.43.29.64.16.45.26.66.23.41.34.62.27.39.38.6.16.45.27.65.32.36.43.57.13.46.24.67.23.41.35.61.28.38.39.59.23.41.34.62.15.46.26.66.31.37.42.58.2.43.31.64.18.44.29.65.25.4.36.61.21.42.31.64.15.45.25.66.19.43.27.65c.09.21.13.45.21.67s.18.43.26.65.18.43.25.65.19.42.26.65.08.46.15.68.14.44.21.67.24.41.31.64.05.47.12.7.18.44.24.66.09.46.16.69.09.46.15.69.19.44.25.66.12.46.18.68.13.45.19.68.06.47.11.69.14.45.19.68.09.46.13.69.13.46.17.68c.04.24-.05.51,0,.75s.17.47.21.71.02.5.05.74.06.49.09.73.19.47.22.72-.07.5-.06.74.03.49.03.73.06.5.05.74c-.01.25-.06.49-.09.73-.04.25-.12.48-.18.71-.07.24-.1.49-.2.7s-.23.43-.37.63-.32.36-.51.52-.38.29-.6.41c-.2.11-.38.32-.63.4-.22.07-.48.06-.73.11-.23.04-.47.11-.72.13-.23.02-.48-.04-.73-.04-.23,0-.48,0-.74-.02-.24-.02-.48-.01-.74-.04-.24-.03-.48-.09-.71-.16s-.44-.19-.67-.3-.42-.23-.63-.37-.46-.2-.65-.36-.29-.41-.47-.58-.33-.35-.5-.54-.34-.34-.5-.53-.32-.37-.47-.56-.25-.42-.4-.62-.33-.36-.47-.56-.25-.42-.38-.63-.3-.39-.43-.6-.18-.47-.3-.68-.35-.37-.47-.58-.23-.44-.36-.65-.21-.46-.33-.67-.28-.41-.4-.62-.21-.45-.33-.65c-.13-.22-.32-.39-.44-.59-.13-.22-.16-.48-.28-.68-.14-.22-.34-.38-.47-.56-.14-.2-.26-.41-.4-.61s-.27-.4-.41-.6-.36-.34-.5-.54-.25-.42-.39-.61-.27-.4-.41-.6-.33-.36-.47-.55-.21-.45-.35-.64-.36-.34-.5-.53-.21-.45-.36-.64-.4-.3-.55-.49-.23-.43-.38-.62-.28-.4-.43-.58-.36-.33-.51-.52-.33-.36-.48-.54-.27-.4-.43-.59-.4-.29-.56-.47-.29-.39-.45-.57-.35-.34-.51-.51-.27-.41-.44-.58-.33-.36-.5-.53-.37-.32-.54-.48-.39-.29-.57-.46-.34-.34-.52-.5-.34-.35-.52-.51-.39-.29-.57-.45-.38-.3-.57-.45-.38-.3-.57-.45-.38-.3-.57-.44-.34-.35-.54-.49-.47-.16-.68-.29-.4-.27-.61-.39-.36-.34-.57-.46-.43-.21-.65-.33-.42-.25-.63-.35-.48-.11-.7-.21-.4-.28-.63-.37-.46-.14-.69-.22-.44-.22-.67-.29-.49-.03-.73-.1-.45-.2-.68-.26-.47-.11-.71-.15-.49-.02-.72-.06-.48-.03-.72-.06-.47-.07-.71-.09-.48-.12-.72-.12-.48.03-.72.03-.48.05-.72.06-.48,0-.72.03-.47.1-.71.14-.49-.04-.73,0-.45.18-.69.23-.48.04-.72.09-.44.2-.68.26-.48.06-.71.13-.44.18-.67.26-.46.15-.68.23-.45.16-.67.25-.42.22-.65.32-.47.12-.69.22-.44.18-.66.29-.44.2-.65.31-.41.26-.62.37-.41.25-.62.37-.43.21-.64.33-.42.24-.62.37-.41.25-.61.38-.43.23-.63.37-.38.29-.58.43-.36.33-.56.47-.39.29-.58.43c-.19.14-.38.29-.57.45s-.38.3-.56.46-.36.32-.54.49-.37.31-.54.49-.3.38-.46.56-.29.38-.44.58-.32.36-.47.56-.25.41-.39.62-.24.42-.37.62-.31.38-.44.58-.29.39-.41.6-.22.43-.33.65-.18.45-.29.67-.3.39-.41.61-.17.45-.27.68-.15.46-.24.68-.26.42-.35.64-.18.45-.27.68-.08.49-.16.72-.14.46-.22.69-.23.44-.3.67-.12.47-.19.7-.19.45-.25.68-.1.48-.16.71-.06.49-.12.72-.22.45-.28.68-.1.48-.15.71-.12.47-.18.71-.08.48-.13.72-.08.48-.12.72-.12.47-.16.71-.13.47-.17.71-.06.49-.09.73-.06.49-.09.73-.01.49-.04.73-.08.48-.11.72-.11.48-.14.72-.02.49-.04.73.04.49.02.74-.11.48-.13.72-.03.49-.04.73.02.49,0,.73-.02.48-.03.72-.01.49-.01.73-.04.48-.04.72.04.48.05.72c0,.07.05.32.14.69.05.2.19.4.26.66.05.21.03.46.09.7.06.22.15.44.21.67s.13.45.18.67.04.48.09.7.17.45.22.67c.06.24.05.48.1.7.05.25.12.48.16.68.05.28.07.51.09.69.02.24.09.47.11.71s.1.47.12.71-.02.48,0,.72.08.47.1.71.06.47.07.71-.07.48-.05.72.07.47.09.71,0,.48.02.72.01.48.02.71.12.47.12.71-.09.48-.09.72.07.48.06.72-.05.48-.06.71-.07.47-.09.71.04.48.01.72-.12.47-.16.7-.09.47-.13.7,0,.49-.05.72-.18.45-.24.68-.11.46-.18.69-.15.45-.23.67-.1.48-.2.69-.31.38-.42.59-.19.44-.32.64-.26.4-.39.59-.32.35-.47.53-.22.43-.38.61-.36.31-.53.48-.31.36-.5.51-.36.3-.56.45-.42.23-.62.36-.36.31-.57.43-.42.22-.63.34-.43.19-.65.3-.42.21-.64.31-.42.21-.65.3c-.19.07-.43.13-.68.22-.21.07-.42.19-.66.27-.21.07-.44.13-.68.21-.22.07-.44.17-.67.24-.22.07-.44.17-.67.24-.22.07-.46.09-.69.16s-.45.13-.68.2-.47.08-.7.15-.42.24-.65.31-.46.11-.69.18-.48.05-.71.12-.44.2-.67.26-.45.15-.68.22-.47.08-.7.15-.48.07-.71.13-.45.2-.68.26-.49.04-.72.1-.46.15-.69.2-.45.18-.68.23-.48.07-.71.12-.48.08-.7.13c-.24.05-.47.14-.69.19-.24.05-.48.08-.7.13-.25.05-.47.13-.69.17-.25.04-.5-.03-.72,0-.27.03-.5.16-.7.17-.21,0-.46-.01-.73-.06-.22-.04-.44-.17-.69-.24-.22-.06-.47-.09-.71-.17-.22-.07-.44-.17-.68-.25s-.41-.27-.64-.36-.46-.13-.69-.21-.47-.13-.69-.21-.46-.16-.68-.25-.43-.23-.66-.31-.5-.06-.72-.13c-.24-.08-.45-.22-.67-.28-.25-.07-.49-.07-.71-.11-.23-.04-.46-.09-.7-.13s-.46-.12-.7-.14-.48.04-.72.02-.47-.14-.71-.15-.48.12-.72.12-.48-.04-.71-.03-.48.01-.71.03-.47.04-.71.06-.47.09-.7.12-.49-.04-.72,0-.45.19-.68.23-.49-.03-.72.02-.44.23-.67.29-.47.07-.7.13-.48.05-.71.11-.43.23-.66.3-.45.15-.68.22-.47.08-.7.16-.43.21-.65.3-.46.13-.68.21-.46.14-.68.23-.41.26-.63.35-.45.17-.66.28-.41.25-.62.36-.46.16-.67.27-.39.28-.6.39-.45.17-.66.29-.42.23-.62.36-.41.24-.61.37-.41.25-.6.39-.36.32-.55.46-.43.23-.61.37-.39.29-.57.43-.36.32-.54.47-.36.31-.53.47c-.13.12-.34.26-.53.49-.14.16-.28.37-.44.57-.14.18-.3.36-.46.55-.15.18-.28.38-.44.57s-.26.41-.41.6-.27.41-.41.59c-.16.19-.42.29-.56.46-.17.2-.33.38-.47.53-.22.24-.38.41-.5.47-.2.1-.42.18-.66.27-.21.08-.42.21-.66.29-.22.07-.44.2-.68.26-.23.05-.46.1-.71.15s-.49-.03-.73,0-.46.17-.7.2-.49-.05-.73-.03-.47.16-.71.18-.48-.06-.72-.05-.48.12-.72.12-.48-.11-.72-.11-.48.02-.72,0-.48.04-.72.03-.48-.06-.72-.08-.48-.03-.72-.06-.47-.12-.7-.16-.5.02-.73-.03-.47-.15-.69-.21-.48-.09-.7-.16c-.24-.08-.43-.25-.64-.34-.23-.1-.49-.1-.69-.22-.22-.12-.39-.33-.57-.47-.15.16-.14.42.03.68.1.16.32.29.52.48.15.15.31.32.51.47.18.14.32.34.52.48.19.13.43.19.64.31s.4.25.6.37.39.27.6.38.41.25.61.35c.22.11.48.11.68.2.24.1.45.21.64.27.3.1.46.17.61.15-.14.2-.26.38-.42.57s-.32.38-.49.56-.32.39-.49.57-.41.31-.57.49-.26.44-.42.63-.35.36-.48.57-.18.46-.29.69-.22.44-.29.68-.13.45-.16.71c.19-.14.33-.32.53-.47.19-.14.41-.26.61-.4s.38-.29.59-.44.38-.3.58-.44.41-.26.61-.4.39-.29.59-.42.46-.18.67-.31.4-.27.61-.4.39-.3.6-.42.4-.28.62-.4.46-.19.67-.3.45-.19.67-.29.45-.19.67-.28.43-.25.66-.33.47-.15.7-.22.48-.1.72-.15.48-.12.72-.15.49.02.73.01.48-.03.72-.02c.16.01.42-.04.69.06.2.07.39.22.63.32.2.08.45.1.68.2.21.09.37.3.59.4s.43.18.64.28.46.14.67.24.38.3.59.4c.22.1.47.12.68.21.23.1.42.26.61.34.25.1.47.18.65.24.23.07.46.16.69.23s.49.06.72.13.44.21.68.28.49.04.73.1.46.15.7.21.46.18.69.23.49.04.72.09.45.22.69.27.5-.05.74,0,.45.22.69.26.5-.03.74,0,.48.09.72.12.48.03.72.06.47.18.71.21.49,0,.73.02.49-.03.73-.02.48.09.72.1.49-.07.73-.07.48.05.73.05.48-.05.73-.05.49.02.73,0,.48-.04.72-.06.49,0,.73-.02.48-.05.72-.08.48-.06.72-.1.47-.11.71-.16.47-.14.7-.18.48-.07.72-.12.47-.13.7-.19.48-.07.72-.14.47-.13.7-.2.46-.15.69-.23.45-.17.68-.26.43-.22.66-.31.45-.17.68-.27.45-.19.67-.3c.22-.11.46-.17.67-.27.22-.11.43-.23.63-.34.22-.12.42-.25.62-.36.21-.12.38-.31.58-.43.21-.13.41-.25.61-.37s.46-.17.66-.3.36-.33.56-.46.43-.21.64-.33.39-.27.6-.38.47-.12.69-.22c.21-.1.42-.2.65-.3.21-.09.39-.3.62-.38.22-.08.48-.03.72-.11.22-.07.41-.24.65-.31.22-.07.47-.07.71-.14.22-.06.44-.19.68-.25.23-.06.49,0,.72-.04s.46-.1.7-.15.44-.2.68-.25.49,0,.72-.04.46-.1.7-.14.46-.11.7-.15.46-.15.69-.19.47-.06.71-.1.47-.1.7-.13.47-.08.71-.11.48-.03.71-.07.48-.03.71-.07.46-.15.7-.18.49.03.72,0,.47-.09.71-.13.46-.14.7-.17.48-.02.72-.05.47-.11.7-.14.48-.05.71-.09.47-.1.71-.14.49.02.73-.02.47-.1.7-.14.47-.09.71-.13.48-.06.71-.1.46-.13.7-.18.46-.14.69-.19.48-.06.71-.12.45-.17.68-.23.46-.12.7-.17.45-.15.68-.21.5,0,.73-.07.45-.16.68-.23.43-.21.66-.29.44-.18.67-.26.49-.06.71-.14.46-.14.68-.23.43-.22.65-.32.4-.27.62-.37.46-.14.67-.25c.22-.11.45-.17.66-.29s.41-.27.61-.38.39-.29.59-.41.39-.29.58-.42.44-.2.63-.34.35-.34.53-.48.37-.3.55-.46.39-.29.55-.46.27-.4.42-.58.34-.34.48-.53.28-.38.41-.58.28-.39.39-.6.2-.43.3-.65.26-.41.34-.63.1-.47.18-.69.19-.44.25-.67.12-.46.17-.69.07-.47.11-.71.06-.47.08-.71,0-.47.02-.71.13-.47.14-.71-.05-.48-.05-.72.04-.47.04-.71-.05-.47-.06-.71-.1-.47-.11-.71.01-.48,0-.72-.02-.47-.04-.71-.05-.47-.07-.72.04-.48.02-.72c-.02-.23-.09-.46-.11-.7s-.02-.47-.05-.71-.04-.47-.07-.71-.17-.45-.2-.69,0-.47-.04-.71-.07-.47-.11-.7-.09-.46-.13-.7-.09-.46-.13-.7-.07-.46-.1-.7.03-.48,0-.71-.09-.46-.13-.7-.14-.46-.18-.69.03-.48,0-.72-.21-.45-.24-.68-.02-.48-.05-.71-.04-.47-.07-.71-.17-.45-.2-.69.05-.49.02-.72-.13-.46-.17-.7-.01-.48-.05-.72-.08-.47-.11-.71-.13-.46-.16-.7-.07-.47-.1-.71.03-.49,0-.72-.03-.48-.06-.72-.18-.46-.2-.7.02-.48,0-.72,0-.48-.02-.72-.11-.47-.13-.71-.06-.48-.08-.71.04-.48.02-.72-.07-.48-.08-.71-.07-.48-.08-.71-.04-.48-.04-.71.09-.48.09-.71.04-.48.04-.71-.1-.48-.09-.71.12-.47.13-.71-.04-.48-.02-.72.07-.47.1-.7.07-.47.11-.7.04-.48.09-.71c.05-.24.17-.45.24-.67.07-.23.13-.46.22-.68s.21-.42.32-.63.18-.45.31-.64.27-.4.42-.58.35-.32.52-.5.34-.33.52-.48.36-.3.55-.45.38-.28.58-.41.36-.32.56-.44.48-.11.69-.22.4-.24.62-.34.44-.17.66-.26.41-.25.63-.33.44-.18.66-.26.45-.15.68-.21.47-.07.7-.13.47-.05.7-.1.45-.15.68-.2.47-.07.7-.1.47-.09.7-.12.47-.08.7-.11.47-.02.71-.04.47-.01.71-.03.47-.02.71-.02.47-.03.71-.03.48-.09.71-.08.47.09.71.1.47.06.71.08.48,0,.71.01.48-.03.71,0,.48.06.71.09.46.14.69.18.48.02.71.07.45.18.67.24.46.12.68.19c.23.07.48.08.69.17.22.09.43.23.64.33s.44.2.65.32.37.3.58.44.4.26.59.41.37.3.55.46.37.3.55.47.34.33.51.51.41.27.57.45.28.39.44.58.28.39.43.58.25.41.4.6.36.33.5.52.29.38.42.59.24.41.37.62.24.41.37.62.22.43.34.64.34.36.46.56.19.44.31.65.21.43.33.64.26.4.37.62.24.42.35.63.14.47.25.68.27.4.38.62.16.45.27.67.23.42.33.64.22.43.33.64.22.43.32.65.19.44.29.66.24.42.35.64.15.46.25.68.19.45.29.66.26.41.36.63.12.48.22.69.23.43.33.64.24.42.34.64.18.45.29.67.22.43.32.65.17.46.27.67.22.43.32.65.23.42.34.64.24.42.35.63.13.48.24.69.33.37.44.58.14.47.25.68.23.43.35.64.28.4.4.6.23.42.36.62.24.42.37.62.35.35.48.54.3.37.45.56c.15.2.33.36.49.54s.24.45.4.62.35.34.53.5.37.32.56.47.4.29.6.42.44.22.65.34.43.23.65.33.42.25.65.34.47.14.7.21.49.02.73.07.45.2.7.23.48.07.72.09.48.01.73.02.48,0,.73,0,.48-.08.72-.1.48,0,.73-.01.48.02.73-.01.48-.05.73-.08.48-.1.72-.14c.24-.04.49-.04.72-.09s.48-.09.71-.15.47-.13.7-.19.43-.24.66-.32.47-.13.69-.22.47-.14.69-.24.42-.25.63-.36.45-.19.66-.31.43-.23.63-.36.37-.32.56-.46.39-.29.57-.44.34-.34.52-.5.36-.32.52-.5.38-.31.53-.49.33-.36.48-.55.19-.46.33-.65.36-.34.48-.54.23-.43.35-.63.17-.45.28-.67.31-.38.42-.6.18-.45.27-.67.22-.43.3-.66.05-.49.13-.72.16-.45.23-.68.18-.45.24-.68.15-.46.21-.69.03-.49.08-.72.21-.45.25-.68.02-.49.06-.72.12-.47.16-.7.04-.48.07-.72.03-.48.05-.72.13-.47.15-.71.08-.48.1-.72-.05-.49-.04-.73.09-.48.1-.72-.07-.49-.06-.73.14-.48.15-.72,0-.48,0-.72.03-.48.03-.72-.1-.48-.1-.72.02-.48.01-.72-.06-.48-.07-.72,0-.48-.01-.72,0-.49-.02-.73.02-.48.01-.72-.03-.48-.04-.72.04-.49.03-.72,0-.48-.02-.71c-.01-.24-.1-.48-.12-.72s-.02-.48-.04-.73-.08-.48-.1-.72.04-.49.01-.73-.1-.48-.13-.72-.06-.48-.09-.72-.02-.49-.05-.73-.12-.47-.16-.71-.03-.49-.07-.72-.06-.48-.1-.72-.08-.48-.12-.72-.18-.46-.23-.7-.05-.48-.1-.72-.09-.48-.14-.71-.11-.47-.16-.71-.03-.49-.08-.73-.2-.45-.25-.69-.03-.49-.08-.73-.11-.47-.16-.71-.05-.49-.11-.72-.12-.47-.18-.71-.16-.46-.22-.7-.08-.48-.14-.72-.21-.45-.27-.68-.07-.48-.13-.72-.18-.45-.24-.69-.12-.47-.18-.7-.07-.48-.13-.72-.14-.46-.2-.7-.07-.48-.13-.72-.11-.47-.17-.71-.17-.46-.23-.69-.05-.49-.11-.72-.11-.47-.17-.71-.14-.46-.2-.7-.18-.46-.23-.69-.12-.47-.18-.7-.07-.48-.12-.72-.08-.48-.14-.71-.09-.48-.15-.71-.2-.45-.26-.69.02-.5-.03-.74-.23-.45-.28-.68-.08-.48-.13-.72-.05-.48-.1-.72-.1-.47-.14-.71-.16-.46-.2-.7-.06-.48-.1-.72-.03-.49-.07-.73-.03-.49-.06-.72-.1-.47-.13-.71c-.03-.24-.06-.47-.09-.71s-.08-.47-.11-.71-.05-.48-.07-.72-.15-.47-.17-.71-.01-.48-.03-.72-.03-.48-.04-.72-.02-.48-.04-.72-.08-.48-.09-.72.02-.48.02-.72-.04-.48-.04-.72.14-.48.15-.72-.09-.49-.07-.73.02-.48.04-.72.11-.47.14-.71.02-.49.06-.72.08-.48.13-.71.18-.46.24-.69.1-.47.17-.7.2-.44.28-.67.09-.48.18-.7.25-.42.35-.63.17-.45.28-.66.25-.41.38-.61.15-.48.28-.68.28-.39.43-.59.37-.32.53-.5.28-.39.45-.57.34-.34.52-.51.38-.3.57-.45.34-.35.54-.49c.2-.14.44-.21.63-.34s.4-.26.59-.39.39-.27.59-.38.41-.23.62-.34.4-.27.61-.37.46-.15.67-.23.42-.24.64-.32.47-.1.69-.15.46-.13.69-.17.48.06.71.05.46-.09.7-.08.46.11.69.14.46.04.69.09.47.03.7.1.42.2.65.28.44.15.66.24.42.19.64.29.4.23.62.35c.21.11.43.19.64.32s.44.19.64.33.37.31.56.45.35.32.53.48.35.32.52.49.34.32.52.49.31.36.48.53.42.26.58.44.24.42.4.6.37.31.52.5.23.42.38.61.33.35.47.54.31.36.45.56.26.4.39.6.22.42.35.62.3.37.43.57.27.39.39.6.24.41.37.61.17.45.3.66.33.36.45.57.21.43.33.64.23.42.35.62.2.44.31.64.25.41.36.62.26.4.37.61.2.44.31.65.22.43.33.64.31.38.42.59.18.45.29.66.23.42.33.64.14.47.25.68.24.42.35.63.21.43.31.65.23.42.34.63.18.45.28.66.28.4.39.61.22.43.32.64.24.41.35.62.13.48.24.69.31.38.42.59.18.45.29.66.2.44.3.64.23.43.34.63.19.44.3.64.26.4.37.6c.12.21.29.39.41.59s.15.47.27.68.24.42.36.62.26.41.38.61.3.38.42.59.28.39.4.6.19.44.32.65.21.44.33.64.31.37.44.58.19.45.31.65.25.41.38.61.25.41.37.62.3.38.43.58.25.41.38.61.2.44.33.64.36.34.49.54.21.43.34.63.32.37.45.57.26.4.39.6.27.4.4.6.24.42.38.61.18.46.32.65.34.35.48.55.32.37.45.56.18.46.32.66.29.38.43.58.27.4.41.59.29.38.43.58.24.42.38.61.32.36.47.55.33.35.47.54.19.46.33.65.37.32.51.52.28.39.43.58.24.42.38.61.28.39.42.58.37.32.51.51.22.43.37.62.32.36.46.55.28.39.43.58.3.37.45.56.28.39.43.58.34.34.49.53.29.38.45.57.31.36.47.55.31.37.46.55.35.33.5.52.27.4.43.58.39.3.54.48.23.44.38.62.4.29.55.47.24.43.4.61.33.35.49.53.4.28.56.46.28.4.44.57.29.39.45.56.34.34.51.51.35.33.51.5.35.32.52.5.33.35.5.52.27.4.44.57.34.34.5.51.4.28.57.45.34.33.51.5.33.34.5.51.29.39.46.56.4.28.57.44.29.39.46.55.41.26.59.43.32.36.5.52.35.33.52.49.38.29.56.45.36.31.54.47.3.38.48.54.42.25.6.41.33.35.51.51.33.35.52.5.41.26.59.42.38.29.56.45.29.41.47.56.36.32.54.47.39.28.58.43.35.33.54.48.37.3.56.45.42.24.61.39.34.34.53.49.38.29.57.44.38.29.57.43.38.3.57.44.37.3.56.45.46.18.65.33.32.38.51.52.42.24.62.38.38.29.57.43.41.25.61.39.4.27.59.4.34.35.54.48.4.27.6.4.42.24.62.37.42.24.62.37.43.22.63.35.37.31.57.44.36.32.56.45.43.22.63.35.41.24.62.37.44.2.64.33.42.23.63.35.36.33.56.46.41.25.62.37.4.26.61.39.4.26.61.38.48.13.68.25.42.23.63.35.38.3.59.42.45.17.66.29.4.26.61.38.39.29.6.41.41.24.63.36.45.17.67.28.43.21.65.32.39.29.61.39.43.22.64.33.44.2.65.3.43.23.64.33.47.13.69.24c.21.1.39.3.61.4s.45.17.67.26.43.21.65.31.45.17.67.26.46.14.68.23.44.18.67.26.45.17.67.26.43.21.66.29.48.07.71.15.46.15.68.22.44.21.66.28.47.09.7.16.42.26.65.33.47.11.7.17.47.1.7.16.48.07.71.13.43.23.66.29.47.07.71.13.48.05.71.1.45.16.69.21.47.07.71.12.47.1.7.15.45.16.69.21.48.05.71.1.47.11.7.15.47.09.71.13.46.14.7.18.49,0,.72.04.46.14.7.18.48.05.71.09.47.12.7.16.48.06.71.09.47.07.71.1.48.01.72.04.46.15.7.18.48.03.72.06.48.02.72.05.47.08.71.1.48.07.71.09.48.02.72.04.48.07.71.09.48.06.72.08.48,0,.72.02.48.02.72.04.47.1.71.12.48.06.72.08.48.01.72.03.48-.03.72-.02.48.03.72.05.47.13.71.15.48-.01.72,0,.48,0,.72.02.48-.02.72,0,.48.1.72.11.48-.09.72-.09.48,0,.72.02.48.1.72.1.48.02.72.03.48,0,.72,0,.48.04.72.04.48-.05.72-.04.48-.01.72,0,.48.07.72.07.48-.11.72-.11.48,0,.72,0,.48.11.72.1.48-.02.72-.02.48-.06.72-.06.48-.05.72-.05.48.01.72,0,.48.05.72.05.48-.11.72-.12.48.03.72.02.48-.04.72-.06.48,0,.72,0,.48-.08.72-.1.48,0,.72-.01.48-.02.72-.03.48-.06.72-.08.49.07.73.05.47-.16.71-.17.49.08.73.06.47-.15.71-.17.48.01.72,0,.49.04.73.02.47-.14.71-.17.48-.05.72-.07.48,0,.72-.03.49.02.73,0,.48-.09.72-.11.48-.04.72-.07.47-.15.71-.17.48-.06.72-.09.49-.01.73-.04.49-.02.73-.05.48-.09.72-.12.48-.02.72-.06.47-.12.71-.16.49-.01.73-.05.47-.12.71-.15.48-.07.72-.11.48-.04.72-.08.48-.04.72-.08.47-.13.7-.17.48-.07.71-.11.48-.05.72-.09.47-.08.71-.13.47-.11.7-.16.46-.17.69-.21.49-.01.72-.06.47-.09.71-.13.46-.13.7-.18.48-.09.71-.14.45-.19.68-.25.47-.09.71-.14.49-.03.72-.09.46-.16.69-.21.48-.05.71-.11.45-.2.68-.26.49-.02.72-.08.44-.22.66-.28.47-.11.69-.17.44-.17.67-.23c.23-.07.48-.06.71-.13s.46-.13.69-.2.47-.11.7-.18.42-.27.65-.34.5-.02.73-.09.45-.15.68-.23.45-.17.68-.25.45-.17.67-.25.47-.12.69-.19.42-.25.65-.33.48-.09.7-.17.46-.15.68-.23.42-.26.64-.34.47-.12.69-.21.47-.11.7-.2.44-.18.67-.27.44-.2.66-.29.47-.12.69-.21.44-.18.67-.27.43-.21.66-.3.43-.22.65-.31.46-.15.68-.24.45-.16.67-.26.44-.18.66-.28.41-.27.63-.37.46-.15.68-.24.46-.16.68-.25.39-.3.61-.4.47-.13.69-.23.39-.29.61-.4.46-.15.68-.25.47-.14.68-.25.4-.29.61-.39.45-.18.66-.29.43-.21.65-.32.41-.25.63-.36.43-.21.65-.32.42-.24.63-.35.44-.2.65-.31.41-.25.62-.36.42-.23.63-.34.44-.19.65-.31.46-.16.67-.28.37-.32.58-.44.43-.22.64-.33.45-.18.66-.3.39-.28.6-.41.44-.2.65-.32.4-.26.61-.39.38-.3.59-.42.39-.28.6-.41.47-.16.67-.28.38-.29.59-.42.39-.28.6-.41.41-.25.61-.38.43-.22.63-.35.41-.25.61-.38.35-.34.55-.47.43-.23.63-.36.44-.21.64-.35.41-.26.61-.39.33-.37.53-.51.39-.28.59-.42.44-.21.64-.35.39-.29.58-.43.35-.34.55-.48.4-.27.6-.41.37-.31.56-.46.46-.18.66-.33.34-.35.53-.5.43-.23.62-.38.33-.36.52-.51.42-.25.61-.4.38-.3.57-.45.34-.34.53-.49.37-.31.56-.46.38-.3.56-.45.33-.35.52-.51.4-.27.58-.43.39-.28.58-.44.4-.28.58-.44.3-.39.48-.55.4-.28.57-.44.38-.3.56-.46.34-.35.51-.51.3-.39.47-.55.33-.35.5-.52.34-.34.51-.51.42-.26.59-.42.37-.32.54-.49.34-.34.51-.51.33-.35.5-.52.33-.36.49-.53.26-.42.42-.59.35-.33.52-.5.31-.37.47-.55.33-.35.49-.53.38-.31.54-.49.34-.34.5-.52.25-.42.41-.6.33-.35.48-.53.29-.39.44-.57.28-.39.43-.58.35-.34.5-.52.23-.43.38-.62.32-.36.47-.55.36-.32.51-.52c.14-.19.24-.42.38-.61s.3-.37.44-.57.22-.43.35-.63.28-.39.41-.59.33-.36.46-.56.25-.41.38-.61.22-.43.35-.63.33-.36.45-.56.29-.39.41-.59.18-.45.3-.65.2-.44.32-.64.32-.37.44-.57.16-.46.28-.67.34-.36.45-.57.22-.42.34-.63.12-.48.23-.69.22-.42.33-.63.29-.39.4-.6.19-.44.29-.65.19-.44.29-.66.31-.38.42-.59.2-.43.31-.65.14-.46.24-.68.2-.43.3-.65.27-.4.38-.61.18-.44.28-.66.14-.46.24-.68.22-.42.32-.64.22-.42.32-.64.18-.44.28-.66.25-.41.35-.63.22-.43.31-.64.11-.47.21-.69.27-.4.37-.62.12-.47.22-.69.25-.41.34-.63.22-.43.31-.65.21-.43.31-.65.2-.43.3-.65.21-.43.31-.65.13-.47.23-.68.21-.43.31-.64.24-.42.34-.63.15-.46.25-.67.2-.43.3-.65.16-.45.26-.67.24-.42.34-.63.28-.4.38-.61.17-.45.27-.67.18-.44.28-.66.23-.42.34-.63.26-.41.37-.62.14-.46.25-.68.32-.37.43-.58.12-.48.23-.69.26-.4.37-.61.28-.39.4-.6.21-.43.33-.64.24-.41.36-.62.22-.42.34-.63.21-.43.33-.64.22-.42.35-.63.31-.37.43-.57.27-.4.4-.6.28-.39.41-.59.21-.44.34-.64.31-.36.45-.56.28-.38.42-.58.18-.46.32-.65.27-.39.41-.59.35-.34.49-.53.27-.39.42-.58.3-.37.45-.56.33-.35.48-.53.31-.36.47-.55.21-.45.36-.63.36-.32.52-.5c.16-.18.32-.37.47-.54s.38-.31.54-.48.23-.45.39-.62.4-.28.57-.45.28-.41.44-.58.43-.25.6-.42.32-.37.49-.53.31-.38.48-.54.36-.33.54-.49.39-.29.57-.45.37-.31.55-.47.39-.29.58-.44.32-.38.51-.52.4-.27.59-.42.41-.25.61-.39.37-.32.56-.45.43-.23.63-.36.41-.25.61-.38.37-.31.58-.44.44-.2.65-.32.39-.29.6-.41.42-.23.63-.34.44-.2.65-.31.45-.18.66-.28.45-.17.67-.27.44-.18.66-.28.44-.2.66-.29.44-.18.67-.27.43-.21.66-.29.46-.13.69-.21.43-.22.66-.3.46-.12.69-.19.47-.09.7-.16.44-.2.67-.27.45-.15.68-.21.47-.1.7-.17.44-.2.67-.26.49-.03.72-.09.46-.13.69-.19.44-.18.68-.24.47-.1.7-.15.49-.02.72-.07.44-.2.68-.26.48-.03.72-.09.45-.16.69-.21.45-.17.68-.23.46-.13.7-.19.48-.07.71-.12.46-.13.7-.19.48-.04.71-.1.45-.18.68-.24.47-.09.7-.15.47-.09.71-.15.44-.21.68-.27.49-.05.72-.11.48-.07.71-.13.43-.26.66-.33.47-.12.7-.19.48-.07.72-.14.45-.19.69-.27c.23-.07.47-.1.7-.17s.44-.2.66-.27.47-.09.7-.16.47-.1.69-.18.44-.19.66-.28.45-.16.67-.25.45-.16.67-.25.39-.3.6-.4.44-.18.65-.28.44-.18.65-.29.43-.21.63-.32.44-.18.65-.3.4-.26.6-.38.42-.21.63-.33.37-.29.57-.42.46-.16.66-.29.32-.36.52-.5.42-.22.61-.36.41-.24.6-.38.33-.34.52-.49.44-.2.62-.35.34-.33.52-.48.31-.37.49-.52.38-.28.56-.43.36-.3.54-.45.4-.26.58-.42.29-.38.46-.54.39-.28.57-.44c.16-.15.3-.36.47-.53.16-.16.38-.28.55-.45.16-.16.29-.37.46-.54s.33-.33.49-.51.29-.36.45-.54.28-.37.44-.55.37-.3.52-.48.27-.39.42-.57.32-.34.47-.52.33-.34.48-.52.21-.44.36-.62.31-.36.45-.54.34-.33.49-.51.23-.42.37-.61.31-.36.46-.54.34-.34.48-.53.24-.42.38-.61.31-.37.44-.56.28-.38.42-.58.25-.41.38-.6.31-.36.45-.56.31-.36.44-.56.17-.46.3-.65.35-.34.47-.54.18-.45.3-.65.26-.4.38-.6.31-.37.42-.57c.12-.21.22-.43.33-.63.12-.21.23-.42.34-.62.11-.22.18-.44.28-.65.07-.14.17-.35.26-.57.08-.2.11-.42.12-.61,0-.22-.02-.39-.23-.49ZM30.17,307.65c-.22-.07-.44-.21-.67-.27s-.47-.01-.7-.06-.46-.05-.69-.09-.45-.11-.68-.15-.46-.05-.69-.09-.44-.19-.66-.24-.48,0-.7-.06-.45-.14-.67-.21-.42-.22-.63-.31-.47-.11-.67-.22-.33-.35-.52-.48-.38-.24-.55-.41c-.07-.25-.04-.43-.02-.59.03-.21.11-.35.27-.5.13-.12.25-.29.44-.43.12-.09.32-.25.61-.41.19-.1.46-.1.7-.22.2-.1.36-.33.59-.44.21-.1.45-.17.68-.28s.45-.18.67-.29.41-.28.63-.38.47-.15.69-.25.45-.21.67-.29c.24-.09.49-.12.71-.2.24-.09.46-.21.68-.28.26-.08.49-.18.7-.22.35-.08.63-.05.74.03-.14.22-.31.42-.42.64-.11.23-.15.49-.22.72s-.1.49-.14.73-.14.49-.16.74.01.5.02.75.04.5.05.75-.03.5-.02.75.11.5.11.75-.06.5-.08.75-.04.51-.08.76ZM35.69,307.62c.03-.23.15-.47.16-.7s-.07-.47-.08-.71-.05-.47-.06-.7,0-.47-.04-.7-.09-.46-.13-.69.02-.48-.03-.71-.2-.43-.26-.66-.1-.45-.16-.68-.06-.47-.13-.69-.23-.42-.29-.64-.01-.48-.08-.71-.18-.42-.25-.65c.24-.01.47.02.7.01s.48-.05.71-.05.48-.08.71-.08.48-.04.71-.04.47.15.71.16.48-.11.72-.09.47.09.7.11.47.08.7.11.48-.01.71.03.46.14.69.19.46.1.69.16.43.2.66.27.46.11.68.2.45.14.67.24.43.2.65.3.39.25.6.36c.1.23.17.45.13.7-.04.22-.11.47-.24.7-.11.19-.32.34-.5.54-.15.17-.3.36-.5.53-.18.15-.35.33-.55.48-.19.14-.42.24-.63.38s-.36.34-.57.47-.45.2-.66.32-.4.28-.62.39-.48.13-.7.24-.43.24-.65.34-.44.22-.66.31-.48.13-.7.22c-.24.09-.46.2-.68.28-.25.09-.47.2-.68.27-.27.08-.5.16-.7.21-.39.09-.68.06-.74-.01Z"/>
</svg>