<?xml version="1.0" encoding="UTF-8"?>
<svg id="a" data-name="Layer 1" xmlns="http://www.w3.org/2000/svg" viewBox="0 0 176.58 168.11">
  <defs>
    <style>
      .b {
        fill: #242424;
      }
    </style>
  </defs>
  <path class="b" d="M139.61,103.25c-.13-.2-.24-.4-.32-.62s-.24-.43-.27-.66,0-.48.03-.71.14-.45.21-.67.06-.49.18-.7.3-.38.46-.55.33-.35.53-.48.41-.26.63-.34c.35-.14.37-.09.72-.22s.33-.18.68-.31.39-.05.74-.19.36-.12.71-.25.35-.14.7-.28.31-.24.66-.38.41,0,.76-.13.35-.13.71-.27.35-.13.71-.27.3-.28.65-.41.39.01.73-.12.31-.2.65-.33.33-.15.66-.28.36-.08.69-.21.35-.09.69-.22.33-.14.67-.27.3-.23.63-.36.35-.08.69-.21.34-.11.68-.24.32-.18.65-.31.33-.14.67-.27.34-.13.67-.26.37-.04.71-.17.33-.16.66-.29.34-.13.67-.26.33-.15.66-.28.34-.11.68-.24.31-.2.65-.33.34-.12.68-.25.37-.06.7-.18.3-.22.64-.35.33-.14.66-.27.34-.12.67-.25.34-.12.67-.25.39.01.73-.11.33-.14.67-.27.32-.18.66-.31.33-.16.66-.29.36-.06.7-.19.31-.19.65-.32.32-.19.65-.32.38-.03.71-.16.35-.1.69-.23.32-.18.66-.31.31-.21.65-.34.36-.07.7-.2.36-.07.7-.2.3-.22.64-.35.35-.11.69-.24.37-.07.71-.2.33-.15.67-.29c.26-.1.45-.3.59-.5.15-.21.2-.47.2-.72s0-.55-.15-.76c-.14-.2-.4-.31-.66-.41-.33-.13-.3-.2-.63-.33s-.36-.04-.69-.17-.31-.18-.64-.3-.36-.05-.69-.18-.31-.19-.64-.32-.37-.03-.7-.16-.28-.25-.62-.38-.34-.11-.67-.24-.32-.15-.65-.28-.36-.05-.69-.18-.35-.1-.68-.22-.29-.25-.62-.38-.37-.04-.7-.17-.35-.09-.68-.22-.28-.26-.62-.39-.38,0-.71-.13-.28-.26-.61-.39-.37-.03-.7-.16-.33-.14-.66-.27-.35-.08-.68-.21-.28-.26-.61-.39-.34-.11-.67-.24-.36-.06-.69-.19-.3-.21-.63-.34-.36-.05-.7-.18-.35-.09-.68-.22-.31-.18-.65-.31-.31-.2-.64-.33-.4.03-.73-.1-.28-.28-.61-.41-.38,0-.72-.13-.29-.25-.62-.38-.38-.01-.71-.14-.32-.16-.65-.29-.34-.12-.67-.24-.3-.21-.63-.34-.32-.16-.66-.29-.37-.05-.7-.18-.33-.13-.67-.26-.35-.08-.69-.21-.32-.17-.65-.3-.31-.21-.64-.34-.34-.13-.67-.26-.37-.02-.71-.15-.34-.13-.67-.25-.3-.23-.63-.36-.37-.04-.7-.17-.3-.21-.64-.34-.35-.11-.68-.24-.34-.12-.68-.25-.32-.17-.66-.3-.35-.1-.69-.23c0,0-.04.11-.04.11-.23-.09-.36-.34-.56-.46s-.43-.21-.59-.38-.24-.41-.35-.61-.24-.4-.31-.62-.15-.44-.17-.68-.1-.48-.07-.71.14-.46.22-.68.14-.46.27-.67c.19-.3.25-.26.44-.56s.19-.3.38-.59.15-.32.34-.62.28-.24.47-.53.13-.33.32-.63.2-.29.39-.58.15-.32.34-.62.24-.26.44-.56.2-.29.39-.59.25-.26.44-.56.18-.3.37-.6.2-.3.39-.59.22-.28.41-.58.15-.33.34-.63.12-.34.32-.64.18-.31.37-.6.25-.26.45-.56.23-.27.43-.57.19-.3.38-.6.2-.3.39-.6.11-.36.31-.66.19-.3.38-.6.26-.26.46-.56.16-.32.36-.62.2-.29.4-.6.14-.33.34-.64.29-.24.49-.54.09-.37.29-.67.25-.26.45-.57.16-.32.35-.63.29-.24.48-.54.09-.37.28-.67.23-.28.42-.58.15-.33.34-.63.27-.25.46-.55.16-.32.36-.62.14-.34.34-.64.22-.29.42-.59.26-.26.46-.56.11-.36.31-.66.26-.26.45-.56.2-.3.4-.6.25-.27.44-.57.11-.36.31-.66.28-.25.47-.55.07-.38.26-.69.3-.23.5-.54.18-.31.37-.62.19-.31.39-.61.15-.34.34-.64.2-.3.4-.61.18-.32.37-.62c.15-.23.33-.45.32-.69,0-.26-.21-.47-.36-.67s-.31-.38-.56-.47c-.23-.08-.46-.05-.73.03-.35.09-.38,0-.73.08s-.34.11-.69.21-.36.06-.71.16-.35.11-.7.2-.36.05-.71.15-.34.13-.69.23-.36.07-.71.16-.33.18-.68.27-.35.09-.7.18-.37.03-.72.12-.34.12-.69.21-.37.03-.72.13-.31.26-.66.35-.39-.04-.74.05-.34.16-.69.25-.36.08-.71.17-.33.16-.68.26-.37.04-.72.13-.37.03-.72.13-.33.17-.68.27-.36.06-.71.15-.34.15-.69.25-.35.1-.7.19-.38,0-.73.1-.33.16-.68.25-.36.05-.71.15-.34.14-.69.23-.34.11-.69.21-.37.04-.72.13-.37.03-.72.12-.32.19-.68.29-.34.12-.69.22-.36.04-.72.14-.36.08-.71.17-.34.15-.69.24-.39-.04-.74.05-.34.14-.69.23-.33.19-.68.28-.37.04-.72.13-.36.08-.71.17-.36.09-.71.18-.37.05-.72.15-.36.08-.71.18-.36.1-.71.19-.36.08-.71.18-.34.16-.69.25-.34.13-.7.22-.36.07-.72.16-.36.07-.72.16-.34.15-.7.24-.35.11-.71.2c-.23.06-.48.02-.71.02s-.46-.06-.69-.1-.46-.07-.67-.16-.41-.21-.6-.35-.4-.26-.55-.44-.23-.4-.34-.61-.24-.4-.31-.63-.15-.45-.17-.69c-.02-.37-.05-.37-.07-.74s.03-.38,0-.75.05-.38.03-.75-.05-.37-.07-.74-.02-.37-.04-.75-.09-.37-.11-.75.02-.38,0-.75.06-.38.04-.76-.17-.37-.19-.74.14-.37.12-.73-.05-.36-.07-.72,0-.36-.03-.72-.04-.36-.06-.72-.01-.36-.03-.72-.09-.36-.11-.72,0-.36-.01-.72.06-.36.04-.72-.08-.36-.1-.72-.11-.36-.13-.72,0-.36-.02-.72.07-.37.05-.73-.12-.36-.14-.72.11-.37.09-.73-.08-.36-.1-.72-.09-.36-.11-.72.1-.37.08-.73-.03-.36-.05-.72,0-.36-.01-.72-.13-.36-.15-.72-.02-.36-.04-.72-.02-.36-.04-.72.03-.36,0-.73.07-.36.05-.72-.14-.35-.16-.71-.05-.36-.07-.72-.02-.36-.04-.72.02-.36,0-.73.07-.37.05-.73-.1-.36-.12-.72.07-.37.05-.73-.13-.36-.15-.72.04-.37.02-.73,0-.36-.03-.73,0-.36-.02-.73-.03-.36-.05-.73-.1-.36-.12-.72-.05-.36-.07-.72.1-.37.08-.73-.08-.36-.1-.73.03-.37.01-.73.03-.37.01-.73c-.02-.28-.21-.49-.36-.68-.16-.2-.35-.36-.59-.44s-.5-.12-.75-.05c-.23.07-.47.2-.64.42-.23.28-.21.3-.44.58s-.27.25-.49.53-.2.31-.42.59-.24.27-.47.55-.14.35-.37.63-.31.21-.54.5-.18.32-.41.6-.24.27-.46.56-.27.25-.5.53-.22.29-.45.57-.21.3-.44.58-.24.28-.46.56-.22.28-.45.56-.18.32-.4.6-.33.2-.56.47-.25.26-.48.54-.13.36-.36.64-.22.29-.44.57-.28.24-.51.52-.16.34-.39.62-.31.21-.54.49-.14.35-.37.63-.3.22-.53.5-.16.34-.39.62-.34.19-.57.47-.17.33-.4.61-.26.26-.49.54-.24.27-.47.55-.23.28-.46.56-.13.36-.36.64-.36.17-.59.46-.18.32-.41.61-.28.25-.51.53-.11.38-.34.67-.32.21-.55.49-.21.3-.44.58-.26.26-.49.55-.17.33-.4.62-.26.26-.49.54-.23.29-.46.57-.28.25-.51.54-.12.38-.35.66-.34.19-.58.48-.2.31-.43.6-.16.34-.4.62-.29.24-.52.53-.18.33-.41.61-.32.22-.55.5-.25.28-.48.56-.16.35-.39.64-.2.31-.44.6c-.15.19-.38.3-.56.45s-.35.34-.56.44-.47.11-.7.16-.46.11-.7.11-.47-.07-.7-.12-.49-.05-.7-.15-.38-.29-.57-.43-.33-.32-.49-.51c-.19-.23-.17-.25-.35-.48-.22-.28-.22-.28-.44-.56s-.33-.19-.55-.47-.1-.38-.33-.65-.32-.2-.54-.48-.13-.35-.36-.63-.25-.25-.48-.53-.23-.28-.45-.55-.31-.21-.54-.48-.11-.37-.33-.65-.28-.23-.51-.51-.19-.31-.41-.59-.22-.28-.45-.56-.3-.22-.52-.5-.17-.32-.4-.6-.25-.26-.48-.53-.27-.24-.49-.52-.23-.27-.45-.55-.24-.26-.47-.54-.22-.28-.45-.56-.18-.32-.4-.59-.27-.24-.5-.52-.13-.36-.35-.64-.34-.18-.57-.46-.16-.33-.39-.61-.17-.33-.39-.6-.29-.22-.52-.5-.26-.25-.49-.53-.24-.27-.47-.55-.21-.29-.43-.57-.17-.32-.4-.6-.3-.22-.52-.49-.13-.36-.35-.63-.2-.29-.43-.57-.31-.21-.53-.49-.13-.35-.36-.63-.33-.19-.56-.47-.24-.27-.47-.55-.21-.29-.44-.57-.21-.29-.43-.57-.14-.35-.37-.63-.34-.19-.56-.47-.21-.29-.44-.57-.23-.28-.46-.56-.15-.34-.38-.62-.28-.23-.51-.51-.23-.28-.45-.56-.22-.28-.45-.56-.26-.25-.49-.53-.18-.32-.41-.6-.29-.23-.52-.51-.16-.34-.39-.62c-.18-.22-.4-.36-.63-.43-.25-.07-.5.02-.74.1s-.51.14-.66.35c-.15.19-.17.45-.19.73-.02.36-.07.36-.09.72s-.08.36-.1.71-.04.36-.06.72.13.37.11.73-.09.36-.11.72.01.36,0,.72-.01.36-.03.72-.07.36-.09.72-.06.36-.08.72.04.36.02.72-.07.36-.09.72.04.36.02.72.05.36.03.72-.16.35-.18.71-.02.36-.04.72-.02.36-.04.72,0,.36-.02.72.04.36.02.73.03.36.01.72-.03.36-.05.72-.03.36-.05.72-.03.36-.05.72-.09.36-.11.72.09.37.07.73-.18.35-.2.71.12.37.1.73-.03.36-.05.72-.07.36-.09.71-.08.36-.1.71.05.36.03.72-.02.36-.04.72.02.36,0,.73-.12.36-.14.72-.03.36-.05.72,0,.36-.02.72.03.37,0,.73.02.36,0,.73-.07.36-.09.72.05.37.03.73-.06.36-.08.72-.07.36-.09.72.08.37.06.73-.12.36-.14.72,0,.37-.03.73.04.37.02.73.03.37,0,.73c-.02.38-.1.38-.13.76s-.06.38-.08.77.07.39.05.78-.07.39-.09.77-.04.39-.06.77c-.01.24-.04.47-.1.69s-.17.44-.28.64-.23.41-.38.59-.36.3-.55.44-.34.37-.55.46-.47.12-.7.17-.47.09-.71.09-.48-.06-.71-.12c-.35-.09-.35-.12-.7-.21s-.34-.15-.69-.24-.37-.03-.72-.13-.35-.11-.7-.2-.34-.13-.7-.23-.34-.15-.69-.25-.35-.1-.71-.19-.37-.02-.72-.12-.37-.03-.72-.13-.34-.13-.7-.23-.36-.07-.72-.16-.35-.1-.71-.19-.32-.2-.67-.3-.37-.01-.72-.11-.35-.11-.7-.2-.35-.1-.7-.19-.35-.09-.7-.19-.35-.09-.7-.18-.36-.05-.71-.14-.36-.05-.71-.15-.31-.25-.66-.34-.36-.08-.71-.17-.36-.05-.71-.15-.35-.11-.7-.2-.37-.03-.72-.12-.33-.18-.68-.27-.37-.04-.72-.13-.34-.13-.69-.22-.36-.07-.71-.16-.35-.11-.7-.21-.35-.1-.7-.19-.38,0-.73-.1-.33-.18-.67-.27-.36-.07-.71-.16-.35-.09-.7-.18-.34-.12-.7-.21-.36-.07-.71-.16-.37-.02-.72-.12-.34-.12-.69-.22-.35-.11-.7-.2-.37-.05-.72-.14-.35-.09-.7-.19-.33-.18-.68-.27-.36-.09-.71-.18-.34-.15-.69-.25-.36-.06-.71-.16-.36-.05-.72-.14-.37-.03-.73-.12-.35-.12-.7-.21-.35-.1-.71-.2-.34-.16-.69-.26c-.27-.07-.55-.08-.77,0-.24.09-.46.28-.61.48s-.2.47-.21.73c0,.24-.02.53.13.76.19.3.25.26.45.56s.24.27.43.58.19.3.38.61.23.28.42.58.18.31.38.61.07.38.27.68.22.28.42.59.3.23.5.54.16.33.35.63.14.34.33.65.17.32.37.62.27.26.46.56.12.35.31.65.29.24.49.54.13.34.33.65.17.32.36.62.28.25.48.55.13.35.32.65.26.26.46.56.23.28.42.59.15.33.35.64.21.3.4.6.19.31.38.61.17.32.37.62.14.34.34.64.31.23.51.53.1.36.3.67.2.3.4.6.18.31.37.62.25.27.44.57.24.27.43.57.14.34.34.64.23.28.43.58.11.36.31.66.24.28.43.58.18.31.38.62.21.29.41.6.26.26.46.56.22.29.41.6.09.38.28.68.27.26.47.56.12.36.31.66.28.25.47.55.22.29.42.59.1.37.29.67.22.29.41.6.17.32.37.63.3.24.5.55.1.37.29.68c.24.38.26.37.5.74s.33.32.57.7c.13.2.24.42.32.64s.12.47.15.7-.06.47-.08.71.04.49-.03.71-.3.38-.42.58-.17.45-.34.62-.32.36-.52.49-.45.16-.67.24c-.32.12-.34.07-.65.19s-.26.26-.58.38-.33.09-.65.21-.36.02-.67.14-.31.13-.63.25-.3.17-.62.29-.32.12-.64.24-.3.17-.62.3-.33.1-.65.23c-.34.13-.32.18-.65.31s-.34.13-.67.26-.33.14-.67.27-.34.11-.68.24-.36.06-.7.19-.35.09-.69.22-.28.27-.62.4-.34.11-.68.24-.35.09-.69.21-.36.06-.7.19-.29.25-.62.38-.36.06-.7.19-.35.1-.68.23-.32.17-.66.3-.35.08-.69.21-.33.15-.67.28-.3.21-.64.34-.33.14-.67.27-.39,0-.73.12-.32.17-.66.3-.34.12-.68.25-.32.16-.66.29-.32.18-.65.31-.33.14-.67.27-.33.13-.67.26-.35.08-.69.21-.37.05-.7.18-.31.21-.64.34-.33.16-.66.29-.38.03-.71.16-.28.27-.62.4-.34.12-.68.25-.38.01-.72.14-.32.17-.66.3-.32.18-.66.31-.32.17-.66.3-.36.06-.7.19-.36.07-.7.2-.33.16-.66.29-.35.11-.69.24-.34.13-.68.26-.3.23-.64.36-.35.1-.69.23c-.26.1-.46.24-.59.44C.11,83.53,0,83.77,0,84.02s.17.46.32.68c.14.2.24.49.5.59.34.13.4-.03.74.1s.29.25.63.38.36.07.7.2.35.11.69.24.3.23.64.36.36.09.69.22.33.16.67.29.33.16.66.3.34.13.68.26.38.03.72.16.33.17.67.3.32.19.66.33.35.1.69.23.37.05.71.18.31.21.65.34.37.04.71.17.3.23.64.36.38.02.72.15.34.14.68.27.33.15.67.28.3.24.63.37.34.12.68.25.37.05.71.18.34.13.68.26.32.19.66.32.35.1.7.23.34.13.68.26.36.07.7.2.31.2.65.33.32.2.66.33.36.08.7.22.32.18.66.31.38.03.72.16.33.17.67.3.37.05.71.18.29.28.63.41.36.08.71.21.34.13.69.26.33.16.68.29.33.18.67.31.39,0,.73.13.32.18.66.31.34.12.68.25.31.22.65.35.38.02.72.15.32.18.66.31.31.2.65.33.4-.01.74.12.33.17.67.3.35.11.69.25.29.25.64.39c.23.09.51.05.7.18s.34.34.5.51.22.41.34.61.24.39.31.62.2.44.22.67.04.48.01.71-.18.43-.27.66-.17.42-.3.63c-.19.29-.09.35-.27.64s-.21.27-.39.56-.23.26-.42.54-.24.25-.42.54-.1.34-.29.63-.15.31-.34.6-.27.24-.46.52-.24.26-.43.54-.11.36-.3.66-.18.31-.37.61-.26.26-.45.56-.16.32-.36.63-.23.28-.43.58-.18.31-.38.61-.16.33-.35.63-.19.31-.38.61-.24.27-.43.57-.21.29-.41.59-.19.3-.39.6-.17.32-.36.62-.16.32-.36.63-.19.31-.38.61-.21.29-.4.6-.24.27-.43.58-.17.32-.36.62-.23.28-.42.58-.2.3-.4.6-.22.29-.41.59-.09.37-.29.67-.24.27-.44.58-.12.35-.32.65-.28.24-.48.54-.23.28-.42.58-.15.33-.34.63-.15.33-.35.63-.27.25-.46.56-.12.35-.31.66-.27.26-.47.56-.09.37-.29.67-.25.26-.45.57-.22.29-.41.59-.17.32-.36.63-.18.31-.38.62-.29.24-.49.55-.13.35-.33.65-.22.29-.41.59-.19.31-.39.61-.13.35-.32.65-.21.29-.41.6-.18.31-.38.62-.25.27-.44.58-.15.34-.35.64c-.15.23-.22.45-.21.68,0,.26.03.52.18.72s.39.3.63.39c.23.08.44.06.71,0,.35-.09.37,0,.72-.09s.35-.09.69-.18.36-.05.7-.15.34-.11.69-.21.36-.04.71-.14.35-.09.69-.19.34-.12.69-.21.35-.09.69-.18.32-.2.66-.29.35-.08.69-.18.37,0,.72-.1.35-.1.69-.19.34-.13.68-.22.37,0,.72-.1.32-.22.66-.31.37,0,.72-.09.34-.1.69-.19.33-.16.68-.26.36-.04.71-.13.35-.09.69-.19.34-.13.69-.23.37,0,.72-.1.31-.22.66-.32.37-.01.72-.11.33-.16.67-.25.35-.09.69-.18.36-.04.7-.14.33-.15.68-.24.35-.1.69-.19.39.06.74-.03.31-.22.66-.32.35-.09.7-.18.38.02.72-.08.31-.23.66-.32.35-.08.7-.17.35-.08.7-.17.38.02.73-.07.34-.11.69-.21.35-.11.69-.2.34-.12.69-.22.35-.11.7-.21.34-.12.7-.21.38.02.73-.08.32-.22.67-.32c.33-.09.36.03.69-.06s.3-.18.64-.27.35-.03.68-.12.3-.19.63-.28.36.03.69-.06.33-.09.66-.18.32-.14.65-.23.32-.14.65-.23c.23-.06.49,0,.72,0s.49-.12.72-.07.48.12.69.21.42.25.61.38.31.36.47.54.39.31.5.52.05.48.11.72.1.44.11.68c.02.35.13.34.15.69s-.03.35-.02.7.02.35.04.7-.02.35,0,.7.09.35.11.7.03.35.05.7.06.35.08.7-.06.35-.04.7.08.35.09.7-.07.35-.05.7-.02.35,0,.71.16.34.17.7,0,.35.03.71-.05.36-.03.71.14.35.16.71-.05.36-.03.72.05.36.06.71-.06.36-.04.72.1.35.11.71.02.36.04.72-.07.36-.05.72.11.35.13.71-.01.36,0,.72-.03.36,0,.72.04.36.06.72-.04.36-.02.72.06.36.08.71.06.36.08.71.1.35.12.71-.08.36-.06.72.11.35.13.71-.09.36-.07.72.13.35.14.71,0,.36.01.71.03.36.05.71-.06.36-.05.72.01.36.03.72.03.36.05.72.12.35.14.71-.02.36,0,.72.07.36.09.72.01.36.03.72-.06.36-.04.72,0,.36.01.72.14.35.16.72-.08.37-.06.73.06.36.08.72,0,.36.01.72.04.36.06.72-.06.37-.04.73,0,.36.03.73.15.36.17.72c.02.28.03.54.17.73.16.2.39.38.63.46s.54.11.79.04c.23-.07.46-.25.63-.47.23-.28.17-.32.4-.6s.24-.27.47-.55.27-.25.49-.52.21-.29.44-.57.21-.3.43-.57.2-.3.42-.58.25-.26.48-.54.24-.27.47-.55.27-.24.5-.52.17-.32.4-.6.27-.24.5-.52.13-.35.36-.63.32-.2.55-.48.17-.32.4-.6.29-.22.52-.5.14-.35.37-.62.27-.24.5-.52.14-.35.36-.63.26-.25.48-.53.24-.27.46-.55.25-.26.48-.54.2-.3.43-.58.28-.23.51-.51.2-.3.43-.58.17-.33.39-.61.34-.19.57-.47.11-.38.34-.66.3-.22.53-.5.24-.27.47-.55.16-.33.39-.61.21-.29.44-.57.23-.28.46-.56.34-.19.57-.48.2-.31.43-.59.27-.25.5-.53.22-.29.45-.58.14-.33.36-.6.2-.29.42-.56.3-.21.52-.48.15-.33.37-.6.29-.21.51-.48.15-.33.37-.6.28-.22.5-.49.22-.27.44-.54.15-.32.37-.59.33-.18.55-.45.14-.34.36-.61.29-.22.51-.49.24-.26.47-.53.2-.29.42-.57.15-.33.38-.61.24-.26.47-.53c.15-.19.36-.31.54-.46s.33-.38.54-.48.48-.06.71-.12.46-.19.69-.19.45.17.68.22.46.08.67.18.39.24.57.39.36.28.52.47c.22.27.27.23.49.5s.22.27.45.54.21.28.44.55.19.3.41.58.27.24.49.51.22.28.44.55.25.26.47.53.13.36.35.63.29.23.51.5.19.31.41.58.2.3.43.57.28.23.51.51.17.32.39.6.21.29.44.57.26.25.48.53.31.2.54.48.17.32.39.6.19.31.41.58.26.24.49.52.27.24.49.52.23.27.46.55.15.34.38.61.2.3.42.58.21.29.44.57.3.22.52.5.24.26.47.54.19.31.41.59.17.32.4.6.26.25.48.53.25.26.47.54.27.24.49.52.25.26.47.54.13.36.35.63.3.21.52.49.19.3.41.58.28.23.51.51.15.34.38.62.18.32.41.6.25.26.48.54.24.27.46.55.29.22.52.5.22.28.45.56.13.36.36.64.26.26.48.53.27.24.5.52.15.34.38.62.24.27.47.55.25.26.47.54.28.23.51.52.21.3.44.58.2.31.43.59.26.26.49.54c.18.22.36.44.59.51.25.07.52-.08.76-.16s.5-.15.66-.35c.15-.19.13-.45.15-.73.02-.36.12-.35.14-.71s-.01-.36,0-.72.01-.36.03-.72.03-.36.05-.72.11-.35.13-.71-.06-.36-.04-.72.08-.35.1-.71,0-.36.01-.72.02-.36.04-.71-.08-.36-.06-.72.07-.35.09-.71-.06-.36-.04-.72.18-.35.2-.71-.05-.36-.03-.72-.06-.36-.04-.72.14-.35.16-.71-.02-.36,0-.72,0-.36.02-.72.01-.36.03-.72.04-.36.06-.71.02-.36.04-.72-.08-.36-.06-.72.11-.35.13-.71-.05-.36-.03-.72.06-.36.08-.71.08-.36.1-.71-.02-.36,0-.71.06-.35.08-.71.03-.36.05-.71.02-.36.04-.72-.03-.36-.01-.72,0-.36.02-.72-.03-.36-.01-.72.06-.36.07-.72.12-.36.14-.72-.11-.37-.1-.73.09-.36.11-.72-.02-.36,0-.72,0-.36.02-.72.16-.35.18-.71-.09-.37-.07-.72.05-.36.07-.72.03-.36.05-.72.1-.36.12-.72-.1-.37-.08-.73c.02-.34.11-.34.13-.68s-.12-.35-.1-.69.17-.33.19-.68.02-.34.04-.69-.12-.35-.1-.7,0-.35.02-.69.07-.34.09-.69c.01-.24.09-.47.16-.69s.17-.44.28-.64.18-.46.33-.63.38-.3.57-.43.38-.29.6-.39.46-.11.69-.16.46,0,.7,0,.45.05.68.11c.35.09.37.02.73.11s.35.1.7.19.35.1.7.19.34.14.69.24.36.08.71.18.37.03.73.13.35.11.7.21.34.16.69.25.36.06.72.15.35.11.71.2.34.14.7.23.39-.05.75.04.32.21.68.31.38,0,.74.09.33.2.68.3.39-.06.75.04.33.18.69.28.34.15.7.24.39-.02.74.08.36.07.72.17.31.24.66.33.36.07.71.16.37.03.72.12.33.17.68.26.38,0,.73.09.33.17.68.26.36.05.71.14.33.16.68.25.37.04.72.13.34.12.69.21.35.08.7.18.35.08.7.17.33.15.68.25.36.05.71.15.35.11.69.2.36.07.71.17.37.03.72.12.33.16.68.25.36.05.71.15.32.19.67.28.39-.03.74.06.32.22.67.32.38,0,.73.1.35.12.7.21.35.11.7.2.37.02.72.11.34.12.69.22.35.1.7.19.34.14.69.23.36.06.72.16.33.17.69.27c.27.07.55.01.78-.07.24-.09.49-.24.64-.44s.15-.49.16-.75c0-.24,0-.49-.16-.73-.19-.3-.26-.26-.45-.56s-.1-.36-.3-.66-.21-.29-.4-.59-.28-.25-.48-.55-.08-.37-.28-.68-.26-.26-.45-.56-.26-.26-.45-.56-.06-.39-.25-.69-.32-.22-.52-.52-.07-.38-.27-.68-.28-.25-.47-.55-.13-.34-.32-.64-.27-.25-.46-.56-.18-.31-.38-.61-.14-.34-.34-.64-.23-.28-.43-.58-.27-.26-.46-.56-.12-.35-.32-.65-.25-.26-.45-.56-.1-.36-.29-.67-.27-.25-.46-.56-.09-.37-.29-.67-.25-.27-.44-.57-.2-.3-.4-.6-.15-.33-.34-.63-.26-.26-.45-.56-.26-.26-.45-.56-.16-.32-.35-.62-.16-.33-.35-.63-.2-.3-.4-.6-.17-.32-.37-.62-.16-.32-.36-.62-.32-.22-.51-.52-.18-.31-.38-.61-.09-.38-.28-.68-.24-.27-.44-.58-.2-.3-.39-.61-.16-.33-.36-.63-.19-.3-.39-.61-.26-.26-.45-.57-.25-.27-.44-.57-.13-.35-.32-.65-.23-.29-.43-.59-.22-.29-.42-.6-.09-.37-.29-.68c-.18-.29-.19-.28-.37-.57s-.18-.29-.36-.58-.26-.24-.44-.52-.11-.34-.29-.63-.29-.22-.48-.51-.19-.29-.36-.59-.11-.33-.3-.62ZM90.08,94.46s0,.03,0,.03c.3.04.62.02.85-.14s.42-.45.47-.74c.04-.23.07-.47.11-.71s.1-.47.14-.7,0-.48.03-.72.06-.47.09-.71.09-.47.13-.7.16-.46.2-.69-.04-.49,0-.72.12-.46.16-.7.07-.47.11-.71.12-.46.16-.7.05-.48.09-.71,0-.49.05-.72.06-.48.11-.71.23-.44.28-.68.13-.46.18-.7.03-.49.08-.72.09-.47.15-.71.16-.45.22-.69.14-.46.2-.69.03-.49.1-.72.09-.48.16-.71.19-.45.27-.67.25-.42.33-.65.18-.44.27-.67.07-.49.16-.71.21-.43.31-.65.3-.39.4-.6.22-.42.34-.63.1-.49.23-.7.3-.38.44-.58.31-.37.45-.56.19-.45.34-.64.41-.28.57-.46.32-.35.49-.52.33-.34.51-.5.28-.41.46-.56.45-.2.64-.34.37-.29.58-.42.37-.31.57-.43.39-.28.61-.38.44-.19.66-.28.45-.15.68-.24.48-.07.71-.14.45-.15.68-.21.43-.22.67-.28.48,0,.72-.05.45-.2.69-.24.49.1.74.08.46-.2.71-.22c.25-.02.51.04.75.03.25-.01.5.03.74.02.25,0,.5-.13.74-.12.25,0,.5.12.74.14s.5.03.74.06.49.09.73.13.51-.02.75.03.47.17.7.24.45.18.69.26.49.08.73.17.46.16.69.26.42.26.65.37c.22.1.5.11.73.22.19.2.22.5.12.71-.08.18-.34.26-.54.43-.16.14-.26.39-.46.52s-.43.17-.64.27c-.22.11-.41.28-.6.35-.28.11-.55.08-.67.1-.24.04-.47.11-.7.14s-.47.1-.7.12-.48-.05-.71-.04-.48.11-.71.11-.48-.1-.71-.1-.48-.07-.71-.08-.48-.02-.71-.03-.48.06-.71.04-.47-.08-.7-.09-.48-.02-.71-.03-.48.09-.71.08-.48-.17-.71-.17-.47.17-.7.19-.49-.06-.72-.01-.43.22-.66.29-.47.07-.69.17-.4.24-.61.37c-.2.12-.43.19-.63.33-.18.13-.36.3-.54.46-.17.15-.35.3-.52.48-.16.16-.31.34-.47.53-.15.17-.31.35-.46.54-.14.18-.22.41-.36.61-.13.19-.32.34-.45.55-.13.19-.13.47-.26.68-.12.2-.29.37-.41.58-.12.21-.28.39-.4.6s-.25.42-.35.63-.08.49-.18.71-.29.4-.38.62-.11.47-.19.7-.14.46-.22.68-.3.41-.37.64-.12.47-.18.7-.02.49-.07.72-.19.45-.24.68,0,.49-.05.72-.16.46-.2.7-.03.48-.06.72-.09.47-.12.71,0,.48-.03.72-.19.46-.22.7,0,.48-.03.72,0,.48-.03.72-.12.46-.16.7-.1.47-.14.7.06.49.02.73-.18.45-.23.69-.06.47-.11.71-.14.46-.2.69-.09.47-.16.7-.05.48-.12.72-.23.43-.31.65c-.08.22-.18.43-.3.63s-.25.39-.4.57-.25.41-.42.57-.42.23-.61.36-.36.3-.57.41-.41.25-.62.34-.48.04-.71.1-.45.2-.68.22c-.24.02-.47-.07-.7-.09-.24-.03-.48-.03-.69-.11s-.43-.2-.61-.35-.35-.31-.48-.52c-.11-.19-.23-.41-.33-.65-.09-.21-.19-.44-.28-.68-.07-.22-.11-.47-.18-.71-.06-.23-.07-.48-.13-.72-.05-.23-.15-.46-.2-.7s-.16-.46-.21-.7-.05-.48-.09-.73-.11-.47-.15-.72,0-.49-.04-.73-.17-.46-.21-.7.06-.5.02-.74-.23-.46-.27-.7.06-.51.02-.75-.23-.46-.27-.7.02-.5-.02-.74-.15-.47-.19-.71-.14-.47-.19-.71-.09-.48-.15-.72-.06-.49-.12-.73-.05-.5-.11-.73c-.07-.24-.26-.44-.33-.67-.08-.24-.13-.47-.22-.69-.09-.24-.16-.47-.25-.68-.1-.21-.21-.42-.32-.63s-.25-.4-.37-.6-.19-.43-.31-.63-.19-.44-.32-.64-.25-.4-.39-.59-.34-.34-.48-.52-.24-.41-.4-.59-.39-.28-.56-.45-.27-.4-.44-.56-.36-.31-.54-.47-.41-.24-.6-.38-.41-.24-.6-.37-.35-.33-.55-.45-.46-.13-.67-.24-.37-.31-.59-.4-.44-.18-.66-.26-.43-.19-.66-.26-.45-.14-.68-.19-.48.03-.72,0-.45-.16-.69-.18-.47-.03-.71-.04-.47.03-.71.04-.47-.01-.71.01c-.24.02-.46.17-.69.21s-.47.07-.7.13-.46.14-.68.21-.5.03-.72.12-.38.34-.6.43-.46.15-.67.25-.48.11-.69.22-.39.3-.6.41-.48.12-.69.22-.41.26-.62.36c-.22.1-.46.15-.67.24-.23.09-.44.19-.65.26-.23.08-.45.14-.68.18-.24.04-.48.07-.74.07s-.51.13-.76.1c-.26-.03-.48-.19-.71-.27-.25-.09-.45-.22-.62-.37-.19-.17-.33-.34-.39-.59-.05-.21-.1-.45-.03-.73.05-.21.2-.41.34-.66.03-.06.21-.21.52-.43.16-.12.33-.3.54-.44.18-.12.35-.29.56-.43.19-.12.45-.15.65-.28s.39-.25.59-.38.33-.36.53-.48c.21-.13.43-.22.61-.34.22-.14.47-.18.64-.29.28-.17.49-.31.59-.36.21-.11.39-.28.61-.38s.45-.16.66-.26.42-.23.64-.31.46-.13.68-.21.47-.09.69-.16.42-.24.65-.3.47-.08.7-.13.46-.14.69-.18.47-.11.7-.14.48.01.71,0,.47-.1.71-.1.48.01.71.03.47.11.7.14.47.04.7.08.47.04.7.09.43.21.66.27.46.1.68.18.43.18.65.27.42.2.64.31.43.18.64.3.4.24.61.36.44.18.64.31.4.26.59.39.38.28.57.43c.19.14.42.25.6.4s.35.33.52.49.34.34.5.51.24.43.4.61.35.32.5.51.26.4.4.59.28.38.41.58.34.35.47.55.12.48.23.69.28.39.38.6.17.44.27.66.32.38.41.6.09.48.17.7.13.46.21.68.14.45.22.68.29.41.36.64,0,.49.07.72.19.44.25.67.07.47.12.7.1.46.15.7.11.46.15.7.18.45.22.68.09.47.13.7.08.47.13.7.03.48.07.71.15.46.19.69.08.47.12.7.09.47.13.7.03.48.07.71-.03.49.01.72.16.46.2.69.04.48.08.71.2.44.25.68.03.48.08.71.1.46.15.69.17.42.33.57.38.22.6.25ZM76.35,81.59c-.26-.06-.47-.06-.68.1-.17.13-.28.36-.43.59-.13.19-.26.39-.39.62-.12.21-.22.44-.34.66s-.32.39-.46.59-.25.44-.41.62-.37.35-.57.48-.43.24-.68.3c-.22.05-.47,0-.74-.03-.26-.02-.49-.04-.7-.12-.23-.09-.46-.17-.65-.31s-.39-.29-.54-.48-.31-.37-.44-.58-.19-.44-.3-.65-.19-.44-.3-.65-.2-.44-.32-.64-.31-.34-.49-.45c-.19-.11-.42-.04-.63-.05s-.46-.1-.65,0c-.18.09-.34.28-.47.47-.05.08-.03.2-.08.28-.16.25-.41.37-.63.46-.25.1-.53.21-.78.15s-.41-.33-.59-.52-.36-.37-.39-.63c-.03-.23.06-.46.21-.72.12-.21.22-.43.37-.62s.32-.36.5-.53.29-.41.48-.56.46-.19.67-.32.39-.29.61-.41.46-.15.69-.25.42-.27.65-.35.49-.07.72-.14.46-.17.69-.23.47-.16.71-.2.5.01.74-.01.49-.04.73-.05.49-.02.73-.02.5-.02.73,0c.25.03.47.14.7.19.25.05.51,0,.73.08.21.07.4.24.62.35.2.1.42.18.63.31.2.12.4.23.6.37s.32.34.5.49.45.19.63.35.32.35.48.52.23.42.39.6.36.31.5.5.27.38.4.58.33.35.45.56.16.45.26.67.2.43.27.65.13.46.18.69.07.47.09.7-.06.42-.08.65c-.27.04-.5.12-.72.02s-.4-.31-.58-.51c-.16-.17-.37-.35-.51-.57-.13-.21-.15-.49-.27-.72s-.29-.43-.4-.65-.29-.43-.41-.63c-.14-.24-.25-.45-.4-.62-.19-.21-.37-.31-.6-.36ZM92.63,109.52c-.27.02-.54.16-.79.11s-.52-.13-.77-.21-.5-.17-.74-.23c-.27-.07-.51-.21-.75-.21-.22,0-.45.06-.69.08-.22.02-.46.01-.7.04s-.45.15-.68.18-.46,0-.69.03-.47-.03-.7,0-.46.08-.69.1-.46.15-.69.16-.47.01-.7.01-.46-.19-.69-.21c-.24-.02-.47.02-.7-.03-.24-.05-.47-.08-.68-.15-.22-.08-.39-.26-.58-.38s-.43-.2-.58-.38-.23-.39-.33-.61c-.08-.2-.21-.41-.25-.66-.04-.26.1-.49.2-.7.1-.22.2-.47.41-.59s.47-.24.72-.24c.23,0,.49.11.71.26s.4.37.62.49c.25.14.51.25.75.25.15,0,.37-.16.66-.27.19-.08.45-.09.68-.2.2-.09.38-.28.6-.39.21-.1.44-.16.66-.27s.43-.2.65-.29.45-.17.67-.26.45-.16.67-.24.43-.22.66-.29c.23-.07.46-.18.68-.23.24-.05.49-.06.72-.07.24-.01.48.07.72.08s.47.06.71.08.48.03.71.08.47.1.7.16.47.08.7.15.46.12.69.19.44.18.67.25.47.11.69.18.42.27.65.34.49,0,.72.04.46.13.69.16.47.08.71.09.47.03.72,0,.46-.1.7-.14.44-.15.68-.22c.22-.07.44-.02.67-.12-.02.23-.02.41,0,.62.03.23.06.42,0,.63-.05.18-.09.4-.3.57-.15.12-.4.18-.67.31-.2.09-.38.28-.63.38-.21.08-.48.07-.72.16-.22.07-.48.09-.72.16s-.45.2-.68.26-.46.17-.7.23-.49.09-.73.15-.48.1-.72.15-.47.2-.7.24c-.25.05-.51.02-.73.06-.26.05-.5.1-.72.13-.29.04-.53.02-.72.03ZM115.59,81.65s-.08-.08-.12-.13c-.13-.19-.22-.42-.41-.51-.2-.1-.44-.04-.66-.03s-.4.07-.59.19c-.18.11-.41.19-.52.4s-.21.45-.34.68c-.12.22-.15.49-.29.72s-.34.39-.49.59-.3.42-.48.59-.39.32-.61.45-.42.33-.67.39c-.24.06-.51.02-.78,0-.25-.02-.5-.02-.7-.11-.22-.09-.41-.26-.59-.41s-.33-.33-.48-.51-.26-.39-.38-.59-.16-.44-.27-.65-.31-.37-.42-.57c-.12-.22-.19-.45-.31-.62-.15-.21-.36-.32-.53-.43-.19-.13-.36-.17-.61-.12-.23.05-.39.19-.58.4-.15.17-.39.31-.53.54-.12.21-.26.42-.38.66s-.24.44-.36.67-.22.45-.35.66c-.14.22-.23.47-.4.64-.18.19-.41.28-.63.38s-.42.19-.69.15c-.03-.24-.07-.46-.06-.71s.02-.49.07-.73.21-.44.29-.67.13-.46.23-.69.2-.44.32-.66.29-.39.42-.59.25-.42.4-.61.31-.38.47-.56.33-.36.49-.54.39-.3.57-.46.37-.31.56-.46.31-.42.5-.55c.21-.14.43-.25.63-.37.22-.12.49-.12.7-.21.21-.08.43-.13.66-.19.22-.06.43-.16.67-.2s.46-.03.7-.05.46-.15.7-.15.47.06.7.08.47.02.7.05.45.11.69.16.45.11.68.16.45.12.67.19.49.02.71.1.45.16.66.25.43.2.64.31.39.28.59.4.35.32.53.46.42.24.58.4.36.31.51.49.28.39.4.59c.15.26.08.54.06.77-.03.26-.07.52-.25.71s-.41.37-.67.44-.51-.06-.76-.16c-.22-.09-.48-.17-.64-.42Z"/>
</svg>