<?xml version="1.0" encoding="UTF-8"?>
<svg id="a" data-name="Layer 1" xmlns="http://www.w3.org/2000/svg" viewBox="0 0 260 168.26">
  <defs>
    <style>
      .b {
        fill: #242424;
      }
    </style>
  </defs>
  <path class="b" d="M126.94,78.77c.24.04.52.1.75.13.24.03.5-.09.73-.06.25.03.47.16.71.18.25.02.49.01.72.03.25.01.49.09.72.09.25,0,.49-.11.72-.12.25-.01.49-.02.71-.04.25-.03.5.02.73-.02.25-.05.45-.23.66-.31.23-.08.48-.12.68-.23s.43-.23.61-.39.25-.41.4-.6.36-.32.47-.54c.11-.2.13-.45.21-.68.08-.21.16-.43.22-.67.06-.22.09-.45.13-.7.04-.23.21-.44.24-.69.03-.23.04-.47.06-.72.02-.23.01-.47.02-.72.01-.23-.01-.47,0-.72,0-.23.03-.47.03-.72,0-.24-.11-.48-.11-.72s.16-.48.16-.72-.08-.48-.08-.72-.02-.48-.02-.72.08-.48.08-.72-.07-.48-.07-.72.06-.48.06-.72-.12-.48-.12-.72-.03-.48-.04-.72.12-.48.12-.72-.02-.48-.02-.72-.08-.48-.09-.72-.05-.48-.06-.72,0-.48,0-.72.07-.48.06-.72,0-.48,0-.72-.1-.48-.11-.71.08-.48.07-.72-.14-.47-.15-.71,0-.48-.02-.72.01-.48,0-.72-.04-.48-.05-.72.06-.48.06-.72.05-.48.04-.72-.09-.48-.1-.71.02-.48.01-.72.04-.48.03-.72-.1-.48-.11-.71-.08-.48-.08-.72.1-.48.1-.72-.09-.48-.1-.72.06-.48.05-.72.03-.48.02-.72-.06-.48-.06-.72.05-.48.05-.72-.03-.48-.03-.72-.02-.48-.02-.72.04-.48.04-.72-.04-.48-.04-.72c0-.24-.05-.51,0-.76.05-.24.12-.49.2-.74s.23-.45.34-.68.23-.44.36-.66.23-.45.38-.66.33-.39.48-.59.38-.35.54-.53.28-.44.46-.61c.18-.16.4-.28.58-.44s.3-.38.48-.55.44-.24.61-.4.35-.33.53-.49.24-.45.42-.61.4-.28.57-.44.39-.29.57-.45.33-.35.51-.52.36-.32.54-.48.29-.4.47-.56.38-.3.56-.46.36-.32.54-.48.42-.25.6-.41.32-.36.5-.52.28-.41.45-.57.39-.29.57-.45.32-.37.5-.53.43-.24.61-.41.3-.38.48-.55.42-.25.6-.42.27-.41.45-.58.36-.32.54-.48.44-.23.62-.39.33-.35.51-.51.32-.36.5-.52.41-.27.59-.43.29-.39.47-.55.33-.36.51-.52.41-.26.59-.43.4-.28.57-.44.36-.32.54-.48.27-.42.45-.58.36-.32.54-.49.37-.31.55-.47.42-.26.6-.42.35-.33.53-.49.35-.33.53-.49.28-.41.46-.57.39-.29.56-.45.38-.3.56-.46.32-.37.5-.53.4-.28.58-.44.31-.38.49-.54.38-.3.56-.46.43-.24.61-.4.31-.38.49-.54.39-.29.57-.45.32-.37.5-.53.38-.3.56-.46.31-.38.49-.54c.18-.16.42-.27.6-.44s.39-.31.57-.47.29-.41.47-.58.4-.29.58-.46.33-.36.51-.53.39-.31.57-.47.29-.41.48-.57.45-.24.63-.4.32-.37.51-.54.36-.33.54-.5.34-.36.52-.53.35-.34.54-.51.43-.25.62-.41.38-.31.57-.47.33-.37.52-.53.4-.29.59-.44.37-.32.57-.47.38-.31.58-.46.45-.22.65-.36.36-.35.56-.49.42-.25.62-.39c.2-.14.42-.22.61-.34.21-.13.42-.21.62-.31.22-.11.37-.35.57-.43.23-.09.5-.03.71-.08.25-.05.47-.17.68-.17.25,0,.48.08.69.16s.41.22.58.39c.16.15.26.36.38.58.11.19.28.36.37.6.07.2.09.44.14.68.05.21.06.44.09.69.03.22.13.44.15.69.01.22-.11.46-.11.7,0,.24.09.48.09.72s.01.48.02.72.03.48.03.72-.07.48-.07.72.13.48.13.72-.15.48-.14.72.09.48.1.72-.02.48-.02.72.07.48.07.72.02.48.02.72-.12.48-.12.72.04.48.04.72,0,.48,0,.72.11.48.11.72-.15.48-.15.72.14.48.14.72-.13.48-.13.72.06.48.06.72.01.48.02.72-.03.48-.03.72.04.48.04.72.04.48.04.72-.07.48-.07.72.02.48.03.72.04.48.04.72.05.48.06.72-.02.48-.02.72-.07.48-.07.72.11.48.11.72-.09.48-.09.72.02.48.02.72-.09.48-.09.72.15.48.15.72-.09.48-.09.72,0,.48,0,.72.07.48.07.72,0,.48,0,.72c0,.21-.13.44-.2.7-.06.21-.09.45-.2.69-.09.2-.26.39-.38.61-.11.2-.14.45-.27.67-.12.19-.31.36-.44.57-.13.19-.18.44-.32.64-.13.19-.38.31-.52.5-.14.19-.2.44-.34.63s-.3.37-.45.56-.28.38-.43.57-.4.28-.56.46-.26.39-.41.58-.25.41-.4.59-.35.32-.51.5-.29.37-.45.55-.29.38-.45.55-.39.28-.55.46-.24.42-.4.6-.39.28-.55.46-.24.42-.4.6-.41.27-.57.44-.29.38-.45.55-.29.38-.46.55-.33.34-.5.51-.37.31-.53.48-.31.37-.47.54-.36.32-.52.49-.31.36-.48.53-.38.29-.54.46-.32.34-.49.51-.34.33-.51.5-.26.41-.43.58-.32.35-.49.52-.34.33-.51.5-.39.28-.56.45-.28.39-.45.56-.44.24-.61.41-.29.38-.46.55-.35.33-.52.5-.31.36-.48.53-.36.31-.53.48-.36.32-.53.48-.27.4-.44.57-.38.29-.55.46-.32.35-.49.52-.39.28-.56.45-.29.38-.46.55-.3.38-.47.55-.34.34-.51.5-.39.28-.57.45-.35.33-.52.5-.32.36-.49.53-.32.36-.49.53-.34.34-.52.5-.37.31-.54.48-.34.34-.52.51-.31.37-.48.54-.31.37-.48.53-.38.3-.55.47-.38.3-.55.47-.28.4-.45.57-.33.35-.5.52-.39.29-.56.46-.29.4-.46.57-.45.23-.62.41-.3.39-.47.56-.3.38-.47.55-.39.29-.56.46-.37.31-.54.48-.26.42-.43.59-.39.3-.55.47-.28.4-.45.57-.37.31-.54.48-.36.32-.53.49-.25.43-.41.6-.36.33-.52.5-.32.35-.49.53-.37.3-.54.47-.29.39-.45.56-.43.25-.6.42-.23.43-.39.6-.42.25-.61.41-.31.37-.51.52-.42.24-.62.38-.36.34-.56.46-.44.21-.64.34-.45.19-.66.31-.42.23-.63.36c-.21.13-.36.33-.55.47s-.41.26-.59.42-.34.35-.49.53-.24.42-.38.61-.33.36-.45.56-.24.42-.33.64-.06.48-.13.71-.2.44-.23.67-.07.47-.08.71.1.47.12.71.07.46.12.69.01.49.1.71.26.4.38.61.24.4.38.6.27.38.43.56.32.34.49.51c.18.17.28.4.46.57s.39.29.56.46.32.36.5.53.42.26.59.43.29.4.46.56.31.37.49.54.4.28.57.45.34.35.51.51.33.36.5.52.43.25.6.42.28.4.46.57.37.31.54.48.38.3.56.47.38.3.56.46.3.38.48.55.32.37.49.53.42.26.59.43.33.35.51.51.4.28.57.45.32.36.5.53.31.38.48.54.38.3.56.46.3.38.48.55.41.27.58.44.39.29.57.45.27.41.45.58.35.33.53.5.33.35.51.52.38.3.56.46.39.29.57.46.37.31.54.48.28.41.45.58.37.31.55.48.32.37.49.53.37.31.55.47.38.3.56.46.32.36.5.53.38.3.55.47.37.31.54.48.33.36.5.52.32.37.5.53.4.28.58.44.37.31.55.48.36.32.54.48.32.37.5.53.37.31.55.48.35.33.53.5.4.28.57.45.3.38.48.55.35.34.52.5.37.31.55.47.38.3.56.47.33.35.51.52.31.37.49.54.37.31.55.47.36.32.53.49.32.37.49.53.38.3.56.46.35.33.53.5.39.29.57.45.34.34.51.51.35.34.52.5.29.39.47.56.33.36.5.52.41.27.59.43.36.33.53.49.33.35.51.52.38.3.56.46.32.36.5.53.33.35.51.52.31.37.49.54.46.22.63.39.28.41.46.57.37.31.55.47.32.36.5.53.37.31.55.48.31.38.48.54.45.23.63.39c.18.17.29.39.46.56s.3.38.46.55.42.27.57.45.32.36.46.55.23.43.36.63.24.41.36.62.34.36.45.57.13.47.22.69.12.46.19.69.25.43.3.66.02.48.05.72.05.47.07.71.07.47.07.72-.04.47-.06.72c-.02.24-.06.48-.07.72s.03.49.02.73-.04.48-.05.73-.09.48-.1.72.04.49.03.73.04.49.04.73-.01.48-.02.73-.04.48-.05.73-.05.48-.06.73-.05.48-.05.73.05.49.04.73.03.49.02.73,0,.49,0,.73-.1.48-.11.73.08.49.08.73-.05.48-.05.73,0,.49,0,.73-.05.48-.05.73.01.49.01.73.05.49.05.73-.06.49-.06.73.02.49.02.73-.01.49-.01.73.02.49.02.73.04.49.04.73-.14.49-.14.73.13.49.13.73-.02.49-.02.73-.04.49-.04.73-.03.49-.03.73.04.49.03.73.01.49.01.73-.03.48-.04.73c0,.25-.07.47-.11.7-.04.24-.02.49-.11.7-.09.23-.22.43-.35.62-.14.2-.29.39-.46.55s-.42.23-.63.33-.42.22-.65.27-.47.06-.71.04c-.23-.01-.44-.15-.67-.22-.22-.06-.45-.08-.67-.2-.2-.1-.4-.23-.6-.38-.19-.14-.34-.35-.53-.49s-.44-.22-.63-.36-.33-.36-.53-.5-.41-.26-.6-.4-.41-.26-.6-.4-.43-.23-.62-.37-.38-.29-.58-.43-.4-.26-.6-.41-.36-.32-.56-.46-.32-.38-.51-.52-.48-.17-.67-.31-.3-.41-.49-.55-.45-.2-.64-.34-.36-.32-.55-.47-.37-.31-.56-.46-.41-.25-.61-.39-.36-.32-.55-.46-.37-.31-.56-.46-.39-.28-.58-.42-.36-.31-.55-.46-.38-.3-.57-.44-.38-.29-.57-.44-.41-.25-.6-.4-.37-.3-.56-.45-.34-.34-.53-.49-.41-.25-.6-.41-.31-.38-.5-.53-.45-.21-.63-.37-.35-.34-.53-.49-.33-.36-.51-.51-.46-.2-.64-.36-.34-.34-.53-.5-.32-.37-.5-.52-.44-.23-.62-.39-.31-.37-.49-.53c-.18-.16-.34-.34-.52-.5s-.32-.36-.49-.52-.42-.25-.59-.41-.31-.37-.48-.53-.4-.27-.57-.44-.29-.39-.46-.56-.36-.32-.53-.48-.36-.32-.52-.49-.37-.3-.54-.47-.32-.36-.48-.53-.31-.37-.48-.54-.27-.41-.43-.58-.42-.26-.58-.43-.28-.39-.45-.56-.38-.29-.55-.47-.34-.34-.5-.51-.26-.42-.42-.59-.34-.34-.5-.51-.33-.34-.5-.51-.35-.33-.51-.5-.36-.32-.52-.49-.3-.37-.47-.54-.36-.31-.53-.48-.28-.4-.45-.57-.41-.27-.58-.43-.34-.34-.51-.5-.32-.35-.5-.52-.34-.33-.52-.5-.38-.29-.56-.45-.34-.33-.52-.49-.35-.32-.53-.48-.34-.34-.52-.49-.36-.32-.54-.47-.4-.27-.58-.42-.35-.32-.54-.47-.36-.32-.55-.46-.4-.26-.59-.4-.37-.3-.57-.44-.48-.14-.68-.28c-.2-.14-.35-.35-.53-.49-.2-.15-.39-.29-.56-.43-.19-.16-.37-.32-.53-.47-.18-.17-.28-.39-.43-.56-.16-.18-.31-.36-.45-.54-.15-.2-.38-.33-.49-.53-.12-.21-.13-.47-.22-.68s-.28-.4-.36-.62-.07-.47-.12-.7-.17-.45-.2-.69-.03-.47-.05-.71.04-.47.04-.71,0-.47,0-.71-.07-.47-.07-.71.03-.47.04-.7-.01-.47-.02-.71c0-.24.11-.48.11-.71s-.11-.47-.11-.71.11-.47.12-.71-.11-.48-.11-.71.06-.47.06-.71-.05-.48-.04-.71.01-.47.02-.71-.02-.48-.01-.71.15-.47.16-.71-.03-.48-.03-.71.04-.47.05-.71-.08-.48-.07-.72.16-.47.17-.71-.1-.48-.09-.72.04-.47.05-.71.08-.47.09-.71-.01-.48,0-.71-.03-.48-.01-.71.15-.47.16-.71-.03-.48-.02-.71-.04-.48-.03-.71.12-.47.13-.71.05-.47.06-.71-.14-.48-.13-.72.07-.47.08-.71-.01-.48,0-.71.06-.47.07-.71,0-.48,0-.71.05-.47.06-.71.09-.47.09-.71c0-.24-.1-.48-.09-.71s.03-.48.02-.71-.07-.47-.09-.71-.07-.47-.12-.7-.02-.49-.1-.71-.24-.41-.37-.61-.25-.4-.43-.56c-.17-.15-.38-.24-.61-.36-.2-.1-.41-.16-.66-.23-.21-.06-.42-.19-.68-.22-.22-.03-.46.04-.72.03-.26,0-.51-.14-.75-.14-.27,0-.52.07-.75.09-.27.02-.52.05-.75.1-.26.05-.48.19-.69.28-.24.1-.44.22-.63.36s-.39.29-.54.5c-.14.19-.26.4-.36.64-.09.21-.21.44-.27.7-.06.23-.05.48-.1.74-.04.23-.14.47-.16.73-.02.24-.04.49-.06.75-.02.24,0,.49-.01.75,0,.24.03.49.02.73s-.04.48-.05.73,0,.49,0,.73,0,.49,0,.73-.04.48-.06.73-.04.48-.05.73,0,.49-.02.73-.02.48-.03.73-.12.48-.13.72.07.49.05.73-.08.48-.09.72-.07.48-.09.72.04.49.03.73-.06.48-.07.73.03.49.02.73-.04.48-.05.73-.05.48-.06.73-.09.48-.1.73.06.49.05.73.07.49.07.73-.16.48-.16.73.04.49.04.73.03.49.03.73.05.48.05.73-.09.49-.09.73.06.48.07.73-.04.49-.03.73.06.48.07.73,0,.49,0,.73.02.48.04.73c.02.24-.02.48-.01.71s-.01.48-.02.71.02.48,0,.71-.01.48-.04.71.02.49-.02.72-.15.46-.21.69-.06.48-.13.7-.21.43-.29.66-.21.43-.3.65-.14.46-.24.67-.26.4-.37.61-.24.41-.36.61-.24.41-.37.61-.32.36-.46.55-.22.42-.37.61-.34.33-.49.52-.24.41-.4.59-.26.4-.42.58-.33.34-.5.51-.41.26-.58.43-.34.33-.51.5c-.17.17-.24.44-.41.61s-.32.36-.49.53-.42.27-.59.44-.34.34-.51.52-.32.36-.49.53-.28.4-.45.57-.41.27-.58.44-.34.35-.51.52-.36.32-.53.49-.35.33-.53.5-.32.36-.49.53-.33.35-.5.52-.33.35-.51.52-.3.39-.47.56-.32.36-.49.53-.38.3-.55.47-.38.31-.55.48-.37.31-.54.48-.26.43-.43.6-.43.26-.6.43-.33.35-.5.52-.34.35-.51.52-.33.35-.5.52-.34.35-.51.52-.33.35-.5.52-.3.39-.47.56-.43.26-.6.43-.35.34-.52.51-.25.43-.42.6-.34.34-.51.51-.42.27-.59.44-.32.36-.49.53-.35.33-.52.5-.28.41-.45.58-.35.34-.52.51-.4.28-.58.45-.3.38-.47.55-.32.36-.49.53-.39.3-.56.47-.38.3-.55.47-.3.39-.47.56-.35.33-.53.5-.37.32-.54.49-.35.33-.52.5-.35.33-.52.5-.29.39-.47.56-.31.37-.48.54-.4.28-.57.45-.38.3-.55.47-.28.41-.45.58-.33.36-.5.53-.4.29-.57.46-.28.41-.45.58-.38.31-.55.48-.33.35-.5.52-.36.33-.53.5-.35.34-.52.51-.35.33-.52.5-.36.32-.53.49-.28.4-.45.57-.32.36-.49.53c-.18.18-.38.36-.57.54s-.43.31-.62.48-.4.33-.61.49-.41.33-.62.47c-.2.13-.4.26-.6.39s-.46.17-.66.29-.4.26-.61.38-.4.26-.61.38-.42.24-.62.36-.36.33-.57.45-.45.19-.65.31-.43.21-.64.33-.41.35-.62.47c-.08-.22-.12-.52-.2-.74s-.27-.4-.36-.62-.14-.46-.23-.68-.23-.42-.32-.64-.14-.46-.23-.68-.08-.48-.17-.7-.15-.45-.22-.68-.26-.42-.32-.65-.05-.48-.1-.71-.03-.47-.05-.71c-.02-.24-.02-.48-.04-.72s-.09-.47-.11-.71-.03-.48-.05-.72-.09-.47-.11-.71-.05-.48-.07-.72-.05-.48-.07-.72-.07-.47-.09-.71-.04-.48-.06-.72,0-.48-.03-.72-.01-.48-.03-.72.03-.48.01-.72-.07-.48-.09-.71-.15-.47-.17-.71,0-.48,0-.72-.01-.48-.03-.72.03-.48.01-.72-.11-.47-.13-.71.04-.48.03-.72-.15-.47-.17-.71.1-.49.08-.73-.14-.47-.16-.71.06-.48.05-.72-.11-.47-.12-.71,0-.48,0-.72.07-.48.06-.72-.08-.48-.1-.72.02-.48,0-.72-.05-.48-.06-.72-.12-.47-.13-.71.05-.48.04-.72,0-.48,0-.72-.06-.48-.07-.72-.03-.48-.04-.72c0-.23.06-.46.09-.7.03-.23.02-.47.09-.7s.1-.47.19-.69.21-.43.32-.64.22-.43.35-.62.37-.32.52-.5c.15-.19.32-.35.48-.51.17-.17.27-.41.44-.58s.31-.37.48-.54.34-.34.51-.51.41-.27.59-.44.38-.31.55-.48.33-.35.5-.52.29-.39.46-.56.3-.38.47-.55.41-.27.58-.44.33-.35.5-.52.31-.37.48-.54.43-.26.6-.43.27-.42.44-.59.37-.31.54-.48.32-.37.49-.54.4-.29.57-.46.34-.34.51-.51.3-.38.47-.55.32-.37.49-.54.37-.31.54-.48.38-.3.55-.47.26-.42.44-.59.43-.25.6-.42.34-.34.51-.51.34-.34.51-.51.31-.37.48-.54.31-.37.48-.54.41-.27.58-.44.33-.35.5-.52.37-.32.54-.49.26-.42.44-.59.36-.32.53-.49.41-.27.58-.44.33-.35.5-.52.3-.38.48-.55.31-.37.48-.54.45-.24.62-.4.23-.45.41-.62.34-.34.51-.51.36-.32.54-.49.36-.32.53-.49.33-.36.5-.52.41-.27.58-.44.36-.32.53-.49.33-.36.5-.53.29-.4.46-.57.37-.31.54-.48.31-.37.48-.54.43-.25.6-.42.3-.38.47-.55.33-.36.5-.53.38-.31.55-.47.33-.36.5-.53.34-.35.51-.52.32-.37.49-.54.42-.27.59-.43.28-.4.46-.57.38-.3.55-.47.32-.37.49-.53.3-.38.47-.55.35-.34.52-.51.42-.26.59-.43.33-.35.5-.52.34-.34.51-.51.34-.34.51-.51.38-.3.55-.47.37-.32.54-.49.34-.34.51-.51.24-.44.42-.61.4-.28.58-.45.29-.39.46-.56.35-.34.52-.51.42-.27.59-.43.28-.4.45-.57.43-.25.6-.42.28-.4.45-.57.4-.28.58-.45.35-.33.52-.5.32-.36.49-.53c.16-.16.24-.41.41-.57s.35-.3.52-.45.35-.3.52-.45.42-.22.59-.37.23-.42.39-.58.35-.3.51-.46.29-.36.43-.53.28-.35.42-.54c.15-.2.29-.38.42-.58s.37-.34.48-.55.21-.44.31-.66.08-.49.15-.71.22-.44.26-.67.09-.48.09-.72-.06-.48-.1-.72-.1-.47-.19-.7c-.08-.22-.17-.45-.29-.66-.11-.2-.26-.4-.41-.59-.14-.18-.38-.29-.55-.47-.16-.17-.29-.37-.48-.53-.18-.16-.38-.29-.57-.45s-.31-.37-.5-.53-.4-.27-.58-.43-.3-.39-.48-.55-.38-.29-.56-.45-.43-.23-.62-.39-.31-.38-.49-.53-.33-.36-.51-.52-.38-.3-.56-.46-.35-.33-.53-.49-.46-.2-.64-.36-.3-.39-.48-.55-.39-.29-.57-.45-.41-.26-.59-.42-.34-.34-.52-.5-.38-.29-.56-.45-.31-.38-.49-.54-.39-.29-.57-.44-.34-.34-.52-.5-.34-.34-.52-.5-.44-.23-.62-.39-.32-.36-.51-.52-.35-.33-.53-.49-.36-.32-.54-.48-.37-.3-.56-.46-.33-.35-.52-.51-.39-.29-.57-.44-.33-.36-.51-.51-.4-.28-.58-.44-.36-.32-.54-.48-.37-.31-.55-.47-.37-.31-.55-.47-.32-.36-.5-.52-.35-.34-.53-.49-.41-.26-.59-.42-.41-.26-.59-.42-.26-.43-.44-.59-.37-.31-.55-.47-.45-.22-.63-.38-.29-.39-.47-.55-.34-.34-.52-.5c-.18-.16-.39-.27-.57-.43s-.39-.28-.57-.44-.25-.43-.43-.59-.37-.31-.54-.47-.39-.29-.56-.45-.38-.29-.56-.45-.28-.4-.45-.56-.36-.31-.53-.48-.35-.33-.52-.49-.34-.33-.52-.5-.4-.28-.57-.44-.35-.33-.52-.49-.25-.43-.42-.6-.44-.23-.62-.39-.27-.41-.44-.57-.39-.29-.56-.45-.32-.36-.49-.52-.31-.37-.48-.53-.39-.28-.57-.45-.41-.26-.58-.43-.25-.43-.43-.59-.38-.29-.56-.45-.33-.35-.51-.51-.43-.24-.61-.39-.27-.41-.45-.57-.38-.3-.56-.45-.36-.31-.54-.47-.34-.33-.52-.49-.37-.3-.55-.46-.4-.27-.58-.42-.39-.27-.58-.42-.32-.37-.5-.52-.36-.31-.55-.46-.45-.2-.64-.34c-.19-.15-.39-.29-.57-.44s-.32-.37-.49-.53-.33-.35-.5-.51-.33-.35-.49-.52-.37-.32-.51-.51-.26-.41-.39-.6-.35-.35-.47-.55-.15-.47-.26-.68-.21-.43-.3-.65-.15-.45-.23-.67-.18-.44-.24-.67-.17-.45-.23-.68-.1-.46-.15-.7-.17-.46-.2-.69-.02-.48-.05-.72-.07-.47-.09-.71.11-.48.1-.72-.04-.47-.04-.71-.14-.47-.14-.71.14-.47.15-.71-.13-.48-.12-.72.02-.47.03-.71.18-.47.19-.71-.01-.48,0-.72c.01-.24-.05-.49-.04-.73s.05-.49.06-.73.07-.49.08-.73-.05-.49-.04-.73.08-.48.1-.73.05-.49.06-.73-.02-.49-.01-.73.06-.49.07-.73-.1-.49-.09-.74.09-.48.1-.73,0-.49,0-.73.05-.49.06-.73-.04-.49-.03-.73.07-.49.08-.73-.01-.49,0-.73.05-.49.06-.73.01-.49.02-.73.02-.49.02-.73.09-.49.1-.73-.09-.49-.08-.73.05-.49.06-.73.14-.48.15-.73-.07-.49-.07-.73.06-.49.07-.73-.01-.49,0-.73c0-.24-.02-.47-.03-.71s-.04-.47-.06-.71-.02-.47-.04-.71-.01-.47-.05-.71-.16-.45-.19-.69.01-.48-.03-.71-.18-.45-.21-.68-.04-.47-.08-.71-.06-.47-.1-.7-.1-.46-.13-.7-.06-.47-.08-.7-.05-.47-.07-.71c-.02-.25.07-.49.07-.72,0-.25-.03-.49,0-.71.03-.25.11-.48.16-.69.07-.25.07-.51.18-.7.13-.22.39-.3.57-.44s.36-.29.6-.34c.21-.04.45-.09.71-.05.21.03.42.18.66.26.2.07.4.2.62.32.2.1.4.21.61.35.2.13.46.18.66.31s.43.22.63.36.33.37.53.5.45.19.65.33.38.29.58.42.35.33.55.47.35.33.54.47.45.2.64.35.34.34.53.49.37.3.56.45.37.31.56.45.38.29.57.44.47.18.66.33.3.4.48.55.35.32.54.48.45.21.63.36.36.32.54.47.29.4.47.55.4.26.59.42.42.25.6.4c.18.16.27.42.45.58s.45.22.63.37.36.32.54.48.29.4.47.56.39.28.57.44.34.34.52.5.37.31.55.47.41.26.59.42.35.33.53.49.33.36.5.52.35.33.53.49.37.31.55.47.4.27.58.43.27.41.45.58.41.26.59.42.37.31.54.47.3.39.48.55.39.29.56.45.37.31.54.47.31.38.48.54.43.24.61.4.28.4.46.56.37.31.55.47.4.28.58.44.38.29.56.46.32.36.5.52.31.38.48.54.43.24.61.4.35.33.52.49.33.35.51.51.32.36.5.53.4.28.58.44.39.28.57.45.35.33.53.49c.18.16.31.38.49.54s.36.32.54.48.38.3.56.46.32.37.5.53.35.34.53.5.37.31.55.48.36.33.54.49.36.33.54.49.34.35.51.51.4.28.58.44.38.3.56.47.39.29.57.45.35.34.53.5.33.35.51.51.36.33.53.49.39.29.57.45.3.39.47.56.33.35.51.52.35.33.53.49.36.32.54.48.35.33.53.49.35.33.53.5.37.32.54.48.41.27.58.44.35.34.52.5.38.31.55.47.33.35.51.52.37.32.54.48.33.36.5.52.3.39.47.55c.18.17.39.33.54.55.14.21.22.46.33.7s.16.48.24.73.24.47.3.72.07.52.09.77c.03.26.05.52.04.77,0,.24-.11.47-.11.71s0,.48-.01.72.14.48.13.72,0,.48,0,.72-.16.47-.17.71.09.48.09.72-.12.47-.12.71.09.48.08.72.01.48,0,.72-.12.47-.12.71.08.48.07.72.02.48.02.72-.02.48-.03.71-.09.47-.1.71,0,.48,0,.72.06.48.05.72-.03.48-.03.71-.12.47-.13.71.02.48.02.72-.06.48-.06.71.07.48.06.72,0,.48-.02.72.03.48.02.72-.01.48-.02.71-.16.47-.16.71.1.48.09.72-.06.48-.07.71-.04.48-.04.71.05.48.04.72-.14.47-.14.71.13.48.12.72-.02.48-.03.71-.06.48-.07.71-.05.48-.06.71.06.48.05.72-.09.47-.1.71,0,.48,0,.72-.11.47-.12.71.11.48.11.72-.12.47-.13.71.03.48.02.72c0,.25.04.5.03.74s-.1.49-.11.74.03.49.02.75-.01.49-.03.74-.04.49-.06.74-.08.53-.09.78Z"/>
  <path class="b" d="M224.96,45.87c-.16.18-.29.38-.46.56s-.36.33-.52.51-.31.37-.47.55-.37.31-.53.49-.3.38-.46.56-.33.35-.49.53-.34.34-.5.52-.28.4-.44.58-.36.32-.52.5-.31.37-.47.55-.34.34-.5.52-.28.4-.44.58-.36.33-.52.51-.29.39-.45.57-.38.31-.54.49-.3.37-.47.55-.3.38-.46.56-.31.37-.47.55-.35.33-.51.51-.36.32-.52.5-.29.39-.45.57-.35.34-.51.51-.3.37-.47.55-.33.35-.49.53-.32.36-.48.54-.33.35-.5.52-.33.35-.49.53-.37.32-.53.49-.29.39-.46.56-.35.34-.51.51-.33.35-.49.53-.36.32-.53.5-.3.38-.47.55-.32.36-.49.53c-.17.17-.33.34-.5.51s-.36.31-.53.48-.32.35-.49.52-.35.32-.52.49-.34.34-.5.51-.3.38-.46.55-.37.31-.53.48-.33.35-.49.52-.29.38-.46.55-.37.31-.54.47-.36.32-.53.49-.34.33-.51.5-.28.39-.45.56-.38.3-.55.46-.33.34-.5.51-.36.31-.53.48-.3.38-.47.54-.34.33-.51.5-.37.3-.54.47-.3.38-.47.55-.36.31-.53.48-.35.32-.52.49-.29.38-.46.55-.38.3-.55.46-.31.37-.48.53-.34.33-.51.5-.33.34-.5.51-.39.29-.55.46-.33.34-.5.51-.33.35-.5.51-.32.35-.49.52-.34.33-.51.5-.29.38-.46.55-.39.28-.56.45-.3.37-.47.54-.33.35-.49.52-.36.31-.53.48-.31.36-.47.54-.36.32-.52.49c-.13.13-.16.39-.21.67-.03.21-.03.44-.02.69.01.23-.03.47.02.7s.12.47.19.68c.09.25.24.44.38.58.16.18.34.34.51.52s.32.36.49.54.3.38.47.56.33.36.49.53.37.32.53.49.3.38.47.56.38.3.55.48.33.35.5.52.33.36.49.53.35.34.52.51.31.38.48.55.31.37.48.54.37.32.54.49.33.36.5.53.32.36.49.54.37.31.54.49.36.32.53.49.3.39.47.56.37.31.54.49.31.37.48.54.33.36.5.53.36.33.53.5.32.37.49.54.35.34.52.51.34.34.51.51.32.36.49.54.35.33.52.51.37.32.54.49.34.35.5.52c.17.17.31.37.48.54s.33.35.5.53.35.34.52.51.32.36.49.54.31.38.48.55.37.32.54.49.31.38.47.55.36.33.53.5.29.4.45.57.33.35.5.53.4.29.56.47.31.38.47.55.31.37.48.55.35.34.51.52.33.36.49.53.37.32.53.5.32.37.48.54.33.36.49.53.29.39.46.57.35.34.51.52.37.31.54.49.31.37.47.55.35.34.51.51.29.4.45.57.36.33.52.51.29.39.46.57.37.31.54.49.33.36.49.54.28.4.44.58.34.34.5.52c.16.18.35.34.51.53s.29.39.45.58.35.34.51.53.33.36.48.55.27.41.42.6.28.4.42.6.29.39.44.58.35.35.49.55.29.39.43.59.28.4.42.6.25.42.39.62c.14.2.27.39.39.59.13.21.24.42.33.62.1.23.24.43.29.65.06.25.06.49.05.71-.02.24-.1.46-.22.66-.11.18-.26.37-.48.51-.18.11-.41.18-.66.26-.2.06-.42.15-.68.19-.22.03-.45.03-.71.04-.24.01-.48-.04-.72-.03s-.48.06-.72.07-.48,0-.72,0-.48.05-.72.06-.48,0-.72,0-.48.06-.72.06-.48-.03-.72-.02-.48,0-.72,0-.48.07-.72.07-.48-.02-.72-.02-.48.03-.72.03-.48-.01-.72,0-.48.06-.72.06-.48-.06-.72-.06-.48.03-.72.03-.48,0-.72,0-.48.02-.72.02-.48,0-.72,0-.48-.06-.72-.06-.48-.02-.72-.02-.48.03-.72.02c-.24,0-.48-.03-.72-.03s-.48,0-.72-.01-.48,0-.72-.02-.48-.07-.72-.08-.48.02-.72,0-.48-.04-.72-.05-.48-.04-.72-.05-.48-.04-.72-.05-.48.06-.72.05-.48-.09-.72-.1-.48.03-.72.01-.48-.04-.72-.05-.48-.03-.72-.05-.48-.06-.72-.07-.48.01-.72,0-.48-.06-.72-.07-.48-.05-.72-.07-.48,0-.72-.01-.47-.11-.71-.12-.48,0-.72-.01-.48-.03-.72-.05-.48-.03-.72-.05-.48-.08-.71-.1-.48.02-.72,0-.47-.12-.71-.15c-.23-.02-.47-.02-.71-.07s-.45-.13-.68-.21-.46-.14-.68-.23-.43-.2-.64-.32-.38-.3-.58-.43-.4-.26-.59-.4-.37-.3-.54-.46c-.18-.16-.39-.28-.56-.45s-.3-.38-.47-.55-.4-.27-.57-.44-.3-.38-.48-.54-.37-.31-.54-.47-.35-.32-.53-.49-.34-.34-.51-.5-.36-.31-.54-.48-.36-.32-.53-.48-.32-.36-.49-.52-.35-.32-.53-.49-.36-.31-.53-.48-.37-.31-.54-.47-.34-.34-.51-.5-.32-.36-.49-.52-.38-.29-.56-.46-.31-.37-.49-.53-.35-.32-.53-.49-.31-.36-.49-.53-.4-.27-.57-.44-.31-.36-.49-.53-.35-.33-.52-.49-.37-.3-.55-.47-.35-.33-.52-.49-.31-.36-.49-.53-.36-.31-.54-.48-.32-.36-.49-.52-.38-.29-.55-.46-.32-.36-.49-.52-.38-.29-.55-.46-.3-.38-.47-.54-.38-.29-.56-.45-.34-.33-.52-.5-.35-.32-.53-.49-.3-.38-.47-.54-.37-.31-.54-.47-.38-.3-.55-.46-.33-.35-.5-.51-.36-.32-.54-.48c-.18-.16-.37-.32-.54-.48s-.32-.37-.5-.53-.39-.29-.57-.45-.32-.36-.5-.53-.4-.28-.57-.45-.32-.37-.5-.53-.38-.31-.55-.47-.38-.31-.55-.47-.36-.33-.54-.49-.34-.34-.52-.51-.37-.31-.55-.47-.35-.34-.53-.5-.37-.31-.55-.47-.34-.35-.52-.51-.36-.32-.54-.48-.36-.33-.54-.49-.4-.28-.58-.44-.37-.31-.55-.48-.36-.33-.54-.49-.33-.35-.51-.51-.39-.29-.57-.45-.31-.38-.49-.54-.38-.3-.56-.46-.36-.33-.54-.49-.37-.31-.55-.47-.35-.34-.53-.5-.35-.33-.53-.5-.39-.29-.57-.45-.34-.35-.52-.51-.37-.32-.54-.48-.33-.35-.51-.52c-.17-.16-.36-.3-.51-.48s-.32-.34-.46-.54-.26-.4-.37-.6-.18-.44-.27-.65-.16-.44-.23-.66-.14-.45-.19-.68-.1-.46-.13-.69-.04-.47-.05-.7.01-.47.02-.7.03-.47.06-.7.04-.47.08-.7.08-.47.14-.69.15-.45.23-.67.19-.43.28-.65.15-.45.26-.66.22-.42.34-.62.28-.38.42-.57.25-.4.41-.58.37-.3.54-.46c.17-.17.32-.36.49-.53s.32-.36.49-.53.37-.32.54-.49.36-.33.53-.5.3-.38.47-.55.36-.32.53-.49.31-.37.48-.55.36-.33.52-.5.35-.33.52-.51.29-.39.46-.56.34-.34.51-.51.33-.35.49-.53.36-.33.52-.5.31-.37.48-.55.39-.3.55-.47.28-.4.45-.57.38-.31.54-.48.3-.38.46-.56.35-.34.51-.51.3-.38.46-.56.35-.34.51-.51.36-.33.52-.5.34-.34.5-.52.3-.38.47-.55.35-.33.52-.51.32-.36.49-.53.3-.38.47-.56.36-.32.53-.5.34-.34.51-.52.29-.39.46-.56.37-.32.53-.49.34-.34.51-.51.3-.38.47-.55.34-.35.51-.52c.17-.17.38-.3.55-.47s.3-.38.47-.55.33-.35.5-.52.34-.34.51-.51.34-.34.51-.51.37-.31.54-.48.32-.36.49-.53.35-.33.52-.5.3-.38.47-.55.37-.31.54-.48.36-.32.53-.49.32-.36.49-.53.35-.33.52-.5.35-.33.52-.5.3-.38.47-.55.38-.3.55-.47.33-.35.5-.52.33-.36.5-.52.33-.36.5-.52.37-.31.54-.48.36-.32.53-.49.31-.37.48-.54.35-.33.52-.5.32-.36.49-.53.36-.32.53-.49.37-.31.54-.48.33-.35.5-.52.37-.31.54-.48.31-.37.49-.54.32-.36.49-.53.39-.29.56-.46.35-.34.52-.5.35-.33.53-.49.33-.35.5-.52.32-.36.5-.53.34-.34.51-.51.38-.29.56-.46.33-.35.51-.51c.17-.17.39-.28.63-.4.22-.11.45-.21.7-.28s.49-.14.74-.17c.26-.03.52-.02.76,0,.24.01.48,0,.72.02s.48.01.72.02.48.04.72.06.48.05.72.06.48-.01.72,0,.48.01.72.02.48.02.72.03.48.05.72.06.48.01.72.02.48.03.72.04.48,0,.72,0,.48.06.71.08.48.03.72.04.48,0,.72.02.48,0,.72.02.48.04.72.05.48.06.71.07.48,0,.72.02.48.02.72.03.48.05.71.07.48,0,.72.02.48.03.72.04.48,0,.72,0,.48.04.72.05.48.03.72.04.48.07.71.09.48.04.72.06.48-.02.72,0,.48.02.72.04.48.04.72.06.48,0,.72.02.48.05.71.06.48.04.72.06.48.06.71.07.48-.05.72-.04.47.08.71.1.48.01.72.03.48.05.71.07.48.02.72.03.48.06.71.08.48-.05.72-.03.47.07.71.09.48.06.71.07.48-.03.72-.02.48.03.72.04c.23.02.46.08.7.12s.46.1.69.16.47.06.7.13.44.18.66.26.44.18.66.26.47.09.69.17.43.18.66.25c.12.24.24.49.36.73s.24.49.36.73Z"/>
  <path class="b" d="M116.38,85.3c-.16.17-.33.33-.49.51s-.33.34-.49.51-.34.33-.5.51-.29.38-.45.55-.33.34-.5.51-.32.35-.48.53-.36.32-.52.49-.33.34-.5.52-.3.37-.47.54-.32.35-.49.53-.31.36-.47.54-.38.3-.54.48-.29.39-.45.56-.35.33-.52.5-.3.38-.47.55-.33.35-.5.52c-.17.17-.37.3-.54.48s-.29.38-.46.55-.37.31-.54.48-.34.34-.5.51-.32.36-.48.53-.33.34-.5.52-.28.39-.45.57-.33.34-.5.52-.37.31-.53.49-.34.34-.5.51-.35.33-.51.5-.33.34-.5.52-.3.38-.47.55-.32.36-.48.53-.36.32-.53.49-.29.38-.46.56-.33.34-.5.52-.37.3-.54.48-.33.34-.5.52-.34.33-.51.51-.3.38-.46.55-.33.34-.5.52-.33.34-.5.52-.31.37-.47.54-.33.34-.5.52-.37.31-.54.48-.31.36-.48.54-.34.34-.51.51-.3.37-.47.55-.36.32-.53.49-.31.36-.48.54-.38.3-.54.48-.31.37-.47.54-.34.34-.5.51-.35.33-.51.5-.29.39-.45.56-.37.31-.53.48-.32.36-.48.53-.35.33-.52.5-.29.39-.45.56-.36.32-.53.49-.3.38-.46.55-.38.3-.55.47-.31.36-.48.54-.31.37-.47.54-.31.36-.48.54-.36.32-.52.49-.36.31-.53.49-.3.38-.46.55-.35.33-.52.5-.31.37-.47.54-.33.34-.5.52-.32.36-.48.53-.34.34-.5.51c-.17.18-.33.36-.49.55s-.36.34-.51.53-.26.42-.41.61-.31.38-.46.57-.29.4-.43.59-.32.37-.47.57-.26.42-.41.61-.29.39-.45.58c-.15.18-.3.36-.45.53s-.35.31-.51.47-.33.33-.51.47-.38.26-.58.38-.4.22-.61.31-.41.21-.64.26-.45.04-.69.06c-.22.01-.45.03-.69,0-.22-.02-.46,0-.7-.04-.22-.04-.43-.14-.67-.21-.22-.06-.45-.14-.68-.18s-.46-.06-.7-.07-.46.06-.7.07-.47-.04-.7-.02-.46.05-.69.08-.47.02-.7.04-.46.11-.69.13-.47.04-.7.06-.47-.01-.7,0-.47.07-.7.06c-.24,0-.48-.05-.71-.06s-.48-.03-.72-.04-.48.05-.72.04-.48-.07-.71-.08-.48.03-.72.02-.48-.02-.72-.03-.48,0-.72-.02-.47-.09-.71-.09-.48,0-.72-.02-.48,0-.72-.01-.48,0-.72-.01-.48-.03-.72-.04-.48.04-.72.03-.47-.1-.71-.11-.48.02-.72.01-.48,0-.72-.02-.48-.06-.71-.07-.48.01-.72,0-.48-.05-.71-.06-.48.04-.72.03-.48,0-.72-.02-.47-.09-.71-.1-.48-.02-.72-.03-.48.01-.72,0-.48,0-.72-.02-.48-.03-.72-.05-.47-.07-.71-.08-.48-.03-.71-.05-.48.02-.72,0-.47-.07-.71-.09-.48.04-.72.03-.48-.03-.72-.04-.48-.04-.71-.05-.48-.01-.72-.03c-.22-.01-.44-.1-.66-.17s-.4-.18-.61-.28-.42-.17-.61-.29-.38-.25-.57-.37-.37-.26-.56-.38-.42-.19-.62-.29c.11-.21.19-.45.3-.67s.26-.42.37-.64.17-.46.29-.68.26-.41.39-.62.28-.4.43-.59c.15-.19.27-.39.42-.58s.32-.36.47-.54.29-.38.45-.56.3-.38.45-.56.33-.35.48-.53.3-.38.45-.56.28-.39.44-.57.31-.36.47-.54.34-.34.5-.52.32-.35.48-.53.31-.37.47-.54.34-.34.5-.52.35-.33.52-.5.29-.38.46-.56.36-.32.53-.49.31-.37.47-.54.38-.3.55-.47.34-.34.51-.51.28-.4.45-.57.36-.31.54-.48.36-.31.53-.48.33-.35.5-.51.35-.33.52-.49.31-.37.49-.53.36-.32.54-.48.35-.32.53-.49.39-.29.56-.45.34-.34.51-.5.31-.37.49-.53.37-.3.55-.46.34-.34.51-.5.39-.28.57-.44.33-.35.51-.51.39-.28.57-.44.32-.37.49-.52.36-.32.54-.48.4-.27.58-.43.35-.33.53-.49.34-.34.52-.49.39-.29.57-.44.33-.35.51-.51.35-.33.53-.49.39-.28.57-.44.38-.29.56-.45.36-.31.54-.47.32-.37.5-.52.36-.32.54-.47.37-.31.55-.47.39-.28.57-.44.36-.32.54-.48.36-.32.54-.48.32-.36.5-.52.37-.3.55-.46c.18-.16.38-.31.56-.48s.34-.35.52-.52.38-.31.55-.49.32-.37.49-.54.36-.33.53-.51.38-.31.55-.49.31-.38.48-.56.35-.34.52-.52.31-.38.47-.56.34-.35.5-.53.3-.39.46-.57.35-.34.52-.52.34-.35.5-.54.28-.4.44-.59.35-.35.51-.53.31-.38.47-.56.34-.35.5-.54.29-.4.45-.58.38-.32.55-.5.31-.39.48-.57c-.17-.17-.34-.34-.51-.52s-.36-.33-.53-.5-.35-.34-.52-.51-.31-.38-.48-.55-.33-.35-.5-.52-.37-.32-.54-.49-.33-.35-.5-.53-.35-.34-.52-.51-.34-.34-.51-.51-.3-.38-.47-.55-.37-.32-.53-.49-.33-.36-.5-.53-.32-.36-.49-.53-.33-.35-.5-.53-.4-.29-.57-.46-.29-.39-.46-.56-.38-.31-.55-.48-.33-.35-.5-.52-.34-.35-.51-.52-.32-.36-.49-.54-.37-.31-.54-.48-.32-.36-.49-.53-.33-.35-.5-.53-.37-.31-.54-.49-.29-.39-.46-.56-.37-.31-.54-.48-.34-.34-.51-.51-.35-.33-.52-.51-.31-.37-.48-.54-.38-.3-.55-.47-.28-.4-.45-.57-.37-.31-.54-.48-.33-.35-.5-.52-.36-.32-.53-.49-.34-.34-.52-.51-.29-.39-.46-.56-.35-.33-.52-.5-.34-.34-.51-.51-.38-.3-.55-.47-.29-.4-.46-.57c-.17-.17-.39-.29-.56-.45s-.29-.38-.46-.55-.36-.31-.53-.48-.34-.33-.52-.5-.33-.35-.5-.51-.36-.32-.53-.49-.35-.32-.53-.49-.32-.36-.49-.52-.35-.32-.52-.49-.36-.32-.53-.48-.36-.31-.53-.48-.34-.34-.51-.5-.32-.36-.49-.52-.38-.29-.55-.46-.31-.36-.48-.53-.35-.32-.53-.49-.31-.36-.49-.53-.4-.27-.57-.44-.31-.36-.49-.53-.35-.33-.52-.49-.37-.3-.54-.47-.35-.33-.52-.49-.31-.36-.48-.53-.36-.31-.53-.48-.32-.36-.49-.52-.38-.3-.55-.46-.32-.36-.49-.52-.38-.3-.55-.46-.29-.38-.46-.55-.38-.3-.55-.46-.34-.34-.51-.51c-.16-.16-.33-.33-.49-.5s-.25-.4-.39-.59-.3-.36-.43-.56-.28-.38-.4-.58-.19-.43-.29-.64-.2-.43-.27-.65c-.08-.23-.15-.45-.19-.67-.04-.24-.01-.47-.01-.69,0-.24-.02-.48.04-.69.06-.23.21-.42.34-.6s.26-.38.46-.52c.18-.12.41-.17.65-.25.2-.07.42-.14.67-.17.21-.03.44-.06.69-.06.24,0,.48.01.72.02s.48.04.72.04.48,0,.72,0,.48.03.72.03.48,0,.72,0,.48.04.72.04.48,0,.72,0,.48.01.72.02.48-.05.72-.04.48,0,.72,0,.48.01.72.02.48.05.72.05.48-.03.72-.03.48.08.72.08.48-.03.72-.02.48.01.72.02.48,0,.72,0,.48.03.72.03.48.02.72.03.48-.04.72-.04.48.04.72.05.48,0,.72,0,.48.05.72.05.48-.02.72-.02.48-.02.72-.02.48.01.72.02.48.05.72.06.48.02.72.02.48,0,.72,0,.48,0,.72,0,.48.02.72.02.48.03.72.04.48.02.72.03.48,0,.72,0,.48,0,.72,0,.48.05.72.05.48.05.72.06.48-.02.72-.01.48.01.72.02.48.06.72.07.48-.02.72,0,.47.1.71.11.48,0,.72,0c.23.01.47.02.71.07.23.05.45.14.68.22s.43.18.65.28.45.15.66.26.4.26.6.39.42.23.61.37.37.31.55.46.35.32.52.49.39.29.54.47c.16.18.31.38.45.56.14.19.29.37.44.56s.26.4.41.59.31.36.46.55.23.42.38.61.34.34.49.52.24.41.39.6.33.34.48.53.28.39.43.57.33.34.48.53.28.38.43.57.27.39.43.57.3.37.45.56.33.34.49.52.28.38.44.56.32.36.47.54.34.33.5.51.28.38.44.56.31.36.46.54.36.32.51.5.28.38.44.56.31.36.47.54.35.32.51.5.32.35.48.53.28.39.44.57.36.32.52.49.33.34.49.52.32.35.49.52.33.34.49.52.29.38.46.55.35.32.51.49.32.36.48.52.37.3.53.47.3.37.47.54.32.36.48.52.36.31.53.48.33.34.5.51.33.34.5.51.38.29.55.45.31.37.48.53.35.32.53.48.36.31.54.47.36.31.54.47.32.35.5.51.33.34.51.5.39.28.56.44.35.33.52.48.38.29.56.45.34.33.52.49.34.34.52.49c.18.16.38.3.57.46s.35.34.53.5.4.28.58.44.39.29.57.45.33.36.52.52.37.32.55.47.36.32.55.48.38.3.57.45.39.29.58.45.38.3.56.46.33.36.52.51.38.3.57.46.35.33.54.49.38.3.57.46.39.29.57.45.36.33.55.49.39.3.57.45.38.3.57.46.36.33.55.48.36.33.55.49.4.28.58.44.38.3.57.46.38.31.57.46.36.33.55.49.38.3.57.46.38.32.56.47.4.29.59.45.34.35.54.51Z"/>
  <path class="b" d="M236.05,60.33c.18.16.36.3.54.46s.35.33.53.49.36.32.54.48.37.31.55.48.34.34.52.51.38.3.56.46.33.35.51.51.37.32.54.48.37.31.55.47.35.33.53.49.36.32.54.48.35.33.53.49.34.34.52.5.38.29.56.46.34.34.52.5.37.32.54.48.35.33.53.49.36.32.53.49.36.32.53.48.35.32.53.48.35.32.53.48.35.33.53.49.38.3.55.46.35.32.53.48.36.32.54.48.34.34.52.5.36.32.53.48.37.31.55.46.36.32.54.47.37.31.55.47.33.34.51.5.38.29.56.45.35.33.53.48.37.3.55.45.36.31.54.47.34.34.52.49.38.29.56.45.34.34.52.49.36.32.54.47c.19.17.39.32.56.48.19.17.37.35.53.51.18.18.38.34.54.51.17.19.33.39.47.58.15.21.27.43.39.63.13.22.23.45.31.67.09.24.14.47.18.71s.05.48.03.73-.04.48-.11.73c-.06.23-.14.46-.25.7-.1.21-.24.42-.37.64-.12.2-.23.42-.39.63-.14.19-.3.38-.46.58-.15.18-.33.34-.48.52s-.31.36-.46.54-.32.35-.47.53-.29.37-.45.55-.31.36-.47.53-.31.35-.47.53-.3.37-.46.54-.32.35-.47.53-.34.33-.5.51-.31.36-.47.54-.32.34-.48.52-.3.36-.46.54-.34.33-.5.51-.31.36-.47.53-.35.32-.51.5-.31.36-.47.53-.33.34-.49.52-.33.34-.5.51-.3.37-.46.54-.35.32-.51.5-.32.35-.48.52-.33.33-.5.51-.3.37-.46.54-.34.33-.5.5-.3.36-.47.54-.35.32-.52.49-.31.36-.47.53-.31.36-.47.53-.31.36-.47.53-.34.33-.5.51c-.18.19-.37.36-.55.55s-.34.39-.52.58-.37.36-.55.55-.34.39-.51.59-.34.39-.5.6c-.15.19-.3.39-.46.56-.17.18-.34.36-.5.52-.18.17-.36.34-.54.49-.19.16-.4.28-.59.41s-.39.29-.6.4-.44.21-.66.3-.46.17-.69.23-.47.08-.71.11-.48.06-.72.06-.48-.01-.72-.05-.47-.08-.71-.15-.45-.16-.68-.25-.44-.18-.66-.29-.41-.24-.62-.37-.4-.26-.6-.4-.4-.26-.59-.42-.35-.33-.53-.5-.35-.33-.52-.51c-.16-.17-.35-.32-.52-.49s-.31-.36-.48-.53-.32-.35-.49-.52-.33-.34-.5-.51-.36-.31-.53-.48-.31-.36-.48-.53-.34-.33-.51-.5-.32-.35-.49-.52-.36-.31-.53-.48-.34-.34-.51-.5-.32-.35-.49-.52-.36-.31-.54-.47-.33-.34-.5-.51-.34-.34-.51-.5-.37-.3-.54-.46-.32-.35-.5-.51-.36-.31-.54-.47-.35-.33-.52-.49-.35-.32-.53-.48-.32-.35-.5-.51-.35-.32-.53-.48-.36-.31-.53-.47-.36-.31-.54-.47-.35-.32-.53-.48-.38-.29-.55-.45c-.18-.16-.32-.35-.49-.51s-.36-.32-.52-.48-.33-.34-.49-.52-.29-.38-.44-.56-.31-.37-.44-.56-.25-.4-.37-.6-.27-.4-.37-.6-.22-.43-.3-.64-.13-.46-.2-.68-.13-.46-.17-.69-.09-.46-.11-.7-.03-.47-.03-.71.03-.47.07-.71.1-.46.16-.69.13-.45.21-.67.14-.45.24-.67.22-.41.34-.62.2-.43.32-.63.25-.39.39-.59.28-.38.43-.57.29-.37.45-.56c.16-.18.33-.35.49-.53s.33-.35.48-.53.3-.38.45-.56.32-.36.48-.54.33-.35.48-.53.3-.38.45-.56.3-.37.46-.55.34-.34.5-.52.3-.38.46-.56.33-.35.49-.53.32-.35.48-.53.31-.37.47-.55.33-.35.49-.53.31-.36.47-.54.32-.36.48-.54.33-.35.49-.53.31-.36.47-.54.3-.37.46-.55.32-.36.48-.54.33-.35.49-.52.32-.35.48-.53.31-.36.48-.54.33-.35.49-.53.34-.34.5-.52.3-.37.46-.55.34-.34.5-.52.31-.37.47-.54.35-.33.51-.51.32-.35.49-.53.29-.39.45-.56.34-.34.5-.52.34-.34.5-.52.32-.36.48-.54.33-.35.49-.53.31-.37.47-.55c.16-.17.36-.32.56-.45s.42-.24.63-.34.46-.16.68-.23c.24-.08.46-.17.67-.23.26-.08.48-.15.66-.23ZM242.95,84.99c0-.24-.03-.48-.05-.71s-.03-.48-.07-.71-.09-.47-.15-.7-.15-.46-.23-.67-.16-.45-.27-.66-.27-.39-.41-.58-.26-.4-.42-.57-.35-.32-.53-.47-.39-.27-.59-.39-.41-.23-.63-.32-.44-.16-.67-.23-.45-.12-.69-.16-.46-.1-.7-.11-.47.01-.71.02c-.25,0-.5,0-.73.02s-.49.08-.72.13-.48.11-.71.18-.46.17-.68.28-.44.23-.64.37-.4.29-.58.45-.35.34-.51.53-.3.38-.43.6-.21.44-.31.67-.18.45-.24.69-.11.47-.14.72-.08.48-.09.73c0,.25-.01.5,0,.74s.05.5.07.74.07.49.12.73.13.48.2.71.12.48.22.71.24.44.35.65.24.43.38.63.32.38.49.55.35.35.54.5.37.32.58.45.44.21.67.31.45.21.68.27.48.12.72.15.49.04.74.05c.24,0,.48,0,.71-.02s.47-.09.7-.13.47-.09.69-.16.46-.12.68-.21.44-.2.64-.32.41-.25.59-.39.36-.31.53-.48.29-.37.43-.56.25-.39.37-.61.23-.41.32-.63.13-.45.19-.68.11-.45.15-.69.1-.46.12-.7.03-.47.03-.71Z"/>
  <path class="b" d="M0,87.36c.15-.19.31-.37.46-.56s.28-.39.44-.58.3-.38.46-.57.31-.37.46-.56.31-.37.46-.56.3-.38.45-.57.32-.37.47-.55.29-.39.44-.57.33-.35.48-.54.28-.4.43-.58.31-.37.46-.55.3-.38.45-.57.31-.37.46-.56.29-.38.44-.57.31-.37.46-.56.31-.37.46-.55.31-.36.47-.55.3-.37.46-.56.29-.38.44-.57.31-.37.47-.55.3-.37.45-.56.29-.38.44-.57.32-.35.48-.54.28-.39.43-.58.33-.35.48-.53.29-.38.45-.56.29-.38.44-.56.31-.37.46-.55.3-.37.45-.56.31-.36.46-.55c.15-.18.33-.35.48-.53s.29-.38.44-.56.34-.34.5-.51.31-.36.48-.53.33-.34.5-.51.33-.34.49-.52.33-.34.49-.52.33-.34.49-.52.33-.35.49-.52.33-.35.49-.52.3-.37.45-.55.31-.36.46-.54.3-.37.44-.56c.16-.2.34-.38.51-.55.18-.19.36-.35.54-.51.2-.17.39-.32.59-.44.22-.13.44-.24.67-.32.24-.08.48-.15.72-.17s.49.03.74.07c.24.04.48.08.72.18.22.09.43.22.65.36.2.13.41.26.61.43.19.16.37.31.56.47s.35.34.54.5.39.3.57.45.35.34.53.5.37.32.55.48.38.31.56.47.37.32.55.48.39.29.58.45.37.32.55.48.35.34.53.5.36.33.54.49.36.33.54.49.36.33.55.49.38.31.56.47.37.32.55.48.35.34.53.51.38.3.56.47.36.33.54.49.34.35.52.51.36.33.54.49.35.33.53.5.38.31.56.47.36.33.54.49.36.33.54.49.37.32.55.48c.18.17.36.34.54.51s.34.36.52.53.37.33.54.51.35.35.52.53.36.34.54.51.33.37.5.55.35.35.52.53.32.38.49.56.35.35.52.53.33.36.5.55.33.37.49.55c.17.18.35.34.51.52.16.19.29.4.43.58.15.2.29.39.41.6.12.22.21.44.29.66s.16.46.18.7-.02.47-.07.72c-.04.22-.09.46-.2.69-.09.2-.24.4-.38.61-.12.19-.25.39-.42.59-.14.18-.29.37-.47.55-.16.17-.32.35-.48.52s-.34.33-.5.5-.34.33-.51.5-.3.36-.47.54-.33.34-.49.51-.31.36-.47.53-.32.35-.48.52-.31.36-.47.53-.32.35-.48.53-.31.35-.47.53-.34.34-.49.51-.29.37-.45.55-.32.35-.48.53-.31.36-.47.54-.33.34-.48.52-.29.37-.45.55-.3.36-.46.54-.31.36-.46.54-.33.34-.48.52-.3.36-.46.54-.32.35-.47.53-.31.36-.46.54-.29.38-.44.56-.33.34-.48.52-.3.36-.46.55-.28.38-.44.56-.33.34-.48.52-.32.35-.47.53-.31.36-.46.54-.28.39-.43.57-.33.34-.49.52-.3.36-.46.54-.32.35-.48.52-.29.38-.44.56-.31.35-.47.53c-.16.19-.35.34-.52.5s-.35.34-.54.48-.42.25-.63.36-.44.2-.66.27-.45.17-.69.22-.48.04-.72.05-.48.02-.72,0-.47-.07-.71-.13-.46-.12-.69-.21-.43-.21-.64-.32-.42-.22-.63-.35-.4-.25-.6-.4-.38-.29-.57-.45c-.18-.16-.36-.32-.54-.48s-.38-.29-.56-.45-.33-.35-.51-.51-.38-.3-.56-.46-.36-.31-.54-.47-.34-.34-.52-.49-.37-.3-.55-.46-.35-.33-.53-.49-.38-.29-.56-.45-.36-.31-.54-.47-.33-.35-.51-.51-.36-.32-.54-.48-.37-.3-.55-.46-.37-.31-.55-.47-.36-.32-.53-.48-.34-.34-.52-.5-.36-.32-.53-.48-.38-.3-.56-.46-.34-.34-.52-.5-.38-.29-.56-.45-.36-.32-.54-.48-.35-.33-.53-.49-.36-.31-.54-.47-.34-.34-.52-.5-.35-.33-.53-.49-.37-.3-.55-.46-.35-.33-.53-.49-.35-.33-.53-.49-.38-.3-.55-.46-.37-.31-.55-.47-.34-.34-.52-.51-.38-.3-.56-.46-.35-.34-.53-.5-.35-.33-.53-.49-.37-.31-.55-.47-.35-.33-.53-.5-.37-.32-.55-.48-.37-.32-.55-.48ZM23.84,78.7c-.24,0-.47,0-.71.02s-.47.09-.69.13-.46.11-.68.18-.44.16-.66.25-.43.2-.63.32-.39.26-.58.4-.37.29-.54.45-.31.35-.45.54-.31.36-.43.56-.2.43-.29.64-.18.43-.24.66-.1.46-.13.69-.05.46-.05.7c0,.24.03.47.06.7s.06.47.1.7.1.46.17.69.15.45.24.67.2.43.32.63.27.39.41.58.28.38.45.55.34.33.52.48.38.28.58.41.39.26.61.36.45.15.67.22.45.16.68.19.47.04.71.04c.25,0,.5-.03.74-.05s.5-.06.73-.11.48-.13.71-.2.47-.16.69-.27.46-.2.67-.33.39-.3.59-.45.39-.3.57-.48.33-.37.48-.56.3-.4.42-.61.24-.43.33-.66.18-.46.24-.7.11-.48.15-.73.05-.49.05-.74c0-.24,0-.48-.03-.71s-.1-.46-.16-.69-.12-.46-.21-.67-.19-.43-.3-.64-.21-.42-.35-.62-.28-.38-.43-.56-.33-.33-.51-.49-.36-.3-.55-.44-.4-.25-.6-.36-.4-.25-.62-.33-.45-.13-.68-.19-.45-.12-.69-.15-.47-.05-.7-.05Z"/>
  <path class="b" d="M129.76,29.04c-.22-.12-.45-.25-.68-.36s-.46-.22-.68-.34-.46-.23-.66-.37-.41-.3-.58-.49c-.16-.18-.33-.36-.49-.54s-.31-.37-.48-.55-.32-.36-.48-.54-.33-.36-.49-.54-.3-.38-.47-.56-.33-.36-.49-.54-.31-.37-.47-.56-.33-.36-.49-.54-.31-.37-.47-.56-.31-.37-.46-.56-.32-.36-.47-.55-.31-.38-.46-.57-.3-.38-.45-.57-.29-.39-.44-.58-.29-.39-.43-.58-.28-.4-.41-.6-.29-.39-.42-.59c-.12-.18-.2-.4-.26-.65-.06-.21-.12-.44-.15-.68-.02-.23-.02-.46-.01-.7s.02-.47.05-.7.08-.47.14-.69.12-.46.2-.68c.09-.23.2-.44.31-.63.12-.2.25-.41.38-.61s.26-.4.39-.6.26-.4.39-.6.25-.41.38-.61.27-.39.41-.59.27-.4.4-.59.26-.4.4-.6.29-.38.42-.58.26-.4.4-.6.3-.38.43-.57.27-.39.41-.59.27-.39.41-.59.28-.39.42-.58.28-.39.42-.59.28-.39.42-.58.29-.38.43-.57.26-.4.4-.6.29-.38.43-.58.27-.39.41-.59c.15-.21.31-.4.46-.58.17-.19.35-.37.52-.52.19-.17.39-.31.6-.43.22-.13.44-.23.67-.31s.48-.13.72-.15.48,0,.73.03.48.08.71.18c.22.08.44.2.66.33.2.12.4.26.6.42.18.15.36.32.54.51.17.17.33.34.5.51s.34.33.51.5.33.34.5.51.34.33.51.5.32.36.48.53.35.33.51.5.33.35.49.52.34.33.51.5.33.34.5.51.32.35.48.52.35.33.51.5.32.35.49.52.33.34.5.51.34.33.51.5.34.34.5.5.35.32.52.48.34.33.51.5c.18.18.34.36.5.54s.33.38.48.57.3.4.43.6.27.42.38.63.24.44.33.66.18.46.25.7.1.48.14.72.07.49.07.73-.02.49-.06.74-.11.48-.19.71-.16.46-.27.68-.23.43-.36.64-.26.41-.42.61c-.15.19-.32.37-.49.55-.17.18-.35.35-.52.52s-.34.35-.52.52-.36.34-.54.51-.37.32-.55.49-.36.34-.54.5-.37.32-.55.49-.36.33-.55.5-.38.31-.57.47-.37.33-.56.48-.39.3-.58.46-.37.32-.56.48-.38.31-.57.47-.39.31-.58.46-.37.33-.56.48-.39.3-.58.45-.38.31-.57.47-.39.3-.58.46-.37.33-.56.48c-.17.14-.37.24-.57.34-.19.09-.39.19-.61.26-.2.07-.42.11-.64.17s-.42.13-.64.19-.42.15-.63.23Z"/>
  <path class="b" d="M129.44,139.2c.21.1.42.2.64.29s.44.16.66.25.43.18.65.28.43.2.63.32.4.25.58.39c.18.15.37.3.55.45s.36.31.55.46.36.31.54.46.37.3.55.45.37.3.55.45.38.29.56.44.37.3.55.45.36.31.54.47.36.31.54.47.36.31.54.46.36.31.54.47.36.31.54.46.35.32.53.48.35.32.53.48.36.32.53.48.33.34.5.5.35.32.52.48c.18.17.33.35.49.52.16.18.33.36.46.54.15.2.27.4.39.6.12.21.23.42.32.64s.2.44.26.67.12.47.15.7.05.48.05.71-.02.48-.05.71-.08.47-.14.7-.15.45-.24.67-.18.44-.29.65-.25.4-.38.6-.25.4-.4.59-.3.36-.47.54-.32.35-.49.52c-.17.17-.34.33-.51.5s-.33.34-.5.51-.34.33-.51.5-.34.33-.51.5-.34.33-.51.5-.34.34-.5.51-.33.35-.49.52-.34.33-.51.5-.33.34-.5.51-.33.35-.49.52-.34.33-.51.5-.32.36-.48.53-.35.32-.51.49-.33.34-.49.51-.33.35-.49.52-.33.34-.5.51-.33.34-.5.51c-.17.17-.35.33-.52.48-.19.16-.39.29-.58.41-.21.13-.4.27-.6.36-.22.1-.45.17-.67.22-.23.06-.47.09-.7.1s-.47-.03-.7-.08-.44-.13-.66-.23c-.2-.1-.4-.22-.6-.36-.18-.13-.36-.28-.53-.45-.16-.16-.32-.33-.47-.52-.14-.18-.28-.37-.41-.57-.13-.19-.27-.38-.4-.57s-.26-.39-.38-.59-.26-.39-.39-.59-.24-.4-.37-.6-.25-.39-.38-.59-.26-.39-.39-.58-.26-.39-.38-.59-.26-.39-.39-.58-.24-.4-.37-.6-.28-.38-.41-.57-.26-.39-.39-.58-.28-.37-.42-.56-.27-.38-.41-.57-.26-.39-.41-.57-.3-.36-.45-.54c-.15-.19-.29-.39-.43-.57-.15-.19-.3-.38-.44-.56-.15-.19-.31-.37-.44-.55-.15-.2-.29-.38-.43-.56-.15-.2-.31-.38-.43-.56-.14-.21-.27-.41-.38-.6-.13-.22-.21-.44-.29-.64-.09-.23-.14-.46-.17-.68s-.02-.46.02-.7c.03-.22.09-.44.18-.67.08-.2.16-.42.27-.65.1-.19.21-.4.34-.62.11-.19.25-.38.38-.58.12-.19.23-.39.37-.59.13-.19.26-.38.4-.58.13-.19.28-.37.42-.57.14-.2.28-.39.43-.58s.3-.38.45-.57.29-.38.45-.57.32-.36.48-.54.33-.36.49-.53.32-.36.49-.53.34-.34.51-.52.36-.33.53-.5.34-.34.51-.51.35-.33.53-.5.34-.34.52-.51.36-.32.54-.49.34-.34.52-.51.36-.32.53-.49c.16-.16.35-.29.58-.4.2-.1.43-.17.66-.25.22-.07.45-.13.68-.2s.44-.15.67-.24Z"/>
</svg>