<?xml version="1.0" encoding="UTF-8"?>
<svg id="a" data-name="Layer 1" xmlns="http://www.w3.org/2000/svg" viewBox="0 0 250 100">
  <defs>
    <style>
      .b {
        fill: #242424;
      }
    </style>
  </defs>
  <g>
    <polygon class="b" points="31.1 15.22 30.44 15.16 29.69 15.09 28.93 15.06 28.18 15.05 27.44 15.07 26.7 15.16 25.96 15.17 25.22 15.06 24.49 15.08 23.75 15.09 23.01 15.1 22.26 15.07 21.52 15.11 20.78 15.11 20.04 15.14 19.3 15.07 18.55 15.09 17.81 15.1 17.07 15.11 16.33 15.15 15.6 15.12 15.41 15.65 15.93 16.11 16.36 16.64 16.9 17.08 17.32 17.63 17.84 18.09 18.33 18.58 18.76 19.12 19.23 19.59 19.49 20.17 19.59 20.86 19.5 21.56 19.46 22.26 19.52 22.96 19.47 23.66 19.53 24.36 19.54 25.06 19.47 25.75 19.48 26.45 19.59 27.15 19.59 27.85 19.48 28.55 19.55 29.25 19.47 29.96 19.48 30.66 19.51 31.37 19.48 32.08 19.47 32.78 19.52 33.49 19.58 34.2 19.59 34.91 19.57 35.61 19.52 36.31 19.5 37.01 19.57 37.71 19.53 38.41 19.52 39.11 19.57 39.81 19.28 40.34 18.94 40.86 18.42 41.31 18 41.86 17.47 42.31 16.99 42.81 16.45 43.25 16.02 43.79 15.54 44.29 15.17 44.85 15.96 44.98 16.75 44.92 17.54 44.98 18.34 44.94 19.08 44.91 19.82 44.9 20.56 44.89 21.3 44.91 22.04 44.99 22.78 44.97 23.52 44.89 24.27 44.99 25.01 44.92 25.76 44.93 26.5 44.96 27.24 44.96 27.99 44.9 28.73 44.88 29.47 44.91 30.21 44.89 30.95 44.94 31.11 44.77 30.63 44.24 30.19 43.69 29.66 43.21 29.17 42.69 28.62 42.23 28.2 41.66 27.68 41.17 27.18 40.66 26.84 40.06 26.73 39.38 26.8 38.68 26.78 37.98 26.72 37.27 26.75 36.57 26.68 35.87 26.76 35.17 26.75 34.46 26.68 33.76 26.78 33.05 26.69 32.35 26.73 31.65 26.69 30.95 26.77 30.24 26.74 29.53 26.73 28.82 26.75 28.12 26.69 27.41 26.7 26.7 26.74 25.99 26.76 25.28 26.8 24.58 26.72 23.88 26.7 23.18 26.7 22.48 26.75 21.85 26.71 21.22 26.69 20.58 26.78 19.96 27.2 19.39 27.68 18.87 28.17 18.35 28.65 17.83 29.15 17.31 29.65 16.8 30.2 16.34 30.7 15.83 31.18 15.29 31.1 15.22"/>
    <polygon class="b" points="49.43 40.55 48.73 40.63 48.02 40.72 47.3 40.74 46.58 40.77 45.86 40.71 45.15 40.53 44.54 40.14 44.52 39.53 44.48 38.94 44.47 38.34 44.52 37.64 44.5 36.94 44.43 36.24 44.51 35.54 44.48 34.84 44.43 34.14 44.56 33.44 44.55 32.74 44.49 32.04 44.54 31.34 44.47 30.63 44.45 29.93 44.48 29.22 44.47 28.51 44.44 27.8 44.51 27.09 44.53 26.38 44.44 25.68 44.55 24.97 44.44 24.27 44.42 23.56 44.51 22.86 44.55 22.16 44.56 21.46 44.54 20.77 44.45 20.06 44.74 19.42 45.3 18.98 45.78 18.44 46.27 17.9 46.77 17.36 47.31 16.85 47.79 16.29 48.29 15.75 48.68 15.22 48.21 14.89 47.5 14.91 46.8 14.96 46.09 14.98 45.38 15 44.65 14.96 43.91 14.94 43.17 15 42.43 14.94 41.7 15.02 40.96 14.92 40.21 14.98 39.47 14.98 38.73 14.91 37.99 14.93 37.25 14.93 36.51 15.02 35.76 14.93 35.02 14.89 34.28 14.96 33.55 14.9 33.13 15.14 33.6 15.74 34.05 16.35 34.58 16.89 35.2 17.37 35.74 17.91 36.19 18.54 36.76 19.05 37.11 19.59 37.33 20.15 37.36 20.85 37.33 21.55 37.32 22.25 37.38 22.95 37.44 23.65 37.46 24.35 37.44 25.06 37.39 25.75 37.37 26.46 37.44 27.16 37.4 27.86 37.39 28.56 37.44 29.27 37.34 29.97 37.45 30.68 37.35 31.39 37.46 32.1 37.41 32.81 37.42 33.52 37.35 34.23 37.43 34.94 37.38 35.65 37.38 36.35 37.34 37.05 37.4 37.76 37.33 38.46 37.38 39.16 37.41 39.86 37.15 40.53 36.66 41.09 36.11 41.64 35.5 42.15 34.97 42.73 34.5 43.36 33.87 43.87 33.4 44.49 33.23 45.01 33.99 45.05 34.77 45.06 35.54 45 36.31 44.98 37.08 45.03 37.85 45.02 38.62 45.09 39.4 45.07 40.17 45.01 40.94 45.06 41.72 45.02 42.5 45.05 43.27 44.99 44.05 45.1 44.83 45.06 45.61 45.02 46.39 45.1 47.16 45.02 47.94 45.1 48.71 45.09 49.48 45.03 50.25 45.07 51.02 45.02 51.7 45.25 52.36 45.51 53.03 45.76 53.6 46.19 54.28 46.44 54.89 46.8 55.57 46.97 55.95 46.67 56.01 45.98 56.09 45.29 56.21 44.61 56.25 43.92 56.35 43.23 56.5 42.55 56.62 41.87 56.76 41.19 56.78 40.5 56.85 39.8 56.95 39.11 57.1 38.43 57.16 37.73 57.22 37.04 57.32 36.35 57.4 35.66 57.49 34.97 57.52 34.28 56.77 33.99 56 33.98 55.23 33.98 54.46 33.97 53.71 34.15 53.2 34.65 52.84 35.24 52.47 35.81 52.17 36.43 51.73 36.98 51.5 37.63 51.1 38.2 50.75 38.79 50.42 39.39 50.04 39.95 49.53 40.48 49.43 40.55"/>
    <polygon class="b" points="77.51 40.59 76.8 40.67 76.09 40.71 75.37 40.77 74.65 40.75 73.94 40.6 73.22 40.53 72.61 40.14 72.58 39.53 72.57 38.94 72.56 38.34 72.58 37.64 72.54 36.94 72.5 36.24 72.6 35.54 72.57 34.84 72.52 34.14 72.51 33.44 72.53 32.74 72.51 32.04 72.58 31.34 72.6 30.63 72.57 29.93 72.5 29.22 72.52 28.51 72.55 27.8 72.53 27.09 72.54 26.38 72.59 25.68 72.6 24.97 72.56 24.27 72.58 23.57 72.55 22.86 72.55 22.16 72.5 21.46 72.5 20.76 72.53 20.07 72.81 19.42 73.34 18.96 73.81 18.4 74.31 17.87 74.86 17.37 75.35 16.82 75.81 16.25 76.37 15.76 76.77 15.23 76.27 15 75.57 14.88 74.87 14.91 74.16 14.99 73.45 14.91 72.71 14.98 71.98 15 71.24 14.97 70.5 14.98 69.76 15 69.02 14.93 68.28 14.91 67.54 15 66.8 14.9 66.06 15 65.32 15.02 64.57 14.94 63.83 14.9 63.09 14.9 62.35 14.92 61.62 15.02 61.26 15.13 61.61 15.78 62.14 16.33 62.68 16.87 63.22 17.41 63.73 17.98 64.3 18.51 64.81 19.07 65.26 19.54 65.4 20.15 65.43 20.85 65.45 21.55 65.46 22.25 65.5 22.95 65.46 23.65 65.44 24.35 65.5 25.06 65.44 25.75 65.52 26.46 65.43 27.16 65.49 27.86 65.49 28.56 65.42 29.27 65.44 29.97 65.44 30.68 65.53 31.39 65.44 32.1 65.4 32.81 65.46 33.52 65.4 34.23 65.46 34.94 65.47 35.65 65.39 36.35 65.4 37.05 65.52 37.76 65.52 38.46 65.4 39.16 65.47 39.86 65.13 40.48 64.66 41.03 64.15 41.61 63.58 42.16 63.03 42.72 62.52 43.33 62.02 43.94 61.5 44.52 61.3 44.97 62.06 45.03 62.83 45.06 63.61 45 64.38 45.04 65.15 45.05 65.92 45 66.69 45.1 67.47 45 68.24 45.09 69.01 44.99 69.79 45.04 70.56 45.02 71.34 45.09 72.12 45.01 72.9 45.05 73.68 45.05 74.46 45.09 75.23 45.03 76 45.1 76.78 45.05 77.55 45.01 78.32 45.01 79.09 45.02 79.79 45.19 80.41 45.53 81.05 45.84 81.73 46.1 82.29 46.53 82.97 46.77 83.64 47 84.01 46.67 84.1 45.98 84.13 45.29 84.2 44.6 84.35 43.92 84.43 43.23 84.61 42.56 84.69 41.87 84.72 41.18 84.87 40.5 84.93 39.8 85.05 39.12 85.09 38.42 85.29 37.74 85.34 37.05 85.38 36.35 85.54 35.66 85.52 34.97 85.65 34.27 84.85 33.91 84.07 33.94 83.3 33.89 82.54 34.01 81.77 34.14 81.29 34.66 80.95 35.26 80.48 35.78 80.22 36.42 79.84 37 79.56 37.62 79.17 38.2 78.86 38.81 78.54 39.41 78.15 39.97 77.64 40.55 77.51 40.59"/>
    <polygon class="b" points="107.89 19.83 107.97 20.52 108.11 21.2 108.09 21.89 108.14 22.59 108.13 23.28 108.16 23.97 108.1 24.67 108.04 25.36 108.12 26.05 108.05 26.75 108.04 27.44 108.1 28.14 108.01 28.84 108.04 29.54 108 30.24 108.07 30.94 108.08 31.63 108.06 32.32 108.03 33.07 108.05 33.82 108.08 34.57 107.96 35.31 107.77 36.03 107.53 36.74 107.26 37.44 106.95 38.12 106.67 38.79 106.18 39.33 105.59 39.79 104.91 40.1 104.2 40.38 103.45 40.5 102.75 40.4 102.05 40.24 101.4 39.94 100.82 39.54 100.27 39.11 99.74 38.65 99.36 38.07 99.19 37.42 98.93 36.78 98.76 36.13 98.65 35.44 98.49 34.77 98.37 34.09 98.32 33.4 98.24 32.72 98.2 32.03 98.31 31.34 98.29 30.62 98.26 29.89 98.25 29.17 98.27 28.45 98.24 27.73 98.3 27.01 98.3 26.28 98.26 25.56 98.19 24.83 98.19 24.11 98.22 23.39 98.21 22.66 98.24 21.94 98.31 21.22 98.38 20.5 98.45 19.79 98.92 19.23 99.38 18.67 99.89 18.14 100.37 17.58 100.89 17.05 101.42 16.54 101.92 16 102.46 15.51 102.23 15.13 101.47 15.15 100.7 15.11 99.93 15.12 99.17 15.18 98.4 15.11 97.63 15.12 96.86 15.17 96.1 15.05 95.34 15.05 94.57 15.1 93.79 15.05 93.02 15.1 92.25 15.12 91.48 15.09 90.71 15.1 89.94 15.13 89.17 15.08 88.4 15.08 87.64 15.19 86.84 15.17 87.08 15.55 87.57 16.06 88 16.62 88.46 17.16 88.96 17.68 89.48 18.18 90.05 18.63 90.54 19.15 90.91 19.8 91.1 20.47 91.12 21.18 91.14 21.89 91.11 22.6 91.15 23.31 91.15 24.02 91.18 24.73 91.1 25.44 91.12 26.15 91.14 26.87 91.15 27.59 91.19 28.3 91.15 29.01 91.12 29.73 91.18 30.44 91.12 31.16 91.2 31.87 91.11 32.58 91.17 33.36 91.16 34.14 91.1 34.92 91.2 35.69 91.4 36.45 91.7 37.07 91.81 37.75 91.98 38.42 92.26 39.05 92.48 39.71 92.88 40.29 93.31 40.83 93.73 41.4 94.22 41.92 94.81 42.34 95.35 42.79 95.87 43.29 96.53 43.59 97.17 43.95 97.87 44.15 98.54 44.36 99.2 44.6 99.88 44.79 100.57 44.87 101.28 44.88 101.98 44.87 102.74 44.92 103.49 44.97 104.25 44.97 105 44.85 105.74 44.79 106.48 44.63 107.17 44.36 107.9 44.14 108.5 43.7 109.16 43.35 109.65 42.83 110.22 42.39 110.74 41.89 111.28 41.41 111.69 40.83 112.15 40.28 112.52 39.68 112.8 39.02 113 38.33 113.3 37.67 113.48 36.97 113.64 36.27 113.78 35.57 113.85 34.87 113.87 34.16 113.95 33.46 113.93 32.76 113.84 32.05 113.95 31.35 113.87 30.64 113.89 29.94 113.91 29.23 113.92 28.53 113.85 27.82 113.82 27.11 113.87 26.4 113.85 25.69 113.92 24.97 113.91 24.27 113.85 23.56 113.89 22.86 113.86 22.15 113.88 21.45 113.83 20.75 114 20.07 114.31 19.46 114.76 18.91 115.3 18.45 115.73 17.9 116.28 17.46 116.78 16.96 117.22 16.41 117.72 15.91 118.1 15.34 117.57 15.07 116.82 15.08 116.08 15.15 115.33 15.05 114.59 15.15 113.84 15.1 113.1 15.14 112.36 15.07 111.62 15.1 110.87 15.11 110.12 15.1 109.37 15.15 108.62 15.15 107.88 15.11 107.13 15.09 106.38 15.05 105.63 15.13 104.88 15.15 104.15 15.16 103.95 15.59 104.45 16.1 104.96 16.6 105.44 17.13 105.94 17.64 106.43 18.17 106.94 18.68 107.45 19.19 107.93 19.73 107.89 19.83"/>
    <polygon class="b" points="130.9 23.25 130.32 22.69 129.9 22.01 129.66 21.25 129.82 20.46 130.26 19.92 130.88 19.59 131.54 19.38 132.24 19.35 132.91 19.56 133.43 20.08 133.97 20.6 134.35 21.22 134.8 21.8 135.15 22.45 135.63 23.02 136.07 23.61 136.61 24.11 137.25 24.57 138.08 24.65 138.9 24.71 139.71 24.6 140.65 24.39 140.6 23.6 140.51 22.81 140.4 22.02 140.23 21.33 140.11 20.63 140.1 19.92 139.93 19.22 139.87 18.52 139.79 17.81 139.7 17.1 139.61 16.39 139.39 15.7 139.33 14.99 139.16 14.3 139 13.61 138.76 13 138.02 13.11 137.28 13.38 136.65 13.84 135.92 14.15 135.2 14.44 134.42 14.62 133.74 14.46 133.06 14.38 132.39 14.18 131.7 14.11 131.02 13.97 130.26 13.78 129.51 13.55 128.72 13.51 127.98 13.75 127.3 14.09 126.69 14.49 126.07 14.86 125.45 15.25 124.85 15.65 124.35 16.17 123.84 16.66 123.42 17.22 123.08 17.83 122.89 18.53 122.63 19.2 122.35 19.87 122.22 20.58 122.1 21.29 122.02 21.99 122.09 22.7 122.34 23.38 122.53 24.01 122.64 24.65 122.94 25.25 123.16 25.86 123.37 26.55 123.81 27.13 124.33 27.65 124.87 28.14 125.46 28.59 126.02 29.07 126.48 29.63 127.05 30.09 127.63 30.55 128.18 31.04 128.71 31.55 129.27 32.02 129.76 32.57 130.29 33.07 130.85 33.54 131.44 33.99 131.96 34.48 132.45 34.99 132.96 35.47 133.45 35.98 133.86 36.54 134.23 37.12 134.52 37.74 134.55 38.41 134.32 39.12 133.82 39.71 133.21 40.21 132.48 40.55 131.69 40.73 130.88 40.81 130.1 40.64 129.47 40.35 128.99 39.87 128.67 39.28 128.33 38.71 127.95 38.16 127.65 37.56 127.24 36.93 126.81 36.32 126.55 35.62 126.14 35.01 125.55 34.62 124.9 34.34 124.19 34.31 123.48 34.34 122.77 34.37 122.08 34.48 121.81 34.97 121.79 35.6 121.87 36.23 122.05 36.85 122.04 37.58 122.26 38.28 122.38 39 122.38 39.72 122.44 40.44 122.53 41.16 122.65 41.88 122.86 42.59 122.97 43.31 122.93 44.04 123.06 44.76 123.19 45.48 123.31 46.19 123.4 46.91 124.08 47.09 124.73 46.8 125.34 46.44 126.01 46.17 126.64 45.84 127.31 45.58 128.02 45.46 128.76 45.47 129.47 45.65 130.18 45.84 130.9 45.96 131.59 46.2 132.33 46.27 133.04 46.47 133.78 46.43 134.49 46.32 135.19 46.1 135.81 45.75 136.44 45.42 137.02 45.01 137.7 44.76 138.36 44.46 138.96 44.06 139.61 43.77 140.12 43.3 140.46 42.73 140.74 42.03 140.92 41.3 140.98 40.55 141.16 39.82 141.45 39.11 141.53 38.36 141.75 37.64 141.84 36.89 141.71 36.19 141.57 35.49 141.37 34.8 141.1 34.13 140.81 33.47 140.57 32.79 140.32 32.15 139.94 31.55 139.44 31.03 138.84 30.6 138.33 30.08 137.81 29.6 137.25 29.16 136.8 28.61 136.2 28.21 135.74 27.67 135.14 27.27 134.64 26.75 134.1 26.28 133.62 25.75 133.03 25.33 132.54 24.81 132.02 24.33 131.52 23.82 130.96 23.37 130.9 23.25"/>
    <polygon class="b" points="162.92 14.97 162.19 15.03 161.45 14.96 160.71 15.03 159.98 15.03 159.24 15.1 158.5 15.04 157.76 15.06 157.02 15.02 156.28 15.07 155.54 14.98 154.8 14.98 154.06 14.96 153.33 14.73 152.58 14.64 151.88 14.37 151.14 14.19 150.42 13.97 149.69 13.76 148.93 13.66 148.21 13.45 147.55 14.1 147.48 14.75 147.35 15.4 147.23 16.05 147.14 16.71 147.03 17.39 146.96 18.09 146.75 18.76 146.66 19.45 146.59 20.15 146.48 20.84 146.4 21.53 146.29 22.22 146.18 22.91 146.03 23.6 145.96 24.3 146.48 24.72 147.18 24.75 147.87 24.81 148.64 24.74 149.39 24.65 150.03 24.26 150.6 23.78 150.94 23.13 151.35 22.49 151.71 21.82 152.26 21.27 152.79 20.7 153.49 20.36 154.15 20.06 154.87 20.1 155.19 20.65 155.12 21.35 155.1 22.05 155.14 22.76 155.14 23.46 155.05 24.17 155.13 24.88 155.1 25.58 155.08 26.28 155.09 26.99 155.09 27.7 155.2 28.4 155.17 29.11 155.21 29.82 155.21 30.53 155.24 31.24 155.19 31.95 155.14 32.67 155.24 33.38 155.17 34.1 155.17 34.81 155.24 35.52 155.14 36.23 155.16 36.93 155.1 37.64 155.14 38.35 155.1 39.06 155.01 39.76 154.84 40.43 154.4 41 153.96 41.6 153.42 42.12 152.86 42.62 152.31 43.13 151.79 43.67 151.29 44.23 150.93 44.87 151.05 44.97 151.79 44.98 152.54 45.03 153.29 45.01 154.04 45.03 154.79 45.08 155.54 45.02 156.29 45.01 157.04 45.03 157.79 45.03 158.55 45 159.31 45 160.06 45.08 160.82 44.99 161.57 44.98 162.33 45.05 163.08 45.05 163.81 45.03 164.54 45.06 165.27 45.04 165.99 44.99 166.35 44.64 165.84 44.1 165.3 43.59 164.78 43.07 164.28 42.52 163.75 42 163.29 41.41 162.81 40.85 162.33 40.29 162.2 39.6 162.18 38.9 162.19 38.19 162.16 37.49 162.16 36.79 162.2 36.08 162.2 35.38 162.16 34.68 162.18 33.97 162.14 33.27 162.15 32.56 162.1 31.86 162.1 31.16 162.12 30.45 162.11 29.74 162.21 29.03 162.17 28.32 162.16 27.61 162.22 26.89 162.2 26.18 162.14 25.47 162.22 24.77 162.2 24.06 162.14 23.36 162.28 22.65 162.27 21.94 162.2 21.24 162.24 20.54 162.51 20.03 163.2 20.08 163.83 20.35 164.45 20.64 165.04 21.12 165.44 21.74 165.83 22.36 166.28 22.95 166.61 23.61 167.19 24.1 167.81 24.48 168.51 24.76 169.28 24.86 170.05 24.82 170.72 24.76 171.22 24.4 171.25 23.83 171.27 23.12 171.14 22.43 171.01 21.75 170.88 21.05 170.81 20.36 170.66 19.67 170.55 18.97 170.4 18.28 170.37 17.57 170.24 16.88 170.11 16.18 169.99 15.49 169.83 14.8 169.76 14.1 169.25 13.46 168.35 13.67 167.58 13.8 166.85 14.07 166.07 14.19 165.33 14.44 164.57 14.64 163.79 14.76 163.04 14.95 162.92 14.97"/>
    <path class="b" d="M196.11,29.83l.42-.5.34-.55.35-.56.27-.62.21-.64.32-.6.29-.61.29-.61.26-.62.28-.6.19-.82-.23-.82-.29-.66-.26-.67-.35-.63-.28-.67-.35-.64-.32-.65-.37-.63-.33-.71-.61-.48-.74-.3-.81-.13-.73-.17-.74-.14-.73-.16-.73-.17-.78-.22-.81-.08-.78-.21-.81-.06-.76.06-.76-.03-.76.05-.76-.09-.76.05h-.76s-.76.05-.76.05l-.76-.07-.76.02-.76-.04-.77.07-.76-.07-.76.03-.76.04-.77-.07-.76.1-.76-.07-.76.03h-.76s.06.57.06.57l.6.52.48.62.57.55.58.55.53.59.53.58.5.54.25.67.03.72-.1.72.02.72.04.72v.72s.05.72.05.72v.72s0,.72,0,.72l-.06.72v.72s.03.72.03.72l.04.72-.05.72.07.72-.06.73.04.73-.06.73.07.73v.73s.06.73.06.73l-.11.73.05.72-.05.72.08.72-.11.72.07.72-.08.72-.07.71-.45.62-.51.57-.6.5-.49.59-.57.53-.55.54-.52.56-.48.6.7.21.85.03.85-.03h.77s.77-.02.77-.02l.77.06.77.05.77-.09.76.06h.77s.77-.07.77-.07l.77.09.77-.04.77.05.77-.07h.77s.77.03.77.03l.77.06.77-.04.76-.09.02-.41-.4-.51-.44-.49-.44-.47-.54-.57-.62-.49-.55-.56-.52-.58-.39-.66-.18-.64v-.66s.04-.67.04-.67l-.06-.66-.02-.74.03-.75v-.75s-.03-.75-.03-.75v-.74s.44-.71.44-.71l.56.49.48.58.37.64.43.6.41.62.38.64.43.61.42.62.3.68.42.62.43.61.41.62.4.62.46.58.48.54.55.48.59.44.62.41.57.46.56.47.59.44.58.46.55.48.57.46.82.31.79-.37.57-.6.58-.6.52-.64.41-.58-.05-.64-.38-.59-.3-.64-.42-.57-.39-.59-.33-.62-.4-.58-.44-.56-.32-.63-.4-.58-.43-.57-.27-.66-.39-.6-.44-.57-.34-.62-.4-.55-.39-.56-.36-.58-.4-.55-.39-.56-.26-.62-.21-.62.63-.38.81-.06.76-.26.74-.26h.16ZM185.23,19.75l.61-.34h.72s.72.07.72.07l.86.02.83.26.58.34.43.48.2.61.22.64.23.64.13.67-.09.67-.23.66-.23.67-.18.68-.39.56-.73.45-.8.33-.7.09-.72-.04-.72.05-.71-.06-.23-.54.03-.68-.02-.68v-.68s.01-.68.01-.68l.05-.69-.1-.69.09-.69.02-.69-.03-.69.08-.67.05-.07Z"/>
    <path class="b" d="M231.39,22.7l-.41-.67-.44-.65-.39-.69-.45-.55-.32-.62-.42-.56-.44-.53-.51-.49-.66-.36-.65-.37-.71-.28-.66-.37-.67-.35-.65-.39-.69-.31-.76-.34-.84-.07-.75.07-.75-.02-.75.04-.75-.03-.75-.07h-.75s-.75.09-.75.09l-.75-.02-.75.03-.74.06-.66.3-.67.29-.67.29-.65.32-.65.33-.66.31-.61.39-.64.34-.6.4-.48.53-.35.61-.42.57-.33.62-.43.54-.33.6-.33.59-.25.63-.22.63-.19.64-.2.65-.04.68-.19.66-.12.67-.08.67-.18.66-.09.67-.18.66.03.67.04.67.19.65.07.71.15.7.1.7.19.69.06.71.17.69.19.69.1.71.37.58.27.62.39.56.35.58.34.59.44.54.31.61.47.52.57.41.61.37.61.33.62.31.6.34.64.29.58.4.63.29.64.27.72.15.74.05.74.04h.74s.74.06.74.06h.75s.75-.06.75-.06l.75-.04.74.05.74-.03.78.04.76-.19.76-.2.68-.37.68-.35.64-.43.72-.31.65-.41.71-.3.61-.5.62-.48.41-.65.46-.62.4-.65.35-.68.39-.66.49-.61.15-.69.22-.66.18-.67.15-.68.14-.68.03-.7.16-.68.08-.69.12-.69.08-.69.16-.68-.05-.73-.2-.71-.06-.73-.13-.72-.2-.71-.06-.74-.18-.71-.11-.73-.23-.7-.17-.71.02-.13ZM217.71,40.48l-.7-.29-.65-.38-.59-.47-.64-.41-.54-.52-.51-.57-.43-.63-.36-.68-.4-.65-.36-.66-.25-.57v-.62s.01-.68.01-.68l.06-.69-.04-.69.06-.69v-.69s-.07-.69-.07-.69l.02-.69-.05-.69.03-.69.07-.69-.02-.69-.08-.69.14-.66.25-.62.34-.59.35-.58.39-.56.39-.56.49-.53.54-.49.59-.43.58-.45.66-.34.67-.32.72-.17.72.12.66.31.66.3.57.44.58.42.5.5.48.52.42.57.36.6.31.6.44.53.21.64.12.64.04.72-.03.72.06.72-.08.72.06.72v.72s.07.72.07.72l-.07.73.02.73-.04.72.05.73-.1.72-.02.72-.3.66-.42.61-.3.67-.48.57-.44.6-.53.53-.59.45-.59.51-.69.38-.67.4-.75.25-.79-.07-.13-.09Z"/>
  </g>
  <g>
    <polygon class="b" points="35.02 75.14 35.15 75.85 35.28 76.58 35.19 77.3 35.2 78.04 34.99 78.74 34.59 79.33 34.04 79.82 33.33 80.07 32.63 80.33 31.88 80.43 31.1 80.46 30.35 80.28 29.64 79.99 28.97 79.61 28.28 79.34 27.62 79.01 27.01 78.6 26.51 78.06 25.97 77.58 25.58 76.98 25.1 76.43 24.73 75.82 24.39 75.03 24.28 74.18 24.31 73.48 24.39 72.78 24.35 72.08 24.36 71.38 24.28 70.68 24.4 69.98 24.28 69.28 24.31 68.57 24.37 67.87 24.37 67.17 24.32 66.47 24.44 65.77 24.72 65.12 24.98 64.46 25.32 63.84 25.78 63.28 26.19 62.69 26.74 62.2 27.26 61.7 27.86 61.26 28.51 60.9 29.15 60.54 29.82 60.23 30.48 59.89 31.18 59.88 31.84 60.05 32.41 60.41 32.94 60.8 33.29 61.35 33.59 62.06 33.77 62.82 33.77 63.6 33.82 64.39 33.79 65.11 33.92 65.83 34.51 66.32 35.28 66.38 36.05 66.41 36.77 66.42 37.49 66.41 38.21 66.34 38.91 66.21 39.58 65.98 40.17 65.6 40.69 65.13 41.25 64.66 41.77 64.15 42.34 63.67 42.77 63.08 43.06 62.43 42.9 61.7 42.64 60.99 42.26 60.37 41.95 59.72 41.5 59.15 41.03 58.61 40.43 58.18 39.77 57.85 39.05 57.51 38.36 57.12 37.61 56.85 36.93 56.44 36.21 56.1 35.46 55.83 34.72 55.53 33.91 55.46 33.1 55.34 32.29 55.39 31.47 55.39 30.65 55.45 29.94 55.39 29.23 55.4 28.53 55.36 27.82 55.43 27.12 55.4 26.42 55.52 25.72 55.8 24.98 56.02 24.34 56.42 23.62 56.68 22.95 57.03 22.24 57.32 21.5 57.63 20.82 58.05 20.09 58.41 19.52 58.95 19.04 59.57 18.57 60.19 18.14 60.78 17.72 61.37 17.28 61.96 16.93 62.59 16.51 63.19 16.3 63.88 16.18 64.54 16.04 65.2 15.93 65.87 15.78 66.52 15.64 67.19 15.43 67.84 15.28 68.5 15.16 69.17 15.08 69.83 15 70.5 15.14 71.16 15.21 71.83 15.4 72.49 15.49 73.18 15.69 73.83 15.83 74.51 16.03 75.17 16.08 75.86 16.3 76.51 16.44 77.18 16.82 77.81 17.12 78.47 17.61 79.03 18.01 79.64 18.43 80.24 18.85 80.82 19.31 81.37 19.77 81.92 20.4 82.31 21.01 82.72 21.66 83.08 22.32 83.4 23 83.69 23.72 83.9 24.38 84.25 25.06 84.54 25.71 84.83 26.42 85 27.13 85.17 27.86 85.29 28.59 85.23 29.32 85.28 30.05 85.26 30.78 85.17 31.52 85.23 32.26 85.19 32.99 85.26 33.72 85.18 34.44 85.09 35.16 84.97 35.88 84.84 36.57 84.6 37.24 84.31 37.94 84.11 38.68 83.88 39.42 83.65 40.15 83.38 40.87 83.07 41.52 82.65 42.17 82.25 42.77 81.8 43.06 81.13 43.15 80.39 43.2 79.66 43.24 78.91 43.16 78.17 43.11 77.43 43.13 76.68 43.18 75.95 43.22 75.33 43.47 74.75 43.92 74.3 44.39 73.72 44.93 73.19 45.53 72.73 46.08 72.21 46.64 71.69 47.21 71.19 47.71 70.63 47.67 70.24 46.93 70.15 46.19 70.18 45.45 70.22 44.71 70.22 43.97 70.2 43.23 70.22 42.48 70.15 41.74 70.14 41 70.16 40.26 70.22 39.52 70.2 38.77 70.17 38.03 70.18 37.28 70.17 36.53 70.13 35.78 70.13 35.04 70.16 34.3 70.14 33.55 70.18 32.81 70.19 32.07 70.24 31.32 70.26 30.59 70.25 30.6 70.46 31 71.03 31.55 71.49 32.08 71.96 32.57 72.47 33.12 72.92 33.69 73.37 34.14 73.91 34.63 74.42 35.08 74.98 35.02 75.14"/>
    <path class="b" d="M75.39,70.14l.5-.56.42-.61.32-.66.32-.65.32-.66.37-.63.25-.69.45-.59.33-.73.32-.74-.19-.78-.43-.68-.24-.65-.3-.61-.39-.58-.27-.64-.35-.6-.38-.59-.28-.63-.32-.61-.51-.4-.62-.17-.71-.13-.71-.14-.7-.18-.72-.1-.69-.24-.73-.06-.71-.15-.72-.09-.72-.19-.74-.08-.74-.05-.75.04-.74-.11-.74.07-.74-.08-.74-.04-.74.04-.74-.07-.74.05-.75-.03-.75.06-.75.02h-.75s-.75-.06-.75-.06l-.75.02-.75.04-.75.03-.75-.06-.75.07-.75-.06-.74.08h-.75s-.74-.02-.74-.02l.06.34.5.54.48.56.58.48.54.52.61.45.46.59.63.43.5.55.24.66-.02.72.07.72v.72s-.07.72-.07.72l.04.72.02.72-.04.72.08.72-.04.72.05.72v.72s-.06.72-.06.72v.72s0,.72,0,.72l.1.72-.03.73v.73s-.06.73-.06.73l.04.73-.07.73v.72s.06.72.06.72l-.03.72.04.72-.05.72-.1.71-.02.72.02.73-.53.55-.53.54-.55.53-.54.54-.57.51-.59.5-.57.52-.55.52-.11.58.74-.03.74.04.74-.03h.74s.74-.06.74-.06l.74.05.74-.05.74.05.74-.04h.74s.74,0,.74,0h.74s.75.03.75.03l.75.06.75-.09.75.09h.74s.74-.04.74-.04l.74.03.74-.05.74.09.74-.05h.73s-.07-.62-.07-.62l-.48-.57-.56-.49-.53-.52-.61-.45-.5-.55-.56-.5-.54-.52-.39-.62-.26-.67.06-.72-.02-.71.03-.73.02-.73-.09-.73.08-.74-.03-.73-.02-.73.46-.62.6.53.51.6.45.65.49.62.36.62.44.57.44.57.41.59.43.58.4.6.41.59.37.62.44.57.49.54.52.5.5.53.68.38.59.49.65.42.59.5.67.4.63.45.67.39.58.51.69.36.66.4.56-.18.54-.27.44-.51.53-.42.5-.46.44-.5.41-.51v-.65s-.48-.57-.48-.57l-.39-.62-.41-.61-.42-.6-.43-.6-.51-.55-.39-.63-.46-.58-.42-.6-.46-.59-.38-.64-.38-.63-.51-.55-.37-.64-.39-.58-.47-.53-.35-.61-.46-.53-.37-.59-.43-.55-.29-.63.67-.3.73-.08.72-.15.7-.2.68-.2h.16ZM63.14,60.08l.52-.27.65-.06.67-.04.66-.02h.6s.56.2.56.2l.84.27.67.52.29.57.14.63.26.6.3.58-.1,1.01-.28.69-.15.73-.32.68-.45.57-.64.37-.72.24-.73.06-.73.04-.73.07-.73.02-.75-.09v-.77s-.05-.73-.05-.73l.11-.73-.09-.73.02-.73-.05-.73.09-.73.02-.73.02-.73-.05-.74.13-.03Z"/>
    <path class="b" d="M100.74,52.68l-.49.56-.63.41-.52.53-.5.55-.59.46-.46.59-.58.48-.6.45-.36.65-.43.61-.08.72-.19.68-.26.66-.25.67-.15.7-.22.68-.28.66-.32.64-.25.67-.18.69-.34.63-.2.69-.25.67-.33.64-.33.64-.24.67-.29.66-.28.66-.27.67-.23.69-.26.68-.28.67-.33.65-.18.7-.36.63-.23.68-.35.63-.23.67-.19.69-.37.63-.29.65-.19.69-.3.64-.43.59-.47.58-.58.48-.58.49-.52.54-.52.54-.55.52-.55.5-.56.49.02.54.74.12.74-.08.74.02.74-.05.74.08h.74s.74.01.74.01l.74-.08.74.08.74-.09.75.07.75.03.75-.05.75.07.75-.05.74.03.74-.06.75-.02h.74s.74.07.74.07l.74-.03.04-.27-.54-.53-.49-.57-.6-.46-.51-.56-.62-.45-.55-.53-.53-.53-.36-.58v-.67s.24-.62.24-.62l.18-.63.27-.59.25-.6.59-.3.74-.23h.79s.78.04.78.04l.78.03.78-.06h.78s.84.04.84.04h.83s.78.26.78.26l.47.62.38.7.2.65.26.63.11.67-.14.66-.25.67-.34.64-.26.68-.37.62-.31.61.03.61.72.05.71.05h.8s.79-.07.79-.07l.79.02.79-.05.79.03.79.07.79-.02.8-.09h.78s.78.01.78.01h.78s.78,0,.78,0l.78.02.78.03h.78s.78-.02.78-.02l.8-.09-.29-.43-.49-.53-.56-.47-.54-.49-.58-.44-.5-.53-.58-.46-.5-.54-.55-.48-.49-.54-.32-.66-.27-.67-.26-.68-.21-.69-.36-.64-.18-.71-.25-.68-.32-.66-.23-.69-.31-.66-.17-.71-.32-.66-.25-.68-.33-.65-.19-.7-.28-.67-.23-.69-.33-.65-.19-.7-.3-.67-.31-.67-.19-.71-.36-.64-.18-.71-.29-.67-.24-.69-.24-.69-.35-.65-.19-.7-.3-.66-.3-.66-.25-.68-.26-.68-.29-.67-.26-.68-.32-.65-.19-.7-.31-.66-.33-.65-.31-.65-.37-.61-.06-.06ZM96.64,72.87l.15-.74.38-.67.24-.72.21-.73.34-.69.17-.75.32-.69.35-.69.27.6.14.72.32.66.26.68.24.77.27.76.37.72.23.81h-.73s-.72-.07-.72-.07h-.72s-.72.08-.72.08l-.72-.08-.71.07.05-.04Z"/>
    <path class="b" d="M135.81,55.22l-.74.03-.74.09h-.74s-.74-.06-.74-.06l-.74.1-.74-.08h-.74s-.74.08-.74.08h-.74s-.74-.1-.74-.1l-.74.02-.75-.04-.75.04-.75.03-.75.05-.75-.02-.75-.1-.75.07-.74-.06-.75.03-.75.04-.74.02-.75-.05h-.74s-.18.2-.18.2l.46.53.5.5.55.44.46.54.61.4.44.55.53.46.56.45.43.56.34.6-.05.69-.1.71.11.72-.12.72.06.72v.72s-.04.71-.04.71v.72s.08.72.08.72l.04.72-.02.72-.06.72.02.72.09.72-.07.72.08.72.02.73-.06.73-.06.73.03.72-.02.72v.72s-.02.72-.02.72l.04.72v.72s-.03.71-.03.71l-.11.71v.73s-.59.5-.59.5l-.5.55-.6.46-.52.54-.5.56-.63.44-.57.5-.48.57-.04.56.77-.02.77-.05.77.06.77.04.77-.04.77-.05.77-.02h.77s.77.04.77.04l.77-.04.77.11.77-.08.78.02.78-.05.77.08h.77s.77,0,.77,0l.77-.08.77.08.77-.09.77.06.76.02.27-.34-.38-.49-.61-.5-.56-.56-.62-.5-.59-.52-.57-.54-.47-.53-.49-.5-.36-.59-.12-.67.07-.68-.07-.75.07-.75-.09-.75v-.75s0-.75,0-.75v-.75s.03-.75.03-.75l.13-.71.19-.67.62-.29.68-.21.72.07.72-.1.72.08.68.16.65.39.66.39.59.49.5.56.57.5.55.52.51.56.61.46.55.52.47-.03.02-.71.07-.72v-.71s0-.71,0-.71l-.09-.71.03-.71v-.71s.06-.72.06-.72l-.04-.71.07-.71v-.71s-.07-.74-.07-.74l.02-.74-.05-.75.05-.73.66-.48.64-.02.65-.07.65.03h.82s.79-.14.79-.14l.22-.65-.11-.7-.09-.7-.12-.7-.11-.7-.08-.71-.17-.7-.09-.71-.16-.7-.13-.71-.19-.7-.08-.71-.18-.7-.08-.71-.17-.69-.29-.56h-.68s-.71.16-.71.16l-.72.14-.73.11-.7.25-.74.09-.73.16-.71.22-.73.13-.72.2-.09-.07ZM135.06,67.41l-.73.03-.74.09h-.75s-.75-.08-.75-.08l-.75.09-.56-.29-.26-.5-.08-.66v-.66s.1-.66.1-.66l-.02-.67.04-.67-.04-.66v-.75s-.1-.75-.1-.75l.03-.75.43-.58.72-.23.8.06.8-.03.8-.04.8-.03.8.06.77.08.55.56.5.6.5.61.54.59.4.69.54.61-.57.49-.48.53-.48.54-.58.45-.47.56-.58.46-.6.43-.47.58-.11-.09Z"/>
    <polygon class="b" points="167.04 55.52 166.38 55.42 165.69 55.42 165 55.42 164.31 55.46 163.61 55.39 162.85 55.46 162.1 55.4 161.34 55.35 160.59 55.41 159.83 55.43 159.08 55.43 158.32 55.4 157.56 55.4 156.8 55.41 156.04 55.42 155.28 55.41 154.52 55.34 153.76 55.33 153 55.42 152.24 55.44 151.48 55.34 150.73 55.35 149.97 55.44 149.23 55.46 149.25 55.76 149.83 56.18 150.27 56.71 150.8 57.18 151.36 57.6 151.89 58.07 152.34 58.61 152.87 59.07 153.36 59.57 153.82 59.99 154.07 60.53 154.12 61.23 154.1 61.93 154 62.62 154.07 63.32 154.01 64.02 154.04 64.72 154.08 65.42 154.1 66.12 154.04 66.82 154.02 67.51 154.05 68.22 154.04 68.91 154.04 69.62 154.09 70.32 154 71.03 154.11 71.73 154.01 72.44 154.04 73.15 154.1 73.86 154.03 74.57 154.13 75.27 154.08 75.98 154 76.68 154.12 77.38 154 78.08 154.06 78.78 154.05 79.48 154.01 80.17 153.72 80.71 153.3 81.23 152.75 81.77 152.16 82.28 151.55 82.76 150.97 83.29 150.45 83.87 149.82 84.35 149.32 84.92 149.2 85.11 149.95 85.19 150.71 85.26 151.48 85.24 152.25 85.27 153.02 85.28 153.78 85.28 154.55 85.24 155.32 85.22 156.09 85.22 156.85 85.27 157.63 85.18 158.4 85.26 159.18 85.22 159.95 85.29 160.73 85.25 161.5 85.17 162.28 85.26 163.05 85.28 163.82 85.21 164.59 85.25 165.36 85.22 166.12 85.17 166.89 85.23 166.75 84.69 166.22 84.22 165.66 83.78 165.12 83.33 164.6 82.87 164.1 82.37 163.56 81.92 163.13 81.36 162.59 80.91 162.16 80.37 162.08 79.67 162.14 78.97 162.14 78.26 162.13 77.56 162.05 76.86 162.13 76.16 162.04 75.45 162.1 74.75 162.13 74.05 162.08 73.34 162.15 72.64 162.1 71.94 162.13 71.24 162.07 70.53 162.06 69.82 162.07 69.11 162.14 68.41 162.13 67.7 162.09 66.99 162.07 66.28 162.14 65.57 162.08 64.87 162.14 64.17 162.06 63.47 162.06 62.77 162.06 62.14 162.03 61.51 162.07 60.88 162.2 60.28 162.64 59.69 163.18 59.16 163.67 58.59 164.31 58.17 164.8 57.59 165.39 57.11 165.99 56.64 166.54 56.12 167.01 55.54 167.04 55.52"/>
    <path class="b" d="M186.55,69.4l.17-.56.5-.51.45-.56.5-.51.54-.48.46-.53.42-.57.58-.45.42-.58.54-.48.45-.56.53-.5.46-.55.51-.52.48-.54.48-.53.49-.53.55-.46.54-.47.54-.55.54-.55.55-.55.59-.52.57-.53.61-.51.6-.5.34-.4-.09-.17-.78.07h-.77s-.77-.06-.77-.06l-.77.05-.77-.07-.77.05-.77.03h-.77s-.77-.03-.77-.03l-.77.03-.78-.05-.78.07-.78-.07-.78-.05-.78.06-.78.03h-.77s-.77-.03-.77-.03h-.77s-.77,0-.77,0l-.76.02h-.76s-.76-.08-.76-.08h-.76s-.76.1-.76.1h-.76s-.76-.1-.76-.1h-.76s-.76.09-.76.09h-.76s-.76-.08-.76-.08l-.76.09-.76-.09h-.76s-.76.08-.76.08h-.76s-.76-.09-.76-.09l-.76.03h-.76s-.77.09-.77.09l.51.57.56.5.53.53.48.58.61.46.52.55.57.49.56.5.54.7v.86s-.03.71-.03.71l.03.71v.71s-.01.71-.01.71l.06.71-.1.71.12.71-.11.71.03.71.06.71-.07.71.11.71-.05.71-.08.72.12.72-.12.72.06.72v.72s-.04.72-.04.72l-.02.72.09.71.03.71-.03.71-.07.71v.71s.08.71.08.71l-.09.7-.24.63-.48.51-.6.48-.6.47-.53.54-.57.51-.56.52-.56.53-.49.57-.09.29.73.03.74.07.75-.08.74.09.75-.04.74.08.75-.04.75-.07.75.1.74.02.75-.07.75.05.75-.03.75-.05.75.06.75.03.75-.05.75-.06.75-.02h.75s.75.04.75.04l.75-.03.74.12-.05-.69-.48-.48-.53-.43-.44-.52-.5-.48-.5-.47-.56-.41-.44-.53-.54-.45-.27-.62-.09-.65-.06-.67.07-.64-.05-.64.03-.64-.06-.64-.02-.64v-.72s.13-.71.13-.71l.46-.46.67.34.54.54.41.64.49.58.4.64.52.57.42.63.43.63.43.62.39.65.37.66.49.58.48.59.59.5.48.6.71.34.61.47.59.49.62.46.67.4.63.45.59.5.66.4.66.39.66.4.7-.25.6-.43.51-.53.51-.49.58-.42.46-.53.14-.67-.49-.55-.38-.61-.41-.59-.37-.62-.45-.57-.36-.63-.42-.59-.47-.56-.4-.6-.46-.56-.4-.6-.36-.63-.44-.58-.5-.54-.4-.61-.42-.59-.42-.59-.45-.57-.42-.59-.4-.6-.42-.59-.41-.59-.64-.44-.77-.2-.76-.21-.77-.15-.73-.26-.06-.06ZM187.9,59.6l-.47.55-.49.53-.44.57-.5.53-.54.49-.47.55-.43.58-.59.46-.43.59-.55.48-.46.56-.49.48-.05-.67v-.69s-.02-.69-.02-.69l-.02-.69-.02-.69.06-.69.03-.69-.03-.69.25-.66.52-.51.51-.45.49-.47.52-.43.53-.43.76-.1.58.54.64.49.59.54.51.6.02.02Z"/>
    <path class="b" d="M234.98,85.08l-.51-.53-.52-.52-.58-.46-.54-.5-.51-.52-.6-.43-.56-.47-.46-.57-.54-.49-.4-.59-.25-.66-.33-.63-.19-.68-.34-.63-.16-.7-.3-.65-.31-.64-.29-.65-.23-.67-.25-.66-.31-.64-.25-.66-.19-.68-.3-.64-.18-.69-.28-.65-.29-.65-.21-.68-.29-.65-.28-.66-.25-.67-.32-.65-.25-.67-.19-.69-.29-.66-.34-.64-.14-.71-.35-.63-.19-.69-.31-.64-.22-.68-.31-.65-.25-.67-.29-.65-.29-.66-.28-.65-.2-.68-.23-.67-.29-.65-.29-.65-.29-.65-.43-.02-.53.47-.56.44-.56.44-.52.49-.51.49-.46.55-.51.5-.57.44-.44.64-.39.67-.08.76-.16.69-.23.67-.26.66-.21.68-.3.65-.18.69-.33.64-.31.65-.2.68-.24.67-.27.66-.29.65-.27.65-.25.66-.25.67-.27.66-.35.63-.27.66-.18.7-.26.67-.38.63-.27.67-.19.7-.27.66-.35.63-.17.7-.36.62-.26.66-.19.69-.25.66-.37.62-.22.66-.48.61-.54.58-.52.54-.52.55-.57.5-.64.44-.5.57-.6.48-.52.54-.11.48h.77s.77.06.77.06l.77.03.77-.03h.77s.77.01.77.01l.77-.06.77.09.77-.11.77.11.78-.03.78-.06.78.07.78-.1.78.05.78.08.78-.12.77.12.78-.06h.77s.46-.33.46-.33l-.5-.53-.59-.43-.56-.5-.55-.52-.53-.55-.56-.52-.57-.52-.3-.68-.03-.84.24-.82.31-.59.36-.55.44-.47.76-.16.79-.03h.8s.8-.02.8-.02l.8-.03.8.02.8.02.8-.09.72.32.57.52.21.62.28.59.3.59.09.69-.02.68-.1.68-.34.62-.31.63-.27.63-.4.57-.28.65.51.41.75-.05.74-.02h.75s.75.05.75.05l.75-.04.75.12.75-.08.75.02.75-.05.76.08h.76s.76,0,.76,0l.75-.08.75.08.75-.09.75.07.85.02.84-.04.85-.11-.02-.09ZM214.56,72.87l.24-.71.27-.71.22-.73.29-.71.32-.7.2-.74.24-.72.36-.68.28.62.21.7.25.69.33.66.21.78.36.73.18.78.31.7-.72.06-.72.03-.72-.04h-.72s-.72.03-.72.03h-.71s.05-.05.05-.05Z"/>
  </g>
</svg>